<?xml version="1.0" encoding="UTF-8"?>
<svg id="uuid-105b94e4-d47f-430e-bb74-6049750c63ce" data-name="Capa 1" xmlns="http://www.w3.org/2000/svg" viewBox="0 0 79.12 76.22">
  <defs>
    <style>
      .uuid-72db5f91-8a55-4920-b610-384eeaed34d9 {
        fill: #ffdd5b;
      }

      .uuid-dd084a5c-71fb-4080-bfff-abf19c101ef0 {
        fill: #fad74f;
      }

      .uuid-5a58d98b-4fee-41e1-9c7f-ff740145cc29 {
        fill: #fff;
      }

      .uuid-0304960b-a4e2-4751-bf84-90592075a91d {
        fill: #dddcdf;
      }

      .uuid-d0857c42-68f6-4136-b0f7-5b747c3219db {
        fill: #ea5658;
      }

      .uuid-d42a340c-0ade-46c1-8dd5-1ee833ee6d77 {
        fill: #edeef0;
      }

      .uuid-b35c8040-f66e-4f4a-95d9-d7df63767edd {
        fill: #e94443;
      }

      .uuid-85ca509e-3450-4693-9ece-9f1c33f1eec4 {
        fill: #eb5858;
      }
    </style>
  </defs>
  <path class="uuid-0304960b-a4e2-4751-bf84-90592075a91d" d="m0,45.32C0,31.85,0,18.37,0,4.9c.05-.08.13-.16.15-.24C.87,2.25,2.54.88,4.92.29c.17-.04.26-.13.29-.29h48.93c.05.31.3.26.51.31,2.9.7,4.69,2.97,4.69,5.96,0,6.36.01,12.72-.02,19.08,0,.73.15.98.93.97,4.14-.04,8.27-.02,12.41-.02.57,0,1.13.05,1.69.16,2.64.51,4.75,2.9,4.75,5.53.02,12.85.01,25.69,0,38.54,0,2.23-1.53,4.35-3.62,5.15-.43.17-.86.36-1.29.55H24.69c-.18-.2-.44-.21-.67-.3-2.64-1.03-4.28-3.03-4.26-6.03.05-6.34,0-12.67.03-19.01,0-.65-.18-.84-.84-.84-4.14.03-8.28-.06-12.41.04-2.42.06-5.6-1.52-6.37-4.47-.03-.11-.11-.21-.17-.32Zm2.53-20.24c0,6.34,0,12.68,0,19.01,0,1.98,1.61,3.6,3.57,3.6,4.29,0,8.57-.01,12.86.02.67,0,.83-.21.83-.85-.02-4.68.02-9.36-.03-14.04-.02-1.99.45-3.66,2.07-4.97,1.14-.93,2.34-1.55,3.82-1.55,10.13,0,20.27,0,30.4.01.71,0,.92-.19.92-.91-.03-6.31-.02-12.63-.02-18.94,0-2.36-1.58-3.94-3.95-3.94-15.56,0-31.12,0-46.69,0-2.24,0-3.79,1.54-3.79,3.76,0,6.26,0,12.53,0,18.79Zm46.98,48.77c7.83,0,15.66,0,23.49,0,1.83,0,3.77-1.64,3.76-3.7-.04-12.6-.04-25.2,0-37.8,0-2.15-2.1-3.68-3.71-3.68-15.59,0-31.17,0-46.76,0-.61,0-1.24.07-1.81.32-1.57.7-2.18,2-2.18,3.64,0,12.43.03,24.86-.03,37.28,0,2.04,1.55,3.95,3.96,3.94,7.76-.05,15.51-.02,23.27-.02Z"/>
  <path class="uuid-5a58d98b-4fee-41e1-9c7f-ff740145cc29" d="m70.49,17.4c-.2-.14-.28-.2-.36-.25-.82-.49-1.32-.47-1.77.08-.43.53-.31,1.19.31,1.81.68.68,1.38,1.35,2.04,2.05.53.56,1.13.63,1.71.21,1.05-.78,1.99-1.7,2.76-2.76.42-.57.14-1.26-.48-1.6-.66-.36-1.15-.03-1.68.46,0-1.43.06-2.74-.01-4.04-.12-1.98-.85-3.09-3.02-3.54-1.9-.39-3.84-.13-5.76-.14-.87,0-1.33.75-1.09,1.54.2.67.73.8,1.33.81,1.54.01,3.07,0,4.61,0,.85,0,1.41.48,1.42,1.25.03,1.33,0,2.66,0,4.11Z"/>
  <path class="uuid-d42a340c-0ade-46c1-8dd5-1ee833ee6d77" d="m2.53,25.08c0-6.26,0-12.53,0-18.79,0-2.22,1.56-3.76,3.79-3.76,15.56,0,31.12,0,46.69,0,2.36,0,3.95,1.58,3.95,3.94,0,6.31-.01,12.63.02,18.94,0,.72-.2.91-.92.91-10.13-.02-20.27-.02-30.4-.01-1.48,0-2.68.63-3.82,1.55-1.62,1.31-2.09,2.98-2.07,4.97.05,4.68,0,9.36.03,14.04,0,.64-.16.85-.83.85-4.29-.03-8.57-.01-12.86-.02-1.96,0-3.57-1.63-3.57-3.6,0-6.34,0-12.68,0-19.01Z"/>
  <path class="uuid-d42a340c-0ade-46c1-8dd5-1ee833ee6d77" d="m49.51,73.85c-7.76,0-15.51-.03-23.27.02-2.41.02-3.97-1.89-3.96-3.94.06-12.43.03-24.86.03-37.28,0-1.64.6-2.94,2.18-3.64.57-.25,1.19-.32,1.81-.32,15.59,0,31.17,0,46.76,0,1.61,0,3.72,1.53,3.71,3.68-.04,12.6-.04,25.2,0,37.8,0,2.05-1.93,3.7-3.76,3.7-7.83-.01-15.66,0-23.49,0Zm-13.1-35.37c.09.35.42.46.65.68,1.62,1.51,3.75,1.92,5.6.95,2.08-1.09,3.09-2.48,2.83-4.94-.09-.89-.31-1.79-1.17-2.34-1.27-1.54-2.91-2-4.82-1.63-3.28.64-5.2,4.3-3.09,7.28Zm23.08,32.97c2.68,0,5.35.03,8.03.02,2.73-.01,4.45-2.55,3.34-5.04-1.01-2.27-2.04-4.53-3.23-6.73-1.52-2.81-2.66-5.81-4.19-8.63-1.33-2.46-2.31-5.11-3.66-7.58-.93-1.69-2.16-2.96-4.12-3.35-2.47-.49-4.66-.03-6.3,2.02-.83,1.03-1.43,2.21-1.93,3.44-.19.05-.36-.02-.48-.13-.81-.72-1.77-1.13-2.84-1.27-1.87-.25-3.6.03-5.12,1.28-1.28,1.05-1.81,2.57-2.6,3.92-1.4,2.38-2.5,4.93-3.82,7.36-1.71,3.14-3.25,6.38-4.97,9.52-.46.83-.49,1.72-.24,2.63.44,1.62,2.02,2.59,3.75,2.58,6.44-.03,12.88-.01,19.33-.01,3.02,0,6.04-.01,9.07-.02Z"/>
  <path class="uuid-85ca509e-3450-4693-9ece-9f1c33f1eec4" d="m70.49,17.4c0-1.45.02-2.78,0-4.11-.02-.78-.58-1.25-1.42-1.25-1.54-.01-3.07,0-4.61,0-.59,0-1.12-.14-1.33-.81-.24-.79.23-1.54,1.09-1.54,1.92,0,3.86-.26,5.76.14,2.17.45,2.91,1.56,3.02,3.54.08,1.3.01,2.61.01,4.04.54-.49,1.03-.82,1.68-.46.63.34.9,1.03.48,1.6-.77,1.06-1.7,1.98-2.76,2.76-.58.42-1.18.35-1.71-.21-.66-.7-1.36-1.37-2.04-2.05-.63-.63-.74-1.29-.31-1.81.44-.54.95-.57,1.77-.08.08.05.16.11.36.25Z"/>
  <path class="uuid-85ca509e-3450-4693-9ece-9f1c33f1eec4" d="m8.63,58.97c0,1.5-.02,2.88,0,4.26.01.7.48,1.1,1.2,1.11,1.56.01,3.12,0,4.68,0,.88,0,1.5.48,1.53,1.15.03.7-.62,1.22-1.54,1.22-1.63,0-3.27-.05-4.9,0-1.56.06-3.42-1.76-3.37-3.35.05-1.43,0-2.86,0-4.34-.34.15-.63.26-.91.4-.55.28-1.02.15-1.37-.31-.37-.48-.41-1.06.02-1.49.89-.92,1.82-1.81,2.8-2.63.55-.46,1.14-.12,1.59.27.73.62,1.43,1.28,2.12,1.95.75.73.84,1.36.33,1.93-.52.58-1.31.54-2.19-.2Z"/>
  <path class="uuid-d0857c42-68f6-4136-b0f7-5b747c3219db" d="m59.49,71.45c-3.02,0-6.04.02-9.07.02-6.44,0-12.88-.02-19.33.01-1.73,0-3.31-.96-3.75-2.58-.25-.91-.22-1.8.24-2.63,1.73-3.14,3.26-6.38,4.97-9.52,1.33-2.43,2.43-4.98,3.82-7.36.79-1.35,1.32-2.88,2.6-3.92,1.52-1.24,3.25-1.52,5.12-1.28,1.07.14,2.02.54,2.84,1.27.12.11.29.19.48.13.23.87.99,1.38,1.39,2.15,1.21,2.35,2.3,4.76,3.63,7.05,1.47,2.54,2.61,5.27,4.07,7.83,1.09,1.91,1.99,3.93,2.98,5.9.11.22.22.45.37.64.8,1.07.72,1.56-.38,2.28Z"/>
  <path class="uuid-b35c8040-f66e-4f4a-95d9-d7df63767edd" d="m59.49,71.45c1.1-.71,1.17-1.2.38-2.28-.15-.2-.26-.42-.37-.64-.99-1.97-1.89-3.99-2.98-5.9-1.46-2.56-2.6-5.28-4.07-7.83-1.33-2.3-2.42-4.7-3.63-7.05-.4-.77-1.16-1.29-1.39-2.15.5-1.23,1.09-2.41,1.93-3.44,1.65-2.04,3.84-2.51,6.3-2.02,1.96.39,3.18,1.66,4.12,3.35,1.36,2.46,2.33,5.11,3.66,7.58,1.53,2.82,2.66,5.82,4.19,8.63,1.19,2.2,2.22,4.46,3.23,6.73,1.11,2.49-.61,5.03-3.34,5.04-2.68.01-5.35-.01-8.03-.02Z"/>
  <path class="uuid-72db5f91-8a55-4920-b610-384eeaed34d9" d="m36.41,38.48c-2.11-2.98-.19-6.64,3.09-7.28,1.91-.37,3.55.09,4.82,1.63-.29.38-.02.72.14,1.01.24.46.23.94.08,1.35-.13.34-.26.69-.38,1.03-.82,2.26-3.26,3.54-5.6,3.02-.76-.17-1.36-.72-2.15-.77Z"/>
  <path class="uuid-dd084a5c-71fb-4080-bfff-abf19c101ef0" d="m36.41,38.48c.79.05,1.39.6,2.15.77,2.34.52,4.78-.76,5.6-3.02.13-.34.25-.69.38-1.03.16-.42.17-.9-.08-1.35-.16-.3-.42-.63-.14-1.01.86.54,1.08,1.44,1.17,2.34.26,2.46-.75,3.85-2.83,4.94-1.85.97-3.98.56-5.6-.95-.23-.21-.57-.33-.65-.68Z"/>
</svg>