<?xml version="1.0" encoding="UTF-8" standalone="no"?>
<!DOCTYPE svg PUBLIC "-//W3C//DTD SVG 1.1//EN" "http://www.w3.org/Graphics/SVG/1.1/DTD/svg11.dtd">
<svg xmlns="http://www.w3.org/2000/svg" version="1.1" viewBox="0.00 0.00 512.00 512.00">
<g stroke-width="2.00" fill="none" stroke-linecap="butt">
<path stroke="#a0727c" vector-effect="non-scaling-stroke" d="
  M 355.51 184.96
  C 349.92 184.34 348.48 180.99 348.48 175.62
  Q 348.47 118.48 348.48 61.32
  Q 348.48 53.67 347.11 49.76
  Q 343.76 40.22 334.25 36.90
  Q 330.25 35.50 322.08 35.50
  Q 194.30 35.53 66.51 35.49
  Q 53.97 35.49 49.63 36.95
  Q 40.23 40.10 36.89 49.89
  Q 35.51 53.92 35.51 61.78
  Q 35.55 225.46 35.51 389.14
  Q 35.50 401.26 37.04 405.69
  Q 40.23 414.93 49.75 418.14
  Q 54.03 419.59 63.42 419.56
  Q 109.83 419.46 156.26 419.52
  Q 162.82 419.53 163.64 426.67"
/>
<path stroke="#a0727c" vector-effect="non-scaling-stroke" d="
  M 355.51 312.83
  Q 334.66 312.90 313.75 312.85
  C 307.56 312.84 305.74 316.62 305.75 322.39
  Q 305.77 374.57 305.75 426.69"
/>
<path stroke="#a0727c" vector-effect="non-scaling-stroke" d="
  M 291.55 426.69
  Q 291.53 395.69 291.51 364.64
  C 291.51 359.56 289.73 355.53 284.25 355.52
  Q 263.75 355.49 243.24 355.53
  C 236.52 355.55 234.62 358.79 234.64 365.33
  Q 234.75 396.05 234.65 426.68"
/>
<path stroke="#a0727c" vector-effect="non-scaling-stroke" d="
  M 220.51 426.69
  Q 220.44 414.23 220.48 401.80
  C 220.50 395.89 219.85 391.72 216.87 387.16
  C 208.37 374.15 188.92 374.59 180.95 387.81
  Q 177.60 393.36 177.72 400.49
  Q 177.84 408.33 177.73 426.66"
/>
<path stroke="#a0727c" vector-effect="non-scaling-stroke" d="
  M 291.4007 85.0335
  A 20.85 20.85 0.0 0 0 270.5871 64.1471
  L 113.4873 63.8729
  A 20.85 20.85 0.0 0 0 92.6010 84.6865
  L 92.5993 85.6465
  A 20.85 20.85 0.0 0 0 113.4129 106.5329
  L 270.5127 106.8071
  A 20.85 20.85 0.0 0 0 291.3990 85.9935
  L 291.4007 85.0335"
/>
<path stroke="#a0727c" vector-effect="non-scaling-stroke" d="
  M 213.27 135.02
  A 7.02 7.02 0.0 0 0 206.25 128.00
  L 71.05 128.00
  A 7.02 7.02 0.0 0 0 64.03 135.02
  L 64.03 135.20
  A 7.02 7.02 0.0 0 0 71.05 142.22
  L 206.25 142.22
  A 7.02 7.02 0.0 0 0 213.27 135.20
  L 213.27 135.02"
/>
<path stroke="#a0727c" vector-effect="non-scaling-stroke" d="
  M 170.63 163.46
  A 6.97 6.97 0.0 0 0 163.66 156.49
  L 85.24 156.49
  A 6.97 6.97 0.0 0 0 78.27 163.46
  L 78.27 163.72
  A 6.97 6.97 0.0 0 0 85.24 170.69
  L 163.66 170.69
  A 6.97 6.97 0.0 0 0 170.63 163.72
  L 170.63 163.46"
/>
<path stroke="#a0727c" vector-effect="non-scaling-stroke" d="
  M 149.2296 191.7681
  A 6.98 6.98 0.0 0 0 142.2375 184.8003
  L 85.2776 184.8997
  A 6.98 6.98 0.0 0 0 78.3098 191.8919
  L 78.3104 192.2319
  A 6.98 6.98 0.0 0 0 85.3025 199.1997
  L 142.2624 199.1003
  A 6.98 6.98 0.0 0 0 149.2302 192.1081
  L 149.2296 191.7681"
/>
<path stroke="#a0727c" vector-effect="non-scaling-stroke" d="
  M 221.05 234.74
  Q 245.52 234.60 270.00 234.72
  C 293.71 234.83 300.18 201.03 277.04 193.14
  Q 273.65 191.99 266.34 192.00
  Q 236.54 192.05 206.75 191.95
  Q 196.31 191.91 191.93 193.40
  Q 182.41 196.61 179.19 206.05
  Q 177.68 210.51 177.71 221.64
  Q 177.80 250.39 177.76 279.14
  C 177.75 288.39 178.94 295.23 185.99 300.55
  C 197.70 309.39 214.51 304.45 219.14 290.95
  Q 220.49 287.02 220.47 279.42
  Q 220.42 257.35 220.50 235.29
  Q 220.50 234.74 221.05 234.74"
/>
<path stroke="#a0727c" vector-effect="non-scaling-stroke" d="
  M 163.4801 220.3768
  A 6.98 6.98 0.0 0 0 156.5123 213.3846
  L 71.0525 213.2354
  A 6.98 6.98 0.0 0 0 64.0603 220.2032
  L 64.0599 220.4432
  A 6.98 6.98 0.0 0 0 71.0277 227.4354
  L 156.4875 227.5846
  A 6.98 6.98 0.0 0 0 163.4797 220.6168
  L 163.4801 220.3768"
/>
<path stroke="#a0727c" vector-effect="non-scaling-stroke" d="
  M 163.4802 312.8405
  A 6.98 6.98 0.0 0 0 156.5123 305.8484
  L 78.1725 305.7116
  A 6.98 6.98 0.0 0 0 71.1803 312.6795
  L 71.1798 312.9395
  A 6.98 6.98 0.0 0 0 78.1477 319.9316
  L 156.4875 320.0684
  A 6.98 6.98 0.0 0 0 163.4797 313.1005
  L 163.4802 312.8405"
/>
<path stroke="#a0727c" vector-effect="non-scaling-stroke" d="
  M 135.0196 341.0867
  A 6.89 6.89 0.0 0 0 128.1176 334.2087
  L 92.2776 334.2713
  A 6.89 6.89 0.0 0 0 85.3997 341.1733
  L 85.4004 341.6133
  A 6.89 6.89 0.0 0 0 92.3024 348.4913
  L 128.1424 348.4287
  A 6.89 6.89 0.0 0 0 135.0203 341.5267
  L 135.0196 341.0867"
/>
<path stroke="#a0727c" vector-effect="non-scaling-stroke" d="
  M 135.0196 369.5167
  A 6.86 6.86 0.0 0 0 128.1476 362.6687
  L 92.2477 362.7313
  A 6.86 6.86 0.0 0 0 85.3997 369.6033
  L 85.4004 370.0233
  A 6.86 6.86 0.0 0 0 92.2724 376.8713
  L 128.1723 376.8087
  A 6.86 6.86 0.0 0 0 135.0203 369.9367
  L 135.0196 369.5167"
/>
<path stroke="#9f5656" vector-effect="non-scaling-stroke" d="
  M 277.27 85.27
  A 7.05 7.05 0.0 0 0 270.22 78.22
  L 113.78 78.22
  A 7.05 7.05 0.0 0 0 106.73 85.27
  L 106.73 85.43
  A 7.05 7.05 0.0 0 0 113.78 92.48
  L 270.22 92.48
  A 7.05 7.05 0.0 0 0 277.27 85.43
  L 277.27 85.27"
/>
<path stroke="#9f5656" vector-effect="non-scaling-stroke" d="
  M 206.50 225.63
  C 207.76 221.64 210.54 220.50 214.68 220.49
  Q 241.97 220.48 269.25 220.49
  C 277.03 220.49 280.73 211.01 273.74 207.22
  Q 271.89 206.22 268.07 206.22
  Q 233.78 206.23 199.50 206.21
  C 193.35 206.21 192.00 210.57 192.00 216.07
  Q 191.99 249.06 192.01 282.06
  Q 192.01 285.50 192.95 287.21
  C 196.51 293.75 206.25 290.80 206.25 283.50
  Q 206.23 254.99 206.25 227.27
  A 5.52 5.48 53.9 0 1 206.50 225.63"
/>
<path stroke="#9f5656" vector-effect="non-scaling-stroke" d="
  M 457.36 220.80
  C 461.19 222.30 462.21 224.96 462.22 229.10
  Q 462.27 256.17 462.22 283.25
  C 462.21 291.34 472.94 293.83 475.83 286.45
  Q 476.48 284.81 476.48 280.95
  Q 476.48 247.85 476.47 214.75
  C 476.47 208.39 473.40 206.24 467.25 206.23
  Q 433.63 206.21 400.00 206.22
  C 392.19 206.23 389.59 216.55 396.61 219.69
  Q 398.43 220.50 402.53 220.50
  Q 429.47 220.47 455.73 220.50
  A 4.63 4.55 54.9 0 1 457.36 220.80"
/>
<path stroke="#9f5656" vector-effect="non-scaling-stroke" d="
  M 419.53 263.42
  A 0.27 0.27 0.0 0 0 419.26 263.15
  L 391.36 263.15
  A 0.27 0.27 0.0 0 0 391.09 263.42
  L 391.09 419.24
  A 0.27 0.27 0.0 0 0 391.36 419.51
  L 419.26 419.51
  A 0.27 0.27 0.0 0 0 419.53 419.24
  L 419.53 263.42"
/>
<path stroke="#9f5656" vector-effect="non-scaling-stroke" d="
  M 348.48 327.55
  A 0.40 0.40 0.0 0 0 348.08 327.15
  L 320.40 327.15
  A 0.40 0.40 0.0 0 0 320.00 327.55
  L 320.00 419.11
  A 0.40 0.40 0.0 0 0 320.40 419.51
  L 348.08 419.51
  A 0.40 0.40 0.0 0 0 348.48 419.11
  L 348.48 327.55"
/>
<path stroke="#9f5656" vector-effect="non-scaling-stroke" d="
  M 277.32 370.05
  A 0.27 0.27 0.0 0 0 277.05 369.78
  L 249.17 369.78
  A 0.27 0.27 0.0 0 0 248.90 370.05
  L 248.90 419.25
  A 0.27 0.27 0.0 0 0 249.17 419.52
  L 277.05 419.52
  A 0.27 0.27 0.0 0 0 277.32 419.25
  L 277.32 370.05"
/>
<path stroke="#9f5656" vector-effect="non-scaling-stroke" d="
  M 213.25 462.13
  C 208.55 462.12 206.27 458.57 206.26 454.17
  Q 206.22 426.71 206.25 399.25
  C 206.26 391.53 195.76 388.85 192.72 395.99
  Q 191.98 397.72 191.98 401.61
  Q 192.02 433.66 191.99 465.72
  C 191.98 471.66 192.90 476.49 199.75 476.49
  Q 233.62 476.49 267.50 476.48
  Q 271.68 476.48 273.41 475.74
  C 278.17 473.69 278.54 465.91 274.25 463.41
  Q 272.20 462.22 267.53 462.22
  Q 240.39 462.21 213.25 462.13"
/>
<path stroke="#9f5656" vector-effect="non-scaling-stroke" d="
  M 462.95 395.95
  Q 462.25 397.39 462.25 398.00
  Q 462.22 424.46 462.25 450.91
  C 462.25 456.78 461.69 462.25 454.75 462.24
  Q 428.28 462.20 401.81 462.23
  Q 397.71 462.24 395.86 463.25
  C 391.53 465.61 391.55 472.97 395.79 475.36
  Q 397.75 476.47 402.13 476.47
  Q 435.19 476.51 468.25 476.48
  C 474.83 476.47 476.46 472.67 476.46 466.59
  Q 476.50 433.77 476.46 400.95
  Q 476.46 397.38 475.61 395.68
  C 472.97 390.39 465.53 390.65 462.95 395.95"
/>
</g>
<path fill="#440a29" d="
  M 355.51 184.96
  C 349.92 184.34 348.48 180.99 348.48 175.62
  Q 348.47 118.48 348.48 61.32
  Q 348.48 53.67 347.11 49.76
  Q 343.76 40.22 334.25 36.90
  Q 330.25 35.50 322.08 35.50
  Q 194.30 35.53 66.51 35.49
  Q 53.97 35.49 49.63 36.95
  Q 40.23 40.10 36.89 49.89
  Q 35.51 53.92 35.51 61.78
  Q 35.55 225.46 35.51 389.14
  Q 35.50 401.26 37.04 405.69
  Q 40.23 414.93 49.75 418.14
  Q 54.03 419.59 63.42 419.56
  Q 109.83 419.46 156.26 419.52
  Q 162.82 419.53 163.64 426.67
  C 162.99 432.35 159.53 433.78 154.08 433.78
  Q 106.03 433.77 58.00 433.73
  C 37.65 433.72 21.51 418.83 21.49 398.25
  Q 21.31 227.75 21.37 57.25
  C 21.37 41.24 31.67 27.07 47.13 22.79
  Q 52.51 21.31 67.00 21.31
  Q 196.75 21.33 326.50 21.37
  C 342.84 21.37 357.01 31.61 361.25 47.38
  Q 362.72 52.83 362.70 67.25
  Q 362.65 122.01 362.69 176.75
  Q 362.69 184.08 355.51 184.96
  Z"
/>
<path fill="#fbdace" d="
  M 355.51 184.96
  L 355.51 312.83
  Q 334.66 312.90 313.75 312.85
  C 307.56 312.84 305.74 316.62 305.75 322.39
  Q 305.77 374.57 305.75 426.69
  L 291.55 426.69
  Q 291.53 395.69 291.51 364.64
  C 291.51 359.56 289.73 355.53 284.25 355.52
  Q 263.75 355.49 243.24 355.53
  C 236.52 355.55 234.62 358.79 234.64 365.33
  Q 234.75 396.05 234.65 426.68
  L 220.51 426.69
  Q 220.44 414.23 220.48 401.80
  C 220.50 395.89 219.85 391.72 216.87 387.16
  C 208.37 374.15 188.92 374.59 180.95 387.81
  Q 177.60 393.36 177.72 400.49
  Q 177.84 408.33 177.73 426.66
  L 163.64 426.67
  Q 162.82 419.53 156.26 419.52
  Q 109.83 419.46 63.42 419.56
  Q 54.03 419.59 49.75 418.14
  Q 40.23 414.93 37.04 405.69
  Q 35.50 401.26 35.51 389.14
  Q 35.55 225.46 35.51 61.78
  Q 35.51 53.92 36.89 49.89
  Q 40.23 40.10 49.63 36.95
  Q 53.97 35.49 66.51 35.49
  Q 194.30 35.53 322.08 35.50
  Q 330.25 35.50 334.25 36.90
  Q 343.76 40.22 347.11 49.76
  Q 348.48 53.67 348.48 61.32
  Q 348.47 118.48 348.48 175.62
  C 348.48 180.99 349.92 184.34 355.51 184.96
  Z
  M 291.4007 85.0335
  A 20.85 20.85 0.0 0 0 270.5871 64.1471
  L 113.4873 63.8729
  A 20.85 20.85 0.0 0 0 92.6010 84.6865
  L 92.5993 85.6465
  A 20.85 20.85 0.0 0 0 113.4129 106.5329
  L 270.5127 106.8071
  A 20.85 20.85 0.0 0 0 291.3990 85.9935
  L 291.4007 85.0335
  Z
  M 213.27 135.02
  A 7.02 7.02 0.0 0 0 206.25 128.00
  L 71.05 128.00
  A 7.02 7.02 0.0 0 0 64.03 135.02
  L 64.03 135.20
  A 7.02 7.02 0.0 0 0 71.05 142.22
  L 206.25 142.22
  A 7.02 7.02 0.0 0 0 213.27 135.20
  L 213.27 135.02
  Z
  M 170.63 163.46
  A 6.97 6.97 0.0 0 0 163.66 156.49
  L 85.24 156.49
  A 6.97 6.97 0.0 0 0 78.27 163.46
  L 78.27 163.72
  A 6.97 6.97 0.0 0 0 85.24 170.69
  L 163.66 170.69
  A 6.97 6.97 0.0 0 0 170.63 163.72
  L 170.63 163.46
  Z
  M 149.2296 191.7681
  A 6.98 6.98 0.0 0 0 142.2375 184.8003
  L 85.2776 184.8997
  A 6.98 6.98 0.0 0 0 78.3098 191.8919
  L 78.3104 192.2319
  A 6.98 6.98 0.0 0 0 85.3025 199.1997
  L 142.2624 199.1003
  A 6.98 6.98 0.0 0 0 149.2302 192.1081
  L 149.2296 191.7681
  Z
  M 221.05 234.74
  Q 245.52 234.60 270.00 234.72
  C 293.71 234.83 300.18 201.03 277.04 193.14
  Q 273.65 191.99 266.34 192.00
  Q 236.54 192.05 206.75 191.95
  Q 196.31 191.91 191.93 193.40
  Q 182.41 196.61 179.19 206.05
  Q 177.68 210.51 177.71 221.64
  Q 177.80 250.39 177.76 279.14
  C 177.75 288.39 178.94 295.23 185.99 300.55
  C 197.70 309.39 214.51 304.45 219.14 290.95
  Q 220.49 287.02 220.47 279.42
  Q 220.42 257.35 220.50 235.29
  Q 220.50 234.74 221.05 234.74
  Z
  M 163.4801 220.3768
  A 6.98 6.98 0.0 0 0 156.5123 213.3846
  L 71.0525 213.2354
  A 6.98 6.98 0.0 0 0 64.0603 220.2032
  L 64.0599 220.4432
  A 6.98 6.98 0.0 0 0 71.0277 227.4354
  L 156.4875 227.5846
  A 6.98 6.98 0.0 0 0 163.4797 220.6168
  L 163.4801 220.3768
  Z
  M 163.4802 312.8405
  A 6.98 6.98 0.0 0 0 156.5123 305.8484
  L 78.1725 305.7116
  A 6.98 6.98 0.0 0 0 71.1803 312.6795
  L 71.1798 312.9395
  A 6.98 6.98 0.0 0 0 78.1477 319.9316
  L 156.4875 320.0684
  A 6.98 6.98 0.0 0 0 163.4797 313.1005
  L 163.4802 312.8405
  Z
  M 135.0196 341.0867
  A 6.89 6.89 0.0 0 0 128.1176 334.2087
  L 92.2776 334.2713
  A 6.89 6.89 0.0 0 0 85.3997 341.1733
  L 85.4004 341.6133
  A 6.89 6.89 0.0 0 0 92.3024 348.4913
  L 128.1424 348.4287
  A 6.89 6.89 0.0 0 0 135.0203 341.5267
  L 135.0196 341.0867
  Z
  M 135.0196 369.5167
  A 6.86 6.86 0.0 0 0 128.1476 362.6687
  L 92.2477 362.7313
  A 6.86 6.86 0.0 0 0 85.3997 369.6033
  L 85.4004 370.0233
  A 6.86 6.86 0.0 0 0 92.2724 376.8713
  L 128.1723 376.8087
  A 6.86 6.86 0.0 0 0 135.0203 369.9367
  L 135.0196 369.5167
  Z"
/>
<path fill="#440a29" d="
  M 291.3990 85.9935
  A 20.85 20.85 0.0 0 1 270.5127 106.8071
  L 113.4129 106.5329
  A 20.85 20.85 0.0 0 1 92.5993 85.6465
  L 92.6010 84.6865
  A 20.85 20.85 0.0 0 1 113.4873 63.8729
  L 270.5871 64.1471
  A 20.85 20.85 0.0 0 1 291.4007 85.0335
  L 291.3990 85.9935
  Z
  M 277.27 85.27
  A 7.05 7.05 0.0 0 0 270.22 78.22
  L 113.78 78.22
  A 7.05 7.05 0.0 0 0 106.73 85.27
  L 106.73 85.43
  A 7.05 7.05 0.0 0 0 113.78 92.48
  L 270.22 92.48
  A 7.05 7.05 0.0 0 0 277.27 85.43
  L 277.27 85.27
  Z"
/>
<rect fill="#faa283" x="106.73" y="78.22" width="170.54" height="14.26" rx="7.05"/>
<rect fill="#440a29" x="64.03" y="128.00" width="149.24" height="14.22" rx="7.02"/>
<rect fill="#440a29" x="78.27" y="156.49" width="92.36" height="14.20" rx="6.97"/>
<rect fill="#440a29" x="-35.46" y="-7.15" transform="translate(113.77,192.00) rotate(-0.1)" width="70.92" height="14.30" rx="6.98"/>
<path fill="#440a29" d="
  M 220.50 235.29
  Q 220.42 257.35 220.47 279.42
  Q 220.49 287.02 219.14 290.95
  C 214.51 304.45 197.70 309.39 185.99 300.55
  C 178.94 295.23 177.75 288.39 177.76 279.14
  Q 177.80 250.39 177.71 221.64
  Q 177.68 210.51 179.19 206.05
  Q 182.41 196.61 191.93 193.40
  Q 196.31 191.91 206.75 191.95
  Q 236.54 192.05 266.34 192.00
  Q 273.65 191.99 277.04 193.14
  C 300.18 201.03 293.71 234.83 270.00 234.72
  Q 245.52 234.60 221.05 234.74
  Q 220.50 234.74 220.50 235.29
  Z
  M 206.50 225.63
  C 207.76 221.64 210.54 220.50 214.68 220.49
  Q 241.97 220.48 269.25 220.49
  C 277.03 220.49 280.73 211.01 273.74 207.22
  Q 271.89 206.22 268.07 206.22
  Q 233.78 206.23 199.50 206.21
  C 193.35 206.21 192.00 210.57 192.00 216.07
  Q 191.99 249.06 192.01 282.06
  Q 192.01 285.50 192.95 287.21
  C 196.51 293.75 206.25 290.80 206.25 283.50
  Q 206.23 254.99 206.25 227.27
  A 5.52 5.48 53.9 0 1 206.50 225.63
  Z"
/>
<path fill="#440a29" d="
  M 447.39 234.71
  Q 428.07 234.62 408.76 234.67
  Q 397.64 234.69 395.75 234.34
  C 374.65 230.44 372.00 200.49 392.33 193.40
  Q 396.50 191.95 405.81 191.97
  Q 436.12 192.03 466.42 192.00
  C 476.82 191.98 485.62 195.68 489.23 205.92
  Q 490.74 210.21 490.71 220.73
  Q 490.63 248.75 490.71 276.75
  Q 490.73 286.86 489.25 291.08
  C 481.51 313.16 448.33 307.65 448.20 283.75
  Q 448.07 259.51 447.93 235.26
  Q 447.93 234.72 447.39 234.71
  Z
  M 457.36 220.80
  C 461.19 222.30 462.21 224.96 462.22 229.10
  Q 462.27 256.17 462.22 283.25
  C 462.21 291.34 472.94 293.83 475.83 286.45
  Q 476.48 284.81 476.48 280.95
  Q 476.48 247.85 476.47 214.75
  C 476.47 208.39 473.40 206.24 467.25 206.23
  Q 433.63 206.21 400.00 206.22
  C 392.19 206.23 389.59 216.55 396.61 219.69
  Q 398.43 220.50 402.53 220.50
  Q 429.47 220.47 455.73 220.50
  A 4.63 4.55 54.9 0 1 457.36 220.80
  Z"
/>
<path fill="#faa283" d="
  M 206.50 225.63
  A 5.52 5.48 53.9 0 0 206.25 227.27
  Q 206.23 254.99 206.25 283.50
  C 206.25 290.80 196.51 293.75 192.95 287.21
  Q 192.01 285.50 192.01 282.06
  Q 191.99 249.06 192.00 216.07
  C 192.00 210.57 193.35 206.21 199.50 206.21
  Q 233.78 206.23 268.07 206.22
  Q 271.89 206.22 273.74 207.22
  C 280.73 211.01 277.03 220.49 269.25 220.49
  Q 241.97 220.48 214.68 220.49
  C 210.54 220.50 207.76 221.64 206.50 225.63
  Z"
/>
<path fill="#faa283" d="
  M 457.36 220.80
  A 4.63 4.55 54.9 0 0 455.73 220.50
  Q 429.47 220.47 402.53 220.50
  Q 398.43 220.50 396.61 219.69
  C 389.59 216.55 392.19 206.23 400.00 206.22
  Q 433.63 206.21 467.25 206.23
  C 473.40 206.24 476.47 208.39 476.47 214.75
  Q 476.48 247.85 476.48 280.95
  Q 476.48 284.81 475.83 286.45
  C 472.94 293.83 462.21 291.34 462.22 283.25
  Q 462.27 256.17 462.22 229.10
  C 462.21 224.96 461.19 222.30 457.36 220.80
  Z"
/>
<rect fill="#440a29" x="-49.71" y="-7.10" transform="translate(113.77,220.41) rotate(0.1)" width="99.42" height="14.20" rx="6.98"/>
<path fill="#440a29" d="
  M 433.77 426.59
  A 7.18 7.18 0.0 0 1 426.59 433.77
  L 384.09 433.77
  A 7.18 7.18 0.0 0 1 376.91 426.59
  L 376.91 256.05
  A 7.18 7.18 0.0 0 1 384.09 248.87
  L 426.59 248.87
  A 7.18 7.18 0.0 0 1 433.77 256.05
  L 433.77 426.59
  Z
  M 419.53 263.42
  A 0.27 0.27 0.0 0 0 419.26 263.15
  L 391.36 263.15
  A 0.27 0.27 0.0 0 0 391.09 263.42
  L 391.09 419.24
  A 0.27 0.27 0.0 0 0 391.36 419.51
  L 419.26 419.51
  A 0.27 0.27 0.0 0 0 419.53 419.24
  L 419.53 263.42
  Z"
/>
<rect fill="#faa283" x="391.09" y="263.15" width="28.44" height="156.36" rx="0.27"/>
<rect fill="#440a29" x="-46.15" y="-7.11" transform="translate(117.33,312.89) rotate(0.1)" width="92.30" height="14.22" rx="6.98"/>
<path fill="#440a29" d="
  M 355.51 312.83
  Q 362.68 313.71 362.68 321.50
  Q 362.68 373.75 362.69 426.00
  Q 362.69 433.56 354.75 433.61
  Q 334.12 433.74 313.50 433.80
  Q 306.57 433.81 305.75 426.69
  Q 305.77 374.57 305.75 322.39
  C 305.74 316.62 307.56 312.84 313.75 312.85
  Q 334.66 312.90 355.51 312.83
  Z
  M 348.48 327.55
  A 0.40 0.40 0.0 0 0 348.08 327.15
  L 320.40 327.15
  A 0.40 0.40 0.0 0 0 320.00 327.55
  L 320.00 419.11
  A 0.40 0.40 0.0 0 0 320.40 419.51
  L 348.08 419.51
  A 0.40 0.40 0.0 0 0 348.48 419.11
  L 348.48 327.55
  Z"
/>
<rect fill="#faa283" x="320.00" y="327.15" width="28.48" height="92.36" rx="0.40"/>
<rect fill="#440a29" x="-24.81" y="-7.11" transform="translate(110.21,341.35) rotate(-0.1)" width="49.62" height="14.22" rx="6.89"/>
<path fill="#440a29" d="
  M 291.55 426.69
  Q 290.78 433.78 283.01 433.78
  Q 263.43 433.78 243.86 433.76
  C 238.60 433.76 235.10 432.19 234.65 426.68
  Q 234.75 396.05 234.64 365.33
  C 234.62 358.79 236.52 355.55 243.24 355.53
  Q 263.75 355.49 284.25 355.52
  C 289.73 355.53 291.51 359.56 291.51 364.64
  Q 291.53 395.69 291.55 426.69
  Z
  M 277.32 370.05
  A 0.27 0.27 0.0 0 0 277.05 369.78
  L 249.17 369.78
  A 0.27 0.27 0.0 0 0 248.90 370.05
  L 248.90 419.25
  A 0.27 0.27 0.0 0 0 249.17 419.52
  L 277.05 419.52
  A 0.27 0.27 0.0 0 0 277.32 419.25
  L 277.32 370.05
  Z"
/>
<rect fill="#440a29" x="-24.81" y="-7.07" transform="translate(110.21,369.77) rotate(-0.1)" width="49.62" height="14.14" rx="6.86"/>
<rect fill="#faa283" x="248.90" y="369.78" width="28.42" height="49.74" rx="0.27"/>
<path fill="#440a29" d="
  M 220.51 426.69
  L 220.49 447.46
  Q 220.48 447.99 221.02 447.99
  Q 244.01 448.02 267.01 448.00
  Q 273.66 447.99 277.34 449.31
  C 296.42 456.14 296.08 482.82 277.10 489.41
  Q 273.37 490.70 266.75 490.69
  Q 235.98 490.65 205.24 490.71
  Q 196.08 490.73 191.91 489.28
  Q 182.34 485.96 179.00 476.17
  Q 177.69 472.35 177.73 465.18
  Q 177.83 445.91 177.73 426.66
  Q 177.84 408.33 177.72 400.49
  Q 177.60 393.36 180.95 387.81
  C 188.92 374.59 208.37 374.15 216.87 387.16
  C 219.85 391.72 220.50 395.89 220.48 401.80
  Q 220.44 414.23 220.51 426.69
  Z
  M 213.25 462.13
  C 208.55 462.12 206.27 458.57 206.26 454.17
  Q 206.22 426.71 206.25 399.25
  C 206.26 391.53 195.76 388.85 192.72 395.99
  Q 191.98 397.72 191.98 401.61
  Q 192.02 433.66 191.99 465.72
  C 191.98 471.66 192.90 476.49 199.75 476.49
  Q 233.62 476.49 267.50 476.48
  Q 271.68 476.48 273.41 475.74
  C 278.17 473.69 278.54 465.91 274.25 463.41
  Q 272.20 462.22 267.53 462.22
  Q 240.39 462.21 213.25 462.13
  Z"
/>
<path fill="#440a29" d="
  M 447.98 447.43
  Q 448.04 424.53 448.01 401.61
  Q 448.00 395.48 449.28 391.90
  C 456.02 373.07 482.88 372.80 489.31 391.85
  Q 490.75 396.13 490.72 405.78
  Q 490.62 434.09 490.72 462.39
  Q 490.75 472.18 489.30 476.46
  Q 486.04 486.04 476.39 489.33
  Q 472.24 490.74 463.46 490.71
  Q 434.35 490.62 405.25 490.73
  Q 397.01 490.76 392.89 489.40
  C 373.76 483.08 373.41 455.87 392.60 449.30
  Q 396.62 447.93 405.02 447.97
  Q 426.25 448.08 447.44 447.97
  Q 447.98 447.96 447.98 447.43
  Z
  M 462.95 395.95
  Q 462.25 397.39 462.25 398.00
  Q 462.22 424.46 462.25 450.91
  C 462.25 456.78 461.69 462.25 454.75 462.24
  Q 428.28 462.20 401.81 462.23
  Q 397.71 462.24 395.86 463.25
  C 391.53 465.61 391.55 472.97 395.79 475.36
  Q 397.75 476.47 402.13 476.47
  Q 435.19 476.51 468.25 476.48
  C 474.83 476.47 476.46 472.67 476.46 466.59
  Q 476.50 433.77 476.46 400.95
  Q 476.46 397.38 475.61 395.68
  C 472.97 390.39 465.53 390.65 462.95 395.95
  Z"
/>
<path fill="#faa283" d="
  M 206.26 454.17
  C 206.27 458.57 208.55 462.12 213.25 462.13
  Q 240.39 462.21 267.53 462.22
  Q 272.20 462.22 274.25 463.41
  C 278.54 465.91 278.17 473.69 273.41 475.74
  Q 271.68 476.48 267.50 476.48
  Q 233.62 476.49 199.75 476.49
  C 192.90 476.49 191.98 471.66 191.99 465.72
  Q 192.02 433.66 191.98 401.61
  Q 191.98 397.72 192.72 395.99
  C 195.76 388.85 206.26 391.53 206.25 399.25
  Q 206.22 426.71 206.26 454.17
  Z"
/>
<path fill="#faa283" d="
  M 462.95 395.95
  C 465.53 390.65 472.97 390.39 475.61 395.68
  Q 476.46 397.38 476.46 400.95
  Q 476.50 433.77 476.46 466.59
  C 476.46 472.67 474.83 476.47 468.25 476.48
  Q 435.19 476.51 402.13 476.47
  Q 397.75 476.47 395.79 475.36
  C 391.55 472.97 391.53 465.61 395.86 463.25
  Q 397.71 462.24 401.81 462.23
  Q 428.28 462.20 454.75 462.24
  C 461.69 462.25 462.25 456.78 462.25 450.91
  Q 462.22 424.46 462.25 398.00
  Q 462.25 397.39 462.95 395.95
  Z"
/>
</svg>
