<?xml version="1.0" encoding="UTF-8"?>
<svg id="uuid-ac747571-bdd9-4e5d-b4f6-c7ff8c162c94" data-name="Capa 1" xmlns="http://www.w3.org/2000/svg" viewBox="0 0 69.45 70.09">
  <defs>
    <style>
      .uuid-7f18276c-6dc8-4c5e-a114-4e0777d6a487 {
        fill: #f18d8e;
      }

      .uuid-5bd8a659-094a-4d93-ae9c-c068a548f976 {
        fill: #7dcef3;
      }

      .uuid-6d937397-46dc-49c6-81c8-c41478989eba {
        fill: #fab757;
      }

      .uuid-7bd24ece-9940-411c-8500-c73cd036c10f {
        fill: #010102;
      }

      .uuid-dfa1af85-cb49-4f0a-9557-783b67f4c816 {
        fill: #888788;
      }

      .uuid-24bfb3b1-627b-4d80-ba9a-ed0b713e314a {
        fill: #6376b8;
      }

      .uuid-fd5e2fd6-6b32-41a3-8990-0f84c70b601f {
        fill: #3d5523;
      }

      .uuid-7d9568ca-6824-4094-bf65-d25d90656db6 {
        fill: #cce9f7;
      }

      .uuid-c024e4ff-d2fb-42e3-8315-414ce0db1ce5 {
        fill: #dfdfde;
      }

      .uuid-9ea7732b-a164-4daf-96ec-3868efbd1ba5 {
        fill: #a3c856;
      }

      .uuid-e36c9642-ec54-44b1-a08c-a6dde66f515d {
        fill: #282727;
      }

      .uuid-f465baeb-433c-4af1-8c8a-61ace431fd32 {
        fill: #57b5e6;
      }
    </style>
  </defs>
  <path class="uuid-7bd24ece-9940-411c-8500-c73cd036c10f" d="m53.47,2.75c-.18,0-.36-.03-.54-.03-16.11,0-32.21,0-48.32,0-.18,0-.36.02-.54.03-.05,0-.09,0-.14,0-1.06.35-1.22.57-1.22,1.71,0,20.4,0,40.79,0,61.19,0,1.13.26,1.49,1.22,1.71.05,0,.09,0,.14,0,.18,0,.36.03.54.03,16.11,0,32.21,0,48.32,0,.18,0,.36-.02.54-.03.05,0,.09,0,.14,0,.58-.19,1.09-.45,1.09-1.18.07-.03.13-.06.09-.15,0-2.03.04-4.05.02-6.08,0-.72.35-1.14.97-1.32.53-.15,1.02.03,1.42.45.2.21.2.43.21.68.03.05.07.1.1.15,0,2.13,0,4.26-.01,6.38-.03.05-.06.1-.09.15.02,1.66-1.55,3.15-3.01,3.53-.57.15-1.15.12-1.73.12-16.33,0-32.65,0-48.98-.02-1.41,0-2.9-1.13-3.42-2.54-.07-.19-.03-.45-.27-.57V3.12c.36-.56.52-1.22.97-1.75C1.63.61,2.52.33,3.39,0h50.76c.9.39,1.82.73,2.44,1.56.47.63.83,1.28.82,2.1.03.05.06.1.09.15.01,2.7.03,5.4.03,8.11,0,1.46-.01,2.93-.02,4.39-.03.05-.07.1-.1.15-.1.62-.77,1.23-1.32,1.21-.62-.03-1.26-.69-1.26-1.34,0-3.83,0-7.67-.01-11.5,0-.25-.02-.49-.03-.74.03-.09-.03-.12-.09-.15-.04-.68-.4-1.04-1.08-1.08-.03-.07-.06-.13-.15-.1Z"/>
  <path class="uuid-7bd24ece-9940-411c-8500-c73cd036c10f" d="m17.5,18.74c.16-.85.62-1.2,1.61-1.21,2.35,0,4.7-.02,7.05.01.48,0,.6-.12.59-.59-.03-2.42-.01-4.84-.01-7.26,0-1.07.18-1.31,1.22-1.64.04.07.09.08.14,0,3.12,0,6.24,0,9.36,0,.05.03.09.06.14.09.65.07.98.46,1.1,1.08,0,2.36-.01,4.72-.01,7.08,0,.14-.07.33.14.39,2.62.02,5.24.03,7.86.05.05.03.1.06.15.1.67.05,1.03.4,1.08,1.08.03.05.07.1.1.15,0,2.38.03,4.75.01,7.13,0,.5.11.64.62.63,3.32-.04,6.24,1.09,8.84,3.12,2.75,2.16,4.52,4.96,5.3,8.35.4,1.72.4,3.48.21,5.25-.2,1.83-.76,3.51-1.54,5.14-.19.4-.02.57.21.8,1.94,1.93,3.9,3.84,5.79,5.82.56.58,1.17,1.14,1.55,1.9,1.43,2.86-.73,5.92-3.62,5.9-1.31,0-2.3-.56-3.16-1.4-1.89-1.85-3.75-3.74-5.62-5.61-.03-.03-.07-.06-.1-.09-1.15-1.29-1.37-1.25-2.92-.22-.65.43-1.5.57-2.29.73-1.5.31-3.02.45-4.53.3-1.75-.17-3.38-.76-4.97-1.57-3.86-1.97-6.44-4.99-7.81-9.06-.36-1.07-.53-2.22-.63-3.37-.14-1.7.08-3.34.43-4.98.13-.13.23-.26,0-.39-3.55,0-7.1-.02-10.64-.02-4.02,0-8.05,0-12.07,0-1.16,0-1.58-.42-1.58-1.56,0-2.35,0-4.71,0-7.06,0-.85.32-1.21,1.22-1.42.04.07.09.08.14,0,2.17-.01,4.34-.03,6.5-.04.19-.04.15-.19.15-.32,0-2.43-.01-4.86-.02-7.29Zm21.31.73c-.15.08-.12.23-.12.36,0,1.76.01,3.52.02,5.29-.09.75-.61,1.07-1.25,1.27-.04-.02-.08-.02-.11,0-.78-.06-1.35-.63-1.35-1.83.02-4.39,0-8.78.01-13.17,0-.51-.13-.65-.64-.64-1.81.03-3.62.02-5.43,0-.38,0-.5.09-.5.49.01,7.33.01,14.67,0,22,0,.34.07.47.44.47,1.58-.02,3.17-.02,4.75,0,.38,0,.5-.13.64-.39.57-1.1,1.35-2.04,2.17-2.95,2.1-2.16,4.57-3.67,7.55-4.27.29-.06.34-.24.34-.49-.01-2.01-.02-4.02-.03-6.04-.02-.11-.1-.13-.19-.13-2.1.01-4.2.02-6.3.04Zm-18.62.9c-.14.15-.1.34-.1.52,0,4.08,0,8.16,0,12.25,0,.19-.08.41.15.55,1.99,0,3.98,0,5.96.03.47,0,.55-.16.55-.58-.01-4.12-.02-8.23,0-12.35,0-.47-.16-.55-.58-.55-1.81.02-3.61,0-5.42.01-.19,0-.41-.09-.56.12Zm15.9,20.32c-.11,6.92,5.49,12,11.32,12.27,7.61.36,12.54-5.42,12.99-11.17.59-7.62-5.44-13.96-13.44-13.27-5.43.46-10.96,5.29-10.87,12.18Zm21.72,11.52c.93,1.02,1.89,1.93,2.78,2.91,1.19,1.33,2.5,2.55,3.77,3.8.6.6,1.49.62,2.03.07.52-.54.52-1.32-.07-1.93-2.08-2.15-4.19-4.29-6.28-6.44-.21-.22-.35-.29-.6-.03-.53.55-1.09,1.08-1.64,1.62ZM14.79,33.69c.75,0,1.49-.01,2.24,0,.32,0,.43-.1.43-.42-.01-1.24-.02-2.49,0-3.73,0-.35-.11-.47-.47-.47-1.45.02-2.89.02-4.34,0-.37,0-.45.13-.45.47.02,1.24.02,2.49,0,3.73,0,.32.08.43.42.42.72-.02,1.45,0,2.17,0Z"/>
  <path class="uuid-7bd24ece-9940-411c-8500-c73cd036c10f" d="m27.27,62.76c-6.17,0-12.34,0-18.51,0-.84,0-1.42-.52-1.43-1.29-.01-.86.51-1.43,1.37-1.43,12.41,0,24.82,0,37.23,0,1.2,0,1.56.57,1.57,1.22.03.96-.47,1.48-1.45,1.49-2.83,0-5.65,0-8.48,0-3.44,0-6.87,0-10.31,0Z"/>
  <path class="uuid-7bd24ece-9940-411c-8500-c73cd036c10f" d="m7.34,52.74c-.01-1.08.41-1.73.95-1.8.99-.12,1.56.25,1.74,1.26.24,1.38,1.46,1.54,2.29,1.19.8-.33.99-.7.84-1.45-.11-.55-.69-.95-1.38-1-1.21-.09-2.31-.42-3.23-1.29-2.01-1.91-1.47-5.13.9-6.35.42-.22.85-.37,1.01-.95.18-.7.84-.66,1.44-.64.52.02.88.34.97.76.09.44.37.58.68.72,1.52.67,2.23,1.9,2.46,3.47.08.58-.49,1.33-1.03,1.43-.82.15-1.5-.27-1.67-1.03-.32-1.42-1.44-1.98-2.63-1.31-.42.24-.63.57-.63,1.06,0,.49.23.81.64,1.06.69.43,1.5.27,2.23.49,1.52.47,2.81,1.7,2.97,3.39.18,1.89-.64,3.37-2.39,4.25-.31.16-.56.32-.63.77-.07.51-.51.78-1.05.84-.7.08-1.24-.19-1.41-.83-.13-.49-.42-.64-.79-.81-1.49-.71-2.08-2.01-2.28-3.23Z"/>
  <path class="uuid-7bd24ece-9940-411c-8500-c73cd036c10f" d="m24.36,55.15c-1.33,0-2.67,0-4,0-.72,0-1.3-.64-1.37-1.38-.09-.91.67-1.46,1.28-1.46,2.76-.02,5.52-.02,8.27,0,.92,0,1.64.64,1.55,1.36-.1.85-.74,1.53-1.67,1.5-1.35-.05-2.71-.01-4.07-.02Z"/>
  <path class="uuid-7bd24ece-9940-411c-8500-c73cd036c10f" d="m24.51,47.41c-1.38,0-2.75,0-4.13,0-.79,0-1.37-.54-1.38-1.27,0-.86.51-1.44,1.37-1.44,2.71-.01,5.42-.02,8.13,0,.63,0,1.25.17,1.49.88.21.65.04,1.2-.52,1.61-.24.18-.51.23-.81.22-1.38-.01-2.75,0-4.13,0Z"/>
  <path class="uuid-7bd24ece-9940-411c-8500-c73cd036c10f" d="m35.02,53.67c.07.7-.7,1.56-1.4,1.49-.53-.05-1.33-.95-1.31-1.53.03-.61.71-1.36,1.27-1.32.91.07,1.54.54,1.44,1.35Z"/>
  <path class="uuid-7bd24ece-9940-411c-8500-c73cd036c10f" d="m57.41,21.6c0,.82-.51,1.36-1.28,1.36-.78,0-1.3-.53-1.3-1.34,0-.78.52-1.4,1.23-1.35.76.05,1.51.43,1.35,1.34Z"/>
  <path class="uuid-dfa1af85-cb49-4f0a-9557-783b67f4c816" d="m17.5,18.74c0,2.43.01,4.86.02,7.29,0,.12.04.28-.15.32,0-2.27.01-4.55.03-6.82,0-.26-.07-.54.11-.79Z"/>
  <path class="uuid-c024e4ff-d2fb-42e3-8315-414ce0db1ce5" d="m33.79,36.44c.24.12.14.25,0,.39,0-.13,0-.26,0-.39Z"/>
  <path class="uuid-e36c9642-ec54-44b1-a08c-a6dde66f515d" d="m10.86,26.39c-.05.07-.09.07-.14,0,.05,0,.09,0,.14,0Z"/>
  <path class="uuid-e36c9642-ec54-44b1-a08c-a6dde66f515d" d="m37.6,8.15s-.09-.06-.14-.09c.09-.04.11.03.14.09Z"/>
  <path class="uuid-e36c9642-ec54-44b1-a08c-a6dde66f515d" d="m28.09,8.05c-.05.07-.09.07-.14,0,.05,0,.09,0,.14,0Z"/>
  <path class="uuid-e36c9642-ec54-44b1-a08c-a6dde66f515d" d="m57.52,59.91c-.03-.05-.07-.1-.1-.15.07.03.14.06.1.15Z"/>
  <path class="uuid-7d9568ca-6824-4094-bf65-d25d90656db6" d="m36.09,40.68c-.09-6.89,5.44-11.71,10.87-12.18,8-.68,14.03,5.65,13.44,13.27-.45,5.75-5.38,11.53-12.99,11.17-5.83-.27-11.43-5.35-11.32-12.27Zm3.39-5.33c-.16,2.34,2.1,4.25,3.69,4.27,2.4.03,4.27-1.93,4.31-3.7.07-2.69-1.46-4.42-3.67-4.57-2.58-.18-4.47,2.02-4.34,4Zm12.91-.47c0-.3.02-.56-.22-.82-.76-.79-1.77-.71-2.35.28-.67,1.14-1.29,2.3-1.92,3.46-1.11,2.03-2.2,4.06-3.37,6.05-.68,1.15-1.34,2.33-1.9,3.54-.39.83-.06,1.45.76,1.82.53.24,1.29-.05,1.64-.66.99-1.74,1.97-3.48,2.94-5.23,1.15-2.05,2.31-4.09,3.41-6.17.38-.73,1.01-1.36,1.01-2.26Zm.51,7.09c-2.64,0-3.93,2.07-4.02,4.03-.09,2.08,1.98,4.17,3.97,4.11,2.11-.06,4.31-1.67,4.17-4.36-.1-1.94-1.83-3.9-4.12-3.78Z"/>
  <path class="uuid-6d937397-46dc-49c6-81c8-c41478989eba" d="m37.51,30.42c-.83.91-1.62,1.86-2.19,2.96-.17.33-.41.38-.9.37-1.22-.04-2.32-.04-3.49-.04-1.84,0-1.49.15-1.49-.4,0-7.36,0-14.72,0-22.09,0-.4.13-.49.51-.49,1.82.02,3.64.03,5.47,0,.36,0,.66.28.65.64-.02,4.41,0,8.82-.01,13.22,0,1.2.54,1.67,1.36,1.83.04,1.27-.09,2.54.07,3.8.01.06.02.13.03.19Z"/>
  <path class="uuid-9ea7732b-a164-4daf-96ec-3868efbd1ba5" d="m20.19,20.37c.15-.21.37-.12.56-.12,1.81,0,3.61,0,5.42-.01.42,0,.58.08.58.55-.02,4.12-.02,8.23,0,12.35,0,.42-.08.58-.55.58-1.99-.03-3.98-.02-5.96-.03,0-2.3,0-4.6-.02-6.89,0-2.14-.02-4.28-.03-6.42Z"/>
  <path class="uuid-5bd8a659-094a-4d93-ae9c-c068a548f976" d="m37.61,30.32l-.25-.1c.02-1.29.03-2.57.05-3.86.04.08,1.19-.33,1.29-1.17,0-.41,0-.6,0-.84.02-1.58-.03-3.12-.02-4.69,0-.11.09-.2.2-.2,2.12,0,4.35-.05,6.47-.05,0,2.05.02,4.1.03,6.15,0,.25.06.48-.23.54-2.98.61-5.43,2.06-7.54,4.21Z"/>
  <path class="uuid-24bfb3b1-627b-4d80-ba9a-ed0b713e314a" d="m57.81,52.21c.55-.54,1.11-1.06,1.64-1.62.24-.26.39-.19.6.03,2.09,2.15,4.19,4.28,6.28,6.44.59.61.59,1.4.07,1.93-.54.55-1.43.53-2.03-.07-1.27-1.26-2.58-2.48-3.77-3.8-.89-.99-1.86-1.9-2.78-2.91Z"/>
  <path class="uuid-7f18276c-6dc8-4c5e-a114-4e0777d6a487" d="m14.79,33.69c-.72,0-1.45-.02-2.17,0-.33.01-.42-.1-.42-.42.02-1.24.02-2.49,0-3.73,0-.34.08-.47.45-.47,1.45.02,2.89.02,4.34,0,.36,0,.47.12.47.47-.02,1.24-.02,2.49,0,3.73,0,.33-.11.43-.43.42-.75-.02-1.49,0-2.24,0Z"/>
  <path class="uuid-fd5e2fd6-6b32-41a3-8990-0f84c70b601f" d="m20.19,20.37c.01,2.14.03,4.28.03,6.42,0,2.3.01,4.6.02,6.89-.23-.13-.15-.36-.15-.55,0-4.08,0-8.16,0-12.25,0-.18-.04-.36.1-.52Z"/>
  <path class="uuid-f465baeb-433c-4af1-8c8a-61ace431fd32" d="m45.3,19.56c-2.15,0-4.3,0-6.45.01,0-.04-.02-.07-.04-.11,2.1-.01,4.2-.02,6.3-.04.09,0,.18.02.19.13Z"/>
  <path class="uuid-7bd24ece-9940-411c-8500-c73cd036c10f" d="m39.48,35.35c-.13-1.98,1.76-4.18,4.34-4,2.21.16,3.73,1.88,3.67,4.57-.04,1.77-1.91,3.74-4.31,3.7-1.59-.02-3.85-1.93-3.69-4.27Zm5.3.05c0-.84-.5-1.31-1.37-1.31-.73,0-1.22.56-1.21,1.37,0,.72.55,1.22,1.34,1.21.78,0,1.25-.48,1.25-1.28Z"/>
  <path class="uuid-7bd24ece-9940-411c-8500-c73cd036c10f" d="m52.39,34.88c0,.9-.62,1.54-1.01,2.26-1.09,2.08-2.26,4.12-3.41,6.17-.97,1.75-1.95,3.49-2.94,5.23-.35.62-1.11.9-1.64.66-.82-.37-1.15-.99-.76-1.82.57-1.21,1.22-2.39,1.9-3.54,1.17-1.99,2.26-4.03,3.37-6.05.63-1.16,1.25-2.32,1.92-3.46.58-.99,1.59-1.07,2.35-.28.24.26.22.52.22.82Z"/>
  <path class="uuid-7bd24ece-9940-411c-8500-c73cd036c10f" d="m52.91,41.98c2.29-.12,4.02,1.84,4.12,3.78.14,2.69-2.06,4.3-4.17,4.36-1.99.06-4.06-2.02-3.97-4.11.09-1.96,1.38-4.02,4.02-4.03Zm.03,2.72c-.76,0-1.25.51-1.25,1.3,0,.68.61,1.39,1.23,1.41.69.02,1.38-.68,1.38-1.4,0-.81-.53-1.31-1.35-1.31Z"/>
  <path class="uuid-f465baeb-433c-4af1-8c8a-61ace431fd32" d="m44.79,35.4c0,.8-.46,1.28-1.25,1.28-.78,0-1.33-.49-1.34-1.21,0-.82.48-1.37,1.21-1.37.87,0,1.37.47,1.37,1.31Z"/>
  <path class="uuid-f465baeb-433c-4af1-8c8a-61ace431fd32" d="m52.94,44.69c.82,0,1.34.5,1.35,1.31,0,.72-.68,1.42-1.38,1.4-.61-.02-1.23-.73-1.23-1.41,0-.78.5-1.29,1.25-1.3Z"/>
</svg>