<?xml version="1.0" encoding="UTF-8"?>
<svg id="uuid-7534eeee-997d-49c7-9528-2bec92e414ae" data-name="Capa 1" xmlns="http://www.w3.org/2000/svg" viewBox="0 0 66.33 70.69">
  <defs>
    <style>
      .uuid-d68e6d60-4ebb-4ab6-987d-ee0e5d78c049 {
        fill: #2d2e83;
      }

      .uuid-6dc24e5c-ec6a-4b67-a8c8-842e291b287c {
        fill: #dadada;
      }

      .uuid-5c065d24-5a3d-429e-88d1-857fe5058beb {
        fill: #f9b233;
      }
    </style>
  </defs>
  <path class="uuid-6dc24e5c-ec6a-4b67-a8c8-842e291b287c" d="m4.46,63.1l.99-.66s.58-.29.93-.29.74.07.74.07c0,0,.42.08.83.4l.41.32,1.78,1.63.62.61s.2.17.37.12.18,0,.18,0l.44-.38,1.69-1.57s.55-.52.75-.64l.2-.12s.45-.25.83-.26h.38s.42-.08,1.1.33,1.48,1.26,1.73,1.49l.24.23s.85.85.96.9l.11.05s.15.13.39-.07,2.51-2.42,3-2.65l.49-.22s.33-.13.94-.1l.62.03s.5.35.82.65,2.18,2.05,2.18,2.05c0,0,.45.5.88.15s1.24-1.12,1.24-1.12c0,0,.62-.3-.18-1.27s-1.7-2.7-1.9-3.14-2-4.66-1.7-7.77.59-5.41,2.45-8.62,5.06-6.47,6.74-6.95l1.68-.48,7-1.59.35-19.38,2.76-11.94h-26.47l-14.26,1.06-4.56,6.51-1.09,16.84v15.15l-.26,15.59,1.62,5.26,1.99-.24Z"/>
  <ellipse class="uuid-5c065d24-5a3d-429e-88d1-857fe5058beb" cx="46.32" cy="52.22" rx="15.29" ry="14.96"/>
  <path class="uuid-d68e6d60-4ebb-4ab6-987d-ee0e5d78c049" d="m48.45,9.85c.63-5.47,6.54-5.61,6.54-5.61.57.01,1.41.09,2.36.43.76.28,1.35.63,1.77.93-.88.1-3.21.45-5.1,1.22-1,.41-1.39.8-1.51,1.15-.04.12-.45,1.44-.45,1.44v15.57h-3.67l.05-15.13Z"/>
  <g>
    <path d="m48.74,70.69h-4.62c-.09-.02-.18-.06-.27-.07-3.29-.41-6.32-1.48-9.03-3.4-.79-.56-.8-.55-1.52.12-1.25,1.16-2.39,2.45-3.87,3.35h-1.26c-.55-.15-1-.46-1.4-.86-.58-.59-1.18-1.18-1.79-1.74-.64-.6-.72-.58-1.36.03-.99.93-1.85,2.02-3.15,2.58h-1.26c-.89-.4-1.53-1.1-2.22-1.74-1.69-1.56-1.15-1.81-3.04.02-.69.66-1.26,1.49-2.29,1.73h-1.12c-.36-.15-.72-.31-1.01-.59-.79-.74-1.61-1.45-2.37-2.21-.4-.41-.62-.38-1.06,0-1.07.9-1.86,2.11-3.12,2.81h-1.4C.45,70.27,0,69.46,0,68.24.02,49.07.03,29.89,0,10.72,0,7.6,1.01,4.98,3.37,2.87,5.41,1.05,7.78.02,10.52.02,25.53-.01,40.53,0,55.54,0c.42,0,.84.01,1.25.08,2.21.35,4.15,1.24,5.87,2.69,2.22,1.86,3.43,4.31,3.54,7.02.22,5.74.07,11.49.07,17.24,0,.28-.05.52-.19.79-.53,1-1.33,1.42-2.49,1.41-4.75-.04-9.51,0-14.26-.02-.59,0-.85.17-.82.79.04.92.02,1.84,0,2.76-.01.5.16.73.71.8,3.24.42,6.19,1.59,8.9,3.4,2.01,1.35,3.64,3.08,5.03,5.02,1.89,2.63,2.67,5.69,3.11,8.82.24,1.71-.1,3.42-.47,5.11-.97,4.46-3.36,8-7,10.77-1.75,1.33-3.67,2.32-5.76,3.04-1.39.47-2.83.73-4.27.98Zm-44.28-7.59c.2-.13.28-.17.35-.23,1.24-1.01,2.37-.96,3.56.07.77.67,1.52,1.35,2.23,2.09.38.4.64.33,1.04,0,.76-.64,1.45-1.36,2.19-2.03.98-.89,2.31-.89,3.29-.02.77.69,1.56,1.38,2.29,2.12.38.38.6.34.96-.01.74-.73,1.52-1.42,2.3-2.11,1.02-.91,2.33-.91,3.34,0,.51.47.99.97,1.5,1.45q1.24,1.16,2.44-.02c.1-.1.19-.21.3-.29.42-.32.4-.63.09-1.04-1.24-1.62-2.26-3.41-2.86-5.33-1.36-4.34-1.36-8.67.67-12.88.87-1.81,1.87-3.5,3.27-5.01,3.13-3.38,6.97-5.37,11.48-6.19q1.09-.2,1.09-1.32c0-6.94,0-13.89,0-20.83,0-.89.05-1.79.17-2.68.19-1.45.75-2.79,1.55-4.03.25-.39.24-.59-.29-.56-.19.01-.37,0-.56,0-10.84,0-21.67,0-32.51,0-.77,0-1.53.04-2.3.13-2.54.3-4.82,2.26-5.38,4.67-.17.72-.22,1.45-.22,2.19,0,16.99,0,33.98,0,50.97v.89Zm57.16-10.33c.01-2.93-.49-5.7-2.23-8.22-1.37-1.99-3.02-3.62-5.11-4.8-3.21-1.82-6.69-2.45-10.36-1.86-4.71.75-8.37,3.12-10.82,7.15-1.54,2.54-2.12,5.35-1.83,8.35.41,4.25,2.4,7.61,5.84,10.08,4.01,2.88,8.53,3.7,13.33,2.46,4.76-1.23,8.18-4.14,10.17-8.6.64-1.44.95-2.97,1-4.56Zm0-35.77c0-2.09-.02-4.18,0-6.28.03-2.48-1.02-4.35-3.21-5.56-2.16-1.19-4.39-1.2-6.54-.05-2.17,1.16-3.34,3.02-3.35,5.49-.02,4.51,0,9.01-.02,13.52,0,.61.17.86.83.85,3.8-.02,7.6-.02,11.4,0,.67,0,.91-.23.9-.88-.02-2.37,0-4.74-.01-7.1Z"/>
    <path d="m29.11,20.94c-.61,0-1.21.02-1.82,0-.54-.02-.76.18-.75.72.03,1.08.01,2.16,0,3.24-.01,1.32-.91,2.23-2.21,2.24-1.29.01-2.21-.9-2.23-2.23-.01-1.06-.03-2.11,0-3.17.02-.59-.18-.83-.8-.81-1.19.03-2.38.02-3.56,0-1.26-.01-2.19-.92-2.2-2.11,0-1.19.93-2.11,2.18-2.13,1.21-.01,2.42-.02,3.63,0,.54.01.76-.18.75-.72-.02-1.08-.01-2.16,0-3.24.01-1.34.92-2.24,2.21-2.24,1.3,0,2.22.91,2.23,2.23,0,1.06.03,2.11,0,3.17-.02.59.18.83.8.81,1.19-.03,2.38-.02,3.56,0,1.26.01,2.2.92,2.21,2.11,0,1.18-.94,2.11-2.19,2.13-.61.01-1.21,0-1.82,0h0Z"/>
    <path d="m20.03,31.18c2.89,0,5.77,0,8.66,0,1.35,0,2.27.78,2.34,1.95.07,1.3-.74,2.18-2.13,2.31-.37.03-.74.05-1.12.05-5.19,0-10.38,0-15.58,0-.42,0-.84-.02-1.25-.06-1.27-.12-2.04-1.02-1.98-2.29.05-1.12.96-1.95,2.19-1.95,2.96,0,5.91,0,8.87,0Z"/>
    <path d="m15.49,51.98c-1.42,0-2.84,0-4.26,0-1.3,0-2.28-.87-2.36-2.06-.07-1.09.9-2.14,2.15-2.19,3.02-.12,6.05-.13,9.07,0,1.2.05,2.06.89,2.12,1.9.08,1.29-.84,2.3-2.19,2.33-1.51.03-3.02,0-4.54,0h0Z"/>
    <path d="m15.54,39.46c1.49,0,2.98-.02,4.47,0,1.35.02,2.28,1.03,2.21,2.31-.06.96-.94,1.82-2.04,1.92-1.77.16-3.54.06-5.3.07-1.3,0-2.61.07-3.91-.06-1.28-.12-2.06-1.01-2-2.28.05-1.13.95-1.96,2.17-1.97,1.47-.01,2.93,0,4.4,0Z"/>
    <path d="m42.75,55.32c.54-.04,1.04.22,1.54.46.74.36,1.51.47,2.31.36.63-.09,1.12-.44,1.2-1.08.08-.6-.41-.89-.89-1.1-.98-.43-1.97-.82-2.95-1.24-1.84-.8-2.96-2.19-3.07-4.17-.12-2,.81-3.56,2.57-4.57.4-.23.61-.49.74-.91.31-.98,1.08-1.52,2.08-1.53,1.08,0,1.86.49,2.2,1.47.14.41.36.66.76.82.32.12.62.31.93.48,1.19.64,1.6,1.93.95,3.05-.59,1.02-2.11,1.39-3.18.73-.51-.32-1.01-.57-1.63-.5-.36.04-.72.14-.82.53-.11.43.24.62.56.76.66.29,1.34.52,2,.8,1.02.45,2.03.94,2.83,1.73,2.58,2.58,1.51,6.67-1.02,8.03-.71.38-1.24.81-1.48,1.67-.26.95-1.15,1.27-2.1,1.29-.87.02-1.72-.53-2-1.36-.18-.55-.48-.81-1.03-.97-.82-.24-1.62-.58-2.22-1.24-.54-.6-.89-1.26-.52-2.07.42-.91,1.27-1.44,2.25-1.43Z"/>
  </g>
</svg>