<?xml version="1.0" encoding="UTF-8"?>
<svg id="uuid-3cedcdf7-2e38-4323-8816-4df657fe8f42" data-name="Capa 1" xmlns="http://www.w3.org/2000/svg" viewBox="0 0 545.75 355.44">
  <defs>
    <style>
      .uuid-4c40be44-6c84-4700-b182-7cdc65f5b172 {
        fill: #a3195b;
      }

      .uuid-a6c8b50f-e8ce-45f2-8822-638adf72209c {
        fill: #1d1d1b;
      }
    </style>
  </defs>
  <path class="uuid-4c40be44-6c84-4700-b182-7cdc65f5b172" d="m202.38,181.18c49.54,36.52,103.04,42.94,160.78,19.62-9.67,11.05-19.04,21.52-35.91,22.83-18.4,1.43-36.56,2.28-54.63-2-.29-.07-.65.16-1.63.42,16.11,7.64,32.77,10,50.03,9.69.12.46.24.91.36,1.37-8.4,2.77-16.63,6.28-25.24,8.16-30.1,6.58-59.48,4.23-87.1-9.51-38.44-19.12-61.84-49.3-68.78-90.46-5.78-34.29,2.54-65.62,24.52-93.22C185.75,21.74,213.56,5.8,247.82,1.31c41.53-5.43,77.86,6.04,107.81,34.09,22.69,21.25,34.95,47.57,37.45,78.09,1.11,13.54-.51,26.72-3.56,39.85-.83,3.58-2.79,5.38-6.54,6.79-22.71,8.5-45.15,17.68-67.89,26.11-27.83,10.31-56.41,14.21-85.57,5.83-9.34-2.69-18.11-7.21-27.14-10.89Zm101.95-3.04c-36.78,7.65-66.67-1.07-86.89-30.89-17.48-25.77-17.35-53.37.38-78.97,20.67-29.85,50.83-38.16,86.55-30.18-24.24-16.81-71.06-19.35-104.11,11.35-31.42,29.2-34.02,78.55-5.28,111.43,29.38,33.62,77.6,36.86,109.36,17.26Zm28.85-41.6c14.61-20.04,14.88-56.34-14.21-78.75-26.43-20.36-66.12-15.96-87.89,9.39-20.31,23.65-15.73,56.57-4.4,68.41-5.62-26.47,1.67-47.12,22.27-59.99,19.8-12.37,40.8-13.02,60.66-.79,23.13,14.25,29.84,35.47,23.57,61.72Z"/>
  <path class="uuid-a6c8b50f-e8ce-45f2-8822-638adf72209c" d="m234.48,346.95c-4.85,1.68-8.57.54-10.9-5.75-1.27-3.43-3.27-6.43-4.95-9.62-.42.17-.85.35-1.27.52.66,4.94,1.32,9.88,2.01,15.09h-10.49c2.85-9.55,3.58-19.01.08-27.81,11.12-5.91,14.5,4.37,18.56,13.16.42-.26.84-.51,1.26-.77-.65-4.34-1.31-8.68-2.01-13.35h9.22c-.5,9.42-1,18.78-1.52,28.52Z"/>
  <path class="uuid-a6c8b50f-e8ce-45f2-8822-638adf72209c" d="m45.44,305.41c-4.96,1.34-8.6.22-10.77-4.63-.99-2.22-2.67-4.14-4.03-6.2-.45.11-.9.23-1.35.34.63,3.43,1.26,6.86,1.94,10.56h-9.74c2.74-6.78,2.76-13.51.12-19.87,9.96-3.83,13.5,2.87,17.06,9.54.43-.27.87-.54,1.3-.82-.7-2.96-1.39-5.92-2.17-9.22h9.05c-.46,6.71-.93,13.4-1.41,20.29Z"/>
  <path class="uuid-a6c8b50f-e8ce-45f2-8822-638adf72209c" d="m420.25,285.02h8.61c-.5,6.9-.98,13.6-1.46,20.29-6.5,1.26-6.55,1.23-10.08-4.01-1.53-2.27-3.07-4.52-4.6-6.78-.39.08-.78.16-1.18.24.57,3.54,1.14,7.09,1.73,10.83h-8.85c-.07-1-.29-1.94-.18-2.85.43-3.83.97-7.65,1.44-11.48.06-.48-.02-1.01-.18-1.46-1.83-4.98-1.82-4.69,3.27-5.08,4.07-.32,6.68.9,8.43,4.52.96,1.99,2.47,3.71,3.73,5.56.37-.09.75-.18,1.12-.27-.57-3.05-1.14-6.11-1.78-9.5Z"/>
  <path class="uuid-a6c8b50f-e8ce-45f2-8822-638adf72209c" d="m99.23,305.59h-10.89c-.07-.99-.52-2.13-.14-2.59,3-3.62,1.24-7.81,1.66-11.72.06-.58-.07-1.26-.34-1.78-2.32-4.58-2.27-4.68,2.99-4.69,2.9,0,5.88-.34,8.69.16,2.27.41,5.14,1.32,6.32,2.98,1.71,2.41,1.01,5.48-1.1,7.39,1.26,3.36,2.45,6.52,3.82,10.17h-8.83c-1.93-2.61,1.67-7.23-4.46-9.11.85,3.44,1.5,6.08,2.26,9.2Zm-1.59-12.02c.47.19.94.39,1.41.58.56-1.15,1.51-2.29,1.53-3.45.01-.65-1.51-1.33-2.93-2.48v5.34Z"/>
  <path class="uuid-a6c8b50f-e8ce-45f2-8822-638adf72209c" d="m312.57,284.86c5.36,0,9.49-.02,13.63,0,2.73.02,5.4.3,6.62,3.22,1.23,2.91.84,5.55-1.11,7.08,1.14,3.6,2.15,6.79,3.3,10.41h-8.24c-1.86-2.7,1.43-7.47-3.17-8.77-.5.19-1.01.38-1.51.56.79,2.62,1.58,5.24,2.47,8.18h-11.55c2.42-6.88,2.9-13.54-.44-20.69Zm9.11,6.25c.86,1.16,1.42,1.92,1.98,2.68.73-.8,1.9-1.54,2.06-2.43.11-.67-1.09-1.55-1.71-2.34-.68.61-1.36,1.22-2.33,2.09Z"/>
  <path class="uuid-a6c8b50f-e8ce-45f2-8822-638adf72209c" d="m373.05,295.76c-.22-7.3,3.09-11.15,9.81-11.44,6.95-.3,11.04,3.55,11.22,10.56.19,7.3-3.44,11.32-10.31,11.42-6.94.1-10.51-3.41-10.72-10.54Zm12.44-.3c0-1.35.24-2.76-.08-4.03-.22-.87-1.21-1.54-1.85-2.31-.7.69-1.95,1.34-2.02,2.08-.23,2.8-.2,5.65.01,8.45.05.68,1.17,1.29,1.8,1.93.71-.69,1.81-1.28,2.04-2.1.35-1.26.09-2.67.1-4.02Z"/>
  <path class="uuid-a6c8b50f-e8ce-45f2-8822-638adf72209c" d="m177.38,295.24c.05-7.25,3.54-10.91,10.39-10.91,7.09,0,10.73,3.76,10.71,11.05-.02,7.32-3.71,11.05-10.81,10.91-6.87-.13-10.34-3.86-10.29-11.05Zm12.63.2s.02,0,.03,0c0-1.24.27-2.56-.08-3.69-.3-.96-1.33-1.7-2.04-2.53-.72.83-1.96,1.61-2.05,2.5-.26,2.57-.22,5.21.07,7.78.08.72,1.35,1.63,2.21,1.83.46.1,1.61-1.07,1.78-1.81.3-1.29.08-2.7.08-4.06Z"/>
  <path class="uuid-a6c8b50f-e8ce-45f2-8822-638adf72209c" d="m75.96,292.28c-2.59-.47-5.54,1.64-6.94-2.52-.51-1.51-3.27-1.16-3.52,1-.36,3.04-.18,6.17.13,9.23.05.53,1.87.9,2.87,1.34.08-.84.27-1.68.21-2.51-.07-1.02-.34-2.04-.56-3.3h9.68c-.58,3.04-1.03,5.83-1.7,8.58-.12.49-1.1.94-1.76,1.12-1.57.43-3.18.85-4.8.97-4.29.31-8.69.01-11.04-4.07-2.55-4.44-2.67-9.39.1-13.82,2.82-4.5,7.65-4.31,12.22-3.72,5.78.75,6.03,1.27,5.1,7.69Z"/>
  <path class="uuid-a6c8b50f-e8ce-45f2-8822-638adf72209c" d="m268,328.65h-6.72c-.28-.79-.39-1.76-.84-2.27-.78-.89-1.75-2.04-2.65-2.05-.6,0-1.67,1.74-1.73,2.78-.21,3.74-.21,7.52,0,11.26.06,1.06.94,2.31,1.71,2.94.43.35,1.82-.15,2.06-.74.31-.75.02-2.03-.25-2.97-.95-3.26-.71-5.35,2.64-5.13,2.14.14,4.28.03,6.35.03,1.24,7.87-1.15,13.97-5.56,14.87-9.52,1.94-15.15-1.84-15.83-10.84-.23-3.03-.15-6.16.2-9.17.54-4.65,2.79-8.39,6.44-8.72,4.31-.4,8.79.31,13.01,1.53.8.23.75,5.13,1.16,8.47Z"/>
  <path class="uuid-a6c8b50f-e8ce-45f2-8822-638adf72209c" d="m331.78,347.19h-20.23c2.91-9.65,3.23-19.06-.1-28.76h20.29v10.39c-1.63.09-3.31.19-5.1.3-1.18-2.1-.45-7.14-5.46-4.16.89,1.95,1.89,3.79,2.59,5.81.3.86.18,2.18-.12,3.1-.73,2.25-1.67,4.39-2.59,6.73,5.07,2.35,4.73-1.42,4.99-4.73h5.73v11.32Z"/>
  <path class="uuid-a6c8b50f-e8ce-45f2-8822-638adf72209c" d="m454.11,284.81c2.14,7.27,4.06,13.82,6.09,20.74h-10.98c.3-1.34.62-2.51.79-3.71.12-.81,0-1.66,0-2.49-1.09.05-2.2,0-3.23.26-.17.04-.12,1.41.02,2.13.23,1.13.62,2.23,1.05,3.73h-9.78c.72-2.13,1.4-3.95,1.94-5.81,1.18-4.03,2.37-8.06,3.38-12.14.49-1.99,1.37-2.93,3.59-2.76,2.36.18,4.74.04,7.12.04Z"/>
  <path class="uuid-a6c8b50f-e8ce-45f2-8822-638adf72209c" d="m293.74,347.15h-13.74c3.02-9.67,3.04-19.08.09-28.68,5.68,0,10.52-.34,15.32.1,4.15.38,6.21,3.91,6.02,8.97-.17,4.69-2.38,7.31-6.62,7.81-1.33.15-2.66.24-5.18.47,1.44,3.97,2.63,7.25,4.11,11.33Z"/>
  <path class="uuid-a6c8b50f-e8ce-45f2-8822-638adf72209c" d="m302.3,292.6h-5.35c-.19-1.06-.37-2.11-.64-3.64-1.01.16-2.84.2-2.89.52-.21,1.3-.39,3.39.35,3.9,1.9,1.32,2.44,1.81.18,3.35-.85.58-1.05,2.59-.86,3.86.08.58,1.8.94,3.18,1.58.25-1.85.42-3.02.61-4.44h5.4v7.71h-18.89c2.58-6.76,3-13.49-.25-20.4h19.17v7.57Z"/>
  <path class="uuid-a6c8b50f-e8ce-45f2-8822-638adf72209c" d="m138.5,285.07v7.45h-5.42c-.22-1.15-.42-2.2-.74-3.87-1.25.52-2.96.81-3.07,1.38-.2,1.13.09,3.04.88,3.5,2.14,1.26,1.82,1.75.09,3.13-.87.69-1.16,2.53-1.03,3.79.06.61,1.68,1.07,3.01,1.84.35-1.89.57-3.06.84-4.51h5.34v7.79h-18.95c2.63-6.81,3.06-13.53-.26-20.48h19.3Z"/>
  <path class="uuid-a6c8b50f-e8ce-45f2-8822-638adf72209c" d="m498.01,305.55c.53-3.77,1.39-7.17,1.38-10.57,0-3.23-.92-6.46-1.47-9.95h18.49c0,2.49,0,4.79,0,7.1-5.21,1.15-5.26,1.25-6.08-3.35-1.11.39-2.98.75-2.98,1.12,0,1.27.25,2.99,1.13,3.72,1.59,1.34,1.19,1.73-.09,2.99-.9.88-1.07,2.71-1.05,4.11,0,.4,1.85.76,3.12,1.24.23-1.71.38-2.79.56-4.19h5.35v7.76h-18.36Z"/>
  <path class="uuid-a6c8b50f-e8ce-45f2-8822-638adf72209c" d="m150.02,299.61c2.93.43,5.86.86,8.8,1.28.12-.41.23-.82.35-1.23-1.59-.79-3.16-1.61-4.76-2.38-4-1.94-5.67-4.41-4.98-7.76.81-3.93,4-4.83,7.4-5.09,1.86-.14,3.76.36,5.64.38,4.1.04,4.83,2.21,3.81,6.12-2.84-.39-5.61-.77-8.39-1.15-.08.36-.15.71-.23,1.07,1.41.68,2.79,1.44,4.25,2.02,3.32,1.32,5.68,3.33,5.27,7.18-.39,3.67-2.38,5.51-6.98,5.91-2.84.25-5.9.2-8.57-.62-1.31-.4-1.97-2.85-2.92-4.38.44-.45.88-.9,1.31-1.35Z"/>
  <path class="uuid-a6c8b50f-e8ce-45f2-8822-638adf72209c" d="m527.91,299.62c2.98.43,5.97.86,8.95,1.29.09-.42.18-.85.26-1.27-2.05-1.06-4.08-2.17-6.17-3.16-2.9-1.38-3.95-3.68-3.54-6.68.41-2.98,2.38-4.79,5.28-4.94,3.34-.18,6.81-.1,10.03.63,1.13.26,1.71,2.8,3.01,5.16-2.86,0-4.46.14-6.03-.04-1.25-.15-2.46-.68-3.69-1.05-.16.47-.31.95-.47,1.42,1.67.72,3.38,1.35,4.99,2.17,2.81,1.44,5.04,3.24,4.55,6.89-.49,3.65-2.69,5.59-6.2,5.81-3.1.19-6.35.23-9.31-.53-1.29-.33-2.01-2.82-2.98-4.33.43-.46.87-.91,1.3-1.37Z"/>
  <path class="uuid-a6c8b50f-e8ce-45f2-8822-638adf72209c" d="m345.78,299.61c2.88.42,5.77.84,8.65,1.26.1-.42.21-.84.31-1.26-1.5-.72-2.98-1.46-4.49-2.16-3.12-1.46-5.67-3.27-5.24-7.25.31-2.79,1.64-4.82,4.51-5.16,2.84-.34,5.75-.25,8.62-.16,3.48.11,5.05,1.81,3.74,5.99-2.72-.35-5.6-.72-8.49-1.09-.08.38-.16.77-.24,1.15,1.4.63,2.8,1.24,4.19,1.88,3.26,1.5,5.83,3.31,5.24,7.55-.56,4.07-3.31,5.41-6.79,5.62-2.86.17-5.9.16-8.57-.68-1.28-.4-1.89-2.89-2.8-4.43.45-.41.9-.82,1.35-1.24Z"/>
  <path class="uuid-a6c8b50f-e8ce-45f2-8822-638adf72209c" d="m253.59,284.97c5.73,0,10.27-.12,14.79.04,3.65.13,5.35,2.35,5.47,5.83.11,3.24-1.11,5.56-4.63,6.16-1.72.29-3.46.47-6.1.81,1.16,2.61,2.18,4.93,3.42,7.72h-12.69c2.95-6.82,3.23-13.52-.25-20.56Z"/>
  <path class="uuid-a6c8b50f-e8ce-45f2-8822-638adf72209c" d="m225.31,290.9c-2.69-.39-5.38-.78-8.07-1.17-.08.4-.15.81-.23,1.21,1.43.61,2.86,1.22,4.29,1.82,3.96,1.64,5.8,4.24,5.22,7.61-.65,3.76-3.17,5.53-6.89,5.6-2.75.05-5.54.01-8.25-.4-3.44-.52-2.32-3.11-2.12-5.91,3.15.41,6.11.8,9.07,1.18.1-.42.19-.84.29-1.26-1.73-.84-3.42-1.75-5.18-2.5-3.09-1.32-4.93-3.43-4.64-6.87.32-3.77,2.91-5.42,6.37-5.59,2.86-.14,5.89-.13,8.56.71,1.32.42,1.97,2.86,2.92,4.39-.45.39-.9.79-1.34,1.18Z"/>
  <path class="uuid-a6c8b50f-e8ce-45f2-8822-638adf72209c" d="m469.88,305.59c2.81-6.97,2.61-13.58.07-20.49h11.78c-.09,1.17.24,2.67-.33,3.15-4.27,3.65-1.05,8.31-1.97,12.38.86.14,1.86.61,2.56.34,1.56-.62,2.97-1.6,5.2-2.87v7.49h-17.3Z"/>
  <path class="uuid-a6c8b50f-e8ce-45f2-8822-638adf72209c" d="m198.99,347.19h-12.52c2.87-9.65,3.15-19.08-.05-28.78h12.26c-2.62,9.56-3.09,18.99.31,28.78Z"/>
  <path class="uuid-a6c8b50f-e8ce-45f2-8822-638adf72209c" d="m0,285.05h11.96c-2.39,6.78-3.22,13.52.33,20.46H.28c2.93-6.82,3.35-13.52-.28-20.46Z"/>
  <path class="uuid-a6c8b50f-e8ce-45f2-8822-638adf72209c" d="m377.31,314.5c1.19.67,2.76.95,3.52,2.08,6.28,9.39,6.3,27.22.26,36.72-1.42,2.24-2.74,3.23-4.49.43,5.25-12.5,5.04-25.07-.01-37.65.24-.53.48-1.05.72-1.58Z"/>
  <path class="uuid-a6c8b50f-e8ce-45f2-8822-638adf72209c" d="m176.25,316.12c-5.18,12.53-5.19,25.06.57,39.26-2.2-.72-3.9-.61-4.67-1.63-6.67-8.8-6.53-29.17.23-37.7.76-.96,2.24-.99,3.38-1.46.17.51.33,1.02.5,1.53Z"/>
  <path class="uuid-a6c8b50f-e8ce-45f2-8822-638adf72209c" d="m354.76,347.14h-11.65c-.08-1.37-.56-2.93-.15-3.57,3.21-4.98,1.33-10.76,1.78-16.15.07-.8-.08-1.73-.36-2.45-2.48-6.3-2.43-6.45,3.2-6.45,3.11,0,6.29-.47,9.3.22,2.43.56,5.5,1.82,6.76,4.1,1.83,3.32,1.08,7.55-1.17,10.17,1.35,4.63,2.62,8.98,4.09,14.01h-9.45c-2.07-3.59,1.79-9.96-4.77-12.55.91,4.74,1.6,8.37,2.42,12.67Zm-1.71-16.55c.5.27,1,.53,1.5.8.6-1.58,1.61-3.15,1.64-4.75.01-.9-1.61-1.83-3.14-3.41v7.36Z"/>
</svg>