<?xml version="1.0" encoding="UTF-8"?>
<svg id="uuid-b90ab179-50c0-443d-9f25-47a7071f8647" data-name="Capa 1" xmlns="http://www.w3.org/2000/svg" viewBox="0 0 460.53 569.13">
  <defs>
    <style>
      .uuid-b13d390f-d18e-4784-8707-f24d2f05632c {
        fill: #e30613;
      }

      .uuid-07c817b3-f8cb-4fe7-aa19-1fac3dab8291 {
        fill: #d60b52;
      }
    </style>
  </defs>
  <path d="m66.33,300.75c-4.87,4.23-7.73,3.5-10.29-2.65-.52-1.25-1.13-2.54-1.3-3.86-.95-7.42-3.78-13.95-8.16-19.87-1.13-1.53-1.77-3.52-2.35-5.39-1.4-4.5-.29-6.5,4.2-7.35,1.41-.27,1.8-.74,1.73-2.11-.13-2.47-.08-4.85-1.31-7.21-1.23-2.36-1.91-4.03-5.11-2.51-2.7,1.28-5.06-1.01-5.79-4.87-.85-4.46-.54-8.95.01-13.39.32-2.59-.14-4.86-.99-7.23-1.5-4.19-2.87-8.46-2.76-13.03.1-4.4,1.93-6.05,6.16-5.38,1.12.18,1.79.39,2.02-1.04.39-2.41,1.48-4.65.89-7.28-.59-2.63-.17-5.34-4.48-4.34-2.46.57-3.82-1.97-3.96-4.71-.22-4.36,1-8.41,2.65-12.26,1.51-3.5,2.11-6.98,1.9-10.79-.18-3.33-.38-6.7.37-10.03,1.45-6.43,3.69-7.59,9.39-4.62,1.22-2.25,2.92-4.25,3.32-6.92.43-2.91,1.89-6-3.16-6.57-2.44-.28-3.01-3.18-2.29-5.8,1.35-4.92,4.29-8.88,7.38-12.67,1.55-1.9,2.4-3.91,2.85-6.25.81-4.28,1.97-8.47,4.13-12.25,2.36-4.13,4.75-4.64,8.38-1.67,1.17.96,1.81.79,2.69-.11,1.7-1.74,3.45-3.35,4.37-5.81.92-2.46,1.66-4.06-1.61-5.54-2.9-1.31-2.26-4.3-.78-6.76,2.41-4.01,6.04-6.73,9.72-9.29,2.26-1.57,3.99-3.37,5.22-5.93,1.65-3.45,3.75-6.68,6.31-9.5,3.69-4.06,6.21-3.95,9.47.37.62.82,1.12,1.24,2.01.63,1.88-1.29,4.19-1.85,5.64-3.87,1.55-2.16,3.95-3.75.42-6.67-2.26-1.86-.89-4.58,1.1-6.43,3.77-3.51,8.51-5.03,13.15-6.64,1.9-.66,3.35-1.63,4.76-3.08,3.23-3.32,6.5-6.68,10.75-8.64,3.83-1.76,6.03-.77,7.35,3.37.43,1.34.91,1.83,2.27,1.54,2.22-.47,4.45-.72,6.42-2.11,2.21-1.57,4.27-2.6,1.94-6.1-1.76-2.63.55-4.66,2.8-5.84,3.72-1.95,7.85-2.43,11.9-2.38,3.49.05,6.56-.68,9.52-2.54,2.67-1.67,5.57-2.87,8.59-3.75,6.36-1.85,8.85.06,8.67,6.69,3.69.72,7.32.94,10.89-.72,1.28-.6,1.66-.97,1.24-2.62-1.06-4.15.61-6.34,4.76-6.82,3.15-.37,6.37-.1,9.26.95,5.23,1.9,10.29,1.37,15.46.16,2.84-.66,5.75-.72,8.59-.16,3.88.77,5.17,2.77,4.1,6.65-.49,1.77-.12,2.23,1.36,3,2.95,1.54,5.98,1.5,9.11,1.4,1.26-.04,1.43-.53,1.52-1.81.31-4.76,2.31-6.13,6.94-5.19,2.27.46,4.49,1.17,6.36,2.48,5.52,3.89,11.63,5.51,18.2,5.93,2.63.17,5.19,1.03,7.47,2.5,2.82,1.82,3.5,4.13,1.57,6.9-1.28,1.83-.97,2.7.63,3.78,1.69,1.15,3.16,2.66,5.26,3.09,2.34.49,4.44,1.78,5.48-2.35.83-3.32,4.04-2.93,6.65-1.62,3.86,1.92,6.89,4.99,9.69,8.24,1.98,2.29,4.14,3.93,6.97,4.95,3.73,1.34,7.36,3.07,10.45,5.7,3.6,3.06,3.71,5.64.38,8.9-.8.77-1.45,1.21-.55,2.34,1.58,1.99,2.79,4.22,5.1,5.64,2.28,1.4,3.63,2.28,5.58-.74,1.89-2.94,4.66-1.77,6.84.27,3.46,3.23,5.59,7.46,7.56,11.71,1.03,2.22,2.38,3.87,4.27,5.32,3.18,2.44,6.29,5.02,8.65,8.39,3.14,4.47,2.73,6.55-1.86,9.38-.82.5-1.33.91-.89,2.01.88,2.15,1.19,4.56,2.89,6.33,1.83,1.91,3.07,4.58,6.35,1.35,2.1-2.07,4.52-.22,5.96,2.07,2.61,4.16,3.54,8.96,4.27,13.73.35,2.31,1.05,4.25,2.41,6.08,2.64,3.55,5.06,7.26,6.46,11.56,1.52,4.68.47,6.88-4.05,7.81-1.61.33-1.8,1.03-1.87,2.45-.16,3.25.94,6.06,2.35,8.84.69,1.36,1.27,1.59,2.73.99,3.86-1.58,6.27-.22,7.1,3.98.48,2.42,1.02,5.02.64,7.39-1.03,6.44-.41,12.52,1.99,18.56,1.14,2.87,1.45,6.03,1.15,9.18-.24,2.47-1.3,4.14-3.95,4.5-1.34.18-3.18-1.25-3.89.37-.91,2.09-1.6,4.43-1.31,6.85.11.98.37,1.95.49,2.93.22,1.71.81,2.5,2.78,2.41,4.17-.19,5.78,1.75,5.45,6.19-.32,4.26-1.59,8.31-3.32,12.13-1.23,2.71-1.49,5.41-1.36,8.31.18,4.22.47,8.46-.71,12.61-1.28,4.51-3.28,5.64-7.42,3.86-1.29-.56-1.93-.53-2.57.72-1.12,2.18-2.3,4.26-2.63,6.85-.34,2.69-.77,4.53,2.94,4.93,2.74.3,3.59,3.02,2.84,5.84-1.24,4.67-3.91,8.54-6.89,12.11-1.88,2.26-2.99,4.67-3.55,7.55-.83,4.27-1.94,8.47-4.29,12.17-2.38,3.74-4.81,4.22-7.95,1.33-1.17-1.08-1.81-1.29-2.87-.05-1.51,1.75-3.36,3.18-4.18,5.52-.82,2.35-2.34,4.33,1.45,5.91,2.95,1.23,2.26,4.32.79,6.75-2.14,3.56-5.27,6.15-8.58,8.39-3.09,2.1-5.46,4.6-7.11,8.1-1.63,3.45-3.84,6.61-6.67,9.2-3.35,3.06-5.61,2.82-8.23-1.01-.6-.88-.96-1.76-2.17-.95-1.9,1.26-4.14,1.89-5.65,3.86-1.68,2.19-3.77,3.83-.36,6.65,2.15,1.78,1.12,4.87-1.88,7.2-3.5,2.72-7.57,4.3-11.69,5.63-2.37.76-4.27,1.96-5.99,3.81-3.08,3.32-6.37,6.46-10.54,8.28-3.82,1.66-5.93.68-7.04-3.43-.44-1.65-1.12-2.1-2.47-1.63-1.7.58-3.66.3-5.16,1.48-2.16,1.71-5.96,2.43-2.87,6.96,1.52,2.23-.49,4.45-2.75,5.6-3.07,1.56-6.39,2.12-9.76,2.25-4.57.17-8.94.68-13.03,3.34-2.9,1.89-6.22,3.16-9.75,3.6-4.35.54-6.07-.77-6.22-5.24-.05-1.52-.3-2.37-1.92-2.35-2.26.03-4.48-.38-6.77.39-2.55.85-4.41,1.29-3.34,5.09.87,3.1-1.74,4.59-4.54,4.92-3.74.44-7.53.18-11.04-1.05-4.18-1.46-8.18-1.2-12.32-.18-3.29.81-6.66.87-10.01.48-3.99-.46-5.73-2.77-4.53-6.62.66-2.12-.03-2.63-1.61-3.15-1.81-.6-3.48-1.57-5.51-1.49-2.62.1-5.19-.58-5.06,3.93.09,2.9-2.88,4.19-6.42,3.4-3.55-.79-6.94-2.24-9.86-4.38-3.62-2.66-7.63-3.32-11.82-3.66-3.37-.28-6.67-.96-9.72-2.47-3.62-1.8-4.43-4.37-2.24-7.77,1.04-1.62.72-2.35-.61-3.21-1.7-1.1-3.01-2.73-5.18-3.21-2.59-.57-4.83-2-5.89,2.36-.63,2.62-3.31,2.84-5.76,1.82-4.14-1.73-7.19-4.93-10.1-8.23-2.15-2.44-4.48-4.3-7.54-5.39-3.97-1.42-7.82-3.23-10.95-6.25-2.98-2.87-2.99-5.41.12-8.08,1.23-1.05,1.44-1.7.41-2.92-.87-1.03-1.41-2.38-2.38-3.26-1.34-1.21-2.94-2.1-4.43-3.12-2.81-1.92-2.57,1.57-3.77,2.41-2.5,1.75-4.53,1.12-6.5-.69-3.67-3.39-5.84-7.85-7.93-12.33-.86-1.85-1.98-3.26-3.59-4.48-3.59-2.71-7.08-5.59-9.57-9.5-2.56-4.03-2.02-6.55,2.22-8.53,1.64-.76,1.06-1.52.83-2.55-.88-3.94-3.11-6.91-6.15-9.31Zm168.17,46.46c5.12-.07,10.27,1.73,15.38.32,10.99-3.03,21.97-6.1,32.95-9.17,1.84-.52,3.64-1.08,5.32-2.16,9.79-6.28,19.63-12.46,29.45-18.68,1.32-.84,2.59-1.69,3.67-2.94,6.56-7.61,13.26-15.08,19.78-22.71,2.29-2.68,5.09-4.93,6.64-8.28,5.14-11.08,10.33-22.14,15.52-33.19.64-1.36,1.03-2.72,1.26-4.23,1.32-8.59,2.93-17.13,4.07-25.74.71-5.36,2.59-10.52,1.76-16.17-1.32-9.09-2.27-18.25-3.11-27.4-.61-6.62-2.04-12.87-4.85-18.93-3.67-7.94-6.87-16.12-10.02-24.31-1.32-3.42-3.14-6.37-5.43-9.12-2.59-3.11-5.06-6.32-7.67-9.41-7.31-8.62-13.01-18.82-23.32-24.47-4.43-2.42-8.61-5.47-12.55-8.7-7.18-5.87-15.17-9.65-23.95-12.2-13.88-4.03-27.24-10.48-42.26-8.63-2.47.3-5.02-.18-7.54-.27-8.26-.29-16.47-.76-24.53,2.18-5.18,1.89-10.55,3.31-15.94,4.47-9.17,1.98-17.42,5.81-25.13,11.32-5.91,4.23-12.21,7.89-18.44,11.61-2.45,1.46-4.44,3.3-6.29,5.45-6.49,7.5-13.06,14.92-19.57,22.41-1.91,2.2-4.03,4.21-5.31,7-4.94,10.77-9.99,21.48-15.01,32.2-.9,1.91-1.5,3.85-1.8,5.99-.96,6.88-2.34,13.71-3.21,20.6-.85,6.74-3.26,13.29-2.45,20.25,1.05,8.88,2.04,17.78,3.13,26.65.68,5.51.97,11.03,3.35,16.28,4.09,8.98,7.76,18.16,11.37,27.36,1.43,3.64,3.36,6.8,5.83,9.72,3.32,3.93,6.72,7.82,9.67,12.05,7.34,10.51,16.09,19.3,27.09,25.64,3.24,1.87,6.32,4.09,9.22,6.49,5.44,4.49,11.51,7.45,18.2,9.28,4.51,1.23,8.88,3,13.37,4.29,5.64,1.63,10.92,4.79,16.83,5.04,8.15.35,16.31.09,24.47.09ZM107.11,76.59c0,1.62.13,3.25-.03,4.85-.21,2.07.55,2.65,2.43,2.26,6.69-1.41,13.38-2.78,20.08-4.14,1.08-.22,2.06-.42,2.54-1.68,2.64-6.92,5.33-13.83,8-20.74.59-1.52.17-2.25-1.48-2.46-2.97-.39-5.93-.87-8.85-1.54-1.94-.44-3.39-.02-4.9,1.34-4.17,3.74-8.31,7.57-12.8,10.87-3.92,2.89-6.06,6.18-5,11.25Zm275.28,84.16c-.2,1.08.09,1.92.82,2.72,4.98,5.36,9.96,10.72,14.86,16.15,1.3,1.44,1.76.73,2.53-.52,1.67-2.71,3.44-5.38,5.31-7.95,1.05-1.44,1.24-2.86.8-4.52-1.86-7.04-3.74-14.08-5.52-21.14-.37-1.46-.98-2.37-2.33-2.98-2.95-1.34-5.87-2.78-8.73-4.32-1.34-.72-2.22-.85-2.63.93-1.7,7.21-3.41,14.42-5.12,21.63ZM79.92,247.52c.12-1.13-.33-1.92-1.05-2.69-4.81-5.2-9.61-10.39-14.36-15.65-1.21-1.34-1.94-1.39-2.94.26-1.77,2.94-3.68,5.8-5.66,8.6-.83,1.17-.75,2.23-.42,3.48,1.88,7.17,3.7,14.35,5.56,21.53.31,1.2.73,2.27,2,2.86,3.16,1.47,6.26,3.08,9.4,4.6.85.41,1.77,1.03,2.16-.63,1.75-7.46,3.53-14.91,5.31-22.36Zm161.22,142.48c5.58-.67,11.28-1.56,17.01-1.98,4.7-.35,8.52-1.59,10.47-6.57.62-1.57,1.78-2.95,2.82-4.3,1.12-1.45,1.4-2.36-.69-3.19-6.48-2.55-12.93-5.21-19.34-7.97-1.49-.64-2.48-.18-3.61.66-4.88,3.61-9.79,7.16-14.66,10.78-3.77,2.81-3.74,2.83-.43,5.98,1.86,1.77,3.69,3.56,5.48,5.39.8.82,1.58,1.55,2.94,1.2ZM168.49,55.12c.61.14,1.5-.4,2.33-1.52,4.25-5.7,8.53-11.37,12.88-16.98,1.12-1.44.94-2.02-.65-2.88-10.12-5.51-10.1-5.55-20.62-.97-1.21.53-2.37,1.26-3.63,1.58-7.6,1.94-12.07,6.74-12.97,14.92-.03.23-.19.45-.29.68-.87,1.99-.29,2.93,1.84,3.12,6.79.61,13.58,1.31,21.1,2.05Zm45.32,334.47c.22.06.91-.61,1.66-1.28,2.45-2.18,4.89-4.4,7.46-6.42,1.54-1.21,1.67-1.97.06-3.24-5.42-4.3-10.79-8.66-16.08-13.12-1.35-1.14-2.55-1.04-3.96-.53-6.2,2.23-12.4,4.48-18.63,6.65-2,.69-2.77,1.42-1.27,3.57,1.75,2.5,3.2,5.23,4.64,7.94.63,1.18,1.34,1.97,2.64,2.2,7.54,1.34,15.07,2.71,23.48,4.23ZM64.25,172.74c5.63-5.58,11.13-11.06,16.66-16.52.86-.84,1.19-1.76.99-2.98-1.33-7.9-2.62-15.8-4.54-23.68-3.83,1.66-7.43,3.3-11.1,4.78-1.13.46-1.79,1.15-2.13,2.26-2.28,7.43-4.54,14.86-6.83,22.28-.36,1.17-.14,2.12.49,3.14,2.13,3.43,4.19,6.92,6.47,10.72ZM232.85,28.33c-3.17-3.13-6.06-5.9-8.86-8.77-1-1.03-2.08-1.02-3.3-.88-5.47.62-10.92,1.51-16.41,1.75-5.29.23-9.05,2.25-11.14,7.43-.5,1.23-1.41,2.3-2.24,3.35-1.24,1.56-1.47,2.49.8,3.38,6.37,2.49,12.64,5.24,18.95,7.88,1.02.42,2.03.67,3.06-.09,6.32-4.66,12.65-9.29,19.13-14.05Zm84.62,327.4c-7.76-.73-15.25-1.43-22.75-2.17-1.45-.14-2.47.28-3.39,1.5-4.17,5.6-8.36,11.18-12.67,16.66-1.38,1.75-.82,2.41.84,3.18,2.83,1.32,5.63,2.74,8.38,4.24,1.28.7,2.37.79,3.72.17,6.67-3.04,13.38-6.01,20.09-8.95,1.2-.53,1.89-1.29,2.25-2.63,1.03-3.81,2.21-7.58,3.52-12.02Zm37.57-22.9c0-2.48-.13-3.99.03-5.46.25-2.33-.3-2.97-2.72-2.42-6.53,1.49-13.12,2.7-19.7,3.92-1.35.25-2.2.87-2.68,2.11-2.62,6.78-5.22,13.56-7.84,20.34-.57,1.47-.38,2.19,1.38,2.4,3.08.37,6.18.84,9.16,1.68,1.77.5,2.92.11,4.21-1,4.23-3.66,8.41-7.38,12.8-10.81,3.85-3.01,6.9-6.19,5.36-10.76ZM280.34,36.02c-3.4-8.47-7.77-15.13-17.63-14.56-1.05.06-2.19-.16-3.17-.55-7.99-3.15-14.47-.92-20.07,5.54-1.28,1.48-2,2-.16,3.45,5.53,4.37,10.97,8.88,16.43,13.34.79.64,1.5,1.04,2.61.64,7.33-2.67,14.68-5.26,22-7.87Zm80.45,45.77c1.13-3.98-.7-7.56-4.52-10.52-2.48-1.92-4.77-4.16-6.9-6.5-4.27-4.68-8.77-8.33-15.53-5.69-.97.38-2.13.27-3.2.34-1.81.12-2.47.66-1.72,2.77,2.35,6.62,4.52,13.31,6.65,20.01.53,1.66,1.52,2.27,3.05,2.64,4.88,1.17,9.73,2.49,14.6,3.73q7.28,1.85,7.57-6.79Zm37.09,154.49c-.36.27-.79.51-1.13.85-5.3,5.22-10.58,10.47-15.9,15.68-.74.73-.71,1.56-.55,2.4,1.37,7.3,2.84,14.59,4.13,21.91.35,2.01,1.12,1.66,2.41,1.06,2.95-1.36,5.93-2.65,8.93-3.89,1.33-.55,2.09-1.39,2.52-2.85,2.14-7.23,4.34-14.43,6.64-21.61.43-1.35.27-2.3-.44-3.42-1.77-2.81-3.42-5.69-5.13-8.53-.37-.62-.61-1.38-1.46-1.6Zm12.27-27.53c.08,0,.16,0,.23,0,0-3.73-.06-7.46.03-11.18.03-1.5-.4-2.56-1.51-3.54-2.47-2.16-4.92-4.38-7.24-6.71-1.29-1.3-1.97-1.32-2.9.38-3.47,6.38-7.05,12.71-10.6,19.04-.52.92-.66,1.7-.13,2.74,3.35,6.59,6.65,13.21,9.9,19.85.8,1.63,1.36,1.32,2.65.42,6.33-4.43,11.26-9.5,9.37-18.42-.17-.81.12-1.72.2-2.59Zm-107.47-150.37c6.83-.4,12.92-.8,19.01-1.09,2.1-.1,2.71-.75,1.98-2.97-.96-2.92-1.7-5.94-2.28-8.97-.32-1.67-1.08-2.57-2.49-3.27-6.47-3.2-12.91-6.47-19.35-9.73-1.09-.55-2.04-.87-3.34-.2-2.99,1.54-6.07,2.9-9.18,4.17-1.69.68-1.91,1.29-.79,2.86,3.69,5.19,7.32,10.44,10.78,15.8,1.61,2.5,3.27,4.26,5.67,3.4Zm60.9,48.35c.12,0,.23,0,.35,0,.18,3.6.41,7.19.5,10.79.04,1.51.46,2.54,1.79,3.32,6.03,3.55,12.03,7.17,18.02,10.8,1.46.89,2.21.88,2.71-1.13.8-3.23,1.88-6.39,3-9.52.46-1.3.41-2.33-.28-3.5-3.88-6.56-7.74-13.13-11.57-19.72-.69-1.18-1.66-1.68-2.91-1.87-3.07-.48-6.16-.93-9.21-1.54-1.99-.4-2.5.39-2.43,2.32.11,3.35.03,6.71.03,10.06Zm-242.23,243.58c3.68-.43,7.37-.85,11.05-1.3,2.08-.25,1.28-1.59.9-2.73-2.18-6.56-4.43-13.09-6.53-19.67-.56-1.75-1.46-2.57-3.2-2.98-5.47-1.29-10.9-2.83-16.35-4.2-5.26-1.32-5.26-1.28-5.51,4.23-.1,2.23-.21,4.46-.4,6.69-.13,1.48.3,2.6,1.38,3.61,5.43,5.07,10.81,10.19,16.22,15.29.69.65,1.34,1.48,2.44,1.06Zm55.49,20.3c-.37-.56-.77-1.17-1.18-1.78-3.73-5.47-7.5-10.91-11.16-16.44-1.18-1.78-2.65-2.24-4.59-2.13-6.57.39-13.14.76-19.72.99-2.17.08-2.23.83-1.64,2.71.97,3.05,1.71,6.2,2.32,9.35.3,1.54,1.03,2.38,2.31,3.01,6.46,3.22,12.91,6.48,19.36,9.72,1.09.55,2.12.97,3.4.36,3.14-1.51,6.36-2.86,9.52-4.33.56-.26,1.49-.31,1.37-1.47ZM103.95,89.19c.45-1.7-.76-1.63-2.5-1.35-3.07.51-6.17.94-9.27,1.1-1.53.08-2.37.73-3.15,1.93-3.99,6.19-8.02,12.35-12.06,18.5-.78,1.19-1.15,2.35-.71,3.83.95,3.2,1.91,6.41,2.58,9.67.4,1.98,1.06,2.14,2.63,1.28,6.14-3.34,12.32-6.63,18.5-9.9,1.32-.7,1.87-1.74,2-3.24.6-7.05,1.27-14.09,1.98-21.84Zm-5.36,216.28c-.29-4.84-.67-9.68-.81-14.53-.05-1.73-.64-2.65-2.06-3.48-4.7-2.74-9.3-5.67-13.98-8.44-5.68-3.37-5.7-3.33-7.71,3.25-.47,1.54-.91,3.09-1.51,4.57-.7,1.73-.63,3.16.41,4.84,3.23,5.24,6.44,10.51,9.29,15.97,1.76,3.36,4.01,4.91,7.71,5.45,8.81,1.3,8.78,1.52,8.67-7.62Zm284.1-22.25c-7.04,3.81-13.69,7.48-20.41,11-1.43.75-1.81,1.87-1.94,3.25-.62,6.93-1.18,13.86-1.84,20.78-.19,1.96.31,2.58,2.32,2.43,10.95-.79,10.95-.74,17.17-10.22.27-.41.52-.83.79-1.25,2.48-3.95,6.36-7.67,7.04-11.93.68-4.23-1.87-9.01-3.13-14.07ZM52.26,199.96c-2.27,8.85.26,15.77,7.75,20.68.1.07.18.16.26.26,1.26,1.59,2.22,1.9,3.39-.28,3.31-6.19,6.79-12.3,10.24-18.41.67-1.19.77-2.18.12-3.46-3.23-6.38-6.41-12.79-9.53-19.24-.8-1.66-1.43-1.77-2.91-.62-9.01,6.99-9.04,6.94-9.32,18.45-.02.87,0,1.74,0,2.61Zm328.91-33.12c-.87,4.52-1.78,9.22-2.66,13.93-.34,1.82-1.33,3.96-.77,5.43,2.35,6.12,5.18,12.04,8.1,18.66,3.05-5.47,5.64-10.19,8.3-14.87,3.71-6.53,3.78-6.56-1.49-11.91-3.73-3.78-7.58-7.42-11.49-11.24Zm-178.84,195.13c-5.3-3.97-10.2-7.66-15.13-11.32-.47-.35-1.07-.72-1.61-.72-6.17-.05-12.34-.03-19.28-.03,4.7,6.95,8.86,13.12,13.03,19.28.58.86,1.25.83,2.18.48,6.71-2.53,13.45-4.98,20.81-7.69Zm-72.92-36.77c2.48,7.55,4.84,14.42,6.95,21.37.63,2.07,1.88,1.87,3.31,1.8,5.5-.28,10.99-.54,16.49-.88,1.32-.08,2.79.48,4.24-.75-3.78-5.02-7.45-9.9-11.12-14.79-.61-.82-1.4-1.27-2.37-1.55-5.62-1.63-11.23-3.33-17.5-5.2Zm-28.17-208.15c-7.05,3.7-13.41,7.05-19.79,10.38-.86.45-1.27,1.04-1.07,2.06,1.43,7.36,2.85,14.73,4.18,21.63,4.45-4.31,8.93-8.58,13.29-12.97.61-.61.84-1.78.97-2.73.82-5.87,1.56-11.75,2.42-18.38Zm-20.04,123.8c.99-5.03,2.23-11.18,3.39-17.35.13-.67-.05-1.5-.33-2.14-2.51-5.74-5.07-11.46-7.83-17.65-3.93,6.95-7.56,13.49-11.32,19.95-.82,1.41-.07,2.07.73,2.81,5.16,4.85,10.34,9.67,15.37,14.38Zm-4.62-43.72c2.74-5.44,5.1-10.43,7.74-15.26,1.15-2.1,1.37-4.13,1.03-6.39-.71-4.65-1.44-9.29-2.05-13.96-.26-2.01-.71-2.9-2.49-1.14-4.68,4.61-9.36,9.23-14.09,13.78-1.02.98-.87,1.84-.31,2.94,3.3,6.44,6.56,12.91,10.17,20.03ZM215.91,44.52c6.03,2.23,11.54,4.28,17.06,6.28.9.33,1.84.5,2.82.19,5.79-1.8,11.58-3.58,17.88-5.53-6.08-5.02-11.72-9.62-17.29-14.31-1.06-.89-1.72-.72-2.73.05-5.68,4.34-11.43,8.6-17.73,13.31Zm-7.28,318.55c6.19,5.13,11.8,9.75,17.37,14.42.94.78,1.61.65,2.5-.04,5.75-4.39,11.53-8.73,17.79-13.46-6.24-2.3-12.05-4.47-17.87-6.55-.62-.22-1.45-.12-2.11.09-5.69,1.75-11.36,3.55-17.67,5.54Zm80.4-9.95c-4.08-.26-7.6,0-10.91-.77-10.91-2.54-16.96,6.07-25.59,10.82,7.42,3.13,13.94,5.84,20.41,8.67,1.26.55,1.97.32,2.74-.72,4.28-5.8,8.59-11.58,13.36-18ZM135.12,78.39c4.88-1.2,9.26-2.28,13.64-3.35,1.97-.48,4.4-.29,5.76-1.78,4.31-4.74,8.31-9.79,12.8-15.17-7.83-.88-14.93-1.67-22.02-2.5-1.16-.14-1.75.33-2.15,1.43-2.57,6.92-5.19,13.82-8.03,21.37Zm-34.66,212.01c.69,8.03.98,15.09.99,22.17,0,1.23.03,2.53,1.61,2.91,7.04,1.71,14.08,3.45,21.69,5.32-2.44-6.42-4.64-12.28-6.91-18.1-.25-.64-.78-1.29-1.35-1.67-5.09-3.42-10.22-6.78-16.03-10.62Zm231.58,35.54c5.98-1.16,11.14-2.16,16.29-3.17q6.88-1.35,7.53-8.68c.08-.86.3-1.72.31-2.58.06-4.61,1.39-9.16.87-14.32-5.59,3.28-10.77,6.29-15.92,9.37-.57.34-1.07,1.01-1.36,1.65-2.53,5.71-5,11.46-7.73,17.73Zm53.67-114.55c-2.18,4.29-4.19,8.18-6.14,12.1-1.04,2.09-2.86,4.28-2.77,6.35.29,6.59,1.42,13.12,2.81,19.94,5.54-5.39,10.68-10.41,15.83-15.42.71-.69,1.28-1.29.65-2.51-3.44-6.65-6.79-13.36-10.39-20.46Zm-52.75-128.03c-1.14-3.33-1.99-5.77-2.82-8.22-.83-2.45-1.67-4.9-2.46-7.37q-2.41-7.52-9.79-7.22c-1.8.07-3.6.08-5.39.18-3.4.18-6.8.41-10.93.67,4.15,5.5,7.8,10.38,11.5,15.21.42.55,1.07,1.04,1.7,1.24,5.8,1.8,11.62,3.54,18.18,5.52Zm-5.79,246.72c-5.64,1.4-10.6,2.64-15.57,3.86-1.39.34-3.08.21-4.04,1.34-4.17,4.87-8.2,9.86-12.57,15.17,7.6.85,14.49,1.6,21.37,2.4,1.49.17,2.37-.22,2.96-1.85,2.43-6.72,5.01-13.38,7.85-20.91Zm52.52-170.58c1.94-7.87,3.69-15.02,5.46-22.16.27-1.1.04-1.88-.98-2.47-6.23-3.62-12.43-7.27-19.28-11.29.48,5.65.89,10.66,1.35,15.67.16,1.71-.1,3.86.79,5.01,3.92,5.1,8.18,9.91,12.67,15.23Zm-1.93,98.02c-4.09,3.87-8.26,7.77-12.37,11.72-.68.65-1.51,1.49-1.64,2.35-.95,6.34-2.11,12.66-2.46,19.7,6.87-3.6,13.24-6.96,19.62-10.26,1.36-.7,1-1.78.79-2.87-1.34-7.04-2.69-14.08-3.95-20.64ZM104.8,111.57c4.72-2.78,8.77-5.15,12.79-7.56,1.54-.92,3.72-1.58,4.42-3,2.91-5.85,5.37-11.93,8.22-18.44-7.69,1.49-14.61,2.87-21.54,4.14-1.32.24-1.83.81-1.94,2.14-.6,7.29-1.24,14.57-1.94,22.72Zm255.94,5.83c0-7.67,0-15.08,0-22.49,0-1.23-.76-1.74-1.78-1.99-6.95-1.68-13.91-3.36-21.42-5.18,2.37,6.3,4.56,12.15,6.8,17.97.21.55.59,1.15,1.05,1.46,5.18,3.49,10.39,6.93,15.34,10.22Zm-64.93-58.97c-4.54-6.73-8.71-12.88-12.84-19.05-1.04-1.56-2.18-.49-3.17-.15-4.07,1.42-8.13,2.87-12.13,4.49-2.35.95-4.99,1.25-7.39,3.12,4.6,3.45,8.95,6.72,13.32,9.95.86.63,1.57,1.63,2.75,1.63,6.29.02,12.58,0,19.46,0ZM82.56,248.99c-1.97,8.07-3.73,15.37-5.53,22.65-.23.92.15,1.44.81,1.83,6.31,3.7,12.64,7.38,19.58,11.44-.63-6.88-1.19-13.05-1.78-19.21-.06-.6-.15-1.32-.5-1.74-4.03-4.85-8.11-9.66-12.59-14.98ZM209.7,45.26c-4.91-2.02-9.24-3.8-13.57-5.58-2.76-1.14-5.79-3.61-8.22-3.09-2.7.58-3.94,4.64-5.89,7.14-2.89,3.7-5.7,7.47-8.93,11.71,6.61.37,12.45.7,18.3,1.01,1.1.06,2.09-.21,3.05-.87,4.88-3.35,9.81-6.64,15.25-10.32Zm107.59,36.53c5.9,9.8,13.28,16.93,23.12,21.75-1.97-5.33-3.84-10.39-5.7-15.46-.37-1.02-1.08-1.6-2.07-1.88-4.95-1.41-9.89-2.83-15.35-4.4Zm-125.73,268.44c4.6,3.48,8.74,6.62,12.89,9.75.68.51,1.3.96,2.27.64,5.12-1.67,10.25-3.26,15.68-4.98-9.89-4.97-19.79-6.88-30.85-5.42Zm41.31,5.65c5.46,2.06,10.35,3.92,15.25,5.72.52.19,1.3.26,1.71,0,4.55-3.03,9.06-6.14,14.19-9.65-11.06-1.6-20.97-.59-31.15,3.94Zm-138.42-97.32c1.18-8.89-2.03-21.63-7.77-30.73-1.17,5.83-2.28,11.23-3.3,16.65-.1.51.18,1.26.53,1.67,3.42,4.09,6.9,8.13,10.55,12.4Zm32.06-160.23c10.17-4.63,17.97-11.15,24.14-20.72-5.57,1.37-10.55,2.64-15.55,3.78-1.24.28-1.78.99-2.24,2.09-2,4.78-4.06,9.53-6.34,14.85Zm181.87-22.99c-3.35-4.51-6.53-8.82-9.74-13.1-.27-.36-.76-.76-1.16-.77-5.42-.05-10.84-.03-16.8-.03,6.88,7.21,19.61,13.55,27.69,13.9Zm-148.67-3.54c8.92-.33,23.95-7.16,28-12.58-4.92-.29-9.82-.58-14.72-.86-1.07-.06-2.13-.22-2.96.81-3.36,4.15-6.75,8.27-10.32,12.62Zm175.99,238.39c-10.15,4.51-17.86,11.09-24.02,20.61,5.62-1.34,10.71-2.55,15.8-3.79.7-.17,1.25-.53,1.59-1.33,2.11-5.04,4.29-10.05,6.63-15.5Zm27.62-170.59c-.42-5.47-.81-10.55-1.18-15.63-.09-1.26-.15-2.41-1.39-3.19-4.45-2.81-8.86-5.71-13.62-8.8,2.75,11.09,8.1,19.93,16.2,27.62Zm-241.5,165.39c2.11,5.63,4.03,10.76,5.95,15.9.28.76.81,1.11,1.57,1.33,5.12,1.45,10.23,2.95,15.63,4.53-5.77-9.57-13.02-16.8-23.15-21.75Zm220.87-2.81c4.97-2.91,9.49-5.56,14.03-8.17.68-.39,1.14-.82,1.25-1.65.72-5.47,1.46-10.94,2.27-16.98-8.67,7.28-14.13,15.95-17.55,26.8Zm31.62-67.52c-6.2,9.49-9.28,19.43-9.5,29.86,3.52-3.42,7.25-7.07,11.01-10.69.9-.87,1.02-1.89.85-3.05-.77-5.21-1.53-10.43-2.36-16.12Zm-288.84-17.77c3.14-11.01,3.66-21.33.71-32.34-2.72,5.29-5.22,10.14-7.71,15-.36.7-.26,1.42.07,2.14,2.23,4.87,4.45,9.76,6.93,15.2Zm290.07-36.15c1.11-5.44,2.11-10.28,3.06-15.14.21-1.07.61-2.25-.21-3.22-3.52-4.16-7.07-8.28-11.01-12.87-.07,11.5,2.23,21.59,8.15,31.22Zm-105.21-122.69c-4.48-3.4-8.59-6.52-12.68-9.65-.62-.47-1.29-.73-2.01-.51-5.12,1.59-10.23,3.2-15.88,4.98,9.96,4.87,19.65,6.79,30.57,5.18Zm-155.25,238.45c-2.92-11.15-7.96-19.92-16.2-27.53.48,5.9.92,11.08,1.31,16.25.08,1.07.41,1.9,1.31,2.48,4.35,2.8,8.69,5.62,13.58,8.79Zm-13.14-163.36c8.56-7.18,14.03-15.78,17.56-26.83-5.29,3.09-9.92,5.8-14.55,8.51-.74.43-.74,1.19-.84,1.93-.69,5.29-1.4,10.57-2.17,16.38Zm-4.48,11.08c-3.58,3.4-7.44,7.08-11.31,10.73-.82.77-.84,1.73-.68,2.74.79,5.18,1.59,10.35,2.45,15.94,6.24-9.36,9.23-19.3,9.55-29.41Zm100.6-87.57c13.96,1.12,24.49-.33,31.01-4.19-4.96-1.83-9.82-3.56-14.61-5.44-1.17-.46-1.99-.31-2.96.36-4.25,2.97-8.53,5.89-13.44,9.27Zm76.27,292.31c5.58,1.13,10.85.72,16.07,1.18.52.05,1.27-.23,1.6-.62,3.49-4.2,6.92-8.45,10.62-13-10.77,1.3-19.89,5.27-28.28,12.44Zm101.77-125.08c2.67-5.23,5-9.83,7.38-14.4.5-.97.56-1.87.12-2.84-2.19-4.79-4.37-9.59-6.81-14.95-3.31,10.88-3.75,21.15-.68,32.19Zm-194.48,123.29c-7.15-7.46-20.05-13.84-27.82-14.02,3.22,4.34,6.36,8.55,9.46,12.79.75,1.03,1.69,1.24,2.82,1.24,4.9-.02,9.81,0,15.54,0ZM49.41,234.03c.65-6.34-1.44-12.26-2.68-18.3-.31-1.5.02-3.91-1.85-3.99-2.21-.1-1.43,2.55-1.62,3.8-.67,4.49-2.71,9-1.4,13.53,1.23,4.24,3.28,8.22,5.03,12.29.26.6.39,1.66,1.35,1.41.91-.23,1.17-1.12,1.17-2.05,0-2.23,0-4.47,0-6.7ZM348.3,52.63c-1.29-1.69-2.5-3.39-3.82-4.98-2.23-2.7-3.81-6.31-6.98-7.79-4.1-1.92-8.55-3.01-12.87-4.43-.64-.21-1.5-.59-1.9.25-.33.68-.02,1.47.58,2,1.45,1.28,3.01,2.45,4.37,3.83,5.12,5.2,11.53,8.28,17.7,11.76,1.14.64,2.14.96,2.92-.64Zm31.39,270.03c-1.85-.83-2.77-.1-3.7.78-2.83,2.69-5.94,5.11-8.47,8.06-3.09,3.61-5.7,7.67-8.55,11.51-.64.86-1.11,1.82-.36,2.69.81.94,1.54-.17,2.16-.54,3.42-2.06,6.77-4.24,10.15-6.35,1.05-.66,1.92-1.44,2.46-2.62,2.06-4.47,4.15-8.92,6.3-13.52ZM84.88,86.34c.07,0,.67-.66,1.28-1.23,2.96-2.73,6.16-5.24,8.77-8.29,3.17-3.71,5.85-7.87,8.73-11.85.46-.64.58-1.39.2-2.1-.44-.82-.98-.27-1.51-.05-9.66,4.1-16.04,11.3-19.09,21.66-.25.85-.72,1.73,1.6,1.85Zm320.3,190.19c.17-.63.79-1.7-.34-2.07-.98-.32-1.52.45-1.98,1.21-2.14,3.6-4.58,7.04-6.33,10.82-2.06,4.46-3.51,9.22-5.23,13.85-.34.91-.18,1.74.45,2.42.65.71,1.02-.07,1.4-.42,7.33-6.89,12.97-14.65,12.03-25.81Zm-291.44,79.19c3.11,3.92,6.23,7.84,9.32,11.77.64.81,1.46,1.28,2.38,1.58,3.87,1.3,7.72,2.64,11.63,3.82.69.21,1.86,1.22,2.39-.26.39-1.1-.43-1.77-1.18-2.47-6.35-5.94-13.32-10.93-21.04-14.77-1.18-.59-2.2-.92-3.49.33Zm-56.72-221.62c1.28.25,2-.63,2.66-1.77,2.09-3.61,4.54-7.05,6.29-10.82,1.96-4.23,3.32-8.75,4.92-13.15.31-.85.39-1.85-.25-2.46-.74-.71-1.24.23-1.76.67-8.45,7.08-12.61,16.17-11.85,27.54Zm63.63-86.72c1.85,1.07,2.99.59,4.24,0,6.66-3.18,13.22-6.51,18.71-11.66,1.41-1.32,4.62-2.06,3.52-4.39-.72-1.52-3.44.23-5.2.7-3.69.98-7.91,1.02-10.81,3.62-3.76,3.39-6.84,7.6-10.46,11.74Zm49.6-24.49c2.13-.37,4.24-.91,6.39-1.08,6.83-.54,12.91-3.61,19.2-5.95.98-.37,1.87-.9,1.82-2.01-.06-1.29-1.25-.88-1.99-.91-2.52-.12-5.05-.3-7.56-.18-2.59.12-5.32-.8-7.76.7-3.61,2.22-7.18,4.5-10.73,6.83-.57.38-1.86.53-1.22,1.79.35.7,1.07.95,1.86.81Zm169.02,337.36c-2.97,1.48-6.05,3.13-9.22,4.57-5.36,2.44-9.47,6.71-14.17,10.13-.7.51-1.37,1.21-1.01,2.18.36.97,1.25.43,1.88.36,10.27-1.13,18.13-6.34,23.78-15.23.24-.38.54-.91.45-1.28-.19-.71-.94-.6-1.72-.74ZM273.26,15.16c.03,1.73.9,2.31,1.93,2.77,3.74,1.67,7.38,3.68,11.25,4.93,4.44,1.44,9.08,2.21,13.63,3.27.93.22,1.85-.16,2.2-.91.37-.8-.58-1.22-1.14-1.63-3.15-2.27-6.31-4.53-9.5-6.75-1.08-.75-2.09-1.69-3.53-1.69-4.91,0-9.82,0-14.85,0ZM66.73,292.44c-.88-2.88-1.99-6.03-2.81-9.26-1.48-5.88-5.07-10.65-7.58-15.99-.42-.89-1.18-1.87-2.23-1.41-.89.39-.43,1.56-.36,2.35.26,3.22.46,6.46,1.01,9.62.35,2,.08,4.17,1.64,5.97,2.8,3.24,5.35,6.7,8.05,10.03.4.49.71,1.49,1.62,1.02.76-.39.7-1.23.64-2.32ZM384.43,92.15c-.82-2.04-1.65-4.36-2.67-6.6-1.3-2.87-1.73-6.34-4.31-8.37-3.42-2.69-7.08-5.05-10.66-7.51-.55-.38-1.21-1.13-1.89-.47-.68.67-.55,1.54,0,2.36,1.55,2.35,3.19,4.65,4.56,7.11,3.1,5.6,8.15,9.33,12.25,13.96.59.67,1.29,1.1,2.22.88.6-.14.68-.57.51-1.37ZM235.77,14.17c4.22-.34,8.28-.7,12.34-.99,1.13-.08,2.55-.26,2.67-1.4.14-1.38-1.54-1.33-2.46-1.66-3.61-1.3-7.29-2.39-10.91-3.65-1.2-.41-2.33-.48-3.52-.13-3.8,1.1-7.61,2.16-11.39,3.31-.8.24-2.25-.05-2.04,1.43.15,1.08,1.32,1.39,2.28,1.51,4.4.56,8.8,1.06,13.04,1.57Zm160.91,99.1c-1.68,1.23-1.3,2.46-.83,3.83.84,2.45,1.69,4.92,2.27,7.44,1.41,6.17,5.11,11.16,7.77,16.69.38.79.84,1.55,1.84,1.51.56-.02.84-.44.8-1-.42-5.53.15-11.46-2.49-16.35-2.41-4.46-6.19-8.13-9.35-12.13ZM97.45,339.45c.61-1.15.14-2.21-.58-3.29-2.16-3.27-4.02-6.81-6.48-9.81-3.17-3.87-6.82-7.32-10.25-10.95-.56-.6-1.25-.78-1.97-.57-.87.25-.5.92-.34,1.49,2.93,11,8.96,19.19,19.62,23.14Zm316.77-173.78c-3.32,3.81-.37,28.77,3.65,31.3,4.3-11.08,3.17-21.6-3.65-31.3Zm-120.16,221.08c-4.48-2.72-27.62,3.9-29.32,8.21,11.16,2.85,21.05.25,29.32-8.21Zm-52.08,11.41c-.25-2.05-1.7-1.93-2.99-2.16-7.48-1.32-14.97-2.01-22.52-.7-1.66.29-4.48-.8-4.69,1.39-.19,2.03,2.79,1.9,4.4,2.46,3.71,1.28,7.35,3.59,11.34,3.04,4.95-.69,9.76-2.3,14.45-4.03Zm169.31-154.16c-.12,2.7-.2,4.31-.26,5.92-.03.81.26,1.61.97,1.82.87.26,1.14-.64,1.45-1.29,1.68-3.56,3.37-7.1,5.02-10.67.51-1.1,1.28-2.14,1.13-3.46-.51-4.42-.99-8.85-1.61-13.26-.11-.8.34-2.3-1.09-2.28-1.07.01-1.4,1.16-1.67,2.15-1.97,7.27-4.18,14.48-3.95,21.08ZM49.69,156.32c-1.19,2.41-2.32,4.73-3.46,7.03-2.08,4.18-4.28,8.28-3.23,13.33.6,2.9.79,5.88,1.31,8.8.14.78-.64,2.24.96,2.27,1.17.02,1.47-1.13,1.77-2.06,2.77-8.63,4.04-17.53,4.35-26.6.04-1.13-.39-1.89-1.7-2.77Zm130.86,237.23c1.8,0,3.6.06,5.39-.02,1-.04,2.51.55,2.88-.62.48-1.52-1.09-1.94-2.15-2.43-3.5-1.6-6.91-3.49-10.55-4.64-4.56-1.43-9.3-2.23-13.96-3.3-.9-.21-1.71.01-2.23.77-.33.49.15.9.56,1.16,6.24,4.08,11.42,10.68,20.05,9.07Zm227.44-220.53c-2.1,3.24-3.8,5.9-5.55,8.53-.62.93-.85,1.75.07,2.61,2.43,2.26,4.57,4.88,7.64,6.7.82-6.11-.21-11.63-2.15-17.83ZM277.26,24.49c1.96,3.3,3.58,6.03,5.2,8.75.46.77.98,1.54,1.99,1.05,3.07-1.48,6.45-2.31,9.36-4.55-5.09-2.94-10.18-4.86-16.54-5.25Zm122,115.04c-1.1-6.43-3.12-11.63-6.99-16.75-1.11,3.66-1.99,6.73-2.99,9.75-.39,1.17-.21,1.82.89,2.36,2.87,1.41,5.71,2.9,9.09,4.64ZM53.26,182.3c2.78-2.41,5.22-4.53,7.67-6.66.6-.52.94-1.12.45-1.93-1.79-2.96-3.12-6.27-5.73-8.91-1.92,5.71-3.32,11.14-2.38,17.49ZM226.94,18.27c2.21,2.99,4.92,4.84,7.23,7.12.55.54,1.13.9,1.86.25,2.57-2.26,5.52-4.08,7.82-7.22-5.77-1.19-11.14-1.74-16.91-.16Zm-58.52,360.4c5.01,3.19,10.4,4.87,16.24,5.46-4.33-10.62-5.8-11.2-15.28-6.16-.31.17-.58.42-.96.71Zm-98.55-92.92c4.26-14.02,5.89-10.14-5.93-16.23-.16-.08-.42.02-.86.04.97,5.83,3.13,11.04,6.78,16.19Zm318.54,8.04c3.84-5.21,6.5-10.25,7.59-16.57-3.15,1.41-5.86,2.69-8.62,3.84-1.47.62-1.94,1.46-1.46,3.1.88,3.01,1.58,6.07,2.49,9.63Zm-102.29,87.63c-3.34-1.66-6.33-3.13-9.32-4.62-.93-.46-1.59-.17-2.13.67-1.82,2.82-4.07,5.36-5.35,8.72,5.92-.29,11.26-1.77,16.8-4.78Zm30.84-13.67c5.78-2.19,10.65-4.95,14.71-9.46-13.79-2.62-10.54-4.29-14.71,9.46ZM130.84,49.87c8.65,4.04,11.17,2.96,13.63-5.84.25-.88.94-1.76.41-3.02-5.37,1.76-10.01,4.68-14.04,8.86Zm232.74,28.89c0,3.97,0,7.27,0,10.56,0,.89.08,1.77,1.21,1.92,3.22.41,6.36,1.62,9.79,1.38-2.86-5.97-5.51-9.35-11.01-13.86Zm-128.19,311.65c-2.25-3.12-5.09-5-7.43-7.4-.61-.63-1.25-.53-1.9.01-2.55,2.17-5.12,4.32-8.13,6.84,6.14,1.57,11.59,1.7,17.45.54ZM66.01,131.36c3.53-1.58,6.44-2.92,9.38-4.19,1.09-.47,1.43-1.11,1.08-2.32-.94-3.16-1.31-6.5-2.84-9.73-3.77,4.6-5.95,9.77-7.62,16.23Zm340.33,112.88c2.37-6.17,3.27-11.74,2.85-18.14-2.79,2.38-5.15,4.42-7.55,6.42-.98.82-1.29,1.56-.51,2.8,1.69,2.69,3.21,5.48,5.21,8.93Zm-352.1-8.67c2.15-3.31,3.91-6.06,5.7-8.78.62-.95.7-1.73-.24-2.55-2.41-2.09-4.42-4.68-7.42-6.44-.89,6.03.04,11.55,1.96,17.78Zm83.82,127.77c-.92-3.57-1.66-6.54-2.47-9.5-.25-.92-.46-2.07-1.76-1.96-3.34.28-6.73.22-10.12,1.49,4,4.52,8.52,7.63,14.35,9.97ZM324.62,45.39c.24,3.94,1.57,7,2.31,10.2.2.88.74,1.33,1.52,1.18,3.25-.65,6.73-.11,10-1.74-3.95-4.34-8.27-7.44-13.83-9.63Zm44.8,277.44c-3.54-.2-6.58.52-9.65.87-.91.1-1.75.39-1.77,1.44-.06,3.47-.02,6.93-.02,10.84,4.9-3.79,8.55-7.75,11.44-13.16ZM176.46,26.89c3.11,2.37,6.31,3.41,9.23,4.98.85.46,1.36.08,1.78-.6,1.78-2.83,3.97-5.4,5.34-8.82-5.86.03-10.92,1.69-16.36,4.44Zm-83.87,59.25c3.52-.5,6.6-.91,9.67-1.38.76-.12,1.9.05,1.89-1.21-.03-3.5.79-7.02.03-10.72-5.64,4.16-7.7,6.52-11.59,13.31Zm-5.12,229.4c2.55,5.8,6.22,9.99,10.8,13.98.83-3.71.34-7.04.45-10.33.04-1.22-.66-1.83-1.71-2.01-3.04-.55-6.08-1.05-9.53-1.64ZM265.13,62.01c6.14,2.03,11.37,3.76,17.3,5.73-4.72-5.94-10.09-7.23-17.3-5.73Zm-21.49-3.78c-5.9-3.79-11.59-4.31-17.83-.64,6.08.68,11.78.78,17.83.64Zm-115.24,246.54c-4.21-5.25-7.82-9.76-11.81-14.75,1.09,7.51,4.69,12.06,11.81,14.75Zm16.07,15.19c3.19,7.11,8.13,10.31,15.47,10.88-5.28-3.71-10.08-7.09-15.47-10.88Zm184.73-10.26c8.16-3.33,11.1-6.8,12.16-13.89-3.96,4.52-7.72,8.83-12.16,13.89Zm-132.33,36.7c-6.01-1.99-11.42-3.78-17.6-5.82,5.12,5.53,10.4,7.72,17.6,5.82Zm-98.81-93.15c-1.23,7.88,1.59,12.92,7.22,17.59-2.48-6.04-4.65-11.33-7.22-17.59Zm35.19-154.65c-7.14,2.62-11.23,6.59-12.35,14.07,4.16-4.74,7.92-9.02,12.35-14.07Zm169.33-20.71c5.39,3.77,10.02,7.01,15.3,10.71-3.26-6.71-7.6-10.36-15.3-10.71Zm69.11,141.11c-1.08,6.52-2.06,12.45-3.14,18.93,4.89-5.76,5.67-11.73,3.14-18.93Zm.7-22.95c2.65-6.66,2.24-12.58-2.36-18.51.73,6.46,1.04,12.39,2.36,18.51Zm-59.94,128.01c-5.4,3.43-10.19,6.47-15.69,9.95,7.56,0,12.2-3.31,15.69-9.95ZM93.62,170.82c-4.98,5.74-5.4,11.62-3.27,18.3,1.67-5.96,2.15-11.81,3.27-18.3Zm251.92-52.48c-.94-7.65-4.8-11.94-11.71-14.67,4.1,5.14,7.71,9.66,11.71,14.67Zm-195.54-34.01c5.62-3.57,10.4-6.61,15.77-10.02-7.13.36-12.22,2.89-15.77,10.02Zm-100.74,125.26v-19.7c-2.92,6.81-3.08,13.25,0,19.7Zm209.77,138.27c7.13,2.5,12.43.35,17.58-4.9-6.13,1.71-11.62,3.24-17.58,4.9ZM90.27,213.47c-3.11,5.97-2.59,11.54,1.95,17.29-.7-6.23-1.33-11.76-1.95-17.29ZM202.99,60.7c-6.32-1.65-12.1-1.18-16.93,4.75,6.01-1.68,11.47-3.22,16.93-4.75Zm161.04,94.12c1.68-7.85-1.81-12.49-7.18-17.43,2.57,6.23,4.73,11.48,7.18,17.43Zm17.52-56.93c3.22,5.46,6.43,10.92,9.65,16.38-.55-7.16-3.79-12.65-9.65-16.38Zm-281.39,51.08c3.09-5.78,5.6-11.28,8.03-17.18-5.96,4.15-8.48,9.65-8.03,17.18Zm254.05,127.03c6.87-5.62,8.97-10.4,7.24-15.42-2.46,5.24-4.85,10.33-7.24,15.42ZM74.65,107.6c4.1-6.3,7.69-11.82,11.28-17.34-6.16,3.78-9.75,9.3-11.28,17.34ZM169.52,26.41c-8.04.33-14.18,2.56-19.53,8.7,6.69-2.98,12.66-5.64,19.53-8.7Zm239.91,139.32c1.4-8.06-.65-14.44-5.46-21.01,1.93,7.41,3.61,13.9,5.46,21.01Zm-62.95-107.58c4.59,4.3,9.17,8.6,13.76,12.9-2.54-6.72-7.2-10.93-13.76-12.9ZM52.97,243.24c-1.07,7.28.1,13.93,5.2,20.12-1.85-7.15-3.53-13.63-5.2-20.12Zm184.52,107.32h-18.11c5.98,4.12,11.61,3.49,18.11,0Zm-45.82,38.12c5.67,4.04,11.85,5.78,19.09,3.34-6.66-1.16-12.88-2.25-19.09-3.34Zm-89.23-50.83c2.28,7.07,7.39,10.71,14.48,13.56-5.33-4.99-9.9-9.27-14.48-13.56Zm209.11,35.87c-5.76,2.58-11.52,5.15-18.23,8.15,7.94.05,13.61-2.7,18.23-8.15Zm-231.01-63.32c-3.24-5.53-6.49-11.06-10.27-17.52,1.3,7.98,4.16,13.73,10.27,17.52Zm162.93,82.31c6.74,2.55,13.1,1.51,19.89-2.47-7.14.89-13.52,1.68-19.89,2.47ZM61.15,136.41c-5.23,6.22-7.04,12.58-6.09,19.83,1.93-6.28,3.86-12.56,6.09-19.83ZM282.72,12.06c-2.52-2.36-5.37-3.55-8.38-4.27-1.41-.34-2.66-.07-2.82,1.85-.14,1.72.55,2.49,2.27,2.44,2.97-.08,5.95-.02,8.93-.02Zm71.05,331.76c-4.78,4.09-9.55,8.17-14.33,12.26,6.57-1.79,11.6-5.56,14.33-12.26Zm59.33-124.88c2.44-6.62,3.32-13.1,0-20.74v20.74ZM122.21,52.92c-7.15,1.36-11.34,6.22-14.46,12.4l14.46-12.4Zm197-13.97c-5.85-6.56-11.07-9.1-16.98-8.56,5.93,2.99,11.46,5.78,16.98,8.56Zm81.81,233.41c5.72-7.62,7.34-12.94,6.18-20.03-2.07,6.71-4,12.98-6.18,20.03ZM220.1,15.62c-7.42-2.13-13.82-1.71-20.76,2.64,7.36-.94,13.72-1.75,20.76-2.64ZM86.8,336.61c1.8,3.94,3.49,6.65,5.88,8.84.99.91,2.1,1.2,3.01-.2.75-1.15,1.02-2.19-.41-3.09-2.57-1.63-5.1-3.33-8.49-5.55Zm289.8-18.79c6.04-3.45,9.54-8.78,10.82-16.59-3.91,6-7.36,11.29-10.82,16.59Zm24.6-19.69c-2.43,2.52-4.46,4.71-6.59,6.78-1.38,1.33-.89,2.35.27,3.34,1.31,1.13,2.27.26,2.95-.8,1.71-2.67,2.86-5.58,3.37-9.32ZM42.31,164.64c1.8-3.61,3.04-6.25,4.43-8.8.89-1.64.81-2.75-.99-3.5-1.9-.79-2.33.7-2.73,1.96-.94,2.99-.93,6.08-.71,10.34ZM333.08,34.94c-2.27-2.73-4.42-5.21-7.42-6.62-1.35-.63-2.36-.46-2.87,1-.5,1.44-.39,2.54,1.48,2.99,2.97.72,5.88,1.74,8.81,2.63ZM55.1,123.79c-2.52,2.56-4.29,5.32-5.33,8.53-.5,1.55.14,2.36,1.55,2.74,1.44.38,2.27,0,2.47-1.7.37-3.2.87-6.38,1.32-9.57Zm106.31,255.04c-6.43-3.24-12.12-6.1-17.8-8.96,4.25,6.04,10.16,8.37,17.8,8.96Zm126.05,16.49c4.05.28,7-.55,9.86-1.68,1.45-.57,1.96-1.67,1.02-3.24-.84-1.41-1.74-1.36-2.93-.52-2.35,1.66-4.75,3.25-7.95,5.44ZM174.3,13.61c-3.29-.29-6.5-.09-9.48,1.35-1.26.61-1.9,1.42-1.05,2.91.81,1.43,1.6,1.89,3.09.78,2.4-1.79,4.95-3.37,7.44-5.04Zm246.74,159.24c1.09-3.22.94-6.26.26-9.28-.34-1.5-1.02-2.58-2.77-1.94-1.61.59-1.87,1.61-1.1,3.19,1.28,2.64,2.41,5.35,3.61,8.03Zm-16.07-54.11c-.19-3.64-.97-6.85-2.81-9.66-.67-1.02-1.58-1.61-2.69-.6-.79.72-1.88,1.48-.85,2.74,2.08,2.55,4.23,5.02,6.36,7.53Zm-344.01-8.79c2.21-2.09,4.29-4.16,6.48-6.08,1.45-1.27,1.45-2.31.02-3.55-1.52-1.32-2.39-.36-3.15.89-1.68,2.74-2.72,5.73-3.34,8.75Zm307.34,234.11c-2.47,1.47-4.91,3-7.41,4.4-1.42.79-1.94,1.59-1.02,3.21,1.01,1.76,2.13,1.32,3.24.37,2.42-2.06,4.1-4.72,5.19-7.97ZM295.65,15.84c3.15,2.37,5.67,4.19,8.1,6.12,1.33,1.06,2.26,1.01,3.21-.49,1.09-1.71.07-2.58-1.16-3.19-2.92-1.44-6.08-1.96-10.15-2.44Zm42.01,354.52c3.38-.52,6.08-1.77,8.41-3.74,1.01-.86,1.57-1.95.38-3.15-1.11-1.12-2.12-1.4-3.26.11-1.76,2.32-3.67,4.52-5.52,6.78Zm37.94-298.28c-1.85-3.93-3.54-6.6-5.8-8.83-1.01-1-2.13-1.62-3.27.03-1.02,1.46-.73,2.37.72,3.27,2.54,1.57,5,3.3,8.36,5.54Zm-291.64,3.68c-2.89,1.46-5.27,3.47-7.09,6.12-.87,1.28-1.18,2.44.44,3.37,1.42.81,2.37.55,3.04-1.1,1.14-2.83,2.4-5.6,3.61-8.39Zm33.23,289.17c-1.75-2.32-3.58-4.58-5.22-6.98-1-1.47-1.89-1.59-3.19-.5-1.49,1.26-.92,2.38.18,3.36,2.33,2.08,4.96,3.64,8.23,4.11Zm-65.55-88.21c-.34-4.05-.67-7-.79-9.96-.07-1.85-.89-2.33-2.5-2.17-1.93.2-2.05,1.47-1.59,2.93.95,3.05,2.35,5.86,4.88,9.2ZM124.83,37.89c-3.57.84-6.57,2.02-8.97,4.34-.93.89-1.14,1.88-.05,2.82.91.78,1.76,1.71,2.94.21,1.96-2.51,4.05-4.91,6.08-7.36Zm41.54,354.62c-3.2-2.4-5.52-4.1-7.8-5.88-1.24-.97-2.21-1.23-3.23.38-1.05,1.67-.27,2.54,1.06,3.19,2.83,1.38,5.83,2.05,9.96,2.31Zm107.46,6.83c-3.27-1.19-6.18-.63-9.01-.92-1.56-.16-2.16.52-2.15,2.11.01,1.89,1.04,2.43,2.57,2.12,2.81-.57,5.56-1.38,8.59-3.31Zm-40.83,4.74c3.91,1.26,7.09,1.53,10.32,1.16,1.41-.16,2.23-.86,1.81-2.47-.39-1.49-.95-2.31-2.78-1.59-2.76,1.09-5.67,1.78-9.35,2.89Zm-175.9-114.56c.44,3.66,1.02,6.97,2.9,9.79.79,1.19,1.73,1.66,2.98.55,1.11-.98,1.36-1.88.26-3.11-2.1-2.36-4.11-4.81-6.15-7.22Zm268.57,88.81c-3.5.84-6.46,1.59-9.43,2.24-1.83.4-1.91,1.68-1.49,3.09.47,1.61,1.66,1.54,2.88.95,2.92-1.43,5.51-3.33,8.05-6.27Zm93.57-133.1c-1.31,2.6-2.52,5.26-3.95,7.79-.99,1.76-.11,2.49,1.21,3.12,1.56.75,2.17-.31,2.6-1.59,1.02-3,.91-6.08.13-9.33Zm-8.65-113.52c.32,3.9.55,6.98.84,10.06.15,1.53.71,2.59,2.54,2.21,1.91-.39,1.85-1.78,1.45-3.12-.93-3.08-2.38-5.9-4.83-9.15Zm-3.32,152.87c2.44-2.55,4.27-5.26,5.23-8.48.36-1.22.11-2.27-1.33-2.49-1.2-.19-2.5-.39-2.73,1.42-.41,3.18-.78,6.37-1.17,9.55ZM228.22,4.72c-3.01-1.39-6.07-1.96-9.2-1.53-1.38.19-2.12.96-1.82,2.58.29,1.57,1.05,2.12,2.53,1.65,2.83-.91,5.66-1.8,8.49-2.7Zm155.43,77.46c1.34,3.53,2.47,6.33,3.47,9.19.57,1.61,1.13,2.64,3.05,1.61,1.99-1.07,1.24-2.41.45-3.63-1.7-2.64-3.89-4.81-6.97-7.16Zm-38.7-38.81c1.75,2.33,3.57,4.59,5.21,7,1.04,1.53,1.98,2,3.41.58,1.39-1.38.65-2.49-.43-3.43-2.3-2.01-4.94-3.45-8.19-4.15Zm-207.62-13.32c2.88-.74,5.73-1.61,8.64-2.16,1.95-.37,1.91-1.51,1.53-2.96-.45-1.75-1.58-1.55-2.81-1-2.9,1.28-5.27,3.32-7.36,6.13Zm-7.8,343.68c1.94,2.84,4.17,5.02,6.98,6.43,1.2.6,2.35.67,2.92-.9.53-1.48.29-2.62-1.42-3.08-2.84-.78-5.65-1.63-8.48-2.45Zm248.64-40.49c3.61-2.17,5.73-4.39,7.45-7.04.81-1.25.53-2.37-.87-3.01-1.09-.5-2.06-.58-2.65.82-1.16,2.78-2.36,5.54-3.93,9.23ZM251.9,16.63c6.02,1.02,12.04,2.04,18.05,3.05-5.51-4.56-11.71-4.66-18.05-3.05ZM39.4,220.46c.55-3.02.96-6.07,1.71-9.03.47-1.85-.11-2.56-1.72-2.78-1.81-.25-2.25.88-2.29,2.46-.08,3.27.8,6.33,2.3,9.35Zm382.63,10.1c1.82-3.66,2.29-6.72,2.68-9.76.18-1.4-.3-2.68-2.19-2.61-1.87.07-2.16,1.15-1.93,2.71.43,2.92.86,5.83,1.43,9.67ZM242.7,4.9c3.2,1.19,5.98,2.22,8.75,3.27,1.36.52,2.28.24,2.71-1.34.49-1.79-.41-2.71-1.9-2.83-3.04-.26-6.14-.61-9.56.91ZM40.45,179.13c-2.02,2.94-2.88,5.99-2.77,9.26.04,1.22.55,2.28,1.96,2.05,1.14-.19,2.35-.39,2.01-2.3-.53-2.98-.81-6-1.2-9.01Zm53.48-114.72c2.43-1.45,4.82-2.96,7.3-4.31,1.57-.86,2.17-1.78,1.02-3.44-1.14-1.64-2.24-.93-3.27.03-2.23,2.06-4.03,4.49-5.05,7.73Zm329.06,122.78c-.68,3.77-1.16,6.83-1.82,9.85-.38,1.72.02,2.56,1.78,2.78,2,.24,2.23-1.16,2.2-2.55-.07-3.22-.59-6.38-2.16-10.08ZM78.56,326.27c-1.35-3.6-2.46-6.43-3.47-9.29-.55-1.57-1.36-2.23-2.95-1.46-1.72.84-1.42,2.11-.64,3.38,1.68,2.73,3.92,4.9,7.06,7.37Zm140.41,77.12c-2.66-.96-5.37-1.82-7.97-2.93-1.61-.69-2.5-.38-2.93,1.32-.46,1.77.43,2.44,1.99,2.73,2.97.54,5.86,0,8.91-1.11ZM41.27,235.9c-.98,3.34-1,6.55-.11,9.7.37,1.3,1.21,2,2.72,1.25,1.31-.65,1.81-1.35,1.11-2.82-1.29-2.69-2.49-5.42-3.73-8.13ZM187.58,9.62c3.78.19,6.69.3,9.6.51,1.66.12,2.44-.56,2.4-2.3-.04-1.78-1.18-1.94-2.46-1.81-3.18.33-6.04,1.56-9.54,3.6Zm-7.3,387.01c2.34,2.36,4.89,3.58,7.72,4.04,1.42.23,2.63.06,2.69-1.95.06-1.73-.86-2.1-2.23-2.09-2.73.01-5.45,0-8.18,0Z"/>
  <path d="m460.53,524.79H0c3.02-1.93,457.28-2.11,460.53,0Z"/>
  <path d="m390.56,487.04c-1.05.22-1.17.25-1.29.27-7.87,1.53-13.58-1.5-17.76-8.52-3.15-5.28-6.8-10.23-10.2-15.35-1.35-2.03-5.84-3.34-8.49-2.16-2.12.94-.96,3.07-1.03,4.61-.18,4.22-.07,8.46-.06,12.69q.02,6.89,6.89,8.61h-18.1c.33-1.14,1.34-.66,1.99-.76,2.9-.44,4.06-2.14,4.05-5.11-.05-13.19-.12-26.38.03-39.57.05-4.54-2.81-5.09-6.09-5.64,6.64-.22,13.15-.65,19.66-.84,4.67-.14,9.29,1.46,11.16,6.58,1.87,5.12.24,9.79-3.22,13.75-3.69,4.23-3.74,4.21-.59,8.89,1.85,2.75,3.69,5.53,5.69,8.16,4.55,5.97,8.92,12.19,17.37,14.39Zm-24-38.47c0-8.22-3.6-12.32-10.4-12.04-2.79.11-4.26,1.37-4.29,4.29-.06,5.35-.04,10.7-.16,16.05-.04,1.81.76,2.42,2.32,2.53,8.39.61,12.79-1.96,12.53-10.84Z"/>
  <path d="m117.16,442.1c0,13.63-.03,26.17.02,38.72.02,3.68,2.45,5.3,5.49,6.4h-13.14c6.05-1.37,5.55-6.29,5.54-10.99-.02-10.21-.22-20.43.09-30.63.14-4.81-.67-8.31-5.79-9.78,3.02,0,6.04.06,9.06-.02,1.68-.05,2.15,1.3,2.95,2.33,10.08,13,20.17,25.98,30.25,38.98.29.38.48.85.72,1.28.3-.11.59-.22.89-.33,0-2.03,0-4.07,0-6.1,0-8.97-.05-17.93.02-26.9.03-4.14-.63-7.7-5.22-9.04h12.92c-5.46,1.19-5.78,5.41-5.76,10.01.07,12.7.02,25.4.02,38.1,0,1.33,0,2.66,0,4-.33.16-.65.32-.98.48-12.14-15.23-24.27-30.46-37.07-46.51Z"/>
  <path d="m207.25,467.31h17.09c-5.52,2.71-3.64,7.59-3.7,11.62-.1,7.01.17,7.09-6.63,8.23-6.42,1.07-12.87,1.62-19.3.01-10.53-2.63-17.89-10.72-19.24-21.11-1.55-11.94,3.13-21.97,13.05-27.51,8.17-4.56,16.81-5.39,25.79-2.97,3.3.89,5.73,2.21,5.4,6.49-.17,2.16.79,4.36.39,6.59-.67.16-.9-.33-1.08-.75-3.8-8.72-9.98-12.62-18.75-11.81-10.22.94-16.11,5.83-18.43,15.28-2.8,11.41,1.04,23.83,9.33,30.23,5.85,4.52,12.41,5.61,19.44,4.26,2.47-.47,4.04-2.05,4.63-4.61.03-.12.03-.25.06-.37,2.13-8.68.24-11.82-8.03-13.57Z"/>
  <path d="m238.69,487.18q6.75-1.83,6.75-8.86c0-11.45,0-22.9,0-34.34,0-6.36-.33-6.77-6.11-7.68,3.27-.74,21.69-.64,25.01.1,4.87,1.09,8.83,3.38,10.16,8.76,1.37,5.52.46,10.63-3.34,14.93-4.23,4.79-12.61,6.97-17.29,4.57.79-.87,1.76-.39,2.61-.4,8.41-.09,13.4-6.08,12.7-15.28-.64-8.45-6.77-13.52-14.8-12.36-3.38.48-3.83,2.88-3.83,5.68-.01,9.08,0,18.17-.01,27.25,0,3.36-.02,6.72,0,10.08.04,5.14,1.02,6.21,6.01,6.85,1.02.13,2.15-.27,3.39.71h-21.27Z"/>
  <path d="m289.89,487.37q6.06-2.09,6.07-8.81c0-11.21,0-22.42,0-33.63q0-6.81-6.03-9.11c3.59,0,7.17,0,10.76,0,6.01,0,12.02.13,18.02-.06,2.59-.08,3.39.83,3.18,3.4-.19,2.35-.04,4.72-.04,7.08-.27,0-.61.05-.63,0-2.59-7.97-10.12-11.41-17.72-8.15-1.78.76-2.2,2.3-2.24,3.91-.13,5.23-.05,10.46-.13,15.69-.03,1.69.75,2.11,2.2,2.07,2.4-.07,4.8-.05,7.21-.01,3.8.06,7.03-.72,8.06-5.44v14.49c-1.1-3.85-2.15-7.06-6.12-7.16-3.24-.08-6.48-.16-9.71-.2-1.55-.02-1.62,1.16-1.62,2.34,0,5.73.02,11.46.03,17.19,0,3.06,1.53,4.59,4.42,4.64,2.88.06,5.78.22,8.64-.01,5.8-.47,7.86-4.93,9.91-9.92-.15,3.45-.26,6.9-.49,10.35-.09,1.3-1.16,1.37-2.17,1.37-10.53,0-21.07,0-31.6,0Z"/>
  <path d="m76.1,435.91h17.65c-.55,1.17-1.57.59-2.32.76-2.43.53-3.83,1.86-3.83,4.58.01,13.55.04,27.1-.01,40.65-.02,4.57,3.3,4.4,6.18,5.21h-18.03c2.05-1.21,4.98-.12,6-2.81.8-2.12.61-4.41.61-6.65,0-11.31.02-22.63-.01-33.94-.02-5.97-.47-6.48-6.24-7.8Z"/>
  <path d="m229.14,560.46c1.71-1.96,2.54-4.14,1.61-6.64-.77-2.08-2.34-3.1-4.52-2.93-2.56.19-1.71,2.28-1.76,3.69-.12,3.48,0,6.97-.07,10.46-.04,1.8.27,3.23,2.29,3.67h-5.76c2.1-2.52,2.13-15.61-.12-18.48,2.65,0,5.11-.16,7.53.05,2.43.21,4.48,1.34,4.79,4.18.34,3.04-.86,5.19-4,6Z"/>
  <path d="m142.61,568.54c-2.67.84-4.25-.08-5.37-2.21-.57-1.08-1.35-2.05-1.95-3.12-.48-.87-1.15-1.23-2.07-1.1-1.28.18-.92,1.26-.92,2.04,0,1.61-.52,3.43,1.86,4.57h-5.18c1.98-2.45,1.99-11.38-.02-14.04,2.27,0,4.42-.15,6.55.04,2.24.2,4.13,1.77,2.65,3.92-3.11,4.49.49,6.28,2.61,8.75.37.43.98.63,1.85,1.16Zm-10.35-9.76c.22,1.05-.57,2.69,1.49,2.62,1.86-.06,2.85-1.02,2.88-2.98.03-1.69-.54-2.93-2.36-3.02-2.6-.14-1.82,1.94-2.02,3.38Z"/>
  <path d="m268.73,568.54c-2.68.85-4.26-.08-5.38-2.2-.57-1.08-1.35-2.05-1.94-3.12-.48-.87-1.13-1.24-2.06-1.11-1.28.17-.93,1.25-.93,2.03,0,1.63-.52,3.47,1.95,4.58h-5.18c1.91-2.47,1.89-11.38-.13-14.03,2.28,0,4.43-.15,6.56.04,2.24.2,4.12,1.77,2.65,3.91-3.11,4.5.52,6.27,2.63,8.75.37.43.98.63,1.84,1.16Zm-10.39-9.6c.33.83-.58,2.55,1.52,2.47,1.86-.07,2.85-1.03,2.89-2.98.03-1.7-.55-2.93-2.36-3.03-2.61-.15-1.82,1.94-2.05,3.55Z"/>
  <path d="m102.24,565.17c-.67-3.78,1.03-7.28-1.58-10.21,1.04-.6,2.18-.32,3.35-.17-2.67,4.29-.54,9.07-1.66,14.34-3.2-3.92-6.12-7.5-9.7-11.9.06,4.35-.76,7.84.9,11.4-.73.58-1.82,0-2.91.25,2.06-4.8,2.08-9.39,0-14.43,5.85.93,6.78,7.64,11.6,10.73Z"/>
  <path d="m309.87,568.57c-1.01.45-2.05.31-3.12.09,2.21-3.28,2.12-11.02-.62-14.2,6.64.77,7.4,7.72,12.05,10.43-.22-3.47,1.21-6.9-1.35-10.06h3.33c-2.65,4.32-.37,9.18-1.67,14.28-3.19-3.93-6.12-7.54-9.56-11.79-.03,4.29-1.01,7.82.93,11.25Z"/>
  <path d="m340.18,568.76h-4.52c1.36-2.8-.21-4.84-1.85-6.37-.79-.74-2.98-1.01-3.82.53-.95,1.76-2.57,3.8.14,5.85h-4.79c4.09-3.87,4.29-9.66,7.29-14.36,2.96,4.57,3.94,10,7.56,14.34Z"/>
  <path d="m371.33,565.35c-.16,4.02-.86,4.21-9.74,3.22,1.42-3.58,1.08-11.49-.59-13.68,8.35-.94,9.38-.69,9.74,2.78-1.66-1.99-3.6-3.16-5.63-1.96-1.54.91-1.01,3.1-.64,4.48.68,2.55,3.18.35,4.93,1.74-1.79,1.09-6.26-1.58-5.1,3.43.24,1.03-.23,2.41,1.29,2.67,2.27.4,4.29-.05,5.74-2.69Z"/>
  <path d="m148.59,568.68c.45-4.79,1.26-9.37-.5-13.87,9.02-.68,9.05-.67,9.19,2.92-1.45-2.15-3.27-2.96-5.41-2.15-1.39.53-1.29,5.32.06,5.73,1.26.38,2.76-.39,4.06.64-1.57,1.38-4.15-1.56-4.89,1.37-.35,1.39-.92,3.71.66,4.44,2.13.99,4.53.77,5.98-2.28q.21,3.82-9.15,3.19Z"/>
  <path d="m247.41,562c-1.52,1.3-4.14-1.63-4.81,1.4-.31,1.4-.92,3.64.73,4.41,2.2,1.03,4.47.45,6.03-2.09q-.02,3.37-9.45,2.99c1.04-2.25.75-4.62.62-6.93-.13-2.33,1.05-5-1.3-6.89,8.48-.9,9.35-.68,9.56,2.75-1.47-2.11-3.37-3.04-5.39-2.04-1.71.84-1.06,2.96-.82,4.39.49,2.97,3.33.38,4.82,2Z"/>
  <path d="m83.99,568.75h-4.73c1.96-2.46,1.8-16.12-.3-18.48h5.14c-2.14,2.67-2.22,15.9-.12,18.48Z"/>
  <path d="m114.86,554.63c-2.78,2.41-3.81,4.94-2.98,8.06.84,3.16,2.82,4.76,6.01,4.74,1.21,0,2.51.11,2.87-1.52.33-1.5.34-2.92-1.98-3.4,1.79-.48,3.07-.41,4.37-.16-1.42,5.94-1.45,5.96-6.43,5.76-3.82-.16-6.61-2.55-7.08-6.07-.46-3.48,1.05-5.85,5.22-7.41Z"/>
  <path d="m345.64,554.77h3.82c-1.95,4.01-1.35,8.4-.57,12.43.36,1.88,3.51,1.15,5.39.35.69-.29,1.19-1.07,1.9-1.73q-.32,3.52-10.21,2.86c.68-4.64,1.15-9.27-.32-13.9Z"/>
  <path d="m377.56,565.03c1.56,1.6,2.78,3.72,5.33,2.95.85-.26,1.48-1.02,1.47-1.93,0-2.84-2.45-3.37-4.2-4.54-2-1.34-3.52-2.87-1.74-5.41,1.24-1.78,5.01-2.01,6.56-.51.49.48.35,1.12.08,1.77-1.63-.89-3.45-3.67-5.08-1.11-1.89,2.97,1.26,3.89,3.12,5,1.86,1.11,3.7,2.29,2.81,4.87-.88,2.53-3.13,2.86-5.38,2.67-2.01-.17-3.45-1.04-2.98-3.76Z"/>
  <path d="m187.73,568c3.82-6.62,2.17-11.46-3.93-12.95,3.54-.61,6.13.65,7.45,3.65,1.44,3.27.47,6.16-3.52,9.3Z"/>
  <path d="m298.16,567.42c2.45-7.32.93-10.98-4.67-12.29,3.25-.67,5.83.43,7.13,3.28,1.53,3.36.77,6.26-2.46,9.01Z"/>
  <path d="m169.48,568.72c1.86-4.44-.53-5.54-2.73-6.86-3.65-2.18-3.94-3.5-1.03-7.02-1.14,4.12,1.17,5.29,3.59,6.63,3.43,1.89,3.61,3.71.16,7.25Z"/>
  <path d="m199.46,555.35c-1.3,3.86,1.41,4.76,3.7,6.09,3.42,1.98,3.64,3.68.33,7.17,1.88-4.42-.82-5.51-3.14-6.93-3.37-2.06-3.61-3.33-.89-6.34Z"/>
  <path d="m180.25,556.32c-1.9,7.55-.48,10.85,5.1,12.05-3.41.69-6.18-.52-7.37-3.53-1.3-3.3-.85-6.27,2.27-8.52Z"/>
  <path d="m289.9,556.19c-2.17,7.34-.68,10.76,5.2,12.41-3.57.7-6.14-.71-7.53-3.81-1.39-3.1-.86-6.06,2.34-8.6Z"/>
  <path d="m275.83,555.42c-1.22,3.64,1.25,4.65,3.5,5.94,3.58,2.06,3.85,3.47.89,7.07,1.35-4.13-1.05-5.34-3.39-6.72-3.44-2.04-3.67-3.3-1-6.28Z"/>
  <path class="uuid-b13d390f-d18e-4784-8707-f24d2f05632c" d="m158.13,185.78c-3.25-1.37-5.78-2.46-8.34-3.49-1.25-.51-2.16-1-1.19-2.64,2.02-3.42,4.26-6.6,7.54-8.88,1.94-1.35,3.24-1.28,3.89,1.36.32,1.29.61,3.1,2.04,3.24,1.65.16,2.22-1.73,2.77-3.02,1.1-2.55,2.7-3,5.2-2.28,4.86,1.4,9.5,3.39,14.2,5.21,1.39.54,2.56,1.05,2.26,3.13-.3,2.08-1.69,2.13-3.08,2.41-3.61.7-7.23,1.38-12.01,2.3,4.92,3.21,8.86,5.87,12.9,8.36,1.65,1.02,2.7,2.22,3.17,4.19,4,16.77,9.28,33.14,14.49,49.52.94,2.96.26,3.52-2.55,3.51-20.04-.1-40.08-.12-60.12,0-3.3.02-3.37-1.06-1.99-3.53,4.73-8.43,6.23-17.52,5.52-27.2-.39-5.32.03-10.7-.11-16.05-.06-2.37.74-3.94,2.52-5.36,4.17-3.32,8.2-6.82,12.9-10.77Zm24.94,32.07c.07-9.59-7.04-17.37-16.04-17.55-8.98-.18-16.78,7.64-16.8,16.81-.01,9.57,7.18,17.2,16.28,17.26,9.09.06,16.48-7.32,16.55-16.52Z"/>
  <path d="m234.73,210.54c0,23.14,0,46.29,0,69.43,0,1.12,0,2.24-.08,3.36-.06.81-.52,1.37-1.36,1.45-1.03.11-1.62-.43-1.73-1.43-.12-1.11-.15-2.23-.15-3.35.08-46.79.17-93.57.27-140.36,0-.87.02-1.74.08-2.61.06-.85.58-1.39,1.34-1.51,1.04-.17,1.58.57,1.7,1.5.16,1.23.18,2.48.19,3.72,0,23.27,0,46.54,0,69.81h-.25Z"/>
  <path class="uuid-07c817b3-f8cb-4fe7-aa19-1fac3dab8291" d="m313.87,236.84c-1.2,0-2.4,0-3.6,0-5.52,0-11.05,0-17.46,0,3-.81,5.65-.29,7.05-2.62,1.26-2.09,1.1-4.53,1.1-6.9,0-14.2.01-28.39,0-42.59-.01-6.66-.92-7.69-7.23-8.84h21.19c-3.05.78-5.5.47-7,2.49-1.51,2.02-1.27,4.46-1.27,6.82,0,14.32-.01,28.64,0,42.97,0,6.77.77,7.63,7.23,8.67Z"/>
  <path class="uuid-b13d390f-d18e-4784-8707-f24d2f05632c" d="m170.15,210.24c-.95,0-2.39-.69-2.48,1.04-.09,1.7-1.02,3.79,1.24,4.92.96.48,1.99.9,2.83,1.56,2.21,1.75,2.34,4.97.77,7.27-1.32,1.92-4.26,1.11-5.07,3.61-1.56-1.37-3.53-1.38-5.38-1.85-.82-.21-.92-1.05-.81-1.84.22-1.49,1.13-.7,1.88-.67,1.16.05,2.91,1.16,3.22-.89.27-1.77,1.04-4.08-1.51-5.11-2.37-.96-4.33-2.34-4.23-5.31.1-2.85,2.35-3.75,4.22-5.34,2.76-2.34,4.49.38,6.67.37,1.02,0,.93.9.7,1.65-.37,1.22-1.19.94-2.06.6Z"/>
</svg>