<?xml version="1.0" encoding="UTF-8"?>
<svg id="uuid-04e966aa-01e7-4ba4-b371-940d5a5dc482" data-name="Capa 1" xmlns="http://www.w3.org/2000/svg" viewBox="0 0 71.27 71.68">
  <path d="m71.27,26.8c-1.88,1.76-3.69,1.49-5.7.05-8.53-6.13-17.13-12.17-25.68-18.27-4.5-3.21-4.57-3.24-9.12.06-8.36,6.06-16.74,12.1-25.08,18.21-1.98,1.45-3.81,1.73-5.69-.05v-3.35C10.8,15.55,21.51,7.51,32.6,0h5.52c11.07,7.79,22.31,15.33,33.15,23.45v3.35Z"/>
  <path d="m5.34,50.47c0-4.09.03-8.18-.01-12.27-.03-3.03,1.17-5.43,3.55-7.18,7.06-5.2,14.14-10.38,21.26-15.5,3.46-2.49,7.07-2.4,10.54.05,7.01,4.94,13.98,9.94,20.99,14.88,2.96,2.08,4.35,4.81,4.29,8.51-.11,7.81-.01,15.62-.04,23.43-.02,5.8-3.37,9.24-9.03,9.29-4.97.04-9.93.03-14.9,0-3.22-.02-4.02-.88-4.06-4.2-.03-2.88,0-5.76-.01-8.65,0-1.82-.45-3.62-2.52-3.66-2.08-.04-2.59,1.73-2.6,3.57-.01,3.07-.04,6.14,0,9.2.02,2.55-1.19,3.75-3.71,3.74-5.15-.02-10.3.07-15.45-.03-4.69-.09-8.16-3.6-8.26-8.34-.09-4.27-.02-8.55-.02-12.83Zm54.67.09c0-3.63,0-7.25,0-10.88,0-1.53-.19-3.03-1.62-3.92-7.12-4.46-13.64-9.79-20.48-14.65-1.75-1.24-3.19-1.39-4.97-.07-6.44,4.79-12.95,9.5-19.46,14.2-1.28.93-2.18,2.02-2.18,3.65-.02,7.81-.04,15.62,0,23.43.01,2.11,1.19,3.29,3.29,3.32,3.4.05,6.81,0,10.21.04,1.55.02,2.14-.66,2.1-2.19-.06-2.14-.07-4.28.02-6.41.19-4.68,3.83-8.13,8.47-8.12,4.63,0,8.24,3.47,8.43,8.17.08,2.04.1,4.09,0,6.13-.09,1.83.65,2.48,2.43,2.44,3.31-.09,6.62.02,9.93-.05,2.81-.06,3.77-1.04,3.82-3.93.06-3.72.01-7.44.02-11.16Z"/>
</svg>