<?xml version="1.0" encoding="UTF-8"?>
<svg id="uuid-c9dd8654-9932-4d2c-a3d1-26b89f4a9264" data-name="Capa 1" xmlns="http://www.w3.org/2000/svg" viewBox="0 0 71.27 71.68">
  <defs>
    <style>
      .uuid-7b17df31-e270-45c8-b0ee-2e391d4c5663 {
        fill: #94adae;
      }

      .uuid-93ef2a33-c185-4814-aaa2-f6811ba507b9 {
        fill: #114b6c;
      }

      .uuid-634f31df-ce0e-47ac-9857-a0600b1d173f {
        fill: #a3195b;
      }

      .uuid-9e9d2eb7-92e1-412f-8148-c11a4abd3ff8 {
        fill: #ca9e67;
      }
    </style>
  </defs>
  <path class="uuid-634f31df-ce0e-47ac-9857-a0600b1d173f" d="m39.74,53.63c-.03-.8,11.75,4.35,15.38,10.13,3.63,5.78-14.6,10.69-15.38-10.13Z"/>
  <path class="uuid-634f31df-ce0e-47ac-9857-a0600b1d173f" d="m29.49,53.63c.03-.8-11.75,4.35-15.38,10.13s14.6,10.69,15.38-10.13Z"/>
  <g>
    <path d="m71.27,26.8c-1.88,1.76-3.69,1.49-5.7.05-8.53-6.13-17.13-12.17-25.68-18.27-4.5-3.21-4.57-3.24-9.12.06-8.36,6.06-16.74,12.1-25.08,18.21-1.98,1.45-3.81,1.73-5.69-.05v-3.35C10.8,15.55,21.51,7.51,32.6,0h5.52c11.07,7.79,22.31,15.33,33.15,23.45v3.35Z"/>
    <path d="m4.37,50.47c0-4.09.03-8.18-.01-12.27-.03-3.03,1.17-5.43,3.55-7.18,7.06-5.2,14.14-10.38,21.26-15.5,3.46-2.49,7.07-2.4,10.54.05,7.01,4.94,13.98,9.94,20.99,14.88,2.96,2.08,4.35,4.81,4.29,8.51-.11,7.81-.01,15.62-.04,23.43-.02,5.8-3.37,9.24-9.03,9.29-4.97.04-9.93.03-14.9,0-3.22-.02-4.02-.88-4.06-4.2-.03-2.88,0-5.76-.01-8.65,0-1.82-.45-3.62-2.52-3.66-2.08-.04-2.59,1.73-2.6,3.57-.01,3.07-.04,6.14,0,9.2.02,2.55-1.19,3.75-3.71,3.74-5.15-.02-10.3.07-15.45-.03-4.69-.09-8.16-3.6-8.26-8.34-.09-4.27-.02-8.55-.02-12.83Zm54.67.09c0-3.63,0-7.25,0-10.88,0-1.53-.19-3.03-1.62-3.92-7.12-4.46-13.64-9.79-20.48-14.65-1.75-1.24-3.19-1.39-4.97-.07-6.44,4.79-12.95,9.5-19.46,14.2-1.28.93-2.18,2.02-2.18,3.65,0,.15,0,1.31,0,3.05,0,.66,0,17.72,0,20.38.01,2.11,1.19,3.29,3.29,3.32,3.4.05,6.81,0,10.21.04,1.55.02,2.14-.66,2.1-2.19-.06-2.14-.07-4.28.02-6.41.04-.97.23-1.89.55-2.74,1.21-3.22,4.25-5.39,7.92-5.38,4.63,0,8.24,3.47,8.43,8.17.08,2.04.1,4.09,0,6.13-.09,1.83.65,2.48,2.43,2.44,3.31-.09,6.62.02,9.93-.05,2.81-.06,3.77-1.04,3.82-3.93.06-3.72.01-7.44.02-11.16Z"/>
  </g>
  <path class="uuid-9e9d2eb7-92e1-412f-8148-c11a4abd3ff8" d="m19.7,35.69c.07-.11.49-.61.53-.69.02-.02.17-.22.23-.3.03-.03.07-.06.11-.09.02-.03.05-.07.07-.08,0,0,.04-.05.05-.06,0-.01.02-.02.03-.03.04-.04.07-.08.1-.12-.06.08-.18.23-.18.23.13-.18.26-.36.41-.52.09-.09.18-.18.28-.27.05-.05.12-.09.18-.14,1.15-1.8,12.87-13.31,12.67-13.56,0,0,0,0-.01,0-.54-.01-1.62.54-1.62.54l-10.61,7.76-3.31,2.41s-3.96,2.87-4.03,2.92-1.21.87-1.82,1.32c-.62.44-1.66,1.26-1.99,2.02-.57,1.32-.45,1.82-.45,1.82v5.48s1.76-1.68,1.76-1.68c2.42-2.19,7.51-6.84,7.61-6.95Z"/>
  <path class="uuid-93ef2a33-c185-4814-aaa2-f6811ba507b9" d="m32.27,22.24s.97-.09,3.64,1.74,5.25,3.49,5.25,3.49l9.77,5.63s6.13,3.18,6.62,3.35.74.14.74.14c0,0-.29-.5-.96-.92s-2.82-1.83-2.82-1.83l-16.11-11.71-1.89-1.34s-1.32-.94-2.43-.76-1.84,2.26-1.84,2.26"/>
  <path class="uuid-7b17df31-e270-45c8-b0ee-2e391d4c5663" d="m57.31,28.04S39.25,6,35.35,6.18c-4.51.2-23.96,22.29-23.96,22.29l18.66-13.5c.87-.51,2.53-1.3,4.62-1.19,2.11.11,3.72,1.09,4.4,1.5.22.13.94.64,2.36,1.64.87.61,1.3.92,1.96,1.39,1.55,1.1,6.74,4.65,13.93,9.75Z"/>
</svg>