<?xml version="1.0" encoding="UTF-8" standalone="no"?>
<!DOCTYPE svg PUBLIC "-//W3C//DTD SVG 1.1//EN" "http://www.w3.org/Graphics/SVG/1.1/DTD/svg11.dtd">
<svg xmlns="http://www.w3.org/2000/svg" version="1.1" viewBox="0.00 0.00 512.00 512.00">
<g stroke-width="2.00" fill="none" stroke-linecap="butt">
<path stroke="#484848" vector-effect="non-scaling-stroke" d="
  M 461.97 39.27
  L 397.36 103.63"
/>
<path stroke="#484848" vector-effect="non-scaling-stroke" d="
  M 471.63 49.20
  Q 470.71 51.53 468.99 53.24
  Q 438.77 83.36 408.61 113.54
  Q 408.43 113.73 408.37 113.93
  Q 408.31 114.17 408.31 114.40"
/>
<path stroke="#8f3d3d" vector-effect="non-scaling-stroke" d="
  M 383.31 138.89
  L 380.12 142.05"
/>
<path stroke="#924b4b" vector-effect="non-scaling-stroke" d="
  M 380.12 142.05
  L 341.58 180.59"
/>
<path stroke="#979697" vector-effect="non-scaling-stroke" d="
  M 341.58 180.59
  L 299.52 222.66"
/>
<path stroke="#8f3d3d" vector-effect="non-scaling-stroke" d="
  M 299.52 222.66
  L 293.51 228.67"
/>
<path stroke="#924b4b" vector-effect="non-scaling-stroke" d="
  M 293.51 228.67
  L 259.54 262.63"
/>
<path stroke="#979697" vector-effect="non-scaling-stroke" d="
  M 259.54 262.63
  Q 243.42 278.73 227.40 294.75
  Q 224.18 297.97 221.74 298.54
  C 216.72 299.71 211.57 294.27 213.10 289.27
  Q 213.73 287.20 216.71 284.22
  Q 232.65 268.30 248.65 252.29"
/>
<path stroke="#924b4b" vector-effect="non-scaling-stroke" d="
  M 248.65 252.29
  L 285.31 215.61"
/>
<path stroke="#8f3d3d" vector-effect="non-scaling-stroke" d="
  M 285.31 215.61
  L 288.78 212.15"
/>
<path stroke="#979697" vector-effect="non-scaling-stroke" d="
  M 288.78 212.15
  L 330.93 170.01"
/>
<path stroke="#924b4b" vector-effect="non-scaling-stroke" d="
  M 330.93 170.01
  L 370.33 130.56"
/>
<path stroke="#8f3d3d" vector-effect="non-scaling-stroke" d="
  M 370.33 130.56
  L 372.62 128.33"
/>
<path stroke="#484848" vector-effect="non-scaling-stroke" d="
  M 486.79 53.13
  Q 491.72 61.46 488.92 68.82
  Q 487.57 72.37 481.26 78.69
  Q 454.20 105.81 443.84 116.09
  Q 439.72 120.18 432.68 121.18"
/>
<path stroke="#ec5353" vector-effect="non-scaling-stroke" d="
  M 353.15 112.24
  Q 352.32 113.24 354.92 115.08
  Q 358.77 117.80 370.33 130.56"
/>
<path stroke="#f4acad" vector-effect="non-scaling-stroke" d="
  M 330.93 170.01
  C 304.70 146.77 272.38 132.29 237.57 128.93
  C 141.72 119.69 59.19 195.04 59.31 291.00
  Q 59.36 330.86 78.38 367.06"
/>
<path stroke="#a3907a" vector-effect="non-scaling-stroke" d="
  M 78.38 367.06
  Q 45.68 365.40 22.49 387.23"
/>
<path stroke="#f19e9e" vector-effect="non-scaling-stroke" d="
  M 288.78 212.15
  Q 281.15 205.28 271.72 200.40"
/>
<path stroke="#f4acad" vector-effect="non-scaling-stroke" d="
  M 271.72 200.40
  Q 242.39 184.19 209.49 188.13
  C 133.86 197.19 93.72 282.84 135.33 346.91
  Q 144.01 360.29 156.82 370.72"
/>
<path stroke="#f19e9e" vector-effect="non-scaling-stroke" d="
  M 156.82 370.72
  C 179.95 389.24 208.97 397.39 238.17 392.48
  C 318.11 379.05 352.67 284.43 299.52 222.66"
/>
<path stroke="#f4acad" vector-effect="non-scaling-stroke" d="
  M 341.58 180.59
  Q 386.04 230.44 384.16 296.56
  C 382.86 342.24 361.16 385.93 326.23 415.08
  C 275.29 457.61 204.61 465.23 145.40 434.19"
/>
<path stroke="#81cfb3" vector-effect="non-scaling-stroke" d="
  M 145.40 434.19
  Q 141.60 396.62 109.73 376.78
  Q 106.94 375.04 103.33 373.71"
/>
<path stroke="#a8dbc5" vector-effect="non-scaling-stroke" d="
  M 103.33 373.71
  Q 91.83 368.26 78.38 367.06"
/>
<path stroke="#797659" vector-effect="non-scaling-stroke" d="
  M 125.20 489.99
  L 128.42 486.30"
/>
<path stroke="#ec5353" vector-effect="non-scaling-stroke" d="
  M 128.42 486.30
  C 226.17 521.84 332.31 486.83 390.16 401.36
  C 409.25 373.15 422.24 337.87 425.75 303.11
  Q 434.77 213.82 380.12 142.05"
/>
<path stroke="#7c8467" vector-effect="non-scaling-stroke" d="
  M 128.42 486.30
  Q 146.89 463.70 145.40 434.19"
/>
<path stroke="#ec5353" vector-effect="non-scaling-stroke" d="
  M 271.72 200.40
  L 285.31 215.61"
/>
<path stroke="#f4acad" vector-effect="non-scaling-stroke" d="
  M 248.65 252.29
  Q 245.82 249.96 242.50 248.51
  Q 220.41 238.89 200.82 248.79
  C 166.18 266.29 166.66 315.18 200.82 332.71
  Q 210.20 337.53 221.05 337.61
  C 260.24 337.89 282.02 294.24 259.54 262.63"
/>
<path stroke="#ec5353" vector-effect="non-scaling-stroke" d="
  M 293.51 228.67
  C 333.69 306.00 270.25 392.71 184.79 379.38
  Q 174.44 377.76 156.82 370.72"
/>
<path stroke="#30b380" vector-effect="non-scaling-stroke" d="
  M 103.33 373.71
  Q 129.09 396.72 128.96 429.50
  C 128.81 469.48 96.00 501.80 56.00 501.72
  Q 42.63 501.70 27.69 496.21"
/>
<path stroke="#a8dbc5" vector-effect="non-scaling-stroke" d="
  M 65.85 437.46
  Q 63.99 438.37 62.61 436.89
  C 56.87 430.70 52.08 422.96 42.07 424.60
  C 31.56 426.32 27.24 440.09 34.44 447.78
  Q 40.55 454.30 46.49 460.97
  Q 54.02 469.42 57.34 471.12
  C 64.93 475.00 72.45 472.01 78.05 465.99
  Q 92.60 450.35 107.04 434.60
  C 109.19 432.25 112.46 429.20 113.81 426.25
  C 119.01 414.87 107.59 402.40 95.80 407.40
  Q 92.77 408.68 89.04 412.67
  Q 77.80 424.69 66.79 436.76
  A 3.10 3.04 7.7 0 1 65.85 437.46"
/>
</g>
<path fill="#5a5a5a" d="
  M 438.13 0.00
  L 441.70 0.00
  Q 451.89 1.77 454.74 10.75
  Q 457.52 19.54 461.97 39.27
  L 397.36 103.63
  Q 391.56 82.89 385.97 62.46
  C 384.09 55.59 383.91 49.75 388.82 44.82
  Q 409.62 24.00 430.45 3.22
  Q 432.60 1.08 438.13 0.00
  Z"
/>
<path fill="#353535" d="
  M 461.97 39.27
  Q 472.76 40.21 471.63 49.20
  Q 470.71 51.53 468.99 53.24
  Q 438.77 83.36 408.61 113.54
  Q 408.43 113.73 408.37 113.93
  Q 408.31 114.17 408.31 114.40
  L 383.31 138.89
  L 380.12 142.05
  L 341.58 180.59
  L 299.52 222.66
  L 293.51 228.67
  L 259.54 262.63
  Q 243.42 278.73 227.40 294.75
  Q 224.18 297.97 221.74 298.54
  C 216.72 299.71 211.57 294.27 213.10 289.27
  Q 213.73 287.20 216.71 284.22
  Q 232.65 268.30 248.65 252.29
  L 285.31 215.61
  L 288.78 212.15
  L 330.93 170.01
  L 370.33 130.56
  L 372.62 128.33
  L 397.36 103.63
  L 461.97 39.27
  Z"
/>
<path fill="#5a5a5a" d="
  M 471.63 49.20
  L 486.79 53.13
  Q 491.72 61.46 488.92 68.82
  Q 487.57 72.37 481.26 78.69
  Q 454.20 105.81 443.84 116.09
  Q 439.72 120.18 432.68 121.18
  L 408.31 114.40
  Q 408.31 114.17 408.37 113.93
  Q 408.43 113.73 408.61 113.54
  Q 438.77 83.36 468.99 53.24
  Q 470.71 51.53 471.63 49.20
  Z"
/>
<path fill="#353535" d="
  M 486.79 53.13
  Q 498.11 55.63 502.06 57.15
  Q 510.83 60.53 512.00 71.17
  L 512.00 72.03
  Q 511.42 78.48 506.96 82.97
  Q 487.52 102.52 468.00 121.99
  Q 461.50 128.47 452.67 126.80
  Q 448.40 126.00 432.68 121.18
  Q 439.72 120.18 443.84 116.09
  Q 454.20 105.81 481.26 78.69
  Q 487.57 72.37 488.92 68.82
  Q 491.72 61.46 486.79 53.13
  Z"
/>
<path fill="#ee6161" d="
  M 353.15 112.24
  Q 352.32 113.24 354.92 115.08
  Q 358.77 117.80 370.33 130.56
  L 330.93 170.01
  C 304.70 146.77 272.38 132.29 237.57 128.93
  C 141.72 119.69 59.19 195.04 59.31 291.00
  Q 59.36 330.86 78.38 367.06
  Q 45.68 365.40 22.49 387.23
  C -13.44 312.27 -5.05 225.51 43.83 158.87
  C 84.37 103.58 150.64 69.59 219.26 69.22
  Q 293.03 68.82 353.15 112.24
  Z"
/>
<path fill="#e94444" d="
  M 353.15 112.24
  Q 363.25 119.61 372.62 128.33
  L 370.33 130.56
  Q 358.77 117.80 354.92 115.08
  Q 352.32 113.24 353.15 112.24
  Z"
/>
<path fill="#f9f7f8" d="
  M 330.93 170.01
  L 288.78 212.15
  Q 281.15 205.28 271.72 200.40
  Q 242.39 184.19 209.49 188.13
  C 133.86 197.19 93.72 282.84 135.33 346.91
  Q 144.01 360.29 156.82 370.72
  C 179.95 389.24 208.97 397.39 238.17 392.48
  C 318.11 379.05 352.67 284.43 299.52 222.66
  L 341.58 180.59
  Q 386.04 230.44 384.16 296.56
  C 382.86 342.24 361.16 385.93 326.23 415.08
  C 275.29 457.61 204.61 465.23 145.40 434.19
  Q 141.60 396.62 109.73 376.78
  Q 106.94 375.04 103.33 373.71
  Q 91.83 368.26 78.38 367.06
  Q 59.36 330.86 59.31 291.00
  C 59.19 195.04 141.72 119.69 237.57 128.93
  C 272.38 132.29 304.70 146.77 330.93 170.01
  Z"
/>
<path fill="#e94444" d="
  M 383.31 138.89
  C 421.17 179.96 442.79 232.10 443.28 287.99
  C 444.25 398.57 365.01 491.86 256.00 509.53
  Q 250.80 510.38 233.87 512.00
  L 209.50 512.00
  Q 204.75 511.41 200.00 510.97
  Q 160.96 507.30 125.20 489.99
  L 128.42 486.30
  C 226.17 521.84 332.31 486.83 390.16 401.36
  C 409.25 373.15 422.24 337.87 425.75 303.11
  Q 434.77 213.82 380.12 142.05
  L 383.31 138.89
  Z"
/>
<path fill="#ee6161" d="
  M 380.12 142.05
  Q 434.77 213.82 425.75 303.11
  C 422.24 337.87 409.25 373.15 390.16 401.36
  C 332.31 486.83 226.17 521.84 128.42 486.30
  Q 146.89 463.70 145.40 434.19
  C 204.61 465.23 275.29 457.61 326.23 415.08
  C 361.16 385.93 382.86 342.24 384.16 296.56
  Q 386.04 230.44 341.58 180.59
  L 380.12 142.05
  Z"
/>
<path fill="#ee6161" d="
  M 271.72 200.40
  L 285.31 215.61
  L 248.65 252.29
  Q 245.82 249.96 242.50 248.51
  Q 220.41 238.89 200.82 248.79
  C 166.18 266.29 166.66 315.18 200.82 332.71
  Q 210.20 337.53 221.05 337.61
  C 260.24 337.89 282.02 294.24 259.54 262.63
  L 293.51 228.67
  C 333.69 306.00 270.25 392.71 184.79 379.38
  Q 174.44 377.76 156.82 370.72
  Q 144.01 360.29 135.33 346.91
  C 93.72 282.84 133.86 197.19 209.49 188.13
  Q 242.39 184.19 271.72 200.40
  Z"
/>
<path fill="#e94444" d="
  M 271.72 200.40
  Q 281.15 205.28 288.78 212.15
  L 285.31 215.61
  L 271.72 200.40
  Z"
/>
<path fill="#e94444" d="
  M 299.52 222.66
  C 352.67 284.43 318.11 379.05 238.17 392.48
  C 208.97 397.39 179.95 389.24 156.82 370.72
  Q 174.44 377.76 184.79 379.38
  C 270.25 392.71 333.69 306.00 293.51 228.67
  L 299.52 222.66
  Z"
/>
<path fill="#f9f7f8" d="
  M 248.65 252.29
  Q 232.65 268.30 216.71 284.22
  Q 213.73 287.20 213.10 289.27
  C 211.57 294.27 216.72 299.71 221.74 298.54
  Q 224.18 297.97 227.40 294.75
  Q 243.42 278.73 259.54 262.63
  C 282.02 294.24 260.24 337.89 221.05 337.61
  Q 210.20 337.53 200.82 332.71
  C 166.66 315.18 166.18 266.29 200.82 248.79
  Q 220.41 238.89 242.50 248.51
  Q 245.82 249.96 248.65 252.29
  Z"
/>
<path fill="#57be92" d="
  M 78.38 367.06
  Q 91.83 368.26 103.33 373.71
  Q 129.09 396.72 128.96 429.50
  C 128.81 469.48 96.00 501.80 56.00 501.72
  Q 42.63 501.70 27.69 496.21
  C -6.75 468.11 -8.86 418.62 22.49 387.23
  Q 45.68 365.40 78.38 367.06
  Z
  M 65.85 437.46
  Q 63.99 438.37 62.61 436.89
  C 56.87 430.70 52.08 422.96 42.07 424.60
  C 31.56 426.32 27.24 440.09 34.44 447.78
  Q 40.55 454.30 46.49 460.97
  Q 54.02 469.42 57.34 471.12
  C 64.93 475.00 72.45 472.01 78.05 465.99
  Q 92.60 450.35 107.04 434.60
  C 109.19 432.25 112.46 429.20 113.81 426.25
  C 119.01 414.87 107.59 402.40 95.80 407.40
  Q 92.77 408.68 89.04 412.67
  Q 77.80 424.69 66.79 436.76
  A 3.10 3.04 7.7 0 1 65.85 437.46
  Z"
/>
<path fill="#09a76d" d="
  M 103.33 373.71
  Q 106.94 375.04 109.73 376.78
  Q 141.60 396.62 145.40 434.19
  Q 146.89 463.70 128.42 486.30
  L 125.20 489.99
  Q 106.61 508.67 79.87 512.00
  L 65.87 512.00
  Q 44.08 509.49 27.69 496.21
  Q 42.63 501.70 56.00 501.72
  C 96.00 501.80 128.81 469.48 128.96 429.50
  Q 129.09 396.72 103.33 373.71
  Z"
/>
<path fill="#f9f7f8" d="
  M 65.85 437.46
  A 3.10 3.04 7.7 0 0 66.79 436.76
  Q 77.80 424.69 89.04 412.67
  Q 92.77 408.68 95.80 407.40
  C 107.59 402.40 119.01 414.87 113.81 426.25
  C 112.46 429.20 109.19 432.25 107.04 434.60
  Q 92.60 450.35 78.05 465.99
  C 72.45 472.01 64.93 475.00 57.34 471.12
  Q 54.02 469.42 46.49 460.97
  Q 40.55 454.30 34.44 447.78
  C 27.24 440.09 31.56 426.32 42.07 424.60
  C 52.08 422.96 56.87 430.70 62.61 436.89
  Q 63.99 438.37 65.85 437.46
  Z"
/>
</svg>
