<?xml version="1.0" encoding="UTF-8"?>
<svg id="uuid-e82c1b63-ac7c-42d7-a97b-3c1826f03837" data-name="Capa 1" xmlns="http://www.w3.org/2000/svg" viewBox="0 0 389.68 387.8">
  <defs>
    <style>
      .uuid-debbd06a-4ed7-4350-a27e-24a637c9e0f6 {
        fill: #fff;
        stroke: #1d1d1b;
        stroke-miterlimit: 10;
        stroke-width: 3px;
      }

      .uuid-8c3e7715-851a-41a6-89c8-d0397456a2f6 {
        fill: #5f83a2;
      }

      .uuid-b5b1c0cd-1280-4355-add5-8031196883fb {
        fill: #cde1f5;
      }

      .uuid-af5a797f-c0b7-4ac4-bada-5479c873955a {
        fill: #f9cabf;
      }

      .uuid-d0dbd896-e465-41ee-9381-d55fa561b771 {
        fill: #e38087;
      }

      .uuid-b451a1fd-2ffe-4279-8786-169bb795d149 {
        fill: #e4f3fb;
      }

      .uuid-15d14e9f-6779-4056-a1d8-0a8bdb073534 {
        fill: #2c4e67;
      }

      .uuid-acdca12a-c63d-40f0-b599-e90d7c1c25b4 {
        fill: #de656f;
      }

      .uuid-2ddc9f96-2411-4965-97a6-1841b64511c3 {
        fill: #417194;
      }

      .uuid-98d0d483-e111-4bb8-a393-148248edff81 {
        fill: #bdb2b3;
      }

      .uuid-71a42e2c-241f-4a4b-9d87-fc2c3f5a8f66 {
        fill: #c0d7f1;
      }

      .uuid-46e0b6be-2905-4862-9683-27c710cf8032 {
        fill: #375f7e;
      }

      .uuid-73278010-cc2d-4a0c-949a-c64a0c47b5c2 {
        fill: #f4f8fc;
      }

      .uuid-67f44c6b-c232-4d2b-9633-da8b40f6be9f {
        fill: #4a80aa;
      }

      .uuid-9dbeb6a2-3e5a-4734-b7d1-2c5d5c87dd61 {
        fill: #fcdccf;
      }
    </style>
  </defs>
  <ellipse class="uuid-debbd06a-4ed7-4350-a27e-24a637c9e0f6" cx="194.84" cy="193.9" rx="193.34" ry="192.4"/>
  <path class="uuid-71a42e2c-241f-4a4b-9d87-fc2c3f5a8f66" d="m175.83,3.91c1.72-.36,3.65.6,5.22-.8,8.73,0,17.46,0,26.19,0,.55.23,1.09.65,1.65.68,13.34.55,26.32,3.1,39.13,6.73,28.26,8.01,53.28,21.92,75.05,41.54,19.92,17.96,35.68,39.07,46.71,63.63,7.22,16.07,12.23,32.76,14.89,50.2.78,5.1.69,10.32,2.15,15.32v25.44c-1.61,3.48-.91,7.29-1.34,10.91-3.24,27.29-12.1,52.6-26.24,76.07-6.99,11.6-14.81,22.62-24.66,32.05-.55-6.16-.03-12.33-.72-18.53-1.28-11.49-6.32-20.65-15.11-27.92-.04-.19-.07-.37-.08-.56,1.56-3.39,3.18-6.76,4.66-10.18,9.27-21.3,13.61-43.73,14.8-66.8.63-12.17-.4-24.31-2.21-36.37-2.24-14.91-6.2-29.38-12.03-43.27-6.76-16.11-15.25-31.25-26.15-45.01-9-11.36-19.1-21.64-30.16-30.92-12.64-10.61-26.77-18.95-41.75-25.82-14.74-6.76-30.05-11.71-46.11-14.22-1.48-.23-3.35-.06-3.89-2.15Z"/>
  <path class="uuid-b5b1c0cd-1280-4355-add5-8031196883fb" d="m175.83,3.91c.53,2.08,2.41,1.91,3.89,2.15,16.06,2.52,31.37,7.47,46.11,14.22,14.98,6.87,29.11,15.21,41.75,25.82,11.06,9.29,21.17,19.56,30.16,30.92,10.89,13.76,19.38,28.9,26.15,45.01,5.83,13.89,9.79,28.36,12.03,43.27,1.81,12.05,2.84,24.19,2.21,36.37-1.19,23.07-5.53,45.5-14.8,66.8-1.49,3.42-3.11,6.79-4.66,10.18-3.91-2.4-7.65-5.12-12.09-6.55-9.05-2.9-18.11-5.79-27.18-8.63-4.1-1.28-8.24-2.42-12.36-3.62l-.03-.02c-.24-.18-.48-.36-.72-.55-.5-.37-.96-.82-1.5-1.09-11.73-5.83-23.47-11.64-35.2-17.46-.71-.35-1.38-.54-2.13-.23-.06-7.56-.13-15.12-.19-22.69.25-1.27,1.38-1.73,2.28-2.34,8.55-5.79,14.83-13.5,19.43-22.68,3.39-6.75,4.98-13.99,5.98-21.39.31-2.29,1.27-3.41,3.72-3.8,5.53-.88,8.37-4.48,8.43-10.07.04-4.61.07-9.22.11-13.83,0-.49,0-2.11,0-2.6,0-.48,0-2.1,0-2.57-.05-.23-.11-.47-.16-.7.08-.27.15-.54.23-.81,0-.84,0-1.67,0-2.51,0-1.25-.02-24.71-.02-24.88,0-.47,0-8.06,0-8.5,0-.03,0-2.23,0-2.26-.82-10.15-7.67-16.86-17.6-17.24-4.51-.17-7.12-3.04-7.21-8-.09-5.06-2.5-8.91-6.31-11.94-5.19-4.14-11.37-4.09-17.56-3.84-.29.03-.58.06-.87.09-18.68.05-37.36.09-56.04.14-.43-.26-.65.02-.86.33-5.63.13-10.91,1.6-15.82,4.33-12.1,6.74-20.13,16.97-21.23,30.64-1.19,14.69-.25,29.56-.24,44.35,0,.27-.02.55-.03.82-.03.25-.07.5-.1.74,0,.49,0,1.81,0,2.29,0,.42,0,1.7,0,2.12.03,4.86,0,9.73.1,14.59.08,3.64,1.61,7.38,5.06,7.93,6.52,1.04,8.14,4.82,8.05,10.47-.02,1.1.3,2.21.57,3.29,3.53,14.13,10.76,25.84,22.72,34.39,2.25,1.61,3.48,3.36,3.35,6.42-.28,6.47-.04,12.96-.01,19.45-.29.01-.58.03-.87.04-.97-.28-1.66.41-2.4.77-9.42,4.66-18.79,9.41-28.23,14.03-2.85,1.39-5.92,2.34-8.18,4.73-14.94,4.31-30.31,7.75-44.26,14.54-15.19,7.38-22.93,20.64-23.17,37.84-.06,4.47-.09,8.94-.14,13.41-10.2-9.81-18.22-21.3-25.46-33.35-11.63-19.36-19.42-40.22-23.6-62.38-2.79-14.81-3.98-29.82-3.09-44.85,2.37-40.02,15.55-76.22,40.18-107.89,17.54-22.56,39.1-40.64,64.75-53.45,18.42-9.2,37.75-15.81,58.31-18.42,2.94-.37,5.86-.92,8.79-1.38Z"/>
  <path class="uuid-67f44c6b-c232-4d2b-9633-da8b40f6be9f" d="m55.96,325.64c.05-4.47.08-8.94.14-13.41.24-17.2,7.98-30.45,23.17-37.84,13.95-6.78,29.32-10.23,44.26-14.54-.43,2.82.19,5.37,1.59,7.88,1.83,3.26,3.41,6.65,5.08,9.99,3.2,6.39,2.77,8.73-2.29,13.89-1.64,1.68-3.51,3.14-4.7,5.28-2.42,4.36-.52,8.25,1.27,12.05,8.77,18.61,22.31,33.74,36,48.69,7.82,8.54,16.19,16.57,24.31,24.83-3.5.51-6.99,1.04-10.49,1.51-.86.12-1.35.49-1.46,1.35-8.58-1.4-17.13-2.96-25.56-5.09-19.86-5.02-38.25-13.39-55.5-24.37-12.18-7.75-23.11-17.03-33.51-26.98-.96-.92-2.23-1.67-2.32-3.24Z"/>
  <path class="uuid-2ddc9f96-2411-4965-97a6-1841b64511c3" d="m318.74,279.2c8.79,7.27,13.83,16.43,15.11,27.92.69,6.2.18,12.37.72,18.53-16.09,17.73-35.18,31.37-56.69,41.75-16.91,8.16-34.65,13.61-53.17,16.53-7.28,1.15-14.55,2.51-21.98,2.12,3.61-5.53,8.79-9.56,13.46-14.08,3.17,1.57,5.39-1.09,7.72-2.12,33.98-14.98,61.06-38.28,82.02-68.82,4.78-6.97,8.61-14.51,12.81-21.83Z"/>
  <path class="uuid-46e0b6be-2905-4862-9683-27c710cf8032" d="m216.18,371.97c-4.67,4.52-9.85,8.55-13.46,14.08-1.48.01-2.96.02-4.44.04.77-2.54,2.82-4.56,3.01-7.34l-.03.02c.14-.24.29-.48.43-.71,5.54-9.52,9.53-19.74,13.59-29.92,5.14-12.96,9.79-26.09,13.15-39.62,1.84-7.43,4-14.83,4.14-22.59,1.44-4,.89-8.25,1.56-12.36.8-4.95-.27-9.9-.83-14.77-.72-6.25-1.96-12.56-5.84-17.88.01-.14,0-.28-.02-.42.75-.31,1.42-.12,2.13.23,11.73,5.83,23.47,11.63,35.2,17.46.55.27,1,.72,1.5,1.09.24.18.48.36.72.55,0,0,.03.02.03.02.44,2.96-.34,5.6-1.79,8.19-1.76,3.14-3.29,6.42-4.9,9.64-3.2,6.41-2.81,8.82,2.22,13.87,7.03,7.05,7.41,9.36,3.05,18.36-7.44,15.36-18.34,28.23-29.39,41.02-6.35,7.34-13.52,13.88-20.03,21.06Z"/>
  <path class="uuid-46e0b6be-2905-4862-9683-27c710cf8032" d="m184.79,382.47c-8.12-8.26-16.49-16.29-24.31-24.83-13.69-14.96-27.23-30.09-36-48.69-1.79-3.81-3.69-7.7-1.27-12.05,1.19-2.14,3.06-3.6,4.7-5.28,5.06-5.16,5.48-7.5,2.29-13.89-1.67-3.34-3.26-6.74-5.08-9.99-1.4-2.5-2.02-5.06-1.59-7.88,2.25-2.4,5.33-3.34,8.18-4.73,9.44-4.62,18.81-9.37,28.23-14.03.73-.36,1.43-1.05,2.4-.77-1.22,3.04-2.65,6.02-3.62,9.13-3.31,10.56-2.26,21.47-2.29,32.28,0,.66.54,1.32.82,1.98.11,6.29,1.69,12.35,3.02,18.43,3.46,15.83,8.87,31.03,14.99,46,4.34,11.22,9.12,22.24,14.83,32.83.73,1.71,1.47,3.41,2.2,5.12-1.25-.01-2.49-.03-3.74-.04-1.07-1.38-2.21-2.69-3.74-3.59Z"/>
  <path class="uuid-acdca12a-c63d-40f0-b599-e90d7c1c25b4" d="m192.27,386.09c-.73-1.71-1.47-3.41-2.2-5.12,3.92.16,7.31-2.36,11.23-2.22-.19,2.78-2.24,4.8-3.01,7.34-2,0-4.01,0-6.01,0Z"/>
  <path class="uuid-2ddc9f96-2411-4965-97a6-1841b64511c3" d="m184.79,382.47c1.53.9,2.67,2.2,3.74,3.59-5.28.87-10.44-.88-15.69-.72.11-.86.6-1.23,1.46-1.35,3.5-.48,7-1.01,10.49-1.51Z"/>
  <path class="uuid-67f44c6b-c232-4d2b-9633-da8b40f6be9f" d="m216.18,371.97c6.5-7.18,13.68-13.72,20.03-21.06,11.05-12.79,21.95-25.65,29.39-41.02,4.36-9,3.98-11.3-3.05-18.36-5.03-5.05-5.42-7.46-2.22-13.87,1.61-3.23,3.14-6.5,4.9-9.64,1.45-2.59,2.22-5.24,1.79-8.19,4.12,1.2,8.26,2.34,12.36,3.62,9.07,2.84,18.13,5.73,27.18,8.63,4.43,1.42,8.17,4.15,12.09,6.55.01.19.04.38.08.56-4.2,7.32-8.02,14.86-12.81,21.83-20.96,30.54-48.04,53.84-82.02,68.82-2.34,1.03-4.55,3.7-7.72,2.12Z"/>
  <path class="uuid-9dbeb6a2-3e5a-4734-b7d1-2c5d5c87dd61" d="m227.45,240.49c.02.14.03.28.02.42-2.4.54-3.58,2.57-5.01,4.23-7.96,9.32-15.84,18.69-23.79,28.01-.97,1.14-2.18,2.09-1.94,3.81-.49-.03-.99-.05-1.48-.08-.51-2.28-2.17-3.8-3.64-5.45-3.12-3.5-6.05-7.17-9.32-10.52-6.55-6.72-12.04-14.41-19.1-20.64-.03-6.48-.27-12.98.01-19.45.13-3.06-1.1-4.81-3.35-6.42-11.97-8.55-19.19-20.26-22.72-34.39-.27-1.08-.59-2.2-.57-3.29.09-5.65-1.53-9.43-8.05-10.47-3.45-.55-4.98-4.28-5.06-7.93-.11-4.86-.07-9.73-.1-14.59,0-1.47,0-2.94,0-4.41.03-.25.07-.5.1-.74.26-.18.52-.35.78-.53,3.98-.04,7.96.04,11.94-.13,6.63-.29,11.17-5.09,11.2-11.68.01-2.11-.13-4.24.03-6.34.68-8.97,7.25-15.84,17.51-12.96,7.98,2.25,16.05,4.16,24.39,4.52.49-.03.97-.06,1.46-.1,3,0,6.01,0,9.01,0,.73.02,1.47.03,2.2.05,5.33-.45,10.61-1.22,15.78-2.63.23.83.69,1.66.67,2.48-.41,23.78,1.2,47.6-.81,71.33-1.01,11.95-6.27,22.36-14.28,31.3-4.01,4.47-8.58,8.33-14.56,12,9.47.58,17.51-.01,25.45-2.65,4.51-1.5,8.31-4.56,13.04-5.42.06,7.56.13,15.12.19,22.69Z"/>
  <path class="uuid-46e0b6be-2905-4862-9683-27c710cf8032" d="m189.29,111.45c-8.34-.36-16.4-2.27-24.39-4.52-10.25-2.89-16.83,3.99-17.51,12.96-.16,2.1-.02,4.23-.03,6.34-.03,6.59-4.57,11.39-11.2,11.68-3.97.17-7.96.1-11.94.13-.25-.1-.5-.19-.76-.29-.01-14.79-.95-29.66.24-44.35,1.11-13.68,9.14-23.9,21.23-30.64,4.91-2.74,10.19-4.2,15.82-4.33.29-.11.57-.22.86-.33,18.68-.05,37.36-.09,56.04-.14.26.16.51.33.77.49,0,15.08,0,30.16.05,45.24,0,1.42-.57,3.02.77,4.23-.27.69-.94.68-1.5.85-5.17,1.42-10.45,2.18-15.78,2.63-.13,0-.84-.02-.97-.02-.2,0-1.03-.02-1.23-.03-3,0-6.01,0-9.01,0-.08,0-.53.03-.61.04-.15,0-.71.05-.86.06Z"/>
  <path class="uuid-af5a797f-c0b7-4ac4-bada-5479c873955a" d="m217.75,108.77c.56-.18,1.23-.16,1.5-.85,1.81.2,3.4-.62,5.07-1.06,11.23-2.96,19.39,4.05,18.11,13.48-.22,1.59-.11,3.24-.02,4.86.43,7.1,5.66,13.21,13.02,12.68,3.85-.28,7.73-.04,11.59-.03.05.23.11.47.16.7,0,1.72.01,3.45.02,5.17-.03,4.61-.06,9.22-.11,13.83-.05,5.59-2.9,9.19-8.43,10.07-2.45.39-3.41,1.5-3.72,3.8-1,7.4-2.59,14.64-5.98,21.39-4.61,9.18-10.88,16.89-19.43,22.68-.89.61-2.02,1.07-2.28,2.34-4.73.86-8.53,3.92-13.04,5.42-7.94,2.64-15.98,3.23-25.45,2.65,5.98-3.67,10.55-7.53,14.56-12,8.01-8.94,13.27-19.34,14.28-31.3,2.01-23.74.4-47.55.81-71.33.01-.82-.44-1.65-.67-2.48Z"/>
  <path class="uuid-15d14e9f-6779-4056-a1d8-0a8bdb073534" d="m267.03,137.84c-3.89,0-7.79-.24-11.66.03-7.4.53-12.66-5.58-13.09-12.68-.1-1.62-.2-3.27.02-4.86,1.29-9.43-6.91-16.44-18.2-13.48-1.68.44-3.28,1.26-5.1,1.06-1.35-1.21-.77-2.81-.78-4.23-.05-15.08-.04-30.16-.05-45.24.05-.19.08-.38.1-.58,6.22-.25,12.44-.3,17.66,3.84,3.82,3.03,6.25,6.89,6.34,11.94.09,4.95,2.72,7.82,7.25,8,9.98.38,16.87,7.1,17.7,17.24.01,12.72.02,25.43.03,38.15-.08.27-.15.54-.23.81Z"/>
  <path class="uuid-73278010-cc2d-4a0c-949a-c64a0c47b5c2" d="m163.19,240.28c7.07,6.23,12.56,13.92,19.1,20.64,3.27,3.35,6.2,7.02,9.32,10.52,1.47,1.65,3.13,3.16,3.64,5.45-3.23,2.74-6.55,5.37-9.66,8.24-2.97,2.74-6.72,4.66-8.91,8.25-5.89,2.98-10.71,1.66-14.62-3.57-1.55-2.08-3.22-4.06-4.84-6.08-.29-.66-.83-1.32-.82-1.98.03-10.81-1.02-21.72,2.29-32.28.98-3.12,2.4-6.09,3.62-9.13.29-.01.58-.03.87-.04Z"/>
  <path class="uuid-8c3e7715-851a-41a6-89c8-d0397456a2f6" d="m161.63,58.09c-.29.11-.57.22-.86.33.2-.32.42-.6.86-.33Z"/>
  <path class="uuid-8c3e7715-851a-41a6-89c8-d0397456a2f6" d="m218.54,57.86c-.02.2-.06.39-.1.58-.26-.16-.51-.33-.77-.49.29-.03.58-.06.87-.09Z"/>
  <path class="uuid-98d0d483-e111-4bb8-a393-148248edff81" d="m123.48,137.76c.25.09.5.19.76.29-.26.18-.52.36-.78.53,0-.27.02-.55.03-.82Z"/>
  <path class="uuid-67f44c6b-c232-4d2b-9633-da8b40f6be9f" d="m267,259.82c-.24-.18-.48-.37-.72-.55.24.18.48.37.72.55Z"/>
  <path class="uuid-d0dbd896-e465-41ee-9381-d55fa561b771" d="m201.29,378.75c-3.92-.14-7.31,2.38-11.23,2.22-5.71-10.6-10.49-21.61-14.83-32.83,2.14-5.92,3.19-12.12,4.71-18.2,2.1-8.4,4.13-16.81,6.2-25.22,6.08,0,12.16,0,18.24,0,2.68,14.71,6.73,29.09,10.91,43.42-4.07,10.18-8.06,20.4-13.59,29.92-.14.24-.29.48-.43.71l.03-.02Z"/>
  <path class="uuid-73278010-cc2d-4a0c-949a-c64a0c47b5c2" d="m196.73,276.97c-.24-1.73.97-2.67,1.94-3.81,7.95-9.32,15.83-18.7,23.79-28.01,1.42-1.66,2.6-3.69,5.01-4.23,3.87,5.32,5.12,11.63,5.84,17.88.56,4.87,1.64,9.83.83,14.77-.67,4.11-.11,8.36-1.56,12.36-2.27.52-3.41,2.31-4.55,4.07-2.38,3.69-5.85,4.79-9.97,4.07-1.43-.25-2.79-.95-4.18-1.44-.52-1.32-1.59-2.17-2.62-3.06-4.84-4.2-9.68-8.4-14.52-12.61Z"/>
  <path class="uuid-b451a1fd-2ffe-4279-8786-169bb795d149" d="m213.87,292.64c1.39.49,2.75,1.19,4.18,1.44,4.12.72,7.59-.38,9.97-4.07,1.14-1.77,2.28-3.55,4.55-4.07-.14,7.76-2.3,15.16-4.14,22.59-3.36,13.54-8.01,26.66-13.15,39.62-4.18-14.34-8.23-28.71-10.91-43.42,3.16-4.03,6.33-8.05,9.49-12.08Z"/>
  <path class="uuid-acdca12a-c63d-40f0-b599-e90d7c1c25b4" d="m201.26,378.77c.14-.24.29-.48.43-.71-.15.24-.29.48-.43.71Z"/>
  <path class="uuid-b451a1fd-2ffe-4279-8786-169bb795d149" d="m186.14,304.72c-2.06,8.41-4.1,16.82-6.2,25.22-1.52,6.08-2.56,12.28-4.71,18.2-6.12-14.96-11.53-30.17-14.99-45.99-1.33-6.08-2.9-12.14-3.02-18.43,1.62,2.03,3.29,4.01,4.84,6.08,3.9,5.24,8.73,6.55,14.62,3.57,3.15,3.78,6.3,7.57,9.45,11.35Z"/>
  <path class="uuid-acdca12a-c63d-40f0-b599-e90d7c1c25b4" d="m186.14,304.72c-3.15-3.78-6.3-7.57-9.45-11.35,2.19-3.59,5.94-5.5,8.91-8.25,3.11-2.87,6.43-5.5,9.66-8.24.49.03.99.05,1.48.08,4.84,4.2,9.68,8.41,14.52,12.61,1.03.89,2.1,1.74,2.62,3.06-3.16,4.03-6.33,8.05-9.49,12.08-6.08,0-12.16,0-18.24,0Z"/>
</svg>