<?xml version="1.0" encoding="UTF-8" standalone="no"?>
<!DOCTYPE svg PUBLIC "-//W3C//DTD SVG 1.1//EN" "http://www.w3.org/Graphics/SVG/1.1/DTD/svg11.dtd">
<svg xmlns="http://www.w3.org/2000/svg" version="1.1" viewBox="0.00 0.00 512.00 512.00">
<g stroke-width="2.00" fill="none" stroke-linecap="butt">
<path stroke="#721a28" vector-effect="non-scaling-stroke" d="
  M 419.28 164.61
  A 13.92 13.92 0.0 0 0 405.36 150.69
  L 106.64 150.69
  A 13.92 13.92 0.0 0 0 92.72 164.61
  L 92.72 347.35
  A 13.92 13.92 0.0 0 0 106.64 361.27
  L 405.36 361.27
  A 13.92 13.92 0.0 0 0 419.28 347.35
  L 419.28 164.61"
/>
<path stroke="#721a28" vector-effect="non-scaling-stroke" d="
  M 339.69 215.14
  Q 339.81 259.18 339.71 303.23
  C 339.71 306.37 340.38 308.71 342.89 310.39
  C 346.49 312.79 351.59 311.46 353.25 307.36
  Q 353.94 305.65 353.94 301.54
  Q 353.94 258.27 353.94 214.93
  A 0.35 0.35 0.0 0 1 354.30 214.58
  Q 366.48 214.62 378.69 214.55
  Q 382.73 214.53 384.59 213.39
  C 388.48 211.00 388.66 204.43 384.89 201.78
  Q 383.06 200.49 379.29 200.47
  Q 346.75 200.29 314.20 200.47
  Q 310.60 200.49 308.75 201.80
  C 304.95 204.47 305.13 211.19 309.37 213.59
  Q 311.04 214.53 314.31 214.54
  Q 326.72 214.58 339.14 214.59
  Q 339.69 214.59 339.69 215.14"
/>
<path stroke="#721a28" vector-effect="non-scaling-stroke" d="
  M 138.51 296.95
  L 138.51 263.75
  Q 138.51 263.14 139.12 263.14
  Q 150.18 263.17 161.25 263.22
  C 168.78 263.24 172.69 253.85 165.77 249.94
  Q 164.00 248.95 160.54 248.95
  Q 149.81 248.98 138.98 248.94
  Q 138.51 248.94 138.51 248.47
  L 138.51 215.03
  Q 138.51 214.57 138.97 214.58
  Q 158.52 214.61 178.08 214.55
  Q 182.21 214.54 184.14 213.25
  C 187.95 210.72 187.90 204.02 183.93 201.57
  Q 182.11 200.44 178.34 200.44
  Q 154.92 200.42 131.50 200.42
  C 125.53 200.42 124.31 204.98 124.30 210.24
  Q 124.24 256.75 124.31 303.25
  C 124.33 310.36 128.08 311.59 134.55 311.59
  Q 156.72 311.59 178.90 311.56
  C 189.77 311.55 189.57 297.47 179.25 297.47
  Q 159.10 297.47 138.95 297.39
  Q 138.51 297.39 138.51 296.95"
/>
<path stroke="#721a28" vector-effect="non-scaling-stroke" d="
  M 232.65 272.70
  Q 237.12 281.77 249.67 307.26
  C 253.10 314.23 263.66 312.19 263.24 304.32
  Q 263.13 302.35 261.42 298.90
  Q 250.92 277.74 240.45 256.45
  A 1.06 1.03 -45.7 0 1 240.45 255.54
  Q 250.98 234.15 261.55 212.78
  Q 263.43 208.98 263.34 206.78
  C 263.14 201.83 256.56 198.61 252.53 201.37
  Q 250.76 202.59 248.89 206.39
  Q 240.82 222.84 232.58 239.32
  Q 232.30 239.88 232.02 239.32
  Q 223.91 223.18 215.99 206.94
  Q 214.13 203.12 212.92 201.98
  C 209.13 198.46 201.89 201.17 201.33 206.21
  Q 201.05 208.74 203.08 212.86
  Q 213.66 234.27 224.13 255.50
  A 1.16 1.16 0.0 0 1 224.13 256.50
  Q 213.43 278.21 202.71 299.87
  Q 201.48 302.36 201.31 303.77
  C 200.60 309.99 207.96 314.01 212.74 310.00
  Q 214.20 308.77 215.91 305.25
  Q 223.84 288.91 232.03 272.70
  Q 232.34 272.08 232.65 272.70"
/>
<path stroke="#721a28" vector-effect="non-scaling-stroke" d="
  M 291.75 207.45
  A 7.00 7.00 0.0 0 0 284.75 200.45
  L 284.53 200.45
  A 7.00 7.00 0.0 0 0 277.53 207.45
  L 277.53 304.55
  A 7.00 7.00 0.0 0 0 284.53 311.55
  L 284.75 311.55
  A 7.00 7.00 0.0 0 0 291.75 304.55
  L 291.75 207.45"
/>
</g>
<path fill="#000000" d="
  M 433.50 347.40
  A 28.12 28.12 0.0 0 1 405.38 375.52
  L 106.62 375.52
  A 28.12 28.12 0.0 0 1 78.50 347.40
  L 78.50 164.60
  A 28.12 28.12 0.0 0 1 106.62 136.48
  L 405.38 136.48
  A 28.12 28.12 0.0 0 1 433.50 164.60
  L 433.50 347.40
  Z
  M 419.28 164.61
  A 13.92 13.92 0.0 0 0 405.36 150.69
  L 106.64 150.69
  A 13.92 13.92 0.0 0 0 92.72 164.61
  L 92.72 347.35
  A 13.92 13.92 0.0 0 0 106.64 361.27
  L 405.36 361.27
  A 13.92 13.92 0.0 0 0 419.28 347.35
  L 419.28 164.61
  Z"
/>
<path fill="#e3334f" d="
  M 419.28 347.35
  A 13.92 13.92 0.0 0 1 405.36 361.27
  L 106.64 361.27
  A 13.92 13.92 0.0 0 1 92.72 347.35
  L 92.72 164.61
  A 13.92 13.92 0.0 0 1 106.64 150.69
  L 405.36 150.69
  A 13.92 13.92 0.0 0 1 419.28 164.61
  L 419.28 347.35
  Z
  M 339.69 215.14
  Q 339.81 259.18 339.71 303.23
  C 339.71 306.37 340.38 308.71 342.89 310.39
  C 346.49 312.79 351.59 311.46 353.25 307.36
  Q 353.94 305.65 353.94 301.54
  Q 353.94 258.27 353.94 214.93
  A 0.35 0.35 0.0 0 1 354.30 214.58
  Q 366.48 214.62 378.69 214.55
  Q 382.73 214.53 384.59 213.39
  C 388.48 211.00 388.66 204.43 384.89 201.78
  Q 383.06 200.49 379.29 200.47
  Q 346.75 200.29 314.20 200.47
  Q 310.60 200.49 308.75 201.80
  C 304.95 204.47 305.13 211.19 309.37 213.59
  Q 311.04 214.53 314.31 214.54
  Q 326.72 214.58 339.14 214.59
  Q 339.69 214.59 339.69 215.14
  Z
  M 138.51 296.95
  L 138.51 263.75
  Q 138.51 263.14 139.12 263.14
  Q 150.18 263.17 161.25 263.22
  C 168.78 263.24 172.69 253.85 165.77 249.94
  Q 164.00 248.95 160.54 248.95
  Q 149.81 248.98 138.98 248.94
  Q 138.51 248.94 138.51 248.47
  L 138.51 215.03
  Q 138.51 214.57 138.97 214.58
  Q 158.52 214.61 178.08 214.55
  Q 182.21 214.54 184.14 213.25
  C 187.95 210.72 187.90 204.02 183.93 201.57
  Q 182.11 200.44 178.34 200.44
  Q 154.92 200.42 131.50 200.42
  C 125.53 200.42 124.31 204.98 124.30 210.24
  Q 124.24 256.75 124.31 303.25
  C 124.33 310.36 128.08 311.59 134.55 311.59
  Q 156.72 311.59 178.90 311.56
  C 189.77 311.55 189.57 297.47 179.25 297.47
  Q 159.10 297.47 138.95 297.39
  Q 138.51 297.39 138.51 296.95
  Z
  M 232.65 272.70
  Q 237.12 281.77 249.67 307.26
  C 253.10 314.23 263.66 312.19 263.24 304.32
  Q 263.13 302.35 261.42 298.90
  Q 250.92 277.74 240.45 256.45
  A 1.06 1.03 -45.7 0 1 240.45 255.54
  Q 250.98 234.15 261.55 212.78
  Q 263.43 208.98 263.34 206.78
  C 263.14 201.83 256.56 198.61 252.53 201.37
  Q 250.76 202.59 248.89 206.39
  Q 240.82 222.84 232.58 239.32
  Q 232.30 239.88 232.02 239.32
  Q 223.91 223.18 215.99 206.94
  Q 214.13 203.12 212.92 201.98
  C 209.13 198.46 201.89 201.17 201.33 206.21
  Q 201.05 208.74 203.08 212.86
  Q 213.66 234.27 224.13 255.50
  A 1.16 1.16 0.0 0 1 224.13 256.50
  Q 213.43 278.21 202.71 299.87
  Q 201.48 302.36 201.31 303.77
  C 200.60 309.99 207.96 314.01 212.74 310.00
  Q 214.20 308.77 215.91 305.25
  Q 223.84 288.91 232.03 272.70
  Q 232.34 272.08 232.65 272.70
  Z
  M 291.75 207.45
  A 7.00 7.00 0.0 0 0 284.75 200.45
  L 284.53 200.45
  A 7.00 7.00 0.0 0 0 277.53 207.45
  L 277.53 304.55
  A 7.00 7.00 0.0 0 0 284.53 311.55
  L 284.75 311.55
  A 7.00 7.00 0.0 0 0 291.75 304.55
  L 291.75 207.45
  Z"
/>
<path fill="#000000" d="
  M 339.14 214.59
  Q 326.72 214.58 314.31 214.54
  Q 311.04 214.53 309.37 213.59
  C 305.13 211.19 304.95 204.47 308.75 201.80
  Q 310.60 200.49 314.20 200.47
  Q 346.75 200.29 379.29 200.47
  Q 383.06 200.49 384.89 201.78
  C 388.66 204.43 388.48 211.00 384.59 213.39
  Q 382.73 214.53 378.69 214.55
  Q 366.48 214.62 354.30 214.58
  A 0.35 0.35 0.0 0 0 353.94 214.93
  Q 353.94 258.27 353.94 301.54
  Q 353.94 305.65 353.25 307.36
  C 351.59 311.46 346.49 312.79 342.89 310.39
  C 340.38 308.71 339.71 306.37 339.71 303.23
  Q 339.81 259.18 339.69 215.14
  Q 339.69 214.59 339.14 214.59
  Z"
/>
<path fill="#000000" d="
  M 138.95 297.39
  Q 159.10 297.47 179.25 297.47
  C 189.57 297.47 189.77 311.55 178.90 311.56
  Q 156.72 311.59 134.55 311.59
  C 128.08 311.59 124.33 310.36 124.31 303.25
  Q 124.24 256.75 124.30 210.24
  C 124.31 204.98 125.53 200.42 131.50 200.42
  Q 154.92 200.42 178.34 200.44
  Q 182.11 200.44 183.93 201.57
  C 187.90 204.02 187.95 210.72 184.14 213.25
  Q 182.21 214.54 178.08 214.55
  Q 158.52 214.61 138.97 214.58
  Q 138.51 214.57 138.51 215.03
  L 138.51 248.47
  Q 138.51 248.94 138.98 248.94
  Q 149.81 248.98 160.54 248.95
  Q 164.00 248.95 165.77 249.94
  C 172.69 253.85 168.78 263.24 161.25 263.22
  Q 150.18 263.17 139.12 263.14
  Q 138.51 263.14 138.51 263.75
  L 138.51 296.95
  Q 138.51 297.39 138.95 297.39
  Z"
/>
<path fill="#000000" d="
  M 232.03 272.70
  Q 223.84 288.91 215.91 305.25
  Q 214.20 308.77 212.74 310.00
  C 207.96 314.01 200.60 309.99 201.31 303.77
  Q 201.48 302.36 202.71 299.87
  Q 213.43 278.21 224.13 256.50
  A 1.16 1.16 0.0 0 0 224.13 255.50
  Q 213.66 234.27 203.08 212.86
  Q 201.05 208.74 201.33 206.21
  C 201.89 201.17 209.13 198.46 212.92 201.98
  Q 214.13 203.12 215.99 206.94
  Q 223.91 223.18 232.02 239.32
  Q 232.30 239.88 232.58 239.32
  Q 240.82 222.84 248.89 206.39
  Q 250.76 202.59 252.53 201.37
  C 256.56 198.61 263.14 201.83 263.34 206.78
  Q 263.43 208.98 261.55 212.78
  Q 250.98 234.15 240.45 255.54
  A 1.06 1.03 -45.7 0 0 240.45 256.45
  Q 250.92 277.74 261.42 298.90
  Q 263.13 302.35 263.24 304.32
  C 263.66 312.19 253.10 314.23 249.67 307.26
  Q 237.12 281.77 232.65 272.70
  Q 232.34 272.08 232.03 272.70
  Z"
/>
<rect fill="#000000" x="277.53" y="200.45" width="14.22" height="111.10" rx="7.00"/>
</svg>
