<?xml version="1.0" encoding="UTF-8"?>
<svg id="uuid-8eb7ca0d-a46b-4ba2-b6d7-8759c1f673d5" data-name="Capa 1" xmlns="http://www.w3.org/2000/svg" viewBox="0 0 90 76.58">
  <defs>
    <style>
      .uuid-165af331-1ff9-49b4-b170-c1c832b455b0, .uuid-8411d46b-70e9-4e76-ac4f-6d5b47b98eba, .uuid-29c79749-07e5-495c-83a0-250e0bd0059f, .uuid-04a6623a-4d8c-48ba-94d1-1fc6649bd384, .uuid-3ffdbd7a-d223-47d2-800b-4ae7e945d062, .uuid-517c1f51-2155-49b5-a053-4a8775188d86, .uuid-3fe234b6-e219-4426-8318-0e037e72747b, .uuid-673551aa-196e-4b73-bc99-e32cda297c61, .uuid-ccf30473-69cf-40fa-ae9e-0b4a24487639, .uuid-97f8acab-e6cd-4a32-b3f6-3399ee172776, .uuid-1b682912-d0ea-42d9-ad52-54c91ee1f71f, .uuid-82ee7247-3ada-4252-905e-41f12eb6a3f1, .uuid-19becfd9-1bc0-4360-b41c-95f4e8f5e883, .uuid-4f6df75e-3e01-4cdd-a6c9-b8ff6364f569, .uuid-a8dc5b50-0228-4165-bf84-1c046d4b44c2, .uuid-dfe5e913-e208-4064-a8a0-925e8119cb52 {
        isolation: isolate;
      }

      .uuid-165af331-1ff9-49b4-b170-c1c832b455b0, .uuid-a74dab80-8659-4f04-a113-a215035b0a9d, .uuid-a8dc5b50-0228-4165-bf84-1c046d4b44c2 {
        opacity: .5;
      }

      .uuid-165af331-1ff9-49b4-b170-c1c832b455b0, .uuid-18a9fb9c-8cae-499a-9e06-1068b23b073a {
        fill: #465b65;
      }

      .uuid-9fc08046-0c6a-4180-b261-b9f5fb7d743b, .uuid-29c79749-07e5-495c-83a0-250e0bd0059f, .uuid-3ffdbd7a-d223-47d2-800b-4ae7e945d062, .uuid-517c1f51-2155-49b5-a053-4a8775188d86, .uuid-3fe234b6-e219-4426-8318-0e037e72747b, .uuid-ccf30473-69cf-40fa-ae9e-0b4a24487639, .uuid-1b682912-d0ea-42d9-ad52-54c91ee1f71f, .uuid-4f6df75e-3e01-4cdd-a6c9-b8ff6364f569 {
        fill: #fff;
      }

      .uuid-8411d46b-70e9-4e76-ac4f-6d5b47b98eba {
        opacity: .05;
      }

      .uuid-8411d46b-70e9-4e76-ac4f-6d5b47b98eba, .uuid-04a6623a-4d8c-48ba-94d1-1fc6649bd384, .uuid-673551aa-196e-4b73-bc99-e32cda297c61, .uuid-97f8acab-e6cd-4a32-b3f6-3399ee172776, .uuid-82ee7247-3ada-4252-905e-41f12eb6a3f1, .uuid-19becfd9-1bc0-4360-b41c-95f4e8f5e883, .uuid-570bad20-2d34-4ba7-b3c0-d5c3d69e9a25, .uuid-a8dc5b50-0228-4165-bf84-1c046d4b44c2, .uuid-dfe5e913-e208-4064-a8a0-925e8119cb52 {
        fill: #010101;
      }

      .uuid-f628acf1-54e6-4a69-a4aa-302715ef8884 {
        fill: #a56baa;
      }

      .uuid-c08dffd1-19cc-437b-82f1-da75b5872a2a {
        fill: #37474f;
      }

      .uuid-64a75f2e-54ef-4c57-ae15-0dc731458e13 {
        fill: #f5f5f5;
      }

      .uuid-e0969511-83a9-411b-892c-17e8924fe5b9 {
        fill: #e0e0e0;
      }

      .uuid-0f0bdfc4-70c3-45f5-9e71-7136cf98319b, .uuid-1b682912-d0ea-42d9-ad52-54c91ee1f71f, .uuid-82ee7247-3ada-4252-905e-41f12eb6a3f1 {
        opacity: .4;
      }

      .uuid-29c79749-07e5-495c-83a0-250e0bd0059f, .uuid-b4143863-b0bf-4a4e-a7fb-d962b5503465, .uuid-19becfd9-1bc0-4360-b41c-95f4e8f5e883 {
        opacity: .1;
      }

      .uuid-04a6623a-4d8c-48ba-94d1-1fc6649bd384 {
        opacity: .45;
      }

      .uuid-3ffdbd7a-d223-47d2-800b-4ae7e945d062 {
        opacity: .6;
      }

      .uuid-517c1f51-2155-49b5-a053-4a8775188d86, .uuid-dfe5e913-e208-4064-a8a0-925e8119cb52 {
        opacity: .15;
      }

      .uuid-3fe234b6-e219-4426-8318-0e037e72747b, .uuid-97f8acab-e6cd-4a32-b3f6-3399ee172776 {
        opacity: .25;
      }

      .uuid-e25e0596-e06e-489b-b636-6f9bc2bb117f {
        fill: #fbfbfb;
      }

      .uuid-673551aa-196e-4b73-bc99-e32cda297c61 {
        opacity: .35;
      }

      .uuid-ccf30473-69cf-40fa-ae9e-0b4a24487639 {
        opacity: .7;
      }

      .uuid-1aea57b9-584f-43e0-aad4-dcc5f11d1179 {
        fill: #ebebeb;
      }

      .uuid-a4e140bc-89d7-466c-93cb-9952f629bab6 {
        fill: #e7e6e6;
      }

      .uuid-deac5e0d-bb57-4d5d-9da8-15f05f10157f {
        opacity: .55;
      }

      .uuid-7b177b48-492e-4e83-82f3-2230dd693f80, .uuid-4f6df75e-3e01-4cdd-a6c9-b8ff6364f569 {
        opacity: .2;
      }

      .uuid-479e3639-a997-41d0-b70b-da522aed6d9f {
        fill: #263339;
      }
    </style>
  </defs>
  <g id="uuid-04300e2f-4da1-4693-b3da-a99fd592b99f" data-name="freepik--Floor--inject-179">
    <ellipse id="uuid-443672bd-7424-4322-8034-72233cac2ba2" data-name="freepik--floor--inject-179" class="uuid-e25e0596-e06e-489b-b636-6f9bc2bb117f" cx="45" cy="49.72" rx="45" ry="25.98"/>
  </g>
  <g id="uuid-16c0dbcc-c0ac-48b6-92f8-33e2a04ca595" data-name="freepik--Shadows--inject-179">
    <path id="uuid-c87dfe5c-73b0-4650-9c2e-19da3d7cefd8" data-name="freepik--Shadow--inject-179" class="uuid-1aea57b9-584f-43e0-aad4-dcc5f11d1179" d="m8.84,72.37c-.37,0-.68-.26-.76-.62l-.13-.68c-.29-.06-.58-.13-.86-.21l-1.32.61c-.12.05-.25.08-.38.08h0c-.16,0-.31-.04-.45-.12l-1.33-.77c-.32-.18-.44-.58-.26-.91.05-.09.12-.17.21-.23l.7-.51s-.07-.1-.1-.15l-1.64-.1c-.39-.03-.69-.35-.7-.74v-1c0-.4.3-.73.7-.76l1.64-.1s.06-.1.1-.15l-.7-.51c-.3-.21-.38-.62-.17-.92.06-.09.14-.16.23-.21l1.34-.78c.14-.08.29-.12.45-.12.13,0,.26.03.38.08l1.32.61c.27-.08.57-.15.86-.21l.13-.67c.07-.36.39-.62.76-.63h1.96c.37,0,.68.27.76.63l.13.67c.3.06.58.13.86.21l1.31-.61c.12-.05.25-.08.38-.08.16,0,.31.04.45.12l1.34.77c.32.18.44.58.26.91-.05.09-.12.17-.21.23l-.7.51s.07.1.1.15l1.64.1c.39.03.69.35.7.74v1c0,.39-.31.71-.7.74l-1.64.1c-.03.05-.06.1-.1.15l.7.52c.3.21.38.62.17.93-.06.09-.14.16-.23.21l-1.34.77c-.25.14-.56.15-.82.04l-1.32-.61c-.28.09-.57.16-.86.21l-.13.67c-.07.36-.39.62-.76.63h-1.97Zm-1-5.67c-.42.24-.66.54-.66.82s.24.58.66.82c.61.32,1.29.48,1.98.47.69.01,1.37-.15,1.98-.47.42-.24.66-.54.66-.82s-.24-.58-.66-.82c-.61-.32-1.29-.48-1.98-.47-.69-.02-1.37.14-1.98.45h0Z"/>
    <path id="uuid-39a29bd5-fd66-4515-b215-5d2ed5bac996" data-name="freepik--shadow--inject-179" class="uuid-1aea57b9-584f-43e0-aad4-dcc5f11d1179" d="m21.44,74.98l-.17-.33c-.17-.02-.33-.04-.49-.06h0l-.57.38c-.15.1-.33.15-.5.15-.11,0-.22-.02-.32-.06l-.87-.35c-.34-.12-.51-.5-.38-.83.03-.09.08-.16.15-.23l.12-.12-.92.04c-.34,0-.64-.22-.75-.55l-.15-.48c-.12-.36.08-.75.44-.87.03-.01.07-.02.1-.02l.51-.09-.19-.09c-.32-.15-.46-.53-.31-.85.04-.09.11-.17.19-.23l.55-.46c.16-.13.37-.2.58-.2.08,0,.17.01.25.04l.82.26h.01c.09-.04.18-.07.27-.11l-.02-.17c-.05-.39.23-.75.63-.8,0,0,0,0,.01,0l1.08-.11h.08c.3,0,.58.17.73.44l.17.33c.17.02.33.04.49.06h0l.57-.38c.15-.1.33-.15.5-.14.11,0,.22.02.32.06l.86.35c.34.12.51.5.38.83-.03.09-.08.17-.15.23l-.12.13.92-.04c.34,0,.64.22.74.55l.15.48c.12.36-.08.75-.44.87-.03.01-.07.02-.1.02l-.51.09.19.09c.32.15.46.54.31.86-.04.09-.1.17-.18.23l-.55.46c-.16.13-.37.2-.58.2-.08,0-.17-.01-.25-.04l-.82-.25h-.01c-.09.04-.18.07-.27.11l.02.17c.05.39-.23.75-.62.8,0,0,0,0-.01,0l-1.08.11h-.08c-.31,0-.58-.18-.72-.45Zm-.92-3.14c-.07.06-.19.19-.18.3s.18.31.55.47c.31.12.65.18.98.18.55,0,1.07-.15,1.36-.39.07-.06.19-.19.18-.3s-.18-.31-.56-.47c-.31-.12-.65-.18-.98-.17-.55,0-1.07.15-1.36.39h0Z"/>
    <path id="uuid-3d9cf111-2d43-4347-8f4a-a1f688985eec" data-name="freepik--shadow--inject-179" class="uuid-1aea57b9-584f-43e0-aad4-dcc5f11d1179" d="m67.38,76.58c.37,0,.73-.09,1.06-.26l18.14-10.47h.02c.33-.19.55-.53.56-.91-.02-.39-.25-.74-.59-.91l-11.97-6.91c-.66-.35-1.45-.35-2.11,0l-18.12,10.46c-.35.18-.57.52-.59.91,0,.36.21.7.53.88.02.02.05.03.07.05l9.06,5.23,2.89,1.68c.32.18.69.27,1.05.26Z"/>
    <path id="uuid-cc3481e7-dabe-4099-a8bc-9a3b1164eaa6" data-name="freepik--shadow--inject-179" class="uuid-1aea57b9-584f-43e0-aad4-dcc5f11d1179" d="m77.13,42.81c-1.91,1.1-1.91,2.89,0,3.99s5,1.1,6.91,0,1.91-2.89,0-3.99-5-1.1-6.91,0Z"/>
    <path id="uuid-c1418d02-e06f-442b-b794-a243dabe97cb" data-name="freepik--shadow--inject-179" class="uuid-1aea57b9-584f-43e0-aad4-dcc5f11d1179" d="m9.84,58.64l24.47,14.13c.68.34,1.48.34,2.16,0l39.48-22.79c.6-.35.6-.9,0-1.25l-24.47-14.13c-.68-.34-1.48-.34-2.16,0L9.84,57.39c-.6.35-.6.9,0,1.25Z"/>
    <path id="uuid-815cd046-78d4-4739-85bd-4e5a84c3494d" data-name="freepik--shadow--inject-179" class="uuid-1aea57b9-584f-43e0-aad4-dcc5f11d1179" d="m59.54,33.26c-3.46,2-3.46,5.23,0,7.23s9.06,2,12.52,0,3.46-5.23,0-7.23-9.06-2-12.52,0Z"/>
  </g>
  <g id="uuid-5eec5c12-d471-402b-af9a-20381bfd35dc" data-name="freepik--Card--inject-179">
    <g id="uuid-7516a2c7-cd67-421a-991c-b68930b26478" data-name="freepik--card--inject-179">
      <path class="uuid-e0969511-83a9-411b-892c-17e8924fe5b9" d="m66.57,75.55l-12.01-6.94c-.19-.09-.32-.28-.32-.5v-.85s.32.46.33.46l9.1,5.25,2.92,1.68c.5.25,1.08.25,1.58,0l18.19-10.5s.31-.36.32-.36.02.63,0,.84c-.03.18-.15.34-.32.42l-18.19,10.5c-.49.25-1.08.25-1.57,0Z"/>
      <path class="uuid-19becfd9-1bc0-4360-b41c-95f4e8f5e883" d="m67.15,75.72v-.89c-.2-.02-.4-.08-.58-.18l-2.92-1.68-9.1-5.25s-.32-.46-.33-.46,0,.67,0,.85c0,.21.13.41.32.5l12.01,6.94c.18.1.38.16.58.18Z"/>
      <path class="uuid-f628acf1-54e6-4a69-a4aa-302715ef8884" d="m58.03,69.72h0v.89l-3.46-2c-.19-.09-.32-.28-.32-.5v-.85s.32.46.33.46l3.46,2Z"/>
      <path class="uuid-19becfd9-1bc0-4360-b41c-95f4e8f5e883" d="m58.03,69.72h0v.89l-3.46-2c-.19-.09-.32-.28-.32-.5v-.85s.32.46.33.46l3.46,2Z"/>
      <path class="uuid-e25e0596-e06e-489b-b636-6f9bc2bb117f" d="m54.56,67.73s-.01,0-.02-.01c-.42-.25-.41-.65.02-.9l18.19-10.51c.5-.25,1.08-.25,1.58,0l12.01,6.94c.43.25.44.65.02.9h-.02s-18.19,10.51-18.19,10.51c-.5.25-1.08.25-1.58,0l-2.92-1.68-9.1-5.25Z"/>
      <path class="uuid-1aea57b9-584f-43e0-aad4-dcc5f11d1179" d="m73.54,56.34h0c.24,0,.47.05.68.16l12.01,6.93c.14.08.22.18.22.27s-.07.19-.21.26h-.01l-18.18,10.5c-.21.11-.44.17-.68.16-.24,0-.47-.05-.68-.16l-2.92-1.68-9.06-5.23h0l-.04-.03c-.13-.08-.2-.17-.2-.25s.08-.19.22-.27l18.18-10.51c.21-.11.45-.16.68-.16m0-.22c-.28,0-.55.06-.79.19l-18.19,10.5c-.43.25-.44.65-.02.9,0,0,.01,0,.02.01l9.1,5.25,2.92,1.68c.5.25,1.08.25,1.58,0l18.19-10.5h.02c.42-.26.42-.66-.02-.91l-12.01-6.94c-.24-.13-.51-.19-.79-.19h0Z"/>
      <path class="uuid-f628acf1-54e6-4a69-a4aa-302715ef8884" d="m58.03,69.72l-3.46-2s-.01,0-.02-.01c-.42-.25-.41-.65.02-.9l18.19-10.51c.5-.25,1.08-.25,1.58,0l3.46,2-19.77,11.42Z"/>
      <path class="uuid-e0969511-83a9-411b-892c-17e8924fe5b9" d="m65.71,71.38l-.35.21s-.04.01-.05.02c-.02,0-.04,0-.05-.01-.02,0-.02-.02-.02-.03,0-.01.01-.03.03-.03l.12-.07-.51-.29s-.07-.03-.11-.02c-.04,0-.08.01-.11.03h0s-.04.01-.06.02c-.02,0-.04,0-.05-.01-.01,0-.02-.02-.02-.03,0-.01.01-.03.03-.03h0c.07-.04.15-.06.22-.06.07,0,.15,0,.21.04l.51.29.12-.07s.04-.02.06-.02c.02,0,.04,0,.05.01.01,0,.02.02.02.03,0,.01-.02.02-.03.02Z"/>
      <path class="uuid-e0969511-83a9-411b-892c-17e8924fe5b9" d="m66.17,70.77l-.24.14s-.05.04-.05.06c0,.03.01.05.04.06l.08.05s.02,0,.03,0h.03l.5-.29s.04-.02.06-.02c.02,0,.04,0,.05.01.01,0,.02.02.02.03,0,.01-.02.03-.03.03l-.59.34s-.04.02-.05.02c-.02,0-.04,0-.05-.01l-.15-.09s-.08-.07-.08-.12c.01-.06.05-.1.11-.13l.24-.14s.05-.04.05-.07c0-.03-.01-.05-.04-.06l-.1-.06s-.07-.03-.11-.02c-.04,0-.08.01-.11.03l-.23.13s-.05.04-.05.07c0,.03.01.05.04.06.02,0,.02.02.02.03,0,.02-.01.03-.03.03-.02,0-.04.01-.06.02-.02,0-.04,0-.05-.01-.05-.02-.08-.07-.08-.12.01-.06.05-.11.11-.13l.24-.13c.07-.04.15-.06.22-.06.07,0,.15,0,.21.04l.1.06s.08.07.07.12c-.01.06-.05.1-.11.13Z"/>
      <path class="uuid-e0969511-83a9-411b-892c-17e8924fe5b9" d="m67.39,70.12l.05.03s.08.07.08.12c-.01.06-.05.11-.11.13l-.23.14c-.07.04-.15.06-.22.06-.07,0-.15,0-.21-.04-.01,0-.02-.02-.02-.03,0-.01,0-.02.02-.03.02,0,.04-.01.06-.02.02,0,.04,0,.05.01.03.02.07.02.11.02.04,0,.08-.01.11-.03l.24-.14s.05-.04.05-.06c0-.03-.01-.05-.04-.06l-.05-.03s-.07-.03-.11-.02c-.04,0-.08.01-.11.03l-.06.03s-.04.01-.06.02c-.02,0-.04,0-.05-.01-.01,0-.02-.02-.02-.03,0-.01.01-.02.03-.03l.06-.03s.05-.04.05-.07c0-.03-.01-.05-.04-.06l-.05-.03s-.07-.02-.11-.02c-.04,0-.08.01-.11.03l-.23.14s-.05.04-.05.06c0,.03.01.05.04.06.01,0,.02.02.02.03,0,.01-.01.03-.03.03-.02.01-.04.02-.05.02-.02,0-.04,0-.05-.01-.05-.02-.08-.07-.07-.12.01-.06.05-.11.11-.13l.23-.14c.07-.04.15-.06.22-.06.07,0,.15,0,.21.04l.05.03s.05.03.06.06c.01.02.01.05,0,.07.04,0,.08,0,.13,0,.04,0,.07.02.11.04Z"/>
      <path class="uuid-e0969511-83a9-411b-892c-17e8924fe5b9" d="m68.55,69.73s-.01.03-.03.03c-.02.01-.04.02-.06.02-.02,0-.04,0-.05-.01l-.28-.16s-.05.06-.09.08l-.24.14c-.07.04-.15.06-.22.06-.07,0-.15-.01-.21-.04l-.25-.15s-.02-.02-.02-.03c0-.01,0-.02.02-.03.02-.01.04-.02.06-.02.02,0,.04,0,.05,0l.25.15s.07.02.11.02c.04,0,.08-.01.11-.03l.23-.14s.05-.04.05-.06c0-.03-.01-.05-.04-.06l-.25-.15s-.02-.02-.02-.03c0-.01.01-.03.03-.03.02-.01.04-.02.06-.02.02,0,.04,0,.05.01l.71.41s.02.02.02.03Z"/>
      <path class="uuid-e0969511-83a9-411b-892c-17e8924fe5b9" d="m69.33,68.68s.02,0,.03,0c0,0,.02,0,.03,0l.32-.19c.07-.04.15-.06.22-.06.07,0,.15,0,.21.04l.1.06s.08.07.08.12c-.01.06-.05.11-.11.13l-.24.14c-.07.04-.15.06-.22.06-.07,0-.15,0-.21-.04-.01,0-.02-.02-.02-.03,0-.01.01-.03.03-.03.02-.01.04-.02.06-.02.02,0,.04,0,.05,0,.03.02.07.03.11.02.04,0,.08-.01.11-.03l.24-.14s.05-.04.05-.07c0-.03-.01-.05-.04-.06l-.1-.06s-.07-.02-.11-.02c-.04,0-.08.01-.11.03l-.35.2s-.07.03-.11.03c-.04,0-.07,0-.11-.02l-.25-.15s-.02-.02-.02-.03c0-.01.01-.03.03-.03l.59-.34s.04-.02.06-.02c.02,0,.04,0,.05,0,.02,0,.02.02.02.03,0,.01-.01.03-.03.03l-.5.29s-.01,0-.01.02c0,0,0,.01,0,.02l.15.11Z"/>
      <path class="uuid-e0969511-83a9-411b-892c-17e8924fe5b9" d="m70.41,68.08l.23-.14c.07-.04.15-.06.23-.06.07,0,.15,0,.21.04l.1.06s.08.07.08.12c-.01.06-.05.11-.11.13l-.23.14c-.07.04-.15.06-.22.06-.07,0-.15-.01-.21-.05l-.41-.24s-.08-.07-.08-.12c.01-.06.05-.1.11-.13l.23-.14c.07-.04.15-.06.23-.06.07,0,.15,0,.21.04.01,0,.02.02.02.03,0,.01-.01.03-.03.03-.02,0-.04.01-.06.02-.02,0-.03,0-.05,0-.03-.02-.07-.03-.11-.02-.04,0-.08.01-.11.03l-.24.14s-.05.04-.05.06c0,.03.01.05.04.06l.13.08s.05-.07.08-.09Zm.19.24s.07.02.11.02c.04,0,.08-.01.11-.03l.23-.14s.05-.04.05-.07c0-.02,0-.04-.04-.06l-.1-.06s-.07-.02-.11-.02c-.04,0-.08.01-.11.03l-.23.14s-.05.04-.05.06c0,.03.01.05.04.06l.1.06Z"/>
      <path class="uuid-e0969511-83a9-411b-892c-17e8924fe5b9" d="m71.82,67.3l.17.4h0v.03h0s-.04.02-.05.03c-.02,0-.04,0-.05-.01-.01,0-.02-.02-.02-.05-.05-.13-.11-.25-.17-.38,0-.01-.02-.03-.03-.04l-.04-.03h-.02s-.07-.03-.11-.03c-.04,0-.08.01-.11.03l-.12.07-.06.03-.23.14s-.04.01-.06.02c-.02,0-.04,0-.05-.01-.01,0-.02-.02-.02-.03,0-.01.01-.02.03-.03l.23-.14.06-.03.12-.07c.07-.04.15-.06.22-.06.07,0,.15,0,.21.04.02.01.04.03.06.05.01.02.02.05.03.08Z"/>
      <path class="uuid-e0969511-83a9-411b-892c-17e8924fe5b9" d="m73.01,66.88l.05.03s.08.07.08.12c-.01.06-.05.11-.11.13l-.23.13c-.07.04-.15.06-.22.06-.07,0-.15,0-.21-.04l-.05-.03s-.05-.03-.06-.06c-.01-.02-.01-.05,0-.07-.04,0-.08,0-.13,0-.04,0-.07-.02-.11-.04l-.05-.03s-.08-.07-.07-.12c.01-.06.05-.11.11-.13l.23-.14c.07-.04.15-.06.23-.06.07,0,.15,0,.21.04l.05.03s.05.04.06.06c.01.02.01.05,0,.07.04,0,.08,0,.13,0,.04,0,.07.02.11.04Zm-.47-.14s-.07-.03-.11-.02c-.04,0-.08.01-.11.03l-.23.14s-.05.04-.05.07,0,.04.04.06l.05.03s.07.03.11.02c.04,0,.08-.01.11-.03l.23-.14s.05-.04.05-.06c0-.03-.01-.05-.04-.06l-.05-.03Zm.35.2s-.07-.02-.11-.02c-.04,0-.08.01-.11.03l-.23.14s-.05.04-.05.06c0,.03.01.05.04.06l.05.03s.07.03.11.02c.04,0,.08-.01.11-.03l.24-.13s.05-.04.05-.07c0-.03-.01-.05-.04-.06l-.05-.03Z"/>
      <path class="uuid-e0969511-83a9-411b-892c-17e8924fe5b9" d="m74.91,66.07l-.23.14c-.07.04-.15.06-.23.06-.07,0-.15,0-.21-.04-.01,0-.02-.02-.02-.03,0-.01.01-.03.03-.03.02,0,.04-.02.06-.02.02,0,.04,0,.05.01.03.02.07.02.11.02.04,0,.08-.01.11-.03l.23-.14s.05-.04.05-.06c0-.03-.01-.05-.04-.06l-.13-.08s-.05.07-.09.08l-.23.14c-.07.04-.15.06-.22.06-.07,0-.15,0-.21-.04l-.1-.06s-.08-.07-.08-.12c.01-.06.05-.1.11-.13l.24-.14c.07-.04.15-.06.22-.06.07,0,.15,0,.21.04l.41.23s.08.07.08.12c-.01.06-.05.11-.11.13Zm-.49-.42s-.07-.03-.11-.02c-.04,0-.08.01-.12.03l-.23.14s-.05.04-.05.06c0,.03.01.05.04.06l.1.06s.07.03.11.02c.04,0,.08-.01.11-.03l.24-.14s.05-.04.05-.07c0-.03-.01-.05-.04-.06l-.1-.06Z"/>
      <path class="uuid-e0969511-83a9-411b-892c-17e8924fe5b9" d="m75.79,65.57l-.35.2s-.04.02-.06.02c-.02,0-.04,0-.05,0-.01,0-.02-.02-.02-.03,0-.01.01-.03.03-.03l.12-.07-.51-.29s-.07-.02-.1-.02c-.04,0-.08,0-.11.03h0s-.04.02-.05.02c-.02,0-.04,0-.05-.01-.02,0-.02-.02-.02-.03s0-.02.03-.03h0c.07-.04.15-.06.22-.06.07,0,.15,0,.21.04l.51.29.12-.07s.04-.02.06-.02c.02,0,.04,0,.05.01.02,0,.02.02.02.03,0,.02-.01.03-.03.04Z"/>
      <path class="uuid-e0969511-83a9-411b-892c-17e8924fe5b9" d="m76.55,65.12l-.23.14c-.07.04-.15.06-.22.06-.07,0-.15,0-.21-.04l-.41-.24s-.08-.07-.07-.12c.01-.06.05-.11.11-.13l.23-.14c.07-.04.15-.06.22-.06.07,0,.15.01.21.04l.41.24s.08.07.07.12c-.01.06-.05.11-.11.13Zm-.34.08l.23-.14s.03-.02.04-.04l-.89-.05.4.23s.07.02.11.02c.04,0,.08-.01.11-.03Zm-.38-.49l-.23.14s-.03.02-.04.04l.89.05-.4-.23s-.07-.02-.11-.02c-.04,0-.07.01-.11.03h0Z"/>
      <path class="uuid-e0969511-83a9-411b-892c-17e8924fe5b9" d="m77.43,64.61l-.35.2s-.04.02-.06.02c-.02,0-.04,0-.05,0-.01,0-.02-.02-.02-.03,0-.01.01-.03.03-.03l.12-.07-.51-.29s-.07-.02-.1-.02c-.04,0-.08.01-.11.03h0s-.04.02-.05.02c-.02,0-.04,0-.05,0-.01,0-.02-.02-.02-.03s0-.02.03-.03h0c.07-.04.15-.06.22-.06.07,0,.15,0,.21.04l.51.29.12-.07s.04-.02.05-.02c.02,0,.04,0,.05,0,.02,0,.02.02.02.03,0,.02-.01.03-.03.03Z"/>
      <path class="uuid-e0969511-83a9-411b-892c-17e8924fe5b9" d="m79.07,63.67l-.35.2s-.04.02-.05.02c-.02,0-.04,0-.05-.01-.01,0-.02-.02-.02-.03,0-.01.01-.03.02-.03l.12-.07-.51-.29s-.07-.02-.11-.02c-.04,0-.08.01-.11.03h0s-.04.02-.06.02c-.02,0-.04,0-.05,0-.01,0-.02-.02-.02-.03,0-.01.01-.03.03-.03h0c.07-.04.15-.06.22-.06.07,0,.15,0,.21.04l.51.29.12-.07s.04-.02.06-.02c.02,0,.04,0,.05.01.01,0,.02.02.02.03,0,.01-.02.03-.03.03Z"/>
      <path class="uuid-e0969511-83a9-411b-892c-17e8924fe5b9" d="m79.52,63.06l-.23.13s-.05.04-.05.07c0,.03.01.05.04.06l.08.04s.02,0,.03,0c0,0,.02,0,.03,0l.5-.29s.04-.02.06-.02c.02,0,.04,0,.05,0,.02,0,.02.02.02.03,0,.01-.01.03-.03.03l-.59.34s-.04.02-.05.02c-.02,0-.04,0-.05-.01l-.15-.09s-.08-.07-.08-.12c.01-.06.05-.11.11-.13l.23-.14s.05-.03.05-.06c0-.03-.01-.05-.04-.06l-.1-.06s-.07-.02-.11-.02c-.04,0-.08.01-.11.03l-.23.14s-.05.04-.05.07,0,.04.04.06c.01,0,.02.02.02.03,0,.01-.01.03-.03.03-.02,0-.04.02-.06.02-.02,0-.04,0-.05,0-.05-.02-.08-.07-.08-.12.01-.06.05-.11.11-.13l.23-.14c.07-.04.15-.06.23-.06.07,0,.15,0,.21.04l.1.06s.08.07.08.12c-.01.06-.05.11-.11.13Z"/>
      <path class="uuid-e0969511-83a9-411b-892c-17e8924fe5b9" d="m80.71,62.72l-.35.2s-.04.01-.05.02c-.02,0-.04,0-.05-.01-.01,0-.02-.02-.02-.03,0-.01.01-.03.03-.03l.12-.07-.51-.29s-.07-.03-.11-.02c-.04,0-.08.01-.11.03h0s-.04.02-.06.02c-.02,0-.04,0-.05-.01-.01,0-.02-.02-.02-.03,0-.01.01-.03.03-.03h0c.07-.04.15-.06.23-.06.07,0,.15,0,.21.04l.51.28.12-.07s.04-.02.06-.02c.02,0,.04,0,.05.01.01,0,.02.02.02.03,0,.02-.01.03-.03.04Z"/>
      <path class="uuid-e0969511-83a9-411b-892c-17e8924fe5b9" d="m81.45,62l.05.03s.08.07.08.12c-.01.06-.05.11-.11.13l-.23.14c-.07.04-.15.06-.23.06-.07,0-.15,0-.21-.04-.01,0-.02-.02-.02-.03s0-.02.03-.03c.02-.01.04-.02.06-.02.02,0,.04,0,.05,0,.03.02.07.03.11.02.04,0,.08-.01.11-.03l.23-.13s.05-.04.05-.07c0-.03-.01-.05-.04-.06l-.05-.03s-.07-.02-.11-.02c-.04,0-.08.01-.11.03l-.06.03s-.04.02-.05.02c-.02,0-.04,0-.05,0-.02,0-.02-.02-.02-.03s0-.02.03-.03l.06-.03s.05-.04.05-.06c0-.03-.01-.05-.04-.06l-.05-.03s-.07-.03-.11-.02c-.04,0-.08.01-.11.03l-.23.13s-.05.04-.05.07c0,.03.01.05.04.06.01,0,.02.02.02.03,0,.02-.01.03-.03.03-.02,0-.04.01-.05.02-.02,0-.04,0-.05-.01-.05-.02-.08-.07-.08-.12.01-.06.05-.11.11-.13l.24-.14c.07-.04.15-.06.22-.06.07,0,.15,0,.21.04l.05.03s.05.04.06.06c.01.02.02.05.01.07.04,0,.08,0,.12,0,.04,0,.07.02.11.04Z"/>
      <path class="uuid-e0969511-83a9-411b-892c-17e8924fe5b9" d="m81.38,64.22l-.2.12s-.02,0-.03,0c0,0-.02,0-.03,0,0,0-.01-.01-.01-.02,0,0,0-.02.02-.02l.07-.04-.3-.17s-.04-.02-.06-.01c-.02,0-.05,0-.07.02h0s-.02,0-.03,0c0,0-.02,0-.03,0,0,0-.01,0-.01-.02,0,0,0-.02.02-.02h0s.09-.03.13-.04c.04,0,.09,0,.12.03l.3.17.07-.04s.02,0,.03,0c.01,0,.02,0,.03,0,0,0,.01.01.01.02,0,0-.01,0-.02,0Z"/>
      <path class="uuid-e0969511-83a9-411b-892c-17e8924fe5b9" d="m81.65,63.86l-.14.08s-.03.02-.03.04,0,.03.02.04l.04.02s.01,0,.02,0h.02l.29-.17s.02,0,.03,0c.01,0,.02,0,.03,0,0,0,.01.01,0,.02s0,.01-.02.02l-.34.19s-.02,0-.03,0c0,0-.02,0-.03,0l-.09-.04s-.05-.04-.05-.07c0-.03.03-.06.06-.08l.14-.08s.03-.02.03-.04c0-.02,0-.03-.02-.04l-.06-.03s-.04-.02-.06-.01c-.02,0-.05,0-.07.02l-.14.08s-.03.02-.03.04c0,.02,0,.03.02.04,0,0,.01.01.01.02s0,.01-.02.02c-.01,0-.02,0-.03,0,0,0-.02,0-.03,0-.03-.01-.05-.04-.04-.07,0-.03.03-.06.06-.08l.14-.08s.09-.03.13-.04c.04,0,.09,0,.12.03l.06.03s.05.04.04.07c0,.03-.03.06-.06.07Z"/>
      <path class="uuid-e0969511-83a9-411b-892c-17e8924fe5b9" d="m82.47,63.38l-.14.08s-.03.02-.03.04c0,.02,0,.03.02.04l.04.02s.01,0,.02,0h.02l.29-.17s.02,0,.03,0c.01,0,.02,0,.03,0,0,0,.01.01,0,.02s0,.01-.02.02l-.34.19s-.02,0-.03,0c0,0-.02,0-.03,0l-.09-.05s-.05-.04-.05-.07c0-.03.03-.06.06-.08l.14-.08s.03-.02.03-.04c0-.02,0-.03-.02-.04l-.06-.03s-.04-.01-.06-.01c-.02,0-.05,0-.07.02l-.14.08s-.03.02-.03.04c0,.02,0,.03.02.04,0,0,.01.01.01.02,0,0,0,.02-.02.02-.01,0-.02,0-.03,0,0,0-.02,0-.03,0-.03-.01-.05-.04-.04-.07,0-.03.03-.06.06-.08l.14-.08s.09-.03.13-.04c.04,0,.09,0,.12.02l.06.04s.05.04.04.07c0,.03-.03.06-.06.07Z"/>
      <path class="uuid-e0969511-83a9-411b-892c-17e8924fe5b9" d="m83.19,63l.03.02s.05.04.04.07c0,.03-.03.06-.06.08l-.14.08s-.09.03-.13.04c-.04,0-.09,0-.12-.03,0,0,0-.01,0-.02,0,0,0-.01.02-.02,0,0,.02,0,.03,0,.01,0,.02,0,.03,0,.02.01.04.02.06.01.02,0,.04,0,.06-.02l.14-.08s.03-.02.03-.04c0-.02,0-.03-.02-.04l-.03-.02s-.04-.02-.06-.01c-.02,0-.05,0-.07.02l-.03.02s-.02,0-.03,0c0,0-.02,0-.03,0-.01,0-.01,0-.01-.02,0-.02,0-.01.02-.02l.03-.02s.03-.02.03-.04c0-.02,0-.03-.02-.04l-.03-.02s-.04-.01-.06-.01c-.02,0-.04,0-.06.02l-.14.08s-.03.02-.03.04c0,.02,0,.03.02.04,0,0,.01,0,.01.02,0,0,0,.02-.02.02-.01,0-.02,0-.03,0-.04,0-.07-.03-.07-.07,0,0,0,0,0,0,0-.03.03-.06.06-.08l.14-.08s.09-.04.13-.04c.04,0,.08,0,.12.02l.03.02s.03.02.04.04c0,.01,0,.03,0,.04.02,0,.05,0,.07,0,.02,0,.04.01.06.02Z"/>
      <path class="uuid-e0969511-83a9-411b-892c-17e8924fe5b9" d="m82.2,63.83h0s-.03,0-.05,0l-.43-.35s0-.02.02-.02c.02,0,.04,0,.05,0l.43.34s0,.02-.02.02Z"/>
      <path class="uuid-f628acf1-54e6-4a69-a4aa-302715ef8884" d="m77.41,59.72c-.17-.09-.37-.09-.54,0-.66.38-1.74,1.02-2.4,1.4-.09.03-.13.12-.1.21.02.05.05.09.1.1l.42.25,2.94-1.71-.43-.25Zm-1.32,1.41l.89.52.8-.47-.89-.51-.81.47Zm1.82-.02l.94-.55-.89-.51-.94.55.89.52Zm1.49-.24l-.42-.24-2.94,1.71.42.25c.17.08.37.08.54,0l2.4-1.4c.09-.03.13-.12.1-.21-.02-.05-.05-.08-.1-.1h0Zm-3.43.33l-.94.55.89.52.94-.55-.89-.52Z"/>
      <path class="uuid-3ffdbd7a-d223-47d2-800b-4ae7e945d062" d="m77.41,59.72c-.17-.09-.37-.09-.54,0-.66.38-1.74,1.02-2.4,1.4-.09.03-.13.12-.1.21.02.05.05.09.1.1l.42.25,2.94-1.71-.43-.25Zm-1.32,1.41l.89.52.8-.47-.89-.51-.81.47Zm1.82-.02l.94-.55-.89-.51-.94.55.89.52Zm1.49-.24l-.42-.24-2.94,1.71.42.25c.17.08.37.08.54,0l2.4-1.4c.09-.03.13-.12.1-.21-.02-.05-.05-.08-.1-.1h0Zm-3.43.33l-.94.55.89.52.94-.55-.89-.52Z"/>
      <path class="uuid-f628acf1-54e6-4a69-a4aa-302715ef8884" d="m76.98,67.05l-9.5,5.5c-.1.04-.14.15-.1.25.02.04.05.08.1.1l.04.02c.19.1.41.1.6,0l9.5-5.49c.1-.04.14-.15.1-.25-.02-.04-.05-.08-.1-.1l-.04-.02c-.19-.1-.41-.1-.6,0Z"/>
      <g class="uuid-0f0bdfc4-70c3-45f5-9e71-7136cf98319b">
        <path class="uuid-9fc08046-0c6a-4180-b261-b9f5fb7d743b" d="m76.98,67.05l-9.5,5.5c-.1.04-.14.15-.1.25.02.04.05.08.1.1l.04.02c.19.1.41.1.6,0l9.5-5.49c.1-.04.14-.15.1-.25-.02-.04-.05-.08-.1-.1l-.04-.02c-.19-.1-.41-.1-.6,0Z"/>
      </g>
      <path class="uuid-e25e0596-e06e-489b-b636-6f9bc2bb117f" d="m58.37,67.37s-.02-.02-.02-.03c0-.01.01-.02.02-.03l.15-.09s.03-.01.05-.01c.02,0,.03,0,.05.01.04.03.08.07.12.11.03.04.04.09.04.14,0,.06-.03.11-.07.15-.06.07-.13.12-.21.16-.16.09-.35.14-.54.14-.09,0-.18-.01-.27-.03-.09-.02-.17-.05-.25-.09-.05-.02-.1-.05-.16-.09l-.15-.09c-.06-.04-.12-.09-.16-.15-.04-.04-.05-.1-.05-.15,0-.06.02-.11.06-.16.05-.06.12-.12.19-.15.09-.05.18-.09.29-.12.09-.02.18-.04.27-.04.08,0,.16,0,.24.02.07.01.13.04.19.06.02,0,.02.02.02.03,0,.01,0,.02-.02.03l-.15.09s-.03.01-.05.01c-.02,0-.04,0-.06,0-.03-.01-.06-.02-.1-.03-.04,0-.08,0-.12,0-.1,0-.19.04-.28.09-.04.02-.07.05-.1.08-.02.03-.03.06-.03.09,0,.03.01.06.03.08.02.03.05.06.08.08.05.03.1.06.15.09s.11.06.16.09c.04.02.09.04.13.05.05.01.1.02.14.02.05,0,.1,0,.15-.02.05-.01.1-.03.15-.06.04-.02.08-.05.11-.08.02-.02.04-.05.04-.08,0-.02,0-.05,0-.07-.01-.02-.03-.05-.05-.06Z"/>
      <path class="uuid-e25e0596-e06e-489b-b636-6f9bc2bb117f" d="m58.48,66.28c.14-.08.3-.13.46-.14.15,0,.29.03.42.1.07.03.13.09.17.17.02.07,0,.14-.04.19l.71.12s.02,0,.03,0c0,0,.02.01.02.02,0,0,0,.02-.02.02l-.16.09s-.05.02-.07.02h-.06l-.67-.11-.25.14.43.25s.02.02.02.03c0,.01,0,.02-.02.03l-.15.09s-.03.01-.05.01c-.02,0-.03,0-.05-.01l-1.2-.69s-.02-.02-.02-.03c0-.01,0-.02.02-.03l.48-.28Zm.31.5l.27-.15c.05-.03.1-.07.13-.12.02-.04,0-.08-.08-.12-.06-.04-.13-.05-.2-.04-.07.01-.14.04-.2.08l-.27.15.35.2Z"/>
      <path class="uuid-e25e0596-e06e-489b-b636-6f9bc2bb117f" d="m61.13,65.99s.03-.01.05-.01c.02,0,.04,0,.05.01l.13.08s.02.02.02.03c0,.01,0,.02-.02.03l-.81.47s-.03.01-.05.01c-.02,0-.04,0-.05-.01l-1.2-.69s-.02-.02-.02-.03,0-.02.02-.03l.8-.46s.04-.02.06-.02c.02,0,.03,0,.05.01l.13.08s.02.02.02.03c0,.01,0,.02-.02.03l-.6.34.29.17.56-.32s.03-.01.05-.01c.02,0,.03,0,.05.01l.13.08s.02.02.02.03c0,.01,0,.02-.02.03l-.57.32.31.18.62-.35Z"/>
      <path class="uuid-e25e0596-e06e-489b-b636-6f9bc2bb117f" d="m60.86,64.92c.09-.05.18-.09.27-.12.09-.02.18-.04.27-.04.09,0,.18,0,.26.03.09.02.17.06.25.1.1.05.19.1.27.16.06.04.12.09.17.15.04.04.06.1.06.15,0,.06-.02.11-.06.15-.06.06-.12.12-.2.15l-.48.27s-.03.01-.05.01c-.02,0-.04,0-.05-.01l-1.2-.69s-.02-.02-.02-.03c0-.01,0-.02.02-.03l.47-.26Zm.81.12s-.09-.04-.13-.05c-.05-.01-.1-.02-.15-.02-.05,0-.1,0-.15.02-.06.01-.11.04-.16.07l-.25.14.83.48.26-.15s.08-.05.11-.09c.02-.02.03-.06.03-.09,0-.03-.01-.06-.03-.08-.02-.03-.05-.06-.09-.08-.09-.06-.19-.11-.29-.16h0Z"/>
      <path class="uuid-e25e0596-e06e-489b-b636-6f9bc2bb117f" d="m62.99,65.18s-.03.01-.05.01c-.02,0-.04,0-.05-.01l-1.2-.69s-.02-.02-.02-.03,0-.02.02-.03l.15-.09s.03-.01.05-.01c.02,0,.04,0,.05.01l1.19.69s.02.02.02.03c0,.01,0,.02-.02.03l-.15.09Z"/>
      <path class="uuid-e25e0596-e06e-489b-b636-6f9bc2bb117f" d="m63.04,63.65s.03-.01.05-.01c.02,0,.03,0,.05.01l.13.08s.02.02.02.03c0,.01,0,.02-.02.03l-.33.19,1.02.59s.02.02.02.03c0,.01,0,.02-.02.03l-.15.09s-.03.01-.05.01c-.02,0-.03,0-.05-.01l-1.02-.59-.33.19s-.03.01-.05.01c-.02,0-.04,0-.05-.01l-.13-.08s-.02-.02-.02-.03c0-.01,0-.02.02-.03l.92-.52Z"/>
      <path class="uuid-e25e0596-e06e-489b-b636-6f9bc2bb117f" d="m65.34,63.35s-.02-.02-.02-.03c0-.01.01-.02.02-.03l.15-.09s.03-.01.05-.01c.02,0,.03,0,.05.01.04.03.08.07.12.11.03.04.04.09.04.14,0,.06-.03.11-.07.15-.06.07-.13.12-.21.16-.16.09-.35.14-.54.14-.09,0-.18-.01-.27-.03-.09-.02-.17-.05-.25-.09-.05-.02-.1-.05-.16-.09l-.15-.09c-.06-.04-.12-.09-.16-.15-.04-.04-.06-.1-.06-.15,0-.06.02-.11.06-.16.05-.06.12-.11.19-.15.09-.05.19-.09.29-.12.09-.02.18-.04.27-.04.08,0,.16,0,.24.02.07.01.13.04.19.06.02,0,.02.02.02.03,0,.01-.01.02-.02.03l-.15.09s-.03.01-.05.01c-.02,0-.04,0-.06,0-.03-.01-.06-.02-.1-.03-.04,0-.08,0-.12,0-.05,0-.09.01-.13.02-.05.01-.1.04-.14.06-.04.02-.08.05-.1.08-.02.02-.03.06-.03.09,0,.03.01.06.03.08.02.03.05.06.09.08l.15.09c.06.03.11.06.16.09.04.02.09.04.13.05.05.01.1.02.14.02.05,0,.1,0,.15-.02.05-.01.1-.03.15-.06.04-.02.08-.05.11-.08.02-.02.03-.05.04-.08,0-.02,0-.05,0-.07-.01-.02-.03-.05-.05-.06Z"/>
      <path class="uuid-e25e0596-e06e-489b-b636-6f9bc2bb117f" d="m65.52,62.22s.04-.02.06-.02c.02,0,.05,0,.07.01l1.62.41h.02s.02.02.02.04c0,0,0,.01-.02.02l-.13.08s-.04.02-.07.02c-.02,0-.04,0-.05,0l-.29-.07-.59.34.13.16s0,.02,0,.03c0,.01-.01.03-.04.04l-.13.08s-.03.01-.05.01c-.02,0-.03,0-.05-.01,0,0,0,0-.01,0l-.72-.94s-.02-.03-.02-.04c0-.01,0-.02.03-.03l.2-.11Zm.92.41l-.73-.19.32.42.41-.23Z"/>
      <path class="uuid-e25e0596-e06e-489b-b636-6f9bc2bb117f" d="m66.74,61.52c.14-.09.3-.13.46-.14.15,0,.29.03.42.1.07.04.13.1.17.17.02.07,0,.14-.04.19l.71.12h.03s.02.01.02.02c0,.01,0,.02-.02.02l-.16.09s-.05.02-.07.02c-.02,0-.04,0-.06,0l-.67-.11-.25.14.43.25s.02.02.02.04c0,0,0,.01-.02.02l-.15.09s-.03.01-.05.01c-.02,0-.03,0-.05-.02l-1.2-.69s-.02-.02-.02-.04c0,0,0-.01.02-.02l.48-.27Zm.3.5l.27-.15c.05-.03.1-.07.13-.12.02-.04,0-.08-.08-.12-.06-.04-.13-.05-.2-.05-.07.01-.14.04-.2.08l-.27.15.35.2Z"/>
      <path class="uuid-e25e0596-e06e-489b-b636-6f9bc2bb117f" d="m67.99,60.8c.09-.05.18-.09.27-.12.09-.02.18-.04.27-.04.09,0,.18.01.26.03.09.02.17.06.25.1.1.05.19.1.27.16.06.04.12.09.17.15.04.04.06.1.06.15,0,.06-.03.11-.06.15-.05.06-.12.11-.19.15l-.47.27s-.03.01-.05.01c-.02,0-.04,0-.05-.01l-1.2-.69s-.02-.02-.02-.03c0-.01,0-.02.02-.03l.45-.26Zm.81.12s-.09-.04-.13-.05c-.05-.01-.1-.02-.15-.02-.05,0-.1,0-.15.02-.06.01-.11.04-.16.07l-.25.14.83.48.26-.15s.08-.05.11-.09c.02-.02.03-.05.03-.09,0-.03-.01-.06-.03-.08-.02-.03-.05-.06-.09-.08-.09-.06-.18-.11-.28-.16Z"/>
    </g>
  </g>
  <g id="uuid-fa0eef21-a53e-49f9-9f96-8b44b2d55ef0" data-name="freepik--Gears--inject-179">
    <g id="uuid-8efb60d0-3e3a-46f2-906d-629b170c366b" data-name="freepik--gears--inject-179">
      <path class="uuid-f628acf1-54e6-4a69-a4aa-302715ef8884" d="m3.85,63.8h0v1.16h0s.02.07.05.09l.62.44s-.1.06-.16.07l-1.79.11c-.09.01-.16.09-.17.18v2.16c0,.09.08.17.17.18l1.79.11c.06,0,.11.03.15.06l-.62.44s-.05.05-.05.09h0v1.17h0s.03.07.06.09l1.34.78c.09.05.2.05.3.01l1.36-.63c.1-.04.21-.04.31-.02.35.11.7.19,1.06.25.09.02.17.1.19.19l.17.9c.02.09.1.16.2.17h1.99c.1,0,.18-.07.2-.17l.17-.9c.02-.09.1-.17.19-.19.36-.06.71-.14,1.06-.25.1-.03.21-.02.31.02l1.36.63c.1.04.2.03.3-.01l1.34-.77s.06-.05.06-.09h0v-1.16h0s-.02-.07-.05-.09l-.61-.44s.1-.06.15-.07l1.79-.11c.09,0,.17-.09.17-.18v-1.4h0v-.76c0-.09-.08-.17-.17-.18l-1.79-.11c-.06,0-.11-.03-.15-.06l.62-.44s.05-.05.05-.09h0v-1.16h0s-.03-.07-.06-.09l-1.34-.77c-.09-.05-.2-.05-.3-.01l-1.36.63c-.1.04-.21.04-.31.02-.35-.11-.7-.19-1.06-.25-.09-.02-.17-.1-.19-.19l-.17-.89c-.02-.09-.1-.16-.19-.17h-2c-.09,0-.17.07-.19.17l-.17.89c-.02.09-.1.17-.19.19-.36.06-.71.14-1.06.25-.1.03-.21.02-.31-.02l-1.38-.64c-.1-.04-.21-.03-.3.01l-1.34.77s-.06.06-.06.1Zm8.25,3.86c-1.25.72-3.28.72-4.53,0-.49-.28-.79-.63-.89-1,.13-.3.43-.59.89-.86,1.25-.72,3.28-.72,4.53,0,.49.28.78.6.87.92-.17.41-.48.74-.88.94h0Z"/>
      <path class="uuid-4f6df75e-3e01-4cdd-a6c9-b8ff6364f569" d="m3.85,63.8h0v1.16h0s.02.07.05.09l.62.44s-.1.06-.16.07l-1.79.11c-.09.01-.16.09-.17.18v2.16c0,.09.08.17.17.18l1.79.11c.06,0,.11.03.15.06l-.62.44s-.05.05-.05.09h0v1.17h0s.03.07.06.09l1.34.78c.09.05.2.05.3.01l1.36-.63c.1-.04.21-.04.31-.02.35.11.7.19,1.06.25.09.02.17.1.19.19l.17.9c.02.09.1.16.2.17h1.99c.1,0,.18-.07.2-.17l.17-.9c.02-.09.1-.17.19-.19.36-.06.71-.14,1.06-.25.1-.03.21-.02.31.02l1.36.63c.1.04.2.03.3-.01l1.34-.77s.06-.05.06-.09h0v-1.16h0s-.02-.07-.05-.09l-.61-.44s.1-.06.15-.07l1.79-.11c.09,0,.17-.09.17-.18v-1.4h0v-.76c0-.09-.08-.17-.17-.18l-1.79-.11c-.06,0-.11-.03-.15-.06l.62-.44s.05-.05.05-.09h0v-1.16h0s-.03-.07-.06-.09l-1.34-.77c-.09-.05-.2-.05-.3-.01l-1.36.63c-.1.04-.21.04-.31.02-.35-.11-.7-.19-1.06-.25-.09-.02-.17-.1-.19-.19l-.17-.89c-.02-.09-.1-.16-.19-.17h-2c-.09,0-.17.07-.19.17l-.17.89c-.02.09-.1.17-.19.19-.36.06-.71.14-1.06.25-.1.03-.21.02-.31-.02l-1.38-.64c-.1-.04-.21-.03-.3.01l-1.34.77s-.06.06-.06.1Zm8.25,3.86c-1.25.72-3.28.72-4.53,0-.49-.28-.79-.63-.89-1,.13-.3.43-.59.89-.86,1.25-.72,3.28-.72,4.53,0,.49.28.78.6.87.92-.17.41-.48.74-.88.94h0Z"/>
      <path class="uuid-19becfd9-1bc0-4360-b41c-95f4e8f5e883" d="m14.67,67.82c-.06.05-.06.14,0,.2,0,0,.01.01.02.02l.45.32s.1-.06.16-.06l1.79-.11c.09-.01.16-.08.17-.17v-1.16c0,.09-.07.17-.17.18l-1.79.11c-.1.01-.19.07-.24.16-.11.19-.24.36-.39.52Zm1.13-4.02s-.03.06-.05.08l-1.06.76c-.06.04-.08.13-.04.2,0,0,.01.02.02.02.15.16.27.34.38.53.02.04.05.07.09.1l.62-.45s.05-.05.05-.09h0v-1.15Z"/>
      <path class="uuid-19becfd9-1bc0-4360-b41c-95f4e8f5e883" d="m7.56,65.04c1.25-.72,3.28-.72,4.53,0,.79.46,1.08,1.09.87,1.68-.09-.32-.38-.64-.87-.92-1.25-.72-3.28-.72-4.53,0-.38.19-.69.48-.89.85-.17-.57.13-1.17.89-1.61Z"/>
      <path class="uuid-f628acf1-54e6-4a69-a4aa-302715ef8884" d="m2.41,68.01c0,.09.08.17.17.18l1.79.11s.06.01.09.03v-1.16s-.06-.02-.09-.02l-1.79-.11c-.08,0-.15-.07-.17-.15v1.14Zm1.44-3.05h0s.02.07.05.09l.62.44s.06-.06.08-.09c.1-.18.22-.35.36-.5l.02-.02s.03-.04.04-.06c0,0,0-.02,0-.02,0-.01,0-.03,0-.05,0-.02-.02-.05-.03-.07,0,0-.02-.02-.03-.02l-1.06-.76s-.02-.01-.02-.02c-.01,0-.02-.02-.02-.03,0-.01,0-.02,0-.04h0v1.17Zm0,5.1s.03.07.06.09l1.34.78c.06.03.14.05.21.04v-1.16c-.07.01-.14,0-.21-.04l-1.34-.78s-.06-.05-.06-.08v1.15Zm8.77.22s.09.01.13.03l1.36.63s.08.02.12.02v-1.16s-.08,0-.12-.02l-1.36-.63s-.09-.03-.13-.03v1.16Zm-3.94,1.42c.04.06.1.1.17.1h1.97s.09-.02.12-.04v-1.16s-.08.04-.12.04h-1.98c-.07,0-.13-.03-.17-.09v1.15Z"/>
      <path class="uuid-ccf30473-69cf-40fa-ae9e-0b4a24487639" d="m2.41,68.01c0,.09.08.17.17.18l1.79.11s.06.01.09.03v-1.16s-.06-.02-.09-.02l-1.79-.11c-.08,0-.15-.07-.17-.15v1.14Zm1.44-3.05h0s.02.07.05.09l.62.44s.06-.06.08-.09c.1-.18.22-.35.36-.5l.02-.02s.03-.04.04-.06c0,0,0-.02,0-.02,0-.01,0-.03,0-.05,0-.02-.02-.05-.03-.07,0,0-.02-.02-.03-.02l-1.06-.76s-.02-.01-.02-.02c-.01,0-.02-.02-.02-.03,0-.01,0-.02,0-.04h0v1.17Zm0,5.1s.03.07.06.09l1.34.78c.06.03.14.05.21.04v-1.16c-.07.01-.14,0-.21-.04l-1.34-.78s-.06-.05-.06-.08v1.15Zm8.77.22s.09.01.13.03l1.36.63s.08.02.12.02v-1.16s-.08,0-.12-.02l-1.36-.63s-.09-.03-.13-.03v1.16Zm-3.94,1.42c.04.06.1.1.17.1h1.97s.09-.02.12-.04v-1.16s-.08.04-.12.04h-1.98c-.07,0-.13-.03-.17-.09v1.15Z"/>
      <path class="uuid-f628acf1-54e6-4a69-a4aa-302715ef8884" d="m5.25,62.93l-1.34.77c-.05.02-.08.08-.06.13.01.03.03.05.06.06l1.06.76c.06.04.08.13.04.2,0,0-.01.02-.02.02-.15.16-.27.34-.38.53-.05.09-.14.15-.24.16l-1.79.11c-.09.01-.16.09-.17.18v1c0,.09.08.17.17.18l1.79.11c.1.01.19.07.24.16.1.19.23.36.37.52.06.05.06.14,0,.2,0,0-.01.01-.02.02l-1.06.76c-.05.02-.08.08-.06.13.01.03.03.05.06.06l1.34.78c.09.05.2.05.3.01l1.37-.64c.1-.04.21-.05.31-.02.35.11.7.19,1.06.25.09.02.17.1.19.19l.17.9c.02.09.1.16.19.16h1.99c.09,0,.17-.07.19-.16l.17-.9c.02-.09.1-.17.19-.19.36-.06.71-.14,1.06-.25.1-.03.21-.02.31.02l1.36.63c.1.04.2.03.3-.01l1.35-.77c.05-.02.08-.08.06-.13-.01-.03-.03-.05-.06-.06l-1.06-.76c-.07-.04-.08-.13-.04-.2,0,0,.01-.02.02-.02.15-.16.27-.34.38-.53.05-.09.14-.15.24-.16l1.79-.11c.09-.01.16-.09.17-.18v-1c0-.09-.08-.17-.17-.18l-1.79-.11c-.1-.01-.19-.07-.24-.16-.1-.19-.23-.37-.38-.53-.06-.05-.06-.14,0-.2,0,0,.01-.01.02-.02l1.06-.76c.05-.02.08-.08.06-.13-.01-.03-.03-.05-.06-.06l-1.34-.77c-.09-.05-.2-.05-.3-.01l-1.36.63c-.1.04-.21.04-.31.02-.35-.11-.7-.19-1.06-.25-.09-.02-.17-.1-.19-.19l-.17-.89c-.02-.09-.1-.16-.19-.17h-1.99c-.09,0-.17.07-.19.17l-.17.89c-.02.09-.1.17-.19.19-.36.06-.71.14-1.06.25-.1.03-.21.02-.31-.02l-1.38-.62c-.1-.04-.21-.03-.3.02Zm6.84,2.11c1.25.72,1.25,1.89,0,2.62s-3.28.72-4.53,0-1.25-1.89,0-2.62,3.28-.72,4.53,0h0Z"/>
      <g class="uuid-deac5e0d-bb57-4d5d-9da8-15f05f10157f">
        <path class="uuid-9fc08046-0c6a-4180-b261-b9f5fb7d743b" d="m5.25,62.93l-1.34.77c-.05.02-.08.08-.06.13.01.03.03.05.06.06l1.06.76c.06.04.08.13.04.2,0,0-.01.02-.02.02-.15.16-.27.34-.38.53-.05.09-.14.15-.24.16l-1.79.11c-.09.01-.16.09-.17.18v1c0,.09.08.17.17.18l1.79.11c.1.01.19.07.24.16.1.19.23.36.37.52.06.05.06.14,0,.2,0,0-.01.01-.02.02l-1.06.76c-.05.02-.08.08-.06.13.01.03.03.05.06.06l1.34.78c.09.05.2.05.3.01l1.37-.64c.1-.04.21-.05.31-.02.35.11.7.19,1.06.25.09.02.17.1.19.19l.17.9c.02.09.1.16.19.16h1.99c.09,0,.17-.07.19-.16l.17-.9c.02-.09.1-.17.19-.19.36-.06.71-.14,1.06-.25.1-.03.21-.02.31.02l1.36.63c.1.04.2.03.3-.01l1.35-.77c.05-.02.08-.08.06-.13-.01-.03-.03-.05-.06-.06l-1.06-.76c-.07-.04-.08-.13-.04-.2,0,0,.01-.02.02-.02.15-.16.27-.34.38-.53.05-.09.14-.15.24-.16l1.79-.11c.09-.01.16-.09.17-.18v-1c0-.09-.08-.17-.17-.18l-1.79-.11c-.1-.01-.19-.07-.24-.16-.1-.19-.23-.37-.38-.53-.06-.05-.06-.14,0-.2,0,0,.01-.01.02-.02l1.06-.76c.05-.02.08-.08.06-.13-.01-.03-.03-.05-.06-.06l-1.34-.77c-.09-.05-.2-.05-.3-.01l-1.36.63c-.1.04-.21.04-.31.02-.35-.11-.7-.19-1.06-.25-.09-.02-.17-.1-.19-.19l-.17-.89c-.02-.09-.1-.16-.19-.17h-1.99c-.09,0-.17.07-.19.17l-.17.89c-.02.09-.1.17-.19.19-.36.06-.71.14-1.06.25-.1.03-.21.02-.31-.02l-1.38-.62c-.1-.04-.21-.03-.3.02Zm6.84,2.11c1.25.72,1.25,1.89,0,2.62s-3.28.72-4.53,0-1.25-1.89,0-2.62,3.28-.72,4.53,0h0Z"/>
        <path class="uuid-9fc08046-0c6a-4180-b261-b9f5fb7d743b" d="m10.81,70.7h-1.97c-.13,0-.24-.09-.26-.22l-.17-.9c-.02-.07-.07-.12-.14-.14-.36-.06-.72-.14-1.06-.25-.09-.02-.18-.02-.26.02l-1.36.63c-.12.05-.25.04-.36-.02l-1.34-.78c-.05-.03-.09-.08-.1-.14,0-.06.03-.12.08-.15l1.06-.77s.03-.03.03-.05c0-.02,0-.05-.02-.07-.15-.16-.28-.34-.39-.54-.04-.07-.11-.11-.19-.13l-1.79-.11c-.13,0-.23-.11-.23-.24v-1c0-.13.1-.23.23-.24l1.79-.11c.08-.01.15-.06.19-.13.11-.2.24-.38.39-.54.02-.02.03-.04.02-.07,0-.02-.02-.04-.03-.05l-1.06-.76c-.08-.05-.1-.15-.06-.23.02-.03.04-.05.07-.06l1.34-.77c.11-.06.24-.06.36-.02l1.36.63c.08.03.18.04.26.02.35-.11.7-.19,1.06-.25.07-.01.13-.07.14-.14l.17-.9c.03-.12.13-.22.26-.22h1.98c.13,0,.24.09.26.22l.17.9c.02.07.07.12.14.14.36.06.72.15,1.06.25.09.02.18.02.26-.02l1.36-.63c.12-.05.25-.04.36.02l1.34.77c.05.03.09.08.1.14,0,.06-.03.12-.08.15l-1.06.76s-.03.03-.03.05c0,.02,0,.05.02.07.15.16.28.35.39.54.04.07.11.11.19.13l1.79.11c.13,0,.23.12.23.24v1c0,.13-.1.23-.23.24l-1.79.11c-.08.01-.15.06-.19.13-.11.19-.24.38-.39.54-.02.02-.03.04-.02.07,0,.02.02.04.03.05l1.06.77s.08.09.08.15c0,.06-.04.11-.1.14l-1.34.78c-.11.06-.24.06-.36.02l-1.36-.64c-.08-.03-.18-.04-.26-.02-.35.11-.7.19-1.06.25-.07.02-.13.07-.14.14l-.17.9c-.03.13-.14.22-.27.22Zm-3.72-1.65s.1,0,.15.02c.34.11.69.19,1.05.25.12.03.22.12.25.24l.17.9c.02.06.07.11.13.11h1.97c.06,0,.12-.05.13-.11l.17-.9c.03-.12.13-.22.25-.24.35-.06.7-.14,1.05-.25.12-.03.24-.03.36.02l1.36.63c.08.03.16.03.24-.01l1.34-.77s.03-.02.03-.03,0-.02-.03-.04l-1.06-.76c-.09-.06-.12-.19-.05-.29,0-.01.01-.02.02-.03.15-.15.27-.33.38-.51.06-.11.17-.17.29-.19l1.79-.11c.06,0,.1-.05.11-.11v-1c0-.06-.05-.11-.11-.11l-1.79-.11c-.12-.01-.23-.08-.29-.19-.1-.19-.23-.36-.38-.51-.04-.04-.07-.11-.06-.17,0-.06.04-.11.09-.15l1.06-.77s.02-.02.03-.04c0-.01-.01-.02-.03-.03l-1.34-.78c-.08-.03-.16-.03-.24,0l-1.36.63c-.11.05-.24.06-.36.02-.34-.11-.69-.19-1.05-.25-.12-.03-.22-.12-.25-.24l-.17-.9c-.02-.06-.07-.11-.13-.11h-1.97c-.06,0-.12.05-.13.11l-.17.9c-.03.12-.13.22-.25.24-.35.05-.7.12-1.04.22-.12.03-.24.02-.36-.02l-1.36-.63c-.08-.03-.16-.03-.24,0l-1.34.78s-.03.02-.03.03c0,.02.01.03.03.04l1.06.77s.08.09.09.15c0,.06-.02.12-.06.17-.15.16-.27.33-.38.51-.06.1-.17.17-.29.19l-1.79.11c-.06,0-.11.05-.11.11v1c0,.06.05.11.11.11l1.79.11c.12.01.23.08.29.19.1.19.23.36.38.51.04.04.06.11.06.17,0,.06-.04.11-.09.15l-1.06.76s-.03.03-.03.04.01.02.03.03l1.33.81c.07.04.16.04.24.01l1.36-.63c.07-.03.14-.04.21-.04Zm2.73-.78c-.8.02-1.59-.17-2.3-.55-.63-.36-.97-.85-.97-1.37s.34-1,.97-1.36c1.27-.73,3.33-.73,4.6,0,.63.36.97.85.97,1.36s-.34,1-.97,1.37c-.71.38-1.5.57-2.3.55Zm0-3.7c-.78-.02-1.55.17-2.24.53-.58.34-.91.78-.91,1.25s.32.92.91,1.25c1.23.71,3.24.71,4.47,0,.58-.34.91-.78.91-1.25s-.32-.91-.91-1.25c-.69-.36-1.46-.55-2.24-.53Z"/>
      </g>
      <path class="uuid-f628acf1-54e6-4a69-a4aa-302715ef8884" d="m19.75,69.58c-.11.04-.24.05-.36.02l-.84-.26c-.12-.03-.24,0-.33.07l-.55.46s-.05.06-.05.1h0v.89h0s.03.09.08.11l.3.15-.77.13c-.08.01-.14.08-.14.17h0v.89h0s0,.04,0,.05l.15.48c.04.11.14.18.25.18l.99-.04c.09,0,.17.03.24.07l-.05.05s-.04.06-.04.1h0v.89h0c0,.05.04.1.09.12l.87.35c.11.04.24.02.34-.04l.58-.39c.11-.06.23-.08.35-.07.19.03.38.06.57.07.12.02.22.09.28.19l.22.42c.06.1.17.16.28.15l1.08-.11c.1-.01.17-.09.17-.19h0v-.6s.07-.06.11-.08c.15-.05.31-.11.45-.17.11-.04.24-.05.36-.02l.84.26c.11.03.24,0,.33-.07l.55-.46s.05-.06.05-.1h0v-.89h0s-.03-.09-.08-.11l-.3-.15.77-.13c.08-.01.14-.08.14-.15h0v-.89h0s0-.04,0-.06l-.15-.48c-.04-.11-.14-.18-.25-.18l-.99.04c-.08,0-.17-.03-.24-.07l.05-.05s.04-.06.04-.1h0v-.88h0c0-.06-.04-.1-.09-.12l-.87-.35c-.11-.04-.24-.03-.34.03l-.58.39c-.11.06-.23.09-.35.07-.19-.03-.38-.05-.57-.07-.12-.01-.22-.08-.28-.19l-.21-.42c-.06-.1-.17-.16-.28-.15l-1.08.11c-.1.01-.18.1-.17.21,0,0,0,0,0,0l.05.41c0,.11-.06.21-.16.25-.15.05-.3.11-.45.17Zm3.82,2.31c-.65.54-1.94.68-2.88.3-.29-.1-.55-.29-.74-.54.06-.09.14-.17.22-.23.65-.54,1.94-.68,2.88-.3.29.1.55.29.74.53-.06.09-.14.17-.22.24Z"/>
      <path class="uuid-4f6df75e-3e01-4cdd-a6c9-b8ff6364f569" d="m19.75,69.58c-.11.04-.24.05-.36.02l-.84-.26c-.12-.03-.24,0-.33.07l-.55.46s-.05.06-.05.1h0v.89h0s.03.09.08.11l.3.15-.77.13c-.08.01-.14.08-.14.17h0v.89h0s0,.04,0,.05l.15.48c.04.11.14.18.25.18l.99-.04c.09,0,.17.03.24.07l-.05.05s-.04.06-.04.1h0v.89h0c0,.05.04.1.09.12l.87.35c.11.04.24.02.34-.04l.58-.39c.11-.06.23-.08.35-.07.19.03.38.06.57.07.12.02.22.09.28.19l.22.42c.06.1.17.16.28.15l1.08-.11c.1-.01.17-.09.17-.19h0v-.6s.07-.06.11-.08c.15-.05.31-.11.45-.17.11-.04.24-.05.36-.02l.84.26c.11.03.24,0,.33-.07l.55-.46s.05-.06.05-.1h0v-.89h0s-.03-.09-.08-.11l-.3-.15.77-.13c.08-.01.14-.08.14-.15h0v-.89h0s0-.04,0-.06l-.15-.48c-.04-.11-.14-.18-.25-.18l-.99.04c-.08,0-.17-.03-.24-.07l.05-.05s.04-.06.04-.1h0v-.88h0c0-.06-.04-.1-.09-.12l-.87-.35c-.11-.04-.24-.03-.34.03l-.58.39c-.11.06-.23.09-.35.07-.19-.03-.38-.05-.57-.07-.12-.01-.22-.08-.28-.19l-.21-.42c-.06-.1-.17-.16-.28-.15l-1.08.11c-.1.01-.18.1-.17.21,0,0,0,0,0,0l.05.41c0,.11-.06.21-.16.25-.15.05-.3.11-.45.17Zm3.82,2.31c-.65.54-1.94.68-2.88.3-.29-.1-.55-.29-.74-.54.06-.09.14-.17.22-.23.65-.54,1.94-.68,2.88-.3.29.1.55.29.74.53-.06.09-.14.17-.22.24Z"/>
      <path class="uuid-19becfd9-1bc0-4360-b41c-95f4e8f5e883" d="m25.28,71.74c-.05.09-.01.21.08.25l.4.2.77-.13c.08-.01.14-.08.14-.15v-.88c0,.07-.07.14-.14.15l-.94.16c-.11.03-.2.11-.23.22-.02.06-.04.12-.07.18Zm-.16-2.51s-.02.07-.04.1l-.39.42c-.06.07-.06.17,0,.24,0,0,.01.01.02.02.08.07.16.14.24.21.02.03.05.05.08.06l.05-.05s.04-.06.04-.1h0v-.89Z"/>
      <path class="uuid-19becfd9-1bc0-4360-b41c-95f4e8f5e883" d="m23.05,70.23c.81.32,1.09.92.74,1.43-.19-.25-.44-.43-.74-.54-.94-.38-2.23-.24-2.88.3-.08.07-.16.15-.22.23-.25-.36-.19-.78.22-1.13.65-.53,1.94-.67,2.88-.29Z"/>
      <path class="uuid-f628acf1-54e6-4a69-a4aa-302715ef8884" d="m21.59,74.2s.07.06.09.1l.22.42c.03.06.09.11.16.13v-.89c-.07-.02-.12-.07-.16-.13l-.22-.42s-.05-.08-.09-.1v.89Zm-2.98-.12c0,.05.04.1.09.12l.87.35c.07.02.15.02.23,0v-.89c-.07.02-.15.02-.23,0l-.86-.35c-.05-.02-.09-.06-.09-.12h0v.89Zm5.74-.38l.83.26c.07.02.14.02.21,0v-.89c-.07.02-.14.02-.21,0l-.83-.26v.89Zm-7.29-1.41s0,.04,0,.05l.15.48c.04.1.14.17.25.18l.99-.04c.05,0,.11.01.15.03v-.89s-.1-.03-.15-.03l-.99.04c-.11,0-.21-.07-.25-.18l-.15-.48s0-.03,0-.05v.89Zm.53-1.44h0s.03.09.08.11l.3.15.17-.03c.11-.03.2-.11.23-.22.02-.07.04-.13.07-.19,0-.02.01-.03.02-.05,0-.01,0-.02,0-.04,0-.02,0-.05,0-.07,0-.03-.03-.05-.05-.07-.01-.01-.03-.02-.04-.03l-.69-.35s-.03-.02-.04-.03c-.01-.01-.02-.03-.03-.05,0,0,0-.02,0-.03v.89Z"/>
      <path class="uuid-ccf30473-69cf-40fa-ae9e-0b4a24487639" d="m21.59,74.2s.07.06.09.1l.22.42c.03.06.09.11.16.13v-.89c-.07-.02-.12-.07-.16-.13l-.22-.42s-.05-.08-.09-.1v.89Zm-2.98-.12c0,.05.04.1.09.12l.87.35c.07.02.15.02.23,0v-.89c-.07.02-.15.02-.23,0l-.86-.35c-.05-.02-.09-.06-.09-.12h0v.89Zm5.74-.38l.83.26c.07.02.14.02.21,0v-.89c-.07.02-.14.02-.21,0l-.83-.26v.89Zm-7.29-1.41s0,.04,0,.05l.15.48c.04.1.14.17.25.18l.99-.04c.05,0,.11.01.15.03v-.89s-.1-.03-.15-.03l-.99.04c-.11,0-.21-.07-.25-.18l-.15-.48s0-.03,0-.05v.89Zm.53-1.44h0s.03.09.08.11l.3.15.17-.03c.11-.03.2-.11.23-.22.02-.07.04-.13.07-.19,0-.02.01-.03.02-.05,0-.01,0-.02,0-.04,0-.02,0-.05,0-.07,0-.03-.03-.05-.05-.07-.01-.01-.03-.02-.04-.03l-.69-.35s-.03-.02-.04-.03c-.01-.01-.02-.03-.03-.05,0,0,0-.02,0-.03v.89Z"/>
      <path class="uuid-f628acf1-54e6-4a69-a4aa-302715ef8884" d="m18.21,69.4l-.55.46c-.05.03-.07.11-.04.16.01.02.04.04.06.05l.69.35c.09.05.13.16.08.25-.03.06-.05.12-.07.19-.03.11-.12.19-.23.22l-.94.16c-.09.01-.15.09-.14.18,0,.01,0,.02,0,.03l.15.48c.04.11.14.18.25.18l.99-.04c.12,0,.23.05.32.14.07.08.15.15.24.21.08.05.09.16.04.23,0,0-.01.02-.02.02l-.39.42c-.05.04-.06.12-.01.17.02.02.04.03.06.04l.87.35c.11.04.24.02.34-.04l.58-.38c.11-.06.23-.09.35-.07.19.03.38.05.57.07.12.02.22.09.28.19l.22.42c.06.1.17.16.28.15l1.08-.11c.1-.01.18-.1.17-.21,0,0,0,0,0,0l-.05-.41c0-.11.06-.21.16-.25.15-.05.31-.1.45-.17.11-.04.24-.05.36-.02l.84.26c.11.03.24,0,.33-.07l.55-.46c.05-.03.07-.11.04-.16-.01-.02-.04-.04-.06-.05l-.69-.36c-.09-.05-.13-.16-.08-.25,0,0,0,0,0,0,.03-.06.05-.12.07-.19.03-.11.12-.19.23-.22l.94-.16c.09-.01.15-.09.14-.18,0-.01,0-.02,0-.03l-.15-.48c-.04-.11-.14-.18-.25-.18l-.99.04c-.12,0-.23-.05-.32-.14-.07-.08-.15-.15-.24-.21-.08-.05-.09-.16-.04-.23,0,0,0-.01.02-.02l.39-.42c.05-.04.06-.12.02-.17-.02-.02-.04-.03-.06-.04l-.87-.34c-.11-.04-.24-.03-.34.03l-.58.39c-.11.06-.23.09-.35.07-.19-.03-.38-.05-.57-.07-.12-.01-.22-.08-.28-.19l-.21-.42c-.06-.1-.17-.16-.28-.15l-1.08.11c-.1.01-.18.1-.17.21,0,0,0,0,0,0l.05.41c0,.11-.06.21-.16.25-.15.05-.3.1-.45.17-.11.04-.24.05-.36.02l-.84-.26c-.12-.03-.24,0-.33.07Zm4.84.82c.94.38,1.17,1.12.52,1.66s-1.94.68-2.88.3-1.17-1.12-.52-1.66,1.94-.68,2.88-.3Z"/>
      <g class="uuid-deac5e0d-bb57-4d5d-9da8-15f05f10157f">
        <path class="uuid-9fc08046-0c6a-4180-b261-b9f5fb7d743b" d="m18.21,69.4l-.55.46c-.05.03-.07.11-.04.16.01.02.04.04.06.05l.69.35c.09.05.13.16.08.25-.03.06-.05.12-.07.19-.03.11-.12.19-.23.22l-.94.16c-.09.01-.15.09-.14.18,0,.01,0,.02,0,.03l.15.48c.04.11.14.18.25.18l.99-.04c.12,0,.23.05.32.14.07.08.15.15.24.21.08.05.09.16.04.23,0,0-.01.02-.02.02l-.39.42c-.05.04-.06.12-.01.17.02.02.04.03.06.04l.87.35c.11.04.24.02.34-.04l.58-.38c.11-.06.23-.09.35-.07.19.03.38.05.57.07.12.02.22.09.28.19l.22.42c.06.1.17.16.28.15l1.08-.11c.1-.01.18-.1.17-.21,0,0,0,0,0,0l-.05-.41c0-.11.06-.21.16-.25.15-.05.31-.1.45-.17.11-.04.24-.05.36-.02l.84.26c.11.03.24,0,.33-.07l.55-.46c.05-.03.07-.11.04-.16-.01-.02-.04-.04-.06-.05l-.69-.36c-.09-.05-.13-.16-.08-.25,0,0,0,0,0,0,.03-.06.05-.12.07-.19.03-.11.12-.19.23-.22l.94-.16c.09-.01.15-.09.14-.18,0-.01,0-.02,0-.03l-.15-.48c-.04-.11-.14-.18-.25-.18l-.99.04c-.12,0-.23-.05-.32-.14-.07-.08-.15-.15-.24-.21-.08-.05-.09-.16-.04-.23,0,0,0-.01.02-.02l.39-.42c.05-.04.06-.12.02-.17-.02-.02-.04-.03-.06-.04l-.87-.34c-.11-.04-.24-.03-.34.03l-.58.39c-.11.06-.23.09-.35.07-.19-.03-.38-.05-.57-.07-.12-.01-.22-.08-.28-.19l-.21-.42c-.06-.1-.17-.16-.28-.15l-1.08.11c-.1.01-.18.1-.17.21,0,0,0,0,0,0l.05.41c0,.11-.06.21-.16.25-.15.05-.3.1-.45.17-.11.04-.24.05-.36.02l-.84-.26c-.12-.03-.24,0-.33.07Zm4.84.82c.94.38,1.17,1.12.52,1.66s-1.94.68-2.88.3-1.17-1.12-.52-1.66,1.94-.68,2.88-.3Z"/>
        <path class="uuid-9fc08046-0c6a-4180-b261-b9f5fb7d743b" d="m22.16,74.06c-.13,0-.26-.07-.32-.19l-.22-.42c-.05-.08-.13-.13-.22-.14-.19-.02-.38-.04-.57-.07-.1-.01-.21,0-.29.06l-.58.38c-.12.07-.27.09-.41.04l-.87-.35c-.07-.02-.12-.08-.13-.15-.01-.07.01-.14.06-.19l.39-.42s.03-.04.03-.07c0-.03-.02-.05-.04-.07-.09-.07-.17-.14-.25-.22-.07-.07-.16-.11-.26-.11l-.99.04c-.15,0-.28-.09-.32-.23l-.15-.48c-.02-.07-.01-.14.02-.2.04-.06.1-.1.17-.11l.94-.16c.08-.02.15-.09.17-.17.02-.06.05-.13.08-.19.03-.06.01-.13-.04-.16,0,0,0,0,0,0l-.69-.35c-.06-.03-.11-.09-.12-.16,0-.07.03-.14.08-.18l.55-.46c.11-.09.26-.12.4-.08l.84.26c.1.02.21.02.31-.02.15-.06.3-.12.46-.17.07-.02.11-.09.11-.16l-.05-.41c-.02-.14.08-.28.23-.29,0,0,0,0,0,0l1.08-.11c.14-.01.28.06.35.19l.22.42c.05.08.13.13.22.14.19.02.38.04.57.07.1.01.21,0,.29-.06l.58-.38c.12-.07.27-.09.41-.04l.87.35c.07.02.12.08.13.15.01.07,0,.14-.06.19l-.39.42s-.03.04-.03.07c0,.03.02.06.04.07.09.07.17.14.24.22.07.07.17.11.26.11l.99-.04c.15,0,.28.09.32.23l.15.48c.02.07.01.14-.02.2-.04.06-.1.1-.17.11l-.94.16c-.08.02-.15.09-.17.17-.02.06-.04.13-.07.19-.03.05-.01.12.04.15,0,0,0,0,0,0l.69.35c.1.03.15.14.11.24-.01.04-.04.07-.07.09l-.55.46c-.12.09-.26.12-.4.08l-.84-.26c-.1-.02-.21-.02-.31.02-.15.06-.3.12-.46.17-.07.02-.11.09-.11.16l.05.41c0,.07-.01.14-.06.19-.05.06-.11.09-.19.1l-1.08.11h-.02Zm-1.38-.98s.06,0,.08,0c.19.03.36.05.55.07.14.02.27.1.34.22l.22.42c.04.07.12.11.2.11l1.08-.11s.06-.02.08-.04c.02-.02.03-.05.02-.08l-.05-.41c-.01-.15.08-.28.22-.33.15-.05.3-.1.44-.16.13-.05.27-.06.41-.02l.84.26c.09.02.19,0,.26-.05l.55-.46s.03-.03.03-.05-.02-.03-.04-.04l-.69-.35c-.13-.07-.18-.22-.11-.35,0,0,0,0,0,0,.03-.06.05-.12.07-.18.04-.14.15-.24.29-.27l.94-.16s.05-.02.07-.04c.01-.02.01-.05,0-.08l-.15-.48c-.03-.07-.1-.12-.17-.12l-.99.04c-.14,0-.28-.06-.38-.16-.07-.07-.15-.14-.23-.2-.06-.05-.1-.11-.1-.19,0-.07.02-.14.07-.19l.39-.42s.03-.04.02-.05c0-.02-.02-.03-.04-.04l-.87-.35c-.09-.03-.19-.02-.27.03l-.58.38c-.12.07-.26.1-.4.08-.18-.03-.37-.05-.55-.07-.14-.01-.27-.1-.34-.22l-.2-.39c-.04-.07-.12-.11-.2-.11l-1.08.11s-.06.02-.08.04c-.02.02-.03.05-.02.08l.05.41c.01.15-.08.28-.22.33-.15.05-.3.1-.44.16-.13.05-.27.06-.41.03l-.84-.26c-.09-.02-.19,0-.26.05l-.55.46s-.03.03-.03.05c0,.01.02.03.04.04l.69.35c.13.07.18.22.12.35,0,0,0,0,0,0-.03.06-.05.12-.07.18-.04.14-.15.24-.29.27l-.94.16s-.05.02-.06.04c-.01.02-.01.05,0,.08l.15.48c.03.07.1.12.18.12l.99-.04c.14,0,.28.06.38.16.07.07.15.14.23.2.06.05.1.11.1.19,0,.07-.02.14-.07.19l-.39.42s-.02.03-.02.05c0,.01.02.03.04.04l.87.35c.09.03.19.02.27-.03l.58-.39c.09-.06.2-.09.31-.1h0Zm1.09-.6c-.41,0-.82-.07-1.2-.22-.53-.21-.87-.55-.93-.93-.04-.33.11-.66.38-.86.67-.56,2-.7,2.95-.31.53.21.87.55.93.93.03.33-.11.66-.39.86-.4.34-1.07.53-1.74.53h0Zm0-2.39c-.64,0-1.26.17-1.65.5-.23.16-.36.44-.33.72.05.33.36.62.83.82.92.37,2.17.24,2.8-.29.23-.16.36-.43.33-.72-.05-.33-.35-.62-.83-.82-.36-.14-.75-.21-1.14-.21h0Z"/>
      </g>
    </g>
  </g>
  <g id="uuid-ab37b3d9-5e92-4bcb-ad0a-e52367afa808" data-name="freepik--Device--inject-179">
    <g id="uuid-634bea3f-836d-4a8d-9b4a-e7ae0811d292" data-name="freepik--Laptop--inject-179">
      <path class="uuid-c08dffd1-19cc-437b-82f1-da75b5872a2a" d="m9.74,56.4c0,.62.47,1.02,1.04,1.35l23.58,13.61c.65.33,1.42.33,2.08,0l38.05-21.96c.58-.33,1.04-.76,1.04-1.38s-.47-1.01-1.04-1.34l-23.58-13.61c-.65-.33-1.42-.33-2.08,0L10.79,55.03c-.58.33-1.04.75-1.04,1.37Z"/>
      <path class="uuid-18a9fb9c-8cae-499a-9e06-1068b23b073a" d="m10.79,56.23l23.58,13.61c.65.33,1.42.33,2.08,0l38.05-21.96c.58-.33.58-.87,0-1.2l-23.58-13.61c-.65-.33-1.42-.33-2.08,0L10.79,55.03c-.58.33-.58.87,0,1.2Z"/>
      <path class="uuid-479e3639-a997-41d0-b70b-da522aed6d9f" d="m35.41,70.09v1.51c-.36,0-.72-.08-1.04-.25l-23.58-13.6c-.58-.33-1.04-.73-1.04-1.35,0-.59.42-.99.96-1.32-.45.32-.46.85.08,1.16l23.58,13.61c.32.17.68.25,1.04.24Z"/>
      <path class="uuid-479e3639-a997-41d0-b70b-da522aed6d9f" d="m14,55.2l34.96-20.18c.31-.16.67-.16.98,0l1.27.72c.27.16.27.41,0,.57l-34.97,20.18c-.31.16-.67.16-.98,0l-1.27-.71c-.27-.16-.27-.41,0-.57Z"/>
      <path class="uuid-479e3639-a997-41d0-b70b-da522aed6d9f" d="m17.44,57.23l34.95-20.18c.27-.16.61-.18.9-.05l9.1,5.25c.22.13.19.36-.08.52l-34.92,20.16c-.27.16-.61.18-.9.05l-9.14-5.23c-.22-.13-.18-.36.09-.52Z"/>
      <path class="uuid-18a9fb9c-8cae-499a-9e06-1068b23b073a" d="m47.73,45.52l1.09-.63s.05-.07,0-.09l-1.05-.6s-.11-.03-.16,0l-1.09.63s-.05.07,0,.09l1.05.6c.05.03.12.03.17,0Zm-1.59-2.19l-1.09.63s-.05.07,0,.09l1.05.61c.05.02.11.02.16,0l1.09-.63s.05-.07,0-.09l-1.05-.6c-.05-.03-.12-.03-.17,0Zm-3.54,2.04l-1.85,1.07s-.05.07,0,.09l1.05.6c.05.02.11.02.16,0l1.85-1.07s.05-.07,0-.09l-1.05-.6s-.11-.03-.15,0h0Zm1.94-1.12l-1.09.63s-.05.07,0,.09l1.05.6c.05.02.11.02.16,0l1.09-.63s.05-.07,0-.09l-1.05-.61c-.05-.03-.11-.03-.16,0h0Zm-4.29,2.48l-1.09.63s-.05.07,0,.09l1.05.6s.11.03.16,0l1.09-.63s.05-.07,0-.09l-1.05-.6s-.11-.03-.16,0h0Zm-1.6.92l-1.09.63s-.05.07,0,.09l1.05.6s.11.03.16,0l1.09-.63s.05-.07,0-.09l-1.05-.6c-.05-.03-.11-.03-.16,0h0Zm4.09,2.47l1.09-.63s.05-.07,0-.09l-1.05-.6s-.11-.03-.16,0l-1.09.63s-.05.07,0,.09l1.05.6s.11.03.16,0Zm-1.6.92l1.09-.63s.05-.07,0-.09l-1.05-.6s-.11-.03-.16,0l-1.09.63s-.05.07,0,.09l1.05.6c.05.03.12.03.17,0h0Zm-1.6.92l1.09-.63s.05-.07,0-.09l-1.05-.6c-.05-.02-.11-.02-.16,0l-1.09.63s-.05.07,0,.09l1.05.61c.05.02.11.02.16,0h0Zm-1.6.93l1.09-.63s.05-.07,0-.09l-1.05-.61c-.05-.02-.11-.02-.16,0l-1.09.63s-.05.07,0,.09l1.05.6c.05.02.11.02.16,0Zm8.19-6.46l1.09-.63s.05-.07,0-.09l-1.05-.6s-.11-.03-.16,0l-1.09.63s-.05.07,0,.09l1.05.6s.11.03.16,0Zm-1.79,2.76l2.44-1.41s.05-.07,0-.09l-2.55-1.47c-.05-.02-.11-.02-.16,0l-1.26.73s-.05.07-.01.09l1.35.78s.04.06,0,.09l-1.01.58s-.05.07,0,.09l1.05.6c.05.03.11.03.16,0h0Zm-7.3-.62l-1.09.63s-.05.07,0,.09l1.05.6s.11.03.16,0l1.09-.63s.05-.07,0-.09l-1.05-.6c-.05-.03-.12-.03-.18,0h0Zm-1.61.92l-1.09.63s-.05.07,0,.09l1.04.6c.05.02.11.02.16,0l1.09-.63s.05-.07,0-.09l-1.04-.6c-.05-.02-.11-.02-.16,0Zm-8.85,9.86s.11.03.16,0l1.09-.63s.05-.07,0-.09l-1.05-.6c-.05-.02-.11-.02-.16,0l-1.07.63s-.05.07-.01.09l1.04.6Zm-3.95-2.47l-1.09.63s-.05.07,0,.09l1.05.6s.11.03.16,0l1.09-.63s.05-.07,0-.09l-1.05-.6c-.05-.03-.12-.03-.17,0h0Zm2.03,1.86c.05.02.11.02.16,0l1.09-.63s.05-.07,0-.09l-1.05-.61c-.05-.02-.11-.02-.16,0l-1.09.63s-.05.07,0,.09l1.05.61Zm4.41.99l1.09-.63s.05-.07,0-.09l-1.05-.6s-.11-.03-.16,0l-1.09.63s-.05.07,0,.09l1.05.6c.05.02.11.02.16,0h0Zm-1.76.94c.05.02.11.02.16,0l1.09-.63s.05-.07,0-.09l-1.05-.6c-.05-.02-.11-.02-.16,0l-1.09.63s-.05.07,0,.09l1.05.61Zm-3.09-4.71l-1.09.63s-.05.07,0,.09l1.05.6s.11.03.16,0l1.09-.63s.05-.07,0-.09l-1.05-.6s-.1-.02-.15,0Zm8-4.62l-1.09.63s-.05.07,0,.09l1.05.6c.05.03.11.03.16,0l1.09-.63s.05-.07,0-.09l-1.05-.6s-.11-.02-.15,0h0Zm-6.4,3.69l-1.09.63s-.05.07,0,.09l1.05.6s.11.03.16,0l1.09-.63s.05-.07,0-.09l-1.05-.6s-.1-.02-.15,0h0Zm8-4.62l-1.09.63s-.05.07,0,.09l1.05.6s.11.03.16,0l1.09-.63s.05-.07,0-.09l-1.05-.61s-.11-.02-.15,0h0Zm-3.21,1.85l-1.09.63s-.05.07,0,.09l1.05.6s.11.03.16,0l1.09-.63s.05-.07,0-.09l-1.05-.6s-.1-.02-.15,0h-.01Zm-1.6.92l-1.09.63s-.05.07,0,.09l1.05.61c.05.02.11.02.16,0l1.09-.63s.05-.07,0-.09l-1.05-.6s-.11-.02-.15,0h-.01Zm-1.58.92l-1.09.63s-.05.07,0,.09l1.05.6c.05.02.11.02.16,0l1.09-.63s.05-.07,0-.09l-1.05-.61c-.05-.02-.11-.02-.16,0Zm7.3.62l1.09-.63s.05-.07,0-.09l-1.05-.6s-.11-.03-.16,0l-1.09.63s-.05.07,0,.09l1.05.6s.1.02.15,0h0Zm14.91-13.45l-1.09.63s-.05.07,0,.09l1.05.6s.11.03.16,0l1.09-.63s.05-.07,0-.09l-1.05-.6s-.11-.03-.16,0h0Zm-1.93,1.12l-1.09.63s-.05.07,0,.09l1.05.6c.05.03.11.03.16,0l1.09-.63s.05-.07,0-.09l-1.05-.6c-.05-.03-.11-.03-.17,0h0Zm3.54-2.04l-1.09.63s-.05.07,0,.09l1.05.6s.11.03.16,0l1.09-.63s.05-.07,0-.09l-1.05-.61c-.05-.02-.11-.02-.15,0h0Zm-8.84,8.21l1.09-.63s.05-.07,0-.09l-1.05-.6s-.11-.03-.16,0l-1.09.63s-.05.07,0,.09l1.05.6s.11.03.16,0Zm10.6-9.14c-.05-.02-.11-.02-.16,0l-1.09.63s-.05.07,0,.09l1.05.61c.05.02.11.02.16,0l1.09-.63s.05-.07,0-.09l-1.05-.61Zm-16.68,14.38l1.09-.63s.05-.07,0-.09l-1.05-.6c-.05-.03-.11-.03-.16,0l-1.09.63s-.05.07,0,.09l1.05.6s.1.02.15,0h0Zm19.62-11.33l1.09-.63s.05-.07,0-.09l-1.05-.6c-.05-.02-.11-.02-.16,0l-1.09.63s-.05.07,0,.09l1.05.61s.1.02.15,0h0Zm-3.1.06l1.09-.63s.05-.07,0-.09l-1.05-.6s-.11-.03-.16,0l-1.09.63s-.05.07,0,.09l1.05.6s.11.03.16,0h0Zm1.66-2.25c-.05-.03-.11-.03-.16,0l-1.09.63s-.05.07,0,.09l1.05.6s.11.03.16,0l1.09-.63s.05-.07,0-.09l-1.05-.6Zm.34-.19l2.54,1.46s.11.03.16,0l1.09-.63s.05-.07,0-.09l-2.54-1.47s-.11-.03-.16,0l-1.09.63s-.05.07,0,.09h0Zm-3.69,2.05l-1.09.63s-.05.07,0,.09l1.05.61c.05.02.11.02.16,0l1.09-.63s.05-.07,0-.09l-1.05-.6s-.1-.02-.15,0h0Zm-12.04,6.95l-1.09.63s-.05.07,0,.09l1.05.61c.05.02.11.02.16,0l1.09-.63s.05-.07,0-.09l-1.05-.61s-.11-.03-.16,0h0Zm15.08-5.68c.05.02.11.02.16,0l1.09-.63s.05-.07,0-.09l-1.05-.61c-.05-.02-.11-.02-.16,0l-1.09.63s-.05.07,0,.09l1.05.6Zm-13.48,4.76l-1.09.63s-.05.07,0,.09l1.04.6c.05.02.11.02.16,0l1.09-.63s.05-.07,0-.09l-1.05-.6c-.05-.02-.11-.02-.16,0Zm-12.53,10.26s.11.03.16,0l1.09-.63s.05-.07,0-.09l-1.05-.6s-.11-.03-.16,0l-1.09.63s-.05.07,0,.09l1.04.6Zm-1.86-1.95l-1.09.63s-.05.07,0,.09l1.05.6s.11.03.16,0l1.09-.63s.05-.07,0-.09l-1.05-.6s-.11-.03-.16,0Zm3.62,1.02l1.09-.63s.05-.07,0-.09l-1.05-.6s-.11-.03-.16,0l-1.09.63s-.05.07,0,.09l1.05.6s.1.02.15,0h0Zm1.6-.93l1.09-.63s.05-.07,0-.09l-1.05-.6c-.05-.02-.11-.02-.16,0l-1.09.63s-.05.07,0,.09l1.05.6c.05.02.11.02.16,0h0Zm1.6-.93l1.09-.63s.05-.07,0-.09l-1.05-.6s-.11-.03-.16,0l-1.09.63s-.05.07,0,.09l1.05.61s.11.03.16,0h0Zm-5.22-.1l-1.09.63s-.05.07,0,.09l1.05.6s.11.03.16,0l1.09-.63s.05-.07,0-.09l-1.05-.6c-.05-.03-.11-.02-.16,0h0Zm1.6-.93l-1.09.63s-.05.07,0,.09l1.05.6s.11.03.16,0l1.09-.63s.05-.07,0-.09l-1.05-.6c-.05-.03-.11-.02-.16,0h0Zm6.4-3.7l-1.09.63s-.05.07,0,.09l1.05.6c.05.03.11.03.16,0l1.09-.63s.05-.07,0-.09l-1.05-.6s-.1-.02-.15,0h0Zm-1.6.92l-1.09.63s-.05.07,0,.09l1.05.6s.11.03.16,0l1.09-.63s.05-.07,0-.09l-1.05-.6c-.05-.02-.11-.02-.16,0h0Zm3.2-1.85l-1.09.63s-.05.07,0,.09l1.05.6s.11.03.16,0l1.09-.63s.05-.07,0-.09l-1.05-.61c-.05-.02-.11-.02-.16,0h0Zm-6.4,3.69l-1.09.63s-.05.07,0,.09l1.05.6c.05.02.11.02.16,0l1.09-.63s.05-.07,0-.09l-1.05-.61c-.05-.02-.11-.02-.16,0h0Zm1.6-.93l-1.09.63s-.05.07,0,.09l1.05.61c.05.02.11.02.16,0l1.09-.63s.05-.07,0-.09l-1.05-.6s-.1-.02-.15,0h0Zm-2.04,6.01l1.09-.63s.05-.07,0-.09l-1.05-.6s-.11-.03-.16,0l-1.09.63s-.05.07,0,.09l1.05.6s.11.03.16,0h0Zm-8.43-.4l-1.05-.6c-.05-.02-.11-.02-.16,0l-1.09.63s-.05.07,0,.09l1.05.61c.05.02.11.02.16,0l1.09-.63s.04-.06,0-.09h0Zm2.08.52l-1.05-.6s-.11-.03-.16,0l-1.68.99s-.05.07,0,.09l1.05.6s.11.03.16,0l1.68-.97s.04-.08,0-.1h0Zm-3.65-1.73l-1.05-.6s-.11-.03-.16,0l-1.35.78s-.05.07,0,.09l1.05.6s.11.03.16,0l1.35-.78s.05-.06,0-.09h0Zm1.03-.6s.11.03.16,0l1.09-.63s.05-.07,0-.09l-1.05-.6s-.11-.03-.16,0l-1.09.63s-.05.07,0,.09l1.05.6Zm4.53,2.93l-1.05-.6c-.05-.02-.11-.02-.16,0l-2.1,1.22s-.05.07,0,.09l1.05.61c.05.02.11.02.16,0l2.1-1.22c.05-.02.06-.06.02-.09h0Zm.74,1.3l-1.04-.59c-.05-.02-.11-.02-.16,0l-1.35.77s-.05.07,0,.09l1.05.6s.11.03.16,0l1.35-.78s.05-.07,0-.1h0Zm6.62-11.11c.05.02.11.02.16,0l1.09-.63s.05-.07,0-.09l-1.05-.61c-.05-.02-.11-.02-.16,0l-1.09.63s-.05.07,0,.09l1.04.6Zm-3.21,1.85c.05.03.11.03.16,0l1.09-.63s.05-.07,0-.09l-1.05-.6s-.11-.03-.16,0l-1.09.63s-.05.07,0,.09l1.05.6Zm-7.09,4.1c.05.02.11.02.16,0l1.09-.63s.05-.07,0-.09l-1.05-.61c-.05-.02-.11-.02-.16,0l-1.09.63s-.05.07,0,.09l1.04.6Zm8.69-5.02s.11.03.16,0l1.09-.63s.05-.07,0-.09l-1.05-.61c-.05-.02-.11-.02-.16,0l-1.09.63s-.05.07,0,.09l1.05.6Zm-3.21,1.85s.11.03.16,0l1.09-.63s.05-.07,0-.09l-1.05-.6s-.11-.03-.16,0l-1.09.63s-.05.07,0,.09l1.05.6Zm-1.04,8.4s-.11-.03-.16,0l-1.65.98s-.05.07,0,.09l1.05.61c.05.02.11.02.16,0l1.68-.97s.05-.07,0-.09l-1.08-.61Zm-1.23-7.08s.11.03.16,0l1.09-.63s.05-.07,0-.09l-1.05-.6s-.11-.03-.16,0l-1.09.63s-.05.07,0,.09l1.05.61Zm-1.6.92c.05.02.11.02.16,0l1.09-.63s.05-.07,0-.09l-1.05-.61c-.05-.02-.11-.02-.16,0l-1.09.63s-.05.07,0,.09l1.05.61Zm32.49-10.96c-.05-.02-.11-.02-.16,0l-2.69,1.56s-.05.07,0,.09l1.05.6s.11.03.16,0l2.69-1.56s.05-.07,0-.09l-1.05-.61Zm-3.53,2.05s-.11-.03-.16,0l-1.09.63s-.05.07,0,.09l1.05.6s.11.03.16,0l1.09-.63s.05-.07,0-.09l-1.05-.6Zm-21.59,12.03l1.09-.63s.05-.07,0-.09l-1.05-.6c-.05-.03-.11-.03-.16,0l-1.09.63s-.05.07,0,.09l1.05.6c.05.02.11.02.16,0Zm18.39-10.19c-.05-.02-.11-.02-.16,0l-1.09.63s-.05.07,0,.09l1.05.6c.05.02.11.02.16,0l1.09-.63s.05-.07,0-.09l-1.06-.61Zm8.33-4.8c-.05-.02-.11-.02-.16,0l-1.09.63s-.05.07,0,.09l1.04.6c.05.02.11.02.16,0l1.09-.63s.05-.07,0-.09l-1.04-.6Zm2.64-.32l-2.54-1.47c-.05-.02-.11-.02-.16,0l-1.09.63s-.05.07,0,.09l2.54,1.47s.11.03.16,0l1.09-.63s.05-.07.01-.1h0Zm-16.96,8.59c-.05-.02-.11-.02-.16,0l-1.35.78s-.05.07,0,.09l1.05.6s.11.03.16,0l1.35-.78s.05-.07,0-.09l-1.05-.61Zm4.04-2.33s-.11-.03-.16,0l-1.68.97s-.05.07,0,.09l1.05.6c.05.03.11.03.16,0l1.68-.97s.05-.07,0-.09l-1.06-.6Zm-7.74,4.47c-.05-.02-.11-.02-.16,0l-9.01,5.2s-.05.07,0,.09l1.05.6c.05.03.11.03.16,0l9.01-5.2s.05-.07,0-.09l-1.04-.61Zm-9.51,5.49s-.11-.03-.16,0l-1.35.78s-.05.07,0,.09l1.05.61c.05.02.11.02.16,0l1.35-.78s.05-.07,0-.09l-1.05-.6Zm11.37-6.56s-.11-.03-.16,0l-1.35.78s-.05.07,0,.09l1.05.61c.05.02.11.02.16,0l1.35-.78s.05-.07,0-.09l-1.05-.6Zm-13.21,7.63c-.05-.02-.11-.02-.16,0l-1.35.78s-.05.07,0,.09l1.05.6s.11.03.16,0l1.35-.78s.05-.07,0-.09l-1.04-.61Zm16.92-9.77s-.11-.03-.16,0l-1.35.78s-.05.07,0,.09l1.05.61c.05.02.11.02.16,0l1.35-.78s.05-.07,0-.09l-1.06-.6Zm5.73-3.31s-.11-.03-.16,0l-1.09.63s-.05.07,0,.09l1.05.61c.05.02.11.02.16,0l1.09-.63s.05-.07,0-.09l-1.05-.6Zm3.59-2.5l1.09-.63s.05-.07,0-.09l-1.05-.6s-.11-.03-.16,0l-1.09.63s-.05.07,0,.09l1.05.6s.1.02.15,0h0Zm-6.54.32l1.09-.63s.05-.07,0-.09l-1.05-.6c-.05-.02-.11-.02-.16,0l-1.09.63s-.05.07,0,.09l1.05.6c.05.02.11.02.16,0Zm-4.25,5.9l3.21-1.85s.05-.07,0-.09l-1.05-.6s-.11-.03-.16,0l-3.2,1.85s-.05.07,0,.09l1.05.6s.11.03.16,0Zm9.02-5.29c.05.02.11.02.16,0l1.09-.63s.05-.07,0-.09l-1.05-.6c-.05-.02-.11-.02-.16,0l-1.09.63s-.05.07,0,.09l1.05.61Zm-1.34-.87l1.09-.63s.05-.07,0-.09l-1.05-.6s-.11-.03-.16,0l-1.09.63s-.05.07,0,.09l1.05.6c.05.02.11.02.16,0h0Zm-9.28,7.09l1.09-.63s.05-.07,0-.09l-1.05-.6s-.11-.03-.16,0l-1.09.63s-.05.07,0,.09l1.05.6c.05.02.11.02.16,0h0Zm7.08-4.17s.11.03.16,0l1.09-.63s.05-.07,0-.09l-1.05-.6s-.11-.03-.16,0l-1.09.63s-.05.07,0,.09l1.04.6Zm-15.08,8.79l1.09-.63s.05-.07,0-.09l-1.05-.6s-.11-.03-.16,0l-1.09.63s-.05.07,0,.09l1.05.61c.05.02.12.02.17,0h0Zm1.6-.92l1.09-.63s.05-.07,0-.09l-1.05-.6c-.05-.02-.11-.02-.16,0l-1.09.63s-.05.07,0,.09l1.05.6s.11.02.15,0h0Zm-3.2,1.85l1.09-.63s.05-.07,0-.09l-1.05-.61c-.05-.02-.11-.02-.16,0l-1.09.63s-.05.07,0,.09l1.05.6c.05.02.11.02.16,0h0Zm6.4-3.69l1.09-.63s.05-.07,0-.09l-1.05-.61c-.05-.02-.11-.02-.16,0l-1.09.63s-.05.07,0,.09l1.05.6s.1.02.15,0Zm-1.6.92l1.09-.63s.05-.07,0-.09l-1.05-.6s-.11-.03-.16,0l-1.09.63s-.05.07,0,.09l1.05.6s.1.02.15,0h0Zm3.21-1.84l1.09-.63s.05-.07,0-.09l-1.05-.6c-.05-.02-.11-.02-.16,0l-1.09.63s-.05.07,0,.09l1.05.61s.1.01.15,0h.01Zm8.72-12.85s.11.03.16,0l1.09-.63s.05-.07,0-.09l-.28-.16s-.11-.03-.16,0l-1.09.63s-.05.07,0,.09l.27.16Zm-7.95,5.03c.05.02.11.02.16,0l1.09-.63s.05-.07,0-.09l-1.05-.6s-.11-.03-.16,0l-1.09.63s-.05.07,0,.09l1.05.61Zm3.2-1.85s.11.03.16,0l1.09-.63s.05-.07,0-.09l-1.05-.6s-.11-.03-.16,0l-1.1.63s-.05.07,0,.09l1.05.6Zm-5.15,2.98c.05.02.11.02.16,0l1.09-.63s.05-.07,0-.09l-1.05-.6c-.05-.03-.11-.03-.16,0l-1.08.64s-.05.07,0,.09l1.05.59Zm3.55-2.05c.05.03.11.03.16,0l1.09-.63s.05-.07,0-.09l-1.05-.6c-.05-.02-.11-.02-.16,0l-1.09.63s-.05.07,0,.09l1.05.61Zm-6.75,3.9s.11.03.16,0l1.09-.63s.05-.07,0-.09l-1.05-.6s-.11-.03-.16,0l-1.09.63s-.05.07,0,.09l1.05.61Zm1.6-.92s.11.03.16,0l1.09-.63s.05-.07,0-.09l-1.05-.6s-.11-.03-.16,0l-1.09.63s-.05.07,0,.09l1.05.6Zm8.31-5.24s.11.03.16,0l1.09-.63s.05-.07,0-.09l-.28-.16s-.11-.03-.16,0l-1.09.63s-.05.07,0,.09l.28.16Zm4.8-2.77c.05.02.11.02.16,0l1.09-.63s.05-.07,0-.09l-.28-.16c-.05-.02-.11-.02-.16,0l-1.09.63s-.05.07,0,.09l.28.16Zm2.2,1.27c.05.02.11.02.16,0l1.09-.63s.05-.07,0-.09l-1.05-.6c-.05-.02-.11-.02-.16,0l-1.09.63s-.05.07,0,.09l1.05.61Zm3.05,3.51l1.09-.63s.05-.07,0-.09l-1.05-.6s-.11-.03-.16,0l-1.09.63s-.05.07,0,.09l1.05.6s.11.03.16,0Zm-8.45-2.93c.05.03.11.03.16,0l1.09-.63s.05-.07,0-.09l-.28-.16c-.05-.03-.11-.03-.16,0l-1.09.63s-.05.07,0,.09l.28.16Zm-13.1,8.01c.05.02.11.02.16,0l1.09-.63s.05-.07,0-.09l-1.05-.6c-.05-.02-.11-.02-.16,0l-1.09.63s-.05.07,0,.09l1.04.61Z"/>
      <g id="uuid-6cd0a954-fda1-4522-9597-22d1afdc343b" data-name="freepik--tuch-pad--inject-179">
        <polygon class="uuid-479e3639-a997-41d0-b70b-da522aed6d9f" points="40.48 57.54 40.72 57.68 47.04 61.33 58.28 54.84 58.52 54.71 51.96 50.92 40.48 57.54"/>
        <polygon class="uuid-c08dffd1-19cc-437b-82f1-da75b5872a2a" points="58.14 54.92 51.96 51.35 40.87 57.76 47.04 61.33 58.14 54.92"/>
      </g>
      <path class="uuid-c08dffd1-19cc-437b-82f1-da75b5872a2a" d="m9.29,55.19c-.46-.21-.58-.57-.62-1.21l-2.04-29.91c0-.71.36-1.38.96-1.76L45.62.35c.57-.33,1-.51,1.53-.15s.54.57.59,1.2l2.04,29.9c0,.71-.36,1.38-.96,1.76L10.78,55.03c-.57.33-.89.43-1.49.16Z"/>
      <path class="uuid-18a9fb9c-8cae-499a-9e06-1068b23b073a" d="m47.74,1.41c-.04-.64-.55-.89-1.12-.57L8.58,22.81c-.3.19-.55.45-.71.77l-1-.49h0c.17-.31.41-.58.72-.76L45.62.35c.58-.33,1-.52,1.53-.15.56.39.54.57.59,1.2Z"/>
      <path class="uuid-479e3639-a997-41d0-b70b-da522aed6d9f" d="m10.7,55.07c-.52.31-.86.35-1.41.11-.43-.18-.58-.57-.62-1.21l-2.04-29.91c-.01-.35.07-.69.24-.99l.99.49h0c-.17.3-.25.64-.24.99l2.04,29.91c.04.59.55.89,1.04.6Z"/>
      <path class="uuid-570bad20-2d34-4ba7-b3c0-d5c3d69e9a25" d="m9.24,23.95L45.85,2.83c.35-.2.65-.05.67.33l1.91,27.9c0,.43-.22.83-.58,1.06L11.24,53.24c-.35.2-.65.05-.67-.33l-1.91-27.9c0-.43.22-.83.58-1.06Z"/>
      <path class="uuid-9fc08046-0c6a-4180-b261-b9f5fb7d743b" d="m9.24,23.95c-.36.23-.58.63-.58,1.06l1.87,27.43,36.19-20.89c.36-.23.58-.63.58-1.06l-1.87-27.43L9.24,23.95Z"/>
    </g>
    <g id="uuid-1f427eef-aa9c-4e66-b571-985f0f118881" data-name="freepik--window--inject-179">
      <g id="uuid-c1e04db4-4f5d-47d2-94fc-5e4f9cdaa913" data-name="freepik--window--inject-179">
        <path class="uuid-a4e140bc-89d7-466c-93cb-9952f629bab6" d="m12.73,52.62c-.09.05-.19.09-.3.09-.15.02-.31,0-.45-.06-.22-.13-.37-.35-.4-.6l-1.51-21.98.76.38,1.5,21.98c.01.16.11.25.23.25.06,0,.12-.02.17-.06Z"/>
        <path class="uuid-e25e0596-e06e-489b-b636-6f9bc2bb117f" d="m12.56,52.59c-.11,0-.13-.12-.13-.17l-1.66-24.27L45.06,8.36l1.64,24.16c0,.22-.12.43-.3.56L12.68,52.55s-.08.04-.12.04Z"/>
        <path class="uuid-1aea57b9-584f-43e0-aad4-dcc5f11d1179" d="m44.98,8.5l.14,2.05,1.51,21.98c0,.19-.1.38-.26.48L12.63,52.48s-.05.02-.08.03c-.03,0-.04-.08-.04-.09l-1.65-24.22L44.98,8.5m.16-.3L10.67,28.1l1.66,24.32c.01.16.11.25.23.25.06,0,.12-.02.17-.05l33.72-19.47c.22-.14.35-.38.34-.63l-1.5-21.98-.16-2.34h0Z"/>
        <path class="uuid-18a9fb9c-8cae-499a-9e06-1068b23b073a" d="m10.38,29.22c-.22-.13-.37-.35-.4-.6l-.19-2.81c0-.26.13-.49.35-.63L43.85,5.72c.23-.12.51-.13.76-.03.22.13.36.35.39.59l.19,2.81c0,.26-.13.49-.35.63L11.13,29.19c-.23.12-.51.13-.75.03Z"/>
        <path class="uuid-64a75f2e-54ef-4c57-ae15-0dc731458e13" d="m45,6.23c-.04-.19-.21-.25-.39-.14L10.89,25.55c-.11.07-.2.16-.26.27l-.76-.38c.06-.11.15-.21.25-.27L43.85,5.72c.23-.12.51-.13.76-.03.2.11.35.31.39.54Z"/>
        <path class="uuid-e0969511-83a9-411b-892c-17e8924fe5b9" d="m10.63,25.83c-.06.11-.09.23-.09.36l.29,4.26-.76-.38-.29-4.26s0-.03,0-.04c0-.03,0-.06,0-.09.02-.08.04-.15.08-.22l.76.37Z"/>
        <path class="uuid-1aea57b9-584f-43e0-aad4-dcc5f11d1179" d="m45,6.28l.13,1.92-23.1,13.36c-.21.12-.38.03-.4-.2l-.05-.73c-.02-.23-.19-.32-.4-.2l-8.83,5.09c-.19.09-.18.32-.21.63l-.09.73c0,.25-.13.49-.35.63l-1.03.59-.13-1.92c0-.26.13-.49.35-.63L44.61,6.09c.21-.13.39-.04.39.19Z"/>
        <path class="uuid-9fc08046-0c6a-4180-b261-b9f5fb7d743b" d="m43.97,7.34c.16-.09.3-.02.31.15,0,.2-.1.38-.26.48-.16.09-.3.02-.31-.15,0-.2.1-.38.26-.48Z"/>
        <path class="uuid-9fc08046-0c6a-4180-b261-b9f5fb7d743b" d="m42.93,7.93c.16-.09.3-.02.31.15,0,.2-.1.38-.26.48-.16.09-.3.02-.31-.15,0-.2.1-.38.26-.48Z"/>
        <path class="uuid-9fc08046-0c6a-4180-b261-b9f5fb7d743b" d="m41.9,8.53c.16-.09.3-.02.31.15,0,.2-.1.38-.27.48-.16.09-.3.02-.31-.15,0-.2.1-.38.26-.48Z"/>
        <path class="uuid-e0969511-83a9-411b-892c-17e8924fe5b9" d="m45.14,8.2l.16,2.34L10.83,30.44l-.16-2.34.77-.45c.21-.12.27-.29.35-.63l.21-.88c.06-.3.14-.51.35-.63l8.68-5c.15-.13.38-.11.51.04.02.02.03.05.05.07l.38.55c.14.19.2.31.41.19l22.77-13.17Z"/>
        <polygon class="uuid-e0969511-83a9-411b-892c-17e8924fe5b9" points="10.67 28.1 10.83 30.44 10.08 30.07 9.92 27.73 10.67 28.1"/>
        <polygon class="uuid-dfe5e913-e208-4064-a8a0-925e8119cb52" points="10.67 28.1 10.83 30.44 10.08 30.07 9.92 27.73 10.67 28.1"/>
        <path class="uuid-165af331-1ff9-49b4-b170-c1c832b455b0" d="m12.46,28.23l-.59.34.2-.42s.02-.07,0-.1c-.02-.02-.05,0-.07.03l-.29.6h0v.02h0s0,.02,0,.03v.03h0s0,0,0,.01h0l.35.23s.02,0,.03,0c.02-.01.03-.03.03-.05.02-.04.01-.08-.01-.09l-.24-.16.59-.34s.05-.06.04-.1c0-.03-.02-.05-.05-.03Z"/>
        <path class="uuid-165af331-1ff9-49b4-b170-c1c832b455b0" d="m12.95,27.95l.59-.34-.24-.16s-.03-.06-.01-.1c.02-.04.05-.06.07-.05l.35.23h.01s0,.03,0,.04c0,0,0,.02,0,.03h0s0,.02,0,.02h0l-.29.59s-.02.03-.03.04c-.01,0-.03,0-.04,0-.02-.03-.02-.07,0-.1l.2-.42-.59.34s-.05,0-.05-.04c0-.03.01-.06.04-.09Z"/>
        <path class="uuid-165af331-1ff9-49b4-b170-c1c832b455b0" d="m14.84,26.29s-.04-.03-.05,0l-.07.19c-.14-.01-.31.12-.41.35-.13.3-.11.65.05.78.08.06.19.07.27,0,.11-.08.2-.19.25-.31.02-.03.02-.07,0-.1-.02-.02-.05,0-.07.04-.1.22-.27.33-.39.23s-.14-.36-.04-.58c.04-.13.15-.23.28-.26l-.05.14s0,.07.03.05l.24-.15s.03-.04.02-.06l-.07-.32Z"/>
        <path class="uuid-165af331-1ff9-49b4-b170-c1c832b455b0" d="m20.84,21.59l.19-.44s.03-.09,0-.14c-.03-.02-.07,0-.09.05l-.19.44-.23-.19s-.07,0-.09.05c-.03.04-.03.09,0,.14l.24.19-.19.44s-.03.09,0,.13c.01.01.03.01.05,0,.02-.01.04-.03.04-.05l.19-.44.24.19s.03.01.05,0c.02-.01.03-.03.04-.05.03-.04.03-.09,0-.14l-.23-.18Z"/>
        <path class="uuid-e25e0596-e06e-489b-b636-6f9bc2bb117f" d="m15.68,26.8l-.05-.73c0-.26.13-.49.35-.63l26.71-15.41c.21-.12.39-.03.4.2l.05.73c0,.26-.13.49-.35.63l-26.71,15.41c-.21.12-.39.03-.4-.2Z"/>
        <path class="uuid-e0969511-83a9-411b-892c-17e8924fe5b9" d="m42.27,11.66s-.02,0-.04,0c-.04-.02-.07-.06-.06-.11l.02-.3-.16-.1s-.04-.05-.05-.08c0-.05.02-.1.05-.13l.22-.17s0-.01,0-.02l.08-.31c.01-.05.06-.09.11-.1.04,0,.07.02.09.05l.1.17.19-.07s.08,0,.1.02c.04.04.04.1.02.15l-.15.29s0,.01,0,.02l.06.26s0,.1-.04.13c-.02.02-.05.04-.09.04l-.19-.02-.19.24s-.05.04-.09.04Zm-.15-.6l.16.1s.05.06.05.1v.19s.11-.16.11-.16c.02-.03.06-.05.1-.05l.19.02s0-.01,0-.02l-.06-.26s0-.07.01-.09l.13-.25-.15.05s-.1,0-.12-.04l-.08-.13-.07.28s-.03.06-.05.08l-.22.17s0,.02,0,.02h0Z"/>
        <g class="uuid-a74dab80-8659-4f04-a113-a215035b0a9d">
          <path class="uuid-18a9fb9c-8cae-499a-9e06-1068b23b073a" d="m43.53,9.93s-.09-.02-.12-.06c-.04-.05-.03-.12.02-.16,0,0,0,0,.01,0l1.05-.61c.06-.04.15-.02.19.04.04.05.03.13-.03.17,0,0,0,0,0,0l-1.05.61s-.04.02-.07.02Z"/>
          <path class="uuid-18a9fb9c-8cae-499a-9e06-1068b23b073a" d="m43.57,10.51s-.09-.02-.12-.06c-.04-.05-.03-.13.02-.16,0,0,0,0,.01,0l1.05-.61c.06-.04.15-.02.19.04.04.05.03.12-.02.16,0,0,0,0-.01,0l-1.05.61s-.04.02-.07.02Z"/>
          <path class="uuid-18a9fb9c-8cae-499a-9e06-1068b23b073a" d="m43.61,11.1s-.09-.02-.12-.06c-.04-.05-.03-.13.02-.16,0,0,0,0,.01,0l1.05-.61c.06-.04.15-.02.19.04.04.05.03.13-.02.16,0,0,0,0-.01,0l-1.05.61s-.05.02-.07.02Z"/>
        </g>
      </g>
      <polygon class="uuid-1aea57b9-584f-43e0-aad4-dcc5f11d1179" points="12.23 31.14 44.1 12.74 45.42 32.24 13.56 50.64 12.23 31.14"/>
      <polygon class="uuid-e25e0596-e06e-489b-b636-6f9bc2bb117f" points="14.21 41.57 30.31 32.27 30.8 39.42 14.7 48.72 14.21 41.57"/>
      <polygon class="uuid-e25e0596-e06e-489b-b636-6f9bc2bb117f" points="31.13 21.67 43.19 14.74 44.34 31.61 32.27 38.54 31.13 21.67"/>
      <path class="uuid-e0969511-83a9-411b-892c-17e8924fe5b9" d="m41.18,27.97l-5.6,3.23c-.1.06-.19.01-.21-.11l-1.19-7.62-1.58.91c-.11.06-.2,0-.2-.15h0c0-.15.08-.3.2-.39l1.74-1c.1-.06.19-.01.21.11l1.19,7.61,5.43-3.14c.11-.07.2,0,.2.15h0c0,.16-.08.3-.2.39Z"/>
      <path class="uuid-e0969511-83a9-411b-892c-17e8924fe5b9" d="m36.41,33.63c-.49.29-.89-.02-.89-.68s.4-1.43.89-1.71.89.02.89.68-.4,1.42-.89,1.71Zm0-1.85c-.3.22-.49.57-.49.94,0,.36.22.53.49.38.31-.22.49-.57.49-.94,0-.37-.22-.53-.49-.38Z"/>
      <path class="uuid-e0969511-83a9-411b-892c-17e8924fe5b9" d="m40.33,31.36c-.49.29-.89-.02-.89-.68s.4-1.43.89-1.71.89.02.89.68-.4,1.42-.89,1.71Zm0-1.85c-.3.22-.49.57-.49.94,0,.36.22.53.49.38.3-.22.49-.57.49-.94,0-.37-.22-.53-.49-.38Z"/>
      <path class="uuid-e0969511-83a9-411b-892c-17e8924fe5b9" d="m35.37,29.73l-.04-.51,5.65-3.98v-3.4l-6.3,3.64v-.54l6.47-3.74c.13-.08.24,0,.24.18v3.83c0,.17-.08.33-.22.44l-5.8,4.08Z"/>
    </g>
  </g>
  <g id="uuid-c6007294-dd0e-4d20-9cdc-29c53e1e9366" data-name="freepik--Con--inject-179">
    <g id="uuid-ce4cd1c7-88f5-4bc7-a0d3-4a422c1f8644" data-name="freepik--coin--inject-179">
      <path class="uuid-f628acf1-54e6-4a69-a4aa-302715ef8884" d="m27.88,14.41l.66-1.38-2.9-1.67h0c-.34-.2-.71-.35-1.09-.46-.13-.04-.27-.06-.41-.09-.68-.11-1.37-.09-2.04.06-.25.05-.5.11-.74.19-.26.08-.51.18-.76.29-.34.15-.66.31-.98.5-.35.21-.69.43-1.02.67-.25.19-.5.38-.76.59-3.6,3.05-6.43,8.47-7.15,13.69-.05.35-.09.71-.12,1.06-.04.5-.06,1-.06,1.5,0,.4.02.79.05,1.17.03.33.06.64.11.94s.1.6.17.88h0c.17.79.46,1.54.84,2.25.08.14.16.27.24.4.34.54.78,1.01,1.29,1.39.15.11.31.22.47.31h0l2.74,1.58.61-1.27c.16-.04.32-.08.49-.13.67-.2,1.31-.49,1.91-.85.39-.23.76-.48,1.12-.76.48-.36.94-.75,1.38-1.17,3.01-2.89,5.38-7.42,6.24-11.93.13-.66.22-1.33.29-2,.05-.55.08-1.1.07-1.64,0-.78-.06-1.56-.19-2.33-.1-.61-.26-1.22-.48-1.8Z"/>
      <path class="uuid-3fe234b6-e219-4426-8318-0e037e72747b" d="m11.37,23.7l5.89,3.4.78-2.24-5.9-3.4c-.29.73-.55,1.48-.77,2.24Z"/>
      <path class="uuid-3fe234b6-e219-4426-8318-0e037e72747b" d="m25.64,11.35h0c-.34-.2-.71-.35-1.09-.46-.13-.04-.27-.06-.41-.09-.68-.11-1.37-.09-2.04.06-.09.02-.19.04-.27.06l6.06,3.5v-.02l.66-1.38-2.91-1.67Z"/>
      <path class="uuid-3fe234b6-e219-4426-8318-0e037e72747b" d="m25.01,19.95l.78-.93-8.83-5.08c-.28.28-.55.57-.82.87l8.88,5.14Z"/>
      <path class="uuid-3fe234b6-e219-4426-8318-0e037e72747b" d="m14.26,17.31l7.65,4.42.84-2.2-7.12-4.11c-.49.61-.95,1.24-1.37,1.9Z"/>
      <path class="uuid-1b682912-d0ea-42d9-ad52-54c91ee1f71f" d="m25.64,11.35h0c-.34-.2-.71-.35-1.09-.46-.13-.04-.27-.06-.41-.09-.68-.11-1.37-.09-2.04.06-.25.05-.5.11-.74.19-.26.08-.51.18-.76.29-.34.15-.66.31-.98.5-.35.21-.69.43-1.02.67-.25.19-.5.38-.76.59-3.36,2.83-6.04,7.74-6.98,12.6l12.29,7.09c2.42-2.85,4.28-6.74,5.02-10.62.13-.66.22-1.33.29-2,.05-.55.08-1.1.07-1.64,0-.78-.06-1.56-.19-2.33-.1-.61-.26-1.22-.47-1.8l.66-1.38-2.9-1.66Z"/>
      <path class="uuid-19becfd9-1bc0-4360-b41c-95f4e8f5e883" d="m16.44,38.27l.61-1.27c.16-.04.32-.08.49-.13.67-.2,1.31-.49,1.91-.85.39-.23.76-.48,1.12-.76.48-.36.94-.75,1.38-1.17.43-.42.84-.85,1.22-1.31l-12.29-7.08c-.07.36-.13.72-.18,1.07s-.09.71-.12,1.06c-.04.5-.06,1-.06,1.5,0,.4.02.79.05,1.17.03.33.06.64.11.94s.1.6.17.88h0c.17.79.46,1.54.84,2.25.08.14.16.27.24.4.34.54.78,1.01,1.29,1.39.15.11.31.22.47.31h0l2.74,1.57Z"/>
      <path class="uuid-19becfd9-1bc0-4360-b41c-95f4e8f5e883" d="m11.7,34.6c.08.14.16.27.24.4.34.54.78,1.01,1.29,1.39.15.11.31.22.47.31h0l2.74,1.58.61-1.27h.02l.04-.52-6.1-3.54c.16.57.39,1.12.68,1.64Z"/>
      <path class="uuid-f628acf1-54e6-4a69-a4aa-302715ef8884" d="m31.46,18c-.13-.8-.36-1.57-.68-2.31-.39-.92-1-1.73-1.78-2.36-.48-.37-1.02-.64-1.6-.79-.13-.03-.27-.06-.41-.09-.68-.11-1.37-.09-2.04.06-.25.05-.5.12-.74.2-.26.08-.51.18-.76.29-.34.15-.66.32-.98.5-.34.2-.68.43-1.02.67-.25.18-.5.38-.76.59-3.6,3.04-6.44,8.46-7.16,13.67-.05.36-.09.71-.12,1.06-.04.5-.06,1-.06,1.5,0,.4.02.8.05,1.17.03.33.06.64.11.94s.1.6.17.88h0c.17.78.46,1.53.84,2.24.08.14.16.27.24.4.34.54.78,1.01,1.29,1.39.73.56,1.62.88,2.54.92.69.03,1.37-.06,2.03-.26.67-.21,1.31-.49,1.91-.85.39-.23.76-.48,1.12-.76.48-.36.94-.75,1.38-1.17,3.01-2.89,5.38-7.42,6.24-11.93.13-.66.22-1.33.28-2,.05-.55.08-1.1.07-1.64,0-.78-.06-1.56-.19-2.33Z"/>
      <path class="uuid-29c79749-07e5-495c-83a0-250e0bd0059f" d="m31.46,18c-.13-.8-.36-1.57-.68-2.31-.39-.92-1-1.73-1.78-2.36-.48-.37-1.02-.64-1.6-.79-.13-.03-.27-.06-.41-.09-.68-.11-1.37-.09-2.04.06-.25.05-.5.12-.74.2-.26.08-.51.18-.76.29-.34.15-.66.32-.98.5-.34.2-.68.43-1.02.67-.25.18-.5.38-.76.59-3.6,3.04-6.44,8.46-7.16,13.67-.05.36-.09.71-.12,1.06-.04.5-.06,1-.06,1.5,0,.4.02.8.05,1.17.03.33.06.64.11.94s.1.6.17.88h0c.17.78.46,1.53.84,2.24.08.14.16.27.24.4.34.54.78,1.01,1.29,1.39.73.56,1.62.88,2.54.92.69.03,1.37-.06,2.03-.26.67-.21,1.31-.49,1.91-.85.39-.23.76-.48,1.12-.76.48-.36.94-.75,1.38-1.17,3.01-2.89,5.38-7.42,6.24-11.93.13-.66.22-1.33.28-2,.05-.55.08-1.1.07-1.64,0-.78-.06-1.56-.19-2.33Z"/>
      <path class="uuid-8411d46b-70e9-4e76-ac4f-6d5b47b98eba" d="m13.73,27.35c-.07.36-.13.72-.19,1.08-.05.36-.09.71-.12,1.06-.04.5-.06,1-.06,1.5,0,.4.02.8.05,1.17.03.33.06.64.11.94s.1.6.17.88h0c.17.78.46,1.53.84,2.24.08.14.16.27.24.4.34.54.78,1.01,1.29,1.39.74.56,1.63.88,2.55.92.69.03,1.37-.06,2.03-.26.67-.21,1.31-.49,1.91-.85.34-.2.67-.42,1-.66l-9.82-9.82Z"/>
      <path class="uuid-8411d46b-70e9-4e76-ac4f-6d5b47b98eba" d="m13.87,34.63c.17.56.39,1.1.67,1.61.08.14.16.27.24.4.34.54.78,1.01,1.29,1.39.6.45,1.31.75,2.05.86l-4.25-4.26Z"/>
      <path class="uuid-517c1f51-2155-49b5-a053-4a8775188d86" d="m14.98,23.11c-.3.73-.55,1.49-.77,2.24l10.69,10.69s.1-.09.15-.14c.46-.45.9-.92,1.31-1.42l-11.38-11.38Z"/>
      <path class="uuid-517c1f51-2155-49b5-a053-4a8775188d86" d="m18.48,17.06c-.49.61-.95,1.24-1.37,1.9l11.77,11.77c.38-.72.73-1.46,1.05-2.22l-11.45-11.45Z"/>
      <path class="uuid-517c1f51-2155-49b5-a053-4a8775188d86" d="m19.81,15.58c-.28.28-.56.57-.83.88l11.25,11.25c.16-.42.31-.85.44-1.27l-10.86-10.86Z"/>
      <path class="uuid-517c1f51-2155-49b5-a053-4a8775188d86" d="m31.63,19.52h0c-.01-.22-.03-.43-.05-.64,0-.07-.01-.14-.02-.21s-.02-.14-.03-.21c-.02-.15-.04-.31-.07-.46-.13-.8-.36-1.57-.68-2.31-.39-.92-1-1.73-1.78-2.36-.48-.37-1.02-.64-1.6-.79-.13-.03-.27-.06-.41-.09-.68-.11-1.37-.09-2.04.06-.09.02-.19.04-.27.06l6.95,6.95Z"/>
      <path class="uuid-f628acf1-54e6-4a69-a4aa-302715ef8884" d="m29.33,21.73c0,4.81-2.8,10.37-6.35,12.73-.15.1-.3.19-.46.29-3.76,2.17-6.82-.13-6.82-5.15s3.05-10.84,6.81-13.01c.15-.09.31-.17.46-.24,3.55-1.73,6.36.58,6.36,5.39Z"/>
      <path class="uuid-82ee7247-3ada-4252-905e-41f12eb6a3f1" d="m29.33,21.73c0,4.81-2.8,10.37-6.35,12.73-.15.1-.3.19-.46.29-3.76,2.17-6.82-.13-6.82-5.15s3.05-10.84,6.81-13.01c.15-.09.31-.17.46-.24,3.55-1.73,6.36.58,6.36,5.39Z"/>
      <path class="uuid-f628acf1-54e6-4a69-a4aa-302715ef8884" d="m29.02,21.91v.47c-.17,4.48-2.78,9.51-6.06,11.69-.03.02-.06.04-.09.06-.12.07-.23.15-.35.21-.63.38-1.33.63-2.06.74-1.53.21-2.8-.46-3.59-1.83-.46-.8-.76-1.85-.84-3.1-.02-.23-.02-.48-.02-.73s0-.46.02-.69c.03-.5.08-.99.17-1.48.57-3.46,2.42-7,4.77-9.12.33-.3.67-.57,1.04-.82.17-.12.34-.22.51-.32s.29-.16.44-.23l.12-.06c.98-.45,1.89-.58,2.69-.43,1.37.26,2.43,1.36,2.93,3.1.23.83.34,1.68.33,2.54Z"/>
      <path class="uuid-a8dc5b50-0228-4165-bf84-1c046d4b44c2" d="m29.02,21.91v.47c-.17,4.48-2.78,9.51-6.06,11.69-.03.02-.06.04-.09.06-.12.07-.23.15-.35.21-.63.38-1.33.63-2.06.74-1.53.21-2.8-.46-3.59-1.83-.46-.8-.76-1.85-.84-3.1-.02-.23-.02-.48-.02-.73s0-.46.02-.69c.03-.5.08-.99.17-1.48.57-3.46,2.42-7,4.77-9.12.33-.3.67-.57,1.04-.82.17-.12.34-.22.51-.32s.29-.16.44-.23l.12-.06c.98-.45,1.89-.58,2.69-.43,1.37.26,2.43,1.36,2.93,3.1.23.83.34,1.68.33,2.54Z"/>
      <path class="uuid-f628acf1-54e6-4a69-a4aa-302715ef8884" d="m27.93,21.75c0-.16.01-.31.01-.47,0-.86-.1-1.71-.33-2.54-.23-.9-.72-1.72-1.4-2.35-.15-.05-.3-.09-.45-.12-.8-.15-1.72-.02-2.69.43l-.12.06c-.14.07-.29.15-.44.23s-.34.21-.51.32c-.36.25-.71.52-1.04.82-2.35,2.12-4.2,5.66-4.77,9.12-.08.49-.14.98-.17,1.48-.01.23-.02.46-.02.69s0,.49.02.73c.08,1.25.38,2.3.84,3.1.22.4.51.75.86,1.06.53.18,1.1.23,1.66.15.72-.11,1.42-.36,2.04-.74.12-.07.23-.14.35-.21l.09-.06c3.28-2.18,5.89-7.21,6.06-11.69Z"/>
      <path class="uuid-97f8acab-e6cd-4a32-b3f6-3399ee172776" d="m27.93,21.75c0-.16.01-.31.01-.47,0-.86-.1-1.71-.33-2.54-.23-.9-.72-1.72-1.4-2.35-.15-.05-.3-.09-.45-.12-.8-.15-1.72-.02-2.69.43l-.12.06c-.14.07-.29.15-.44.23s-.34.21-.51.32c-.36.25-.71.52-1.04.82-2.35,2.12-4.2,5.66-4.77,9.12-.08.49-.14.98-.17,1.48-.01.23-.02.46-.02.69s0,.49.02.73c.08,1.25.38,2.3.84,3.1.22.4.51.75.86,1.06.53.18,1.1.23,1.66.15.72-.11,1.42-.36,2.04-.74.12-.07.23-.14.35-.21l.09-.06c3.28-2.18,5.89-7.21,6.06-11.69Z"/>
      <path class="uuid-64a75f2e-54ef-4c57-ae15-0dc731458e13" d="m26.99,12.45c-3.93-.44-7.13,2.81-9.27,5.74-3.08,4.55-5.04,10.3-3.96,15.8h0c.35,1.52,1.05,3.05,2.32,4.03-1.31-.96-2.07-2.48-2.43-4.03h0c-.98-4.49.25-9.23,2.31-13.26,2.21-3.99,5.95-8.83,11.03-8.29Z"/>
      <g id="uuid-9edcf5c5-c0e2-44e2-9ee4-76509b9b3a4a" data-name="freepik--money-sign--inject-179">
        <polygon class="uuid-673551aa-196e-4b73-bc99-e32cda297c61" points="24.02 23.11 22.71 22.36 25.24 20.2 26.54 20.96 24.02 23.11"/>
        <path class="uuid-673551aa-196e-4b73-bc99-e32cda297c61" d="m24.82,23.61c-.67-.47-1.83-.12-2.81.19-.24.08-.45.15-.64.21-.06.14-.09.3-.1.46,0,.76.64.55,2.05.09.47-.16.96-.29,1.45-.38.04.39.31.74,1.36.19l-1.31-.76Z"/>
        <polygon class="uuid-04a6623a-4d8c-48ba-94d1-1fc6649bd384" points="21.58 33.52 20.28 32.76 20.28 31.22 21.58 31.98 21.58 33.52"/>
        <path class="uuid-673551aa-196e-4b73-bc99-e32cda297c61" d="m23.8,27.66c0,.61-.46,1.16-1.14,1.56-1.09.63-1.51.12-1.61-.38l-.23-.13c.19-.06.36-.14.53-.24.52-.3.9-.69,1.06-1.12.81-.27,1.39-.38,1.39.31Z"/>
        <path class="uuid-673551aa-196e-4b73-bc99-e32cda297c61" d="m18.94,31.44c-.14-.08-.31-.12-.48-.12-.02-.08-.05-.16-.07-.24l-1.31-.76c.13.57.39.92.73,1.12h0l1.3.76s.22-.49-.18-.76Z"/>
        <path class="uuid-f628acf1-54e6-4a69-a4aa-302715ef8884" d="m23.32,24.56c-1.4.46-2.05.67-2.05-.09,0-.16.03-.31.1-.46-.96.3-1.4.33-1.4-.3,0-.46.31-1.04,1.18-1.54.92-.54,1.44-.41,1.57.19l2.53-2.16s-.02-.06-.04-.09c.16-.04.31-.09.45-.17l-1.04-.62s-.07-.04-.1-.06h-.02c-.31-.16-.65-.21-.99-.17-.45.05-.89.17-1.31.36v-.03l1.31-.76-1.31-.76h0l-.89.52-1.2.69h0v1.54c-1.77,1.29-2.88,2.97-2.88,4.79,0,.83.22,1.3.59,1.54h.02s.06.05.1.06l1.09.62c.03-.17,0-.34-.07-.49.35-.04.69-.12,1.02-.22,1.32-.4,2.51-1.03,2.51-.05,0,.15-.03.29-.08.43.81-.26,1.39-.37,1.39.32,0,.61-.46,1.16-1.13,1.56-1.09.63-1.51.12-1.61-.38h0l-.23-.13-1.08-.62-2.66,2.25,1.31.76c.04.19.11.38.2.55.58-.02,1.16-.16,1.68-.42v.62l2.07-.28v-1.54c1.79-1.32,3.02-3.1,3.02-4.95,0-.32-.04-.63-.15-.93-.6,0-1.29.22-1.91.41Z"/>
        <path class="uuid-dfe5e913-e208-4064-a8a0-925e8119cb52" d="m23.32,24.56c-1.4.46-2.05.67-2.05-.09,0-.16.03-.31.1-.46-.96.3-1.4.33-1.4-.3,0-.46.31-1.04,1.18-1.54.92-.54,1.44-.41,1.57.19l2.53-2.16s-.02-.06-.04-.09c.16-.04.31-.09.45-.17l-1.04-.62s-.07-.04-.1-.06h-.02c-.31-.16-.65-.21-.99-.17-.45.05-.89.17-1.31.36v-.03l1.31-.76-1.31-.76h0l-.89.52-1.2.69h0v1.54c-1.77,1.29-2.88,2.97-2.88,4.79,0,.83.22,1.3.59,1.54h.02s.06.05.1.06l1.09.62c.03-.17,0-.34-.07-.49.35-.04.69-.12,1.02-.22,1.32-.4,2.51-1.03,2.51-.05,0,.15-.03.29-.08.43.81-.26,1.39-.37,1.39.32,0,.61-.46,1.16-1.13,1.56-1.09.63-1.51.12-1.61-.38h0l-.23-.13-1.08-.62-2.66,2.25,1.31.76c.04.19.11.38.2.55.58-.02,1.16-.16,1.68-.42v.62l2.07-.28v-1.54c1.79-1.32,3.02-3.1,3.02-4.95,0-.32-.04-.63-.15-.93-.6,0-1.29.22-1.91.41Z"/>
        <g class="uuid-7b177b48-492e-4e83-82f3-2230dd693f80">
          <path class="uuid-570bad20-2d34-4ba7-b3c0-d5c3d69e9a25" d="m20.11,20.66c-.97.79-1.84,1.72-2.36,2.85-.26.56-.42,1.17-.45,1.78-.03.31,0,.62.05.92.05.31.22.59.46.78-.27-.17-.46-.44-.54-.76-.08-.31-.12-.63-.1-.94.02-.64.16-1.27.43-1.85.27-.57.63-1.1,1.06-1.57.43-.46.91-.87,1.44-1.22Z"/>
        </g>
        <path class="uuid-f628acf1-54e6-4a69-a4aa-302715ef8884" d="m25.22,24.14c-.59.01-1.28.23-1.9.42-1.4.46-2.05.67-2.05-.09,0-.16.03-.31.1-.46.15-.35.48-.74,1.08-1.09.92-.54,1.44-.41,1.57.19l2.53-2.16c-.24-.73-.73-1.11-1.47-1.12-.55.01-1.08.14-1.58.37v-1.54l-1.31.76-.78.45v1.54c-1.77,1.29-2.88,2.97-2.88,4.79-.01.34.04.67.16.99.39.98,1.46.84,2.59.51.4-.12.78-.26,1.13-.38.81-.26,1.39-.37,1.39.32,0,.61-.46,1.16-1.14,1.56-1.09.63-1.51.12-1.61-.38l-2.67,2.24c.04.19.11.38.2.55.35.65.96.83,1.68.73.45-.07.89-.2,1.31-.39v1.54l2.07-1.19v-1.55c1.79-1.32,3.02-3.1,3.02-4.95,0-1.34-.63-1.71-1.45-1.69Z"/>
        <g class="uuid-b4143863-b0bf-4a4e-a7fb-d962b5503465">
          <path class="uuid-9fc08046-0c6a-4180-b261-b9f5fb7d743b" d="m25.22,24.14c-.59.01-1.28.23-1.9.42-1.4.46-2.05.67-2.05-.09,0-.16.03-.31.1-.46.15-.35.48-.74,1.08-1.09.92-.54,1.44-.41,1.57.19l2.53-2.16c-.24-.73-.73-1.11-1.47-1.12-.55.01-1.08.14-1.58.37v-1.54l-1.31.76-.78.45v1.54c-1.77,1.29-2.88,2.97-2.88,4.79-.01.34.04.67.16.99.39.98,1.46.84,2.59.51.4-.12.78-.26,1.13-.38.81-.26,1.39-.37,1.39.32,0,.61-.46,1.16-1.14,1.56-1.09.63-1.51.12-1.61-.38l-2.67,2.24c.04.19.11.38.2.55.35.65.96.83,1.68.73.45-.07.89-.2,1.31-.39v1.54l2.07-1.19v-1.55c1.79-1.32,3.02-3.1,3.02-4.95,0-1.34-.63-1.71-1.45-1.69Z"/>
        </g>
        <path class="uuid-517c1f51-2155-49b5-a053-4a8775188d86" d="m20.86,28.99l-1.63,1.38,1.81,1.81c.18-.06.36-.13.54-.2v.74l.51.51,1.56-.9v-.55l-2.79-2.79Z"/>
        <path class="uuid-517c1f51-2155-49b5-a053-4a8775188d86" d="m25.22,24.14c-.59.01-1.28.23-1.9.42l-.45.15,3.26,3.26c.35-.66.53-1.4.54-2.15,0-.21-.02-.42-.06-.63l-1.03-1.03c-.12-.02-.24-.02-.35-.02Z"/>
        <path class="uuid-517c1f51-2155-49b5-a053-4a8775188d86" d="m21.68,23.53c.22-.24.47-.44.76-.6.92-.54,1.44-.41,1.57.19l.28-.24-2.88-2.88v1.42c-.35.26-.69.54-1,.85l1.28,1.27Z"/>
        <path class="uuid-517c1f51-2155-49b5-a053-4a8775188d86" d="m24.19,19.96c-.24.06-.47.14-.69.24v-.93l-.38-.38-.92.54-.16.09,2.86,2.86.92-.79-1.63-1.63Z"/>
        <path class="uuid-517c1f51-2155-49b5-a053-4a8775188d86" d="m19.82,27.95l-1.25-1.25c.02.17.06.34.12.5.21.52.62.73,1.13.75Z"/>
        <polygon class="uuid-f628acf1-54e6-4a69-a4aa-302715ef8884" points="21.42 21.41 20.11 20.66 20.11 19.11 21.42 19.87 21.42 21.41"/>
        <polygon class="uuid-673551aa-196e-4b73-bc99-e32cda297c61" points="21.42 21.41 20.11 20.66 20.11 19.11 21.42 19.87 21.42 21.41"/>
        <path class="uuid-9fc08046-0c6a-4180-b261-b9f5fb7d743b" d="m23.65,30.77l.2-.16c.06-.05.14-.11.23-.19s.19-.16.29-.25.22-.2.33-.31l.17-.18.17-.19c.06-.06.12-.13.18-.2.06-.07.12-.14.17-.21.11-.15.22-.3.32-.45s.2-.32.29-.48.17-.32.24-.49.13-.32.19-.47c.02-.08.04-.15.07-.22,0-.04.02-.07.03-.11l.02-.11c.03-.14.06-.26.07-.38s.03-.21.03-.29c0-.16.02-.26.02-.26v.26c0,.1-.01.2-.02.3-.01.13-.03.25-.06.38l-.02.11s-.02.07-.03.11c-.02.07-.04.15-.06.23-.05.15-.1.32-.18.48s-.15.32-.24.49-.19.33-.29.48-.22.31-.33.45c-.06.07-.12.14-.18.21s-.12.14-.18.2l-.18.19-.18.17c-.12.12-.23.21-.34.31s-.21.17-.3.25-.17.13-.24.19l-.22.15Z"/>
        <polygon class="uuid-e25e0596-e06e-489b-b636-6f9bc2bb117f" points="21.42 19.87 23.5 18.66 23.5 20.2 23.36 18.91 21.42 19.87"/>
        <polygon class="uuid-e25e0596-e06e-489b-b636-6f9bc2bb117f" points="21.58 31.98 21.69 33.31 23.65 32.32 21.58 33.52 21.58 31.98"/>
      </g>
    </g>
  </g>
</svg>