<?xml version="1.0" encoding="UTF-8"?>
<svg id="uuid-4100ef5f-f9c4-4f97-886a-49873eb5e01a" data-name="Capa 1" xmlns="http://www.w3.org/2000/svg" xmlns:xlink="http://www.w3.org/1999/xlink" viewBox="0 0 96.38 97.98">
  <defs>
    <style>
      .uuid-ec699f50-73ef-4256-8a55-d4ad6974f545 {
        fill: url(#uuid-8d39ca63-0ccc-4f6d-9f2c-f448a44a0021);
      }

      .uuid-821abaa5-3ab6-433e-8251-0036a8c88fe4 {
        fill: #733c28;
        opacity: .47;
      }

      .uuid-821abaa5-3ab6-433e-8251-0036a8c88fe4, .uuid-abe30a4d-13df-4a1b-82f2-d1e6647cf9fb, .uuid-28299cf8-f927-48d4-be92-06c727ae54b2 {
        isolation: isolate;
      }

      .uuid-39e1c809-d6a3-4da4-acb7-e164424ec8df {
        fill: #c5a188;
      }

      .uuid-04e9a391-16d7-4ab2-84d3-65e92d4450ce {
        fill: #5f8845;
      }

      .uuid-958ce6fa-b2b5-49f1-9c7c-6cdf00c47dcd {
        fill: url(#uuid-618707e6-525a-4c78-b703-0c2cff679f14);
      }

      .uuid-909b81ac-dcda-4a66-88a2-5e34a64a6591 { /* Parte delantera modificable*/
        fill: #a87443;
      }

      .uuid-66d3caf0-6e14-4175-87c1-ea476d0529ac {
        fill: url(#uuid-65643355-7065-49d8-84e9-9ab75199fd20);
      }

      .uuid-00efc5ea-9a7f-4f19-ab14-d789e480a0c5 {
        fill: #4d6f37;
      }

      .uuid-f75589e2-6488-4835-b415-78775872d01a {
        stroke: #93a54c;
        stroke-width: 1.03px;
      }

      .uuid-f75589e2-6488-4835-b415-78775872d01a, .uuid-1aab14d2-a406-4e8b-8884-13e2c432afcb {
        fill: none;
        stroke-miterlimit: 10;
      }

      .uuid-d0daae18-0f03-4b88-bd80-24e2535e123d {
        fill: #4c5a24;
      }

      .uuid-8aba42c7-98b4-4b62-b5f1-0c0f35b79a0a {
        fill: url(#uuid-f65a528e-beb6-4313-8b82-56187fb0a3a9);
      }

      .uuid-dd08d632-1abe-4d79-a0e1-b78f9e4ced1b {
        fill: url(#uuid-e14a86bc-ee71-4671-8889-ba7a3b553518);
      }

      .uuid-dfe79841-a9ed-4e1f-b398-f9967e85692d {
        fill: url(#uuid-704aceb5-d83b-491a-960e-9c7fc21eacd7);
      }

      .uuid-eba6f748-c81f-43ef-8cdb-4ea2c9950fc7 {
        fill: url(#uuid-35144804-abcb-4226-8f8a-7cac82681dc9);
      }

      .uuid-08b98f62-4c69-416f-b693-1a5462a99628 {
        fill: #b67c47;
      }

      .uuid-bf3f35d5-0dc1-408d-9bbd-48ca3df5efb2 {
        fill: #5a2d1a;
      }

      .uuid-24fe841f-14b7-421a-868f-7691caca00a6 {
        fill: #93a54c;
      }

      .uuid-e91fad5f-34f7-4fc2-bb1a-d58a17e4a1ec {
        fill: url(#uuid-d9e1dd38-803d-417f-a53e-ba58b4ece4d1);
      }

      .uuid-eb43f84d-013c-4eca-9493-3e68fada90d3 {
        fill: #fecd55;
      }

      .uuid-55413fe9-c215-4911-a1af-d1344a8cc89e {
        fill: #633320;
      }

      .uuid-7da2caa2-98d4-4f52-ab22-5930fcb1689e {
        fill: url(#uuid-e813be84-ca20-4257-a384-82d6c252cc88);
      }

      .uuid-ef0adbaf-9a0c-4e5d-847f-ca25b315a145 {
        fill: url(#uuid-5bb5aa35-5b36-422d-bf97-6233e56a5a8b);
      }

      .uuid-791770cb-0561-460d-a738-2b383b8711d7 {
        fill: #f6a006;
      }

      .uuid-5d6b74b9-cb66-4691-b448-7af720d56987 {
        fill: #fabd05;
      }

      .uuid-abe30a4d-13df-4a1b-82f2-d1e6647cf9fb {
        opacity: .24;
      }

      .uuid-abe30a4d-13df-4a1b-82f2-d1e6647cf9fb, .uuid-28299cf8-f927-48d4-be92-06c727ae54b2 {
        fill: #995d3a;
      }

      .uuid-8082de5a-a2ea-4a7e-8b84-da6cdf79d248 {
        fill: #c1d255;
      }

      .uuid-c7394a07-a7bc-45d8-9292-dbbdb4b151ed {
        fill: #ffcd07;
      }

      .uuid-2157c901-7248-4e6b-bce9-1263753773ea {
        fill: url(#uuid-2204d68c-d1b9-4d4a-b424-754bf1091608);
      }

      .uuid-d3753782-d610-47f9-a921-1d224c6b4b71 {
        fill: #fffdf6;
      }

      .uuid-1aab14d2-a406-4e8b-8884-13e2c432afcb {
        stroke: #f9b552;
        stroke-dasharray: 0 7.59;
        stroke-width: .93px;
      }

      .uuid-d715acba-aefe-4d77-85e0-355272bdc5ad {
        fill: #ca6c14;
      }

      .uuid-4a655f16-ffb2-4f26-bd07-72beae9d5cf4 {
        fill: #feecd7;
      }

      .uuid-a6692557-208c-4c0a-b093-f906dd3d210d {
        fill: #753c28;
      }

      .uuid-28299cf8-f927-48d4-be92-06c727ae54b2 {
        opacity: .43;
      }

      .uuid-686fb2d1-9dc6-4b7e-b64c-c785d87b142c {
        fill: url(#uuid-cfd7b450-e7e2-42b9-98e8-1b6da710699d);
      }
    </style>
    <linearGradient id="uuid-e813be84-ca20-4257-a384-82d6c252cc88" data-name="Degradado sin nombre 9" x1="1084.62" y1="1720.08" x2="1095.12" y2="1733.58" gradientTransform="translate(-80.55 2308.07) rotate(-40.81) scale(1.05 -.95) skewX(13.23)" gradientUnits="userSpaceOnUse">
      <stop offset="0" stop-color="#f6a118"/>
      <stop offset="1" stop-color="#ffcd07"/>
    </linearGradient>
    <linearGradient id="uuid-f65a528e-beb6-4313-8b82-56187fb0a3a9" data-name="Degradado sin nombre 11" x1="-697.38" y1="-350" x2="-706.63" y2="-364.83" gradientTransform="translate(732.77 -316.87) rotate(4.29) scale(.89 -1.13) skewX(7.54)" gradientUnits="userSpaceOnUse">
      <stop offset="0" stop-color="#e27211"/>
      <stop offset="1" stop-color="#ffcd07"/>
    </linearGradient>
    <linearGradient id="uuid-e14a86bc-ee71-4671-8889-ba7a3b553518" data-name="Degradado sin nombre 11" x1="1085.89" y1="1721.77" x2="1095.67" y2="1734.24" gradientTransform="translate(-80.55 2308.07) rotate(-40.81) scale(1.05 -.95) skewX(13.23)" xlink:href="#uuid-f65a528e-beb6-4313-8b82-56187fb0a3a9"/>
    <linearGradient id="uuid-704aceb5-d83b-491a-960e-9c7fc21eacd7" data-name="Degradado sin nombre 12" x1="1088.48" y1="1724.18" x2="1092.7" y2="1731.54" gradientTransform="translate(-80.55 2308.07) rotate(-40.81) scale(1.05 -.95) skewX(13.23)" gradientUnits="userSpaceOnUse">
      <stop offset="0" stop-color="#fdc20b"/>
      <stop offset="1" stop-color="#ffe90b"/>
    </linearGradient>
    <linearGradient id="uuid-618707e6-525a-4c78-b703-0c2cff679f14" data-name="Degradado sin nombre 9" x1="1101.46" y1="1711" x2="1109.68" y2="1721.58" xlink:href="#uuid-e813be84-ca20-4257-a384-82d6c252cc88"/>
    <linearGradient id="uuid-d9e1dd38-803d-417f-a53e-ba58b4ece4d1" data-name="Degradado sin nombre 11" x1="-679.83" y1="-349.56" x2="-687.08" y2="-361.18" xlink:href="#uuid-f65a528e-beb6-4313-8b82-56187fb0a3a9"/>
    <linearGradient id="uuid-8d39ca63-0ccc-4f6d-9f2c-f448a44a0021" data-name="Degradado sin nombre 11" x1="1102.45" y1="1712.33" x2="1110.11" y2="1722.1" gradientTransform="translate(-80.55 2308.07) rotate(-40.81) scale(1.05 -.95) skewX(13.23)" xlink:href="#uuid-f65a528e-beb6-4313-8b82-56187fb0a3a9"/>
    <linearGradient id="uuid-5bb5aa35-5b36-422d-bf97-6233e56a5a8b" data-name="Degradado sin nombre 12" x1="1104.48" y1="1714.22" x2="1107.79" y2="1719.99" xlink:href="#uuid-704aceb5-d83b-491a-960e-9c7fc21eacd7"/>
    <linearGradient id="uuid-35144804-abcb-4226-8f8a-7cac82681dc9" data-name="Degradado sin nombre 9" x1="1106.03" y1="1730.37" x2="1113.12" y2="1739.49" xlink:href="#uuid-e813be84-ca20-4257-a384-82d6c252cc88"/>
    <linearGradient id="uuid-2204d68c-d1b9-4d4a-b424-754bf1091608" data-name="Degradado sin nombre 11" x1="-689.74" y1="-333.95" x2="-695.99" y2="-343.97" xlink:href="#uuid-f65a528e-beb6-4313-8b82-56187fb0a3a9"/>
    <linearGradient id="uuid-cfd7b450-e7e2-42b9-98e8-1b6da710699d" data-name="Degradado sin nombre 11" x1="1106.89" y1="1731.52" x2="1113.49" y2="1739.93" gradientTransform="translate(-80.55 2308.07) rotate(-40.81) scale(1.05 -.95) skewX(13.23)" xlink:href="#uuid-f65a528e-beb6-4313-8b82-56187fb0a3a9"/>
    <linearGradient id="uuid-65643355-7065-49d8-84e9-9ab75199fd20" data-name="Degradado sin nombre 12" x1="1108.63" y1="1733.14" x2="1111.48" y2="1738.11" xlink:href="#uuid-704aceb5-d83b-491a-960e-9c7fc21eacd7"/>
  </defs>
  <g id="uuid-3d84f8a9-bd05-4861-aa08-383cdd4c71ac" data-name="OBJECTS">
    <g id="uuid-d67f154b-b6a8-4cea-9332-8ae1bf3bd428" data-name="Total">
      <g id="uuid-3ac741d5-8198-4cd6-b4c5-80d7877d7942" data-name="manchaAtras">
        <path class="uuid-4a655f16-ffb2-4f26-bd07-72beae9d5cf4" d="m91.09,54.35c.54-2.83-.3-7.25-3.28-12.84,1.9,2.15,4.08,3.19,5.29,2.38,1.47-.98.96-4.32-1.13-7.45-2.09-3.13-4.98-4.87-6.45-3.89-1.01.68-1.09,2.48-.34,4.56-1.43-2.15-3.15-4.44-5.18-6.83-4.13-4.86-11.24-9.92-16.03-12.04-4.57-2.02-9.06-1.96-11.98-.27-.26-.25-.58-.46-.94-.58-1.34-.46-2.8.25-3.27,1.59-.28.82-.13,1.69.35,2.34-3.07,3.51-5.18,7.97-8.64,11.23-4.35,4.1-10.73,4.94-16.59,6.15-5.86,1.21-12.27,3.55-14.74,9-1.69,3.72-1.1,8.1.17,11.98,3.24,9.88,10.88,18.22,20.43,22.33,5.15,2.21,11.53,3.08,16.06-.23.19-.14.37-.28.55-.43-.23,1.71.77,3.41,2.47,4,1.94.67,4.05-.36,4.72-2.29s-.36-4.05-2.29-4.72c-.77-.27-1.56-.26-2.28-.04,2.78-4.48,3.46-10.59,6.3-15.26.91-1.49,2.18-2.93,3.9-3.26,1.04-.2,2.12.04,3.14.33,3.58,1.03,6.93,2.74,10.47,3.91s7.44,1.79,10.96.58c4.36-1.5,7.47-5.71,8.34-10.24Z"/>
        <path class="uuid-4a655f16-ffb2-4f26-bd07-72beae9d5cf4" d="m9.14,64.02c-1.85-2.98-4.6-4.63-6.14-3.67-1.54.95-1.29,4.15.56,7.13,1.85,2.98,4.6,4.63,6.14,3.67,1.54-.95,1.29-4.15-.56-7.13Z"/>
        <path class="uuid-4a655f16-ffb2-4f26-bd07-72beae9d5cf4" d="m11.27,72.26c-.51-.18-1.07.09-1.24.6-.18.51.09,1.07.6,1.24s1.07-.09,1.24-.6c.18-.51-.09-1.07-.6-1.24Z"/>
        <path class="uuid-4a655f16-ffb2-4f26-bd07-72beae9d5cf4" d="m83.99,30.68c.5.17,1.05-.09,1.23-.6s-.09-1.05-.6-1.23-1.05.09-1.23.6c-.17.5.09,1.05.6,1.23Z"/>
        <path class="uuid-4a655f16-ffb2-4f26-bd07-72beae9d5cf4" d="m90.48,31.57c1.22.42,2.56-.22,2.98-1.45.42-1.22-.22-2.56-1.45-2.98-1.22-.42-2.56.22-2.98,1.45-.42,1.22.22,2.56,1.45,2.98Z"/>
        <path class="uuid-4a655f16-ffb2-4f26-bd07-72beae9d5cf4" d="m95.1,36.76c.5.17,1.05-.09,1.23-.6.17-.5-.09-1.05-.6-1.23s-1.05.09-1.23.6c-.17.5.09,1.05.6,1.23Z"/>
        <path class="uuid-4a655f16-ffb2-4f26-bd07-72beae9d5cf4" d="m27.33,36.24c1.52-.01,2.75-1.25,2.74-2.77-.01-1.52-1.25-2.75-2.77-2.74s-2.75,1.25-2.74,2.77c.01,1.52,1.25,2.75,2.77,2.74Z"/>
        <path class="uuid-4a655f16-ffb2-4f26-bd07-72beae9d5cf4" d="m62.22,19.53c.88,0,1.59-.73,1.58-1.61,0-.88-.73-1.59-1.61-1.58-.88,0-1.59.73-1.58,1.61s.73,1.59,1.61,1.58Z"/>
        <path class="uuid-4a655f16-ffb2-4f26-bd07-72beae9d5cf4" d="m66.01,15.83c.56,0,1.01-.46,1.01-1.02,0-.56-.46-1.01-1.02-1.01s-1.01.46-1.01,1.02c0,.56.46,1.01,1.02,1.01Z"/>
        <path class="uuid-4a655f16-ffb2-4f26-bd07-72beae9d5cf4" d="m68.66,22.7c1.73-.01,3.12-1.42,3.11-3.15s-1.42-3.12-3.15-3.11c-1.73.01-3.12,1.42-3.11,3.15s1.42,3.12,3.15,3.11Z"/>
        <path class="uuid-4a655f16-ffb2-4f26-bd07-72beae9d5cf4" d="m20.86,37.07c.58,0,1.05-.48,1.04-1.06s-.48-1.05-1.06-1.04c-.58,0-1.05.48-1.04,1.06,0,.58.48,1.05,1.06,1.04Z"/>
      </g>
      <g id="uuid-53360554-0db6-4c7e-829b-d7edaf1f0f85" data-name="hoja8">
        <path class="uuid-d0daae18-0f03-4b88-bd80-24e2535e123d" d="m72.82,21.53c-.33-2.48-.34-5.35,3.24-7.96-.06,1.57.47,3.34.04,4.6-.43,1.26-2.02,2.7-3.28,3.36Z"/>
        <path class="uuid-d0daae18-0f03-4b88-bd80-24e2535e123d" d="m66.3,37.3c-.36.62-.04,1.04.55.32s2.73-4.06,3.64-7.05c.91-3,1.64-7.57,2.62-9.51-.62.58-1.7,3.78-2.06,5.68-.64,3.42-2.17,7.55-4.74,10.56Z"/>
        <path class="uuid-d0daae18-0f03-4b88-bd80-24e2535e123d" d="m67.36,17.34c1.05.94,2.73,1.02,3.71,2.38.98,1.36.71,3.59.2,5.77-1.05-.48-3.21-.91-3.51-3.37-.29-2.46-.09-3.97-.41-4.78Z"/>
        <path class="uuid-d0daae18-0f03-4b88-bd80-24e2535e123d" d="m60.94,25.31c.65.21,2.58,2.41,3.89,3.51,1.31,1.1,2.58,1.52,4.03.81s1.72-.81,1.72-.81c0,0-.3-.85-.87-2.33s-1.29-2.53-2.91-2.67c-1.62-.14-3.47,1.55-5.86,1.49Z"/>
        <path class="uuid-d0daae18-0f03-4b88-bd80-24e2535e123d" d="m62.85,35.87c1.04-.68,2.42-.72,3.26-.84s2.02-.8,2.61-2.04,1.12-2.03,1.12-2.03c0,0-1.48-.68-3.38-.13-1.39.4-2.02,1.79-2.57,2.95-.55,1.16-.61,1.54-1.04,2.1Z"/>
        <path class="uuid-d0daae18-0f03-4b88-bd80-24e2535e123d" d="m70.23,30.73c.19.41,1.86.99,2.43,2.38.57,1.39-.65,3.61-.57,4.9-1.05-1.01-2.32-2.46-2.16-4.04.16-1.58.48-2.79.3-3.24Z"/>
        <path class="uuid-d0daae18-0f03-4b88-bd80-24e2535e123d" d="m70.82,29c.38.46,2.85,3.47,6.37,1.78,1.94-1.29,4.29-1.86,4.29-1.86,0,0-1.43-.77-2.36-1.89-.93-1.13-2.38-1.52-3.84-1.12-1.45.39-3.59,2.73-4.47,3.1Z"/>
        <path class="uuid-d0daae18-0f03-4b88-bd80-24e2535e123d" d="m71.68,25.47c.4.12,2.48,1.31,5-1.2,2.52-2.51,3.01-2.87,3.01-2.87,0,0-1.76-.1-2.81-.52-1.04-.41-2.53.61-3.21,1.5-.69.88-1.42,2.48-1.99,3.1Z"/>
      </g>
      <g id="uuid-f81de642-810f-4d73-babd-9318b29662d3" data-name="hoja7">
        <path class="uuid-d0daae18-0f03-4b88-bd80-24e2535e123d" d="m15.5,39.82c-2.32-.23-4.84-.89-5.49-5.14,1.34.42,3.14.29,4.04,1.02.9.73,1.44,2.68,1.45,4.12Z"/>
        <path class="uuid-d0daae18-0f03-4b88-bd80-24e2535e123d" d="m26.33,50.11c.38.51.9.28.53-.48-.37-.77-2.3-3.72-4.51-5.34-2.21-1.61-5.88-3.41-7.13-4.87.22.77,2.53,2.61,4.04,3.41,2.7,1.44,5.62,3.95,7.08,7.27Z"/>
        <path class="uuid-d0daae18-0f03-4b88-bd80-24e2535e123d" d="m9.33,44.43c1.3-.85,2.14-2.55,3.78-3.24,1.64-.69,3.47.11,5.15,1.12-.9.96-2.27,3.07-4.56,2.81-2.29-.27-3.52-.82-4.37-.69Z"/>
        <path class="uuid-d0daae18-0f03-4b88-bd80-24e2535e123d" d="m13.38,52.82c.49-.62,3.29-2.08,4.85-3.16,1.56-1.08,2.52-2.29,2.56-3.93.04-1.65.08-1.94.08-1.94,0,0-.89.11-2.44.35s-2.81.73-3.67,2.36c-.86,1.62-.23,3.91-1.38,6.33Z"/>
        <path class="uuid-d0daae18-0f03-4b88-bd80-24e2535e123d" d="m23.5,53.29c-.12-1.22.48-2.64.76-3.53.28-.89.22-2.24-.59-3.14-.82-.89-1.27-1.61-1.27-1.61,0,0-1.27,1.35-1.67,3.43-.29,1.51.64,2.47,1.41,3.3.77.83,1.07.97,1.36,1.55Z"/>
        <path class="uuid-d0daae18-0f03-4b88-bd80-24e2535e123d" d="m22.38,44.57c.44-.1,1.72-1.67,3.2-1.94,1.48-.27,2.86,1.5,4.03,1.71-1.36.84-3.22,1.8-4.53,1.28-1.31-.53-2.23-1.13-2.7-1.05Z"/>
        <path class="uuid-d0daae18-0f03-4b88-bd80-24e2535e123d" d="m21.13,43.58c.57-.29,4.35-2.12,4.47-6.1-.24-2.28.34-4.81.34-4.81,0,0-1.32,1.28-2.74,1.97s-2.42,2.09-2.74,3.66c-.32,1.57.75,4.29.67,5.28Z"/>
        <path class="uuid-d0daae18-0f03-4b88-bd80-24e2535e123d" d="m18.42,41.88c.29-.38,2.28-2.23,1.23-5.38-1.05-3.15-1.14-3.73-1.14-3.73,0,0-.9,1.78-1.74,2.75-.84.97-.62,2.72-.16,3.63.46.91,1.53,2.02,1.81,2.74Z"/>
      </g>
      <g id="uuid-f8611543-9a96-45bf-9e4b-0bcc4389a406" data-name="hoja6">
        <path class="uuid-d0daae18-0f03-4b88-bd80-24e2535e123d" d="m14.28,71.46c-.68,2.23-1.82,4.58-6.12,4.38.68-1.24.9-3.02,1.79-3.77.89-.74,2.91-.89,4.33-.61Z"/>
        <path class="uuid-d0daae18-0f03-4b88-bd80-24e2535e123d" d="m26.49,62.85c.58-.27.45-.82-.37-.61s-4.1,1.53-6.12,3.38c-2.02,1.85-4.5,5.1-6.17,6.05.8-.07,3.06-1.98,4.14-3.29,1.94-2.36,4.98-4.74,8.52-5.52Z"/>
        <path class="uuid-d0daae18-0f03-4b88-bd80-24e2535e123d" d="m17.59,78.41c-.58-1.45-2.08-2.6-2.44-4.34s.78-3.38,2.1-4.83c.77,1.07,2.57,2.83,1.86,5.02-.71,2.19-1.49,3.29-1.53,4.16Z"/>
        <path class="uuid-d0daae18-0f03-4b88-bd80-24e2535e123d" d="m26.62,76.08c-.51-.6-1.4-3.63-2.16-5.38s-1.75-2.91-3.36-3.28-1.89-.46-1.89-.46c0,0-.06.89-.13,2.46s.17,2.9,1.59,4.06c1.42,1.16,3.79.99,5.94,2.59Z"/>
        <path class="uuid-d0daae18-0f03-4b88-bd80-24e2535e123d" d="m29.06,66.25c-1.22-.12-2.5-.99-3.31-1.43-.81-.45-2.16-.66-3.19-.03-1.04.63-1.82.93-1.82.93,0,0,1.08,1.51,3.03,2.3,1.42.58,2.55-.15,3.51-.74.96-.59,1.16-.86,1.78-1.03Z"/>
        <path class="uuid-d0daae18-0f03-4b88-bd80-24e2535e123d" d="m20.29,65.64c-.01-.45-1.3-2.01-1.28-3.52.03-1.5,2.03-2.51,2.46-3.62.56,1.5,1.14,3.51.37,4.69-.77,1.18-1.54,1.96-1.56,2.45Z"/>
        <path class="uuid-d0daae18-0f03-4b88-bd80-24e2535e123d" d="m19.07,66.67c-.17-.62-1.23-4.68-5.1-5.57-2.28-.21-4.66-1.27-4.66-1.27,0,0,1,1.55,1.4,3.07.4,1.52,1.57,2.78,3.05,3.4,1.48.62,4.36.11,5.31.37Z"/>
        <path class="uuid-d0daae18-0f03-4b88-bd80-24e2535e123d" d="m16.88,68.99c-.32-.36-1.75-2.67-5.04-2.26-3.29.41-3.88.39-3.88.39,0,0,1.57,1.23,2.35,2.24.79,1.01,2.55,1.14,3.53.87.98-.27,2.28-1.1,3.04-1.23Z"/>
      </g>
      <g id="uuid-66a5057b-7e4d-4b4e-8c96-ce8b341d040d" data-name="hoja5">
        <path class="uuid-d0daae18-0f03-4b88-bd80-24e2535e123d" d="m78.65,46.12c1.34-.2,2.89-.7,4.19-3.77-.84.32-1.81.25-2.47.79s-1.39,1.95-1.72,2.98Z"/>
        <path class="uuid-d0daae18-0f03-4b88-bd80-24e2535e123d" d="m70.36,53.66c-.32.37-.56.22-.19-.34s2.1-2.71,3.69-3.9c1.58-1.19,4.02-2.53,5.04-3.59-.29.56-1.99,1.91-3,2.51-1.82,1.07-3.99,2.92-5.54,5.32Z"/>
        <path class="uuid-d0daae18-0f03-4b88-bd80-24e2535e123d" d="m81.05,49.35c-.54-.59-.62-1.8-1.38-2.28-.76-.47-1.95.12-3.1.87.29.68.58,2.18,1.91,1.96,1.33-.22,2.14-.63,2.58-.55Z"/>
        <path class="uuid-d0daae18-0f03-4b88-bd80-24e2535e123d" d="m76.94,55.44c-.13-.44-1.36-1.45-1.99-2.21-.63-.76-.89-1.61-.55-2.79s.39-1.39.39-1.39c0,0,.47.07,1.27.22s1.4.49,1.52,1.64-.74,2.8-.64,4.53Z"/>
        <path class="uuid-d0daae18-0f03-4b88-bd80-24e2535e123d" d="m71.22,55.91c.34-.88.32-1.89.36-2.52.04-.63.37-1.61,1.03-2.26s1.06-1.17,1.06-1.17c0,0,.41.95.17,2.44-.17,1.08-.91,1.79-1.51,2.39-.61.6-.81.71-1.1,1.13Z"/>
        <path class="uuid-d0daae18-0f03-4b88-bd80-24e2535e123d" d="m73.78,49.64c-.22-.07-.58-1.18-1.35-1.35s-1.92,1.12-2.61,1.28c.57.59,1.39,1.25,2.23.86s1.49-.84,1.73-.79Z"/>
        <path class="uuid-d0daae18-0f03-4b88-bd80-24e2535e123d" d="m74.69,48.9c-.26-.2-1.94-1.46-1.13-4.32.64-1.64.88-3.45.88-3.45,0,0,.45.9,1.08,1.38s.88,1.47.71,2.59c-.17,1.13-1.37,3.1-1.54,3.8Z"/>
        <path class="uuid-d0daae18-0f03-4b88-bd80-24e2535e123d" d="m76.57,47.65c-.07-.27-.77-1.58.51-3.85,1.28-2.28,1.46-2.7,1.46-2.7,0,0,.1,1.26.35,1.95.25.69-.26,1.95-.71,2.6-.46.66-1.29,1.47-1.61,1.99Z"/>
      </g>
      <g id="uuid-6dfaa164-d2e9-4e3c-92fc-852de82903a2" data-name="hoja4">
        <path class="uuid-24fe841f-14b7-421a-868f-7691caca00a6" d="m28.22,53.62c-.45.19-1.22,2.31-3.07,3.56s-4.95,2.95-8.8,2.3-6.28-2.54-8.79-4.98c-2.5-2.44-3.2-3.29-4.07-3.57,1.07-.33,3.03-2.15,4.77-3.3,1.75-1.16,5.54-2.82,10.49-2s8.07,4.66,8.55,5.87c.48,1.22.8,1.49,1.02,1.7s-.11.42-.11.42Z"/>
        <path class="uuid-8082de5a-a2ea-4a7e-8b84-da6cdf79d248" d="m25.48,53.43c-.42,1.76-2.58,4.2-4.01,5.62.24-.08.48-.17.7-.26.29-.3.55-.58.72-.77,1.15-1.27,2.58-3.09,2.91-4.55v-.04s0-.04,0-.04c-.58-2.52-1.32-4.37-1.98-5.67-.19-.13-.38-.26-.58-.38.71,1.29,1.57,3.27,2.23,6.09Z"/>
        <path class="uuid-8082de5a-a2ea-4a7e-8b84-da6cdf79d248" d="m21.12,52.92c-.75,2.05-3.72,5.3-4.89,6.54.04,0,.08.01.12.02.09.02.18.03.27.04,1.28-1.36,4.1-4.5,4.82-6.54l.02-.05-.02-.05c-.76-2.08-1.49-3.7-2.12-4.93-.57-1.1-1.06-1.89-1.43-2.44-.14-.02-.29-.03-.43-.04.75,1.05,2.16,3.35,3.66,7.46Z"/>
        <path class="uuid-8082de5a-a2ea-4a7e-8b84-da6cdf79d248" d="m16.67,52.47c-.63,1.71-2.8,4.25-4.17,5.77.1.05.2.1.31.15,1.41-1.55,3.57-4.11,4.19-5.86l.02-.05-.02-.05c-.76-2.08-1.49-3.69-2.12-4.93-.4-.78-.77-1.41-1.08-1.9-.12.02-.24.04-.35.06.79,1.23,1.98,3.4,3.23,6.82Z"/>
        <path class="uuid-8082de5a-a2ea-4a7e-8b84-da6cdf79d248" d="m12.93,51.95l-.02-.05c-.76-2.08-1.49-3.7-2.12-4.93-.09-.17-.18-.34-.26-.5-.1.04-.21.08-.31.13.69,1.27,1.51,3.02,2.37,5.36-.46,1.26-1.76,2.97-2.97,4.39.09.07.17.14.26.21,1.23-1.46,2.57-3.23,3.03-4.55l.02-.05Z"/>
        <path class="uuid-8082de5a-a2ea-4a7e-8b84-da6cdf79d248" d="m8.77,51.47l-.02-.05c-.45-1.23-.89-2.3-1.3-3.22-.09.07-.18.13-.27.2.4.89.82,1.91,1.24,3.07-.26.72-.8,1.58-1.44,2.46.08.08.15.15.24.23.68-.93,1.25-1.86,1.53-2.64l.02-.05Z"/>
        <path class="uuid-8082de5a-a2ea-4a7e-8b84-da6cdf79d248" d="m31.05,53.96s-7.17-.58-10.81-.99c-3.64-.41-14.57-1.85-14.57-1.85,0,0,13.18,1.38,14.71,1.57,1.53.19,9.84.61,10.67.71.31.04.38.53,0,.55Z"/>
      </g>
      <g id="uuid-b246a968-ec0e-4265-9700-5fe7482d54f0" data-name="hoja3">
        <path class="uuid-24fe841f-14b7-421a-868f-7691caca00a6" d="m70.55,40.35c.11-.22-.26-1.27.06-2.32.31-1.06.96-2.68,2.64-3.64s3.2-1,4.92-.86,2.25.25,2.68.09c-.3.46-.48,1.77-.79,2.76-.3.99-1.23,2.81-3.38,4.06-2.15,1.25-4.55.75-5.11.44-.57-.31-.77-.32-.93-.33-.15-.01-.09-.2-.09-.2Z"/>
        <path class="uuid-8082de5a-a2ea-4a7e-8b84-da6cdf79d248" d="m71.65,39.56c-.39-.8-.33-2.42-.23-3.41-.07.11-.13.21-.19.32-.02.21-.03.39-.03.52-.04.85-.02,1.99.32,2.65v.02s.02.01.02.01c1.01.78,1.88,1.26,2.54,1.55.11,0,.23-.02.34-.04-.68-.27-1.63-.75-2.77-1.63Z"/>
        <path class="uuid-8082de5a-a2ea-4a7e-8b84-da6cdf79d248" d="m73.48,38.39c-.35-1.02-.24-3.19-.19-4.03-.02,0-.03.02-.05.03-.04.02-.08.05-.12.07-.06.92-.15,3.01.21,4.01v.03s.03.01.03.01c.94.56,1.73.95,2.36,1.22.56.24,1,.39,1.31.48.06-.04.12-.08.18-.12-.61-.17-1.87-.6-3.74-1.7Z"/>
        <path class="uuid-8082de5a-a2ea-4a7e-8b84-da6cdf79d248" d="m75.32,37.16c-.3-.85-.27-2.5-.22-3.52-.05.01-.11.03-.16.04-.05,1.04-.07,2.69.24,3.56v.03s.03.01.03.01c.94.56,1.73.95,2.36,1.22.4.17.73.3,1.01.39.04-.04.08-.09.12-.13-.69-.22-1.82-.68-3.38-1.59Z"/>
        <path class="uuid-8082de5a-a2ea-4a7e-8b84-da6cdf79d248" d="m76.92,36.18h.02c.94.57,1.73.96,2.36,1.23.09.04.17.07.26.11.03-.05.05-.1.08-.14-.66-.27-1.53-.68-2.59-1.3-.22-.63-.26-1.69-.25-2.61-.05,0-.11,0-.16,0-.01.94.03,2.04.27,2.69v.03Z"/>
        <path class="uuid-8082de5a-a2ea-4a7e-8b84-da6cdf79d248" d="m78.65,35.06h.02c.56.34,1.06.61,1.51.84.01-.05.03-.11.04-.16-.43-.21-.91-.47-1.44-.78-.12-.36-.19-.86-.22-1.39-.05,0-.11,0-.16-.01.03.57.11,1.11.25,1.49v.03Z"/>
        <path class="uuid-8082de5a-a2ea-4a7e-8b84-da6cdf79d248" d="m69.36,41.11s2.92-2.03,4.44-3.02,6.15-3.87,6.15-3.87c0,0-5.47,3.61-6.11,4.02s-3.95,2.86-4.3,3.08c-.13.08-.31-.08-.17-.21Z"/>
      </g>
      <g id="uuid-639241cc-2221-4873-bcb7-3bfb594241cc" data-name="hoja2">
        <path class="uuid-24fe841f-14b7-421a-868f-7691caca00a6" d="m60.34,37.47c-.22-.21-1.61-.14-2.77-.9-1.15-.76-2.87-2.12-3.42-4.47s-.06-4.2.74-6.21c.79-2.01,1.11-2.61,1.06-3.18.45.53,1.95,1.21,3.03,1.93s2.93,2.49,3.66,5.51c.72,3.02-.72,5.72-1.3,6.29-.58.57-.66.82-.73.99-.07.18-.27.04-.27.04Z"/>
        <path class="uuid-8082de5a-a2ea-4a7e-8b84-da6cdf79d248" d="m59.79,35.86c-1.11.18-3.02-.47-4.17-.94.1.12.21.23.32.34.24.09.46.18.61.23,1,.35,2.38.73,3.3.57h.02s.02-.02.02-.02c1.3-.94,2.18-1.8,2.76-2.49.03-.14.06-.28.08-.42-.56.72-1.49,1.68-2.94,2.73Z"/>
        <path class="uuid-8082de5a-a2ea-4a7e-8b84-da6cdf79d248" d="m59.03,33.25c-1.35.06-3.92-.85-4.9-1.22,0,.02.01.05.02.07.01.06.03.11.04.16,1.09.41,3.55,1.26,4.89,1.18h.04s.03-.03.03-.03c1-.93,1.75-1.73,2.31-2.39.49-.59.83-1.06,1.05-1.4-.03-.09-.05-.17-.08-.26-.42.68-1.39,2.03-3.38,3.88Z"/>
        <path class="uuid-8082de5a-a2ea-4a7e-8b84-da6cdf79d248" d="m58.23,30.6c-1.13.05-3.1-.58-4.29-1,0,.07,0,.14-.01.21,1.22.43,3.2,1.05,4.35.99h.04s.03-.03.03-.03c1-.93,1.75-1.73,2.31-2.39.35-.42.62-.77.83-1.07-.04-.06-.08-.13-.12-.19-.51.75-1.47,1.94-3.12,3.48Z"/>
        <path class="uuid-8082de5a-a2ea-4a7e-8b84-da6cdf79d248" d="m57.63,28.34l.03-.02c1-.93,1.75-1.73,2.31-2.39.08-.09.15-.18.22-.27-.05-.05-.1-.1-.15-.14-.56.7-1.36,1.59-2.49,2.64-.83.04-2.12-.29-3.22-.64-.02.07-.04.13-.06.2,1.13.36,2.46.69,3.32.64h.04Z"/>
        <path class="uuid-8082de5a-a2ea-4a7e-8b84-da6cdf79d248" d="m56.9,25.85l.03-.02c.59-.55,1.1-1.06,1.53-1.51-.06-.04-.12-.07-.18-.11-.41.44-.89.92-1.46,1.45-.47.02-1.1-.08-1.75-.23-.02.06-.05.12-.08.19.69.16,1.36.27,1.87.24h.04Z"/>
        <path class="uuid-8082de5a-a2ea-4a7e-8b84-da6cdf79d248" d="m60.82,39.17s-1.39-4.23-2.03-6.41c-.64-2.18-2.43-8.76-2.43-8.76,0,0,2.37,7.85,2.63,8.77.26.92,2.01,5.76,2.15,6.26.05.19-.21.35-.32.13Z"/>
      </g>
      <g id="uuid-0fb7c2ad-4a23-4ea0-8921-63c9ee0e6231" data-name="hoja1">
        <path class="uuid-04e9a391-16d7-4ab2-84d3-65e92d4450ce" d="m24.55,56.44c-.06.3.72,1.45.69,2.83-.04,1.38-.3,3.56-2.01,5.26s-3.54,2.25-5.67,2.63-2.81.42-3.27.76c.22-.66.01-2.3.06-3.59.05-1.3.58-3.8,2.77-6,2.19-2.2,5.25-2.39,6.04-2.19.79.2,1.04.13,1.23.1s.17.21.17.21Z"/>
        <g>
          <path class="uuid-00efc5ea-9a7f-4f19-ab14-d789e480a0c5" d="m23.47,57.75c.74.84,1.18,2.81,1.38,4.04.05-.15.09-.3.12-.45-.05-.25-.09-.48-.13-.64-.23-1.03-.63-2.41-1.24-3.11l-.02-.02h-.02c-1.48-.62-2.68-.92-3.57-1.06-.13.05-.27.1-.4.15.91.1,2.21.38,3.87,1.07Z"/>
          <path class="uuid-00efc5ea-9a7f-4f19-ab14-d789e480a0c5" d="m21.64,59.76c.76,1.12,1.33,3.78,1.53,4.81.02-.02.04-.03.05-.05.04-.04.08-.08.12-.12-.22-1.14-.79-3.69-1.56-4.79l-.02-.03h-.03c-1.32-.38-2.4-.59-3.25-.72-.76-.11-1.33-.15-1.74-.16-.06.07-.12.13-.18.2.8,0,2.46.12,5.08.85Z"/>
          <path class="uuid-00efc5ea-9a7f-4f19-ab14-d789e480a0c5" d="m19.81,61.84c.63.93,1.13,2.94,1.4,4.18.06-.03.12-.07.19-.1-.27-1.27-.78-3.28-1.44-4.22l-.02-.03h-.03c-1.32-.38-2.4-.59-3.25-.72-.54-.08-.98-.12-1.34-.14-.03.07-.07.13-.1.2.91.05,2.42.23,4.6.83Z"/>
          <path class="uuid-00efc5ea-9a7f-4f19-ab14-d789e480a0c5" d="m18.2,63.54h-.03c-1.32-.38-2.4-.59-3.25-.72-.12-.02-.24-.03-.35-.05-.02.07-.03.13-.05.2.89.11,2.07.33,3.55.74.47.69.86,1.96,1.14,3.08.07-.02.13-.04.2-.06-.29-1.15-.7-2.46-1.2-3.17l-.02-.03Z"/>
          <path class="uuid-00efc5ea-9a7f-4f19-ab14-d789e480a0c5" d="m16.46,65.46h-.03c-.78-.23-1.47-.39-2.09-.51,0,.07,0,.14,0,.21.59.12,1.25.28,2,.48.27.39.51.97.72,1.61.07-.01.13-.02.2-.04-.23-.68-.49-1.3-.78-1.72l-.02-.03Z"/>
          <path class="uuid-00efc5ea-9a7f-4f19-ab14-d789e480a0c5" d="m25.74,55.14s-2.87,3.4-4.39,5.09c-1.52,1.69-6.18,6.67-6.18,6.67,0,0,5.44-6.14,6.09-6.84s3.85-4.74,4.2-5.11c.13-.14.41,0,.28.2Z"/>
        </g>
      </g>
      <g id="uuid-44ca36c0-2b39-43e2-b994-1507d9d42fc6" data-name="billetera">
        <ellipse id="uuid-e58185db-bc58-497a-a613-ea3ae88de73b" data-name="sombraBilletera" class="uuid-4a655f16-ffb2-4f26-bd07-72beae9d5cf4" cx="48.25" cy="87.97" rx="34.45" ry="3.47" transform="translate(-22.23 16.56) rotate(-15.88)"/>
        <g id="uuid-393c26bf-3060-481c-bbcd-9ffc48648515" data-name="billeteraCuerpoTrasero">
          <path class="uuid-a6692557-208c-4c0a-b093-f906dd3d210d" d="m67.21,30.4s-38.24,10.77-43.62,13.14c-2.52,1.11-2.68,2.47-2.64,4.16l1.56,42.6c.04,1.69.98,4.12,3.62,3.76l42.34-14.02c1.42-.41,2.54-2.12,2.5-3.81l-.1-44.54c-.04-1.69-2.24-1.69-3.66-1.28Z"/>
          <path class="uuid-bf3f35d5-0dc1-408d-9bbd-48ca3df5efb2" d="m68.77,30.4l-45.18,13.14c-1.42.41-2.54,2.12-2.5,3.81l1.11,43.51c.04,1.69,1.23,2.72,2.65,2.31l45.18-13.14c1.42-.41,2.54-2.12,2.5-3.81l-1.11-43.51c-.04-1.69-1.23-2.72-2.65-2.31Z"/>
          <path class="uuid-1aab14d2-a406-4e8b-8884-13e2c432afcb" d="m66.91,33.87l-41.31,12.01c-1.3.38-2.32,1.89-2.29,3.38l.98,38.41c.04,1.49,1.12,2.39,2.42,2.01l41.31-12.01c1.3-.38,2.32-1.89,2.29-3.38l-.98-38.41c-.04-1.49-1.12-2.39-2.42-2.01Z"/>
          <path class="uuid-28299cf8-f927-48d4-be92-06c727ae54b2" d="m59.84,52.17c-.95.27-1.69,1.41-1.66,2.53l.22,8.56c.03,1.12.82,1.81,1.76,1.54l11.99-3.49-.32-12.62-11.99,3.49Z"/>
          <path class="uuid-909b81ac-dcda-4a66-88a2-5e34a64a6591" d="m73.91,47.54l-13.3,3.87c-.95.27-1.69,1.41-1.66,2.53l.22,8.56c.03,1.12.82,1.81,1.76,1.54l13.3-3.87c.95-.27,1.69-1.41,1.66-2.53l-.22-8.56c-.03-1.12-.82-1.81-1.76-1.54Z"/>
          <path class="uuid-1aab14d2-a406-4e8b-8884-13e2c432afcb" d="m73.16,49l-11.74,3.41c-.84.24-1.49,1.17-1.47,2.07l.17,6.88c.02.9.72,1.44,1.55,1.2l11.74-3.41c.84-.24,1.49-1.17,1.47-2.07l-.17-6.88c-.02-.9-.72-1.44-1.55-1.2Z"/>
          <path class="uuid-eb43f84d-013c-4eca-9493-3e68fada90d3" d="m65.35,56.39c.03,1.27-.81,2.56-1.88,2.87s-1.97-.47-2-1.74.81-2.56,1.88-2.87c1.07-.31,1.97.47,2,1.74Z"/>
          <path class="uuid-abe30a4d-13df-4a1b-82f2-d1e6647cf9fb" d="m22.32,44.32c-.76.75-1.25,1.89-1.22,3.02l1.11,43.51c.04,1.69,1.23,2.72,2.65,2.31l45.18-13.14c1.42-.41,2.54-2.12,2.5-3.81l-.25-9.99c-28.43,24.44-48.76,7.49-49.96-21.9Z"/>
        </g>
        <g id="uuid-3acfe0ec-cebe-48b3-9a3a-5bb57e8802ba" data-name="moneda3">
          <path class="uuid-d715acba-aefe-4d77-85e0-355272bdc5ad" d="m44.37,30.68c2.18,4.43.75,10.78-3.2,14.19-1.47,1.27-1.83,1.96-3.39,2.08-.26.02-1.77.03-2.02.02-2.33-.09-4.45-1.44-5.69-3.94-2.18-4.43-.75-10.78,3.2-14.19,1.48-1.28,3.11-1.96,4.67-2.08.33-.03,1.95,0,1.95,0,0,0,3.29,1.51,4.48,3.93Z"/>
          <path class="uuid-7da2caa2-98d4-4f52-ab22-5930fcb1689e" d="m45.95,30.68c2.18,4.43.75,10.78-3.2,14.19s-8.92,2.58-11.1-1.85c-2.18-4.43-.75-10.78,3.2-14.19s8.92-2.58,11.1,1.85Z"/>
          <path class="uuid-8aba42c7-98b4-4b62-b5f1-0c0f35b79a0a" d="m44.5,31.93c1.74,3.53.6,8.6-2.55,11.32-3.15,2.72-7.12,2.06-8.85-1.47-1.74-3.53-.6-8.6,2.55-11.32,3.15-2.72,7.12-2.06,8.85,1.47Z"/>
          <path class="uuid-dd08d632-1abe-4d79-a0e1-b78f9e4ced1b" d="m44.08,32.25c1.61,3.27.55,7.97-2.37,10.49-2.92,2.52-6.59,1.91-8.2-1.36-1.61-3.27-.55-7.97,2.37-10.49,2.92-2.52,6.59-1.91,8.2,1.36Z"/>
          <path class="uuid-dfe79841-a9ed-4e1f-b398-f9967e85692d" d="m40.34,40.68c-1.43,1.03-2.81,1.13-3.62-.27l2.16-1.87c.17.29.37.37.57.33l-.5-1.01c-1.16.56-2.79,1.47-3.65-.29-.68-1.39.07-3.12,1.38-4.33l-.41-.83.57-.49.41.83c1.49-1.13,2.78-1.1,3.57.25l-2.19,1.89c-.16-.25-.33-.35-.49-.33l.49,1c1.17-.5,2.87-1.48,3.72.24.6,1.21.17,2.95-1.43,4.4l.4.82-.57.49-.41-.84Zm-2.4-4.88l-.4-.82c-.16.2-.2.41-.1.61.1.2.28.24.51.21Zm1.69,1.79l.43.88c.19-.23.27-.49.14-.74-.1-.21-.3-.22-.58-.14Z"/>
        </g>
        <g id="uuid-daf34d93-d75f-45da-8edc-82ddc668d714" data-name="moneda2">
          <path class="uuid-d715acba-aefe-4d77-85e0-355272bdc5ad" d="m60.22,30.63c1.71,3.47.59,8.45-2.51,11.13-1.16,1-1.44,1.53-2.66,1.63-.2.02-1.39.02-1.58.01-1.83-.07-3.49-1.13-4.46-3.09-1.71-3.47-.59-8.45,2.51-11.13,1.16-1,2.43-1.54,3.66-1.63.26-.02,1.53,0,1.53,0,0,0,2.58,1.18,3.51,3.08Z"/>
          <path class="uuid-958ce6fa-b2b5-49f1-9c7c-6cdf00c47dcd" d="m61.46,30.63c1.71,3.47.59,8.45-2.51,11.13-3.1,2.67-6.99,2.02-8.7-1.45-1.71-3.47-.59-8.45,2.51-11.13,3.1-2.67,6.99-2.02,8.7,1.45Z"/>
          <path class="uuid-e91fad5f-34f7-4fc2-bb1a-d58a17e4a1ec" d="m60.33,31.61c1.36,2.77.47,6.74-2,8.88-2.47,2.13-5.58,1.62-6.94-1.15-1.36-2.77-.47-6.74,2-8.88,2.47-2.13,5.58-1.62,6.94,1.15Z"/>
          <path class="uuid-ec699f50-73ef-4256-8a55-d4ad6974f545" d="m60,31.86c1.26,2.56.43,6.24-1.85,8.22-2.29,1.97-5.17,1.5-6.43-1.07-1.26-2.56-.43-6.24,1.85-8.22,2.29-1.97,5.17-1.5,6.43,1.07Z"/>
          <path class="uuid-ef0adbaf-9a0c-4e5d-847f-ca25b315a145" d="m57.07,38.46c-1.12.8-2.2.88-2.84-.21l1.69-1.46c.13.23.29.29.44.26l-.39-.79c-.91.44-2.18,1.15-2.86-.22-.54-1.09.05-2.44,1.08-3.4l-.32-.65.44-.38.32.65c1.17-.88,2.18-.86,2.8.2l-1.72,1.48c-.13-.2-.26-.27-.38-.26l.38.78c.92-.39,2.25-1.16,2.92.19.47.95.14,2.31-1.12,3.45l.32.64-.44.38-.33-.66Zm-1.88-3.82l-.32-.64c-.13.16-.16.32-.08.48.08.15.22.19.4.16Zm1.32,1.4l.34.69c.15-.18.21-.39.11-.58-.08-.16-.24-.17-.45-.11Z"/>
        </g>
        <g id="uuid-fb4a6b18-4b2a-4fcb-87e2-5fde9eba967c" data-name="moneda1">
          <path class="uuid-d715acba-aefe-4d77-85e0-355272bdc5ad" d="m54.71,12.2c1.47,2.99.5,7.28-2.16,9.58-1,.86-1.24,1.32-2.29,1.4-.17.01-1.19.02-1.36.01-1.57-.06-3.01-.97-3.84-2.66-1.47-2.99-.5-7.28,2.16-9.58,1-.86,2.1-1.32,3.16-1.41.22-.02,1.31,0,1.31,0,0,0,2.22,1.02,3.03,2.65Z"/>
          <path class="uuid-eba6f748-c81f-43ef-8cdb-4ea2c9950fc7" d="m55.78,12.2c1.47,2.99.5,7.28-2.16,9.58s-6.02,1.74-7.5-1.25-.5-7.28,2.16-9.58c2.67-2.3,6.02-1.74,7.5,1.25Z"/>
          <path class="uuid-2157c901-7248-4e6b-bce9-1263753773ea" d="m54.8,13.04c1.17,2.39.4,5.81-1.72,7.65-2.13,1.84-4.8,1.39-5.98-.99-1.17-2.39-.4-5.81,1.72-7.65,2.13-1.84,4.8-1.39,5.98.99Z"/>
          <path class="uuid-686fb2d1-9dc6-4b7e-b64c-c785d87b142c" d="m54.52,13.26c1.09,2.21.37,5.38-1.6,7.08s-4.45,1.29-5.54-.92c-1.09-2.21-.37-5.38,1.6-7.08,1.97-1.7,4.45-1.29,5.54.92Z"/>
          <path class="uuid-66d3caf0-6e14-4175-87c1-ea476d0529ac" d="m51.99,18.95c-.96.69-1.9.76-2.44-.18l1.46-1.26c.11.2.25.25.38.22l-.33-.68c-.78.38-1.88.99-2.47-.19-.46-.94.05-2.11.93-2.93l-.28-.56.38-.33.28.56c1.01-.76,1.88-.74,2.41.17l-1.48,1.28c-.11-.17-.22-.23-.33-.22l.33.67c.79-.34,1.94-1,2.51.16.4.82.12,1.99-.97,2.97l.27.55-.38.33-.28-.57Zm-1.62-3.29l-.27-.55c-.11.13-.14.28-.07.42.06.13.19.17.34.14Zm1.14,1.21l.29.6c.13-.16.18-.33.1-.5-.07-.14-.21-.15-.39-.1Z"/>
        </g>
        <g id="uuid-525f7eea-501d-4955-ace0-7f88e0a7b6f5" data-name="billeteraCuerpoDelantero">
          <path class="uuid-a6692557-208c-4c0a-b093-f906dd3d210d" d="m71.08,31.33l-45.18,13.14c-1.42.41-2.54,2.12-2.5,3.81l1.11,43.51c.04,1.69,1.18,2.69,3.81,2.33l44.02-13.16c1.42-.41,2.54-2.12,2.5-3.81l-.1-44.54c-.04-1.69-2.24-1.69-3.66-1.28Z"/>
          <path class="uuid-909b81ac-dcda-4a66-88a2-5e34a64a6591" d="m72.63,31.33l-45.18,13.14c-1.42.41-2.54,2.12-2.5,3.81l1.11,43.51c.04,1.69,1.23,2.72,2.65,2.31l45.18-13.14c1.42-.41,2.54-2.12,2.5-3.81l-1.11-43.51c-.04-1.69-1.23-2.72-2.65-2.31Z"/>
          <path class="uuid-08b98f62-4c69-416f-b693-1a5462a99628" d="m75.59,45.57l-.3-11.93c-.04-1.69-1.23-2.72-2.65-2.31l-34.61,10.06c5.57,10.34,18.53,11.38,37.57,4.17Z"/>
          <path class="uuid-1aab14d2-a406-4e8b-8884-13e2c432afcb" d="m70.77,34.8l-38.57,11.26c-1.3.38-2.32,1.89-2.29,3.38l.98,38.41c.04,1.49,1.12,2.39,2.42,2.01l38.57-11.26c1.3-.38,2.32-1.89,2.29-3.38l-.98-38.41c-.04-1.49-1.12-2.39-2.42-2.01Z"/>
          <path class="uuid-28299cf8-f927-48d4-be92-06c727ae54b2" d="m63.71,52.07c-.95.27-1.69,1.41-1.66,2.53l.22,9.59c.03,1.12.82,1.81,1.76,1.54l11.99-3.49-.32-13.66-11.99,3.49Z"/>
          <path class="uuid-909b81ac-dcda-4a66-88a2-5e34a64a6591" d="m77.78,48.47l-13.3,3.87c-.95.27-1.69,1.41-1.66,2.53l.22,8.56c.03,1.12.82,1.81,1.76,1.54l13.3-3.87c.95-.28,1.69-1.41,1.66-2.53l-.22-8.56c-.03-1.12-.82-1.81-1.76-1.54Z"/>
          <path class="uuid-1aab14d2-a406-4e8b-8884-13e2c432afcb" d="m77.03,49.94l-11.74,3.41c-.84.24-1.49,1.17-1.47,2.07l.17,6.88c.02.9.72,1.44,1.55,1.2l11.74-3.41c.84-.24,1.49-1.17,1.47-2.07l-.17-6.88c-.02-.9-.72-1.44-1.55-1.2Z"/>
          <path class="uuid-39e1c809-d6a3-4da4-acb7-e164424ec8df" d="m69.22,57.32c.03,1.27-.81,2.56-1.88,2.87s-1.97-.47-2-1.74c-.03-1.27.81-2.56,1.88-2.87,1.07-.31,1.97.47,2,1.74Z"/>
          <path class="uuid-abe30a4d-13df-4a1b-82f2-d1e6647cf9fb" d="m26.18,45.25c-.76.75-1.25,1.89-1.22,3.02l1.11,43.51c.04,1.69,1.23,2.72,2.65,2.31l45.18-13.14c1.42-.41,2.54-2.12,2.5-3.81l-.25-9.99c-28.43,24.44-48.76,7.49-49.96-21.9Z"/>
        </g>
        <g>
          <ellipse class="uuid-55413fe9-c215-4911-a1af-d1344a8cc89e" cx="51.03" cy="59.66" rx="3.26" ry="2.32" transform="translate(-17.45 98.05) rotate(-78.74)"/>
          <polygon class="uuid-55413fe9-c215-4911-a1af-d1344a8cc89e" points="51.06 59.06 49 70.63 54.9 68.65 51.06 59.06"/>
        </g>
        <path class="uuid-909b81ac-dcda-4a66-88a2-5e34a64a6591" d="m23.32,43.64c-2.33,1.18.74,1.83,3.9.91,0,4.46,1.29,48.2,1.29,49.56-2.69.62-6.35,1.18-6.35-2.98,0-6.98-1.17-40.2-1.25-43.19-.08-2.98.79-3.65,2.4-4.3Z"/>
        <path class="uuid-821abaa5-3ab6-433e-8251-0036a8c88fe4" d="m23.32,43.64c-2.33,1.18.74,1.83,3.9.91,0,4.46,1.29,48.2,1.29,49.56-2.69.62-6.35,1.18-6.35-2.98,0-6.98-1.17-40.2-1.25-43.19-.08-2.98.79-3.65,2.4-4.3Z"/>
        <path class="uuid-c7394a07-a7bc-45d8-9292-dbbdb4b151ed" d="m61.89,61.97l-13.19-1.43c-.09-.75.06-1.67.33-2.21l13.11,1.42-.24,2.21Z"/>
        <path class="uuid-5d6b74b9-cb66-4691-b448-7af720d56987" d="m54.41,60.47c-2.57-.28-4.2-.94-4.51-2.04l-.88-.1c-.26.54-.41,1.46-.33,2.21l13.19,1.43.09-.77c-2.12-.2-5.49-.51-7.56-.74Z"/>
        <path class="uuid-791770cb-0561-460d-a738-2b383b8711d7" d="m62.85,61.06c-.13,1.16-.89,2.04-1.7,1.95s-1.37-1.1-1.24-2.27c.13-1.16.89-2.04,1.7-1.95s1.37,1.1,1.24,2.27Z"/>
        <path class="uuid-c7394a07-a7bc-45d8-9292-dbbdb4b151ed" d="m67.96,66.87c-.2,0-.41,0-.61-.02-3.66-.27-6.47-2.85-6.26-5.75.21-2.91,3.37-5.05,7.03-4.79,3.66.27,6.47,2.85,6.26,5.75h0c-.2,2.74-3.02,4.81-6.41,4.81Zm-.45-8.35c-2.21,0-4.08,1.19-4.2,2.74-.12,1.65,1.8,3.19,4.2,3.37,2.39.17,4.52-1.07,4.64-2.73.12-1.65-1.8-3.19-4.2-3.37-.15-.01-.3-.02-.45-.02Z"/>
        <path class="uuid-5d6b74b9-cb66-4691-b448-7af720d56987" d="m67.51,64.63c-2.4-.17-4.32-1.72-4.2-3.37.02-.3.11-.59.26-.86-.56-.63-.95-1.37-1.11-2.19-.79.79-1.29,1.78-1.37,2.88-.21,2.91,2.6,5.49,6.26,5.75.21.01.41.02.61.02,3.4,0,6.21-2.07,6.41-4.81.01-.15.01-.31,0-.46-.63.37-1.44.66-2.35.84-.49,1.37-2.4,2.34-4.52,2.19Z"/>
        <path class="uuid-d3753782-d610-47f9-a921-1d224c6b4b71" d="m67.9,56.76c.67-.07,1.36.02,2.02.2.66.18,1.29.47,1.87.85.57.39,1.09.87,1.46,1.46.38.58.61,1.26.64,1.93-.24-.63-.55-1.21-.95-1.7-.41-.5-.89-.92-1.42-1.27-.53-.36-1.11-.65-1.72-.89-.61-.24-1.23-.43-1.89-.57Z"/>
      </g>
      <g id="uuid-de9bfc29-287d-4441-8def-605bb5a84232" data-name="bolas">
        <circle class="uuid-f75589e2-6488-4835-b415-78775872d01a" cx="84.7" cy="25.23" r=".69"/>
        <path class="uuid-f75589e2-6488-4835-b415-78775872d01a" d="m82.38,19.52c0,.09-.08.17-.17.17s-.17-.08-.17-.17.08-.17.17-.17.17.08.17.17Z"/>
        <circle class="uuid-f75589e2-6488-4835-b415-78775872d01a" cx="87.4" cy="38.23" r=".56"/>
        <circle class="uuid-f75589e2-6488-4835-b415-78775872d01a" cx="40.16" cy="22.23" r=".69"/>
        <circle class="uuid-f75589e2-6488-4835-b415-78775872d01a" cx="30.63" cy="24.21" r=".51"/>
        <circle class="uuid-f75589e2-6488-4835-b415-78775872d01a" cx="27.99" cy="16" r=".69"/>
        <path class="uuid-f75589e2-6488-4835-b415-78775872d01a" d="m24.2,28.75c0,.19-.15.34-.34.34s-.34-.15-.34-.34.15-.34.34-.34.34.15.34.34Z"/>
        <circle class="uuid-f75589e2-6488-4835-b415-78775872d01a" cx="2.36" cy="42.18" r=".39"/>
        <path class="uuid-f75589e2-6488-4835-b415-78775872d01a" d="m5.15,31.71c0,.64-.52,1.16-1.16,1.16s-1.16-.52-1.16-1.16.52-1.16,1.16-1.16,1.16.52,1.16,1.16Z"/>
        <path class="uuid-f75589e2-6488-4835-b415-78775872d01a" d="m1.8,49.41c0,.36-.29.64-.64.64s-.64-.29-.64-.64.29-.64.64-.64.64.29.64.64Z"/>
        <circle class="uuid-f75589e2-6488-4835-b415-78775872d01a" cx="5.19" cy="57.88" r=".13"/>
        <circle class="uuid-f75589e2-6488-4835-b415-78775872d01a" cx="2.75" cy="72.25" r=".94"/>
        <path class="uuid-f75589e2-6488-4835-b415-78775872d01a" d="m15.19,81.39c0,.36-.29.64-.64.64s-.64-.29-.64-.64.29-.64.64-.64.64.29.64.64Z"/>
        <path class="uuid-f75589e2-6488-4835-b415-78775872d01a" d="m14.02,16c0,.36-.29.64-.64.64s-.64-.29-.64-.64.29-.64.64-.64.64.29.64.64Z"/>
        <circle class="uuid-f75589e2-6488-4835-b415-78775872d01a" cx="70.75" cy=".9" r=".39"/>
        <circle class="uuid-f75589e2-6488-4835-b415-78775872d01a" cx="91.25" cy="17.15" r=".99"/>
        <path class="uuid-f75589e2-6488-4835-b415-78775872d01a" d="m92.49,48.95c0,.14-.11.25-.25.25s-.25-.11-.25-.25.11-.25.25-.25.25.11.25.25Z"/>
        <path class="uuid-f75589e2-6488-4835-b415-78775872d01a" d="m81.55,70.35c0,.44-.36.81-.81.81s-.81-.36-.81-.81.36-.81.81-.81.81.36.81.81Z"/>
      </g>
    </g>
  </g>
</svg>