<?xml version="1.0" encoding="UTF-8" standalone="no"?>
<!DOCTYPE svg PUBLIC "-//W3C//DTD SVG 1.1//EN" "http://www.w3.org/Graphics/SVG/1.1/DTD/svg11.dtd">
<svg xmlns="http://www.w3.org/2000/svg" version="1.1" viewBox="0.00 0.00 512.00 512.00">
<g stroke-width="2.00" fill="none" stroke-linecap="butt">
<path stroke="#686c6e" vector-effect="non-scaling-stroke" d="
  M 318.54 490.97
  L 324.78 490.87
  Q 325.54 490.86 324.90 490.46
  C 246.61 441.54 251.04 328.87 332.24 285.77"
/>
<path stroke="#7b7b7b" vector-effect="non-scaling-stroke" d="
  M 332.24 285.77
  Q 349.80 276.85 369.28 273.95"
/>
<path stroke="#686c6e" vector-effect="non-scaling-stroke" d="
  M 369.28 273.95
  L 385.60 272.75
  Q 386.09 272.71 386.09 272.23
  L 386.09 147.50
  Q 386.09 146.96 385.56 146.89
  C 375.15 145.45 375.07 131.76 385.57 130.07
  Q 386.06 129.99 386.07 129.49
  Q 386.16 106.33 386.06 83.16
  C 386.02 74.40 384.74 67.87 378.90 62.08
  Q 370.29 53.55 357.64 54.54"
/>
<path stroke="#7b7b7b" vector-effect="non-scaling-stroke" d="
  M 357.64 54.54
  L 336.23 54.53
  Q 335.75 54.53 335.75 55.02
  L 335.75 63.97
  Q 335.75 64.45 336.20 64.63
  C 353.72 71.70 358.24 93.73 344.31 106.73
  C 330.56 119.55 307.79 112.88 303.15 94.84
  C 299.79 81.78 306.07 69.89 318.43 64.62
  Q 318.98 64.39 318.98 63.80
  L 318.97 54.99
  Q 318.97 54.51 318.49 54.51
  L 252.26 54.51
  Q 251.78 54.51 251.78 54.99
  L 251.78 64.00
  Q 251.78 64.50 252.24 64.67
  C 269.32 71.30 274.56 93.91 260.62 106.67
  C 248.11 118.12 228.62 114.39 220.86 99.57
  C 213.82 86.11 220.77 70.42 234.54 64.71
  A 0.76 0.75 79.1 0 0 235.01 64.01
  L 235.00 55.01
  Q 235.00 54.51 234.51 54.51
  L 168.42 54.51
  Q 167.86 54.51 167.86 55.08
  L 167.85 63.96
  Q 167.85 64.46 168.32 64.64
  C 183.25 70.57 189.59 88.61 180.49 102.04
  C 164.64 125.41 128.52 109.58 135.08 82.26
  Q 138.03 69.99 150.65 64.58
  Q 151.07 64.41 151.07 63.96
  L 151.06 55.04
  Q 151.06 54.52 150.54 54.52
  L 84.47 54.51
  Q 83.96 54.51 83.96 55.03
  L 83.96 63.78
  Q 83.96 64.37 84.49 64.61
  Q 101.24 72.24 100.55 89.85
  C 99.83 108.28 78.94 119.23 63.30 110.17
  C 44.85 99.48 46.35 72.62 66.68 64.73
  A 0.77 0.77 0.0 0 0 67.17 64.01
  L 67.17 54.99
  Q 67.17 54.50 66.67 54.50
  Q 58.57 54.56 50.49 54.50
  Q 39.31 54.41 34.65 55.78
  Q 21.98 59.50 18.01 72.47
  Q 16.69 76.76 16.72 84.65
  Q 16.80 107.05 16.75 129.49
  A 0.61 0.61 0.0 0 0 17.27 130.09
  C 27.84 131.66 27.75 145.52 17.23 146.88
  Q 16.77 146.94 16.77 147.41
  Q 16.75 302.76 16.77 458.12
  Q 16.77 468.02 17.19 470.35
  C 18.81 479.41 25.76 487.32 34.55 489.90
  Q 38.24 490.98 48.56 490.98
  Q 183.46 491.04 318.54 490.97"
/>
<path stroke="#e2e7e9" vector-effect="non-scaling-stroke" d="
  M 357.64 54.54
  Q 365.05 60.76 367.90 70.09
  Q 369.26 74.58 369.26 83.06
  Q 369.30 178.49 369.28 273.95"
/>
<path stroke="#e2e7e9" vector-effect="non-scaling-stroke" d="
  M 332.24 285.77
  Q 330.91 285.38 330.00 285.67
  Q 286.19 299.43 265.05 338.32
  C 251.14 363.88 247.92 395.83 257.30 423.87
  Q 272.74 470.04 318.54 490.97"
/>
<path stroke="#4f4f4f" vector-effect="non-scaling-stroke" d="
  M 83.90 88.13
  A 8.36 8.36 0.0 0 0 75.54 79.77
  A 8.36 8.36 0.0 0 0 67.18 88.13
  A 8.36 8.36 0.0 0 0 75.54 96.49
  A 8.36 8.36 0.0 0 0 83.90 88.13"
/>
<path stroke="#4f4f4f" vector-effect="non-scaling-stroke" d="
  M 167.83 88.13
  A 8.36 8.36 0.0 0 0 159.47 79.77
  A 8.36 8.36 0.0 0 0 151.11 88.13
  A 8.36 8.36 0.0 0 0 159.47 96.49
  A 8.36 8.36 0.0 0 0 167.83 88.13"
/>
<path stroke="#4f4f4f" vector-effect="non-scaling-stroke" d="
  M 251.78 88.12
  A 8.37 8.37 0.0 0 0 243.41 79.75
  A 8.37 8.37 0.0 0 0 235.04 88.12
  A 8.37 8.37 0.0 0 0 243.41 96.49
  A 8.37 8.37 0.0 0 0 251.78 88.12"
/>
<path stroke="#4f4f4f" vector-effect="non-scaling-stroke" d="
  M 335.71 88.13
  A 8.37 8.37 0.0 0 0 327.34 79.76
  A 8.37 8.37 0.0 0 0 318.97 88.13
  A 8.37 8.37 0.0 0 0 327.34 96.50
  A 8.37 8.37 0.0 0 0 335.71 88.13"
/>
<path stroke="#640f0f" vector-effect="non-scaling-stroke" d="
  M 410.55 487.71
  Q 412.86 487.48 415.25 486.72
  C 485.51 464.31 510.23 379.17 461.37 323.40
  Q 441.00 300.15 409.83 292.48"
/>
<path stroke="#7a221b" vector-effect="non-scaling-stroke" d="
  M 409.83 292.48
  C 348.65 277.28 288.86 322.49 285.51 384.75
  C 282.92 432.77 314.50 475.70 360.98 487.84
  Q 386.12 494.40 410.55 487.71"
/>
<path stroke="#de312a" vector-effect="non-scaling-stroke" d="
  M 409.83 292.48
  Q 421.68 299.37 427.78 304.20
  C 468.91 336.68 481.51 391.62 458.61 438.83
  Q 443.61 469.79 410.55 487.71"
/>
<path stroke="#7b7b7b" vector-effect="non-scaling-stroke" d="
  M 66.9937 137.7999
  A 7.77 7.77 0.0 0 0 59.1427 130.1117
  L 49.8232 130.2093
  A 7.77 7.77 0.0 0 0 42.1350 138.0602
  L 42.1463 139.1401
  A 7.77 7.77 0.0 0 0 49.9973 146.8283
  L 59.3168 146.7307
  A 7.77 7.77 0.0 0 0 67.0050 138.8798
  L 66.9937 137.7999"
/>
<path stroke="#7b7b7b" vector-effect="non-scaling-stroke" d="
  M 108.95 137.93
  A 7.77 7.77 0.0 0 0 101.18 130.16
  L 91.86 130.16
  A 7.77 7.77 0.0 0 0 84.09 137.93
  L 84.09 139.01
  A 7.77 7.77 0.0 0 0 91.86 146.78
  L 101.18 146.78
  A 7.77 7.77 0.0 0 0 108.95 139.01
  L 108.95 137.93"
/>
<path stroke="#7b7b7b" vector-effect="non-scaling-stroke" d="
  M 150.91 137.93
  A 7.77 7.77 0.0 0 0 143.14 130.16
  L 133.84 130.16
  A 7.77 7.77 0.0 0 0 126.07 137.93
  L 126.07 139.01
  A 7.77 7.77 0.0 0 0 133.84 146.78
  L 143.14 146.78
  A 7.77 7.77 0.0 0 0 150.91 139.01
  L 150.91 137.93"
/>
<path stroke="#7b7b7b" vector-effect="non-scaling-stroke" d="
  M 192.8771 137.8749
  A 7.78 7.78 0.0 0 0 185.0564 130.1358
  L 175.7566 130.1845
  A 7.78 7.78 0.0 0 0 168.0174 138.0051
  L 168.0229 139.0651
  A 7.78 7.78 0.0 0 0 175.8436 146.8042
  L 185.1434 146.7555
  A 7.78 7.78 0.0 0 0 192.8826 138.9349
  L 192.8771 137.8749"
/>
<path stroke="#7b7b7b" vector-effect="non-scaling-stroke" d="
  M 234.8635 138.0169
  A 7.77 7.77 0.0 0 0 227.1479 130.1928
  L 217.8081 130.1276
  A 7.77 7.77 0.0 0 0 209.9841 137.8432
  L 209.9765 138.9231
  A 7.77 7.77 0.0 0 0 217.6921 146.7472
  L 227.0319 146.8124
  A 7.77 7.77 0.0 0 0 234.8559 139.0968
  L 234.8635 138.0169"
/>
<path stroke="#7b7b7b" vector-effect="non-scaling-stroke" d="
  M 276.8326 138.0051
  A 7.77 7.77 0.0 0 0 269.1034 130.1946
  L 259.7635 130.1457
  A 7.77 7.77 0.0 0 0 251.9529 137.8749
  L 251.9474 138.9349
  A 7.77 7.77 0.0 0 0 259.6766 146.7454
  L 269.0165 146.7943
  A 7.77 7.77 0.0 0 0 276.8271 139.0651
  L 276.8326 138.0051"
/>
<path stroke="#7b7b7b" vector-effect="non-scaling-stroke" d="
  M 318.7970 137.8649
  A 7.77 7.77 0.0 0 0 310.9864 130.1357
  L 301.6466 130.1846
  A 7.77 7.77 0.0 0 0 293.9173 137.9951
  L 293.9230 139.0751
  A 7.77 7.77 0.0 0 0 301.7336 146.8043
  L 311.0734 146.7554
  A 7.77 7.77 0.0 0 0 318.8027 138.9449
  L 318.7970 137.8649"
/>
<path stroke="#7b7b7b" vector-effect="non-scaling-stroke" d="
  M 360.7659 137.8432
  A 7.77 7.77 0.0 0 0 352.9419 130.1276
  L 343.6021 130.1928
  A 7.77 7.77 0.0 0 0 335.8865 138.0169
  L 335.8941 139.0968
  A 7.77 7.77 0.0 0 0 343.7181 146.8124
  L 353.0579 146.7472
  A 7.77 7.77 0.0 0 0 360.7735 138.9231
  L 360.7659 137.8432"
/>
<path stroke="#7a221b" vector-effect="non-scaling-stroke" d="
  M 452.9964 389.1465
  A 24.18 24.18 0.0 0 0 428.7321 365.0511
  L 343.3126 365.3492
  A 24.18 24.18 0.0 0 0 319.2172 389.6135
  L 319.2236 391.4535
  A 24.18 24.18 0.0 0 0 343.4879 415.5489
  L 428.9074 415.2508
  A 24.18 24.18 0.0 0 0 453.0028 390.9865
  L 452.9964 389.1465"
/>
<path stroke="#7b7b7b" vector-effect="non-scaling-stroke" d="
  M 436.3902 390.2578
  A 8.21 8.21 0.0 0 0 428.1945 382.0335
  L 344.0347 381.8866
  A 8.21 8.21 0.0 0 0 335.8103 390.0822
  L 335.8098 390.3822
  A 8.21 8.21 0.0 0 0 344.0055 398.6065
  L 428.1653 398.7534
  A 8.21 8.21 0.0 0 0 436.3897 390.5578
  L 436.3902 390.2578"
/>
</g>
<path fill="#000000" d="
  M 0.00 468.40
  L 0.00 77.14
  C 1.64 58.36 14.49 42.85 32.85 38.84
  C 42.09 36.82 55.67 37.85 66.62 37.76
  Q 67.16 37.75 67.16 37.22
  Q 67.20 26.27 67.15 15.44
  Q 67.14 10.87 68.16 8.75
  C 71.94 0.94 83.99 4.02 83.96 12.50
  Q 83.91 24.88 83.97 37.26
  Q 83.98 37.78 84.50 37.78
  L 150.50 37.78
  Q 151.03 37.78 151.03 37.25
  Q 151.12 26.65 151.05 16.16
  Q 151.02 11.40 151.77 9.45
  C 154.34 2.69 163.87 2.48 167.02 8.98
  Q 167.80 10.61 167.82 13.65
  Q 167.88 25.50 167.85 37.34
  Q 167.84 37.78 168.29 37.78
  L 234.48 37.78
  Q 234.97 37.78 234.98 37.29
  Q 235.07 26.71 234.99 16.25
  Q 234.96 11.61 235.55 9.82
  C 238.63 0.51 251.70 3.23 251.74 13.61
  Q 251.79 25.46 251.79 37.30
  Q 251.78 37.78 252.27 37.78
  L 318.47 37.78
  Q 318.94 37.78 318.94 37.32
  Q 319.03 26.42 318.95 15.67
  Q 318.92 11.07 319.84 8.99
  C 323.43 0.92 335.80 3.87 335.76 12.49
  Q 335.70 24.88 335.76 37.25
  Q 335.77 37.78 336.29 37.78
  Q 350.19 37.76 364.00 37.86
  Q 369.88 37.90 376.51 40.71
  C 392.76 47.60 402.92 62.70 402.91 80.50
  Q 402.87 177.00 402.90 273.50
  Q 402.90 274.01 403.40 274.09
  Q 451.80 282.17 480.42 319.94
  C 520.55 372.89 507.82 448.96 453.69 486.69
  Q 417.89 511.66 373.23 506.99
  C 368.76 506.53 364.57 507.76 360.00 507.76
  Q 199.87 507.78 39.75 507.78
  C 35.98 507.78 30.14 506.36 26.33 504.71
  Q 2.97 494.62 0.00 468.40
  Z
  M 318.54 490.97
  L 324.78 490.87
  Q 325.54 490.86 324.90 490.46
  C 246.61 441.54 251.04 328.87 332.24 285.77
  Q 349.80 276.85 369.28 273.95
  L 385.60 272.75
  Q 386.09 272.71 386.09 272.23
  L 386.09 147.50
  Q 386.09 146.96 385.56 146.89
  C 375.15 145.45 375.07 131.76 385.57 130.07
  Q 386.06 129.99 386.07 129.49
  Q 386.16 106.33 386.06 83.16
  C 386.02 74.40 384.74 67.87 378.90 62.08
  Q 370.29 53.55 357.64 54.54
  L 336.23 54.53
  Q 335.75 54.53 335.75 55.02
  L 335.75 63.97
  Q 335.75 64.45 336.20 64.63
  C 353.72 71.70 358.24 93.73 344.31 106.73
  C 330.56 119.55 307.79 112.88 303.15 94.84
  C 299.79 81.78 306.07 69.89 318.43 64.62
  Q 318.98 64.39 318.98 63.80
  L 318.97 54.99
  Q 318.97 54.51 318.49 54.51
  L 252.26 54.51
  Q 251.78 54.51 251.78 54.99
  L 251.78 64.00
  Q 251.78 64.50 252.24 64.67
  C 269.32 71.30 274.56 93.91 260.62 106.67
  C 248.11 118.12 228.62 114.39 220.86 99.57
  C 213.82 86.11 220.77 70.42 234.54 64.71
  A 0.76 0.75 79.1 0 0 235.01 64.01
  L 235.00 55.01
  Q 235.00 54.51 234.51 54.51
  L 168.42 54.51
  Q 167.86 54.51 167.86 55.08
  L 167.85 63.96
  Q 167.85 64.46 168.32 64.64
  C 183.25 70.57 189.59 88.61 180.49 102.04
  C 164.64 125.41 128.52 109.58 135.08 82.26
  Q 138.03 69.99 150.65 64.58
  Q 151.07 64.41 151.07 63.96
  L 151.06 55.04
  Q 151.06 54.52 150.54 54.52
  L 84.47 54.51
  Q 83.96 54.51 83.96 55.03
  L 83.96 63.78
  Q 83.96 64.37 84.49 64.61
  Q 101.24 72.24 100.55 89.85
  C 99.83 108.28 78.94 119.23 63.30 110.17
  C 44.85 99.48 46.35 72.62 66.68 64.73
  A 0.77 0.77 0.0 0 0 67.17 64.01
  L 67.17 54.99
  Q 67.17 54.50 66.67 54.50
  Q 58.57 54.56 50.49 54.50
  Q 39.31 54.41 34.65 55.78
  Q 21.98 59.50 18.01 72.47
  Q 16.69 76.76 16.72 84.65
  Q 16.80 107.05 16.75 129.49
  A 0.61 0.61 0.0 0 0 17.27 130.09
  C 27.84 131.66 27.75 145.52 17.23 146.88
  Q 16.77 146.94 16.77 147.41
  Q 16.75 302.76 16.77 458.12
  Q 16.77 468.02 17.19 470.35
  C 18.81 479.41 25.76 487.32 34.55 489.90
  Q 38.24 490.98 48.56 490.98
  Q 183.46 491.04 318.54 490.97
  Z
  M 83.90 88.13
  A 8.36 8.36 0.0 0 0 75.54 79.77
  A 8.36 8.36 0.0 0 0 67.18 88.13
  A 8.36 8.36 0.0 0 0 75.54 96.49
  A 8.36 8.36 0.0 0 0 83.90 88.13
  Z
  M 167.83 88.13
  A 8.36 8.36 0.0 0 0 159.47 79.77
  A 8.36 8.36 0.0 0 0 151.11 88.13
  A 8.36 8.36 0.0 0 0 159.47 96.49
  A 8.36 8.36 0.0 0 0 167.83 88.13
  Z
  M 251.78 88.12
  A 8.37 8.37 0.0 0 0 243.41 79.75
  A 8.37 8.37 0.0 0 0 235.04 88.12
  A 8.37 8.37 0.0 0 0 243.41 96.49
  A 8.37 8.37 0.0 0 0 251.78 88.12
  Z
  M 335.71 88.13
  A 8.37 8.37 0.0 0 0 327.34 79.76
  A 8.37 8.37 0.0 0 0 318.97 88.13
  A 8.37 8.37 0.0 0 0 327.34 96.50
  A 8.37 8.37 0.0 0 0 335.71 88.13
  Z
  M 410.55 487.71
  Q 412.86 487.48 415.25 486.72
  C 485.51 464.31 510.23 379.17 461.37 323.40
  Q 441.00 300.15 409.83 292.48
  C 348.65 277.28 288.86 322.49 285.51 384.75
  C 282.92 432.77 314.50 475.70 360.98 487.84
  Q 386.12 494.40 410.55 487.71
  Z"
/>
<path fill="#f5f5f5" d="
  M 357.64 54.54
  Q 365.05 60.76 367.90 70.09
  Q 369.26 74.58 369.26 83.06
  Q 369.30 178.49 369.28 273.95
  Q 349.80 276.85 332.24 285.77
  Q 330.91 285.38 330.00 285.67
  Q 286.19 299.43 265.05 338.32
  C 251.14 363.88 247.92 395.83 257.30 423.87
  Q 272.74 470.04 318.54 490.97
  Q 183.46 491.04 48.56 490.98
  Q 38.24 490.98 34.55 489.90
  C 25.76 487.32 18.81 479.41 17.19 470.35
  Q 16.77 468.02 16.77 458.12
  Q 16.75 302.76 16.77 147.41
  Q 16.77 146.94 17.23 146.88
  C 27.75 145.52 27.84 131.66 17.27 130.09
  A 0.61 0.61 0.0 0 1 16.75 129.49
  Q 16.80 107.05 16.72 84.65
  Q 16.69 76.76 18.01 72.47
  Q 21.98 59.50 34.65 55.78
  Q 39.31 54.41 50.49 54.50
  Q 58.57 54.56 66.67 54.50
  Q 67.17 54.50 67.17 54.99
  L 67.17 64.01
  A 0.77 0.77 0.0 0 1 66.68 64.73
  C 46.35 72.62 44.85 99.48 63.30 110.17
  C 78.94 119.23 99.83 108.28 100.55 89.85
  Q 101.24 72.24 84.49 64.61
  Q 83.96 64.37 83.96 63.78
  L 83.96 55.03
  Q 83.96 54.51 84.47 54.51
  L 150.54 54.52
  Q 151.06 54.52 151.06 55.04
  L 151.07 63.96
  Q 151.07 64.41 150.65 64.58
  Q 138.03 69.99 135.08 82.26
  C 128.52 109.58 164.64 125.41 180.49 102.04
  C 189.59 88.61 183.25 70.57 168.32 64.64
  Q 167.85 64.46 167.85 63.96
  L 167.86 55.08
  Q 167.86 54.51 168.42 54.51
  L 234.51 54.51
  Q 235.00 54.51 235.00 55.01
  L 235.01 64.01
  A 0.76 0.75 79.1 0 1 234.54 64.71
  C 220.77 70.42 213.82 86.11 220.86 99.57
  C 228.62 114.39 248.11 118.12 260.62 106.67
  C 274.56 93.91 269.32 71.30 252.24 64.67
  Q 251.78 64.50 251.78 64.00
  L 251.78 54.99
  Q 251.78 54.51 252.26 54.51
  L 318.49 54.51
  Q 318.97 54.51 318.97 54.99
  L 318.98 63.80
  Q 318.98 64.39 318.43 64.62
  C 306.07 69.89 299.79 81.78 303.15 94.84
  C 307.79 112.88 330.56 119.55 344.31 106.73
  C 358.24 93.73 353.72 71.70 336.20 64.63
  Q 335.75 64.45 335.75 63.97
  L 335.75 55.02
  Q 335.75 54.53 336.23 54.53
  L 357.64 54.54
  Z
  M 66.9937 137.7999
  A 7.77 7.77 0.0 0 0 59.1427 130.1117
  L 49.8232 130.2093
  A 7.77 7.77 0.0 0 0 42.1350 138.0602
  L 42.1463 139.1401
  A 7.77 7.77 0.0 0 0 49.9973 146.8283
  L 59.3168 146.7307
  A 7.77 7.77 0.0 0 0 67.0050 138.8798
  L 66.9937 137.7999
  Z
  M 108.95 137.93
  A 7.77 7.77 0.0 0 0 101.18 130.16
  L 91.86 130.16
  A 7.77 7.77 0.0 0 0 84.09 137.93
  L 84.09 139.01
  A 7.77 7.77 0.0 0 0 91.86 146.78
  L 101.18 146.78
  A 7.77 7.77 0.0 0 0 108.95 139.01
  L 108.95 137.93
  Z
  M 150.91 137.93
  A 7.77 7.77 0.0 0 0 143.14 130.16
  L 133.84 130.16
  A 7.77 7.77 0.0 0 0 126.07 137.93
  L 126.07 139.01
  A 7.77 7.77 0.0 0 0 133.84 146.78
  L 143.14 146.78
  A 7.77 7.77 0.0 0 0 150.91 139.01
  L 150.91 137.93
  Z
  M 192.8771 137.8749
  A 7.78 7.78 0.0 0 0 185.0564 130.1358
  L 175.7566 130.1845
  A 7.78 7.78 0.0 0 0 168.0174 138.0051
  L 168.0229 139.0651
  A 7.78 7.78 0.0 0 0 175.8436 146.8042
  L 185.1434 146.7555
  A 7.78 7.78 0.0 0 0 192.8826 138.9349
  L 192.8771 137.8749
  Z
  M 234.8635 138.0169
  A 7.77 7.77 0.0 0 0 227.1479 130.1928
  L 217.8081 130.1276
  A 7.77 7.77 0.0 0 0 209.9841 137.8432
  L 209.9765 138.9231
  A 7.77 7.77 0.0 0 0 217.6921 146.7472
  L 227.0319 146.8124
  A 7.77 7.77 0.0 0 0 234.8559 139.0968
  L 234.8635 138.0169
  Z
  M 276.8326 138.0051
  A 7.77 7.77 0.0 0 0 269.1034 130.1946
  L 259.7635 130.1457
  A 7.77 7.77 0.0 0 0 251.9529 137.8749
  L 251.9474 138.9349
  A 7.77 7.77 0.0 0 0 259.6766 146.7454
  L 269.0165 146.7943
  A 7.77 7.77 0.0 0 0 276.8271 139.0651
  L 276.8326 138.0051
  Z
  M 318.7970 137.8649
  A 7.77 7.77 0.0 0 0 310.9864 130.1357
  L 301.6466 130.1846
  A 7.77 7.77 0.0 0 0 293.9173 137.9951
  L 293.9230 139.0751
  A 7.77 7.77 0.0 0 0 301.7336 146.8043
  L 311.0734 146.7554
  A 7.77 7.77 0.0 0 0 318.8027 138.9449
  L 318.7970 137.8649
  Z
  M 360.7659 137.8432
  A 7.77 7.77 0.0 0 0 352.9419 130.1276
  L 343.6021 130.1928
  A 7.77 7.77 0.0 0 0 335.8865 138.0169
  L 335.8941 139.0968
  A 7.77 7.77 0.0 0 0 343.7181 146.8124
  L 353.0579 146.7472
  A 7.77 7.77 0.0 0 0 360.7735 138.9231
  L 360.7659 137.8432
  Z"
/>
<path fill="#cfd8dc" d="
  M 357.64 54.54
  Q 370.29 53.55 378.90 62.08
  C 384.74 67.87 386.02 74.40 386.06 83.16
  Q 386.16 106.33 386.07 129.49
  Q 386.06 129.99 385.57 130.07
  C 375.07 131.76 375.15 145.45 385.56 146.89
  Q 386.09 146.96 386.09 147.50
  L 386.09 272.23
  Q 386.09 272.71 385.60 272.75
  L 369.28 273.95
  Q 369.30 178.49 369.26 83.06
  Q 369.26 74.58 367.90 70.09
  Q 365.05 60.76 357.64 54.54
  Z"
/>
<circle fill="#9e9e9e" cx="75.54" cy="88.13" r="8.36"/>
<circle fill="#9e9e9e" cx="159.47" cy="88.13" r="8.36"/>
<circle fill="#9e9e9e" cx="243.41" cy="88.12" r="8.37"/>
<circle fill="#9e9e9e" cx="327.34" cy="88.13" r="8.37"/>
<rect fill="#000000" x="-12.43" y="-8.31" transform="translate(54.57,138.47) rotate(-0.6)" width="24.86" height="16.62" rx="7.77"/>
<rect fill="#000000" x="84.09" y="130.16" width="24.86" height="16.62" rx="7.77"/>
<rect fill="#000000" x="126.07" y="130.16" width="24.84" height="16.62" rx="7.77"/>
<rect fill="#000000" x="-12.43" y="-8.31" transform="translate(180.45,138.47) rotate(-0.3)" width="24.86" height="16.62" rx="7.78"/>
<rect fill="#000000" x="-12.44" y="-8.31" transform="translate(222.42,138.47) rotate(0.4)" width="24.88" height="16.62" rx="7.77"/>
<rect fill="#000000" x="-12.44" y="-8.30" transform="translate(264.39,138.47) rotate(0.3)" width="24.88" height="16.60" rx="7.77"/>
<rect fill="#000000" x="-12.44" y="-8.31" transform="translate(306.36,138.47) rotate(-0.3)" width="24.88" height="16.62" rx="7.77"/>
<rect fill="#000000" x="-12.44" y="-8.31" transform="translate(348.33,138.47) rotate(-0.4)" width="24.88" height="16.62" rx="7.77"/>
<path fill="#cfd8dc" d="
  M 332.24 285.77
  C 251.04 328.87 246.61 441.54 324.90 490.46
  Q 325.54 490.86 324.78 490.87
  L 318.54 490.97
  Q 272.74 470.04 257.30 423.87
  C 247.92 395.83 251.14 363.88 265.05 338.32
  Q 286.19 299.43 330.00 285.67
  Q 330.91 285.38 332.24 285.77
  Z"
/>
<path fill="#f44335" d="
  M 409.83 292.48
  Q 421.68 299.37 427.78 304.20
  C 468.91 336.68 481.51 391.62 458.61 438.83
  Q 443.61 469.79 410.55 487.71
  Q 386.12 494.40 360.98 487.84
  C 314.50 475.70 282.92 432.77 285.51 384.75
  C 288.86 322.49 348.65 277.28 409.83 292.48
  Z
  M 452.9964 389.1465
  A 24.18 24.18 0.0 0 0 428.7321 365.0511
  L 343.3126 365.3492
  A 24.18 24.18 0.0 0 0 319.2172 389.6135
  L 319.2236 391.4535
  A 24.18 24.18 0.0 0 0 343.4879 415.5489
  L 428.9074 415.2508
  A 24.18 24.18 0.0 0 0 453.0028 390.9865
  L 452.9964 389.1465
  Z"
/>
<path fill="#c81e1e" d="
  M 409.83 292.48
  Q 441.00 300.15 461.37 323.40
  C 510.23 379.17 485.51 464.31 415.25 486.72
  Q 412.86 487.48 410.55 487.71
  Q 443.61 469.79 458.61 438.83
  C 481.51 391.62 468.91 336.68 427.78 304.20
  Q 421.68 299.37 409.83 292.48
  Z"
/>
<path fill="#000000" d="
  M 453.0028 390.9865
  A 24.18 24.18 0.0 0 1 428.9074 415.2508
  L 343.4879 415.5489
  A 24.18 24.18 0.0 0 1 319.2236 391.4535
  L 319.2172 389.6135
  A 24.18 24.18 0.0 0 1 343.3126 365.3492
  L 428.7321 365.0511
  A 24.18 24.18 0.0 0 1 452.9964 389.1465
  L 453.0028 390.9865
  Z
  M 436.3902 390.2578
  A 8.21 8.21 0.0 0 0 428.1945 382.0335
  L 344.0347 381.8866
  A 8.21 8.21 0.0 0 0 335.8103 390.0822
  L 335.8098 390.3822
  A 8.21 8.21 0.0 0 0 344.0055 398.6065
  L 428.1653 398.7534
  A 8.21 8.21 0.0 0 0 436.3897 390.5578
  L 436.3902 390.2578
  Z"
/>
<rect fill="#f5f5f5" x="-50.29" y="-8.36" transform="translate(386.10,390.32) rotate(0.1)" width="100.58" height="16.72" rx="8.21"/>
</svg>
