<?xml version="1.0" encoding="UTF-8"?>
<svg id="uuid-6ffdab4e-5553-4fc8-85a2-ace81b0977b4" data-name="Capa 1" xmlns="http://www.w3.org/2000/svg" viewBox="0 0 479.71 482.57">
  <defs>
    <style>
      .uuid-38da4de2-d9d9-4ebe-8878-40b698d5e5f8 {
        fill: #dbd9dd;
      }

      .uuid-088d44e2-11a4-4a6e-a03c-fc6825d93606 {
        fill: #fff;
      }

      .uuid-2a964ac3-19f5-4be1-bb68-2547dc1bc373 {
        fill: #674e9b;
      }

      .uuid-3ce800b8-df71-4b44-9e89-6f6a365eaffb {
        fill: #9484bd;
      }

      .uuid-525c0e03-781e-43d2-ab81-3270affa06b2 {
        fill: #e4def0;
      }

      .uuid-a154256c-9ae0-4d9b-9152-7995f8591c41 {
        fill: #a093c6;
      }

      .uuid-f316d9ac-4618-4991-807a-c0e1d4073b52 {
        fill: #fefeff;
      }

      .uuid-7ffc225a-e163-4ece-967c-3dece6a19adc {
        fill: #6cbd99;
      }

      .uuid-5e4548d7-1d0e-4739-84a8-dd08d77e71ae {
        fill: #99589f;
      }

      .uuid-ecc06b82-0e2c-4edb-9eeb-50f53e525994 {
        fill: #634b99;
      }

      .uuid-32ccb165-f01e-4af9-a8d7-62c022583a53 {
        fill: #fecd36;
      }

      .uuid-caf57d53-5e56-40d1-ab92-e8b31b1c30d2 {
        fill: #634998;
      }

      .uuid-0330b98f-c2fc-4fa1-a1a1-e11634932856 {
        fill: #ed78aa;
      }

      .uuid-e4e3d490-a582-4e15-85af-903599546bd2 {
        fill: #644b99;
      }

      .uuid-51d0a50a-84da-43d0-be56-b80b65442986 {
        fill: #cec9e1;
      }
    </style>
  </defs>
  <path class="uuid-088d44e2-11a4-4a6e-a03c-fc6825d93606" d="m403.02,221.16c.37-4.39.75-8.77,1.12-13.16,2.48-4.14,6.03-7.34,9.39-10.7,5.98-5.97,11.78-12.13,18-17.84,2.88-2.64,2.44-3.97-.11-6.49-21.19-20.98-42.21-42.14-63.36-63.17-2.07-2.05-3.44-3.76-1.58-6.66,2.08-3.25.84-4.76-2.75-5.94-12.14-4-24.16-8.38-36.23-12.63-18.61-6.55-37.22-13.11-55.83-19.66.15-1.26-.64-2.12-1.22-3.12-6.05-10.4-14.05-18.86-24.55-24.85,4.82-.63,9.44.62,14.07,1.62,1.47.32,2.59.32,3.45-.97.66-.99.48-2.11-.55-2.52-6.08-2.39-12.36-3.34-18.9-2.33-1.4.21-2.09.71-2.15,2.09-6.72-3.24-13.93-4.99-21.26-4.83-18.76.4-32.95,9.79-44.42,23.96-9.78-2.59-19.34-4.83-29.87-3.42-24.82,3.31-43.4,23.85-45.56,47.62-2,21.97,6.99,39.46,25.93,51.52,3.74,2.38,7.75,4.31,10.01,8.96,4.59,9.43,10.28,18.32,15.1,27.66,1.84,3.56,3.2,3,5.3.7.72.42,1.44.83,2.15,1.25,0,.64,0,1.29.01,1.93-10.36,9.6-21.48,10.42-33.53,3.21-4.25-2.54-8.89-4.44-13.29-6.75-11.49-6.02-23.54-9.22-36.61-7.45-1.04-1.46,1.91-4.36-1.26-4.74-2.88-.35-1.42,2.66-2.16,4.05-.3.57-.63,1.13-.95,1.69-1.81.06-3.56.35-5.35.65-5.59.95-10.3,4.33-15.82,5.35-2.88-4.88-7.56-8.11-11.3-12.21-1.33-1.46-2.36-.32-3.31.61-2.81,2.79-5.67,5.54-8.35,8.45-.97,1.05-3.51,2.09-1.9,3.75,1.31,1.35,3.22.15,4.7-1.23,2.61-2.45,4.9-7.26,7.88-6.76,3.09.52,5.56,4.74,8.26,7.38.58.56,1.03,1.27,1.54,1.9-.46,1.36-1.86,1.7-2.75,2.57-2.81,2.74-7.13,4.01-8.28,8.38-4.54,3.04-6.89,8.17-10.99,11.64-1.69,1.44-.91,2.87.13,4.26-.02,1.66-.31,3.23-.82,4.84-3.52,11.07-3.23,22.19.96,32.92,2.65,6.78,5.42,13.9,12.96,17.18-3.39,5.95-6.84,11.87-10.13,17.87-.79,1.44-3.01,2.55-1.72,4.7,1.18,1.97,3.29,1.46,4.97,1.23,3.96-.53,4.98,1.05,4.93,4.87-.19,14.9-.08,29.81-.08,44.72q0,8.97,8.73,9.43c-.17,2.62,1.49,2.83,3.52,2.81,6.6-.06,13.21-.23,19.79.06,3.8.17,4.72-1.19,4.69-4.81-.16-16-.04-32.01-.02-48.01,2.96,3.55,3.96,7.92,4.88,12.25,2.86,13.52-.13,26.95-1.33,40.31-.94,10.39-.21,20.39,2.39,30.27,3.69,14.03,11.36,26.03,21.42,36.24,3.38,3.42,6.4,8.04,11.82,9.13,2.63,4.33,5.24,8.67,7.9,12.98,1.16,1.88.69,3-1.36,3.64-2.94.93-5.88,1.82-8.76,2.9-.96.36-2.47.64-2.18,2.22.35,1.88,1.93,1.67,3.16,1.33,2.96-.83,5.94-1.71,8.77-2.89,2.67-1.11,4.07-.99,5.7,1.99,5.09,9.32,10.81,18.29,16.06,27.53,1.23,2.16,2.35,2.38,4.23,1.3,3.94-2.26,7.89-4.52,11.84-6.78,1.32,5.97,1.77,6.29,6.84,3.34,13.09-7.61,26.08-15.4,39.18-23.01,2.31-1.34,1.88-2.71.83-4.44,4.86-1.75,9.66-3.85,15.04-2.83.73,4.1,4.52,5.73,6.9,8.5.63.74,1.95.66,2.65-.12.7-.79.5-1.86-.25-2.64-2.15-2.23-4.35-4.42-6.53-6.63,5.41-3.96,12.16-4.55,18.08-7.23,1.83.73,4.36,5.34,4.91-.9,1.07-2.38,3.6-2.68,5.52-3.8,5.17-3.02,11.25-4.53,15.43-9.22,5.73-.18,11.22,1.71,16.9,2,7.71.39,15.32-.3,22.83-2.11,10.08.53,19.44-2.33,27.79-7.51,17.39-10.79,34.42-22.15,51.57-33.31,1.47-.95,3.41-1.56,3.53-3.81,1.6-.05,3.2-.1,4.8-.14,17.72,1.29,31.31-7.48,42.55-19.45,13.98-14.9,19.21-33.8,20.27-53.92,6.4-2.15.32-4.06-.12-6.08.81-7.2-1.81-14.09-1.88-21.21,1.36,1.07,3.16,2.03,4.4.64,1.57-1.76-.63-2.86-1.64-3.96-2.9-3.15-5.89-6.21-8.84-9.3-1.17-5.86-4.5-10.17-9.49-13.31,1.81-1.93,3.73-3.76,5.39-5.81,1.83-2.27,3.23-2.04,5.04.07,1.93,2.25,4.14,4.28,6.31,6.31.91.85,2.33,1.05,3.2.26,1.38-1.26-.29-2-.97-2.7-2.98-3.1-6.18-6-9.06-9.18-1.81-2-3.04-1.82-4.78.04-2.35,2.53-4.96,4.83-7.46,7.23-7.55-3.86-15.63-6.12-23.83-8.07-.06-.62-.12-1.25-.18-1.87,2.23-6.82-2.39-15.64-9.91-18.91-.03-.32-.09-.64-.17-.95Zm11.17,205.52c2.13,2.26,4.15,4.43,6.21,6.56.76.79.96,2.93,2.82,1.28,1.19-1.05,1.51-2.57.28-3.44-6.6-4.67-7.15-9.17-.15-13.97,1.16-.8,1.27-2.5.09-3.5-1.07-.9-2.01-.08-2.91.85-2.06,2.14-4.11,5.52-6.48,5.82-2.86.37-4.5-3.73-6.85-5.69-1.05-.88-2.34-2.04-3.44-1.05-1.42,1.27-.2,2.64.78,3.83q5.54,6.73.15,13.06c-.11.13-.23.24-.34.36-.8.87-1.76,1.88-.63,2.95.91.86,2.28.62,3.2-.18,1.62-1.41,3.08-3.01,4.63-4.51.69-.67,1.44-1.3,2.65-2.37ZM325.34,27.89c6.21.09,11.15-4.52,11.16-10.43.01-5.7-4.79-10.45-10.63-10.5-6.24-.06-11.28,4.61-11.29,10.46-.01,5.67,4.83,10.39,10.76,10.48ZM55.89,100.56c-6.98-.09-11.17,3.7-11.15,10.08.02,5.88,4.7,10.8,10.33,10.88,6.22.09,11.12-4.51,11.19-10.48.07-6.06-4.22-10.39-10.37-10.48ZM149.59,20.95c2.29-.27,2.11-1.76,1.38-2.87-.89-1.36-2.1-2.6-3.42-3.55-3.62-2.6-3.42-4.79-.03-7.57,1.82-1.49,5.64-3.69,3.25-6.12-2.62-2.66-4.28,1.65-5.87,3.22-2.62,2.58-4.47,3.94-7.54.44-1.52-1.73-3.42-6.2-6.15-3.41-2.25,2.3,2.03,4.14,3.67,5.82,2.31,2.38,3.74,3.93.41,6.83-1.89,1.65-6.64,3.81-4.02,6.49,2.66,2.72,5.01-1.84,6.74-3.8,2.65-3.02,4.29-2.41,6.57.24,1.44,1.67,2.72,3.78,5.03,4.27Zm254.7,84.1c-.14-.33-.25-1.05-.67-1.48-3.11-3.19-6.15-6.46-9.48-9.41-1.5-1.33-3.35-.76-4.81.76-2.87,2.96-5.81,5.85-8.72,8.78-.8.81-1.92,1.6-.81,2.88,1.13,1.3,2.3.93,3.39-.15,2.11-2.09,4.31-4.1,6.32-6.28,1.74-1.88,3.15-1.91,4.88.03,1.98,2.21,4.2,4.19,6.26,6.33.76.79,1.57,1.16,2.63.86,1.04-.3.94-1.19,1-2.32Zm-22.72-49.28c.34-.28.96-.77,1.56-1.29,2.84-2.48,4.81-6.97,8.38-7.3,4.1-.39,5.89,4.69,8.94,7.08,1,.79,2.06,2.38,3.28,1.19,1.14-1.1.63-2.76-.57-3.96-2.94-2.92-5.85-5.87-8.81-8.78-1.24-1.21-2.79-1.38-4.02-.22-3.48,3.31-6.82,6.78-10.23,10.16-.68.67-.79,1.47-.56,2.28.2.71.88.9,2.02.84Zm22.72,24.23c-.03-1.02-.27-1.91-1.06-2.68-2.84-2.78-5.62-5.62-8.44-8.42-1.96-1.94-3.76-1.5-5.55.34-2.77,2.85-5.62,5.63-8.42,8.45-.89.9-2.34,1.7-.93,3.23,1.37,1.49,2.34.31,3.28-.62,2-1.98,4.06-3.91,5.94-6,1.89-2.11,3.47-1.99,5.32.06,2,2.21,4.23,4.2,6.29,6.35.78.81,1.62,1.1,2.66.84.78-.2.91-.85.89-1.54ZM23.33,160.03c3.71,1.84,5.34,1.33,6.84-.35,1.54-1.72,3.45-3.14,4.85-4.95,2.12-2.73,3.75-2.29,5.76.12,1.69,2.02,3.73,3.74,5.58,5.63,1.1,1.12,2.62,1.32,3.57.47,1.46-1.3-.19-2.32-1-3.16-2.86-2.98-5.82-5.86-8.74-8.79-1.26-1.27-2.46-2.16-4.19-.54-3.95,3.7-7.99,7.31-12.68,11.57Zm-9.45,219.01c0-2.99.05-5.97-.03-8.96-.03-1.01.53-2.58-1.36-2.58-1.51,0-2.55.84-2.56,2.42-.05,5.97-.05,11.95,0,17.92.01,1.54.94,2.54,2.53,2.37,1.62-.17,1.4-1.6,1.41-2.71.04-2.82.01-5.64,0-8.46Zm13.97,43.04c-3.94-4.73-6.26-10.88-9.57-16.48-.26-.45-1.97-.45-2.75-.09-1.08.49-.74,1.67-.3,2.57,2.73,5.54,5.63,10.97,9.39,15.9.54.7.87,1.5,1.81.95.84-.49,1.59-1.21,1.42-2.86Zm11.04,12.22c-.67-.1-1.09.3-1.15,1.07-.08,1.14-.15,2.08,1.08,2.97,4.52,3.24,9.16,6.24,14.07,8.85,1.26.67,2.37,1.37,3.35-.19,1.17-1.86-.16-2.69-1.58-3.39-4.74-2.32-9.17-5.15-13.42-8.26-.64-.47-1.49-.68-2.35-1.06Zm-22.23-82.01c1.15.03,1.79-.7,2.24-1.61,2.49-5,4.66-10.17,7.71-14.89.52-.8.8-2.43-.52-3.05-1.18-.55-2.38.22-2.98,1.24-2.99,5.07-5.76,10.27-7.97,15.74-.64,1.58.5,2,1.52,2.57ZM297.76,53.58c-.69-.79-1.15-1.48-1.76-1.98-4.58-3.73-9.61-6.77-14.82-9.51-1.03-.54-2.5-.8-3.18.29-.82,1.32-.02,2.76,1.27,3.29,5.49,2.26,10.25,5.7,14.99,9.15,2,1.45,2.32-.44,3.51-1.23Zm13.03,10.21c-1.57-.17-2.34.46-2.9,1.3-.6.9.06,1.6.72,2.06,4.46,3.17,7.98,7.26,11.43,11.43.98,1.19,2.32,3.14,3.97,1.54,1.61-1.57.26-3.27-1.11-4.63-3.4-3.36-6.74-6.77-10.14-10.14-.68-.67-1.5-1.21-1.96-1.57Zm-212.07,41.6c-.29-.67-.38-1.55-.81-1.75-1.25-.59-2.13.23-2.93,1.15-3.88,4.47-6.54,9.67-8.98,15-.44.97-.65,2.02.56,2.48,1.56.6,2.35-.47,3.06-1.69,1.96-3.4,3.99-6.76,6-10.12,1-1.67,2.03-3.32,3.1-5.07Zm-18.44,32.07c-.77.07-1.39.92-1.73,2.45-1.18,5.37-2.54,10.7-3.8,16.05-.29,1.24-.17,2.33,1.49,2.45,1.53.12,2.2-.29,2.55-2.07,1.09-5.55,2.58-11.03,3.84-16.55.27-1.18.23-2.41-2.35-2.33Zm-9.9,313.79c1.17,2.75,2.5,3.67,4.76,3.88,4.52.43,9.01,1.28,13.52,1.91,1.77.24,3.36-.16,4.04-2.03.47-1.28-.45-1.96-1.5-1.87-6.87.61-13.4-2.71-20.82-1.89ZM470.99,91.69c1.44-.07,8.69-6.8,8.71-8.23,0-.56-.3-1.3-.73-1.65-.85-.69-2.04-.59-2.75.06-2.41,2.23-4.88,4.45-6.92,7-1.06,1.32-.59,2.89,1.68,2.81Zm-16.48-14.98c4-1.28,6.14-4.72,8.91-7.35.74-.71.71-1.83.28-2.77-.29-.63-.93-.81-1.65-.69-2.5.41-7.86,7.89-7.54,10.81ZM1.05,47.09c3.92-3.1,7.18-5.31,8.8-9.05.28-.64.28-1.76-.67-2.09-.52-.18-1.43-.03-1.82.33-2.36,2.26-4.66,4.6-6.9,6.99-.83.88-.31,1.85.31,2.66.24.31.46.97.27,1.16Zm17.81,15.72c1.91-2.47,3.78-4.97,5.75-7.39.74-.91,1.84-1.88,1.1-2.98-.84-1.25-2.68-1.06-3.55-.31-2.24,1.9-4.37,4.02-6.11,6.37-.87,1.18-.57,2.93,2.82,4.32Zm-8.91-3.28c-.1-1.69-5.89-7.61-7.61-7.74-.81-.06-1.72-.11-2.13.77-.35.77-.28,1.62.36,2.27,2.06,2.1,4.15,4.18,6.21,6.27.66.67,1.46.7,2.26.45,1-.32.88-1.23.9-2.03Zm15.92-14.89c.11-1.63-7.05-8.91-8.44-8.79-1.97.17-2.2,1.66-1.3,2.8,2.04,2.57,4.25,5.07,6.72,7.22,1.23,1.07,2.58.14,3.02-1.23Zm210.71,413.34c1.16,0,9.42-8.1,9.24-8.85-.13-.56-.62-1.08-1.07-1.49-.73-.68-1.4-.47-2.09.24-2.29,2.36-4.61,4.68-6.96,6.97-.67.66-1.02,1.3-.34,2.08.4.47.94.82,1.21,1.05ZM479.7,74.73c.08-1.25-8.15-9.14-9.1-8.76-1.05.42-2.42,1.26-1.26,2.54,2.21,2.44,4.6,4.76,7.14,6.85.84.68,2.51.93,3.22-.62Zm-15.63,15.33c-.04-1.39-6.77-8.35-8.06-8.49-1.45-.15-2.59.72-1.93,1.95,1.81,3.34,4.69,5.84,7.77,7.98,1.05.73,2.19-.11,2.22-1.43Z"/>
  <path class="uuid-525c0e03-781e-43d2-ab81-3270affa06b2" d="m38.99,269.88c-7.55-3.28-10.31-10.4-12.96-17.18-4.19-10.73-4.48-21.85-.96-32.92.51-1.61.8-3.19.82-4.84,5.31-2.16,8.15-7.19,12.28-10.91,2.07,3.57,5.22,5.79,7.75,8.59,1.19,1.32,2.91,2.42,4.2.78,1.38-1.75-1.1-2.33-1.94-3.32-1.69-1.99-3.51-3.82-5.13-5.91-1.6-2.07-3.12-4.78-6.31-5.13,1.14-4.38,5.47-5.64,8.28-8.38.89-.87,2.29-1.2,2.75-2.57.83-.63,1.65-1.26,2.48-1.9,5.52-1.02,10.24-4.4,15.82-5.35,1.79-.3,3.55-.6,5.35-.65.89,4.11-.35,8.08-.79,12.11-.16,1.49-.16,3.25,1.76,3.49,2.07.26,2.39-1.54,2.23-3.01-.5-4.62,1.54-9,1.16-13.58,13.07-1.77,25.11,1.43,36.61,7.45,4.4,2.31,9.04,4.2,13.29,6.75,12.05,7.21,23.17,6.39,33.53-3.21,1.55.72,1.25,3.1,3.63,3.68,4.73-8.78,9.48-17.64,14.28-26.46,2.19-4.03,4.22-7.87,8.87-10.14,22.54-11.01,33.81-38.49,25.56-62.19-1.57-4.5-2.57-9.68-7.32-12.46-2.33-4.74-4.85-9.4-8.36-13.36-2.51-2.83-5.31-5.2-.51-8.35.93-.61,1.14-1.68.3-2.57-.85-.89-2.04-.71-2.6.14-3.17,4.79-6.05,2.43-9.27,0-2.35-1.78-5.09-3.03-7.66-4.52,11.47-14.17,25.66-23.56,44.42-23.96,7.33-.16,14.54,1.59,21.26,4.83.67,2.04,2.45,1.92,4.08,2.11,10.51,5.99,18.51,14.44,24.55,24.85.58,1,1.36,1.86,1.22,3.12-1.25-.37-2.57-.58-3.73-1.15-3.96-1.94-5.78-.58-7.06,3.51-3.81,12.15-7.88,24.23-12.05,36.26-8.08,23.31-16.46,46.52-24.31,69.91-1.36,4.04-3.14,4.32-6.39,3.4-7.01-1.98-12.88.18-18.25,4.78-5.3,4.54-6.2,10.94-7.67,17.09-8.89,37.01-17.69,74.03-26.6,111.03-2.19,9.11,2.19,18.97,10.65,23.47,1.32.7,3.37.54,3.73,2.56-9.96,6.28-19.83,12.5-29.7,18.72-3.7-6.79-8.31-5.01-13.16-1.44-.48.35-1.23.33-1.86.49-.8-1.04-1.98-1.96-2.35-3.13-1.63-5.23-4.59-3.85-7.88-1.87-12,7.21-23.92,14.54-36.06,21.5-9.65,5.53-8.79,4.41-3.08,14.31,8.96,15.55,17.96,31.07,26.94,46.6-5.41-1.09-8.44-5.7-11.82-9.13-10.06-10.2-17.72-22.2-21.42-36.24-2.6-9.88-3.33-19.89-2.39-30.27,1.21-13.36,4.19-26.79,1.33-40.31-.92-4.34-1.91-8.7-4.88-12.25-.03-.36-.06-.72-.09-1.07-.09-2.74-.29-5.4,3.91-5.03,1.6.14,4.26,1.09,4.71-1.2.4-2.04-1.16-3.96-3.46-4.71-1.71-2.97-3.42-5.95-5.12-8.92-.28-.34-.55-.67-.83-1.01-3.48-6.23-6.84-12.53-10.49-18.66-1.49-2.5-1.87-4.56-.37-7.24.93-1.66,3.24-4.39.95-5.62-3.06-1.64-3.06,2.37-4.39,3.95-.18.21-.53.27-1.02.5-.35-.44-.75-.92-1.12-1.41-3.72-5.03-3.9-4.97-7,.33-3.38,5.79-6.91,11.49-10.37,17.23Zm77.33-73.66c-.58-.96-1.1-1.97-1.76-2.87-1.32-1.79-1.49-5.09-4.15-5.06-2.78.03-3.38,3.15-4.54,5.24-5.78,10.32-11.5,20.68-17.33,30.97-5.21,9.19-5.26,9.16,5,9.66.27.28.53.56.8.84.05,15.68.1,31.36.13,47.04q.02,10.41,9.98,11.02c-.07,2.69,1.73,2.71,3.69,2.7,6.63-.04,13.26-.19,19.88.06,3.61.14,4.46-1.26,4.43-4.61-.14-15.24-.06-30.48-.06-45.73q0-8.2,8.37-8.55c.26-.01.5-.32.83-.55-.09-.45-.09-.97-.3-1.38-6.66-12.72-14.64-24.71-20.77-37.71-1.1-2.33-2.68-1.15-4.19-1.05Zm-3.85,136.36c.26-6.73-3.41-10.67-10.17-10.95-5.3-.22-10.68,5.15-10.77,10.75-.09,5.19,5.47,11.13,10.44,11.17,5.75.05,10.26-4.67,10.5-10.96ZM226.93,39.02c-.7-2.22-2.77-1.42-4.21-.84-4.4,1.77-8.69,3.83-12.56,6.64-1.23.89-3.78,1.6-2.68,3.38.88,1.43,3.2.82,4.87-.22,4.15-2.58,8.15-5.43,12.92-6.85.77-.23,1.54-.62,1.65-2.1ZM72.11,216.66c-1.25-1.37.71-3.71-1.51-4.35-1.74-.5-2.09,1.53-2.29,2.62-1.03,5.41-1.85,10.87-2.67,16.32-.17,1.15-.06,2.48,1.49,2.64,1.33.13,1.42-.99,1.63-1.99,1.09-5.08,2.23-10.14,3.35-15.23Zm86.28,33.23c0-1.3-4.73-6.59-6.76-8.01-.96-.67-2.03-1.5-3-.38-.85.99-.37,2.15.49,3.07,2,2.15,4.05,4.27,6,6.47.63.72,1.22,1.13,2,.42.57-.52.98-1.21,1.27-1.58Zm15.66-7.13c-.15-.25-.37-.89-.82-1.27-.7-.61-1.56-.5-2.21.13-2.34,2.28-4.67,4.58-6.94,6.94-.39.4-.74,1.23-.59,1.69.32.95,1.35.69,2.1.66,1.49-.05,8.26-6.37,8.45-8.15Zm0-8.35c-.1-2.02-7.14-8.43-8.82-8.34-.6.03-1.47.17-1.7.57-.21.37.09,1.3.46,1.7,2.26,2.38,4.59,4.69,6.92,7,.64.64,1.48.81,2.23.27.47-.34.74-.96.91-1.19Zm-18.03-8.33c-2.86,1.99-5.73,4.5-7.58,7.8-.85,1.51.8,2.83,2.12,1.81,2.72-2.1,5.2-4.58,7.44-7.2,1.11-1.31.31-2.49-1.98-2.41Z"/>
  <path class="uuid-ecc06b82-0e2c-4edb-9eeb-50f53e525994" d="m150.29,354.49c9.87-6.22,19.74-12.44,29.7-18.72-.36-2.02-2.41-1.86-3.73-2.56-8.46-4.5-12.84-14.36-10.65-23.47,8.91-37,17.71-74.03,26.6-111.03,1.48-6.15,2.37-12.55,7.67-17.09,5.37-4.6,11.24-6.76,18.25-4.78,3.26.92,5.04.64,6.39-3.4,7.85-23.39,16.23-46.6,24.31-69.91,4.17-12.03,8.24-24.11,12.05-36.26,1.28-4.1,3.1-5.45,7.06-3.51,1.15.56,2.48.77,3.73,1.15,18.61,6.55,37.22,13.11,55.83,19.66,12.06,4.25,24.08,8.63,36.23,12.63,3.59,1.18,4.83,2.69,2.75,5.94-1.85,2.9-.48,4.61,1.58,6.66,21.15,21.03,42.17,42.19,63.36,63.17,2.55,2.52,2.99,3.85.11,6.49-6.22,5.71-12.03,11.87-18,17.84-3.36,3.36-6.91,6.56-9.39,10.7-3.55,3.11-6.99,6.33-9.9,10.07-1.3,1-1.09,1.91.25,2.59,3.79,1.91,6.05,5.34,8.61,8.48,0,0-.04-.07-.04-.07.33.78.66,1.55.99,2.33-.08.22-.03.42.13.58.03,5.27.35,10.54-1.02,15.74-1.94,7.42-3.78,14.87-5.56,22.33-.43,1.83-1.44,4.13.81,5.38,4.87,2.72,4.45,7.21,3.55,11.36-2.37,11.03-5.3,21.95-7.83,32.95-1.18,5.16-2.97,9.46-9.13,9.89-1.93.14-2.73,1.9-2.35,3.09.48,1.56,2.21.86,3.39.3,5.07-2.41,10.11-4.86,15.16-7.3,6.19-.31,12.44-.97,17.81,3.24,8.87,10.08,5.8,23.16-5.73,29.78-10.88,6.24-21.75,12.78-31.19,21.25-11.92,7.6-23.79,15.28-35.77,22.78-13.04,8.17-25.23,17.79-39.82,23.31-7.51,1.81-15.11,2.5-22.83,2.11-5.68-.29-11.17-2.18-16.9-2-3.43-1.62-7.22-1.42-10.84-2.01-10.12-1.64-20.26-3.24-30.42-4.6-5.8-.78-11.52-2.35-17.44-2.14-7.01-1.35-12.92.58-17.95,5.69-2.54,2.58-5.36,4.9-8.25,7.09-1.78,1.35-1.44,2.17-.44,3.94,3.68,6.58,8.54,12.53,10.88,19.85-.51,1.57-1.91,2.2-3.18,2.95-10.31,6.07-20.63,12.12-30.95,18.18-3.95,2.26-7.89,4.52-11.84,6.78-1.88,1.08-3.01.86-4.23-1.3-5.25-9.24-10.96-18.21-16.06-27.53-1.63-2.98-3.02-3.1-5.7-1.99-2.83,1.18-5.81,2.06-8.77,2.89-1.23.35-2.81.55-3.16-1.33-.29-1.58,1.22-1.86,2.18-2.22,2.88-1.08,5.83-1.97,8.76-2.9,2.05-.65,2.53-1.76,1.36-3.64-2.67-4.31-5.27-8.65-7.9-12.98-8.98-15.53-17.98-31.05-26.94-46.6-5.71-9.9-6.57-8.77,3.08-14.31,12.14-6.96,24.07-14.29,36.06-21.5,3.29-1.98,6.25-3.36,7.88,1.87.37,1.17,1.54,2.09,2.35,3.13q4.01,8.34,11.51,3.5c1.21-.78,2.34-1.7,3.51-2.55Zm184.26,2.19c13.7-6.27,27.38-12.57,41.11-18.78,3.48-1.57,3.22-4.87,3.52-7.62.35-3.22-2.9-2.65-4.73-3.13-9.76-2.53-19.66-4.53-29.34-7.34-13.01-3.79-21.51-17.35-19.42-30.4,2.3-14.38,14.55-24.76,27.45-23.67,4.62.39,9.18.62,13.71,1.82,7.51,1.98,15.15,3.45,22.65,5.47,2.78.75,3.84.04,4.43-2.55,2.08-9.19,4.43-18.32,6.36-27.53,2.29-10.92-2.28-18.15-12.96-20.78-27.38-6.75-54.79-13.32-82.04-20.59-28.42-7.59-57.18-13.89-85.8-20.73-11.39-2.72-19.11,1.9-21.91,13.35-3.18,13-6.07,26.07-9.16,39.08-6.08,25.57-11.74,51.25-18.51,76.64-3.76,14.11,9.23,25.07,22.58,21.61,11.03-2.85,21.95-1.9,32.91-.24,10.76,1.62,21.51,3.38,32.23,5.3,18.01,3.24,36.22,5.41,54.02,9.87,3.17,2.5,6.76,4.49,8.95,8.13,4.39,7.31,4.45,7.28,11.95,3.41.71-.37,1.35-.88,2.03-1.32Zm-125.59-23.25c-10.1.35-19.98,1.76-28.56,6.69-12.59,7.22-24.52,15.57-36.89,23.18-2.1,1.29-1.76,2.31-.96,3.74,2.6,4.71,5.24,9.41,7.94,14.06,8.54,14.73,17.22,29.38,25.6,44.2,1.84,3.25,2.57,2.71,5.12.61,4.9-4.03,8.92-9.37,15.14-11.6,7.1-2.55,14.26-.62,21.34.33,10.31,1.38,20.6,3,30.89,4.49,10.16,1.47,20.4,2.51,30.45,4.52,6.71,1.35,13.2,1.07,19.78.06,10.94-1.68,20.11-7.42,29.02-13.42,18.75-12.63,38.27-24.09,56.58-37.41,9.63-7.01,19.97-13.06,30.01-19.52,5.71-3.68,6.59-9.33,5.59-15.24-.81-4.78-4.41-7.16-9.06-8.72-3.9-1.31-7.09-.43-10.38,1.06-12.07,5.48-24.12,10.99-36.13,16.57-12.44,5.78-24.85,11.64-37.24,17.52-2.29,1.09-3.79,2.42-3.74,5.61.26,14.22-13.38,22.2-24.93,21.05-7.72-.77-15.3-2.95-22.96-4.38-13.59-2.54-27.24-4.78-40.79-7.54-6.33-1.29-12.88-1.79-18.88-4.68-1.47-.71-2.26-1.13-1.89-2.7.42-1.75,1.43-.99,2.61-.73,3.47.77,6.99,1.57,10.53,1.8,7.89.51,15,4.1,22.67,5.42,15.67,2.7,31.36,5.27,46.98,8.25,10.69,2.04,19.46-2.97,22.5-13.51,3.29-11.4-2.19-20.97-13.82-23.61-7.12-1.62-14.34-2.82-21.54-4.08-15.04-2.65-30.06-5.43-45.15-7.74-9.98-1.52-19.86-3.85-29.82-4.26Zm-21.14,119.19c-1.68-3.04-3.27-6.08-5-9.02-12.12-20.58-24.47-41.02-36.31-61.76-5.22-9.15-10.28-18.39-15.64-27.47-1.57-2.66-2.45-3.46-5.56-1.53-11.42,7.09-23.04,13.86-34.75,20.46-4.03,2.27-4.69,4.34-2.21,8.37,7.42,12.04,14.52,24.27,21.69,36.47,11.35,19.33,22.69,38.67,33.9,58.08.98,1.7,1.56,2.23,3.28,1.18,12.79-7.76,25.58-15.51,38.43-23.17.84-.5,1.73-.8,2.16-1.61Zm101.14-258.95c8.25,2.02,15.3,3.8,22.39,5.44,2.51.58,3.59-.6,4.48-3.18,7.48-21.93,15.13-43.8,22.92-65.62,1.03-2.89.62-4.28-1.87-6.08-5.53-3.99-8.61-9.76-8.1-16.53.21-2.82-.09-3.54-2.57-4.36-10.61-3.52-21.18-7.14-31.67-11-3.28-1.2-5.09-.47-7.01,2.31-3.75,5.43-9.77,7.95-15.76,7.48-3.74-.29-4.1.98-4.9,3.28-7.45,21.56-14.88,43.13-22.32,64.7-4.13,11.95-4.19,12.22,7.9,14.81,5.49,1.18,10.84,3.92,17.97,3.06-4.13-2.63-6.71-5.16-9.13-7.86-9.75-10.91-6.18-27.69,6.96-32.79,13.21-5.13,30.29-.94,39.67,9.73,8.13,9.25,8.72,20.66,1.1,28.82-4.98,5.34-11.85,6.69-20.06,7.77Zm36.15,8.48c2.59.56,3.87-.67,4.69-3.43,1.58-5.37,3.6-10.61,5.43-15.91,8.91-25.8,17.78-51.61,26.8-77.37,1.15-3.28,1.26-5.06-2.76-6.14-5.68-1.52-11.15-3.81-16.71-5.74-24.34-8.46-48.71-16.87-73.02-25.42-2.9-1.02-4.23-.74-5.33,2.44-12.15,35.26-24.45,70.47-36.69,105.71-.26.74-.43,2.22-.26,2.28,2.45.87,4.88,1.76,7.58,1.73,2.15-.03,2.69-1.26,3.27-2.99,2.18-6.54,4.53-13.03,6.79-19.55,6.53-18.8,13.05-37.59,19.55-56.4.71-2.07,1.16-4.56,4.16-3.63,8.59,2.65,13.84-1.98,17.99-8.39,1.49-2.3,2.56-2.76,5.09-1.86,12.81,4.56,25.7,8.89,38.53,13.38,2.04.71,3.38,1.47,2.62,4.63-1.61,6.77,1.57,13.6,7.63,16.77,3.65,1.91,3.47,4.12,2.39,7.23-7.67,22.04-15.29,44.09-22.92,66.14-1.85,5.34-1.06,6.38,5.17,6.53Zm28.78,67.56c-2.89.51-5.53-.22-8.16.67-8.14,2.72-15.48,11.27-16.19,18.81-1.18,12.63,3.52,20.96,12.98,25.31,12.98,5.97,27.38,7.44,41.13,10.96,3.13.8,5.04-.65,5.86-4.22,2.92-12.61,6.21-25.13,9.35-37.69.65-2.61-.48-4.08-2.99-4.68-3.62-.88-7.21-1.93-10.87-2.63-10.49-2.01-20.52-6.29-31.11-6.51Zm16.5-55.3c2.3.42,3.42-1.23,4.65-2.52,6.38-6.68,12.63-13.5,19.17-20.03,2.17-2.16,2.83-3.67,1.14-6.55-3.33-5.65-3.29-11.74.11-17.3,1.73-2.83.91-4.17-1.06-6.1-8.06-7.89-16.02-15.87-23.92-23.92-1.94-1.98-3.32-3.06-6-.73-1.57,1.37-4.28,2.1-6.42,2-3.75-.17-4.67,1.9-5.63,4.79-3.89,11.67-7.87,23.31-12.01,34.89-.73,2.05-.51,2.85,1.24,4.3,7.82,6.46,13.95,14.02,13.79,24.96-.02,1.58.79,2.45,2.22,2.83,4.24,1.13,8.49,2.25,12.74,3.37Zm7.21.86c7.2,4.41,12.59,2.79,17.67-3.38,5.45-6.61,11.66-12.6,17.62-18.78,4.38-4.53,8.76-9.09,13.41-13.33,2.79-2.54,3.03-4.09.13-6.94-16.81-16.51-33.39-33.25-50.05-49.91-3.29-3.29-6.62-6.52-9.84-9.87-1.85-1.93-2.67-1.79-3.51.88-1.62,5.16-3.69,10.17-5.32,15.32-.61,1.94-2.73,4.66-1.26,5.78,2.16,1.65,4.91-.47,7.28-1.49.44-.19.74-.66,1.15-.93,2.58-1.69,4.68-1.4,6.96.94,9.04,9.26,18.24,18.37,27.42,27.49,2.03,2.02,2.65,3.63.61,6.34-4.36,5.79-4.87,12.32-.41,18.13,2.78,3.62,1.5,5.5-1.08,7.84-7.43,6.74-13.69,14.57-20.79,21.92Zm-97.64-65.88c-1.82,0-3.64-.02-5.46,0-8.36.1-17.76,11.98-14.98,20.06,4.38,12.7,22.47,24.8,38.97,18.8,11.64-4.23,15.61-15.8,8.52-26.03-6.55-9.45-15.88-13.09-27.05-12.83Zm69.44,59.8c2.93.36,2.4-.81,2.23-3.08-.6-7.87-5.08-13.32-10.3-18.46-2.09-2.06-3.71-1.78-4.61,1.09-1.4,4.5-2.47,9.12-4.64,13.34-.64,1.25-.18,1.39.83,2.06,5.04,3.41,11.04,3.42,16.49,5.04Z"/>
  <path class="uuid-525c0e03-781e-43d2-ab81-3270affa06b2" d="m419.03,328.97c-5.37-4.21-11.62-3.55-17.81-3.24,3.3-13.24,6.72-26.44,9.84-39.72.87-3.69.28-7.41-3.98-9.06-1.61-.63-1.87-1.41-1.47-3,2.61-10.34,5.13-20.71,7.68-31.06,8.2,1.95,16.28,4.21,23.83,8.07-.49,1.77-3.88,2.5-2.46,4.53,1.02,1.46,3.27.27,4.79-.75,4.99,3.13,8.32,7.45,9.49,13.31-.81-.02-1.96-.39-2.38,0-4.06,3.83-8.02,7.77-11.97,11.72-.67.67-.5,1.42.13,2.17.78.92,1.38.14,2.1-.01,1.43-.3,2.16-1.44,3.09-2.33q7.78-7.48,14.97.6c.1.11.09.31.14.47.07,7.12,2.69,14.01,1.88,21.21-2.16-2.04-4.49-3.93-6.44-6.16-2.37-2.7-4.26-2.4-6.51.11-2.42,2.72-5.1,5.21-7.63,7.84-.99,1.03-3.56,1.74-1.67,3.65,1.33,1.35,2.99.25,4.33-.96,2.8-2.52,5.19-7.64,8.27-7.12,3.21.54,5.75,5.05,8.59,7.82.35.34.78.6,1.17.9-1.05,20.12-6.28,39.02-20.27,53.92-11.23,11.97-24.82,20.74-42.54,19.45,2.42-4.02,6.42-6.34,10.09-8.86,9.25-6.36,18.77-12.34,28.1-18.6,4.98-3.34,7.21-10.77,5.32-16.84-1.84-5.92-8.18-10.5-14.29-10.42-1.93.03-3.68.19-4.39,2.37Z"/>
  <path class="uuid-e4e3d490-a582-4e15-85af-903599546bd2" d="m176.15,53.96c2.57,1.49,5.31,2.74,7.66,4.52,3.22,2.44,6.1,4.8,9.27,0,.56-.85,1.76-1.04,2.6-.14.84.89.64,1.95-.3,2.57-4.79,3.14-2,5.52.51,8.35,3.51,3.95,6.02,8.62,8.36,13.36,2.82,9.78,4.8,19.42,3.02,29.9-2.78,16.28-10.86,28.78-24.85,36.8-6.76,3.87-10.55,9.05-13.31,15.7-4.5,7.07-8.41,14.45-12.04,22-2.1,2.3-3.46,2.86-5.3-.7-4.82-9.33-10.5-18.23-15.1-27.66-2.27-4.65-6.27-6.58-10.01-8.96-18.94-12.06-27.93-29.55-25.93-51.52,2.16-23.77,20.74-44.31,45.56-47.62,10.52-1.4,20.08.83,29.87,3.42Zm-71.65,49.79c-.21,27.71,22.26,50.21,49.13,50.22,26.02.02,52.32-19.41,50.44-54.36-1.32-24.65-22.76-46.89-52.15-45.88-26.04.89-48.15,23.63-47.42,50.01Zm38.85,52.73c-4.11-.93-2.74,1.55-1.88,3.17,3.63,6.77,7.41,13.46,11.21,20.13.45.78.25,2.2,1.53,2.27,1.47.08,1.7-1.35,2.23-2.32,3.69-6.74,7.33-13.5,11.02-20.24.48-.89,1.25-1.96.5-2.69-.55-.54-1.89-.6-2.77-.4-7.32,1.64-14.61,1.08-21.84.08Z"/>
  <path class="uuid-525c0e03-781e-43d2-ab81-3270affa06b2" d="m208.09,417.44c5.92-.21,11.64,1.36,17.44,2.14,10.16,1.36,20.3,2.97,30.42,4.6,3.62.59,7.41.39,10.84,2.01-4.18,4.68-10.26,6.19-15.43,9.22-1.93,1.13-4.46,1.42-5.52,3.8-2.13-2.05-4.26-4.11-6.38-6.16-.89-.86-1.97-1.58-3.03-.65-1.36,1.19-.4,2.35.52,3.37,1.32,1.45,2.65,2.9,3.98,4.35-5.92,2.68-12.67,3.27-18.08,7.23-.92.3-1.85.59-2.77.89-5.38-1.02-10.18,1.08-15.04,2.83-.33-.01-.66-.02-1-.03-1.51-5.98-5.54-10.63-8.41-15.9-1.42-2.61-1.72-4.08,1.01-6.54,3.92-3.54,9.25-5.8,11.44-11.14Zm21.81,15.67c-.17-1.58-1.57-1.48-2.66-.52-2.33,2.05-4.52,4.28-6.56,6.62-1.12,1.29-.58,2.53,1.12,2.86,1.72.33,8.29-6.56,8.1-8.96Z"/>
  <path class="uuid-caf57d53-5e56-40d1-ab92-e8b31b1c30d2" d="m73.62,281.81c1.71,2.97,3.42,5.95,5.12,8.92-1,3.47-3.87,3.16-6.46,2.97-2.85-.2-3.7.88-3.67,3.67.15,17.69.17,35.39.23,53.08-1,2.29-3.02,2.08-5,2.09-6.05.03-12.1.1-18.15.16q-8.73-.46-8.73-9.43c0-14.91-.12-29.81.08-44.72.05-3.82-.97-5.4-4.93-4.87-1.68.23-3.79.73-4.97-1.23-1.29-2.15.93-3.26,1.72-4.7,3.29-6,6.74-11.92,10.13-17.87,3.46-5.74,6.99-11.44,10.37-17.23,3.1-5.31,3.27-5.36,7-.33.37.5.77.97,1.12,1.41.49-.23.85-.29,1.02-.5,1.32-1.58,1.33-5.58,4.39-3.95,2.28,1.22-.02,3.96-.95,5.62-1.5,2.67-1.11,4.73.37,7.24,3.65,6.13,7.01,12.43,10.49,18.66-.08.63.27.91.83,1.01Zm-39.74,7.9c11.78-.02,23.56-.02,35.34-.06,1.92,0,4.62.5,2.59-3-6.13-10.59-12.26-21.18-18.88-32.62-6.76,11.7-13.1,22.69-19.45,33.68-.8.85-1.05,1.59.4,2Zm6.9,30.91c0,8.11.09,16.23-.05,24.34-.05,2.76.77,3.81,3.63,3.72,5.62-.18,11.26-.18,16.89,0,2.87.09,3.67-1.01,3.65-3.75-.1-15.9-.1-31.8,0-47.69.02-2.77-.86-3.82-3.69-3.74-5.63.16-11.26.18-16.89,0-2.92-.1-3.64,1.08-3.59,3.78.14,7.78.05,15.57.05,23.35Z"/>
  <path class="uuid-51d0a50a-84da-43d0-be56-b80b65442986" d="m169.11,165c2.76-6.65,6.55-11.83,13.31-15.7,13.99-8.02,22.08-20.52,24.85-36.8,1.79-10.48-.2-20.12-3.02-29.9,4.75,2.78,5.75,7.96,7.32,12.46,8.26,23.69-3.02,51.18-25.56,62.19-4.65,2.27-6.69,6.12-8.87,10.14-4.8,8.83-9.54,17.68-14.28,26.46-2.38-.57-2.09-2.96-3.63-3.68,0-.64,0-1.29-.01-1.93,7.11-6.13,9.38-14.31,9.88-23.24Z"/>
  <path class="uuid-51d0a50a-84da-43d0-be56-b80b65442986" d="m413.28,242.88c-2.55,10.36-5.07,20.72-7.68,31.06-.4,1.58-.15,2.37,1.47,3,4.26,1.65,4.84,5.38,3.98,9.06-3.11,13.28-6.53,26.49-9.84,39.72-5.05,2.44-10.09,4.89-15.16,7.3-1.18.56-2.9,1.25-3.39-.3-.37-1.19.42-2.96,2.35-3.09,6.17-.44,7.95-4.73,9.13-9.89,2.52-11,5.45-21.92,7.83-32.95.89-4.15,1.32-8.64-3.55-11.36-2.25-1.26-1.24-3.56-.81-5.38,1.77-7.46,3.61-14.91,5.56-22.33,1.36-5.2,1.04-10.47,1.02-15.74,2.67,3.3,4.23,7.71,8.9,9.03.06.62.12,1.25.18,1.87Z"/>
  <path class="uuid-51d0a50a-84da-43d0-be56-b80b65442986" d="m419.03,328.97c.72-2.18,2.46-2.35,4.39-2.37,6.11-.08,12.45,4.5,14.29,10.42,1.89,6.07-.34,13.5-5.32,16.84-9.33,6.26-18.84,12.24-28.1,18.6-3.67,2.52-7.67,4.84-10.09,8.86-1.6.05-3.2.1-4.8.14-2.41-.61-5.28,1.07-7.3-1.46,9.45-8.47,20.31-15.01,31.19-21.25,11.53-6.61,14.6-19.69,5.73-29.78Z"/>
  <path class="uuid-38da4de2-d9d9-4ebe-8878-40b698d5e5f8" d="m382.11,379.99c2.02,2.54,4.89.86,7.3,1.46-.11,2.25-2.06,2.86-3.53,3.81-17.16,11.16-34.19,22.52-51.57,33.31-8.35,5.18-17.71,8.04-27.79,7.51,14.59-5.52,26.78-15.14,39.82-23.31,11.98-7.5,23.85-15.18,35.77-22.78Z"/>
  <path class="uuid-38da4de2-d9d9-4ebe-8878-40b698d5e5f8" d="m204.04,451.02c.33.01.66.02,1,.03,1.05,1.72,1.48,3.1-.83,4.44-13.1,7.6-26.08,15.4-39.18,23.01-5.08,2.95-5.52,2.63-6.84-3.34,10.32-6.06,20.64-12.12,30.95-18.18,1.27-.75,2.67-1.38,3.18-2.95,3.26-3.51,7.6-2.82,11.72-3Z"/>
  <path class="uuid-38da4de2-d9d9-4ebe-8878-40b698d5e5f8" d="m45.69,352.7c6.05-.06,12.1-.13,18.15-.16,1.98,0,4,.2,5-2.09,1.35-1.59.75-3.5.76-5.26.05-14.43,0-28.86.07-43.29,0-1.11-.83-2.63,1.03-3.53.97,1.11,1.93,2.21,2.88,3.31.03.36.06.72.09,1.07-.02,16-.14,32.01.02,48.01.04,3.62-.89,4.98-4.69,4.81-6.59-.29-13.2-.12-19.79-.06-2.03.02-3.69-.18-3.52-2.81Z"/>
  <path class="uuid-2a964ac3-19f5-4be1-bb68-2547dc1bc373" d="m414.2,426.67c-1.21,1.08-1.95,1.7-2.65,2.37-1.55,1.5-3.01,3.1-4.63,4.51-.92.8-2.28,1.04-3.2.18-1.13-1.07-.17-2.08.63-2.95.11-.12.23-.24.34-.36q5.38-6.31-.15-13.06c-.98-1.19-2.2-2.56-.78-3.83,1.11-.99,2.39.17,3.44,1.05,2.35,1.96,3.98,6.05,6.85,5.69,2.38-.3,4.42-3.68,6.48-5.82.9-.93,1.85-1.75,2.91-.85,1.18.99,1.07,2.7-.09,3.5-7.01,4.81-6.46,9.31.15,13.97,1.23.87.91,2.39-.28,3.44-1.86,1.65-2.07-.5-2.82-1.28-2.06-2.13-4.07-4.3-6.21-6.56Z"/>
  <path class="uuid-e4e3d490-a582-4e15-85af-903599546bd2" d="m325.34,27.89c-5.93-.09-10.77-4.81-10.76-10.48.01-5.84,5.05-10.51,11.29-10.46,5.84.05,10.65,4.8,10.63,10.5-.01,5.91-4.95,10.53-11.16,10.43Zm-.25-4.01c4.81.09,7.48-2.17,7.55-6.38.07-4-2.54-6.5-6.84-6.55-4.37-.04-6.97,2.19-7.15,6.13-.19,4.12,2.28,6.72,6.43,6.8Z"/>
  <path class="uuid-caf57d53-5e56-40d1-ab92-e8b31b1c30d2" d="m55.89,100.56c6.15.08,10.44,4.41,10.37,10.48-.07,5.97-4.98,10.57-11.19,10.48-5.63-.08-10.3-5-10.33-10.88-.03-6.38,4.17-10.17,11.15-10.08Zm-.01,4c-4.86-.03-7.14,1.89-7.14,6.03,0,3.77,3.58,8.01,6.65,7.87,3.54-.17,7.3-4.01,7.3-7.45,0-4.16-2.39-6.42-6.81-6.45Z"/>
  <path class="uuid-e4e3d490-a582-4e15-85af-903599546bd2" d="m149.59,20.95c-2.31-.49-3.59-2.6-5.03-4.27-2.28-2.64-3.92-3.25-6.57-.24-1.73,1.96-4.08,6.52-6.74,3.8-2.62-2.68,2.13-4.84,4.02-6.49,3.33-2.9,1.9-4.45-.41-6.83-1.63-1.68-5.92-3.52-3.67-5.82,2.73-2.79,4.63,1.68,6.15,3.41,3.08,3.5,4.93,2.14,7.54-.44,1.59-1.57,3.25-5.88,5.87-3.22,2.39,2.43-1.43,4.63-3.25,6.12-3.4,2.78-3.59,4.97.03,7.57,1.32.95,2.54,2.19,3.42,3.55.73,1.11.92,2.6-1.38,2.87Z"/>
  <path class="uuid-e4e3d490-a582-4e15-85af-903599546bd2" d="m36.76,199.04c3.18.35,4.7,3.06,6.31,5.13,1.61,2.09,3.44,3.92,5.13,5.91.84.99,3.32,1.57,1.94,3.32-1.29,1.63-3.01.54-4.2-.78-2.53-2.8-5.68-5.02-7.75-8.59-4.14,3.72-6.98,8.75-12.28,10.91-1.03-1.39-1.82-2.83-.13-4.26,4.1-3.47,6.44-8.59,10.99-11.64Z"/>
  <path class="uuid-e4e3d490-a582-4e15-85af-903599546bd2" d="m457.02,307.94c-.39-.3-.82-.56-1.17-.9-2.84-2.76-5.38-7.27-8.59-7.82-3.08-.52-5.47,4.6-8.27,7.12-1.34,1.21-3,2.31-4.33.96-1.89-1.91.68-2.62,1.67-3.65,2.53-2.63,5.2-5.12,7.63-7.84,2.24-2.51,4.14-2.81,6.51-.11,1.95,2.23,4.28,4.12,6.44,6.16.44,2.02,6.52,3.93.12,6.08Z"/>
  <path class="uuid-2a964ac3-19f5-4be1-bb68-2547dc1bc373" d="m455.02,280.65c-.04-.16-.04-.36-.14-.47q-7.2-8.09-14.97-.6c-.93.89-1.66,2.03-3.09,2.33-.72.15-1.32.93-2.1.01-.64-.75-.8-1.51-.13-2.17,3.95-3.95,7.9-7.89,11.97-11.72.42-.4,1.57-.02,2.38,0,2.95,3.09,5.95,6.15,8.84,9.3,1.02,1.1,3.21,2.2,1.64,3.96-1.23,1.38-3.03.43-4.4-.64Z"/>
  <path class="uuid-e4e3d490-a582-4e15-85af-903599546bd2" d="m404.29,105.05c-.06,1.13.04,2.02-1,2.32-1.06.31-1.87-.06-2.63-.86-2.06-2.14-4.28-4.12-6.26-6.33-1.73-1.94-3.15-1.91-4.88-.03-2.01,2.18-4.21,4.19-6.32,6.28-1.09,1.08-2.26,1.45-3.39.15-1.11-1.28,0-2.07.81-2.88,2.91-2.92,5.85-5.81,8.72-8.78,1.47-1.52,3.31-2.09,4.81-.76,3.33,2.95,6.37,6.22,9.48,9.41.42.43.53,1.15.67,1.48Z"/>
  <path class="uuid-2a964ac3-19f5-4be1-bb68-2547dc1bc373" d="m381.57,55.76c-1.14.06-1.82-.12-2.02-.84-.23-.81-.12-1.61.56-2.28,3.41-3.39,6.75-6.85,10.23-10.16,1.23-1.17,2.78-.99,4.02.22,2.96,2.9,5.87,5.85,8.81,8.78,1.2,1.2,1.71,2.86.57,3.96-1.22,1.18-2.28-.4-3.28-1.19-3.05-2.4-4.83-7.47-8.94-7.08-3.57.34-5.54,4.82-8.38,7.3-.6.52-1.22,1.01-1.56,1.29Z"/>
  <path class="uuid-e4e3d490-a582-4e15-85af-903599546bd2" d="m404.29,79.99c.02.7-.1,1.35-.88,1.54-1.04.26-1.88-.03-2.66-.84-2.06-2.15-4.3-4.14-6.29-6.35-1.85-2.05-3.43-2.17-5.32-.06-1.88,2.09-3.94,4.02-5.94,6-.94.94-1.91,2.11-3.28.62-1.41-1.53.04-2.33.93-3.23,2.8-2.82,5.64-5.6,8.42-8.45,1.79-1.84,3.59-2.28,5.55-.34,2.82,2.8,5.6,5.64,8.44,8.42.78.77,1.03,1.66,1.05,2.67Z"/>
  <path class="uuid-2a964ac3-19f5-4be1-bb68-2547dc1bc373" d="m439.43,254.73c-1.52,1.02-3.77,2.21-4.79.75-1.41-2.02,1.98-2.76,2.46-4.53,2.5-2.4,5.1-4.69,7.46-7.23,1.73-1.86,2.96-2.04,4.78-.04,2.88,3.18,6.08,6.08,9.06,9.18.67.7,2.34,1.44.97,2.7-.87.79-2.29.59-3.2-.26-2.17-2.03-4.38-4.06-6.31-6.31-1.81-2.1-3.21-2.33-5.04-.07-1.65,2.05-3.58,3.88-5.39,5.81Z"/>
  <path class="uuid-e4e3d490-a582-4e15-85af-903599546bd2" d="m23.33,160.03c4.69-4.27,8.73-7.87,12.68-11.57,1.73-1.62,2.92-.73,4.19.54,2.91,2.93,5.88,5.81,8.74,8.79.81.84,2.46,1.87,1,3.16-.95.84-2.47.65-3.57-.47-1.85-1.89-3.89-3.61-5.58-5.63-2.01-2.4-3.64-2.84-5.76-.12-1.41,1.81-3.31,3.23-4.85,4.95-1.51,1.68-3.13,2.19-6.84.35Z"/>
  <path class="uuid-e4e3d490-a582-4e15-85af-903599546bd2" d="m50.26,186.19c-.83.63-1.65,1.26-2.48,1.9-.51-.64-.96-1.34-1.54-1.9-2.71-2.64-5.18-6.86-8.26-7.38-2.97-.5-5.27,4.31-7.88,6.76-1.48,1.39-3.38,2.58-4.7,1.23-1.61-1.66.93-2.7,1.9-3.75,2.68-2.91,5.54-5.66,8.35-8.45.94-.94,1.98-2.07,3.31-.61,3.73,4.1,8.41,7.33,11.3,12.21Z"/>
  <path class="uuid-38da4de2-d9d9-4ebe-8878-40b698d5e5f8" d="m413.1,241.01c-4.68-1.32-6.23-5.73-8.9-9.03-.17-.17-.21-.36-.13-.58.12-.97.07-1.86-.99-2.33,0,0,.04.07.04.07.03-2.34.05-4.69.08-7.03,7.52,3.26,12.14,12.09,9.91,18.91Z"/>
  <path class="uuid-e4e3d490-a582-4e15-85af-903599546bd2" d="m245.91,36.94c-1.63-.18-3.41-.07-4.08-2.11.06-1.38.75-1.88,2.15-2.09,6.54-1,12.81-.06,18.9,2.33,1.02.4,1.21,1.52.55,2.52-.86,1.29-1.98,1.29-3.45.97-4.63-1-9.25-2.26-14.07-1.62Z"/>
  <path class="uuid-caf57d53-5e56-40d1-ab92-e8b31b1c30d2" d="m13.89,379.04c0,2.82.02,5.64-.01,8.46-.01,1.12.2,2.55-1.41,2.71-1.58.16-2.51-.83-2.53-2.37-.05-5.97-.05-11.95,0-17.92.01-1.58,1.06-2.42,2.56-2.42,1.89,0,1.33,1.56,1.36,2.58.07,2.98.03,5.97.03,8.96Z"/>
  <path class="uuid-2a964ac3-19f5-4be1-bb68-2547dc1bc373" d="m27.85,422.08c.17,1.65-.58,2.37-1.42,2.86-.94.54-1.27-.25-1.81-.95-3.76-4.93-6.66-10.36-9.39-15.9-.44-.9-.78-2.08.3-2.57.78-.36,2.49-.36,2.75.09,3.3,5.6,5.63,11.75,9.57,16.48Z"/>
  <path class="uuid-2a964ac3-19f5-4be1-bb68-2547dc1bc373" d="m38.9,434.29c.87.38,1.71.58,2.35,1.06,4.26,3.12,8.68,5.94,13.42,8.26,1.42.7,2.75,1.52,1.58,3.39-.98,1.56-2.09.86-3.35.19-4.91-2.61-9.55-5.61-14.07-8.85-1.24-.89-1.16-1.83-1.08-2.97.05-.77.47-1.17,1.15-1.07Z"/>
  <path class="uuid-2a964ac3-19f5-4be1-bb68-2547dc1bc373" d="m16.67,352.29c-1.02-.57-2.16-.99-1.52-2.57,2.21-5.48,4.97-10.67,7.97-15.74.6-1.02,1.8-1.79,2.98-1.24,1.33.62,1.04,2.25.52,3.05-3.05,4.73-5.22,9.89-7.71,14.89-.45.9-1.08,1.64-2.24,1.61Z"/>
  <path class="uuid-2a964ac3-19f5-4be1-bb68-2547dc1bc373" d="m297.76,53.58c-1.19.79-1.51,2.68-3.51,1.23-4.74-3.45-9.5-6.88-14.99-9.15-1.29-.53-2.08-1.98-1.27-3.29.68-1.09,2.15-.83,3.18-.29,5.21,2.75,10.24,5.78,14.82,9.51.61.5,1.07,1.19,1.76,1.98Z"/>
  <path class="uuid-e4e3d490-a582-4e15-85af-903599546bd2" d="m310.79,63.79c.46.37,1.28.9,1.96,1.57,3.4,3.36,6.74,6.78,10.14,10.14,1.38,1.36,2.73,3.06,1.11,4.63-1.64,1.6-2.98-.35-3.97-1.54-3.45-4.18-6.97-8.26-11.43-11.43-.65-.46-1.32-1.16-.72-2.06.56-.84,1.33-1.47,2.9-1.3Z"/>
  <path class="uuid-2a964ac3-19f5-4be1-bb68-2547dc1bc373" d="m98.72,105.39c-1.07,1.75-2.1,3.4-3.1,5.07-2.01,3.37-4.04,6.73-6,10.12-.71,1.23-1.5,2.29-3.06,1.69-1.21-.46-1.01-1.51-.56-2.48,2.44-5.33,5.1-10.53,8.98-15,.8-.92,1.68-1.74,2.93-1.15.42.2.52,1.08.81,1.75Z"/>
  <path class="uuid-caf57d53-5e56-40d1-ab92-e8b31b1c30d2" d="m80.27,137.46c2.58-.08,2.62,1.15,2.35,2.33-1.26,5.52-2.75,10.99-3.84,16.55-.35,1.78-1.02,2.19-2.55,2.07-1.66-.13-1.78-1.22-1.49-2.45,1.26-5.35,2.62-10.68,3.8-16.05.34-1.53.96-2.38,1.73-2.45Z"/>
  <path class="uuid-caf57d53-5e56-40d1-ab92-e8b31b1c30d2" d="m70.37,451.25c7.42-.82,13.96,2.5,20.82,1.89,1.05-.09,1.97.59,1.5,1.87-.69,1.87-2.28,2.28-4.04,2.03-4.51-.62-8.99-1.47-13.52-1.91-2.27-.22-3.59-1.13-4.76-3.88Z"/>
  <path class="uuid-caf57d53-5e56-40d1-ab92-e8b31b1c30d2" d="m75.81,179.2c.37,4.59-1.67,8.96-1.16,13.58.16,1.47-.15,3.27-2.23,3.01-1.92-.24-1.92-2-1.76-3.49.44-4.03,1.68-8,.79-12.11.32-.56.64-1.12.95-1.69.73-1.38-.72-4.4,2.16-4.05,3.18.39.22,3.28,1.26,4.74Z"/>
  <path class="uuid-525c0e03-781e-43d2-ab81-3270affa06b2" d="m394.24,218.07c2.91-3.74,6.36-6.95,9.9-10.07-.37,4.39-.75,8.77-1.12,13.15-2.99-.86-6.38-.57-8.78-3.09Z"/>
  <path class="uuid-2a964ac3-19f5-4be1-bb68-2547dc1bc373" d="m471,91.69c-2.28.08-2.75-1.49-1.69-2.81,2.05-2.54,4.51-4.77,6.92-7,.7-.65,1.9-.75,2.75-.06.42.34.73,1.09.73,1.65-.02,1.43-7.27,8.16-8.71,8.22Z"/>
  <path class="uuid-2a964ac3-19f5-4be1-bb68-2547dc1bc373" d="m454.51,76.71c-.32-2.92,5.04-10.4,7.54-10.81.73-.12,1.36.05,1.65.69.43.94.46,2.07-.28,2.77-2.77,2.63-4.91,6.07-8.91,7.35Z"/>
  <path class="uuid-2a964ac3-19f5-4be1-bb68-2547dc1bc373" d="m1.05,47.09c.19-.18-.03-.84-.27-1.16-.62-.81-1.14-1.78-.31-2.66,2.24-2.39,4.54-4.72,6.9-6.99.38-.37,1.29-.51,1.82-.33.95.32.95,1.44.67,2.09-1.62,3.74-4.88,5.95-8.8,9.05Z"/>
  <path class="uuid-2a964ac3-19f5-4be1-bb68-2547dc1bc373" d="m18.86,62.81c-3.39-1.39-3.69-3.15-2.82-4.32,1.74-2.35,3.87-4.47,6.11-6.37.88-.74,2.71-.94,3.55.31.74,1.1-.36,2.07-1.1,2.98-1.96,2.43-3.84,4.92-5.75,7.39Z"/>
  <path class="uuid-2a964ac3-19f5-4be1-bb68-2547dc1bc373" d="m9.95,59.53c-.02.8.1,1.71-.91,2.03-.8.25-1.6.22-2.26-.45-2.06-2.1-4.15-4.17-6.21-6.27-.64-.66-.72-1.51-.36-2.27.4-.88,1.32-.83,2.13-.77,1.72.13,7.51,6.05,7.61,7.74Z"/>
  <path class="uuid-e4e3d490-a582-4e15-85af-903599546bd2" d="m25.87,44.64c-.44,1.37-1.79,2.3-3.02,1.23-2.47-2.15-4.68-4.65-6.72-7.22-.9-1.14-.67-2.63,1.3-2.8,1.39-.12,8.55,7.15,8.44,8.79Z"/>
  <path class="uuid-2a964ac3-19f5-4be1-bb68-2547dc1bc373" d="m236.58,457.98c-.27-.23-.81-.58-1.21-1.05-.68-.78-.33-1.42.34-2.08,2.35-2.3,4.67-4.62,6.96-6.97.69-.71,1.35-.92,2.09-.24.45.41.94.94,1.07,1.49.18.76-8.08,8.84-9.24,8.85Z"/>
  <path class="uuid-2a964ac3-19f5-4be1-bb68-2547dc1bc373" d="m220.08,448.23c.92-.3,1.85-.59,2.77-.89,2.18,2.21,4.37,4.4,6.53,6.63.75.78.96,1.84.25,2.64-.7.78-2.02.86-2.65.12-2.38-2.76-6.17-4.4-6.9-8.5Z"/>
  <path class="uuid-2a964ac3-19f5-4be1-bb68-2547dc1bc373" d="m479.7,74.73c-.7,1.55-2.38,1.31-3.22.62-2.55-2.08-4.93-4.4-7.14-6.85-1.16-1.28.21-2.12,1.26-2.54.94-.38,9.18,7.51,9.1,8.76Z"/>
  <path class="uuid-e4e3d490-a582-4e15-85af-903599546bd2" d="m240.93,440.11c-1.33-1.45-2.65-2.9-3.98-4.35-.92-1.01-1.88-2.17-.52-3.37,1.06-.93,2.14-.21,3.03.65,2.12,2.06,4.25,4.11,6.38,6.16-.54,6.24-3.08,1.64-4.91.9Z"/>
  <path class="uuid-e4e3d490-a582-4e15-85af-903599546bd2" d="m464.07,90.06c-.03,1.33-1.17,2.16-2.22,1.43-3.08-2.14-5.96-4.64-7.77-7.98-.66-1.22.48-2.1,1.93-1.95,1.3.14,8.03,7.1,8.06,8.49Z"/>
  <path class="uuid-51d0a50a-84da-43d0-be56-b80b65442986" d="m394.24,218.07c2.4,2.52,5.8,2.23,8.78,3.09.08.31.14.63.17.95-.03,2.34-.05,4.69-.08,7.03-2.56-3.14-4.82-6.58-8.61-8.48-1.35-.68-1.55-1.59-.25-2.59Z"/>
  <path class="uuid-caf57d53-5e56-40d1-ab92-e8b31b1c30d2" d="m104.44,293.06q-9.97-.61-9.98-11.02c-.03-15.68-.09-31.36-.13-47.04.11-.63-.18-.89-.8-.84-10.26-.49-10.21-.47-5-9.66,5.83-10.29,11.55-20.65,17.33-30.97,1.17-2.08,1.76-5.21,4.54-5.24,2.67-.03,2.83,3.27,4.15,5.06.66.9,1.18,1.91,1.76,2.87,5.96,10.66,11.9,21.34,17.88,31.98,1.59,2.82,2.33,5.29-2.34,4.75-4.92-.56-5.74,1.8-5.69,6.1.2,16.05-.04,32.1.16,48.15.05,4.23-1.01,6-5.54,5.73-5.43-.32-10.91.04-16.36.11Zm25.01-65.15c-5.59-10.13-11.2-20.26-16.77-30.41-.65-1.19-1.31-2.69-2.57-2.86-1.55-.2-1.7,1.72-2.27,2.74-5.5,9.82-10.91,19.7-16.34,29.56-.57.14-.96.42-.8,1.09-.09.28-.17.57-.22.86-.22.27-.44.53-.65.8l.75.16c12.92,0,25.85,0,38.77,0,1.88-.56.9-1.26.1-1.95Zm-7.05,33.64c0-8.12-.09-16.23.05-24.35.04-2.54-.63-3.51-3.31-3.43-5.79.18-11.59.14-17.39.01-2.43-.05-3.56.5-3.54,3.26.11,16.23.12,32.46,0,48.69-.02,3.07,1.32,3.53,3.89,3.47,5.3-.13,10.61-.23,15.9.03,3.38.17,4.62-.74,4.5-4.33-.27-7.78-.08-15.57-.08-23.35Z"/>
  <path class="uuid-51d0a50a-84da-43d0-be56-b80b65442986" d="m104.44,293.06c5.46-.07,10.93-.43,16.36-.11,4.53.27,5.59-1.5,5.54-5.73-.21-16.05.04-32.1-.16-48.15-.05-4.3.77-6.66,5.69-6.1,4.67.54,3.92-1.93,2.34-4.75-5.98-10.65-11.92-21.32-17.88-31.98,1.5-.1,3.09-1.27,4.19,1.05,6.14,13,14.11,24.99,20.77,37.71.21.41.21.93.3,1.38-.33.23-.58.54-.83.55q-8.37.36-8.37,8.55c0,15.24-.08,30.48.06,45.73.03,3.35-.83,4.75-4.43,4.61-6.62-.25-13.25-.1-19.88-.06-1.96.01-3.76,0-3.69-2.7Z"/>
  <path class="uuid-e4e3d490-a582-4e15-85af-903599546bd2" d="m112.47,332.58c-.24,6.3-4.75,11.01-10.5,10.96-4.98-.04-10.53-5.98-10.44-11.17.09-5.6,5.47-10.97,10.77-10.75,6.76.28,10.42,4.23,10.17,10.95Zm-9.58-7.07c-4.28-.18-7.16,2.48-7.33,6.77-.13,3.33,2.91,7.01,5.97,7.22,4.29.29,7.88-2.81,7.97-6.89.09-3.95-2.69-6.94-6.61-7.1Z"/>
  <path class="uuid-51d0a50a-84da-43d0-be56-b80b65442986" d="m73.59,301.67c-.96-1.1-1.92-2.2-2.88-3.31-1.86.9-1.02,2.41-1.03,3.53-.07,14.43-.02,28.86-.07,43.29,0,1.76.59,3.67-.76,5.26-.06-17.69-.07-35.39-.23-53.08-.02-2.79.83-3.87,3.67-3.67,2.58.18,5.45.5,6.46-2.97,2.29.75,3.86,2.67,3.46,4.71-.45,2.29-3.11,1.34-4.71,1.2-4.19-.37-3.99,2.29-3.91,5.03Z"/>
  <path class="uuid-51d0a50a-84da-43d0-be56-b80b65442986" d="m150.29,354.49c-1.17.85-2.3,1.77-3.51,2.55q-7.5,4.84-11.51-3.5c.63-.15,1.38-.13,1.86-.49,4.85-3.58,9.46-5.36,13.16,1.44Z"/>
  <path class="uuid-2a964ac3-19f5-4be1-bb68-2547dc1bc373" d="m226.93,39.02c-.1,1.48-.88,1.87-1.65,2.1-4.77,1.42-8.78,4.28-12.92,6.85-1.68,1.04-4,1.65-4.87.22-1.1-1.78,1.46-2.49,2.68-3.38,3.86-2.81,8.16-4.86,12.56-6.64,1.44-.58,3.51-1.38,4.21.84Z"/>
  <path class="uuid-e4e3d490-a582-4e15-85af-903599546bd2" d="m72.11,216.66c-1.13,5.09-2.27,10.16-3.35,15.23-.21,1-.3,2.13-1.63,1.99-1.56-.16-1.67-1.48-1.49-2.64.82-5.45,1.64-10.9,2.67-16.32.21-1.09.56-3.12,2.29-2.62,2.23.64.26,2.98,1.51,4.35Z"/>
  <path class="uuid-e4e3d490-a582-4e15-85af-903599546bd2" d="m158.39,249.88c-.29.37-.7,1.06-1.27,1.58-.78.7-1.36.29-2-.42-1.95-2.2-3.99-4.32-6-6.47-.85-.92-1.34-2.08-.49-3.07.97-1.12,2.03-.3,3,.38,2.03,1.42,6.76,6.71,6.76,8.01Z"/>
  <path class="uuid-caf57d53-5e56-40d1-ab92-e8b31b1c30d2" d="m174.06,242.76c-.19,1.78-6.96,8.09-8.45,8.15-.76.03-1.79.29-2.1-.66-.15-.46.2-1.28.59-1.69,2.27-2.36,4.6-4.66,6.94-6.94.65-.63,1.51-.74,2.21-.13.44.38.66,1.02.82,1.27Z"/>
  <path class="uuid-caf57d53-5e56-40d1-ab92-e8b31b1c30d2" d="m174.06,234.41c-.17.23-.44.85-.91,1.19-.74.54-1.58.37-2.23-.27-2.33-2.31-4.66-4.62-6.92-7-.38-.4-.67-1.33-.46-1.7.22-.39,1.1-.53,1.7-.57,1.67-.09,8.71,6.32,8.82,8.34Z"/>
  <path class="uuid-caf57d53-5e56-40d1-ab92-e8b31b1c30d2" d="m156.02,226.08c2.3-.09,3.1,1.1,1.98,2.41-2.24,2.62-4.72,5.1-7.44,7.2-1.33,1.03-2.97-.3-2.12-1.81,1.85-3.3,4.72-5.81,7.58-7.8Z"/>
  <path class="uuid-51d0a50a-84da-43d0-be56-b80b65442986" d="m73.62,281.81c-.56-.1-.91-.38-.83-1.01.28.34.55.67.83,1.01Z"/>
  <path class="uuid-51d0a50a-84da-43d0-be56-b80b65442986" d="m93.54,234.16c.62-.06.9.2.8.84-.27-.28-.53-.56-.8-.84Z"/>
  <path class="uuid-a154256c-9ae0-4d9b-9152-7995f8591c41" d="m311.62,346.46c-17.79-4.46-36-6.63-54.02-9.87-10.71-1.93-21.46-3.68-32.23-5.3-10.96-1.65-21.88-2.61-32.91.24-13.35,3.45-26.34-7.51-22.58-21.61,6.77-25.39,12.43-51.07,18.51-76.64,3.09-13.02,5.98-26.09,9.16-39.08,2.8-11.45,10.52-16.08,21.91-13.35,28.62,6.84,57.38,13.14,85.8,20.73,27.25,7.28,54.67,13.84,82.04,20.59,10.68,2.63,15.25,9.86,12.96,20.78-1.93,9.22-4.27,18.35-6.36,27.53-.59,2.59-1.65,3.3-4.43,2.55-7.5-2.02-15.14-3.49-22.65-5.47-4.53-1.2-9.08-1.43-13.71-1.82-12.89-1.09-25.15,9.3-27.45,23.67-2.09,13.05,6.41,26.61,19.42,30.4,9.67,2.81,19.58,4.81,29.34,7.34,1.83.48,5.09-.09,4.73,3.13-.3,2.75-.04,6.05-3.52,7.62-13.73,6.21-27.41,12.51-41.11,18.78-3.73-7.25-15.33-12.42-22.93-10.21Zm-35.79-115.35c-.24-1.25.26-2.67-1.36-3-1.4-.29-2.41.66-2.49,1.85-.38,5.15-3.79,5-7.67,5.09-11.98.27-24.31,14.4-15.18,28.4,2.34,3.59,5.29,6.39,9.15,8.1,2.52,1.11,2.99,2.84,2.41,5.2-1.88,7.7-3.92,15.36-5.6,23.11-.77,3.56-2.3,3.44-4.81,1.86-5.65-3.53-8.69-8.42-8.42-15.24.05-1.32.77-3.43-1.49-3.53-2.24-.1-2.33,1.93-2.42,3.61-.48,8.56,3.82,14.65,10.74,18.75,3.14,1.86,5.14,3.14,3.36,7.01-.51,1.1-.53,2.83,1.3,3.18,1.37.26,2.28-.77,2.38-2,.41-4.75,3.51-4.8,7.28-4.97,8.95-.39,17.06-7.45,17.81-14.6,1.06-10.12-2.07-17.95-11.7-22.34-2.33-1.06-2.66-2.65-2.13-4.81,1.95-8.02,3.92-16.04,5.8-24.08.57-2.42,1.52-3.04,3.77-1.61,5.82,3.69,9.76,8.37,9.24,15.78-.1,1.42-.9,3.83,1.77,3.73,2.17-.08,2.07-2.22,2.14-3.86.32-8.25-3.36-14.38-10.29-18.51-2.95-1.76-6.38-2.86-3.57-7.13Z"/>
  <path class="uuid-32ccb165-f01e-4af9-a8d7-62c022583a53" d="m187.82,452.61c-.43.82-1.32,1.11-2.16,1.61-12.85,7.66-25.65,15.4-38.43,23.17-1.72,1.04-2.29.51-3.28-1.18-11.21-19.41-22.55-38.75-33.9-58.08-7.16-12.2-14.26-24.43-21.69-36.47-2.48-4.03-1.82-6.1,2.21-8.37,11.71-6.6,23.33-13.38,34.75-20.46,3.1-1.92,3.99-1.13,5.56,1.53,5.35,9.08,10.41,18.32,15.64,27.47,11.84,20.74,24.19,41.18,36.31,61.76,1.73,2.95,3.32,5.98,5,9.02Zm-23.58-7.41c.04-6.55-4.45-11.06-11.01-11.06-5.67,0-10.78,4.84-10.9,10.34-.12,5.53,5.64,11.62,10.94,11.57,6.07-.06,10.93-4.87,10.97-10.85Z"/>
  <path class="uuid-7ffc225a-e163-4ece-967c-3dece6a19adc" d="m288.96,193.65c8.2-1.08,15.08-2.43,20.06-7.77,7.62-8.16,7.03-19.57-1.1-28.82-9.38-10.67-26.45-14.86-39.67-9.73-13.14,5.1-16.71,21.87-6.96,32.79,2.41,2.7,5,5.23,9.13,7.86-7.13.86-12.48-1.89-17.97-3.06-12.09-2.59-12.02-2.86-7.9-14.81,7.44-21.56,14.87-43.13,22.32-64.7.79-2.3,1.16-3.57,4.9-3.28,5.99.47,12.01-2.05,15.76-7.48,1.92-2.79,3.74-3.52,7.01-2.31,10.49,3.85,21.06,7.48,31.67,11,2.49.83,2.78,1.54,2.57,4.36-.51,6.77,2.56,12.54,8.1,16.53,2.49,1.79,2.9,3.18,1.87,6.08-7.79,21.82-15.44,43.69-22.92,65.62-.88,2.58-1.97,3.76-4.48,3.18-7.09-1.64-14.14-3.43-22.39-5.44Zm25.64-69.94c.02-9.21-4.78-14.16-13.76-14.19-8.37-.03-14.13,5.56-14.14,13.72,0,7.9,6.12,14.15,13.95,14.22,8.37.08,13.93-5.4,13.95-13.75Z"/>
  <path class="uuid-7ffc225a-e163-4ece-967c-3dece6a19adc" d="m325.11,202.13c-6.23-.15-7.02-1.19-5.17-6.53,7.63-22.05,15.25-44.1,22.92-66.14,1.08-3.11,1.26-5.32-2.39-7.23-6.06-3.17-9.24-10-7.63-16.77.75-3.16-.58-3.91-2.62-4.63-12.83-4.49-25.72-8.82-38.53-13.38-2.54-.9-3.6-.44-5.09,1.86-4.16,6.41-9.4,11.05-17.99,8.39-3.01-.93-3.45,1.56-4.16,3.63-6.49,18.81-13.02,37.6-19.55,56.4-2.26,6.52-4.61,13-6.79,19.55-.58,1.73-1.11,2.96-3.27,2.99-2.7.03-5.13-.86-7.58-1.73-.17-.06,0-1.55.26-2.28,12.24-35.23,24.54-70.44,36.69-105.71,1.1-3.19,2.42-3.47,5.33-2.44,24.31,8.55,48.68,16.96,73.02,25.42,5.57,1.93,11.04,4.22,16.71,5.74,4.02,1.08,3.91,2.86,2.76,6.14-9.02,25.76-17.88,51.57-26.8,77.37-1.83,5.3-3.85,10.54-5.43,15.91-.81,2.76-2.09,3.99-4.69,3.43Z"/>
  <path class="uuid-f316d9ac-4618-4991-807a-c0e1d4073b52" d="m342.51,292.78c-.06,6.1,4.66,11.67,10.11,11.92,5.54.25,11.83-5.86,11.81-11.49-.02-6.02-4.64-10.35-11.16-10.43-6.55-.08-10.7,3.77-10.76,10Z"/>
  <path class="uuid-7ffc225a-e163-4ece-967c-3dece6a19adc" d="m370.39,214.39c-4.25-1.12-8.49-2.24-12.74-3.37-1.44-.38-2.25-1.25-2.22-2.83.17-10.94-5.96-18.5-13.79-24.96-1.75-1.44-1.98-2.25-1.24-4.3,4.14-11.58,8.12-23.22,12.01-34.89.96-2.89,1.89-4.96,5.63-4.79,2.14.1,4.85-.63,6.42-2,2.68-2.33,4.06-1.25,6,.73,7.9,8.05,15.87,16.03,23.92,23.92,1.97,1.93,2.79,3.27,1.06,6.1-3.41,5.56-3.45,11.65-.11,17.3,1.7,2.88,1.03,4.38-1.14,6.55-6.54,6.53-12.78,13.35-19.17,20.03-1.23,1.29-2.34,2.94-4.65,2.52Zm-6.79-59.06c-9.06.02-14.23,5.28-14.19,14.45.03,7.04,6.41,13.46,13.37,13.46,9.44,0,14.55-5.34,14.54-15.21,0-7.79-5.33-12.72-13.73-12.7Z"/>
  <path class="uuid-7ffc225a-e163-4ece-967c-3dece6a19adc" d="m377.6,215.25c7.1-7.35,13.37-15.19,20.79-21.92,2.59-2.35,3.86-4.22,1.08-7.84-4.46-5.81-3.95-12.34.41-18.13,2.04-2.71,1.43-4.32-.61-6.34-9.18-9.12-18.38-18.23-27.42-27.49-2.28-2.34-4.38-2.63-6.96-.94-.41.27-.72.74-1.15.93-2.37,1.02-5.12,3.15-7.28,1.49-1.47-1.12.65-3.85,1.26-5.78,1.62-5.15,3.7-10.17,5.32-15.32.84-2.66,1.66-2.8,3.51-.88,3.21,3.35,6.55,6.59,9.84,9.87,16.66,16.66,33.24,33.4,50.05,49.91,2.9,2.85,2.66,4.4-.13,6.94-4.66,4.24-9.03,8.8-13.41,13.33-5.97,6.18-12.18,12.16-17.62,18.78-5.08,6.17-10.47,7.79-17.67,3.38Z"/>
  <path class="uuid-51d0a50a-84da-43d0-be56-b80b65442986" d="m204.04,451.02c-4.12.18-8.46-.52-11.72,3-2.34-7.31-7.19-13.27-10.88-19.85-.99-1.78-1.34-2.59.44-3.94,2.88-2.19,5.71-4.52,8.25-7.09,5.03-5.12,10.94-7.04,17.95-5.69-2.19,5.34-7.52,7.6-11.44,11.14-2.73,2.46-2.43,3.93-1.01,6.54,2.87,5.26,6.9,9.92,8.41,15.9Z"/>
  <path class="uuid-3ce800b8-df71-4b44-9e89-6f6a365eaffb" d="m311.62,346.46c7.6-2.21,19.2,2.96,22.93,10.21-.67.45-1.31.96-2.03,1.33-7.5,3.87-7.56,3.9-11.95-3.41-2.19-3.64-5.77-5.63-8.95-8.13Z"/>
  <path class="uuid-51d0a50a-84da-43d0-be56-b80b65442986" d="m403.07,229.07c1.06.47,1.11,1.36.99,2.33-.33-.78-.66-1.55-.99-2.33Z"/>
  <path class="uuid-e4e3d490-a582-4e15-85af-903599546bd2" d="m229.89,433.12c.19,2.4-6.37,9.29-8.1,8.96-1.7-.33-2.25-1.57-1.12-2.86,2.04-2.34,4.24-4.57,6.56-6.62,1.08-.96,2.49-1.06,2.66.52Z"/>
  <path class="uuid-0330b98f-c2fc-4fa1-a1a1-e11634932856" d="m40.78,320.62c0-7.78.09-15.57-.05-23.35-.05-2.7.68-3.88,3.59-3.78,5.62.18,11.26.17,16.89,0,2.83-.08,3.7.97,3.69,3.74-.1,15.9-.1,31.8,0,47.69.02,2.74-.78,3.84-3.65,3.75-5.62-.17-11.26-.18-16.89,0-2.86.09-3.68-.96-3.63-3.72.15-8.11.05-16.23.05-24.34Z"/>
  <path class="uuid-0330b98f-c2fc-4fa1-a1a1-e11634932856" d="m33.48,287.71c6.35-10.99,12.69-21.98,19.45-33.68,6.62,11.44,12.74,22.03,18.88,32.62,2.03,3.5-.67,3-2.59,3-11.78.04-23.56.04-35.34.06-.13-.67-.26-1.33-.4-2Z"/>
  <path class="uuid-5e4548d7-1d0e-4739-84a8-dd08d77e71ae" d="m33.48,287.71c.13.67.26,1.33.4,2-1.45-.41-1.2-1.15-.4-2Z"/>
  <path class="uuid-525c0e03-781e-43d2-ab81-3270affa06b2" d="m129.35,229.86c.03-.65.07-1.3.1-1.95.8.69,1.78,1.39-.1,1.95Z"/>
  <path class="uuid-525c0e03-781e-43d2-ab81-3270affa06b2" d="m91.51,226.94c-.27.36-.54.73-.8,1.09-.15-.67.23-.95.8-1.09Z"/>
  <path class="uuid-525c0e03-781e-43d2-ab81-3270affa06b2" d="m90.48,228.9c.05.32.08.64.1.96-.25-.05-.5-.11-.75-.16.22-.27.44-.53.65-.8Z"/>
  <path class="uuid-525c0e03-781e-43d2-ab81-3270affa06b2" d="m102.89,325.51c3.92.16,6.7,3.15,6.61,7.1-.09,4.08-3.68,7.18-7.97,6.89-3.06-.21-6.1-3.89-5.97-7.22.17-4.28,3.05-6.94,7.33-6.77Z"/>
  <path class="uuid-e4e3d490-a582-4e15-85af-903599546bd2" d="m275.84,231.11c-2.81,4.27.61,5.37,3.57,7.13,6.93,4.13,10.6,10.27,10.29,18.51-.06,1.64.04,3.78-2.14,3.86-2.67.1-1.87-2.31-1.77-3.73.52-7.42-3.42-12.09-9.24-15.78-2.25-1.43-3.21-.8-3.77,1.61-1.88,8.04-3.86,16.05-5.8,24.08-.52,2.16-.2,3.74,2.13,4.81,9.63,4.4,12.77,12.22,11.7,22.34-.75,7.15-8.86,14.21-17.81,14.6-3.77.17-6.87.22-7.28,4.97-.11,1.23-1.02,2.26-2.38,2-1.83-.35-1.8-2.08-1.3-3.18,1.78-3.88-.21-5.15-3.36-7.01-6.92-4.1-11.22-10.19-10.74-18.75.09-1.68.18-3.71,2.42-3.61,2.26.1,1.55,2.21,1.49,3.53-.28,6.82,2.77,11.71,8.42,15.24,2.52,1.57,4.04,1.69,4.81-1.86,1.68-7.74,3.72-15.41,5.6-23.11.58-2.36.11-4.09-2.41-5.2-3.86-1.71-6.8-4.5-9.15-8.1-9.13-14,3.21-28.13,15.18-28.4,3.88-.09,7.3.06,7.67-5.09.09-1.18,1.1-2.13,2.49-1.85,1.62.33,1.12,1.76,1.36,3Zm-10.25,7.89c-7.5,0-13.24,4.54-15.15,11.65-1.53,5.71,1.91,12.8,7.62,16.44,3.2,2.04,4.81,1.82,5.64-2.21,1.51-7.28,3.17-14.53,5.14-21.7,1.05-3.83-.18-4.79-3.26-4.18Zm-4.4,65.69c7.8,0,14.24-4.9,16.1-11.95,1.55-5.86-1.98-13.09-7.94-16.7-2.81-1.71-4.37-1.49-5.14,2.04-1.69,7.7-3.48,15.39-5.48,23.02-.76,2.89-.29,4.12,2.46,3.59Z"/>
  <path class="uuid-caf57d53-5e56-40d1-ab92-e8b31b1c30d2" d="m164.24,445.2c-.03,5.98-4.9,10.79-10.97,10.85-5.31.05-11.07-6.03-10.94-11.57.12-5.49,5.23-10.34,10.9-10.34,6.56,0,11.05,4.5,11.01,11.06Zm-3.99-.51c-.03-4.77-1.96-6.57-7.05-6.55-4.26.01-6.82,2.39-6.88,6.39-.06,3.79,3.3,7.49,6.82,7.51,4.63.04,7.14-2.56,7.11-7.35Z"/>
  <path class="uuid-ecc06b82-0e2c-4edb-9eeb-50f53e525994" d="m314.6,123.71c-.02,8.35-5.58,13.83-13.95,13.75-7.83-.08-13.95-6.32-13.95-14.22,0-8.15,5.76-13.74,14.14-13.72,8.99.03,13.79,4.98,13.76,14.19Zm-3.07-.06c.18-5.49-3.83-9.93-9.13-10.12-7.89-.28-12.38,3.13-12.69,9.65-.21,4.49,6.27,11.19,10.87,11.23,4.79.05,10.79-5.85,10.95-10.76Z"/>
  <path class="uuid-ecc06b82-0e2c-4edb-9eeb-50f53e525994" d="m342.51,292.78c.06-6.23,4.21-10.08,10.76-10,6.51.08,11.14,4.41,11.16,10.43.02,5.63-6.27,11.74-11.81,11.49-5.45-.25-10.17-5.82-10.11-11.92Zm17.88.31c-.03-3.98-3.64-7.38-7.62-7.19-3.66.17-6.36,3.2-6.42,7.19-.05,3.82,3.25,7.5,6.83,7.61,3.88.13,7.24-3.43,7.21-7.61Z"/>
  <path class="uuid-ecc06b82-0e2c-4edb-9eeb-50f53e525994" d="m363.6,155.33c8.4-.02,13.73,4.91,13.73,12.7,0,9.87-5.11,15.21-14.54,15.21-6.97,0-13.34-6.42-13.37-13.46-.04-9.16,5.12-14.43,14.19-14.45Zm-.19,4c-6.85.02-11.15,3.82-10.97,9.69.15,5.25,6.3,11.43,11.14,11.19,5.5-.27,9.74-5.62,9.77-12.31.03-5.74-3.27-8.59-9.94-8.57Z"/>
  <path class="uuid-caf57d53-5e56-40d1-ab92-e8b31b1c30d2" d="m156.5,83.66c0,5.96,0,11.93,0,17.89-.16.67.14.92.78.85,6.98,1.45,11.54,5.5,11.96,10.6.66,7.95-1.6,11.85-9.08,14.91-2.28.93-4.28,1.56-3.88,4.63.14,1.07-.53,1.89-1.77,1.9-.93,0-1.9-.58-1.89-1.3.09-4.45-3.75-4.69-6.4-6.16-3.86-2.13-6.08-5.38-6.81-9.65-.22-1.28-.42-2.98,1.24-3.36,2.31-.54,1.26,1.64,1.78,2.59,1.1,1.98,1.56,4.38,3.4,5.88,1.79,1.46,4.1,3.04,6.14,2.32,1.71-.6.51-3.27.64-5.01.1-1.32-.05-2.65,0-3.97.23-5.51.77-10.29-6.67-12.77-5.12-1.71-7.68-7.7-6.51-13.74,1.05-5.43,4.79-8.96,9.97-10.38,2.22-.61,3.17-1.14,2.91-3.4-.15-1.3.44-2.42,1.72-2.62,1.36-.22,2.24.85,2.17,2.09-.18,3.36,2.23,3.99,4.62,4.72,4.93,1.5,7.5,5.09,8.33,9.93.2,1.19,1.06,3.28-.99,3.82-2.45.65-2.59-1.76-2.81-3.12-.76-4.7-3.33-7.18-8.05-7.5-.65-.07-.94.18-.78.85Zm.06,22.94v18.66c4.54-1.38,8.35-2.92,8.68-8.23.41-6.47-.88-8.37-7.49-10.84-.6-.44-1.17-.82-1.19.41Zm-3.96-14.34c0-2.32-.14-4.64.03-6.95.24-3.25-1.78-3.23-3.75-2.45-6.75,2.67-8.1,11.87-2.3,16.25,1.39,1.05,2.94,3.33,5.09,2.13,1.88-1.05.69-3.31.9-5.02.16-1.31.03-2.64.03-3.97Z"/>
  <path class="uuid-525c0e03-781e-43d2-ab81-3270affa06b2" d="m157.28,102.4c-.65.07-.94-.18-.78-.85.26.28.52.56.78.85Z"/>
  <path class="uuid-525c0e03-781e-43d2-ab81-3270affa06b2" d="m156.5,83.66c-.16-.67.14-.92.78-.85-.26.28-.52.56-.78.85Z"/>
  <path class="uuid-a154256c-9ae0-4d9b-9152-7995f8591c41" d="m265.59,238.99c3.07-.61,4.31.34,3.26,4.18-1.97,7.16-3.63,14.42-5.14,21.7-.84,4.04-2.44,4.25-5.64,2.21-5.71-3.64-9.16-10.73-7.62-16.44,1.91-7.11,7.65-11.66,15.15-11.65Z"/>
  <path class="uuid-a154256c-9ae0-4d9b-9152-7995f8591c41" d="m261.19,304.69c-2.75.53-3.22-.7-2.46-3.59,2-7.63,3.79-15.32,5.48-23.02.77-3.53,2.33-3.74,5.14-2.04,5.96,3.62,9.48,10.84,7.94,16.7-1.86,7.05-8.29,11.94-16.1,11.95Z"/>
  <path class="uuid-32ccb165-f01e-4af9-a8d7-62c022583a53" d="m360.4,293.09c.03,4.18-3.33,7.74-7.21,7.61-3.58-.12-6.88-3.79-6.83-7.61.05-3.98,2.76-7.01,6.42-7.19,3.99-.19,7.59,3.21,7.62,7.19Z"/>
  <path class="uuid-f316d9ac-4618-4991-807a-c0e1d4073b52" d="m152.6,92.25c0,1.32.12,2.66-.03,3.97-.2,1.71.99,3.96-.9,5.02-2.16,1.2-3.7-1.08-5.09-2.13-5.8-4.38-4.46-13.58,2.3-16.25,1.97-.78,3.99-.8,3.75,2.45-.17,2.3-.03,4.63-.03,6.95Z"/>
  <path class="uuid-f316d9ac-4618-4991-807a-c0e1d4073b52" d="m157.75,106.18c6.61,2.47,7.9,4.36,7.49,10.84-.34,5.31-4.15,6.84-8.68,8.23v-18.66c.4-.14.8-.27,1.19-.41Z"/>
  <path class="uuid-525c0e03-781e-43d2-ab81-3270affa06b2" d="m157.75,106.18c-.4.14-.8.27-1.19.41.02-1.23.6-.85,1.19-.41Z"/>
</svg>