<?xml version="1.0" encoding="UTF-8" standalone="no"?>
<!DOCTYPE svg PUBLIC "-//W3C//DTD SVG 1.1//EN" "http://www.w3.org/Graphics/SVG/1.1/DTD/svg11.dtd">
<svg xmlns="http://www.w3.org/2000/svg" version="1.1" viewBox="0.00 0.00 512.00 512.00">
<g stroke-width="2.00" fill="none" stroke-linecap="butt">
<path stroke="#ec6391" vector-effect="non-scaling-stroke" d="
  M 120.90 0.00
  L 120.93 85.39"
/>
<path stroke="#f9b7d0" vector-effect="non-scaling-stroke" d="
  M 120.93 85.39
  L 61.69 49.86
  Q 61.00 49.44 61.00 50.25
  L 61.00 191.97
  A 0.33 0.33 0.0 0 0 61.50 192.25
  L 120.96 156.59"
/>
<path stroke="#ec6391" vector-effect="non-scaling-stroke" d="
  M 120.96 156.59
  L 120.99 240.98"
/>
<path stroke="#e6a1ba" vector-effect="non-scaling-stroke" d="
  M 120.96 156.59
  Q 120.74 156.83 121.54 156.38"
/>
<path stroke="#dd99b6" vector-effect="non-scaling-stroke" d="
  M 121.54 156.38
  L 179.99 121.31
  A 0.37 0.37 0.0 0 0 179.99 120.68
  L 121.06 85.34"
/>
<path stroke="#e6a1ba" vector-effect="non-scaling-stroke" d="
  M 121.06 85.34
  Q 121.00 85.37 120.93 85.39"
/>
<path stroke="#5fc9d3" vector-effect="non-scaling-stroke" d="
  M 390.99 0.00
  L 390.99 61.01"
/>
<path stroke="#558fa0" vector-effect="non-scaling-stroke" d="
  M 390.99 61.01
  L 390.97 123.77"
/>
<path stroke="#5d9cad" vector-effect="non-scaling-stroke" d="
  M 390.97 123.77
  C 347.43 108.09 311.82 161.13 342.36 195.78
  C 354.54 209.59 373.01 214.27 390.98 208.31"
/>
<path stroke="#5fc9d3" vector-effect="non-scaling-stroke" d="
  M 390.98 208.31
  L 391.07 270.99"
/>
<path stroke="#487f99" vector-effect="non-scaling-stroke" d="
  M 390.98 208.31
  C 408.10 202.20 421.02 185.76 421.01 167.25
  Q 420.99 129.27 421.01 91.49
  A 0.50 0.49 -90.0 0 1 421.50 90.99
  L 450.25 91.00
  Q 451.00 91.00 451.00 90.25
  L 450.99 61.76
  Q 450.99 61.00 450.23 61.00
  L 390.99 61.01"
/>
<path stroke="#eaeef5" vector-effect="non-scaling-stroke" d="
  M 121.06 85.34
  Q 120.90 120.17 121.07 154.50
  Q 121.08 155.11 121.54 156.38"
/>
<path stroke="#455273" vector-effect="non-scaling-stroke" d="
  M 390.98 208.31
  L 390.97 123.77"
/>
<path stroke="#eaeef5" vector-effect="non-scaling-stroke" d="
  M 121.00 271.02
  L 120.87 398.73
  Q 120.87 398.94 120.69 399.03
  Q 120.59 399.09 120.45 399.10"
/>
<path stroke="#b0e7e9" vector-effect="non-scaling-stroke" d="
  M 120.45 399.10
  L 106.32 384.97
  A 0.43 0.43 0.0 0 0 105.72 384.97
  L 0.00 489.92"
/>
<path stroke="#f9da9d" vector-effect="non-scaling-stroke" d="
  M 90.98 331.55
  A 0.55 0.55 0.0 0 0 90.43 331.00
  L 61.55 331.00
  A 0.55 0.55 0.0 0 0 61.00 331.55
  L 61.00 360.45
  A 0.55 0.55 0.0 0 0 61.55 361.00
  L 90.43 361.00
  A 0.55 0.55 0.0 0 0 90.98 360.45
  L 90.98 331.55"
/>
<path stroke="#9acfde" vector-effect="non-scaling-stroke" d="
  M 240.96 310.00
  L 136.56 414.04
  A 0.77 0.77 0.0 0 1 135.46 414.04
  L 121.35 399.89"
/>
<path stroke="#a7e0e5" vector-effect="non-scaling-stroke" d="
  M 121.35 399.89
  Q 120.86 399.65 120.45 399.10"
/>
<path stroke="#ec6391" vector-effect="non-scaling-stroke" d="
  M 390.98 301.01
  L 390.95 360.99"
/>
<path stroke="#f9b7d0" vector-effect="non-scaling-stroke" d="
  M 390.95 360.99
  L 331.51 360.99
  A 0.52 0.51 90.0 0 0 331.00 361.51
  L 331.00 390.47
  A 0.54 0.53 -90.0 0 0 331.53 391.01
  L 390.95 391.01"
/>
<path stroke="#ec6391" vector-effect="non-scaling-stroke" d="
  M 390.95 391.01
  L 390.87 420.99"
/>
<path stroke="#f9b7d0" vector-effect="non-scaling-stroke" d="
  M 390.87 420.99
  L 331.51 420.99
  A 0.52 0.52 0.0 0 0 330.99 421.51
  L 330.99 450.26
  A 0.75 0.75 0.0 0 0 331.74 451.01
  L 390.98 451.01"
/>
<path stroke="#ec6391" vector-effect="non-scaling-stroke" d="
  M 390.98 451.01
  L 390.99 512.00"
/>
<path stroke="#e6a1ba" vector-effect="non-scaling-stroke" d="
  M 390.98 451.01
  Q 391.05 450.99 391.11 450.96"
/>
<path stroke="#dd99b6" vector-effect="non-scaling-stroke" d="
  M 391.11 450.96
  L 450.51 450.95
  A 0.49 0.49 0.0 0 0 451.00 450.46
  L 451.00 421.52
  A 0.51 0.50 90.0 0 0 450.50 421.01
  L 391.14 421.01"
/>
<path stroke="#e6a1ba" vector-effect="non-scaling-stroke" d="
  M 391.14 421.01
  Q 391.05 420.90 390.87 420.99"
/>
<path stroke="#e6a1ba" vector-effect="non-scaling-stroke" d="
  M 390.95 391.01
  Q 391.03 391.00 391.11 390.98"
/>
<path stroke="#dd99b6" vector-effect="non-scaling-stroke" d="
  M 391.11 390.98
  L 450.28 390.98
  Q 451.00 390.98 451.00 390.26
  L 451.00 362.00
  Q 451.00 361.01 450.01 361.01
  L 391.14 361.00"
/>
<path stroke="#e6a1ba" vector-effect="non-scaling-stroke" d="
  M 391.14 361.00
  Q 390.99 360.90 390.95 360.99"
/>
<path stroke="#5fc9d3" vector-effect="non-scaling-stroke" d="
  M 121.04 512.00
  L 121.00 400.18
  Q 121.00 400.05 121.11 400.00
  Q 121.23 399.95 121.35 399.89"
/>
<path stroke="#eaeef5" vector-effect="non-scaling-stroke" d="
  M 391.14 361.00
  L 391.11 390.98"
/>
<path stroke="#eaeef5" vector-effect="non-scaling-stroke" d="
  M 391.14 421.01
  L 391.11 450.96"
/>
</g>
<path fill="#ff79a6" d="
  M 0.00 0.00
  L 120.90 0.00
  L 120.93 85.39
  L 61.69 49.86
  Q 61.00 49.44 61.00 50.25
  L 61.00 191.97
  A 0.33 0.33 0.0 0 0 61.50 192.25
  L 120.96 156.59
  L 120.99 240.98
  L 0.00 240.95
  L 0.00 0.00
  Z"
/>
<path fill="#d94c7b" d="
  M 120.90 0.00
  L 240.96 0.00
  L 240.99 240.24
  Q 240.99 240.99 240.24 240.99
  L 120.99 240.98
  L 120.96 156.59
  Q 120.74 156.83 121.54 156.38
  L 179.99 121.31
  A 0.37 0.37 0.0 0 0 179.99 120.68
  L 121.06 85.34
  Q 121.00 85.37 120.93 85.39
  L 120.90 0.00
  Z"
/>
<path fill="#6cd9d9" d="
  M 271.01 0.00
  L 390.99 0.00
  L 390.99 61.01
  L 390.97 123.77
  C 347.43 108.09 311.82 161.13 342.36 195.78
  C 354.54 209.59 373.01 214.27 390.98 208.31
  L 391.07 270.99
  L 271.61 270.99
  Q 271.00 270.99 271.00 270.37
  L 271.01 0.00
  Z"
/>
<path fill="#52b8cc" d="
  M 390.99 0.00
  L 512.00 0.00
  L 512.00 270.98
  L 391.07 270.99
  L 390.98 208.31
  C 408.10 202.20 421.02 185.76 421.01 167.25
  Q 420.99 129.27 421.01 91.49
  A 0.50 0.49 -90.0 0 1 421.50 90.99
  L 450.25 91.00
  Q 451.00 91.00 451.00 90.25
  L 450.99 61.76
  Q 450.99 61.00 450.23 61.00
  L 390.99 61.01
  L 390.99 0.00
  Z"
/>
<path fill="#f3f5f9" d="
  M 120.93 85.39
  Q 121.00 85.37 121.06 85.34
  Q 120.90 120.17 121.07 154.50
  Q 121.08 155.11 121.54 156.38
  Q 120.74 156.83 120.96 156.59
  L 61.50 192.25
  A 0.33 0.33 0.0 0 1 61.00 191.97
  L 61.00 50.25
  Q 61.00 49.44 61.69 49.86
  L 120.93 85.39
  Z"
/>
<path fill="#3d4566" d="
  M 390.99 61.01
  L 450.23 61.00
  Q 450.99 61.00 450.99 61.76
  L 451.00 90.25
  Q 451.00 91.00 450.25 91.00
  L 421.50 90.99
  A 0.50 0.49 -90.0 0 0 421.01 91.49
  Q 420.99 129.27 421.01 167.25
  C 421.02 185.76 408.10 202.20 390.98 208.31
  L 390.97 123.77
  L 390.99 61.01
  Z"
/>
<path fill="#e1e6f0" d="
  M 121.06 85.34
  L 179.99 120.68
  A 0.37 0.37 0.0 0 1 179.99 121.31
  L 121.54 156.38
  Q 121.08 155.11 121.07 154.50
  Q 120.90 120.17 121.06 85.34
  Z"
/>
<path fill="#4d5e80" d="
  M 390.97 123.77
  L 390.98 208.31
  C 373.01 214.27 354.54 209.59 342.36 195.78
  C 311.82 161.13 347.43 108.09 390.97 123.77
  Z"
/>
<path fill="#f3f5f9" d="
  M 121.00 271.02
  L 120.87 398.73
  Q 120.87 398.94 120.69 399.03
  Q 120.59 399.09 120.45 399.10
  L 106.32 384.97
  A 0.43 0.43 0.0 0 0 105.72 384.97
  L 0.00 489.92
  L 0.00 272.25
  Q 0.32 271.11 0.84 271.11
  Q 40.49 270.86 121.00 271.02
  Z
  M 90.98 331.55
  A 0.55 0.55 0.0 0 0 90.43 331.00
  L 61.55 331.00
  A 0.55 0.55 0.0 0 0 61.00 331.55
  L 61.00 360.45
  A 0.55 0.55 0.0 0 0 61.55 361.00
  L 90.43 361.00
  A 0.55 0.55 0.0 0 0 90.98 360.45
  L 90.98 331.55
  Z"
/>
<path fill="#e1e6f0" d="
  M 121.00 271.02
  L 239.83 271.02
  Q 240.99 271.02 240.99 272.17
  L 240.96 310.00
  L 136.56 414.04
  A 0.77 0.77 0.0 0 1 135.46 414.04
  L 121.35 399.89
  Q 120.86 399.65 120.45 399.10
  Q 120.59 399.09 120.69 399.03
  Q 120.87 398.94 120.87 398.73
  L 121.00 271.02
  Z"
/>
<path fill="#ff79a6" d="
  M 390.98 301.01
  L 390.95 360.99
  L 331.51 360.99
  A 0.52 0.51 90.0 0 0 331.00 361.51
  L 331.00 390.47
  A 0.54 0.53 -90.0 0 0 331.53 391.01
  L 390.95 391.01
  L 390.87 420.99
  L 331.51 420.99
  A 0.52 0.52 0.0 0 0 330.99 421.51
  L 330.99 450.26
  A 0.75 0.75 0.0 0 0 331.74 451.01
  L 390.98 451.01
  L 390.99 512.00
  L 271.03 512.00
  L 271.03 302.00
  A 0.99 0.99 0.0 0 1 272.02 301.01
  L 390.98 301.01
  Z"
/>
<path fill="#d94c7b" d="
  M 390.98 301.01
  L 512.00 301.03
  L 512.00 512.00
  L 390.99 512.00
  L 390.98 451.01
  Q 391.05 450.99 391.11 450.96
  L 450.51 450.95
  A 0.49 0.49 0.0 0 0 451.00 450.46
  L 451.00 421.52
  A 0.51 0.50 90.0 0 0 450.50 421.01
  L 391.14 421.01
  Q 391.05 420.90 390.87 420.99
  L 390.95 391.01
  Q 391.03 391.00 391.11 390.98
  L 450.28 390.98
  Q 451.00 390.98 451.00 390.26
  L 451.00 362.00
  Q 451.00 361.01 450.01 361.01
  L 391.14 361.00
  Q 390.99 360.90 390.95 360.99
  L 390.98 301.01
  Z"
/>
<path fill="#52b8cc" d="
  M 240.96 310.00
  L 240.97 512.00
  L 121.04 512.00
  L 121.00 400.18
  Q 121.00 400.05 121.11 400.00
  Q 121.23 399.95 121.35 399.89
  L 135.46 414.04
  A 0.77 0.77 0.0 0 0 136.56 414.04
  L 240.96 310.00
  Z"
/>
<rect fill="#ffbe40" x="61.00" y="331.00" width="29.98" height="30.00" rx="0.55"/>
<path fill="#f3f5f9" d="
  M 390.95 360.99
  Q 390.99 360.90 391.14 361.00
  L 391.11 390.98
  Q 391.03 391.00 390.95 391.01
  L 331.53 391.01
  A 0.54 0.53 90.0 0 1 331.00 390.47
  L 331.00 361.51
  A 0.52 0.51 90.0 0 1 331.51 360.99
  L 390.95 360.99
  Z"
/>
<path fill="#e1e6f0" d="
  M 391.14 361.00
  L 450.01 361.01
  Q 451.00 361.01 451.00 362.00
  L 451.00 390.26
  Q 451.00 390.98 450.28 390.98
  L 391.11 390.98
  L 391.14 361.00
  Z"
/>
<path fill="#6cd9d9" d="
  M 120.45 399.10
  Q 120.86 399.65 121.35 399.89
  Q 121.23 399.95 121.11 400.00
  Q 121.00 400.05 121.00 400.18
  L 121.04 512.00
  L 0.00 512.00
  L 0.00 489.92
  L 105.72 384.97
  A 0.43 0.43 0.0 0 1 106.32 384.97
  L 120.45 399.10
  Z"
/>
<path fill="#f3f5f9" d="
  M 390.87 420.99
  Q 391.05 420.90 391.14 421.01
  L 391.11 450.96
  Q 391.05 450.99 390.98 451.01
  L 331.74 451.01
  A 0.75 0.75 0.0 0 1 330.99 450.26
  L 330.99 421.51
  A 0.52 0.52 0.0 0 1 331.51 420.99
  L 390.87 420.99
  Z"
/>
<path fill="#e1e6f0" d="
  M 391.14 421.01
  L 450.50 421.01
  A 0.51 0.50 90.0 0 1 451.00 421.52
  L 451.00 450.46
  A 0.49 0.49 0.0 0 1 450.51 450.95
  L 391.11 450.96
  L 391.14 421.01
  Z"
/>
</svg>
