<?xml version="1.0" standalone="no"?>
<!DOCTYPE svg PUBLIC "-//W3C//DTD SVG 20010904//EN"
 "http://www.w3.org/TR/2001/REC-SVG-20010904/DTD/svg10.dtd">
<svg version="1.0" xmlns="http://www.w3.org/2000/svg"
 width="512.000000pt" height="512.000000pt" viewBox="0 0 512.000000 512.000000"
 preserveAspectRatio="xMidYMid meet">

<g transform="translate(0.000000,512.000000) scale(0.100000,-0.100000)"
fill="#000000" stroke="none">
<path d="M1055 5106 c-189 -31 -370 -103 -522 -208 -100 -68 -243 -211 -311
-311 -180 -261 -254 -581 -207 -890 18 -119 71 -283 125 -386 l40 -76 -51 -50
c-64 -62 -94 -113 -114 -191 -14 -54 -15 -213 -13 -1370 l3 -1310 37 -75 c46
-93 112 -158 206 -202 l67 -32 835 0 835 0 65 24 c88 34 196 138 231 226 l24
60 3 998 2 997 -80 0 -80 0 0 -950 c0 -648 -3 -965 -11 -1000 -15 -69 -62
-129 -129 -163 l-54 -27 -811 2 -812 3 -49 30 c-30 19 -60 49 -79 79 l-30 49
-3 1296 c-2 1004 0 1306 10 1341 8 30 27 60 59 92 82 82 44 79 940 76 782 -3
784 -3 824 -25 52 -28 99 -78 122 -128 15 -34 18 -76 21 -274 l4 -234 206 6
c305 9 548 41 842 113 514 125 1035 372 1457 688 76 57 139 103 140 102 1 -1
-16 -62 -37 -136 -21 -74 -40 -143 -42 -154 -2 -15 10 -22 74 -41 l78 -23 10
37 c5 20 50 176 99 346 49 171 87 312 85 314 -5 6 -678 -91 -687 -99 -10 -9 1
-130 12 -149 6 -8 42 -6 145 9 75 11 140 20 143 20 11 0 -151 -121 -266 -199
-577 -389 -1247 -617 -1941 -660 -80 -5 -148 -6 -152 -3 -3 4 -8 84 -10 177
l-3 170 -37 73 -37 74 39 56 c41 61 88 149 119 225 l20 47 201 0 200 0 0 80 0
80 -263 0 -263 0 -23 -72 c-24 -75 -108 -246 -141 -285 l-18 -23 -44 19 c-23
11 -60 22 -80 26 l-37 7 41 59 c48 68 49 66 -43 117 l-56 32 -37 -54 c-21 -30
-62 -77 -91 -105 l-54 -51 -188 2 -188 3 -3 86 -3 86 50 30 c55 35 105 110
116 175 9 52 -11 129 -46 178 -41 57 -95 89 -170 101 -76 12 -109 38 -109 84
0 88 117 115 150 34 12 -29 13 -29 96 -29 46 0 84 4 84 8 0 5 -7 31 -15 58
-18 60 -64 118 -116 144 l-39 20 0 90 0 90 -80 0 -80 0 0 -88 c0 -84 -1 -89
-24 -100 -46 -21 -104 -82 -126 -134 -38 -89 -14 -203 57 -270 36 -35 109 -68
150 -68 87 0 133 -76 81 -134 -41 -45 -106 -36 -132 19 l-17 35 -81 0 -81 0 7
-41 c12 -76 63 -147 128 -180 l39 -20 -3 -87 -3 -87 -191 -3 -192 -2 -76 81
c-130 138 -196 307 -196 501 0 126 21 216 74 323 81 162 188 268 351 346 266
129 597 77 813 -126 162 -152 242 -335 242 -551 l0 -74 825 0 825 0 0 80 0 80
-557 0 c-307 0 -642 3 -745 7 l-188 6 0 27 c0 52 -41 186 -84 275 -122 249
-328 416 -608 492 -99 27 -328 25 -434 -4 -325 -89 -568 -332 -657 -657 -29
-108 -31 -335 -3 -440 27 -103 69 -196 123 -278 26 -40 49 -76 51 -80 2 -5
-39 -8 -92 -8 l-96 0 -26 42 c-114 180 -168 464 -135 700 64 444 426 816 868
893 538 94 1056 -223 1219 -747 l18 -58 758 0 758 0 0 80 0 80 -695 2 -696 3
-38 86 c-60 136 -142 252 -260 370 -181 181 -365 284 -611 340 -111 26 -336
33 -445 15z"/>
<path d="M2970 3550 l0 -80 85 0 85 0 0 80 0 80 -85 0 -85 0 0 -80z"/>
<path d="M3300 3550 l0 -80 85 0 85 0 0 80 0 80 -85 0 -85 0 0 -80z"/>
<path d="M330 2560 l0 -410 825 0 825 0 0 410 0 410 -825 0 -825 0 0 -410z
m1485 0 l0 -245 -657 -3 -658 -2 0 250 0 250 658 -2 657 -3 0 -245z"/>
<path d="M4750 2853 c-230 -153 -374 -239 -545 -323 -381 -188 -797 -309
-1230 -360 -49 -6 -181 -14 -292 -17 l-203 -6 0 -823 0 -824 1320 0 1320 0 0
1235 0 1235 -98 0 -97 0 -175 -117z m200 -1133 l0 -1060 -160 0 -160 0 0 958
1 957 152 102 c83 56 155 102 160 102 4 1 7 -476 7 -1059z m-490 -155 l0 -905
-165 0 -165 0 0 824 0 823 158 80 c86 44 160 81 165 82 4 0 7 -406 7 -904z
m-500 -115 l0 -790 -162 2 -163 3 -3 731 -2 732 162 55 c90 30 164 55 166 56
1 1 2 -355 2 -789z m-490 -75 l0 -715 -165 0 -165 0 0 685 0 685 33 1 c24 1
281 51 295 58 1 0 2 -321 2 -714z m-500 -45 l0 -670 -165 0 -165 0 0 659 0
659 108 7 c59 3 116 7 127 9 11 2 37 4 58 5 l37 1 0 -670z"/>
<path d="M330 1155 l0 -825 825 0 825 0 0 825 0 825 -825 0 -825 0 0 -825z
m490 500 l0 -165 -160 0 -160 0 0 165 0 165 160 0 160 0 0 -165z m500 0 l0
-165 -165 0 -165 0 0 165 0 165 165 0 165 0 0 -165z m498 -2 l2 -163 -165 0
-165 0 0 165 0 165 163 -2 162 -3 3 -162z m-998 -498 l0 -165 -160 0 -160 0 0
165 0 165 160 0 160 0 0 -165z m500 0 l0 -165 -165 0 -165 0 0 165 0 165 165
0 165 0 0 -165z m500 0 l0 -165 -165 0 -165 0 0 165 0 165 165 0 165 0 0 -165z
m-1000 -495 l0 -160 -160 0 -160 0 0 160 0 160 160 0 160 0 0 -160z m500 0 l0
-160 -165 0 -165 0 0 160 0 160 165 0 165 0 0 -160z m500 0 l0 -160 -165 0
-165 0 0 160 0 160 165 0 165 0 0 -160z"/>
</g>
</svg>
