<?xml version="1.0" encoding="UTF-8"?>
<svg id="uuid-59a84279-c857-458e-9566-520e860db241" data-name="Capa 1" xmlns="http://www.w3.org/2000/svg" viewBox="0 0 91.27 95.25">
  <defs>
    <style>
      .uuid-929b5376-d91c-45d4-b9bd-fc8dbc4f3f60, .uuid-8d5b5cfc-6965-4ecc-b714-3c76121c38f2, .uuid-ccdd580e-d1c0-4cef-b45b-d668badc749a, .uuid-32289224-83a9-4082-9428-009f8ac943af, .uuid-76c3244c-7e81-434b-ba03-5e031ad3df9f, .uuid-87741ca2-6cbe-4e58-95c5-46ee3e4c36bd, .uuid-7067c0e4-b990-4977-9a05-373298e13942, .uuid-7d0ac5b2-4880-4d5a-b9c6-e9735ecc37ad, .uuid-3e54ed81-34c1-4988-9a44-2180a7432a2a {
        stroke: #1d1d1b;
        stroke-miterlimit: 10;
        stroke-width: .25px;
      }

      .uuid-929b5376-d91c-45d4-b9bd-fc8dbc4f3f60, .uuid-32289224-83a9-4082-9428-009f8ac943af, .uuid-76c3244c-7e81-434b-ba03-5e031ad3df9f {
        fill: #010101;
      }

      .uuid-8d5b5cfc-6965-4ecc-b714-3c76121c38f2 {
        fill: none;
      }

      .uuid-ccdd580e-d1c0-4cef-b45b-d668badc749a {
        fill: #263239;
      }

      .uuid-32289224-83a9-4082-9428-009f8ac943af, .uuid-aff40b9f-35c6-4f86-9c03-77f772a71be7 {
        opacity: .1;
      }

      .uuid-76c3244c-7e81-434b-ba03-5e031ad3df9f {
        opacity: .3;
      }

      .uuid-87741ca2-6cbe-4e58-95c5-46ee3e4c36bd, .uuid-7d0ac5b2-4880-4d5a-b9c6-e9735ecc37ad, .uuid-3e54ed81-34c1-4988-9a44-2180a7432a2a {
        fill: #fff;
      }

      .uuid-7067c0e4-b990-4977-9a05-373298e13942 {
        fill: #9acda3;
      }

      .uuid-7d0ac5b2-4880-4d5a-b9c6-e9735ecc37ad {
        opacity: .8;
      }

      .uuid-3e54ed81-34c1-4988-9a44-2180a7432a2a {
        opacity: .7;
      }
    </style>
  </defs>
  <g>
    <path class="uuid-7067c0e4-b990-4977-9a05-373298e13942" d="m62.21.13c-8.06.14-14.28,6.73-21.18,10.9-10.42,6.3-23.8,7.58-32.61,15.99C2.4,32.78-.58,41.46.27,49.76c.85,8.29,5.4,16.07,11.98,21.18,4.2,3.26,9.13,5.45,14.16,7.17,5.1,1.74,10.41,3.03,15.79,3.1,7.47.09,14.8-2.16,21.56-5.35,4.7-2.22,9.22-4.92,12.92-8.57,3.49-3.45,6.17-7.68,8-12.23,4.53-11.25,3.81-24.14-.12-35.62C81.31,9.95,73.37-.06,62.21.13Z"/>
    <path class="uuid-3e54ed81-34c1-4988-9a44-2180a7432a2a" d="m62.21.13c-8.06.14-14.28,6.73-21.18,10.9-10.42,6.3-23.8,7.58-32.61,15.99C2.4,32.78-.58,41.46.27,49.76c.85,8.29,5.4,16.07,11.98,21.18,4.2,3.26,9.13,5.45,14.16,7.17,5.1,1.74,10.41,3.03,15.79,3.1,7.47.09,14.8-2.16,21.56-5.35,4.7-2.22,9.22-4.92,12.92-8.57,3.49-3.45,6.17-7.68,8-12.23,4.53-11.25,3.81-24.14-.12-35.62C81.31,9.95,73.37-.06,62.21.13Z"/>
  </g>
  <g>
    <path class="uuid-32289224-83a9-4082-9428-009f8ac943af" d="m67.21,46.55c-.06-1.65-.16-3.41-.34-5.23-.24-3.63-.69-7.03-1.52-9.16,0,0,0,0,0,0h0s0,0,0,0h0c-4.54-.93-28.16.79-28.18.79l-.15-.66c-.02-.09-.04-.17-.06-.26l-.1-.46-.03-.1c-.15-.62-.33-1.23-.53-1.84,0,0,0,0,0,0h0s-17.91-1.6-23.85-.05h0s0,0,0,0c0,.05,0,.1,0,.15l.02,1.47c.02,2.84-.05,5.5.1,8.42v.02s0,0,0,0c0,0-.04,0-.09,0-.48.06-.87.39-1.02.83h0c-.06.16-.08.34-.06.53l.09.91s0,.03,0,.04c.22,2.33.43,4.63.43,4.63h0s.11.01.3.02l.98.07c-2.09.19-4.37,2.96-4.28,5.33.1,2.38-2.19,6.85-1.62,9.42.45,2.01,2.69,5.23,3.79,7.68-.03.15-.06.31-.09.49l-4.9,9.84c.33-.48,3.28,12.37,17.02,9.65l9.77-15.92c-1.21.93,0,0,0,0,.95-.73,2.06-1.7,2.97-2.8.42-.44.74-.87.92-1.27,0,0,0,0,0,0,.35-.58.63-1.18.79-1.8.04-.16.09-.33.14-.5.8-2.03,1.86-4.8,2.64-6.72,10.29-.3,21.1-.93,26.53-2.21,0,0,0,0,.01,0,.52-3.57.54-7.57.32-11.34Zm-52.86,8.99s-.13-.84-.15-1.79c.12.63.25,1.26.39,1.89-.08-.04-.16-.07-.24-.1Z"/>
    <g>
      <g>
        <path class="uuid-87741ca2-6cbe-4e58-95c5-46ee3e4c36bd" d="m4.98,78.83s4.4,13,18.14,10.28c0,0,3.05-14.31,5.6-16.42,1.65-1.36,5.29-3.79,6.06-5.56.79-1.8,3.9-10.14,4.51-11.14.6-1.01-6.55-12.6-6.55-12.6l-15.08,7.78-8.39,14.9s-1.61,9.62-4.29,12.76Z"/>
        <path class="uuid-8d5b5cfc-6965-4ecc-b714-3c76121c38f2" d="m9.12,67.22s-1.08,8.04-4.63,12.24"/>
        <path class="uuid-8d5b5cfc-6965-4ecc-b714-3c76121c38f2" d="m23.11,89.11s3.03-13.85,5.6-16.42c0,0,5.81-3.38,6.85-7.35.73-2.75,2.04-5.93,2.67-7.37"/>
        <path class="uuid-8d5b5cfc-6965-4ecc-b714-3c76121c38f2" d="m24.34,58.41c-.22-.14,3.51,2.86,3.66,6.93"/>
      </g>
      <path class="uuid-7067c0e4-b990-4977-9a05-373298e13942" d="m64.89,55.91c-12.11,2.86-51.1,2.47-51.1,2.47-.33-.69-.72-2.44-1.11-4.45-.77-4.05-1.48-9.22-1.48-9.22l-1.29-.09s-.21-2.3-.43-4.63c-.22-2.33,1.09-2.32,1.09-2.32l-.09-8.05-.02-2.01c5.94-1.55,23.85.05,23.85.05l.56,1.94.31,1.38,28.18-.79c2.59,6.68,1.55,25.74,1.55,25.74Z"/>
      <g>
        <rect class="uuid-ccdd580e-d1c0-4cef-b45b-d668badc749a" x="40.34" y="36.91" width="21.24" height="6.51" rx="3.26" ry="3.26" transform="translate(-1.87 2.49) rotate(-2.75)"/>
        <polygon class="uuid-ccdd580e-d1c0-4cef-b45b-d668badc749a" points="61.74 45.34 61.8 45.97 40.52 46.79 40.5 46.23 61.74 45.34"/>
        <polygon class="uuid-ccdd580e-d1c0-4cef-b45b-d668badc749a" points="61.85 47.51 61.87 48.07 40.58 48.86 40.57 48.3 61.85 47.51"/>
      </g>
      <path class="uuid-76c3244c-7e81-434b-ba03-5e031ad3df9f" d="m63.34,30.17s3.14,14.89,1.55,25.74c0,0-19.86,2.33-26.66,1.95l-.28-3.62.57-.09s-2.75-20.69-3.36-23.18c0,0,23.65-1.73,28.18-.79Z"/>
      <path class="uuid-7d0ac5b2-4880-4d5a-b9c6-e9735ecc37ad" d="m37.3,54.18l.24,2.74s-20.02.88-21.78.24.09-1.65,4.75-2.02c4.66-.37,16.79-.96,16.79-.96Z"/>
      <ellipse class="uuid-ccdd580e-d1c0-4cef-b45b-d668badc749a" cx="25.35" cy="40.91" rx="1.83" ry="1.66"/>
      <path class="uuid-8d5b5cfc-6965-4ecc-b714-3c76121c38f2" d="m11.2,44.7c.46,4.82,1.23,9.03,2.59,13.68,8.49-.07,16.98-.17,25.47-.44,8.49-.27,17.21-.84,25.63-2.03,0,0,1.51-13.31-1.55-25.74-3.38-.7-28.09.79-28.09.79"/>
      <path class="uuid-8d5b5cfc-6965-4ecc-b714-3c76121c38f2" d="m37.3,54.18l.24,2.74-19.05.44c-.79.07-2.01.17-2.73-.2-.33-.17-.57-.58-.41-.92.14-.3.51-.41.84-.48,2.33-.48,4.71-.68,7.08-.86,5.08-.38,10.17-.63,15.26-.76-.11,0-1.35-10.25-1.49-11.19-.54-3.7-1.05-7.42-1.72-11.1-.26-1.42-.57-2.83-1.03-4.21-7.85-.56-16.05-1.08-23.85-.05.07,3.48-.06,6.58.12,10.06"/>
      <path class="uuid-8d5b5cfc-6965-4ecc-b714-3c76121c38f2" d="m13.5,57.35s-.99-2.58,3.58-3.08c4.57-.51,14.82-1.44,20.19-1.59-1.08-7.89-2.29-15.71-3.69-23.54,0,0-14.72-1.13-23.11-.4"/>
      <path class="uuid-8d5b5cfc-6965-4ecc-b714-3c76121c38f2" d="m9.91,44.61l-.52-5.58c-.07-.71.47-1.33,1.18-1.37,3.22-.19,11.55-.62,14.74-.37,1.53.12,3.2.61,3.95,2.08.62,1.21.71,3.02-.33,4.02-1.58,1.51-4.57,1.39-6.6,1.47-3.79.13-12.41-.21-12.41-.24Z"/>
      <path class="uuid-ccdd580e-d1c0-4cef-b45b-d668badc749a" d="m29.71,41.2c0-.16.8,3.21-2.12,4.32-2.91,1.11-16.39.76-16.39.76v-1.58s9.54.2,11.12.16c1.59-.04,7.21.49,7.39-3.66Z"/>
      <path class="uuid-8d5b5cfc-6965-4ecc-b714-3c76121c38f2" d="m26.91,59.99s2.38,1.4,3.28,4.02"/>
      <path class="uuid-8d5b5cfc-6965-4ecc-b714-3c76121c38f2" d="m9.45,38.5s11.69-.55,14.66-.45c2.97.1,4.43.75,4.73,2.62.3,1.86-1.51,3.03-2.94,3.23-1.44.2-15.99.28-15.99.28"/>
      <g>
        <g>
          <path class="uuid-87741ca2-6cbe-4e58-95c5-46ee3e4c36bd" d="m17.48,61.08s-1.81-6.28-5.14-7.52c0,0-.67-4.29.76-4.52,1.43-.24,5.43-2.88,4.38-6.17-1.05-3.3-4.19,1.65-6.28,1.84-2.09.19-4.38,2.96-4.28,5.33.1,2.38-2.19,6.85-1.62,9.42s4.09,7.14,4.38,9.52"/>
          <path class="uuid-87741ca2-6cbe-4e58-95c5-46ee3e4c36bd" d="m13.1,43.74s2.51.46,3.87-1.13c1.36-1.59-.21-1.69-.21-1.69l-3.66,2.83Z"/>
        </g>
        <path class="uuid-8d5b5cfc-6965-4ecc-b714-3c76121c38f2" d="m8.62,47.29c.46.03.9.18,1.29.42"/>
        <path class="uuid-8d5b5cfc-6965-4ecc-b714-3c76121c38f2" d="m8.55,48.2c.45.04.89.22,1.25.5"/>
      </g>
      <path class="uuid-8d5b5cfc-6965-4ecc-b714-3c76121c38f2" d="m15.32,56.61s10.74-.55,13.56-.39"/>
      <path class="uuid-8d5b5cfc-6965-4ecc-b714-3c76121c38f2" d="m26.26,55.4s2.7-.21,4.38,0"/>
      <line class="uuid-8d5b5cfc-6965-4ecc-b714-3c76121c38f2" x1="33.1" y1="56.19" x2="37.47" y2="56.19"/>
      <path class="uuid-8d5b5cfc-6965-4ecc-b714-3c76121c38f2" d="m35.74,32.19s19.19-1.71,26.9-.74c0,0,2.08,3.83,1.63,23.44,0,0-12.48,1.72-26.12,1.94"/>
    </g>
  </g>
  <g>
    <g class="uuid-aff40b9f-35c6-4f86-9c03-77f772a71be7">
      <path class="uuid-929b5376-d91c-45d4-b9bd-fc8dbc4f3f60" d="m87.7,59.33c-.55-2.32-1.34-3.19-2.14-3.86,0,0-.02-1.32-1.05-2.06-.26-.23-.56-.45-.88-.65-.96-.72-2.03-1.54-2.03-1.54-.5-1.45-1.18-3.2-1.91-4.92l.04.39c-.75-1.83-1.48-3.65-1.69-4.25,0,0,0,0,0-.01.21.58.44,1.14.68,1.66l-2.74-9.69c-.07-.39-.13-.77-.2-1.14-.13-1.09-.49-3.16-1.35-3.3-.03,0-.06,0-.1,0,0,0-1.01-.44-1.01,1.36-1.21.4-1.67,1.3-1.79,2.39-.06.31-.07.65-.02,1.03.02.4.07.8.13,1.2l-3.87-5.09-.38-.5-4.79-6.31-6.45-8.49c-1.01-1.33-2.9-1.59-4.23-.58l-7.99,6.07-3.12,2.37c-2.39,1.25-1.77,3.71-1.11,4.58l13.94,18.36c-.14-.02-.22-.01-.22-.01,0,0-.4-.94-1.38-.79-.2,0-.39.07-.59.19-.16.08-.29.2-.39.36-.1.12-.2.26-.29.42-.5.86-.04,2.96.69,5.53.05.17.09.33.14.48,0,0,0,.02,0,.02.06.21.12.42.19.64.71,2.46,2.04,7.3,2.28,9.66.02.23.03.45.03.67.02,2.73-1.2,7.3-.68,9.18.07.25.14.49.21.72.39,1.26.73,2.45,1.34,3.64.74,1.44,1.62,2.83,2.45,4.23,1.52,2.57,3.08,5.11,4.71,7.62.75,1.15,1.62,2.2,2.47,3.29.39.5,1.23,1.24,1.38,1.88,0,0,7.5.62,11.69-2.05l-.4-5.96,2.81-16.17c.8-1.22,3.28-3.6,3.78-4.36.25-.37.5-.75.75-1.11,1.85-1.73,2.78-3.07,3.18-4.62,0,0-.03-.18-.1-.47Zm-26.25,3.17s0,0,0,0c0,0,0,0,0,0,0,0,0,0,0,0Zm.3.37l-.04-.07c.34.17,1.18.51,2.41.7-.87-.1-1.86-.24-2.37-.63Zm3.16.72s0,0,0,0c.13.01.27.02.4.03-.12,0-.25,0-.4-.03Zm-3.24-.89l-.5-1c-.7-2.01-2.29-6.75-2.29-6.77,0,0,0,0,0,0,0,0-.41-1.95-1.24-4,.73.26,1.57.15,2.24-.35l3.83-2.91c.4.24.8.45,1.2.64l3.59,2.81-2.85,11.7-3.98-.12Zm14.53-26.95s0,0,0,0c.3,1.4.77,3.41,1.39,5.36-.47-1.4-1.05-3.31-1.39-5.36Z"/>
      <path class="uuid-929b5376-d91c-45d4-b9bd-fc8dbc4f3f60" d="m59.93,91.97l.02.1s0-.04-.02-.1Z"/>
    </g>
    <g>
      <path class="uuid-87741ca2-6cbe-4e58-95c5-46ee3e4c36bd" d="m73.23,36.17c.23-.15,3.43-1.89,5.03,3.35s3.49,14.16,3.49,14.16l-3.82.75s-3.54-1.88-6.71-6.6c0,0-4.45-1.15-6.38-3.89-1.76-2.49,3.65-11.62,3.65-11.62l4.73,3.86Z"/>
      <path class="uuid-8d5b5cfc-6965-4ecc-b714-3c76121c38f2" d="m71.86,42.7c.95,1.42,2.74,4.4,5.16,5.34"/>
      <path class="uuid-8d5b5cfc-6965-4ecc-b714-3c76121c38f2" d="m69.18,44.22c.45.18,1.54.81,2.05.83,0,0,2.23,4.42,5.92,5.85"/>
      <path class="uuid-8d5b5cfc-6965-4ecc-b714-3c76121c38f2" d="m67.13,45.85c1.37,1.15,3,1.93,4.1,1.98,0,0,2.23,4.42,5.92,5.85"/>
    </g>
    <g>
      <rect class="uuid-ccdd580e-d1c0-4cef-b45b-d668badc749a" x="49.42" y="15.12" width="19.99" height="32.59" rx="10" ry="10" transform="translate(-6.9 42.34) rotate(-37.22)"/>
      <path class="uuid-7067c0e4-b990-4977-9a05-373298e13942" d="m74.98,39.31l-11.11,8.44c-1.33,1.01-3.22.75-4.23-.58l-16.06-21.15c-.27-.35-.45-.75-.54-1.16-.26-1.12.14-2.33,1.12-3.07l3.12-2.37,7.99-6.07c1.33-1.01,3.22-.75,4.23.58l6.45,8.49,4.79,6.31,4.83,6.35c1.01,1.33.75,3.22-.58,4.22Z"/>
      <path class="uuid-32289224-83a9-4082-9428-009f8ac943af" d="m65.94,22.42l-18.66-2.99,7.99-6.07c1.33-1.01,3.22-.75,4.23.58l6.45,8.49Z"/>
      <path class="uuid-32289224-83a9-4082-9428-009f8ac943af" d="m74.98,39.31l-11.11,8.44c-1.33,1.01-3.22.75-4.23-.58l-16.06-21.15c-.27-.35-.45-.75-.54-1.16l28.07,4.36,4.45,5.86c1.01,1.33.75,3.22-.58,4.22Z"/>
      <rect class="uuid-87741ca2-6cbe-4e58-95c5-46ee3e4c36bd" x="55.47" y="15.67" width="4.25" height="5.71" rx="2.13" ry="2.13" transform="translate(.53 38.61) rotate(-37.22)"/>
      <line class="uuid-87741ca2-6cbe-4e58-95c5-46ee3e4c36bd" x1="55.91" y1="16.22" x2="59.3" y2="20.82"/>
      <line class="uuid-87741ca2-6cbe-4e58-95c5-46ee3e4c36bd" x1="55.91" y1="19.82" x2="59.3" y2="17.25"/>
      <polygon class="uuid-ccdd580e-d1c0-4cef-b45b-d668badc749a" points="62.47 46.38 61.89 46.8 54.84 37.51 55.41 37.08 62.47 46.38"/>
      <polygon class="uuid-ccdd580e-d1c0-4cef-b45b-d668badc749a" points="63.45 45.65 62.87 46.08 55.81 36.78 56.38 36.35 63.45 45.65"/>
      <polygon class="uuid-ccdd580e-d1c0-4cef-b45b-d668badc749a" points="64.43 44.93 63.85 45.36 56.78 36.04 57.35 35.61 64.43 44.93"/>
      <polygon class="uuid-ccdd580e-d1c0-4cef-b45b-d668badc749a" points="65.4 44.21 64.83 44.63 57.85 35.44 58.42 35.01 65.4 44.21"/>
      <polygon class="uuid-ccdd580e-d1c0-4cef-b45b-d668badc749a" points="66.46 43.43 65.88 43.85 58.89 34.65 59.46 34.22 66.46 43.43"/>
      <polygon class="uuid-ccdd580e-d1c0-4cef-b45b-d668badc749a" points="66.46 32.6 65.88 33.02 58.89 23.82 59.46 23.39 66.46 32.6"/>
      <rect class="uuid-ccdd580e-d1c0-4cef-b45b-d668badc749a" x="60.08" y="13.47" width="1.12" height="32.57" transform="translate(-5.65 42.74) rotate(-37.22)"/>
      <path class="uuid-8d5b5cfc-6965-4ecc-b714-3c76121c38f2" d="m74.98,39.31l-11.11,8.44c-1.33,1.01-3.22.75-4.23-.58l-16.06-21.15c-.27-.35-.45-.75-.54-1.16-.26-1.12.14-2.33,1.12-3.07l3.12-2.37,7.99-6.07c1.33-1.01,3.22-.75,4.23.58l6.45,8.49,4.79,6.31,4.83,6.35c1.01,1.33.75,3.22-.58,4.22Z"/>
    </g>
    <path class="uuid-87741ca2-6cbe-4e58-95c5-46ee3e4c36bd" d="m65.98,94.07s12.93,4.6,16.85-5.42c0,0-6.12-7.44-2.78-13.53,2.1-3.83,7.92-12.29,7.92-12.29,0,0,2.43-2.31,3.18-4.62,0,0-.42-2.58-2.25-4.33,0,0-.02-1.32-1.05-2.06-1.03-.74-2.91-2.19-2.91-2.19,0,0-3.1-7.43-3.56-8.78-.46-1.35-1.38-3.88-1.85-6.68-.46-2.8-.89-5.82-1.87-5.81,0,0-1.01-.44-1.01,1.36,0,0-2.12,1.09-1.81,3.41.31,2.32.6,3.51.52,4.82-.08,1.31.33,5.83,1.38,7.25,0,0,.35,6.35.87,8.01.02.05.03.1.05.14.55,1.4-4.96,6.8-7.95,8.25,0,0-.31.58-1.47.42-1.16-.16-3.12-.23-3.46-1.09-.34-.86-2.58-7.57-2.58-7.57,0,0-1.82-8.61-5.44-8.61,0,0-.55-1.32-1.97-.6-1.42.72-.49,4.63.14,6.78.63,2.14,2.22,7.77,2.48,10.36.26,2.59-1.21,7.78-.65,9.82.56,2.04,1.16,3.42,2.92,6.76,1.76,3.34,5.66,13.3,6.28,16.21Z"/>
    <path class="uuid-8d5b5cfc-6965-4ecc-b714-3c76121c38f2" d="m65.98,94.07s-2.77-10.42-6.84-17.16c-4.07-6.74-1.68-9.12-1.68-14.74s-4.57-15.16-3.34-17.26c1.23-2.11,2.92-.42,3.62,1.54s-.28,3.09-2.25,3.23"/>
    <path class="uuid-8d5b5cfc-6965-4ecc-b714-3c76121c38f2" d="m56.77,44.73s2.36-.14,3.81,3.64c1.45,3.78,3.78,13.37,6.2,16.27"/>
    <path class="uuid-8d5b5cfc-6965-4ecc-b714-3c76121c38f2" d="m64.87,61.1s3.38,1.91,8.61.26"/>
    <path class="uuid-8d5b5cfc-6965-4ecc-b714-3c76121c38f2" d="m57.22,55.82c.52-.65,1.4-.98,2.21-.84"/>
    <path class="uuid-8d5b5cfc-6965-4ecc-b714-3c76121c38f2" d="m57.67,57.01c.44-.55,1.22-.8,1.9-.62"/>
    <path class="uuid-8d5b5cfc-6965-4ecc-b714-3c76121c38f2" d="m76.66,29.7c-3.44,1.15-.88,6.34-1.29,8.23-.41,1.89.66,5.52,1.48,7.49,0,2.3.82,7.9.82,7.9-.51,1.78-4.75,7.03-8.87,8.67"/>
    <path class="uuid-8d5b5cfc-6965-4ecc-b714-3c76121c38f2" d="m79.18,32.32s-.26-3.97-1.51-3.97-1.18,2.68-.66,4.67c.52,1.99,2.55,1.69,2.17-.69Z"/>
    <path class="uuid-8d5b5cfc-6965-4ecc-b714-3c76121c38f2" d="m79.18,32.32s1.07,6.25,2.88,10.17"/>
    <path class="uuid-8d5b5cfc-6965-4ecc-b714-3c76121c38f2" d="m84.19,57.12c.88-1.42,1.26-2.76,1.59-4.47-.08-1.07-1.31-4.57-2.75-7.95"/>
    <path class="uuid-8d5b5cfc-6965-4ecc-b714-3c76121c38f2" d="m85.05,49.95c1.42,1.07,3.89,1.89,3.61,3.73-.27,1.73-.94,3.55-1.91,5.23"/>
    <path class="uuid-8d5b5cfc-6965-4ecc-b714-3c76121c38f2" d="m83.14,89.11s-4.95-6.88-3.96-11.62c.73-3.49,5.42-9.6,8.78-14.66,1.85-1.73,2.78-3.07,3.18-4.62-.59-2.92-1.56-3.78-2.49-4.52"/>
    <path class="uuid-8d5b5cfc-6965-4ecc-b714-3c76121c38f2" d="m84.46,51.08c-1.1-.32-2.33-.15-3.3.45"/>
    <path class="uuid-8d5b5cfc-6965-4ecc-b714-3c76121c38f2" d="m84.19,52.26c-.67-.1-1.37.02-1.96.34"/>
  </g>
</svg>