<?xml version="1.0" encoding="UTF-8"?>
<svg id="uuid-39727250-ba17-409a-bc20-9ecae8980570" data-name="Capa 1" xmlns="http://www.w3.org/2000/svg" viewBox="0 0 95 86.98">
  <defs>
    <style>
      .uuid-bc278c22-fcc4-4b67-a0db-67998535be9c {
        fill: #fcc00d;
      }

      .uuid-9b890af2-cc31-4ed9-bd2a-2209fd030512 {
        fill: #f5f5f5;
      }

      .uuid-0b769a13-e5c2-4324-801f-23555ca82a29 {
        fill: #6eb63a;
      }

      .uuid-13317866-77f3-4afe-86e3-1a8245bb4ad3 {
        fill: #010101;
        isolation: isolate;
        opacity: .3;
      }

      .uuid-75f95241-7df4-4cba-a2c3-d8a81470c558 {
        fill: #e0e0e0;
      }

      .uuid-0184fea2-d27a-488c-bed6-3be6cc2165a5 {
        fill: #575e65;
      }

      .uuid-bf036221-69a0-48f7-9484-5eedbb598bc7 {
        fill: #fbfbfb;
      }

      .uuid-8bd7e50b-9eae-4361-ae16-b2d04e0445a9 {
        fill: #ebebeb;
      }

      .uuid-6fe6be28-1fda-4b1e-bf0e-71c1bcd762df {
        fill: #465b65;
      }

      .uuid-a798955b-93fc-4f9b-b1e2-44d7f87f538e {
        fill: #263339;
      }
    </style>
  </defs>
  <g id="uuid-5e66ac7d-e8b5-42c5-b575-af4f73e6c270" data-name="fondo">
    <path id="uuid-739d208b-7638-456e-b9a4-cfc5f720708d" data-name="fondoTotal" class="uuid-9b890af2-cc31-4ed9-bd2a-2209fd030512" d="m88.02,50.62c2.85-14.54-7.04-22.22-26.92-24.29-21.9-2.28-14.67-16.16-25.78-23.74C24.21-4.99-7.19,3.24,8.76,38.26c15.95,35.02,73.54,41.57,79.26,12.36Z"/>
  </g>
  <g id="uuid-fa903ff2-2a27-41b9-84cb-07cd91631f2b" data-name="piso">
    <path class="uuid-a798955b-93fc-4f9b-b1e2-44d7f87f538e" d="m95,86.92s-20.03.06-44.74.06-44.74-.03-44.74-.06,20.03-.06,44.74-.06,44.74.03,44.74.06Z"/>
  </g>
  <g id="uuid-05e38f1e-14cb-4bfe-9559-e27d291ecf36" data-name="datafono">
    <path class="uuid-8bd7e50b-9eae-4361-ae16-b2d04e0445a9" d="m31.97,18.73s.19-9.71-7.84-14.64h25.45s7.28,5.9,7.34,14.64h-24.94Z"/>
    <path class="uuid-6fe6be28-1fda-4b1e-bf0e-71c1bcd762df" d="m47.63,7.63s-2.91.06-6.5.06-6.5-.03-6.5-.06,2.91-.06,6.5-.06,6.5.03,6.5.06Z"/>
    <path class="uuid-a798955b-93fc-4f9b-b1e2-44d7f87f538e" d="m50.41,9.39s-3.85.06-8.6.06-8.6-.03-8.6-.06,3.85-.06,8.6-.06,8.6.03,8.6.06Z"/>
    <path class="uuid-a798955b-93fc-4f9b-b1e2-44d7f87f538e" d="m51.86,13.83s-3.85.06-8.6.06-8.6-.03-8.6-.06,3.85-.06,8.6-.06,8.6.03,8.6.06Z"/>
    <path class="uuid-a798955b-93fc-4f9b-b1e2-44d7f87f538e" d="m42.87,11.41c-.12.02-.23.03-.35.02l-.96.02c-.81.01-1.93.02-3.17.02s-2.36,0-3.17-.02l-.96-.02c-.12,0-.23,0-.35-.02.12-.02.23-.02.35-.02l.96-.02c.81,0,1.93-.02,3.17-.02s2.36,0,3.17.02l.96.02c.12,0,.23,0,.35.02Z"/>
    <path class="uuid-a798955b-93fc-4f9b-b1e2-44d7f87f538e" d="m50.41,11.41c-.09.02-.17.03-.26.02l-.71.02c-.6.01-1.43.02-2.34.02s-1.74,0-2.34-.02l-.71-.02c-.09,0-.17,0-.26-.02.09-.02.17-.02.26-.02l.71-.02c.6,0,1.43-.02,2.34-.02s1.73,0,2.34.02l.71.02c.09,0,.17,0,.26.02Z"/>
    <path class="uuid-a798955b-93fc-4f9b-b1e2-44d7f87f538e" d="m44.46,16.21c-.12.02-.23.03-.35.02l-.96.02c-.81,0-1.93.02-3.17.02s-2.36,0-3.17-.02l-.96-.02c-.12,0-.24,0-.35-.02.12-.02.23-.02.35-.02l.96-.02c.81,0,1.93-.02,3.17-.02s2.36,0,3.17.02l.96.02c.12,0,.24,0,.35.02Z"/>
    <path class="uuid-a798955b-93fc-4f9b-b1e2-44d7f87f538e" d="m52.01,16.21c-.09.02-.17.03-.26.02l-.71.02c-.6,0-1.43.02-2.34.02s-1.73,0-2.34-.02l-.71-.02c-.09,0-.17,0-.26-.02.09-.02.17-.02.26-.02l.71-.02c.6,0,1.43-.02,2.34-.02s1.73,0,2.34.02l.71.02c.09,0,.17,0,.26.02Z"/>
    <path class="uuid-a798955b-93fc-4f9b-b1e2-44d7f87f538e" d="m26.76,18.45h37.55l2.04,65.05c.06,1.83-1.38,3.37-3.22,3.43h0s-39.15,0-39.15,0c-1.15,0-2.09-.9-2.15-2.04l-1.8-36.73s-11.14-4.04-10.95-16.37c0,0,.51-13.33,17.67-13.33Z"/>
    <path class="uuid-0184fea2-d27a-488c-bed6-3be6cc2165a5" d="m28.8,86.83l-1.64-68.37h38.51l.7,65.5c.05,1.59-1.2,2.91-2.78,2.97h-.1l-34.68-.09Z"/>
    <polygon class="uuid-a798955b-93fc-4f9b-b1e2-44d7f87f538e" points="30.35 22.42 31.13 54.25 62.49 54.25 62.07 22.42 30.35 22.42"/>
    <path class="uuid-75f95241-7df4-4cba-a2c3-d8a81470c558" d="m33.82,26.54c1.53.41,3.47.24,5.04.16.24,0,.43-.19.43-.43s-.19-.43-.43-.43c-1.57-.08-3.51-.25-5.04.16-.15.04-.24.2-.19.36.03.09.1.17.19.19h0Z"/>
    <path class="uuid-75f95241-7df4-4cba-a2c3-d8a81470c558" d="m41.53,26.47c1.5.38,3.45.31,4.98.17.24,0,.43-.19.43-.43s-.19-.43-.43-.43c-1.54-.15-3.48-.22-4.98.17-.15.04-.23.2-.19.35,0,0,0,0,0,0,.03.09.1.16.19.19h0Z"/>
    <path class="uuid-75f95241-7df4-4cba-a2c3-d8a81470c558" d="m49.14,26.34c.76.23,1.57.19,2.36.2.8.05,1.6.03,2.4-.05.39-.06.39-.74,0-.79-.8-.08-1.6-.1-2.4-.05-.78.01-1.6-.03-2.36.2-.13.04-.21.18-.17.31.02.08.09.15.17.17Z"/>
    <path class="uuid-75f95241-7df4-4cba-a2c3-d8a81470c558" d="m56.2,26.38c.57.08,1.15.13,1.72.13.57.01,1.19.11,1.74-.05.2-.06.31-.27.25-.47-.04-.12-.13-.22-.25-.25-.55-.16-1.17-.06-1.74-.05-.58,0-1.15.05-1.72.13-.16.05-.24.21-.2.37.03.09.1.17.2.2h0Z"/>
    <rect class="uuid-bc278c22-fcc4-4b67-a0db-67998535be9c" x="31.14" y="58.04" width="9.09" height="6.5"/>
    <rect class="uuid-a798955b-93fc-4f9b-b1e2-44d7f87f538e" x="31.14" y="58.04" width="1.64" height="6.5"/>
    <rect class="uuid-bc278c22-fcc4-4b67-a0db-67998535be9c" x="42.27" y="58.04" width="9.09" height="6.5"/>
    <rect class="uuid-a798955b-93fc-4f9b-b1e2-44d7f87f538e" x="42.17" y="58.04" width="1.64" height="6.5"/>
    <rect class="uuid-bc278c22-fcc4-4b67-a0db-67998535be9c" x="53.4" y="58.04" width="9.09" height="6.5"/>
    <rect class="uuid-a798955b-93fc-4f9b-b1e2-44d7f87f538e" x="53.14" y="58.04" width="1.64" height="6.5"/>
    <rect class="uuid-bc278c22-fcc4-4b67-a0db-67998535be9c" x="53.4" y="66.68" width="9.09" height="6.5"/>
    <rect class="uuid-a798955b-93fc-4f9b-b1e2-44d7f87f538e" x="53.4" y="66.68" width="1.69" height="6.5"/>
    <rect class="uuid-bc278c22-fcc4-4b67-a0db-67998535be9c" x="31.14" y="66.68" width="9.09" height="6.5"/>
    <rect class="uuid-a798955b-93fc-4f9b-b1e2-44d7f87f538e" x="31.14" y="66.67" width="1.64" height="6.5"/>
    <rect class="uuid-bc278c22-fcc4-4b67-a0db-67998535be9c" x="31.14" y="75.24" width="9.09" height="6.5"/>
    <rect class="uuid-13317866-77f3-4afe-86e3-1a8245bb4ad3" x="31.14" y="75.24" width="9.09" height="6.5"/>
    <rect class="uuid-a798955b-93fc-4f9b-b1e2-44d7f87f538e" x="31.14" y="75.24" width="1.64" height="6.5"/>
    <rect class="uuid-bc278c22-fcc4-4b67-a0db-67998535be9c" x="42.22" y="66.68" width="9.09" height="6.5"/>
    <rect class="uuid-a798955b-93fc-4f9b-b1e2-44d7f87f538e" x="42.22" y="66.67" width="1.64" height="6.5"/>
    <rect class="uuid-bc278c22-fcc4-4b67-a0db-67998535be9c" x="42.27" y="75.24" width="9.09" height="6.5"/>
    <rect class="uuid-13317866-77f3-4afe-86e3-1a8245bb4ad3" x="42.27" y="75.24" width="9.09" height="6.5"/>
    <rect class="uuid-a798955b-93fc-4f9b-b1e2-44d7f87f538e" x="42.27" y="75.24" width="1.64" height="6.5"/>
    <rect class="uuid-0b769a13-e5c2-4324-801f-23555ca82a29" x="53.4" y="75.24" width="9.09" height="6.5"/>
    <rect class="uuid-a798955b-93fc-4f9b-b1e2-44d7f87f538e" x="53.4" y="75.24" width="1.64" height="6.5"/>
    <path class="uuid-6fe6be28-1fda-4b1e-bf0e-71c1bcd762df" d="m25.8,86.93c-.16,0-.73-15.32-1.27-34.22-.55-18.9-.87-34.24-.71-34.25s.73,15.32,1.27,34.22c.55,18.9.87,34.24.71,34.25Z"/>
    <polygon class="uuid-6fe6be28-1fda-4b1e-bf0e-71c1bcd762df" points="62.44 50.63 62.44 51.79 66.04 52.69 66.02 50.89 62.44 50.63"/>
    <path id="uuid-7f89f1f4-48b8-416c-995e-878e2bee606e" data-name="tarjetaFondo2" class="uuid-bc278c22-fcc4-4b67-a0db-67998535be9c" d="m18.79,48.28c-.2-.08-.41-.11-.62-.1-.21.02-.42.07-.62.15l-2.46.82-4.81,1.62-9.1,3.03c-.36.1-.67.33-.87.65-.2.31-.27.68-.21,1.04.04.18.09.35.16.53l.18.52c.12.35.23.69.35,1.04.46,1.37.9,2.7,1.33,3.99.87,2.58,1.66,4.98,2.4,7.17,1.46,4.38,2.64,7.93,3.47,10.38.41,1.23.72,2.18.94,2.82.1.32.19.57.24.73s.08.25.08.25h0c.03.08.07.16.11.24.12.23.31.42.52.55.36.22.79.28,1.2.17.47-.15,1.01-.34,1.63-.55l9.05-3.05-9.65-30.13,4.83-1.62,8.71,26.7-.38-9.29c-1.75-5.23-3.65-10.88-5.63-16.78-.14-.41-.44-.74-.84-.9Zm-11.12,13.73l-2.15-6.81.73-.23,2.15,6.81-.73.23Zm1.49-3.75l-1.26-3.97.73-.23,1.26,3.97-.73.23Zm1.69,5.04l-1.25-3.97.73-.23,1.25,3.97-.73.23Zm.43,1.07l.73-.23,3.47,11-.73.23-3.47-11Zm4.55,14.39l-.74-2.35.73-.23.74,2.35-.73.23Zm3-1.25l-.73.23-4.59-14.51.73-.23,4.59,14.51Zm-4.96-15.9l-.73.23-2.66-8.41.73-.23,2.66,8.41Z"/>
    <path id="uuid-dd0d6ea0-87a4-4294-b4a2-8b9105581388" data-name="tarjetaFondo1" class="uuid-13317866-77f3-4afe-86e3-1a8245bb4ad3" d="m18.79,48.28c-.2-.08-.41-.11-.62-.1-.21.02-.42.07-.62.15l-2.46.82-4.81,1.62-9.1,3.03c-.36.1-.67.33-.87.65-.2.31-.27.68-.21,1.04.04.18.09.35.16.53l.18.52c.12.35.23.69.35,1.04.46,1.37.9,2.7,1.33,3.99.87,2.58,1.66,4.98,2.4,7.17,1.46,4.38,2.64,7.93,3.47,10.38.41,1.23.72,2.18.94,2.82.1.32.19.57.24.73s.08.25.08.25h0c.03.08.07.16.11.24.12.23.31.42.52.55.36.22.79.28,1.2.17.47-.15,1.01-.34,1.63-.55l9.05-3.05-9.65-30.13,4.83-1.62,8.71,26.7-.38-9.29c-1.75-5.23-3.65-10.88-5.63-16.78-.14-.41-.44-.74-.84-.9Zm-11.12,13.73l-2.15-6.81.73-.23,2.15,6.81-.73.23Zm1.49-3.75l-1.26-3.97.73-.23,1.26,3.97-.73.23Zm1.69,5.04l-1.25-3.97.73-.23,1.25,3.97-.73.23Zm.43,1.07l.73-.23,3.47,11-.73.23-3.47-11Zm4.55,14.39l-.74-2.35.73-.23.74,2.35-.73.23Zm3-1.25l-.73.23-4.59-14.51.73-.23,4.59,14.51Zm-4.96-15.9l-.73.23-2.66-8.41.73-.23,2.66,8.41Z"/>
    <path class="uuid-a798955b-93fc-4f9b-b1e2-44d7f87f538e" d="m21.76,80.34v-.03s-9.06,3.05-9.06,3.05c-.61.2-1.15.39-1.63.55-.41.11-.84.05-1.2-.17-.22-.14-.4-.33-.52-.55-.08-.15-.1-.24-.11-.24h0l.02.06c.11.31.33.57.6.75.36.23.8.3,1.22.19.48-.15,1.02-.34,1.63-.54l10.38-3.47,2.46-.82.24-.12-4.04,1.36Z"/>
    <path class="uuid-a798955b-93fc-4f9b-b1e2-44d7f87f538e" d="m9.17,82.68c-.05-.17-.14-.41-.24-.73-.22-.65-.53-1.6-.94-2.82-.82-2.45-2-6-3.47-10.38-.73-2.19-1.54-4.59-2.4-7.17-.43-1.29-.88-2.62-1.33-3.99-.12-.34-.23-.69-.35-1.04l-.18-.52c-.06-.17-.12-.35-.16-.53-.06-.36.02-.73.22-1.04.2-.32.51-.55.87-.65l9.1-3.03,4.81-1.61,2.46-.82c.2-.08.41-.13.62-.15.66-.03,1.26.37,1.47,1,1.98,5.9,3.87,11.55,5.63,16.78l-.02-.35c-1.72-5.14-3.58-10.68-5.51-16.46-.15-.44-.48-.79-.91-.96-.21-.08-.44-.12-.66-.11-.22.02-.44.07-.65.16l-2.46.83-4.81,1.61-9.1,3.05c-.38.1-.71.35-.92.68-.21.33-.29.73-.22,1.11.04.18.09.36.16.54.06.18.12.35.18.52.11.35.23.69.35,1.04.46,1.37.91,2.7,1.34,3.99l2.41,7.16,3.49,10.37c.42,1.22.74,2.17.96,2.82.11.32.19.57.25.73l.09.25h0s-.02-.08-.08-.25Z"/>
    <rect class="uuid-bf036221-69a0-48f7-9484-5eedbb598bc7" x="15.79" y="62.76" width=".76" height="15.22" transform="translate(-20.45 8.15) rotate(-17.54)"/>
    <rect class="uuid-bf036221-69a0-48f7-9484-5eedbb598bc7" x="11.8" y="53.1" width=".76" height="8.83" transform="translate(-16.77 6.35) rotate(-17.54)"/>
    <rect class="uuid-bf036221-69a0-48f7-9484-5eedbb598bc7" x="8.52" y="54.07" width=".76" height="4.17" transform="translate(-16.51 5.29) rotate(-17.54)"/>
    <rect class="uuid-bf036221-69a0-48f7-9484-5eedbb598bc7" x="6.44" y="54.71" width=".76" height="7.12" transform="translate(-17.23 4.76) rotate(-17.53)"/>
    <rect class="uuid-bf036221-69a0-48f7-9484-5eedbb598bc7" x="15.45" y="76.23" width=".76" height="2.46" transform="translate(-22.61 8.37) rotate(-17.54)"/>
    <rect class="uuid-bf036221-69a0-48f7-9484-5eedbb598bc7" x="10.21" y="59.11" width=".76" height="4.17" transform="translate(-17.95 6.04) rotate(-17.54)"/>
    <rect class="uuid-bf036221-69a0-48f7-9484-5eedbb598bc7" x="13" y="63.98" width=".76" height="11.53" transform="translate(-20.4 7.28) rotate(-17.54)"/>
    <polygon id="uuid-e873f161-48f2-4de7-a3e1-32a8a8b81a40" data-name="tarjetaBanda" class="uuid-bf036221-69a0-48f7-9484-5eedbb598bc7" points="12.11 50.17 21.75 80.3 21.76 80.34 25.8 78.98 25.8 78.98 25.65 75.24 16.93 48.55 12.11 50.17"/>
    <polygon class="uuid-a798955b-93fc-4f9b-b1e2-44d7f87f538e" points="21.71 82.14 25.62 80.76 25.54 79.04 21.76 80.34 21.71 82.14"/>
  </g>
</svg>