<?xml version="1.0" encoding="UTF-8"?>
<svg id="uuid-95267d09-2073-4b91-af92-c52ce31976cf" data-name="Capa 1" xmlns="http://www.w3.org/2000/svg" viewBox="0 0 87.51 87.33">
  <defs>
    <style>
      .uuid-00a4273f-bc8b-4d4c-97dc-36b88d3c86cb {
        fill: #fff;
      }

      .uuid-fe94c223-d2ab-4e43-8746-148366a84a5f {
        fill: #706f6f;
      }

      .uuid-7dd1ed11-8e48-4436-8b7d-7b89b4033ae1 {
        fill: #ededed;
      }
    </style>
  </defs>
  <path class="uuid-00a4273f-bc8b-4d4c-97dc-36b88d3c86cb" d="m.04,43.63h0c0,7.6,0,15.2,0,22.8,0,2.8.7,5.44,1.83,7.98,1.96,4.39,5.1,7.75,9.23,10.15,2.72,1.59,5.71,2.7,8.85,2.72,15.39.1,30.78.04,46.16.06,1.01,0,2.01-.07,2.97-.25,5.2-.99,9.65-3.34,13.13-7.43,3.5-4.11,5.24-8.88,5.26-14.22.06-14.55.02-29.1.01-43.64,0-1.06-.03-2.13-.22-3.17-.97-5.31-3.32-9.85-7.51-13.39C75.8,1.89,71.22.09,66.1.05c-15.16-.1-30.32-.03-45.48-.02-1.48,0-2.94.28-4.34.66C10.85,2.15,6.58,5.29,3.48,9.96,1.5,12.95.17,16.29.09,19.86c-.17,7.92-.05,15.85-.05,23.77Z"/>
  <path class="uuid-fe94c223-d2ab-4e43-8746-148366a84a5f" d="m.04,43.63c0-7.92-.11-15.85.05-23.77.08-3.57,1.4-6.91,3.39-9.9C6.58,5.29,10.85,2.15,16.28.69,17.68.31,19.14.03,20.62.03c15.16,0,30.32-.08,45.48.02,5.12.03,9.7,1.83,13.66,5.17,4.19,3.54,6.54,8.08,7.51,13.39.19,1.03.22,2.11.22,3.17.01,14.55.05,29.1-.01,43.64-.02,5.34-1.75,10.1-5.26,14.22-3.48,4.09-7.93,6.44-13.13,7.43-.96.18-1.96.26-2.97.25-15.39-.02-30.78.04-46.16-.06-3.14-.02-6.13-1.13-8.85-2.72-4.13-2.41-7.27-5.77-9.23-10.15-1.13-2.53-1.83-5.18-1.83-7.98,0-7.6,0-15.2,0-22.8h0Zm32.3,3.16c2.44,0,4.88.04,7.32-.02.79-.02,1.02.15,1.01.98-.04,4.9-.02,9.81-.02,14.71,0,1.32.73,2.21,1.84,2.79,1.03.54,2.02.25,2.95-.35,1.11-.71,1.45-1.78,1.45-3.01,0-4.71.02-9.42-.02-14.12,0-.81.18-1.01,1-1,4.81.04,9.63.03,14.44.01,1.34,0,2.36-.61,2.95-1.85.54-1.13.39-2.17-.4-3.16-.74-.94-1.74-1.21-2.84-1.21-4.75-.02-9.5-.02-14.25.01-.72,0-.91-.16-.9-.89.04-4.77.02-9.55.02-14.32,0-2.19-1.73-3.96-4.15-3.33-1.18.31-2.1,1.53-2.1,2.96,0,4.87-.02,9.74.01,14.61,0,.72-.13.97-.93.96-4.68-.04-9.37-.02-14.05-.02-.51,0-1,.03-1.51.16-1.49.37-2.44,1.77-2.25,3.41.16,1.4,1.53,2.66,2.9,2.66,2.5,0,5.01,0,7.51,0Z"/>
  <path class="uuid-7dd1ed11-8e48-4436-8b7d-7b89b4033ae1" d="m32.34,46.78c-2.5,0-5.01,0-7.51,0-1.38,0-2.74-1.26-2.9-2.66-.19-1.64.77-3.03,2.25-3.41.51-.13,1-.16,1.51-.16,4.68,0,9.37-.02,14.05.02.8,0,.93-.24.93-.96-.03-4.87-.02-9.74-.01-14.61,0-1.44.92-2.66,2.1-2.96,2.42-.63,4.15,1.14,4.15,3.33,0,4.77.02,9.55-.02,14.32,0,.74.18.9.9.89,4.75-.04,9.5-.03,14.25-.01,1.1,0,2.1.27,2.84,1.21.79.99.93,2.03.4,3.16-.58,1.23-1.61,1.84-2.95,1.85-4.81.02-9.63.03-14.44-.01-.81,0-1,.19-1,1,.04,4.71.03,9.42.02,14.12,0,1.23-.35,2.3-1.45,3.01-.93.6-1.92.88-2.95.35-1.1-.58-1.83-1.46-1.84-2.79,0-4.9-.03-9.81.02-14.71,0-.84-.23-1-1.01-.98-2.44.06-4.88.02-7.32.02Z"/>
</svg>