<?xml version="1.0" encoding="UTF-8"?>
<svg id="uuid-9868aa89-6f95-4237-bf42-226054522659" data-name="Capa 1" xmlns="http://www.w3.org/2000/svg" viewBox="0 0 512 512">
  <defs>
    <style>
      .uuid-b83ad926-37d2-4c1b-878e-da3692d31774 {
        fill: #7d8f97;
      }

      .uuid-b06dbbcb-856e-4533-9740-491938a68c25 {
        stroke: #efefef;
      }

      .uuid-b06dbbcb-856e-4533-9740-491938a68c25, .uuid-46ad9cf5-a143-414c-b0b7-669b8f34ac63, .uuid-0a778ad5-b665-4dca-94cf-dee51d1011ce, .uuid-48cc0b17-cd15-4263-ba1f-87c5600e055a, .uuid-9c7192cb-5a74-4988-a1ad-0e558bd7a8ee, .uuid-ab742ea5-e0bf-4bce-a12c-f9d5655d3a8f, .uuid-4b2986ea-e9c7-4038-8f34-843934578e3b, .uuid-4949a0a8-c8c8-422d-ab51-14bc9cc1884f, .uuid-e9dcc091-2d7b-4dd7-a8b6-ee3096ae1d3b, .uuid-72e20787-93d7-4e27-8bc4-bfc0caf1882d, .uuid-a856e78f-7258-4a53-8c7e-40871deac879 {
        fill: none;
        stroke-width: 2px;
      }

      .uuid-4ba6ace0-ddc7-4e65-ab59-830dc773553f {
        fill: #1d83d4;
      }

      .uuid-a4431254-5579-4456-a335-83f1fb1be1e2 {
        fill: #fff;
      }

      .uuid-da1f00ea-c333-4533-8369-235129163630 {
        fill: #eceff1;
      }

      .uuid-46ad9cf5-a143-414c-b0b7-669b8f34ac63 {
        stroke: #90cbf9;
      }

      .uuid-417abd32-3bfe-4d0c-b5eb-926e71d4e839 {
        fill: #dedede;
      }

      .uuid-6c241c6e-41b7-4eed-9cff-2659759c411d {
        fill: #2196f3;
      }

      .uuid-0a778ad5-b665-4dca-94cf-dee51d1011ce {
        stroke: #dde0e2;
      }

      .uuid-48cc0b17-cd15-4263-ba1f-87c5600e055a {
        stroke: #8ec1ea;
      }

      .uuid-fcc680a7-4c1e-4e13-aeff-f6b4f7e3e44a {
        fill: #90a4ae;
      }

      .uuid-9c7192cb-5a74-4988-a1ad-0e558bd7a8ee {
        stroke: #b5bfc4;
      }

      .uuid-ab742ea5-e0bf-4bce-a12c-f9d5655d3a8f {
        stroke: #afbac0;
      }

      .uuid-4b2986ea-e9c7-4038-8f34-843934578e3b {
        stroke: #7eb1d9;
      }

      .uuid-4949a0a8-c8c8-422d-ab51-14bc9cc1884f {
        stroke: #becad0;
      }

      .uuid-e9dcc091-2d7b-4dd7-a8b6-ee3096ae1d3b {
        stroke: #879aa3;
      }

      .uuid-72e20787-93d7-4e27-8bc4-bfc0caf1882d {
        stroke: #1f8de4;
      }

      .uuid-a856e78f-7258-4a53-8c7e-40871deac879 {
        stroke: #a5b0b5;
      }

      .uuid-34ee683f-afd0-4a0e-a2f7-55740fea6043 {
        fill: #cdd0d2;
      }
    </style>
  </defs>
  <g>
    <path class="uuid-0a778ad5-b665-4dca-94cf-dee51d1011ce" d="m181.33,0l-.03,88.06" vector-effect="non-scaling-stroke"/>
    <path class="uuid-ab742ea5-e0bf-4bce-a12c-f9d5655d3a8f" d="m181.3,88.06c-3.76-1.83-8.61-2.75-14.55-2.74-24.99,0-49.98,0-74.98-.03-6.44,0-11.06.48-13.87,1.47-8.25,2.9-12.93,9.51-14.03,19.83" vector-effect="non-scaling-stroke"/>
    <path class="uuid-a856e78f-7258-4a53-8c7e-40871deac879" d="m63.87,106.59c.08.77.16,1.7.23,2.77.59,7.9,6.77,14.77,13.53,17.2,2.75.99,7.39,1.48,13.91,1.47,26.99-.05,53.98-.05,80.96,0,2.37,0,5.3-.88,8.8-2.64" vector-effect="non-scaling-stroke"/>
    <path class="uuid-0a778ad5-b665-4dca-94cf-dee51d1011ce" d="m181.3,125.38l.03,45.34" vector-effect="non-scaling-stroke"/>
    <path class="uuid-ab742ea5-e0bf-4bce-a12c-f9d5655d3a8f" d="m181.33,170.72c-29.88,0-59.9-.02-90.05-.05-6.17,0-10.63.48-13.39,1.45-8.25,2.91-12.93,9.53-14.02,19.86" vector-effect="non-scaling-stroke"/>
    <path class="uuid-a856e78f-7258-4a53-8c7e-40871deac879" d="m63.87,191.98c.15,2.69.33,4.37.53,5.04,2.22,7.67,6.65,12.67,13.29,15,2.87,1.01,8.8,1.51,17.79,1.5,28.72-.04,57.32-.04,85.8-.01" vector-effect="non-scaling-stroke"/>
    <path class="uuid-0a778ad5-b665-4dca-94cf-dee51d1011ce" d="m181.28,213.51l.03,42.49" vector-effect="non-scaling-stroke"/>
    <path class="uuid-ab742ea5-e0bf-4bce-a12c-f9d5655d3a8f" d="m181.31,256c-32.08,0-63.93,0-95.56-.02-12.16,0-21.44,9.21-21.73,21.37" vector-effect="non-scaling-stroke"/>
    <path class="uuid-a856e78f-7258-4a53-8c7e-40871deac879" d="m64.02,277.35c-.19,9.25,5.86,17.36,14.57,20.34,2.12.73,5.28,1.09,9.47,1.1,31.14.02,62.27.02,93.38,0" vector-effect="non-scaling-stroke"/>
    <path class="uuid-0a778ad5-b665-4dca-94cf-dee51d1011ce" d="m181.44,298.79l.21,54.36" vector-effect="non-scaling-stroke"/>
    <path class="uuid-0a778ad5-b665-4dca-94cf-dee51d1011ce" d="m181.67,383.27l-.2,64.72" vector-effect="non-scaling-stroke"/>
    <path class="uuid-9c7192cb-5a74-4988-a1ad-0e558bd7a8ee" d="m298.57,195l.21-3.02" vector-effect="non-scaling-stroke"/>
    <path class="uuid-4949a0a8-c8c8-422d-ab51-14bc9cc1884f" d="m298.78,191.98c-.93-10.1-5.58-16.71-13.97-19.83-2.37-.88-5.64-1.33-9.81-1.35-31.08-.15-62.3-.17-93.67-.08" vector-effect="non-scaling-stroke"/>
    <path class="uuid-9c7192cb-5a74-4988-a1ad-0e558bd7a8ee" d="m181.3,125.38c7.08-4.47,10.67-10.73,10.77-18.8" vector-effect="non-scaling-stroke"/>
    <path class="uuid-4949a0a8-c8c8-422d-ab51-14bc9cc1884f" d="m192.07,106.58c-.5-8.18-4.09-14.35-10.77-18.52" vector-effect="non-scaling-stroke"/>
    <path class="uuid-e9dcc091-2d7b-4dd7-a8b6-ee3096ae1d3b" d="m192.07,106.58H63.87" vector-effect="non-scaling-stroke"/>
    <path class="uuid-e9dcc091-2d7b-4dd7-a8b6-ee3096ae1d3b" d="m298.78,191.98H63.87" vector-effect="non-scaling-stroke"/>
    <path class="uuid-9c7192cb-5a74-4988-a1ad-0e558bd7a8ee" d="m263.5,213.55l-82.22-.04" vector-effect="non-scaling-stroke"/>
    <path class="uuid-4949a0a8-c8c8-422d-ab51-14bc9cc1884f" d="m210.79,267.58c-3.42-6.36-8.68-10.14-15.79-11.33-2.09-.35-6.66-.43-13.69-.25" vector-effect="non-scaling-stroke"/>
    <path class="uuid-72e20787-93d7-4e27-8bc4-bfc0caf1882d" d="m367.95,223.96l.06,63.9" vector-effect="non-scaling-stroke"/>
    <path class="uuid-48cc0b17-cd15-4263-ba1f-87c5600e055a" d="m368.01,287.86c.03.19-.14.24-.53.13" vector-effect="non-scaling-stroke"/>
    <path class="uuid-4b2986ea-e9c7-4038-8f34-843934578e3b" d="m367.48,287.99c-8.66-.13-16.82,6.08-19.58,13.9-.92,2.61-1.38,7.74-1.38,15.39,0,9.53,0,19.09,0,28.67,0,.36-.18.54-.54.54-9.41.06-18.81.07-28.21.02-7.5-.03-12.63.4-15.38,1.29-22.85,7.45-17,41.7,7.14,41.66,12.07-.02,24.2.01,36.39.1.36,0,.54.19.55.55.05,9.44.07,18.88.06,28.31,0,7.91.5,13.24,1.51,15.99,2.75,7.49,10.9,13.85,19.46,13.58" vector-effect="non-scaling-stroke"/>
    <path class="uuid-48cc0b17-cd15-4263-ba1f-87c5600e055a" d="m367.49,447.99c.81-.04.99.04.54.24" vector-effect="non-scaling-stroke"/>
    <path class="uuid-72e20787-93d7-4e27-8bc4-bfc0caf1882d" d="m368.03,448.23l-.06,63.77" vector-effect="non-scaling-stroke"/>
    <path class="uuid-46ad9cf5-a143-414c-b0b7-669b8f34ac63" d="m368.03,448.23c10.55-1.23,17.22-6.12,20.03-14.68.91-2.76,1.33-7.35,1.28-13.77-.09-9.93-.08-19.9.02-29.9,0-.37.19-.55.55-.55,10.34-.05,20.68-.06,31.02-.03,9.77.03,16.71-.66,22.39-8,9-11.63,4.26-28.53-9.33-33.3-2.5-.88-6.06-1.31-10.67-1.3-11.11.02-22.25,0-33.44-.04-.37,0-.55-.18-.55-.55-.03-11.59-.04-23.14-.04-34.65,0-13.44-7.25-22.38-21.28-23.6" vector-effect="non-scaling-stroke"/>
    <path class="uuid-e9dcc091-2d7b-4dd7-a8b6-ee3096ae1d3b" d="m204.96,277.44l-140.94-.09" vector-effect="non-scaling-stroke"/>
    <path class="uuid-9c7192cb-5a74-4988-a1ad-0e558bd7a8ee" d="m194.91,298.68l-13.47.11" vector-effect="non-scaling-stroke"/>
    <path class="uuid-b06dbbcb-856e-4533-9740-491938a68c25" d="m367.48,287.99c.35,1.09.52,1.92.52,2.51-.01,51.75-.01,103.5.01,155.25,0,.7-.17,1.45-.52,2.24" vector-effect="non-scaling-stroke"/>
  </g>
  <path class="uuid-34ee683f-afd0-4a0e-a2f7-55740fea6043" d="m52.41,0h128.92l-.03,88.06c-3.76-1.83-8.61-2.75-14.55-2.74-24.99,0-49.98,0-74.98-.03-6.44,0-11.06.48-13.87,1.47-8.25,2.9-12.93,9.51-14.03,19.83.08.77.16,1.7.23,2.77.59,7.9,6.77,14.77,13.53,17.2,2.75.99,7.39,1.48,13.91,1.47,26.99-.05,53.98-.05,80.96,0,2.37,0,5.3-.88,8.8-2.64l.03,45.34c-29.88,0-59.9-.02-90.05-.05-6.17,0-10.63.48-13.39,1.45-8.25,2.91-12.93,9.53-14.02,19.86.15,2.69.33,4.37.53,5.04,2.22,7.67,6.65,12.67,13.29,15,2.87,1.01,8.8,1.51,17.79,1.5,28.72-.04,57.32-.04,85.8-.01l.03,42.49c-32.08,0-63.93,0-95.56-.02-12.16,0-21.44,9.21-21.73,21.37-.19,9.25,5.86,17.36,14.57,20.34,2.12.73,5.28,1.09,9.47,1.1,31.14.02,62.27.02,93.38,0l.21,54.36.02,30.12-.2,64.72c-40.68.01-81.22.02-121.63.01-4.4,0-7.96-.21-10.67-.61-4.07-.61-7.54-1.49-10.4-2.64-22.14-8.95-35.06-25.33-38.77-49.13V52.26C4.61,23.61,23.71,4.38,52.41,0Z"/>
  <path class="uuid-da1f00ea-c333-4533-8369-235129163630" d="m181.33,0h126.41c18.05,1.82,32.26,9.45,42.63,22.88,7.47,9.69,12.11,22.02,12.24,34.13.25,24.71.23,66.05-.06,124.01,0,.34-.17.52-.51.53-22.11.54-43.26,5.02-63.47,13.45l.21-3.02c-.93-10.1-5.58-16.71-13.97-19.83-2.37-.88-5.64-1.33-9.81-1.35-31.08-.15-62.3-.17-93.67-.08l-.03-45.34c7.08-4.47,10.67-10.73,10.77-18.8-.5-8.18-4.09-14.35-10.77-18.52L181.33,0Z"/>
  <path class="uuid-fcc680a7-4c1e-4e13-aeff-f6b4f7e3e44a" d="m181.3,88.06c6.68,4.17,10.27,10.34,10.77,18.52H63.87c1.1-10.31,5.78-16.92,14.03-19.82,2.81-.99,7.43-1.48,13.87-1.47,25,.03,49.99.04,74.98.03,5.94,0,10.79.91,14.55,2.74Z"/>
  <path class="uuid-b83ad926-37d2-4c1b-878e-da3692d31774" d="m63.87,106.59h128.2c-.1,8.06-3.69,14.32-10.77,18.79-3.5,1.76-6.43,2.64-8.8,2.64-26.98-.04-53.97-.04-80.96,0-6.52.01-11.16-.48-13.91-1.47-6.76-2.43-12.94-9.3-13.53-17.2-.07-1.07-.15-2-.23-2.77Z"/>
  <path class="uuid-fcc680a7-4c1e-4e13-aeff-f6b4f7e3e44a" d="m181.33,170.72c31.37-.09,62.59-.07,93.67.08,4.17.02,7.44.47,9.81,1.35,8.39,3.12,13.04,9.73,13.97,19.83H63.87c1.09-10.33,5.77-16.95,14.02-19.86,2.76-.97,7.22-1.45,13.39-1.45,30.15.03,60.17.04,90.05.05Z"/>
  <path class="uuid-b83ad926-37d2-4c1b-878e-da3692d31774" d="m63.87,191.98h234.91l-.21,3.02c-12.33,5.07-24.02,11.26-35.07,18.55l-82.22-.04c-28.48-.03-57.08-.03-85.8.01-8.99,0-14.92-.49-17.79-1.5-6.64-2.33-11.07-7.33-13.29-15-.2-.67-.38-2.35-.53-5.04Z"/>
  <path class="uuid-da1f00ea-c333-4533-8369-235129163630" d="m181.28,213.51l82.22.04c-21.29,14.41-38.86,32.42-52.71,54.03-3.42-6.36-8.68-10.14-15.79-11.33-2.09-.35-6.66-.43-13.69-.25l-.03-42.49Z"/>
  <path class="uuid-4ba6ace0-ddc7-4e65-ab59-830dc773553f" d="m367.95,223.96l.06,63.9c.03.19-.14.24-.53.13-8.66-.13-16.82,6.08-19.58,13.9-.92,2.61-1.38,7.74-1.38,15.39,0,9.53,0,19.09,0,28.67,0,.36-.18.54-.54.54-9.41.06-18.81.07-28.21.02-7.5-.03-12.63.4-15.38,1.29-22.85,7.45-17,41.7,7.14,41.66,12.07-.02,24.2.01,36.39.1.36,0,.54.19.55.55.05,9.44.07,18.88.06,28.31,0,7.91.5,13.24,1.51,15.99,2.75,7.49,10.9,13.85,19.46,13.58.81-.04.99.04.54.24l-.06,63.77h-9.5c-42.92-3.99-77.46-22.29-103.61-54.88-54.81-68.3-34.36-170.44,41.15-213.94,22.08-12.72,46.14-19.1,71.94-19.22Z"/>
  <path class="uuid-6c241c6e-41b7-4eed-9cff-2659759c411d" d="m367.95,223.96c78.79,1.2,140.28,60.68,144.05,139.42v9.35c-1.52,33.27-12.47,62.16-32.84,86.68-27.33,32.87-63,50.4-107.01,52.59h-4.18l.06-63.77c10.55-1.23,17.22-6.12,20.03-14.68.91-2.76,1.33-7.35,1.28-13.77-.09-9.93-.08-19.9.02-29.9,0-.37.19-.55.55-.55,10.34-.05,20.68-.06,31.02-.03,9.77.03,16.71-.66,22.39-8,9-11.63,4.26-28.53-9.33-33.3-2.5-.88-6.06-1.31-10.67-1.3-11.11.02-22.25,0-33.44-.04-.37,0-.55-.18-.55-.55-.03-11.59-.04-23.14-.04-34.65,0-13.44-7.25-22.38-21.28-23.6l-.06-63.9Z"/>
  <path class="uuid-fcc680a7-4c1e-4e13-aeff-f6b4f7e3e44a" d="m181.31,256c7.03-.18,11.6-.1,13.69.25,7.11,1.19,12.37,4.97,15.79,11.33l-5.83,9.86-140.94-.09c.29-12.16,9.57-21.37,21.73-21.37,31.63.02,63.48.03,95.56.02Z"/>
  <path class="uuid-b83ad926-37d2-4c1b-878e-da3692d31774" d="m64.02,277.35l140.94.09-10.05,21.24-13.47.11c-31.11.02-62.24.02-93.38,0-4.19,0-7.35-.37-9.47-1.1-8.71-2.98-14.76-11.09-14.57-20.34Z"/>
  <path class="uuid-417abd32-3bfe-4d0c-b5eb-926e71d4e839" d="m367.48,287.99c.35,1.09.52,1.92.52,2.51-.01,51.75-.01,103.5.01,155.25,0,.7-.17,1.45-.52,2.24-8.56.27-16.71-6.09-19.46-13.58-1.01-2.75-1.51-8.08-1.51-15.99,0-9.43-.01-18.87-.06-28.31,0-.36-.19-.54-.55-.55-12.19-.09-24.32-.12-36.39-.1-24.14.04-29.99-34.21-7.14-41.66,2.75-.89,7.88-1.32,15.38-1.29,9.4.05,18.8.04,28.21-.02.36,0,.54-.18.54-.54.01-9.58.02-19.14,0-28.67,0-7.65.46-12.78,1.38-15.39,2.76-7.82,10.92-14.03,19.58-13.9Z"/>
  <path class="uuid-a4431254-5579-4456-a335-83f1fb1be1e2" d="m367.48,287.99c.39.11.56.06.53-.13,14.03,1.22,21.28,10.16,21.28,23.6,0,11.51.01,23.06.04,34.65,0,.37.18.55.55.55,11.19.05,22.33.06,33.44.04,4.61-.01,8.17.42,10.67,1.3,13.59,4.77,18.33,21.67,9.33,33.3-5.68,7.34-12.62,8.03-22.39,8-10.34-.03-20.68-.02-31.02.03-.36,0-.54.18-.55.55-.1,10-.11,19.97-.02,29.9.05,6.42-.37,11.01-1.28,13.77-2.81,8.56-9.48,13.45-20.03,14.68.45-.2.27-.28-.54-.24.35-.79.52-1.54.52-2.24-.02-51.75-.02-103.5-.01-155.25,0-.59-.17-1.42-.52-2.51Z"/>
  <path class="uuid-da1f00ea-c333-4533-8369-235129163630" d="m194.91,298.68c-6.98,17.08-11.4,35.24-13.26,54.47l-.21-54.36,13.47-.11Z"/>
  <path class="uuid-da1f00ea-c333-4533-8369-235129163630" d="m181.67,383.27c2.27,22.56,8,43.92,17.2,64.07.17.37.05.56-.36.57l-17.04.08.2-64.72Z"/>
</svg>