<?xml version="1.0" encoding="UTF-8" standalone="no"?>
<!DOCTYPE svg PUBLIC "-//W3C//DTD SVG 1.1//EN" "http://www.w3.org/Graphics/SVG/1.1/DTD/svg11.dtd">
<svg xmlns="http://www.w3.org/2000/svg" version="1.1" viewBox="0.00 0.00 512.00 512.00">
<g stroke-width="2.00" fill="none" stroke-linecap="butt">
<path stroke="#537478" vector-effect="non-scaling-stroke" d="
  M 437.81 145.48
  C 445.91 147.12 451.82 143.37 454.25 135.77
  Q 459.07 120.72 473.98 115.71
  Q 478.07 114.34 479.67 113.02
  C 484.06 109.43 486.15 102.96 483.58 97.38
  C 479.63 88.84 477.39 82.47 480.28 72.92
  C 481.02 70.50 482.53 67.95 483.58 65.37
  C 486.72 57.73 482.66 50.09 475.24 47.43
  Q 469.37 45.31 469.32 45.29
  Q 461.36 41.25 456.91 33.40
  C 454.66 29.44 454.37 24.86 451.33 21.49
  Q 446.25 15.84 438.10 17.32"
/>
<path stroke="#6a797b" vector-effect="non-scaling-stroke" d="
  M 438.10 17.32
  Q 435.52 18.32 433.12 19.50
  C 424.30 23.84 414.96 23.66 406.34 19.15
  C 399.72 15.69 393.15 16.35 388.33 22.36
  C 386.98 24.03 386.34 26.18 385.63 28.25
  C 383.09 35.58 378.87 41.05 372.01 44.82
  C 368.23 46.89 363.73 47.31 360.52 50.07
  Q 354.87 54.95 355.97 62.38
  Q 356.26 64.35 358.38 68.62
  Q 364.81 81.54 358.23 94.51
  Q 352.34 106.12 361.18 113.31
  Q 362.78 114.61 366.10 115.63
  Q 377.77 119.17 383.63 129.74
  C 385.33 132.79 386.15 137.92 388.55 140.93
  Q 393.13 146.67 400.74 145.82
  C 403.38 145.52 405.75 144.07 408.23 142.95
  C 415.88 139.49 425.01 139.17 432.28 142.89
  Q 436.03 144.81 437.81 145.48"
/>
<path stroke="#bdedf3" vector-effect="non-scaling-stroke" d="
  M 438.10 17.32
  C 442.23 24.26 442.57 32.76 451.31 37.84
  C 455.79 40.46 460.85 40.62 464.78 44.29
  Q 477.14 55.85 468.47 72.77
  Q 465.33 78.91 466.97 85.92
  Q 467.40 87.75 469.85 92.68
  C 474.96 102.95 471.50 114.43 462.38 120.36
  Q 460.79 121.39 456.43 122.81
  Q 444.61 126.64 441.22 138.90
  C 440.49 141.54 439.30 143.41 437.81 145.48"
/>
<path stroke="#6a797b" vector-effect="non-scaling-stroke" d="
  M 400.65 96.31
  Q 390.83 89.52 381.52 87.53
  C 374.06 85.94 369.02 95.62 375.06 100.59
  Q 376.34 101.64 380.23 102.73
  C 387.80 104.84 395.76 109.91 398.59 117.25
  Q 400.11 121.18 401.33 122.28
  C 404.09 124.76 407.00 124.59 410.46 123.08
  Q 422.47 117.87 434.44 112.59
  Q 449.02 106.17 454.50 92.38
  Q 456.36 87.69 457.83 76.36
  Q 458.88 68.23 459.94 60.08
  C 460.57 55.23 459.37 50.84 454.23 49.97
  Q 451.70 49.54 447.48 51.27
  Q 435.88 56.03 424.24 60.73
  C 409.20 66.80 402.50 80.27 401.34 95.98
  Q 401.29 96.75 400.65 96.31"
/>
<path stroke="#376b51" vector-effect="non-scaling-stroke" d="
  M 415.85 104.34
  C 421.02 102.28 430.00 99.09 434.69 95.20
  C 442.21 88.97 442.48 78.88 443.49 69.73
  Q 443.54 69.21 443.05 69.39
  Q 432.39 73.44 428.87 75.11
  C 417.21 80.65 416.70 91.72 415.38 103.99
  Q 415.32 104.55 415.85 104.34"
/>
<path stroke="#757d7d" vector-effect="non-scaling-stroke" d="
  M 51.28 331.73
  C 50.60 337.99 46.71 339.23 40.84 339.22
  Q 32.41 339.21 23.96 339.23
  C 18.07 339.24 15.00 340.74 15.00 347.00
  Q 15.01 371.00 14.99 395.01
  Q 14.98 408.62 16.27 414.91
  Q 19.91 432.74 32.87 445.46
  C 40.77 453.21 52.17 458.93 62.74 464.05
  Q 118.92 491.29 180.76 494.62
  Q 187.77 495.00 200.75 495.02
  Q 256.87 495.13 312.99 494.99
  C 354.77 494.89 394.42 487.53 433.03 471.43"
/>
<path stroke="#6a797b" vector-effect="non-scaling-stroke" d="
  M 433.03 471.43
  Q 448.44 465.05 462.91 456.92
  Q 473.53 450.94 479.17 445.41
  Q 491.77 433.04 495.57 415.65
  Q 497.00 409.14 497.00 395.76
  Q 497.00 371.25 497.00 346.75
  C 497.00 338.07 489.78 339.14 483.69 339.25"
/>
<path stroke="#757d7d" vector-effect="non-scaling-stroke" d="
  M 483.69 339.25
  L 467.35 339.25"
/>
<path stroke="#7f242b" vector-effect="non-scaling-stroke" d="
  M 467.35 339.25
  L 447.33 339.24"
/>
<path stroke="#7f3238" vector-effect="non-scaling-stroke" d="
  M 447.33 339.24
  L 321.89 339.24
  Q 321.58 339.24 321.50 339.54
  Q 314.07 370.00 329.27 395.30
  C 345.70 422.64 378.93 436.49 410.11 427.28"
/>
<path stroke="#7f242b" vector-effect="non-scaling-stroke" d="
  M 410.11 427.28
  C 437.89 419.55 457.40 396.24 461.45 367.94
  C 462.23 362.48 463.93 359.08 469.79 359.16"
/>
<path stroke="#757d7d" vector-effect="non-scaling-stroke" d="
  M 469.79 359.16
  C 476.06 360.28 477.06 364.64 476.22 370.46
  C 469.79 414.95 430.41 448.09 385.00 444.81
  Q 348.04 442.13 323.05 412.82
  Q 322.75 412.46 322.40 412.78
  Q 300.41 433.59 269.76 433.59
  Q 249.77 433.59 229.70 433.77
  Q 229.17 433.77 229.27 434.29
  Q 231.14 443.46 227.20 450.95
  C 221.92 460.98 208.38 464.89 198.54 458.92
  Q 187.96 452.51 173.44 442.95
  C 163.48 436.39 154.18 429.10 147.29 420.95
  Q 109.56 376.27 71.82 331.70"
/>
<path stroke="#376b51" vector-effect="non-scaling-stroke" d="
  M 76.53 184.64
  C 73.07 185.28 69.93 183.82 68.08 180.88
  Q 63.60 173.74 58.95 166.68
  C 57.19 164.00 54.79 162.53 51.74 163.66
  C 48.52 164.85 46.80 169.47 45.38 172.61
  Q 45.17 173.08 45.45 173.52
  L 75.09 219.45
  A 0.59 0.59 0.0 0 0 75.91 219.63
  L 83.51 214.72
  A 1.33 1.29 -10.4 0 0 84.08 213.92
  Q 86.88 201.93 89.60 189.88
  C 90.57 185.61 89.45 181.70 84.68 181.33
  C 81.26 181.07 79.19 184.16 76.53 184.64"
/>
<path stroke="#376b51" vector-effect="non-scaling-stroke" d="
  M 31.18 212.72
  C 29.63 216.16 27.22 216.37 25.09 218.60
  C 22.81 220.98 22.81 224.52 25.14 226.78
  Q 26.37 227.97 29.18 228.55
  Q 41.45 231.10 53.78 233.51
  A 1.34 1.29 -55.3 0 0 54.72 233.32
  L 62.24 228.46
  Q 62.82 228.09 62.45 227.52
  L 32.85 181.66
  Q 32.58 181.23 32.08 181.23
  C 28.59 181.23 23.75 180.86 21.28 183.28
  C 18.57 185.94 19.63 189.11 21.59 192.10
  Q 25.92 198.67 30.10 205.32
  C 31.62 207.74 32.30 210.23 31.18 212.72"
/>
<path stroke="#376b51" vector-effect="non-scaling-stroke" d="
  M 321.05 246.74
  Q 315.31 242.84 309.74 238.68
  C 302.90 233.59 298.23 235.00 295.82 243.36
  Q 286.25 276.51 276.70 309.68
  C 275.42 314.12 273.11 317.75 268.19 317.08
  Q 265.77 316.75 261.26 313.49
  Q 256.25 309.86 251.13 306.34
  C 245.36 302.36 241.04 304.88 239.14 311.24
  Q 237.31 317.39 235.82 323.69
  Q 235.70 324.23 236.25 324.23
  L 310.51 324.21
  A 0.85 0.83 11.8 0 0 311.28 323.72
  Q 320.70 302.57 339.33 288.86
  Q 339.73 288.57 339.80 288.09
  C 340.74 281.63 344.57 279.44 350.92 278.18
  Q 359.10 276.55 367.41 274.92
  Q 367.94 274.82 367.95 274.27
  Q 368.01 266.47 367.99 258.65
  Q 367.96 250.44 369.31 247.01
  Q 372.41 239.16 381.70 236.68
  A 0.66 0.66 0.0 0 0 382.19 236.04
  Q 382.30 217.34 382.21 198.63
  Q 382.20 196.02 381.19 194.81
  C 379.53 192.82 376.40 192.82 374.67 194.93
  Q 353.50 220.63 332.36 246.35
  C 329.10 250.31 325.04 249.45 321.05 246.74"
/>
<path stroke="#7f242b" vector-effect="non-scaling-stroke" d="
  M 163.16 324.18
  L 174.22 324.15
  Q 174.83 324.15 174.57 323.59
  Q 155.13 282.52 135.53 241.61
  Q 135.49 241.51 133.49 236.90
  Q 127.34 222.72 111.26 220.89"
/>
<path stroke="#7f3238" vector-effect="non-scaling-stroke" d="
  M 111.26 220.89
  Q 103.10 219.97 97.42 223.64
  Q 80.54 234.52 63.66 245.39
  Q 55.61 250.57 52.66 254.18
  Q 43.30 265.64 49.71 281.48
  Q 51.05 284.78 57.23 290.90
  Q 57.56 291.23 57.95 290.98
  Q 70.57 282.81 83.22 274.68
  C 89.12 270.89 96.78 278.50 93.29 284.77
  Q 92.16 286.79 88.53 289.10
  Q 78.07 295.75 67.67 302.59
  Q 67.14 302.94 67.55 303.42
  L 84.76 323.76
  Q 85.13 324.19 85.70 324.19
  L 163.16 324.18"
/>
<path stroke="#fe5662" vector-effect="non-scaling-stroke" d="
  M 111.26 220.89
  Q 116.75 226.50 119.65 232.59
  Q 141.33 278.03 163.16 324.18"
/>
<path stroke="#806832" vector-effect="non-scaling-stroke" d="
  M 208.03 324.18
  L 219.54 324.22
  A 0.68 0.67 -82.0 0 0 220.19 323.72
  Q 222.77 314.35 225.26 304.99
  Q 226.18 301.56 229.33 297.38"
/>
<path stroke="#7b7441" vector-effect="non-scaling-stroke" d="
  M 229.33 297.38
  Q 239.27 286.33 254.32 290.82"
/>
<path stroke="#806832" vector-effect="non-scaling-stroke" d="
  M 254.32 290.82
  L 264.06 297.05
  Q 264.62 297.41 264.81 296.77
  L 278.15 250.47
  Q 278.29 250.00 277.91 249.69
  Q 267.33 240.77 253.18 236.59"
/>
<path stroke="#7b7441" vector-effect="non-scaling-stroke" d="
  M 253.18 236.59
  Q 248.10 234.55 241.32 233.68
  Q 240.83 233.62 240.70 234.09
  Q 237.87 244.53 237.51 255.32
  Q 237.39 258.94 236.40 260.63
  C 233.94 264.86 228.20 265.49 224.84 262.02
  Q 222.16 259.26 222.55 254.22
  Q 223.60 240.91 225.20 233.41
  Q 225.32 232.82 224.73 232.88
  Q 186.57 236.63 165.30 268.05
  Q 165.00 268.50 165.23 269.00
  L 191.20 323.58
  Q 191.48 324.16 192.12 324.16
  L 208.03 324.18"
/>
<path stroke="#fbdc73" vector-effect="non-scaling-stroke" d="
  M 253.18 236.59
  L 266.47 246.90
  Q 266.93 247.25 266.77 247.81
  L 254.32 290.82"
/>
<path stroke="#fbdc73" vector-effect="non-scaling-stroke" d="
  M 229.33 297.38
  Q 221.14 296.04 216.28 301.03
  Q 213.63 303.75 211.57 310.71
  Q 209.60 317.37 208.03 324.18"
/>
<path stroke="#537478" vector-effect="non-scaling-stroke" d="
  M 410.30 288.46
  C 403.66 286.85 398.15 286.74 398.10 278.03
  Q 398.02 265.67 398.07 253.58
  A 2.22 2.22 0.0 0 0 395.86 251.35
  L 385.26 251.34
  A 2.26 2.26 0.0 0 0 382.99 253.60
  Q 383.00 266.49 382.98 278.65
  C 382.96 287.19 379.95 287.14 373.00 289.26
  Q 372.36 289.46 373.00 289.65
  C 376.80 290.77 380.07 290.76 382.02 294.87
  Q 386.07 303.41 390.30 312.01
  Q 390.54 312.51 390.79 312.01
  Q 396.42 300.48 397.95 296.75
  C 400.56 290.38 404.61 290.77 410.32 288.94
  Q 411.15 288.67 410.30 288.46"
/>
<path stroke="#7f3238" vector-effect="non-scaling-stroke" d="
  M 379.07 323.73
  L 370.38 304.96
  Q 370.13 304.41 369.55 304.26
  L 351.20 299.34
  A 1.17 1.16 35.1 0 0 350.24 299.50
  Q 336.40 308.98 328.11 323.58
  Q 327.75 324.22 328.49 324.22
  L 378.75 324.22
  Q 379.30 324.22 379.07 323.73"
/>
<path stroke="#7f3238" vector-effect="non-scaling-stroke" d="
  M 424.50 300.65
  L 411.41 304.25
  Q 410.96 304.37 410.77 304.79
  L 402.09 323.56
  Q 401.80 324.19 402.49 324.19
  L 441.67 324.17"
/>
<path stroke="#7f242b" vector-effect="non-scaling-stroke" d="
  M 441.67 324.17
  L 452.58 324.15
  Q 453.20 324.15 452.89 323.61
  Q 444.56 308.94 430.65 299.38
  Q 430.20 299.07 429.67 299.22
  L 424.50 300.65"
/>
<path stroke="#fe5662" vector-effect="non-scaling-stroke" d="
  M 441.67 324.17
  Q 435.32 311.12 424.50 300.65"
/>
<path stroke="#7f242b" vector-effect="non-scaling-stroke" d="
  M 202.61 443.67
  Q 203.81 444.87 206.25 445.99
  C 209.63 447.55 213.33 446.32 214.53 442.81
  Q 215.12 441.11 214.62 437.67
  C 212.02 419.78 210.50 400.10 203.26 383.98
  Q 199.13 374.81 182.20 339.70
  A 0.80 0.80 0.0 0 0 181.48 339.25
  L 170.45 339.28"
/>
<path stroke="#7f3238" vector-effect="non-scaling-stroke" d="
  M 170.45 339.28
  L 98.55 339.29
  Q 97.93 339.29 98.33 339.76
  Q 127.51 374.40 156.84 408.92
  C 169.58 423.92 186.85 434.01 202.61 443.67"
/>
<path stroke="#fe5662" vector-effect="non-scaling-stroke" d="
  M 170.45 339.28
  Q 179.31 358.03 188.10 376.59
  Q 194.91 390.98 197.48 405.25
  Q 200.40 421.43 202.61 443.67"
/>
<path stroke="#806832" vector-effect="non-scaling-stroke" d="
  M 201.74 345.57
  L 209.44 361.78
  Q 209.75 362.46 209.95 361.74
  L 215.86 339.84
  Q 216.02 339.25 215.41 339.25
  L 203.69 339.27"
/>
<path stroke="#7b7441" vector-effect="non-scaling-stroke" d="
  M 203.69 339.27
  L 199.30 339.25
  Q 198.70 339.24 198.96 339.79
  L 201.74 345.57"
/>
<path stroke="#fbdc73" vector-effect="non-scaling-stroke" d="
  M 203.69 339.27
  L 201.74 345.57"
/>
<path stroke="#376b51" vector-effect="non-scaling-stroke" d="
  M 314.23 399.27
  C 304.53 380.60 301.68 360.54 306.02 339.87
  Q 306.16 339.23 305.51 339.23
  L 232.05 339.22
  A 0.64 0.63 -82.1 0 0 231.44 339.69
  L 219.49 383.98
  A 1.15 1.15 0.0 0 0 219.52 384.69
  Q 223.82 396.53 225.60 409.00
  Q 225.71 409.76 226.24 409.21
  Q 246.60 387.89 266.88 366.49
  Q 269.84 363.36 272.08 362.74
  C 276.99 361.36 282.33 366.40 281.21 371.40
  Q 280.68 373.74 277.69 376.88
  Q 258.09 397.44 238.53 418.12
  Q 238.07 418.60 238.74 418.61
  Q 254.34 418.85 269.98 418.66
  Q 278.78 418.54 284.44 417.08
  Q 301.38 412.72 314.10 400.07
  Q 314.46 399.72 314.23 399.27"
/>
<path stroke="#f4a0a8" vector-effect="non-scaling-stroke" d="
  M 469.79 359.16
  Q 469.64 349.18 467.35 339.25"
/>
<path stroke="#dff6f8" vector-effect="non-scaling-stroke" d="
  M 483.69 339.25
  C 483.76 341.70 484.51 343.98 484.51 346.28
  Q 484.53 372.22 484.52 398.17
  Q 484.52 409.76 483.17 416.24
  Q 477.96 441.35 457.42 456.85
  C 451.13 461.60 441.75 466.65 434.54 469.71
  Q 433.21 470.27 433.03 471.43"
/>
<path stroke="#757d7d" vector-effect="non-scaling-stroke" d="
  M 41.53 400.25
  C 47.30 415.39 61.12 426.12 77.50 426.93
  Q 82.26 427.16 100.51 427.62
  C 110.21 427.87 117.35 418.32 114.02 409.63
  Q 112.74 406.29 106.67 400.41
  Q 93.44 387.59 80.17 374.82
  C 74.46 369.32 68.67 365.45 61.25 366.04
  Q 51.52 366.80 41.79 367.59
  C 33.54 368.25 30.97 372.45 33.97 380.36
  Q 37.75 390.31 41.53 400.25"
/>
<path stroke="#fe5662" vector-effect="non-scaling-stroke" d="
  M 447.33 339.24
  C 455.22 375.26 440.95 408.04 410.11 427.28"
/>
<path stroke="#3d373d" vector-effect="non-scaling-stroke" d="
  M 56.41 396.82
  Q 63.78 411.54 79.98 412.05
  C 85.62 412.23 91.28 412.56 96.94 412.59
  Q 97.60 412.60 97.13 412.13
  Q 82.46 397.80 67.69 383.56
  C 63.78 379.78 57.53 381.25 51.25 381.94
  Q 50.77 381.99 50.93 382.45
  Q 54.63 393.25 56.41 396.82"
/>
</g>
<path fill="#000000" d="
  M 418.41 7.45
  C 424.64 8.28 427.60 4.87 432.58 3.30
  C 447.48 -1.38 463.09 6.60 468.22 21.15
  C 470.19 26.72 472.06 30.94 477.26 32.47
  Q 485.65 34.93 491.11 40.12
  C 500.03 48.60 502.06 61.87 496.65 73.04
  C 493.76 79.00 492.72 82.55 495.88 88.26
  C 504.62 104.00 497.68 123.16 480.54 129.36
  C 477.20 130.56 473.77 131.46 471.37 134.60
  C 469.03 137.68 468.09 142.60 466.69 145.44
  C 459.55 159.85 441.61 164.77 427.64 157.44
  C 416.87 151.78 414.14 158.86 404.78 160.32
  Q 385.09 163.38 374.23 146.51
  C 372.19 143.34 371.64 137.85 368.95 134.62
  C 366.94 132.19 364.98 131.04 361.68 130.08
  C 344.62 125.11 336.21 106.97 343.38 90.77
  Q 345.97 84.91 346.20 83.27
  C 347.08 77.01 343.59 74.03 342.04 68.96
  C 338.09 56.00 343.54 41.93 355.48 35.38
  C 360.21 32.79 365.78 32.63 369.29 27.91
  C 370.97 25.64 371.70 22.65 372.72 19.92
  C 378.63 4.09 397.33 -2.17 412.03 5.01
  Q 416.51 7.20 418.41 7.45
  Z
  M 437.81 145.48
  C 445.91 147.12 451.82 143.37 454.25 135.77
  Q 459.07 120.72 473.98 115.71
  Q 478.07 114.34 479.67 113.02
  C 484.06 109.43 486.15 102.96 483.58 97.38
  C 479.63 88.84 477.39 82.47 480.28 72.92
  C 481.02 70.50 482.53 67.95 483.58 65.37
  C 486.72 57.73 482.66 50.09 475.24 47.43
  Q 469.37 45.31 469.32 45.29
  Q 461.36 41.25 456.91 33.40
  C 454.66 29.44 454.37 24.86 451.33 21.49
  Q 446.25 15.84 438.10 17.32
  Q 435.52 18.32 433.12 19.50
  C 424.30 23.84 414.96 23.66 406.34 19.15
  C 399.72 15.69 393.15 16.35 388.33 22.36
  C 386.98 24.03 386.34 26.18 385.63 28.25
  C 383.09 35.58 378.87 41.05 372.01 44.82
  C 368.23 46.89 363.73 47.31 360.52 50.07
  Q 354.87 54.95 355.97 62.38
  Q 356.26 64.35 358.38 68.62
  Q 364.81 81.54 358.23 94.51
  Q 352.34 106.12 361.18 113.31
  Q 362.78 114.61 366.10 115.63
  Q 377.77 119.17 383.63 129.74
  C 385.33 132.79 386.15 137.92 388.55 140.93
  Q 393.13 146.67 400.74 145.82
  C 403.38 145.52 405.75 144.07 408.23 142.95
  C 415.88 139.49 425.01 139.17 432.28 142.89
  Q 436.03 144.81 437.81 145.48
  Z"
/>
<path fill="#d4f2f6" d="
  M 438.10 17.32
  C 442.23 24.26 442.57 32.76 451.31 37.84
  C 455.79 40.46 460.85 40.62 464.78 44.29
  Q 477.14 55.85 468.47 72.77
  Q 465.33 78.91 466.97 85.92
  Q 467.40 87.75 469.85 92.68
  C 474.96 102.95 471.50 114.43 462.38 120.36
  Q 460.79 121.39 456.43 122.81
  Q 444.61 126.64 441.22 138.90
  C 440.49 141.54 439.30 143.41 437.81 145.48
  Q 436.03 144.81 432.28 142.89
  C 425.01 139.17 415.88 139.49 408.23 142.95
  C 405.75 144.07 403.38 145.52 400.74 145.82
  Q 393.13 146.67 388.55 140.93
  C 386.15 137.92 385.33 132.79 383.63 129.74
  Q 377.77 119.17 366.10 115.63
  Q 362.78 114.61 361.18 113.31
  Q 352.34 106.12 358.23 94.51
  Q 364.81 81.54 358.38 68.62
  Q 356.26 64.35 355.97 62.38
  Q 354.87 54.95 360.52 50.07
  C 363.73 47.31 368.23 46.89 372.01 44.82
  C 378.87 41.05 383.09 35.58 385.63 28.25
  C 386.34 26.18 386.98 24.03 388.33 22.36
  C 393.15 16.35 399.72 15.69 406.34 19.15
  C 414.96 23.66 424.30 23.84 433.12 19.50
  Q 435.52 18.32 438.10 17.32
  Z
  M 400.65 96.31
  Q 390.83 89.52 381.52 87.53
  C 374.06 85.94 369.02 95.62 375.06 100.59
  Q 376.34 101.64 380.23 102.73
  C 387.80 104.84 395.76 109.91 398.59 117.25
  Q 400.11 121.18 401.33 122.28
  C 404.09 124.76 407.00 124.59 410.46 123.08
  Q 422.47 117.87 434.44 112.59
  Q 449.02 106.17 454.50 92.38
  Q 456.36 87.69 457.83 76.36
  Q 458.88 68.23 459.94 60.08
  C 460.57 55.23 459.37 50.84 454.23 49.97
  Q 451.70 49.54 447.48 51.27
  Q 435.88 56.03 424.24 60.73
  C 409.20 66.80 402.50 80.27 401.34 95.98
  Q 401.29 96.75 400.65 96.31
  Z"
/>
<path fill="#a6e7f0" d="
  M 437.81 145.48
  C 439.30 143.41 440.49 141.54 441.22 138.90
  Q 444.61 126.64 456.43 122.81
  Q 460.79 121.39 462.38 120.36
  C 471.50 114.43 474.96 102.95 469.85 92.68
  Q 467.40 87.75 466.97 85.92
  Q 465.33 78.91 468.47 72.77
  Q 477.14 55.85 464.78 44.29
  C 460.85 40.62 455.79 40.46 451.31 37.84
  C 442.57 32.76 442.23 24.26 438.10 17.32
  Q 446.25 15.84 451.33 21.49
  C 454.37 24.86 454.66 29.44 456.91 33.40
  Q 461.36 41.25 469.32 45.29
  Q 469.37 45.31 475.24 47.43
  C 482.66 50.09 486.72 57.73 483.58 65.37
  C 482.53 67.95 481.02 70.50 480.28 72.92
  C 477.39 82.47 479.63 88.84 483.58 97.38
  C 486.15 102.96 484.06 109.43 479.67 113.02
  Q 478.07 114.34 473.98 115.71
  Q 459.07 120.72 454.25 135.77
  C 451.82 143.37 445.91 147.12 437.81 145.48
  Z"
/>
<path fill="#000000" d="
  M 401.34 95.98
  C 402.50 80.27 409.20 66.80 424.24 60.73
  Q 435.88 56.03 447.48 51.27
  Q 451.70 49.54 454.23 49.97
  C 459.37 50.84 460.57 55.23 459.94 60.08
  Q 458.88 68.23 457.83 76.36
  Q 456.36 87.69 454.50 92.38
  Q 449.02 106.17 434.44 112.59
  Q 422.47 117.87 410.46 123.08
  C 407.00 124.59 404.09 124.76 401.33 122.28
  Q 400.11 121.18 398.59 117.25
  C 395.76 109.91 387.80 104.84 380.23 102.73
  Q 376.34 101.64 375.06 100.59
  C 369.02 95.62 374.06 85.94 381.52 87.53
  Q 390.83 89.52 400.65 96.31
  Q 401.29 96.75 401.34 95.98
  Z
  M 415.85 104.34
  C 421.02 102.28 430.00 99.09 434.69 95.20
  C 442.21 88.97 442.48 78.88 443.49 69.73
  Q 443.54 69.21 443.05 69.39
  Q 432.39 73.44 428.87 75.11
  C 417.21 80.65 416.70 91.72 415.38 103.99
  Q 415.32 104.55 415.85 104.34
  Z"
/>
<path fill="#6ed5a1" d="
  M 434.69 95.20
  C 430.00 99.09 421.02 102.28 415.85 104.34
  Q 415.32 104.55 415.38 103.99
  C 416.70 91.72 417.21 80.65 428.87 75.11
  Q 432.39 73.44 443.05 69.39
  Q 443.54 69.21 443.49 69.73
  C 442.48 78.88 442.21 88.97 434.69 95.20
  Z"
/>
<path fill="#000000" d="
  M 512.00 343.59
  L 512.00 406.81
  Q 509.18 440.64 484.29 460.86
  Q 478.25 465.77 467.45 471.58
  C 419.73 497.26 368.11 509.93 313.75 510.00
  Q 254.75 510.08 195.75 510.06
  Q 116.70 510.04 45.82 472.25
  Q 34.80 466.37 28.85 461.74
  Q 2.96 441.59 0.00 406.88
  L 0.00 343.42
  Q 2.56 329.65 14.47 325.49
  Q 18.18 324.19 25.17 324.22
  Q 34.10 324.25 43.00 324.19
  Q 50.39 324.14 51.28 331.73
  C 50.60 337.99 46.71 339.23 40.84 339.22
  Q 32.41 339.21 23.96 339.23
  C 18.07 339.24 15.00 340.74 15.00 347.00
  Q 15.01 371.00 14.99 395.01
  Q 14.98 408.62 16.27 414.91
  Q 19.91 432.74 32.87 445.46
  C 40.77 453.21 52.17 458.93 62.74 464.05
  Q 118.92 491.29 180.76 494.62
  Q 187.77 495.00 200.75 495.02
  Q 256.87 495.13 312.99 494.99
  C 354.77 494.89 394.42 487.53 433.03 471.43
  Q 448.44 465.05 462.91 456.92
  Q 473.53 450.94 479.17 445.41
  Q 491.77 433.04 495.57 415.65
  Q 497.00 409.14 497.00 395.76
  Q 497.00 371.25 497.00 346.75
  C 497.00 338.07 489.78 339.14 483.69 339.25
  L 467.35 339.25
  L 447.33 339.24
  L 321.89 339.24
  Q 321.58 339.24 321.50 339.54
  Q 314.07 370.00 329.27 395.30
  C 345.70 422.64 378.93 436.49 410.11 427.28
  C 437.89 419.55 457.40 396.24 461.45 367.94
  C 462.23 362.48 463.93 359.08 469.79 359.16
  C 476.06 360.28 477.06 364.64 476.22 370.46
  C 469.79 414.95 430.41 448.09 385.00 444.81
  Q 348.04 442.13 323.05 412.82
  Q 322.75 412.46 322.40 412.78
  Q 300.41 433.59 269.76 433.59
  Q 249.77 433.59 229.70 433.77
  Q 229.17 433.77 229.27 434.29
  Q 231.14 443.46 227.20 450.95
  C 221.92 460.98 208.38 464.89 198.54 458.92
  Q 187.96 452.51 173.44 442.95
  C 163.48 436.39 154.18 429.10 147.29 420.95
  Q 109.56 376.27 71.82 331.70
  Q 57.94 315.28 44.09 298.89
  Q 38.46 292.23 36.22 287.53
  Q 26.43 267.05 39.43 246.53
  Q 39.74 246.04 39.17 245.92
  C 32.77 244.54 24.63 243.64 19.49 241.01
  C 7.62 234.96 4.65 218.93 13.79 208.72
  Q 14.13 208.33 13.86 207.89
  C 8.21 198.68 1.11 190.58 6.33 179.09
  C 11.21 168.35 20.18 166.03 31.20 166.33
  A 0.85 0.83 12.9 0 0 31.98 165.85
  C 33.76 162.13 35.65 157.99 38.24 155.12
  C 45.62 146.94 58.91 145.87 67.29 153.34
  C 70.81 156.48 74.03 162.29 76.98 166.83
  Q 77.27 167.28 77.79 167.16
  Q 90.73 164.02 98.96 172.39
  C 109.00 182.60 103.94 194.04 101.41 205.74
  Q 101.31 206.25 101.82 206.18
  Q 126.48 203.09 140.57 220.29
  Q 144.21 224.73 149.46 235.85
  Q 153.42 244.23 157.40 252.53
  A 0.30 0.30 0.0 0 0 157.90 252.59
  Q 185.94 218.91 230.37 217.64
  Q 230.91 217.62 231.14 217.14
  Q 238.39 201.91 252.25 192.54
  Q 255.72 190.19 258.20 189.99
  C 263.69 189.54 267.66 196.08 265.17 200.89
  Q 264.30 202.58 261.53 204.32
  Q 252.71 209.87 247.31 218.88
  Q 247.01 219.38 247.57 219.49
  Q 266.50 223.19 282.32 234.17
  Q 282.80 234.50 283.06 233.98
  C 288.49 223.32 298.71 218.28 310.03 221.82
  C 315.12 223.41 320.14 227.70 324.80 231.06
  Q 325.23 231.37 325.57 230.96
  Q 342.65 210.27 359.62 189.56
  Q 365.07 182.91 368.67 180.82
  C 382.16 172.97 397.45 183.71 397.27 198.74
  Q 397.14 208.82 397.28 235.80
  Q 397.28 236.29 397.76 236.38
  Q 408.73 238.47 411.95 247.54
  C 414.19 253.85 413.01 265.25 413.13 273.18
  Q 413.14 273.71 413.66 273.84
  Q 422.30 275.87 430.79 278.03
  C 436.75 279.54 440.23 281.85 441.05 287.92
  Q 441.11 288.42 441.52 288.73
  Q 460.20 302.53 469.70 323.74
  Q 469.90 324.19 470.39 324.20
  Q 478.75 324.27 487.03 324.23
  Q 493.73 324.19 497.34 325.43
  Q 509.52 329.59 512.00 343.59
  Z
  M 76.53 184.64
  C 73.07 185.28 69.93 183.82 68.08 180.88
  Q 63.60 173.74 58.95 166.68
  C 57.19 164.00 54.79 162.53 51.74 163.66
  C 48.52 164.85 46.80 169.47 45.38 172.61
  Q 45.17 173.08 45.45 173.52
  L 75.09 219.45
  A 0.59 0.59 0.0 0 0 75.91 219.63
  L 83.51 214.72
  A 1.33 1.29 -10.4 0 0 84.08 213.92
  Q 86.88 201.93 89.60 189.88
  C 90.57 185.61 89.45 181.70 84.68 181.33
  C 81.26 181.07 79.19 184.16 76.53 184.64
  Z
  M 31.18 212.72
  C 29.63 216.16 27.22 216.37 25.09 218.60
  C 22.81 220.98 22.81 224.52 25.14 226.78
  Q 26.37 227.97 29.18 228.55
  Q 41.45 231.10 53.78 233.51
  A 1.34 1.29 -55.3 0 0 54.72 233.32
  L 62.24 228.46
  Q 62.82 228.09 62.45 227.52
  L 32.85 181.66
  Q 32.58 181.23 32.08 181.23
  C 28.59 181.23 23.75 180.86 21.28 183.28
  C 18.57 185.94 19.63 189.11 21.59 192.10
  Q 25.92 198.67 30.10 205.32
  C 31.62 207.74 32.30 210.23 31.18 212.72
  Z
  M 321.05 246.74
  Q 315.31 242.84 309.74 238.68
  C 302.90 233.59 298.23 235.00 295.82 243.36
  Q 286.25 276.51 276.70 309.68
  C 275.42 314.12 273.11 317.75 268.19 317.08
  Q 265.77 316.75 261.26 313.49
  Q 256.25 309.86 251.13 306.34
  C 245.36 302.36 241.04 304.88 239.14 311.24
  Q 237.31 317.39 235.82 323.69
  Q 235.70 324.23 236.25 324.23
  L 310.51 324.21
  A 0.85 0.83 11.8 0 0 311.28 323.72
  Q 320.70 302.57 339.33 288.86
  Q 339.73 288.57 339.80 288.09
  C 340.74 281.63 344.57 279.44 350.92 278.18
  Q 359.10 276.55 367.41 274.92
  Q 367.94 274.82 367.95 274.27
  Q 368.01 266.47 367.99 258.65
  Q 367.96 250.44 369.31 247.01
  Q 372.41 239.16 381.70 236.68
  A 0.66 0.66 0.0 0 0 382.19 236.04
  Q 382.30 217.34 382.21 198.63
  Q 382.20 196.02 381.19 194.81
  C 379.53 192.82 376.40 192.82 374.67 194.93
  Q 353.50 220.63 332.36 246.35
  C 329.10 250.31 325.04 249.45 321.05 246.74
  Z
  M 163.16 324.18
  L 174.22 324.15
  Q 174.83 324.15 174.57 323.59
  Q 155.13 282.52 135.53 241.61
  Q 135.49 241.51 133.49 236.90
  Q 127.34 222.72 111.26 220.89
  Q 103.10 219.97 97.42 223.64
  Q 80.54 234.52 63.66 245.39
  Q 55.61 250.57 52.66 254.18
  Q 43.30 265.64 49.71 281.48
  Q 51.05 284.78 57.23 290.90
  Q 57.56 291.23 57.95 290.98
  Q 70.57 282.81 83.22 274.68
  C 89.12 270.89 96.78 278.50 93.29 284.77
  Q 92.16 286.79 88.53 289.10
  Q 78.07 295.75 67.67 302.59
  Q 67.14 302.94 67.55 303.42
  L 84.76 323.76
  Q 85.13 324.19 85.70 324.19
  L 163.16 324.18
  Z
  M 208.03 324.18
  L 219.54 324.22
  A 0.68 0.67 -82.0 0 0 220.19 323.72
  Q 222.77 314.35 225.26 304.99
  Q 226.18 301.56 229.33 297.38
  Q 239.27 286.33 254.32 290.82
  L 264.06 297.05
  Q 264.62 297.41 264.81 296.77
  L 278.15 250.47
  Q 278.29 250.00 277.91 249.69
  Q 267.33 240.77 253.18 236.59
  Q 248.10 234.55 241.32 233.68
  Q 240.83 233.62 240.70 234.09
  Q 237.87 244.53 237.51 255.32
  Q 237.39 258.94 236.40 260.63
  C 233.94 264.86 228.20 265.49 224.84 262.02
  Q 222.16 259.26 222.55 254.22
  Q 223.60 240.91 225.20 233.41
  Q 225.32 232.82 224.73 232.88
  Q 186.57 236.63 165.30 268.05
  Q 165.00 268.50 165.23 269.00
  L 191.20 323.58
  Q 191.48 324.16 192.12 324.16
  L 208.03 324.18
  Z
  M 410.30 288.46
  C 403.66 286.85 398.15 286.74 398.10 278.03
  Q 398.02 265.67 398.07 253.58
  A 2.22 2.22 0.0 0 0 395.86 251.35
  L 385.26 251.34
  A 2.26 2.26 0.0 0 0 382.99 253.60
  Q 383.00 266.49 382.98 278.65
  C 382.96 287.19 379.95 287.14 373.00 289.26
  Q 372.36 289.46 373.00 289.65
  C 376.80 290.77 380.07 290.76 382.02 294.87
  Q 386.07 303.41 390.30 312.01
  Q 390.54 312.51 390.79 312.01
  Q 396.42 300.48 397.95 296.75
  C 400.56 290.38 404.61 290.77 410.32 288.94
  Q 411.15 288.67 410.30 288.46
  Z
  M 379.07 323.73
  L 370.38 304.96
  Q 370.13 304.41 369.55 304.26
  L 351.20 299.34
  A 1.17 1.16 35.1 0 0 350.24 299.50
  Q 336.40 308.98 328.11 323.58
  Q 327.75 324.22 328.49 324.22
  L 378.75 324.22
  Q 379.30 324.22 379.07 323.73
  Z
  M 424.50 300.65
  L 411.41 304.25
  Q 410.96 304.37 410.77 304.79
  L 402.09 323.56
  Q 401.80 324.19 402.49 324.19
  L 441.67 324.17
  L 452.58 324.15
  Q 453.20 324.15 452.89 323.61
  Q 444.56 308.94 430.65 299.38
  Q 430.20 299.07 429.67 299.22
  L 424.50 300.65
  Z
  M 202.61 443.67
  Q 203.81 444.87 206.25 445.99
  C 209.63 447.55 213.33 446.32 214.53 442.81
  Q 215.12 441.11 214.62 437.67
  C 212.02 419.78 210.50 400.10 203.26 383.98
  Q 199.13 374.81 182.20 339.70
  A 0.80 0.80 0.0 0 0 181.48 339.25
  L 170.45 339.28
  L 98.55 339.29
  Q 97.93 339.29 98.33 339.76
  Q 127.51 374.40 156.84 408.92
  C 169.58 423.92 186.85 434.01 202.61 443.67
  Z
  M 201.74 345.57
  L 209.44 361.78
  Q 209.75 362.46 209.95 361.74
  L 215.86 339.84
  Q 216.02 339.25 215.41 339.25
  L 203.69 339.27
  L 199.30 339.25
  Q 198.70 339.24 198.96 339.79
  L 201.74 345.57
  Z
  M 314.23 399.27
  C 304.53 380.60 301.68 360.54 306.02 339.87
  Q 306.16 339.23 305.51 339.23
  L 232.05 339.22
  A 0.64 0.63 -82.1 0 0 231.44 339.69
  L 219.49 383.98
  A 1.15 1.15 0.0 0 0 219.52 384.69
  Q 223.82 396.53 225.60 409.00
  Q 225.71 409.76 226.24 409.21
  Q 246.60 387.89 266.88 366.49
  Q 269.84 363.36 272.08 362.74
  C 276.99 361.36 282.33 366.40 281.21 371.40
  Q 280.68 373.74 277.69 376.88
  Q 258.09 397.44 238.53 418.12
  Q 238.07 418.60 238.74 418.61
  Q 254.34 418.85 269.98 418.66
  Q 278.78 418.54 284.44 417.08
  Q 301.38 412.72 314.10 400.07
  Q 314.46 399.72 314.23 399.27
  Z"
/>
<path fill="#6ed5a1" d="
  M 68.08 180.88
  C 69.93 183.82 73.07 185.28 76.53 184.64
  C 79.19 184.16 81.26 181.07 84.68 181.33
  C 89.45 181.70 90.57 185.61 89.60 189.88
  Q 86.88 201.93 84.08 213.92
  A 1.33 1.29 -10.4 0 1 83.51 214.72
  L 75.91 219.63
  A 0.59 0.59 0.0 0 1 75.09 219.45
  L 45.45 173.52
  Q 45.17 173.08 45.38 172.61
  C 46.80 169.47 48.52 164.85 51.74 163.66
  C 54.79 162.53 57.19 164.00 58.95 166.68
  Q 63.60 173.74 68.08 180.88
  Z"
/>
<path fill="#6ed5a1" d="
  M 31.18 212.72
  C 32.30 210.23 31.62 207.74 30.10 205.32
  Q 25.92 198.67 21.59 192.10
  C 19.63 189.11 18.57 185.94 21.28 183.28
  C 23.75 180.86 28.59 181.23 32.08 181.23
  Q 32.58 181.23 32.85 181.66
  L 62.45 227.52
  Q 62.82 228.09 62.24 228.46
  L 54.72 233.32
  A 1.34 1.29 -55.3 0 1 53.78 233.51
  Q 41.45 231.10 29.18 228.55
  Q 26.37 227.97 25.14 226.78
  C 22.81 224.52 22.81 220.98 25.09 218.60
  C 27.22 216.37 29.63 216.16 31.18 212.72
  Z"
/>
<path fill="#6ed5a1" d="
  M 321.05 246.74
  C 325.04 249.45 329.10 250.31 332.36 246.35
  Q 353.50 220.63 374.67 194.93
  C 376.40 192.82 379.53 192.82 381.19 194.81
  Q 382.20 196.02 382.21 198.63
  Q 382.30 217.34 382.19 236.04
  A 0.66 0.66 0.0 0 1 381.70 236.68
  Q 372.41 239.16 369.31 247.01
  Q 367.96 250.44 367.99 258.65
  Q 368.01 266.47 367.95 274.27
  Q 367.94 274.82 367.41 274.92
  Q 359.10 276.55 350.92 278.18
  C 344.57 279.44 340.74 281.63 339.80 288.09
  Q 339.73 288.57 339.33 288.86
  Q 320.70 302.57 311.28 323.72
  A 0.85 0.83 11.8 0 1 310.51 324.21
  L 236.25 324.23
  Q 235.70 324.23 235.82 323.69
  Q 237.31 317.39 239.14 311.24
  C 241.04 304.88 245.36 302.36 251.13 306.34
  Q 256.25 309.86 261.26 313.49
  Q 265.77 316.75 268.19 317.08
  C 273.11 317.75 275.42 314.12 276.70 309.68
  Q 286.25 276.51 295.82 243.36
  C 298.23 235.00 302.90 233.59 309.74 238.68
  Q 315.31 242.84 321.05 246.74
  Z"
/>
<path fill="#fe646f" d="
  M 111.26 220.89
  Q 116.75 226.50 119.65 232.59
  Q 141.33 278.03 163.16 324.18
  L 85.70 324.19
  Q 85.13 324.19 84.76 323.76
  L 67.55 303.42
  Q 67.14 302.94 67.67 302.59
  Q 78.07 295.75 88.53 289.10
  Q 92.16 286.79 93.29 284.77
  C 96.78 278.50 89.12 270.89 83.22 274.68
  Q 70.57 282.81 57.95 290.98
  Q 57.56 291.23 57.23 290.90
  Q 51.05 284.78 49.71 281.48
  Q 43.30 265.64 52.66 254.18
  Q 55.61 250.57 63.66 245.39
  Q 80.54 234.52 97.42 223.64
  Q 103.10 219.97 111.26 220.89
  Z"
/>
<path fill="#fd4755" d="
  M 111.26 220.89
  Q 127.34 222.72 133.49 236.90
  Q 135.49 241.51 135.53 241.61
  Q 155.13 282.52 174.57 323.59
  Q 174.83 324.15 174.22 324.15
  L 163.16 324.18
  Q 141.33 278.03 119.65 232.59
  Q 116.75 226.50 111.26 220.89
  Z"
/>
<path fill="#f6e781" d="
  M 253.18 236.59
  L 266.47 246.90
  Q 266.93 247.25 266.77 247.81
  L 254.32 290.82
  Q 239.27 286.33 229.33 297.38
  Q 221.14 296.04 216.28 301.03
  Q 213.63 303.75 211.57 310.71
  Q 209.60 317.37 208.03 324.18
  L 192.12 324.16
  Q 191.48 324.16 191.20 323.58
  L 165.23 269.00
  Q 165.00 268.50 165.30 268.05
  Q 186.57 236.63 224.73 232.88
  Q 225.32 232.82 225.20 233.41
  Q 223.60 240.91 222.55 254.22
  Q 222.16 259.26 224.84 262.02
  C 228.20 265.49 233.94 264.86 236.40 260.63
  Q 237.39 258.94 237.51 255.32
  Q 237.87 244.53 240.70 234.09
  Q 240.83 233.62 241.32 233.68
  Q 248.10 234.55 253.18 236.59
  Z"
/>
<path fill="#ffd064" d="
  M 253.18 236.59
  Q 267.33 240.77 277.91 249.69
  Q 278.29 250.00 278.15 250.47
  L 264.81 296.77
  Q 264.62 297.41 264.06 297.05
  L 254.32 290.82
  L 266.77 247.81
  Q 266.93 247.25 266.47 246.90
  L 253.18 236.59
  Z"
/>
<path fill="#a6e7f0" d="
  M 398.10 278.03
  C 398.15 286.74 403.66 286.85 410.30 288.46
  Q 411.15 288.67 410.32 288.94
  C 404.61 290.77 400.56 290.38 397.95 296.75
  Q 396.42 300.48 390.79 312.01
  Q 390.54 312.51 390.30 312.01
  Q 386.07 303.41 382.02 294.87
  C 380.07 290.76 376.80 290.77 373.00 289.65
  Q 372.36 289.46 373.00 289.26
  C 379.95 287.14 382.96 287.19 382.98 278.65
  Q 383.00 266.49 382.99 253.60
  A 2.26 2.26 0.0 0 1 385.26 251.34
  L 395.86 251.35
  A 2.22 2.22 0.0 0 1 398.07 253.58
  Q 398.02 265.67 398.10 278.03
  Z"
/>
<path fill="#ffd064" d="
  M 229.33 297.38
  Q 226.18 301.56 225.26 304.99
  Q 222.77 314.35 220.19 323.72
  A 0.68 0.67 -82.0 0 1 219.54 324.22
  L 208.03 324.18
  Q 209.60 317.37 211.57 310.71
  Q 213.63 303.75 216.28 301.03
  Q 221.14 296.04 229.33 297.38
  Z"
/>
<path fill="#fe646f" d="
  M 370.38 304.96
  L 379.07 323.73
  Q 379.30 324.22 378.75 324.22
  L 328.49 324.22
  Q 327.75 324.22 328.11 323.58
  Q 336.40 308.98 350.24 299.50
  A 1.17 1.16 35.1 0 1 351.20 299.34
  L 369.55 304.26
  Q 370.13 304.41 370.38 304.96
  Z"
/>
<path fill="#fd4755" d="
  M 441.67 324.17
  Q 435.32 311.12 424.50 300.65
  L 429.67 299.22
  Q 430.20 299.07 430.65 299.38
  Q 444.56 308.94 452.89 323.61
  Q 453.20 324.15 452.58 324.15
  L 441.67 324.17
  Z"
/>
<path fill="#fe646f" d="
  M 424.50 300.65
  Q 435.32 311.12 441.67 324.17
  L 402.49 324.19
  Q 401.80 324.19 402.09 323.56
  L 410.77 304.79
  Q 410.96 304.37 411.41 304.25
  L 424.50 300.65
  Z"
/>
<path fill="#eaf9fa" d="
  M 51.28 331.73
  L 71.82 331.70
  Q 109.56 376.27 147.29 420.95
  C 154.18 429.10 163.48 436.39 173.44 442.95
  Q 187.96 452.51 198.54 458.92
  C 208.38 464.89 221.92 460.98 227.20 450.95
  Q 231.14 443.46 229.27 434.29
  Q 229.17 433.77 229.70 433.77
  Q 249.77 433.59 269.76 433.59
  Q 300.41 433.59 322.40 412.78
  Q 322.75 412.46 323.05 412.82
  Q 348.04 442.13 385.00 444.81
  C 430.41 448.09 469.79 414.95 476.22 370.46
  C 477.06 364.64 476.06 360.28 469.79 359.16
  Q 469.64 349.18 467.35 339.25
  L 483.69 339.25
  C 483.76 341.70 484.51 343.98 484.51 346.28
  Q 484.53 372.22 484.52 398.17
  Q 484.52 409.76 483.17 416.24
  Q 477.96 441.35 457.42 456.85
  C 451.13 461.60 441.75 466.65 434.54 469.71
  Q 433.21 470.27 433.03 471.43
  C 394.42 487.53 354.77 494.89 312.99 494.99
  Q 256.87 495.13 200.75 495.02
  Q 187.77 495.00 180.76 494.62
  Q 118.92 491.29 62.74 464.05
  C 52.17 458.93 40.77 453.21 32.87 445.46
  Q 19.91 432.74 16.27 414.91
  Q 14.98 408.62 14.99 395.01
  Q 15.01 371.00 15.00 347.00
  C 15.00 340.74 18.07 339.24 23.96 339.23
  Q 32.41 339.21 40.84 339.22
  C 46.71 339.23 50.60 337.99 51.28 331.73
  Z
  M 41.53 400.25
  C 47.30 415.39 61.12 426.12 77.50 426.93
  Q 82.26 427.16 100.51 427.62
  C 110.21 427.87 117.35 418.32 114.02 409.63
  Q 112.74 406.29 106.67 400.41
  Q 93.44 387.59 80.17 374.82
  C 74.46 369.32 68.67 365.45 61.25 366.04
  Q 51.52 366.80 41.79 367.59
  C 33.54 368.25 30.97 372.45 33.97 380.36
  Q 37.75 390.31 41.53 400.25
  Z"
/>
<path fill="#fe646f" d="
  M 170.45 339.28
  Q 179.31 358.03 188.10 376.59
  Q 194.91 390.98 197.48 405.25
  Q 200.40 421.43 202.61 443.67
  C 186.85 434.01 169.58 423.92 156.84 408.92
  Q 127.51 374.40 98.33 339.76
  Q 97.93 339.29 98.55 339.29
  L 170.45 339.28
  Z"
/>
<path fill="#fd4755" d="
  M 170.45 339.28
  L 181.48 339.25
  A 0.80 0.80 0.0 0 1 182.20 339.70
  Q 199.13 374.81 203.26 383.98
  C 210.50 400.10 212.02 419.78 214.62 437.67
  Q 215.12 441.11 214.53 442.81
  C 213.33 446.32 209.63 447.55 206.25 445.99
  Q 203.81 444.87 202.61 443.67
  Q 200.40 421.43 197.48 405.25
  Q 194.91 390.98 188.10 376.59
  Q 179.31 358.03 170.45 339.28
  Z"
/>
<path fill="#f6e781" d="
  M 203.69 339.27
  L 201.74 345.57
  L 198.96 339.79
  Q 198.70 339.24 199.30 339.25
  L 203.69 339.27
  Z"
/>
<path fill="#ffd064" d="
  M 203.69 339.27
  L 215.41 339.25
  Q 216.02 339.25 215.86 339.84
  L 209.95 361.74
  Q 209.75 362.46 209.44 361.78
  L 201.74 345.57
  L 203.69 339.27
  Z"
/>
<path fill="#6ed5a1" d="
  M 306.02 339.87
  C 301.68 360.54 304.53 380.60 314.23 399.27
  Q 314.46 399.72 314.10 400.07
  Q 301.38 412.72 284.44 417.08
  Q 278.78 418.54 269.98 418.66
  Q 254.34 418.85 238.74 418.61
  Q 238.07 418.60 238.53 418.12
  Q 258.09 397.44 277.69 376.88
  Q 280.68 373.74 281.21 371.40
  C 282.33 366.40 276.99 361.36 272.08 362.74
  Q 269.84 363.36 266.88 366.49
  Q 246.60 387.89 226.24 409.21
  Q 225.71 409.76 225.60 409.00
  Q 223.82 396.53 219.52 384.69
  A 1.15 1.15 0.0 0 1 219.49 383.98
  L 231.44 339.69
  A 0.64 0.63 -82.1 0 1 232.05 339.22
  L 305.51 339.23
  Q 306.16 339.23 306.02 339.87
  Z"
/>
<path fill="#fe646f" d="
  M 447.33 339.24
  C 455.22 375.26 440.95 408.04 410.11 427.28
  C 378.93 436.49 345.70 422.64 329.27 395.30
  Q 314.07 370.00 321.50 339.54
  Q 321.58 339.24 321.89 339.24
  L 447.33 339.24
  Z"
/>
<path fill="#fd4755" d="
  M 447.33 339.24
  L 467.35 339.25
  Q 469.64 349.18 469.79 359.16
  C 463.93 359.08 462.23 362.48 461.45 367.94
  C 457.40 396.24 437.89 419.55 410.11 427.28
  C 440.95 408.04 455.22 375.26 447.33 339.24
  Z"
/>
<path fill="#d4f2f6" d="
  M 483.69 339.25
  C 489.78 339.14 497.00 338.07 497.00 346.75
  Q 497.00 371.25 497.00 395.76
  Q 497.00 409.14 495.57 415.65
  Q 491.77 433.04 479.17 445.41
  Q 473.53 450.94 462.91 456.92
  Q 448.44 465.05 433.03 471.43
  Q 433.21 470.27 434.54 469.71
  C 441.75 466.65 451.13 461.60 457.42 456.85
  Q 477.96 441.35 483.17 416.24
  Q 484.52 409.76 484.52 398.17
  Q 484.53 372.22 484.51 346.28
  C 484.51 343.98 483.76 341.70 483.69 339.25
  Z"
/>
<path fill="#000000" d="
  M 77.50 426.93
  C 61.12 426.12 47.30 415.39 41.53 400.25
  Q 37.75 390.31 33.97 380.36
  C 30.97 372.45 33.54 368.25 41.79 367.59
  Q 51.52 366.80 61.25 366.04
  C 68.67 365.45 74.46 369.32 80.17 374.82
  Q 93.44 387.59 106.67 400.41
  Q 112.74 406.29 114.02 409.63
  C 117.35 418.32 110.21 427.87 100.51 427.62
  Q 82.26 427.16 77.50 426.93
  Z
  M 56.41 396.82
  Q 63.78 411.54 79.98 412.05
  C 85.62 412.23 91.28 412.56 96.94 412.59
  Q 97.60 412.60 97.13 412.13
  Q 82.46 397.80 67.69 383.56
  C 63.78 379.78 57.53 381.25 51.25 381.94
  Q 50.77 381.99 50.93 382.45
  Q 54.63 393.25 56.41 396.82
  Z"
/>
<path fill="#7a6d79" d="
  M 56.41 396.82
  Q 54.63 393.25 50.93 382.45
  Q 50.77 381.99 51.25 381.94
  C 57.53 381.25 63.78 379.78 67.69 383.56
  Q 82.46 397.80 97.13 412.13
  Q 97.60 412.60 96.94 412.59
  C 91.28 412.56 85.62 412.23 79.98 412.05
  Q 63.78 411.54 56.41 396.82
  Z"
/>
</svg>
