<?xml version="1.0" encoding="UTF-8"?>
<svg id="uuid-cf1495be-c87b-4298-8e73-f2f3edd793d6" data-name="Capa 1" xmlns="http://www.w3.org/2000/svg" viewBox="0 0 73.19 43.45">
  <defs>
    <style>
      .uuid-fda94e1b-d338-42db-aed6-cac52a31ebe0, .uuid-b4df3616-ad4b-4953-a08a-319f8863b39a {
        fill: #fff;
      }

      .uuid-b4df3616-ad4b-4953-a08a-319f8863b39a {
        font-family: FranklinGothic-Heavy, 'Franklin Gothic Heavy';
        font-size: 19.69px;
        font-weight: 800;
      }
    </style>
  </defs>
  <path class="uuid-fda94e1b-d338-42db-aed6-cac52a31ebe0" d="m44.74,10.86c.03.34-.14.53-.32.7-1.91,1.91-3.82,3.81-5.71,5.72-.43.44-.81.39-1.21,0-.39-.38-.8-.74-1.15-1.16-.43-.51-.78-.58-1.24-.02-.38.45-.83.84-1.25,1.26-.35.34-.69.34-1.03,0-1.94-1.94-3.88-3.88-5.82-5.83-.34-.34-.31-.69-.08-1.08,1.94-3.3,3.88-6.61,5.83-9.91.43-.73.81-.72,1.23,0,.47.78.97,1.56,1.39,2.37.34.66.54.44.8-.04.42-.75.86-1.5,1.31-2.24.52-.85.83-.86,1.35.02,1.75,2.96,3.49,5.92,5.22,8.89.26.44.59.86.69,1.31Zm-6.57-9.25c-.22,0-.27.19-.36.33-.38.64-.74,1.29-1.14,1.91-.3.46-.28.83,0,1.3,1.04,1.71,2.03,3.46,3.07,5.17.31.51.29.9-.15,1.31-.68.65-1.35,1.31-2,1.99-1.38,1.44-1.46.89.07,2.48.37.39.65.31.99-.03,1.55-1.57,3.11-3.13,4.68-4.68.31-.3.39-.56.15-.97-1.68-2.83-3.35-5.67-5.02-8.51-.07-.12-.12-.28-.29-.32Zm-3.29,13.3c-.01-.31-.21-.44-.36-.6-.82-.83-1.61-1.68-2.47-2.46-.6-.54-.6-1.02-.2-1.67.82-1.32,1.51-2.74,2.41-4,.82-1.15,1.02-2.16.03-3.27-.21-.24-.33-.55-.49-.83-.4-.66-.47-.66-.85,0-1.61,2.72-3.2,5.46-4.82,8.18-.29.49-.26.82.16,1.23,1.47,1.43,2.9,2.9,4.37,4.34.24.23.45.76.88.47.54-.37,1.01-.86,1.36-1.38Zm3.97-4.13c-.02-.06-.05-.16-.09-.24-.9-1.54-1.8-3.07-2.7-4.61-.24-.41-.41-.3-.61.05-.87,1.5-1.75,2.99-2.65,4.47-.22.36-.16.63.13.92.8.78,1.59,1.56,2.36,2.36.31.32.55.33.87,0,.79-.82,1.61-1.61,2.41-2.42.14-.14.3-.27.28-.53Z"/>
  <text class="uuid-b4df3616-ad4b-4953-a08a-319f8863b39a" transform="translate(0 37.41) scale(1.04 1)"><tspan x="0" y="0">FINASIT</tspan></text>
</svg>