<?xml version="1.0" encoding="UTF-8"?>
<svg id="uuid-6f116ca6-e502-4ae7-a099-9e19a734dc51" data-name="Capa 1" xmlns="http://www.w3.org/2000/svg" xmlns:xlink="http://www.w3.org/1999/xlink" viewBox="0 0 100 90.21">
  <defs>
    <style>
      .uuid-116eddf3-7f58-4f0c-af14-6dbff9e883cd {
        fill: #fff;
      }

      .uuid-d28f8281-49c8-4711-a031-6b2e06b993f2 {
        fill: #e83f46;
      }

      .uuid-9b42a191-3907-4881-b51e-342add735d29 {
        fill: #609bb6;
      }

      .uuid-6ae00e6c-e077-453c-8513-ffc2044e0442 {
        fill: #7ecef5;
      }

      .uuid-3e089ba6-8569-4c15-b4e0-68b633ac0601 {
        fill: #00a19a;
      }

      .uuid-20cc8ba7-a99e-4bd5-b65f-bbdb304bb54e {
        fill: #9fd5db;
      }

      .uuid-74f87d43-4453-42da-8d97-3a9e8ec166ea {
        fill: url(#uuid-721b1510-9cb2-47bc-9392-66c55e08cf4e);
      }

      .uuid-938db6b4-f576-427e-9d86-277a6faec04f {
        fill: #72c7d8;
      }

      .uuid-6af867b7-d11c-4ca1-9552-889bce47f5e0 {
        fill: #ec6461;
      }

      .uuid-d2c0921f-897f-4328-bd8c-397bfb188d76 {
        fill: #c4c4c4;
      }
    </style>
    <linearGradient id="uuid-721b1510-9cb2-47bc-9392-66c55e08cf4e" data-name="Degradado sin nombre 2" x1="1.34" y1="46.7" x2="90.25" y2="46.7" gradientUnits="userSpaceOnUse">
      <stop offset="0" stop-color="#bce4fa"/>
      <stop offset=".12" stop-color="#c7e8fa"/>
      <stop offset=".48" stop-color="#e5f4fd"/>
      <stop offset=".78" stop-color="#f8fcfe"/>
      <stop offset="1" stop-color="#fff"/>
    </linearGradient>
  </defs>
  <rect class="uuid-74f87d43-4453-42da-8d97-3a9e8ec166ea" x="1.34" y="19.52" width="88.91" height="54.35" rx="5.39" ry="5.39"/>
  <circle class="uuid-938db6b4-f576-427e-9d86-277a6faec04f" cx="74.44" cy="65.15" r="22.63"/>
  <ellipse class="uuid-20cc8ba7-a99e-4bd5-b65f-bbdb304bb54e" cx="77.16" cy="65.11" rx="21.09" ry="22"/>
  <g>
    <path class="uuid-6ae00e6c-e077-453c-8513-ffc2044e0442" d="m1.83,18.84c1.71-4.98.87-6.08,2.18-7.76,1.05-1.35,2.63-1.97,5.71-2.53,6.67-1.21,11.94-.59,15.88-.29,3.49.26,7.07.21,14.24.12,10.55-.14,11.87-.81,20.86-.65,6.25.11,5.71.44,10.08.35,4.16-.08,8.31.46,12.47.41.96-.01,3.51-.06,5,1.59.23.25.39.52.71,1.06,1.12,1.89,1.57,3.63,1.76,4.59.42,2.05.66,3.22,0,4.24-.5.76-1.31,1.13-2.06,1.35-5.26,1.54-23.12.28-27.59.06-4.39-.22-2.39.23-12.29.24-11.86,0-12.23-.65-20.59-.35-5.88.21-7.55.6-11.65.12-3.87-.45-4.88-1.09-8-.82-3.64.31-6.34,1.52-7.06.47-.31-.45-.05-1.01.35-2.18Z"/>
    <rect class="uuid-9b42a191-3907-4881-b51e-342add735d29" x="2.25" y="9.25" width="13.44" height="11.3"/>
    <path class="uuid-116eddf3-7f58-4f0c-af14-6dbff9e883cd" d="m20.14,32.62h0c0-.75.02-1.5,0-2.24-.05-1.75-1.25-3.15-2.99-3.27-1.68-.11-3.38-.12-5.06-.02-1.84.11-3.08,1.53-3.1,3.37-.02,1.43-.02,2.86,0,4.29.02,1.95,1.37,3.4,3.33,3.49,1.49.06,2.99.06,4.48,0,1.97-.08,3.31-1.51,3.34-3.47.01-.71,0-1.43,0-2.14Zm0,14.86h0c0-.75.02-1.5,0-2.24-.05-1.82-1.35-3.22-3.17-3.3-1.59-.07-3.19-.07-4.77,0-1.86.08-3.18,1.5-3.2,3.38-.02,1.43-.02,2.86,0,4.29.02,1.95,1.38,3.42,3.32,3.49,1.49.06,2.99.05,4.48,0,1.96-.07,3.31-1.51,3.35-3.46.01-.71,0-1.43,0-2.14Zm0,14.86h0c0-.78.02-1.56,0-2.34-.06-1.72-1.34-3.11-3.06-3.19-1.65-.08-3.32-.09-4.97,0-1.81.09-3.09,1.52-3.11,3.36-.02,1.43-.02,2.86,0,4.29.02,2,1.41,3.45,3.41,3.51,1.46.04,2.93.05,4.39,0,1.96-.07,3.32-1.51,3.35-3.46.01-.71,0-1.43,0-2.14Zm53.26-1.25c-1.08-1.19-2.14-2.38-3.23-3.54-.75-.8-1.54-.87-2.21-.26-.68.62-.68,1.43.03,2.23.88,1,1.75,2.01,2.66,2.98.39.41.36.74.25,1.27-.22,1.12-.48,2.34-.23,3.41.64,2.8,3.49,4.38,6.25,3.69,2.68-.67,4.38-3.37,3.76-6.14-.16-.73-.09-1.18.57-1.6.63-.4,1.17-.92,1.73-1.42.78-.7.89-1.57.31-2.22-.61-.69-1.4-.71-2.24-.04-.83.67-1.66,1.35-2.51,2.04-1.65-1.04-3.36-1.14-5.15-.41Zm-12.03-34.03c-.75,0-1.5-.03-2.24,0-2,.11-3.32,1.42-3.41,3.41-.06,1.43-.05,2.86,0,4.29.07,2.07,1.49,3.44,3.56,3.49,1.36.03,2.73.03,4.09,0,1.99-.04,3.41-1.32,3.53-3.3.09-1.52.09-3.06,0-4.58-.11-1.98-1.41-3.2-3.39-3.31-.71-.04-1.43,0-2.14,0Zm21.11,5.65c0-.75.02-1.5,0-2.24-.07-1.97-1.32-3.29-3.3-3.38-1.52-.07-3.05-.07-4.58,0-1.97.1-3.27,1.52-3.3,3.51-.02,1.36-.02,2.73,0,4.09.03,2.06,1.43,3.51,3.47,3.57,1.43.04,2.86.04,4.29,0,1.97-.07,3.34-1.45,3.41-3.4.03-.71,0-1.43,0-2.14Zm-57.89-.18s0,0,0,0c0,.75-.01,1.49,0,2.24.04,1.97,1.36,3.4,3.33,3.48,1.49.06,2.99.06,4.48,0,1.96-.08,3.32-1.53,3.35-3.47.02-1.46.03-2.92,0-4.38-.04-1.74-1.28-3.16-3-3.26-1.71-.11-3.44-.11-5.16,0-1.74.11-2.93,1.5-2.99,3.26-.02.71,0,1.43,0,2.14Zm15.58.05c0,.78-.04,1.56,0,2.34.11,1.92,1.45,3.27,3.38,3.33,1.46.05,2.92.05,4.38,0,1.92-.07,3.32-1.44,3.4-3.34.06-1.52.07-3.06,0-4.58-.09-1.79-1.38-3.13-3.16-3.23-1.62-.09-3.25-.09-4.87,0-1.81.1-3.02,1.41-3.13,3.24-.04.74,0,1.49,0,2.24Zm-10.02,9.35s0,0,0,0c-.75,0-1.5-.03-2.24,0-1.94.08-3.28,1.43-3.32,3.36-.03,1.46-.03,2.92,0,4.38.03,1.95,1.42,3.37,3.38,3.42,1.46.04,2.92.05,4.38,0,1.95-.06,3.35-1.5,3.39-3.43.02-1.46.03-2.92,0-4.38-.04-1.86-1.39-3.24-3.25-3.34-.78-.04-1.56,0-2.34,0Zm-5.56,20.44s0,0,0,0c0,.71-.01,1.43,0,2.14.05,1.95,1.42,3.37,3.38,3.43,1.46.05,2.92.05,4.38,0,1.95-.06,3.36-1.51,3.39-3.43.02-1.46.03-2.92,0-4.38-.04-1.82-1.35-3.24-3.15-3.32-1.62-.07-3.25-.07-4.87,0-1.78.08-3.06,1.45-3.12,3.23-.03.78,0,1.56,0,2.34Zm21.12-20.45c-.75,0-1.5-.03-2.24,0-1.86.08-3.19,1.34-3.28,3.19-.07,1.56-.07,3.12,0,4.67.08,1.91,1.48,3.25,3.4,3.3,1.43.04,2.86.04,4.29,0,1.96-.05,3.39-1.42,3.47-3.37.06-1.49.06-2.99,0-4.48-.08-1.92-1.47-3.25-3.39-3.32-.75-.03-1.49,0-2.24,0Zm13.84,22.37c-.05-.08-.09-.16-.14-.24-.63.35-1.42.58-1.86,1.1-.44.53-.28,1.31.34,1.82.63.52,2.53.52,3.15-.01.55-.48.68-1.09.39-1.75-.36-.84-1.12-.88-1.88-.91Zm32.32-.22c-.68.3-1.37.46-1.83.86-.61.53-.47,1.41.15,1.97.64.58,2.55.6,3.21.03.62-.54.78-1.43.2-1.97-.43-.4-1.08-.57-1.72-.89Zm-17.86-14.58c.18.64.23,1.26.52,1.71.46.71,1.4.75,2.05.21.76-.62.83-2.66.12-3.41-.56-.6-1.56-.69-2.06-.05-.33.42-.43,1.02-.63,1.54Zm.18,32.48h-.01c0,.26-.1.58.02.76.28.46.59,1.12,1.01,1.21.47.11,1.19-.16,1.58-.51.6-.55.57-2.46-.03-2.99-.36-.32-1.03-.61-1.43-.49-.45.13-.81.71-1.11,1.16-.13.2-.02.57-.02.86Zm14.8-28.05c0-.82-.65-1.45-1.5-1.44-.94,0-2.35,1.42-2.35,2.35,0,.83.64,1.45,1.48,1.45.91,0,2.38-1.46,2.37-2.36Zm-25.55,25.23c1.21-.03,2.72-1.43,2.63-2.3-.04-.45-.32-1.07-.67-1.26-.4-.22-1.11-.22-1.52-.01-.55.28-1.06.8-1.35,1.34-.21.41-.2,1.09,0,1.51.18.38.74.59.91.71Zm.34-26.68c-.86-.02-1.49.57-1.5,1.42-.02.94,1.36,2.36,2.32,2.38.88.02,1.49-.55,1.51-1.41.02-.91-1.4-2.37-2.33-2.39Zm25.51,25.19c-.63-.73-1.14-1.41-1.75-1.98-.6-.56-1.32-.5-1.92.04-.62.55-.68,1.26-.21,1.92.33.47.74.96,1.23,1.21.43.22,1.09.28,1.53.11.4-.15.64-.71,1.11-1.29Z"/>
    <path d="m0,13.46c.12-.36.26-.72.37-1.09,1.13-3.64,4.35-6.09,8.14-6.13,2.44-.03,4.88,0,7.49,0,0-.7-.02-1.34,0-1.97C16.11,1.85,18.15-.04,20.58,0c2.42.04,4.38,2.01,4.42,4.43,0,.55,0,1.1,0,1.79.62,0,1.2,0,1.77,0s1.17,0,1.93,0c0-.69-.02-1.32,0-1.96C28.81,1.85,30.84-.04,33.27,0c2.41.04,4.39,2.01,4.42,4.43,0,.55,0,1.1,0,1.72h3.69c0-.58-.02-1.19,0-1.79C41.49,1.87,43.5-.04,45.96,0c2.46.04,4.4,2.02,4.42,4.53,0,.52,0,1.04,0,1.63h3.69c0-.62-.03-1.26,0-1.89C54.21,1.84,56.23-.04,58.66,0c2.41.04,4.38,2.01,4.42,4.43,0,.55,0,1.1,0,1.79.62,0,1.2,0,1.77,0s1.17,0,1.92,0c0-.7-.03-1.33,0-1.97C66.91,1.83,68.93-.04,71.36,0c2.41.04,4.37,2.01,4.42,4.44,0,.55,0,1.1,0,1.79.83,0,1.59-.02,2.36,0,2.27.06,4.59-.12,6.81.25,3.93.65,6.81,4.27,6.83,8.26.03,8.66.01,17.32.01,25.98,0,1.11-.59,1.82-1.47,1.82-.91,0-1.48-.67-1.48-1.79,0-5.86-.03-11.72.02-17.58,0-1.02-.29-1.23-1.25-1.23-22.53.03-45.05.02-67.58.02-.42,0-.85,0-1.27-.05-.74-.11-1.16-.55-1.22-1.3-.05-.79.29-1.34,1.07-1.52.44-.1.9-.11,1.35-.11,22.49,0,44.99,0,67.48,0,.42,0,.83,0,1.5,0-.13-1.97-.06-3.87-.43-5.69-.47-2.29-2.57-3.97-4.92-4.07-2.56-.12-5.13-.03-7.82-.03,0,.66.02,1.27,0,1.87-.1,2.39-2.17,4.36-4.55,4.33-2.42-.02-4.39-1.96-4.45-4.4-.01-.55,0-1.1,0-1.74h-3.69c0,.57.01,1.15,0,1.73-.07,2.45-2.15,4.45-4.56,4.42-2.42-.03-4.38-1.98-4.44-4.42-.01-.55,0-1.1,0-1.73h-3.69c.1,1.86.09,3.77-1.56,4.96-.85.61-1.98,1.04-3.02,1.12-1.49.12-2.92-.56-3.59-1.93-.6-1.23-.79-2.67-1.2-4.16h-3.33c0,.49,0,1.03,0,1.57-.03,2.56-2,4.57-4.49,4.59-2.48.02-4.48-1.98-4.52-4.54,0-.52,0-1.03,0-1.69h-3.69c0,.57,0,1.11,0,1.65-.03,2.55-2.01,4.56-4.49,4.58-2.48.01-4.48-1.99-4.51-4.54,0-.52,0-1.03,0-1.68-1.33,0-2.58-.02-3.84,0-1.53.03-3.08-.08-4.57.17-2.59.43-4.42,2.5-4.61,5.09-.11,1.45-.02,2.92-.02,4.48.39.02.73.05,1.08.05,2.64,0,5.27,0,7.91,0,.39,0,.78.02,1.16.12.73.18,1.11.72,1.08,1.43-.03.75-.45,1.32-1.25,1.39-.87.08-1.75.06-2.63.06-2.41,0-4.81,0-7.37,0,0,.41,0,.76,0,1.1,0,14.55,0,29.1,0,43.65,0,3.83,2.36,6.19,6.22,6.19,12.63.01,25.26.01,37.89.02.42,0,.85,0,1.27.04.78.1,1.23.56,1.29,1.35.05.79-.35,1.31-1.1,1.51-.37.1-.77.09-1.16.09-12.56,0-25.13,0-37.69,0-5.12,0-8.05-2.17-9.52-7.07-.02-.05-.09-.09-.13-.13,0-18.43,0-36.85,0-55.28Zm44.34-5.79c0,1.04-.02,2.08,0,3.12.02.93.65,1.59,1.49,1.62.82.03,1.58-.62,1.6-1.52.04-2.11.04-4.23,0-6.34-.02-.91-.73-1.57-1.55-1.57-.87,0-1.52.68-1.54,1.66-.02,1.01,0,2.02,0,3.03Zm12.69-.03c0,1.04-.02,2.08,0,3.12.02.94.62,1.59,1.46,1.64.85.05,1.61-.63,1.63-1.59.04-2.08.04-4.16,0-6.25-.02-.96-.77-1.64-1.62-1.6-.84.04-1.45.7-1.47,1.64-.02,1.01,0,2.02,0,3.03Zm12.69.02c0,1.01-.01,2.02,0,3.03.02,1.01.61,1.69,1.48,1.72.85.04,1.59-.65,1.61-1.61.04-2.08.04-4.16,0-6.25-.02-.91-.73-1.57-1.55-1.58-.87,0-1.52.67-1.54,1.66-.02,1.01,0,2.02,0,3.03Zm-34.97.13c0-1.04.02-2.08,0-3.12-.03-.98-.68-1.68-1.53-1.69-.9-.02-1.56.69-1.57,1.74-.01,1.98-.01,3.97,0,5.95,0,1.05.66,1.76,1.56,1.74.86-.01,1.51-.7,1.54-1.69.03-.98,0-1.95,0-2.93Zm-12.69-.05c0-1.01.02-2.02,0-3.03-.02-1.04-.7-1.76-1.58-1.74-.9.02-1.51.72-1.52,1.79-.01,1.95-.01,3.9,0,5.86,0,1.07.62,1.77,1.52,1.79.89.02,1.56-.7,1.59-1.74.02-.98,0-1.95,0-2.93Z"/>
    <path d="m100,68.35c-.33,1.45-.58,2.91-.99,4.33-2.64,9.35-11.16,16.34-20.81,17.39-12.18,1.32-24.2-6.92-26.59-19.94-.62-3.37-.52-6.73.31-10.06.27-1.09.95-1.58,1.87-1.35.87.22,1.26.97,1.04,1.99-1.76,8.29.38,15.37,6.63,21.11,3.43,3.14,7.54,4.83,12.19,5.28,10.98,1.08,20.62-6.58,22.89-16.71,2.52-11.27-4.84-23.02-16.13-25.46-9.14-1.97-18.07,1.78-23.04,9.69-.43.69-.89,1.33-1.83,1.14-1.09-.21-1.53-1.31-.92-2.35,1.66-2.85,3.82-5.26,6.49-7.19,14.53-10.54,34.62-2.86,38.42,14.68.17.78.31,1.57.46,2.36v5.08Z"/>
    <path d="m20.14,32.62c0,.71.01,1.43,0,2.14-.03,1.96-1.37,3.39-3.34,3.47-1.49.06-2.99.07-4.48,0-1.96-.08-3.31-1.54-3.33-3.49-.01-1.43-.02-2.86,0-4.29.02-1.84,1.26-3.26,3.1-3.37,1.68-.1,3.38-.09,5.06.02,1.73.11,2.94,1.52,2.99,3.27.02.75,0,1.49,0,2.24h0Zm-3-.08c0-.62.05-1.24-.03-1.84-.03-.22-.37-.39-.56-.59-.17.18-.49.36-.5.55-.04,1.29-.05,2.59,0,3.88,0,.2.37.39.57.59.18-.22.48-.42.5-.65.07-.64.02-1.29.02-1.94Z"/>
    <path d="m20.14,47.47c0,.71.01,1.43,0,2.14-.04,1.96-1.39,3.39-3.35,3.46-1.49.05-2.99.06-4.48,0-1.94-.07-3.3-1.54-3.32-3.49-.01-1.43-.02-2.86,0-4.29.02-1.87,1.34-3.3,3.2-3.38,1.59-.07,3.19-.06,4.77,0,1.82.08,3.12,1.47,3.17,3.3.02.75,0,1.49,0,2.24h0Zm-3,.03c0-.62.06-1.24-.03-1.84-.03-.26-.36-.47-.55-.71-.18.21-.51.41-.52.63-.05,1.26-.05,2.53,0,3.79,0,.21.36.41.55.62.18-.21.49-.41.52-.64.07-.61.03-1.23.03-1.85Z"/>
    <path d="m20.14,62.33c0,.71.01,1.43,0,2.14-.04,1.95-1.4,3.39-3.35,3.46-1.46.05-2.92.05-4.39,0-2-.06-3.39-1.51-3.41-3.51-.01-1.43-.02-2.86,0-4.29.02-1.83,1.3-3.27,3.11-3.36,1.65-.08,3.32-.07,4.97,0,1.73.08,3.01,1.47,3.06,3.19.03.78,0,1.56,0,2.34h0Zm-3-.02c0-.62.05-1.24-.02-1.85-.03-.24-.32-.44-.49-.66-.2.19-.57.37-.57.57-.05,1.29-.05,2.59,0,3.89,0,.2.32.38.49.58.2-.19.55-.37.57-.59.08-.64.03-1.29.03-1.94Z"/>
    <path d="m73.39,61.08c1.79-.73,3.5-.63,5.15.41.85-.69,1.68-1.37,2.51-2.04.84-.67,1.63-.65,2.24.04.58.65.47,1.52-.31,2.22-.56.5-1.11,1.02-1.73,1.42-.66.42-.73.87-.57,1.6.62,2.77-1.08,5.47-3.76,6.14-2.75.69-5.6-.89-6.25-3.69-.25-1.07.02-2.29.23-3.41.1-.54.14-.86-.25-1.27-.92-.97-1.79-1.98-2.66-2.98-.71-.81-.71-1.62-.03-2.23.68-.61,1.46-.55,2.21.26,1.09,1.16,2.14,2.35,3.23,3.54Zm.07,4.71c0,1.26.85,2.15,2.1,2.18,1.28.03,2.27-.9,2.29-2.14.02-1.22-.99-2.19-2.24-2.18-1.23,0-2.13.91-2.14,2.14Z"/>
    <path d="m61.37,27.05c.71,0,1.43-.03,2.14,0,1.99.11,3.28,1.33,3.39,3.31.08,1.52.09,3.06,0,4.58-.12,1.98-1.54,3.25-3.53,3.3-1.36.03-2.73.03-4.09,0-2.07-.04-3.48-1.42-3.56-3.49-.05-1.43-.06-2.86,0-4.29.08-2,1.41-3.3,3.41-3.41.74-.04,1.49,0,2.24,0Zm-.07,2.98c-.62,0-1.23.02-1.85,0-.53-.02-.78.2-.77.73,0,1.26-.04,2.53.04,3.79.02.26.48.69.77.71,1.23.08,2.46.03,3.69.04.53,0,.77-.23.77-.76,0-1.26-.01-2.53,0-3.79,0-.56-.29-.73-.8-.71-.62.02-1.23,0-1.85,0Z"/>
    <path d="m82.48,32.69c0,.71.02,1.43,0,2.14-.08,1.96-1.44,3.34-3.41,3.4-1.43.05-2.86.04-4.29,0-2.04-.06-3.44-1.51-3.47-3.57-.02-1.36-.02-2.73,0-4.09.03-1.99,1.33-3.41,3.3-3.51,1.52-.08,3.05-.07,4.58,0,1.98.09,3.22,1.41,3.3,3.38.03.75,0,1.49,0,2.24Zm-2.96,0c0-.62-.02-1.23,0-1.85.03-.57-.17-.83-.78-.82-1.23.03-2.47.02-3.7,0-.59,0-.81.26-.8.82.02,1.2.02,2.4,0,3.6,0,.65.32.86.91.84.58-.02,1.17,0,1.75,0q2.61,0,2.61-2.6Z"/>
    <path d="m24.58,32.51c0-.71-.02-1.43,0-2.14.05-1.76,1.25-3.15,2.99-3.26,1.71-.1,3.44-.1,5.16,0,1.72.11,2.96,1.53,3,3.26.03,1.46.02,2.92,0,4.38-.03,1.95-1.39,3.39-3.35,3.47-1.49.06-2.99.06-4.48,0-1.97-.08-3.29-1.51-3.33-3.48-.01-.75,0-1.49,0-2.24,0,0,0,0,0,0Zm2.95.05q0,2.72,2.69,2.72t2.58-2.56-2.71-2.7-2.55,2.54Z"/>
    <path d="m40.16,32.57c0-.75-.04-1.5,0-2.24.11-1.83,1.32-3.14,3.13-3.24,1.62-.09,3.25-.09,4.87,0,1.78.1,3.07,1.44,3.16,3.23.07,1.52.07,3.05,0,4.58-.08,1.9-1.48,3.27-3.4,3.34-1.46.05-2.92.05-4.38,0-1.93-.07-3.27-1.41-3.38-3.33-.04-.78,0-1.56,0-2.34Zm2.96-.05c0,.68-.06,1.37.03,2.04.04.27.42.68.66.69,1.26.07,2.53.08,3.79,0,.28-.02.73-.46.75-.73.08-1.23.03-2.46.04-3.7,0-.58-.25-.82-.82-.8-.65.02-1.3,0-1.95,0q-2.5,0-2.5,2.49Z"/>
    <path d="m30.14,41.92c.78,0,1.56-.03,2.34,0,1.86.1,3.21,1.48,3.25,3.34.03,1.46.03,2.92,0,4.38-.03,1.93-1.44,3.37-3.39,3.43-1.46.05-2.92.05-4.38,0-1.96-.06-3.35-1.48-3.38-3.42-.03-1.46-.03-2.92,0-4.38.04-1.93,1.37-3.28,3.32-3.36.75-.03,1.49,0,2.24,0,0,0,0,0,0,0Zm.06,8.23c.52,0,1.04-.02,1.56,0,.73.04,1.08-.22,1.05-1.01-.05-1.14-.03-2.27,0-3.41.02-.62-.22-.89-.85-.87-1.17.02-2.34.04-3.51,0-.75-.03-.98.29-.92.99.04.55,0,1.1,0,1.66q0,2.65,2.67,2.65Z"/>
    <path d="m24.59,62.36c0-.78-.02-1.56,0-2.34.06-1.78,1.34-3.16,3.12-3.23,1.62-.07,3.25-.07,4.87,0,1.8.08,3.12,1.51,3.15,3.32.03,1.46.03,2.92,0,4.38-.03,1.93-1.44,3.37-3.39,3.43-1.46.05-2.92.05-4.38,0-1.96-.06-3.33-1.48-3.38-3.43-.02-.71,0-1.43,0-2.14,0,0,0,0,0,0Zm5.61-2.64c-.58,0-1.17.03-1.75,0-.65-.04-.95.17-.92.88.05,1.17.04,2.34,0,3.51-.03.71.3.9.93.89,1.14-.02,2.28-.03,3.41,0,.74.02.98-.31.94-1.01-.03-.55,0-1.1,0-1.66q0-2.61-2.6-2.61Z"/>
    <path d="m45.7,41.91c.75,0,1.49-.02,2.24,0,1.92.07,3.31,1.41,3.39,3.32.06,1.49.06,2.99,0,4.48-.08,1.94-1.51,3.32-3.47,3.37-1.43.04-2.86.04-4.29,0-1.92-.05-3.32-1.39-3.4-3.3-.06-1.56-.07-3.12,0-4.67.09-1.85,1.42-3.11,3.28-3.19.75-.03,1.49,0,2.24,0Zm2.69,5.49q0-2.54-2.49-2.54h-.1q-2.68,0-2.68,2.71t2.56,2.57q2.71,0,2.71-2.74Z"/>
    <path d="m59.55,64.29c.76.03,1.52.07,1.88.91.28.67.16,1.28-.39,1.75-.62.53-2.52.53-3.15.01-.61-.51-.78-1.29-.34-1.82.43-.52,1.22-.74,1.86-1.1.05.08.09.16.14.24Z"/>
    <path d="m91.86,64.07c.64.32,1.29.49,1.72.89.58.54.42,1.43-.2,1.97-.66.57-2.56.56-3.21-.03-.62-.56-.76-1.44-.15-1.97.47-.4,1.16-.56,1.83-.86Z"/>
    <path d="m74.01,49.49c.2-.52.3-1.12.63-1.54.5-.64,1.5-.55,2.06.05.71.76.64,2.79-.12,3.41-.65.54-1.59.5-2.05-.21-.29-.45-.34-1.07-.52-1.71Z"/>
    <path d="m74.19,81.96c0-.29-.11-.66.02-.86.3-.45.66-1.03,1.11-1.16.41-.12,1.08.17,1.43.49.6.54.63,2.44.03,2.99-.39.35-1.11.62-1.58.51-.41-.1-.73-.75-1.01-1.21-.11-.19-.02-.51-.02-.76h.01Z"/>
    <path d="m88.99,53.92c0,.89-1.47,2.35-2.37,2.36-.84,0-1.48-.62-1.48-1.45,0-.94,1.41-2.35,2.35-2.35.85,0,1.49.62,1.5,1.44Z"/>
    <path d="m63.44,79.15c-.17-.13-.73-.33-.91-.71-.2-.43-.21-1.11,0-1.51.29-.54.81-1.06,1.35-1.34.41-.21,1.12-.21,1.52.01.36.2.63.81.67,1.26.08.86-1.42,2.27-2.63,2.3Z"/>
    <path d="m63.78,52.47c.93.02,2.35,1.49,2.33,2.39-.02.86-.64,1.43-1.51,1.41-.95-.02-2.33-1.44-2.32-2.38.02-.85.64-1.44,1.5-1.42Z"/>
    <path d="m89.29,77.66c-.47.58-.71,1.14-1.11,1.29-.44.17-1.1.11-1.53-.11-.49-.25-.9-.74-1.23-1.21-.47-.66-.41-1.37.21-1.92.6-.54,1.32-.6,1.92-.04.61.57,1.11,1.25,1.75,1.98Z"/>
    <path class="uuid-d2c0921f-897f-4328-bd8c-397bfb188d76" d="m44.34,7.67c0-1.01-.02-2.02,0-3.03.02-.98.67-1.67,1.54-1.66.82,0,1.53.66,1.55,1.57.04,2.11.04,4.23,0,6.34-.02.9-.78,1.55-1.6,1.52-.84-.03-1.46-.69-1.49-1.62-.02-1.04,0-2.08,0-3.12Z"/>
    <path class="uuid-d2c0921f-897f-4328-bd8c-397bfb188d76" d="m57.03,7.65c0-1.01-.02-2.02,0-3.03.02-.94.63-1.6,1.47-1.64.85-.04,1.61.64,1.62,1.6.04,2.08.04,4.16,0,6.25-.02.96-.78,1.63-1.63,1.59-.84-.05-1.44-.7-1.46-1.64-.02-1.04,0-2.08,0-3.12Z"/>
    <path class="uuid-d2c0921f-897f-4328-bd8c-397bfb188d76" d="m69.72,7.67c0-1.01-.02-2.02,0-3.03.02-.99.67-1.67,1.54-1.66.82,0,1.53.66,1.55,1.58.04,2.08.04,4.16,0,6.25-.02.96-.76,1.64-1.61,1.61-.87-.04-1.47-.71-1.48-1.72-.02-1.01,0-2.02,0-3.03Z"/>
    <path class="uuid-d2c0921f-897f-4328-bd8c-397bfb188d76" d="m34.75,7.8c0,.98.02,1.95,0,2.93-.03.99-.68,1.67-1.54,1.69-.9.01-1.56-.69-1.56-1.74-.01-1.98-.01-3.97,0-5.95,0-1.05.67-1.76,1.57-1.74.85.02,1.51.71,1.53,1.69.03,1.04,0,2.08,0,3.12Z"/>
    <path class="uuid-d2c0921f-897f-4328-bd8c-397bfb188d76" d="m22.06,7.75c0,.98.02,1.95,0,2.93-.02,1.04-.7,1.75-1.59,1.74-.9-.02-1.51-.72-1.52-1.79-.01-1.95-.01-3.9,0-5.86,0-1.07.62-1.77,1.52-1.79.89-.02,1.56.71,1.58,1.74.02,1.01,0,2.02,0,3.03Z"/>
    <path class="uuid-116eddf3-7f58-4f0c-af14-6dbff9e883cd" d="m17.13,32.54c0,.65.05,1.3-.02,1.94-.03.23-.33.44-.5.65-.2-.2-.56-.39-.57-.59-.05-1.29-.05-2.59,0-3.88,0-.19.33-.37.5-.55.2.19.54.37.56.59.08.61.03,1.23.03,1.84Z"/>
    <path class="uuid-116eddf3-7f58-4f0c-af14-6dbff9e883cd" d="m17.13,47.51c0,.62.05,1.24-.03,1.85-.03.23-.34.43-.52.64-.19-.21-.54-.4-.55-.62-.05-1.26-.05-2.53,0-3.79,0-.22.34-.42.52-.63.19.23.51.45.55.71.08.61.03,1.23.03,1.84Z"/>
    <path class="uuid-116eddf3-7f58-4f0c-af14-6dbff9e883cd" d="m17.13,62.31c0,.65.05,1.3-.03,1.94-.03.22-.37.39-.57.59-.17-.19-.48-.38-.49-.58-.05-1.3-.05-2.59,0-3.89,0-.2.37-.38.57-.57.17.22.47.42.49.66.07.61.02,1.23.02,1.85Z"/>
    <path class="uuid-3e089ba6-8569-4c15-b4e0-68b633ac0601" d="m73.46,65.79c0-1.23.91-2.13,2.14-2.14,1.26,0,2.26.97,2.24,2.18-.02,1.23-1.01,2.16-2.29,2.14-1.24-.02-2.11-.92-2.1-2.18Z"/>
    <path class="uuid-116eddf3-7f58-4f0c-af14-6dbff9e883cd" d="m61.3,30.02c.62,0,1.23.02,1.85,0,.51-.02.8.15.8.71-.01,1.26,0,2.53,0,3.79,0,.53-.24.77-.77.76-1.23,0-2.47.04-3.69-.04-.28-.02-.75-.44-.77-.71-.08-1.26-.03-2.53-.04-3.79,0-.53.24-.75.77-.73.62.02,1.23,0,1.85,0Z"/>
    <path class="uuid-116eddf3-7f58-4f0c-af14-6dbff9e883cd" d="m79.52,32.69q0,2.6-2.61,2.6c-.58,0-1.17-.01-1.75,0-.59.02-.92-.2-.91-.84.02-1.2.02-2.4,0-3.6,0-.57.21-.83.8-.82,1.23.02,2.47.02,3.7,0,.6-.01.8.25.78.82-.03.62,0,1.23,0,1.85Z"/>
    <path class="uuid-116eddf3-7f58-4f0c-af14-6dbff9e883cd" d="m27.53,32.56q0-2.54,2.55-2.54,2.71,0,2.71,2.7t-2.58,2.56-2.69-2.72Z"/>
    <path class="uuid-116eddf3-7f58-4f0c-af14-6dbff9e883cd" d="m43.12,32.52q0-2.49,2.5-2.49c.65,0,1.3.02,1.95,0,.58-.02.83.22.82.8-.01,1.23.04,2.47-.04,3.7-.02.27-.47.72-.75.73-1.26.08-2.53.07-3.79,0-.24-.01-.62-.43-.66-.69-.1-.67-.03-1.36-.03-2.04Z"/>
    <path class="uuid-116eddf3-7f58-4f0c-af14-6dbff9e883cd" d="m30.2,50.15q-2.67,0-2.67-2.65c0-.55.03-1.11,0-1.66-.06-.7.17-1.01.92-.99,1.17.04,2.34.03,3.51,0,.63-.01.87.25.85.87-.03,1.14-.04,2.28,0,3.41.03.79-.32,1.05-1.05,1.01-.52-.03-1.04,0-1.56,0Z"/>
    <path class="uuid-116eddf3-7f58-4f0c-af14-6dbff9e883cd" d="m30.2,59.73q2.6,0,2.6,2.61c0,.55-.03,1.11,0,1.66.04.69-.2,1.03-.94,1.01-1.14-.03-2.27-.03-3.41,0-.64.01-.96-.18-.93-.89.04-1.17.04-2.34,0-3.51-.03-.71.27-.92.92-.88.58.04,1.17,0,1.75,0Z"/>
    <path class="uuid-116eddf3-7f58-4f0c-af14-6dbff9e883cd" d="m48.39,47.4q0,2.74-2.71,2.74-2.56,0-2.56-2.57t2.68-2.71h.1q2.49,0,2.49,2.54Z"/>
    <rect class="uuid-d28f8281-49c8-4711-a031-6b2e06b993f2" x="11.71" y="30.11" width="4.29" height="4.82"/>
    <rect class="uuid-d28f8281-49c8-4711-a031-6b2e06b993f2" x="11.71" y="45.07" width="4.29" height="4.82"/>
    <rect class="uuid-d28f8281-49c8-4711-a031-6b2e06b993f2" x="11.71" y="59.91" width="4.29" height="4.82"/>
    <rect class="uuid-6af867b7-d11c-4ca1-9552-889bce47f5e0" x="16" y="30.11" width="1.15" height="4.82"/>
    <rect class="uuid-6af867b7-d11c-4ca1-9552-889bce47f5e0" x="16" y="45.1" width="1.15" height="4.82"/>
    <rect class="uuid-6af867b7-d11c-4ca1-9552-889bce47f5e0" x="16" y="59.91" width="1.15" height="4.82"/>
  </g>
</svg>