<?xml version="1.0" encoding="UTF-8"?>
<svg id="uuid-c6dff29e-179c-4c66-ba62-d43fc8c92a5d" data-name="Capa 1" xmlns="http://www.w3.org/2000/svg" viewBox="0 0 99.95 83.3">
  <defs>
    <style>
      .uuid-0141c6c1-f607-4f28-80f5-e3999dc65382 {
        fill: #cae8f8;
      }

      .uuid-fd54417c-9df4-4b93-9189-39da7a5c942e {
        fill: #5cb890;
      }

      .uuid-b9632bb7-9484-447e-9ca0-659ce8bd5c8e {
        fill: #feed9a;
      }

      .uuid-a61c7e17-bb4a-4847-bd80-2c3cd93cddd6 {
        fill: #33a3dc;
      }

      .uuid-e1b0a646-431b-414c-9f40-04e8b66315d4 {
        fill: #bab7bb;
      }

      .uuid-d820139d-3545-4f41-9da2-9166624cfafe {
        fill: #f4a96c;
      }

      .uuid-2502c112-c37f-485a-a2ee-b8c2708a0e5c {
        fill: #862c15;
      }

      .uuid-c07f256a-da97-494e-9881-d272bafa6733 {
        fill: #ea552f;
      }

      .uuid-65123ba6-1710-43af-a854-bc7aa8af61d1 {
        fill: #506065;
      }

      .uuid-790c608d-283c-49be-855d-77fcbe473f35 {
        fill: #b4acce;
      }

      .uuid-0101dc50-b4e8-4f4c-bc67-42cce9b89301 {
        fill: #788f98;
      }

      .uuid-fadec82e-ce52-4f35-9e48-90baf577cd7d {
        fill: #a1d8f0;
      }

      .uuid-059134d2-0809-483f-ac53-73d8dee6f327 {
        fill: #cac2e0;
      }

      .uuid-ea2e5df6-c74e-433d-9c3b-4a1c566ea18a {
        fill: #010202;
      }

      .uuid-5087c482-7af3-4a90-b8dc-f0f449c5f0fc {
        fill: #283033;
      }
    </style>
  </defs>
  <path class="uuid-ea2e5df6-c74e-433d-9c3b-4a1c566ea18a" d="m99.95,13.13c-1.01,1.55-2.53,1.67-4.2,1.65-4.65-.06-9.3-.02-13.95-.02-1.65,0-1.98.23-2.34,1.89-.56,2.62-1.04,5.25-1.56,7.88-.58,2.94-1.17,5.87-1.73,8.81-.49,2.6-.93,5.22-1.41,7.83-.46,2.48-.94,4.96-1.42,7.43-.36,1.86-.86,3.69-1.07,5.56-.17,1.51-1.55,2.81-3.15,3.12-.14-.01-.21.04-.14.18,0,.96.01,1.92.02,2.89-.04.13,0,.18.13.13,2.3.03,3.23,1.28,3.11,3.4-.03.58,0,1.17,0,1.75,0,1.95-.48,2.62-2.34,3.3-1.56-.26-3.13-.26-4.69,0-.42.3-.15.53.07.78,3.23,3.65,2.8,9.07-1.23,11.95-5.08,3.62-11.3.88-12.68-4.79-.66-2.71.19-5.06,1.89-7.17.21-.26.63-.48.06-.79-.29-.23-.62-.13-.94-.13-8.82,0-17.63,0-26.45,0-.32,0-.65-.1-.94.13-.41.23-.47.49-.1.82,2.35,2.07,2.58,6.77,1.14,9.31-2.31,4.07-7.7,5.48-11.61,2.84-2.46-1.66-3.63-4.08-3.64-6.97,0-2.01.9-3.78,2.17-5.33.17-.2.36-.35.11-.61-1.09-.4-2.2-.23-3.31-.08-.12,0-.24-.02-.36-.02-.05-.11-.14-.12-.24-.08-1.66-.17-2.62-1.28-3.22-2.65-.64-1.49-.23-2.94.78-4.18.94-1.17,2.22-1.46,3.68-1.46,10.34.03,20.68.01,31.02.01,1.3,0,2.6,0,3.9,0,.94,0,1.51.43,1.57,1.42-.12,1.15-.59,1.54-1.89,1.54-8.82,0-17.63,0-26.45,0-2.83,0-5.66.01-8.49,0-.85,0-1.33.51-1.41,1.2-.08.64.37,1.13,1.1,1.2.07.12.15.14.25.02,2.52,0,5.04,0,7.56,0,.26.19.56.12.85.12,16.67,0,33.34,0,50.01,0,.3,0,.66.16.88-.21,0-.42-.04-.85.03-1.26.16-.94-.28-1.09-1.12-1.08-5.1.04-10.19.02-15.29.02-1.42,0-1.67-.18-2.18-1.54.25-1,.85-1.45,1.91-1.43,2.09.04,4.19,0,6.28-.02.15.04.21,0,.1-.14,0-.96,0-1.92.01-2.87.12-.15.06-.19-.1-.16-.36-.01-.71-.03-1.07-.03-15.35,0-30.69-.02-46.04.01-2.6,0-3.17-.53-3.81-3-1.81-6.97-3.62-13.95-5.42-20.92-.82-3.17-1.6-6.35-2.41-9.52-.02-.07-.12-.12-.19-.18,0-.65,0-1.3,0-1.95.7-1.44,1.96-1.7,3.41-1.67,1.71.04,3.43,0,5.15,0,.15.13.2.08.2-.1.01-3.12.01-6.25.04-9.37.01-1.53,1-2.51,2.51-2.53.65-.01,1.3,0,1.95-.01.14-.02.2-.07.07-.19V2.39s.08-.05.07-.06c-.02-.05-.05-.1-.08-.14C13.64.64,14.7,0,16.31.02c8.1.04,16.2.08,24.3-.01,3.42-.04,4.48.83,4.32,4.28-.06,1.16-.46,1.88-1.54,2.24-.94-.21-1.42-.76-1.44-1.75-.03-1.85-.05-1.85-1.93-1.8-.03,0-.07,0-.1,0-.51-.07-.68.14-.66.66.03,1.04.03,2.08,0,3.12-.03,1.38-.85,2.23-2.24,2.25-2.67.03-5.33.02-8,0-1.2-.01-2.02-.89-2.03-2.09,0-1.07-.03-2.15,0-3.22.02-.53-.11-.73-.69-.73-3.12.03-6.24.03-9.36,0-.61,0-.68.25-.67.75.03,1.17.04,2.34,0,3.51-.02.62.14.84.8.83,2.18-.04,4.36-.01,6.54,0,2.29,0,3.12.8,3.11,3.11,0,.63.15.83.8.81,2.08-.04,4.16,0,6.24-.02,2.57-.04,4.04,1.89,3.96,3.97-.04,1.14-.01,2.28,0,3.41,0,.34-.11.76.47.76.42,0,.78.05.95-.54.31-1.02.7-2.09,1.48-2.79,1.44-1.3,1.42-2.91,1.33-4.59,0-.1,0-.2,0-.29.04-1.07.37-1.43,1.43-1.52.39.02.72.11,1.03.41.69.65.37,1.5.52,2.29,1.41-.67,2.91-.93,4.41-1.09,1.39-.14,1.4-.08,1.4-1.53,0-.16-.01-.33,0-.49.15-1.56,1.48-3.29,3.11-3.29,3.98,0,7.96,0,11.94,0,2.09.22,3.16,2.11,3.16,3.8,0,3.15.02,6.31.03,9.46-.04.15,0,.21.14.1,1.98,0,3.96-.01,5.94.05.57.02.75-.28.84-.68.18-.8.31-1.62.42-2.43.43-3.22,1.87-5.22,5.65-5.2.46,0,.66-.1.6-.59-.04-.32-.04-.65,0-.97.23-1.75.73-3.36,3.02-3.72.08-.03.23,0,.31-.03.12,0,.34.02.47.02.27.03.31,0,.54,0,3.57,0,7.13,0,10.7-.01,1.27-.06,1.74.95,2.33,1.78v4.88ZM30.03,5.92h.02s.07.14.11.14c1.99.01,3.98.02,5.98.01.06,0,.11-.12.17-.18.01-.77,0-1.55.04-2.32.02-.43-.07-.63-.57-.62-1.9.04-3.8.04-5.7.05-.34.97-.24,1.94-.04,2.92Zm-13.41,63.03c.55,1.46,1.51,2.7,2.3,4.22.81-1.5,1.75-2.76,2.36-4.22.01-.03.03-.06.03-.09,0-.02-.04-.06-.05-.06-1.55.04-3.1-.24-4.63.15Zm45.04,0c-1.55-.38-3.12-.15-4.68-.12-.13,0-.11.2,0,.31.73,1.3,1.47,2.6,2.26,4,.89-1.43,1.73-2.76,2.42-4.19Zm4.13-11.66h-3.51c-.13-.03-.2,0-.18.15-.08.98-.08,1.96,0,2.94-.01.13.05.17.17.13h3.54c.13.04.18,0,.16-.13,0-.98,0-1.96,0-2.94.02-.14-.04-.19-.17-.15Zm-48.63-17.01c-.07-.27-.29-.21-.47-.21-2.92,0-5.85,0-8.77,0-.18,0-.4-.07-.47.2.45,1.67.94,3.32,1.32,5,.11.51.3.63.75.63,2.03-.02,4.07-.02,6.1-.03.77.01,1.54.02,2.31.05.34.01.48-.11.4-.45-.39-1.73-.78-3.47-1.18-5.2Zm-.6-3.18c-.25-1.1-.54-2.18-.73-3.29-.4-2.32-.38-2.33-2.76-2.33-.39,0-.77.02-1.16.03h-6.57c-.16.42.08.74.17,1.07.45,1.53.56,3.16,1.31,4.6.15.05.29.15.44.15,2.91,0,5.83.01,8.74,0,.21,0,.47.07.56-.24Zm-3.3-14.06h-3.09c-.08-.13-.15-.13-.23,0-.06,0-.12.02-.18.06-.05-.04-.11-.06-.18-.06-2.07-.27-4.15-.08-6.23-.09-.07,0-.14.11-.22.17.13,1.79.92,3.42,1.21,5.17.05.3.39.28.66.28,1.98-.01,3.96-.02,5.94-.04,1.06.01,2.12.02,3.19.04.3,0,.61.03.5-.44-.39-1.67-.78-3.34-1.17-5.01-.01-.17-.08-.19-.2-.07Zm83.74-13.59c-.04-.05-.07-.15-.11-.15-2.24-.08-4.49-.2-6.73.06-1.22,0-2.44,0-3.66,0-.09-.12-.17-.09-.25.02-1.06.4-.82,1.33-.71,2.06.09.67.81.31,1.22.32,2.66.04,5.32.02,7.98.02q2.33,0,2.25-2.33ZM18.74,80.25c1.89.11,3.39-.72,4.41-2.21,1.09-1.59,1.24-3.38.37-5.17-.11-.22-.16-.55-.45-.57-.33-.02-.47.3-.61.54-.59,1.01-1.16,2.03-1.76,3.03-.61,1.01-1.71,1.27-2.78.79-.75-.34-.93-1.09-1.38-1.65-.54-1.01-1.06-2.04-1.77-3.02-.75,1.44-1.39,2.75-.93,4.35.66,2.26,3.06,4.11,4.88,3.9Zm40.21,0c2.18.12,4.08-.98,4.98-2.9.83-1.77.58-4.15-.66-5.23-.66,1.16-1.29,2.33-1.99,3.46-1.01,1.64-2.82,2-3.93.12-.22-.38-.49-.73-.73-1.09-.15-.78-.74-1.32-1.06-2.02-.23-.51-.58-.42-.8.08-.51,1.15-.85,2.28-.51,3.59.55,2.19,2.42,3.96,4.71,3.99Zm-41.19-25.96c.58.01,1.17,0,1.75.04.55.05.69-.16.58-.67-.19-.83-.32-1.67-.57-2.48-.23-.77-.02-1.9-.64-2.25-.64-.36-1.64-.07-2.48-.06-2.01-.01-4.03-.02-6.04-.04-.5,0-.69.06-.51.66.42,1.39.73,2.81,1.08,4.22.1.4.28.64.79.63,2.01-.04,4.03-.04,6.04-.05Zm16.98-34.34c0-1.33,0-2.66.03-3.99.02-.79-.33-1.1-1.11-1.09-2.01.02-4.02.03-6.03,0-.55,0-.73.14-.71.7.04,1.46.02,2.92.03,4.38.09.23.3.21.49.22,2.27,0,4.54,0,6.82,0,.19,0,.4.02.49-.21Zm-3.91,20.32c-.1-.32-.37-.2-.57-.2-3.12,0-6.25,0-9.37,0-.2,0-.47-.12-.58.2.19,1.86.65,3.67,1.14,5.47.12.23.33.16.51.16,2.92,0,5.84,0,8.75,0,.17,0,.4.11.47-.17-.12-1.82-.24-3.64-.36-5.46Zm41.03.2c.2-.68-.36-.4-.57-.4-2.97-.02-5.95-.02-8.92,0-.22,0-.53-.15-.66.21-.18.2-.19.45-.23.7-.22,1.39-.48,2.78-.72,4.17-.14.55-.04.81.64.8,2.96-.04,5.92-.01,8.87-.02.2,0,.47.13.58-.18l1.01-5.27Zm-25.22-20.39c3.18,0,6.37.01,9.55,0,.31,0,.75.17.89-.12.16-.32-.18-.66-.37-.94-1.8-2.73-4.29-4.07-7.6-3.96-2.65.09-5.69,2.02-6.75,4.44-.22.51-.08.6.41.59,1.23-.03,2.47-.01,3.7-.01l.08.04.08-.03Zm-2.37,25.65c-.1-1.82.35-3.63.21-5.45-.09-.33-.37-.21-.56-.21-3.19,0-6.37,0-9.56,0-.2,0-.47-.12-.56.21.36,1.8-.06,3.66.41,5.45.08.27.31.18.48.18,3.04,0,6.07,0,9.11,0,.17,0,.4.11.47-.17Zm30.67-22.7c-3.09,0-6.18.05-9.27,0-.87-.02-1.16.28-1.26,1.09-.19,1.46-.48,2.91-.75,4.43,3.39,0,6.74,0,10.09,0,.32,0,.38-.1.46-.43.4-1.66.62-3.35.93-5.02-.01-.17-.08-.19-.2-.07Zm-2.7,14.17c.36-.02.33-.28.38-.55.3-1.71.62-3.41.95-5.18-3.36,0-6.7,0-10.03,0-.2,0-.48-.09-.49.28-.08,1.81-.78,3.53-.77,5.36.25.39.65.2.97.2,2.55.02,5.11.02,7.66,0,.44,0,.9.13,1.33-.12Zm-24.78,3.07c.11,1.57-.36,3.11-.19,4.68-.17.73.03,1.01.86,1,2.91-.05,5.83-.01,8.75-.03.29,0,.65.2.86-.19.28-1.69.56-3.37.84-5.06.41-.76-.2-.6-.56-.6-3.3,0-6.6,0-9.9,0-.22,0-.53-.16-.66.2Zm-13.71-3.1c.14.17.35.15.54.15,3.27,0,6.54,0,9.81,0,.21,0,.47.07.58-.21-.09-1.68.17-3.35.22-5.03.01-.44-.07-.63-.57-.62-3.48.02-6.96.01-10.44.02-.2,0-.51-.1-.51.26,0,1.82-.05,3.65.38,5.44Zm11.32-14.15c-3.96,0-7.92,0-11.87,0-.08-.13-.16-.11-.23,0-.05.04-.14.08-.14.12-.15,1.65.31,3.28.17,4.93-.04.44.35.46.7.46,3.61,0,7.22,0,10.83,0,.39,0,.63-.06.58-.52-.19-1.65.31-3.28.16-4.93-.01-.17-.08-.19-.19-.07Zm2.58,14.07c.14.33.43.23.67.23,3.41,0,6.81,0,10.22,0,.21,0,.47.07.59-.21.33-1.73.66-3.47.99-5.2.06-.32-.08-.45-.42-.45-3.8,0-7.6.01-11.4,0-.39,0-.51.14-.48.51.13,1.71-.36,3.41-.16,5.12Zm.74-14.05c-.31,1.5-.36,3.03-.39,4.56-.02.73.14.98.93.97,3.51-.05,7.03-.02,10.54-.02,1.33,0,1.27,0,1.45-1.34.18-1.37.49-2.73.74-4.09,0-.16-.06-.21-.19-.08-4.28,0-8.57,0-12.85,0-.08-.14-.16-.1-.23.01Zm11.99-3.03l.02.07s.06-.02.06-.02l5.38.02.07.02.02-.07c.02-3.12.02-6.24.08-9.36.02-.94-.38-1.17-1.22-1.16-2.01.03-4.03,0-6.05-.01-.17-.11-.33-.16-.48.02-1.22,0-2.45,0-3.67,0-.1-.14-.18-.11-.24.04-.48,0-.47.38-.55.7-.02.02-.05.05-.07.07.02,0,.04,0,.06.01,0,.61.03,1.23.02,1.84,0,.49.14.72.65.99,1.45.77,2.81,1.67,3.84,3.05.89,1.18,1.5,2.48,2.09,3.8Zm-36.49,0c.2-2.85.03-5.71.09-8.56,0-.41-.19-.48-.54-.48-3.73.01-7.47.02-11.2.01-.34,0-.54.06-.54.47.06,2.85-.1,5.71.08,8.56.15.04.3.1.45.1,3.71.01,7.41.02,11.12.02.18,0,.39.07.53-.13Zm-4.35,17.09c.12.27.36.23.59.23,3.3,0,6.61,0,9.91,0,.21,0,.47.07.58-.22.12-1.55-.3-3.08-.2-4.63.04-.62-.19-1.12-1.06-1.03-.9.1-1.82.04-2.73.01-.84-.03-1.47-.69-1.46-1.47.01-.79.64-1.41,1.49-1.44.81-.02,1.63-.05,2.43,0,.72.05.97-.11.98-.92.02-1.52-.31-3.02-.25-4.54-.01-.16-.07-.2-.19-.08h-12.85c-.12-.12-.18-.09-.19.07.06,1.05.36,2.05.57,3.06.16.74.05,1.69.47,2.19.47.55,1.45.11,2.21.19.85.09,1.43.68,1.42,1.48,0,.8-.59,1.39-1.45,1.44-.35.02-.71.02-1.07,0-.36-.02-.46.15-.39.47.39,1.72.78,3.44,1.17,5.16Zm39.64,17.22c3.16,0,6.31,0,9.46,0,.43,0,.58-.2.68-.64.28-1.36.49-2.75.82-4.09.21-.85-.07-.76-.62-.76-2.83,0-5.66.04-8.49-.02-.85-.02-1,.4-1.11,1.06-.22,1.46-.48,2.92-.73,4.45Zm-7.04-5.49c-1.49,0-2.98,0-4.48,0-.32,0-.68-.07-.63.46.15,1.42-.23,2.82-.21,4.24,0,.62.15.81.8.8,2.59-.04,5.19-.05,7.79,0,.75.02.91-.36,1-.92.21-1.34.29-2.72.64-4.02.2-.76-.18-.56-.52-.57-1.46,0-2.92,0-4.38,0Zm-12.86,0c-1.43,0-2.86,0-4.29,0-.41,0-.62.03-.65.55-.08,1.53.35,3.02.21,4.54-.04.38.2.4.49.4,2.8,0,5.59,0,8.39,0,.29,0,.52-.01.49-.4-.14-1.52.27-3.02.21-4.55-.02-.53-.24-.56-.65-.55-1.4.02-2.8,0-4.2,0Zm-12.55,0c-1.36,0-2.73,0-4.09,0-.35,0-.67-.01-.55.5.32,1.48.62,2.97.96,4.45.08.35.29.56.75.56,2.4-.03,4.81-.04,7.21,0,.56,0,.6-.22.62-.68.06-1.45-.36-2.88-.2-4.34.06-.49-.25-.49-.6-.49-1.36,0-2.73,0-4.09,0Z"/>
  <path class="uuid-c07f256a-da97-494e-9881-d272bafa6733" d="m9.74,65.88c-.73-.08-1.18-.57-1.1-1.2.09-.69.57-1.2,1.41-1.2,2.83.02,5.66,0,8.49,0,8.82,0,17.63,0,26.45,0,1.3,0,1.78-.4,1.89-1.54,1.28,0,2.56,0,3.84,0,.51,1.37.76,1.54,2.18,1.54,5.1,0,10.19.02,15.29-.02.84,0,1.28.14,1.12,1.08-.07.41-.02.84-.03,1.26-.42,0-.84.02-1.27.02-16.4,0-32.81,0-49.21,0-.42,0-.84.04-1.26.07-2.52,0-5.04,0-7.56,0-.08,0-.16-.01-.25-.02Z"/>
  <path class="uuid-65123ba6-1710-43af-a854-bc7aa8af61d1" d="m24.98,68.91c.29-.23.63-.13.94-.13,8.82,0,17.63,0,26.45,0,.31,0,.65-.1.94.13-.1.02-.19.05-.29.05-9.25,0-18.5,0-27.75,0-.1,0-.19-.03-.29-.05Z"/>
  <path class="uuid-65123ba6-1710-43af-a854-bc7aa8af61d1" d="m65.2,68.93c1.56-.26,3.13-.26,4.69,0-1.56,0-3.13,0-4.69,0Z"/>
  <path class="uuid-65123ba6-1710-43af-a854-bc7aa8af61d1" d="m9.75,68.9c1.11-.15,2.22-.32,3.31.08-1.1-.03-2.21-.05-3.31-.08Z"/>
  <path class="uuid-0101dc50-b4e8-4f4c-bc67-42cce9b89301" d="m58.93,57.31c.16-.02.22.01.1.16-.03-.05-.07-.11-.1-.16Z"/>
  <path class="uuid-e1b0a646-431b-414c-9f40-04e8b66315d4" d="m68.98,57.46c-.07-.15,0-.19.14-.18-.05.06-.09.12-.14.18Z"/>
  <path class="uuid-0101dc50-b4e8-4f4c-bc67-42cce9b89301" d="m59.02,60.35c.11.15.06.18-.1.14.03-.05.07-.09.1-.14Z"/>
  <path class="uuid-e1b0a646-431b-414c-9f40-04e8b66315d4" d="m69.13,60.48c-.13.04-.18,0-.13-.13.11-.02.15.02.13.13Z"/>
  <path class="uuid-65123ba6-1710-43af-a854-bc7aa8af61d1" d="m9.15,68.79c.1-.04.19-.03.24.08-.12.09-.19.02-.24-.08Z"/>
  <path class="uuid-d820139d-3545-4f41-9da2-9166624cfafe" d="m43.39,6.52c0,1.28,0,2.56,0,3.83-1.05.1-1.39.46-1.43,1.52,0,.1,0,.2,0,.29.09,1.68.12,3.29-1.33,4.59-.78.7-1.17,1.77-1.48,2.79-.18.58-.53.53-.95.54-.58,0-.47-.42-.47-.76,0-1.14-.04-2.28,0-3.41.08-2.08-1.39-4.01-3.96-3.97-2.08.03-4.16-.02-6.24.02-.65.01-.8-.19-.8-.81,0-2.3-.83-3.1-3.11-3.11-2.18,0-4.36-.03-6.54,0-.67.01-.83-.21-.8-.83.04-1.17.03-2.34,0-3.51-.01-.5.07-.76.67-.75,3.12.03,6.24.02,9.36,0,.58,0,.71.2.69.73-.03,1.07-.01,2.15,0,3.22,0,1.19.83,2.07,2.03,2.09,2.67.03,5.33.03,8,0,1.39-.02,2.21-.87,2.24-2.25.02-1.04.03-2.08,0-3.12-.02-.51.15-.73.66-.66.03,0,.06,0,.1,0,1.88-.05,1.9-.05,1.93,1.8.02.99.49,1.55,1.44,1.75Z"/>
  <path class="uuid-0141c6c1-f607-4f28-80f5-e3999dc65382" d="m29.85,23.11c-.06,1.52.27,3.01.25,4.54-.01.81-.27.97-.98.92-.81-.06-1.62-.03-2.43,0-.85.03-1.48.65-1.49,1.44-.01.78.62,1.44,1.46,1.47.91.03,1.83.09,2.73-.01.87-.1,1.11.41,1.06,1.03-.1,1.56.31,3.08.2,4.63-3.69,0-7.39,0-11.08-.01-.39-1.72-.78-3.44-1.17-5.16-.07-.32.03-.49.39-.47.36.02.71.02,1.07,0,.86-.06,1.45-.65,1.45-1.44,0-.8-.57-1.39-1.42-1.48-.76-.08-1.74.36-2.21-.19-.43-.5-.31-1.45-.47-2.19-.21-1.02-.51-2.02-.57-3.06.06-.02.13-.05.19-.07h12.85c.06.03.13.05.19.08Z"/>
  <path class="uuid-a61c7e17-bb4a-4847-bd80-2c3cd93cddd6" d="m11.8,20.02c-.18-2.85-.02-5.71-.08-8.56,0-.41.19-.47.54-.47,3.73,0,7.47,0,11.2-.01.35,0,.55.07.54.48-.06,2.85.11,5.71-.09,8.56-4.03,0-8.07,0-12.1,0Zm2.66-4.13c1.17.31,2.33.23,3.5,0,.69-.14,1.12-.51,1.18-1.26.06-.77-.28-1.27-1-1.52-1.22-.23-2.45-.32-3.67-.02-.75.19-1.18.76-1.16,1.44.02.63.43,1.19,1.16,1.35Z"/>
  <path class="uuid-b9632bb7-9484-447e-9ca0-659ce8bd5c8e" d="m58.74,9.5c2.02,0,4.03.04,6.05.01.84-.01,1.24.22,1.22,1.16-.06,3.12-.06,6.24-.08,9.35,0,0-.07,0-.07,0,0,0-.01.06-.01.06-1.79,0-3.58-.01-5.37-.02,0,0-.01-.06-.01-.06l-.07.02c-.59-1.33-1.2-2.62-2.09-3.8-1.03-1.38-2.39-2.28-3.84-3.05-.5-.27-.65-.5-.65-.99,0-.61-.01-1.23-.02-1.84,0,0,.05-.03.05-.03l-.04-.04c.08-.31.07-.7.55-.69.08-.01.16-.03.24-.04,1.22,0,2.45,0,3.67,0,.16.1.33.08.49-.02Zm5.87,3.1c-.02-.85-.71-1.45-1.62-1.42-.72.02-1.32.7-1.3,1.49.01.82.67,1.46,1.47,1.43.84-.03,1.48-.69,1.46-1.5Zm-1.59,2.87c-.74.01-1.34.67-1.33,1.46,0,.83.66,1.49,1.44,1.46.85-.04,1.49-.66,1.48-1.47,0-.84-.69-1.47-1.59-1.45Z"/>
  <path class="uuid-0141c6c1-f607-4f28-80f5-e3999dc65382" d="m61.66,23.11c-.25,1.36-.56,2.72-.74,4.09-.18,1.33-.12,1.34-1.45,1.34-3.51,0-7.03-.03-10.54.02-.79.01-.95-.23-.93-.97.04-1.53.09-3.05.39-4.56.08,0,.15,0,.23-.01,4.28,0,8.57,0,12.85,0,.06.03.13.05.19.08Z"/>
  <path class="uuid-0141c6c1-f607-4f28-80f5-e3999dc65382" d="m47.66,37.1c-.2-1.72.29-3.41.16-5.12-.03-.37.09-.51.48-.51,3.8.01,7.6.01,11.4,0,.34,0,.48.13.42.45-.32,1.73-.66,3.47-.99,5.2-3.83,0-7.65-.02-11.48-.03Z"/>
  <path class="uuid-0141c6c1-f607-4f28-80f5-e3999dc65382" d="m33.2,23.03c3.96,0,7.92,0,11.87,0,.07.02.13.05.19.07.15,1.65-.35,3.28-.16,4.93.05.46-.19.52-.58.52-3.61-.01-7.22,0-10.83,0-.35,0-.74-.02-.7-.46.14-1.65-.32-3.28-.17-4.93,0-.04.09-.08.14-.12.08,0,.15,0,.23,0Z"/>
  <path class="uuid-0141c6c1-f607-4f28-80f5-e3999dc65382" d="m33.76,37.18c-.42-1.79-.38-3.62-.38-5.44,0-.37.31-.26.51-.26,3.48,0,6.96,0,10.44-.02.5,0,.59.19.57.62-.05,1.68-.31,3.35-.22,5.03-3.64.02-7.29.04-10.93.06Z"/>
  <path class="uuid-0141c6c1-f607-4f28-80f5-e3999dc65382" d="m47.28,44.96c-.18-1.57.3-3.11.19-4.68,3.47,0,6.94-.01,10.41-.02.31,0,.68-.08.71.41-.28,1.69-.56,3.37-.84,5.06-3.11,0-6.23-.02-9.34.04-.68.01-.98-.22-1.13-.81Z"/>
  <path class="uuid-0141c6c1-f607-4f28-80f5-e3999dc65382" d="m62.29,37.12c0-1.82.69-3.55.77-5.36.02-.37.29-.28.49-.28,3.34,0,6.68,0,10.03,0-.33,1.77-.65,3.48-.95,5.18-.05.27-.02.52-.38.55-.35-.02-.7-.06-1.06-.06-2.97-.01-5.94-.02-8.91-.02Z"/>
  <path class="uuid-0141c6c1-f607-4f28-80f5-e3999dc65382" d="m75.14,23.1c-.32,1.67-.53,3.37-.93,5.02-.08.33-.14.43-.46.43-3.35,0-6.7,0-10.09,0,.26-1.52.56-2.97.75-4.43.11-.82.39-1.11,1.26-1.09,3.09.05,6.18.01,9.27,0,.07.02.13.05.2.07Z"/>
  <path class="uuid-0141c6c1-f607-4f28-80f5-e3999dc65382" d="m44.48,40.28c.15,1.83-.3,3.63-.21,5.45-3.35,0-6.71,0-10.06,0-.48-1.79-.05-3.65-.41-5.45,3.56,0,7.12,0,10.68,0Z"/>
  <path class="uuid-fd54417c-9df4-4b93-9189-39da7a5c942e" d="m46.49,20.08c-1.23,0-2.47-.01-3.7.01-.49.01-.64-.08-.41-.59,1.06-2.42,4.1-4.35,6.75-4.44,3.32-.11,5.81,1.23,7.6,3.96.19.28.53.62.37.94-.14.29-.59.12-.89.12-3.18,0-6.37,0-9.55,0-.05-.08-.1-.1-.16,0Z"/>
  <path class="uuid-0141c6c1-f607-4f28-80f5-e3999dc65382" d="m60.76,45.15c.25-1.39.5-2.78.72-4.17.04-.26.05-.5.23-.7,3.15,0,6.3-.01,9.46-.01.24,0,.53-.09.69.21-.34,1.76-.67,3.51-1.01,5.27-3.03,0-6.06-.02-9.09.02-.53,0-.82-.15-1-.61Z"/>
  <path class="uuid-0141c6c1-f607-4f28-80f5-e3999dc65382" d="m21.45,45.75c-.48-1.8-.95-3.61-1.14-5.47,3.51,0,7.01,0,10.52,0,.12,1.82.24,3.64.36,5.46-3.25,0-6.49,0-9.74.01Z"/>
  <path class="uuid-0141c6c1-f607-4f28-80f5-e3999dc65382" d="m59.19,54.33c.25-1.53.51-2.99.73-4.45.1-.66.25-1.07,1.11-1.06,2.83.06,5.66.03,8.49.02.55,0,.83-.09.62.76-.33,1.34-.54,2.73-.82,4.09-.09.44-.25.64-.68.64-3.15,0-6.3,0-9.46,0Z"/>
  <path class="uuid-0141c6c1-f607-4f28-80f5-e3999dc65382" d="m52.15,48.84c1.46,0,2.92,0,4.38,0,.35,0,.73-.19.52.57-.35,1.3-.43,2.68-.64,4.02-.09.56-.24.94-1,.92-2.59-.06-5.19-.05-7.79,0-.65,0-.79-.18-.8-.8-.01-1.42.36-2.82.21-4.24-.06-.53.31-.46.63-.46,1.49,0,2.98,0,4.48,0Z"/>
  <path class="uuid-0141c6c1-f607-4f28-80f5-e3999dc65382" d="m39.29,48.84c1.4,0,2.8.01,4.2,0,.41,0,.63.02.65.55.06,1.53-.35,3.02-.21,4.55.04.38-.2.4-.49.4-2.8,0-5.59,0-8.39,0-.29,0-.53-.02-.49-.4.15-1.52-.29-3.02-.21-4.54.03-.53.25-.56.65-.55,1.43.02,2.86,0,4.29,0Z"/>
  <path class="uuid-0141c6c1-f607-4f28-80f5-e3999dc65382" d="m26.74,48.84c1.36,0,2.73,0,4.09,0,.35,0,.66,0,.6.49-.16,1.46.26,2.89.2,4.34-.02.45-.05.69-.62.68-2.4-.03-4.81-.03-7.21,0-.46,0-.67-.21-.75-.56-.34-1.48-.64-2.97-.96-4.45-.11-.51.21-.51.55-.5,1.36,0,2.73,0,4.09,0Z"/>
  <path class="uuid-c07f256a-da97-494e-9881-d272bafa6733" d="m26.95,19.95c0-1.46.01-2.92-.03-4.38-.02-.56.17-.71.71-.7,2.01.03,4.02.03,6.03,0,.78,0,1.13.31,1.11,1.09-.03,1.33-.02,2.66-.03,3.99-2.6,0-5.2,0-7.8,0Z"/>
  <path class="uuid-fadec82e-ce52-4f35-9e48-90baf577cd7d" d="m15.62,45.88c-2.03,0-4.07.01-6.1.03-.45,0-.64-.12-.75-.63-.38-1.68-.87-3.34-1.32-5,2.27,0,4.53,0,6.8,0,.29,1.91.84,3.75,1.37,5.59Z"/>
  <path class="uuid-fadec82e-ce52-4f35-9e48-90baf577cd7d" d="m6.82,37.18c-.75-1.44-.86-3.07-1.31-4.6-.1-.32-.34-.65-.17-1.07h6.57c.46,1.87.91,3.73,1.37,5.6-2.15.02-4.31.05-6.46.07Z"/>
  <path class="uuid-fadec82e-ce52-4f35-9e48-90baf577cd7d" d="m17.77,54.29c-2.01.01-4.03,0-6.04.05-.51.01-.69-.23-.79-.63-.36-1.41-.67-2.83-1.08-4.22-.18-.6,0-.66.51-.66,2.01.02,4.03.03,6.04.04.46,1.81.91,3.61,1.37,5.42Z"/>
  <path class="uuid-fadec82e-ce52-4f35-9e48-90baf577cd7d" d="m9.58,23.03c.07,0,.13.02.18.06.04.28.08.57.13.85.25,1.55.96,2.99,1.05,4.58-1.98.01-3.96.02-5.94.04-.27,0-.61.02-.66-.28-.29-1.75-1.08-3.38-1.21-5.17,2.15-.02,4.3-.05,6.44-.07Z"/>
  <path class="uuid-059134d2-0809-483f-ac53-73d8dee6f327" d="m56.62,74.61c.25.36.51.71.73,1.09,1.11,1.88,2.91,1.52,3.93-.12.7-1.13,1.33-2.3,1.99-3.46,1.24,1.08,1.5,3.46.66,5.23-.9,1.92-2.8,3.02-4.98,2.9-1.54-1.57-2.46-3.39-2.34-5.64Z"/>
  <path class="uuid-059134d2-0809-483f-ac53-73d8dee6f327" d="m16.56,75.02c.45.55.62,1.31,1.38,1.65,1.07.48,2.17.23,2.78-.79.6-1,1.16-2.03,1.76-3.03.14-.24.28-.56.61-.54.29.02.34.36.45.57.87,1.79.72,3.58-.37,5.17-1.02,1.49-2.52,2.32-4.41,2.21-.73-.77-1.43-1.57-1.78-2.59-.29-.85-.82-1.68-.4-2.64Z"/>
  <path class="uuid-c07f256a-da97-494e-9881-d272bafa6733" d="m86.51,9.35c1.22,0,2.44,0,3.66,0,2.28.03,4.56.06,6.84.09q.08,2.33-2.25,2.33c-2.66,0-5.32.02-7.98-.02-.41,0-1.12.35-1.22-.32-.1-.73-.34-1.67.71-2.06.08,0,.16-.02.25-.02Z"/>
  <path class="uuid-0141c6c1-f607-4f28-80f5-e3999dc65382" d="m10.94,28.52c-.09-1.59-.8-3.03-1.05-4.58-.05-.28-.08-.57-.13-.85.05-.03.11-.05.18-.06.08,0,.15,0,.23,0,1.03,0,2.06,0,3.09,0,.07.02.13.05.2.07.39,1.67.78,3.34,1.17,5.01.11.46-.2.44-.5.44-1.06-.01-2.12-.02-3.19-.04Z"/>
  <path class="uuid-0141c6c1-f607-4f28-80f5-e3999dc65382" d="m13.28,37.11c-.46-1.87-.91-3.73-1.37-5.6.39-.01.77-.03,1.16-.03,2.38,0,2.36,0,2.76,2.33.19,1.11.48,2.19.73,3.29-1.09,0-2.19,0-3.28.01Z"/>
  <path class="uuid-790c608d-283c-49be-855d-77fcbe473f35" d="m16.56,75.02c-.42.96.11,1.8.4,2.64.35,1.01,1.05,1.82,1.78,2.59-1.82.21-4.22-1.64-4.88-3.9-.46-1.6.18-2.91.93-4.35.72.98,1.23,2.01,1.77,3.02Z"/>
  <path class="uuid-0141c6c1-f607-4f28-80f5-e3999dc65382" d="m15.62,45.88c-.53-1.85-1.08-3.69-1.37-5.59.97,0,1.94,0,2.91-.01.39,1.73.78,3.47,1.18,5.2.08.34-.06.46-.4.45-.77-.03-1.54-.03-2.31-.05Z"/>
  <path class="uuid-790c608d-283c-49be-855d-77fcbe473f35" d="m56.62,74.61c-.13,2.26.8,4.08,2.34,5.64-2.29-.03-4.15-1.8-4.71-3.99-.33-1.32,0-2.44.51-3.59.22-.5.57-.59.8-.08.31.7.9,1.25,1.06,2.02Z"/>
  <path class="uuid-0141c6c1-f607-4f28-80f5-e3999dc65382" d="m17.77,54.29c-.46-1.81-.91-3.61-1.37-5.42.84,0,1.84-.29,2.48.06.62.35.41,1.48.64,2.25.24.81.37,1.65.57,2.48.12.51-.03.72-.58.67-.58-.05-1.17-.03-1.75-.04Z"/>
  <path class="uuid-059134d2-0809-483f-ac53-73d8dee6f327" d="m62.27,57.29h3.51c.06.05.11.1.17.15,0,.98,0,1.96,0,2.94-.05.04-.11.09-.16.13h-3.54c-.06-.04-.11-.09-.17-.13-.08-.98-.08-1.96,0-2.94.06-.05.12-.1.18-.15Z"/>
  <path class="uuid-a61c7e17-bb4a-4847-bd80-2c3cd93cddd6" d="m61.66,68.95c-.69,1.42-1.53,2.76-2.42,4.19-.79-1.4-1.53-2.7-2.26-4,.25-.32.6-.18.9-.18,1.26-.02,2.52,0,3.78,0Z"/>
  <path class="uuid-a61c7e17-bb4a-4847-bd80-2c3cd93cddd6" d="m21.28,68.95c-.61,1.46-1.55,2.72-2.36,4.22-.8-1.52-1.75-2.75-2.3-4.22,1.55,0,3.11,0,4.66,0Z"/>
  <path class="uuid-2502c112-c37f-485a-a2ee-b8c2708a0e5c" d="m17.55,65.91c.42-.02.84-.07,1.26-.07,16.4,0,32.81,0,49.21,0,.42,0,.84-.02,1.27-.02-.22.37-.58.21-.88.21-16.67,0-33.34,0-50.01,0-.29,0-.59.06-.85-.12Z"/>
  <path class="uuid-0101dc50-b4e8-4f4c-bc67-42cce9b89301" d="m11.8,20.02c4.03,0,8.07,0,12.1,0-.14.2-.35.13-.53.13-3.71,0-7.41-.01-11.12-.02-.15,0-.3-.07-.45-.1Z"/>
  <path class="uuid-65123ba6-1710-43af-a854-bc7aa8af61d1" d="m53.86,6.66c.18-.28.47-.17.71-.17,3.51,0,7.01,0,10.52,0,.24,0,.53-.11.71.17-3.98,0-7.96,0-11.94,0Z"/>
  <path class="uuid-0101dc50-b4e8-4f4c-bc67-42cce9b89301" d="m58.59,40.67c-.03-.49-.4-.41-.71-.41-3.47,0-6.94.01-10.41.02.12-.36.44-.2.66-.2,3.3-.01,6.6-.01,9.9,0,.36,0,.98-.16.56.6Z"/>
  <path class="uuid-65123ba6-1710-43af-a854-bc7aa8af61d1" d="m47.66,37.1c3.83,0,7.65.02,11.48.03-.13.27-.38.21-.59.21-3.41,0-6.81,0-10.22,0-.24,0-.54.1-.67-.23Z"/>
  <path class="uuid-e1b0a646-431b-414c-9f40-04e8b66315d4" d="m47.28,44.96c.14.6.45.83,1.13.81,3.11-.06,6.23-.03,9.34-.04-.21.39-.58.19-.86.19-2.92.02-5.83-.02-8.75.03-.83.01-1.03-.27-.86-1Z"/>
  <path class="uuid-65123ba6-1710-43af-a854-bc7aa8af61d1" d="m19.55,37.1c3.69,0,7.39,0,11.08.01-.11.29-.37.22-.58.22-3.3,0-6.61,0-9.91,0-.22,0-.46.03-.59-.23Z"/>
  <path class="uuid-65123ba6-1710-43af-a854-bc7aa8af61d1" d="m33.76,37.18c3.64-.02,7.29-.04,10.93-.06-.12.28-.37.21-.58.21-3.27,0-6.54,0-9.81,0-.19,0-.39.02-.54-.15Z"/>
  <path class="uuid-e1b0a646-431b-414c-9f40-04e8b66315d4" d="m60.76,45.15c.18.46.48.62,1,.61,3.03-.03,6.06-.02,9.09-.02-.11.31-.38.18-.58.18-2.96,0-5.92-.02-8.87.02-.68,0-.78-.25-.64-.8Z"/>
  <path class="uuid-0101dc50-b4e8-4f4c-bc67-42cce9b89301" d="m44.48,40.28c-3.56,0-7.12,0-10.68,0,.09-.33.37-.21.56-.21,3.19,0,6.37,0,9.56,0,.2,0,.47-.12.56.21Z"/>
  <path class="uuid-0101dc50-b4e8-4f4c-bc67-42cce9b89301" d="m71.86,40.48c-.16-.3-.45-.21-.69-.21-3.15,0-6.3,0-9.46.01.13-.36.44-.2.66-.21,2.97-.01,5.95-.01,8.92,0,.21,0,.77-.28.57.4Z"/>
  <path class="uuid-0101dc50-b4e8-4f4c-bc67-42cce9b89301" d="m30.83,40.27c-3.51,0-7.01,0-10.52,0,.1-.32.37-.2.58-.2,3.12,0,6.25,0,9.37,0,.2,0,.47-.12.57.2Z"/>
  <path class="uuid-fadec82e-ce52-4f35-9e48-90baf577cd7d" d="m34.21,45.73c3.35,0,6.71,0,10.06,0-.08.28-.31.17-.47.17-3.04,0-6.07,0-9.11,0-.17,0-.4.09-.48-.18Z"/>
  <path class="uuid-65123ba6-1710-43af-a854-bc7aa8af61d1" d="m62.29,37.12c2.97,0,5.94.01,8.91.02.35,0,.7.04,1.06.06-.42.25-.88.12-1.33.12-2.55.01-5.11.01-7.66,0-.32,0-.72.18-.97-.2Z"/>
  <path class="uuid-0101dc50-b4e8-4f4c-bc67-42cce9b89301" d="m17.16,40.28c-.97,0-1.94,0-2.91.01-2.27,0-4.54,0-6.8,0,.07-.27.29-.2.47-.2,2.92,0,5.85,0,8.77,0,.18,0,.4-.07.47.21Z"/>
  <path class="uuid-65123ba6-1710-43af-a854-bc7aa8af61d1" d="m13.28,37.11c1.09,0,2.19,0,3.28-.01-.09.31-.35.24-.56.24-2.91,0-5.83,0-8.74,0-.15,0-.29-.1-.44-.15,2.15-.02,4.31-.05,6.46-.07Z"/>
  <path class="uuid-fadec82e-ce52-4f35-9e48-90baf577cd7d" d="m21.45,45.75c3.25,0,6.49,0,9.74-.01-.07.28-.31.17-.47.17-2.92,0-5.84,0-8.75,0-.18,0-.4.06-.51-.16Z"/>
  <path class="uuid-2502c112-c37f-485a-a2ee-b8c2708a0e5c" d="m26.95,19.95c2.6,0,5.2,0,7.8,0-.1.23-.3.21-.49.21-2.27,0-4.54,0-6.82,0-.19,0-.4.02-.49-.22Z"/>
  <path class="uuid-2502c112-c37f-485a-a2ee-b8c2708a0e5c" d="m97,9.44c-2.28-.03-4.56-.06-6.84-.09,2.24-.25,4.48-.13,6.73-.06.04,0,.07.1.11.15Z"/>
  <path class="uuid-65123ba6-1710-43af-a854-bc7aa8af61d1" d="m9.58,23.03c-2.15.02-4.3.05-6.44.07.07-.06.14-.17.22-.17,2.08.01,4.16-.18,6.23.09Z"/>
  <path class="uuid-e1b0a646-431b-414c-9f40-04e8b66315d4" d="m30.05,5.92c2.08,0,4.17-.02,6.25-.03-.06.06-.11.18-.17.18-1.99,0-3.98,0-5.98-.01-.04,0-.07-.1-.11-.15Z"/>
  <path class="uuid-65123ba6-1710-43af-a854-bc7aa8af61d1" d="m61.66,68.95c-1.26,0-2.52,0-3.78,0-.3,0-.65-.14-.9.18-.11-.11-.13-.3,0-.31,1.56-.03,3.13-.27,4.68.12Z"/>
  <path class="uuid-65123ba6-1710-43af-a854-bc7aa8af61d1" d="m21.28,68.95c-1.55,0-3.11,0-4.66,0,1.53-.39,3.09-.11,4.64-.15.02,0,.05.04.05.06,0,.03-.02.06-.03.09Z"/>
  <path class="uuid-0101dc50-b4e8-4f4c-bc67-42cce9b89301" d="m30.07,3.01c-.01.97-.03,1.94-.04,2.92-.2-.97-.3-1.95.04-2.92Z"/>
  <path class="uuid-65123ba6-1710-43af-a854-bc7aa8af61d1" d="m58.74,9.5c-.16.1-.32.12-.49.02.16-.18.32-.13.49-.02Z"/>
  <path class="uuid-65123ba6-1710-43af-a854-bc7aa8af61d1" d="m54.59,9.52c-.08.01-.16.03-.24.04.06-.14.14-.18.24-.04Z"/>
  <path class="uuid-65123ba6-1710-43af-a854-bc7aa8af61d1" d="m53.8,10.26l.04.04s-.05.04-.05.03c-.02,0-.04,0-.06-.01.02-.02.05-.05.07-.07Z"/>
  <path class="uuid-65123ba6-1710-43af-a854-bc7aa8af61d1" d="m75.14,23.1c-.07-.02-.13-.05-.2-.07.12-.12.19-.1.2.07Z"/>
  <path class="uuid-0101dc50-b4e8-4f4c-bc67-42cce9b89301" d="m68.99,19.93s.09.07.14.1c-.15.11-.18.06-.14-.1Z"/>
  <polygon class="uuid-0101dc50-b4e8-4f4c-bc67-42cce9b89301" points="65.84 20.09 65.86 20.02 65.93 20.03 65.91 20.11 65.84 20.09"/>
  <polygon class="uuid-0101dc50-b4e8-4f4c-bc67-42cce9b89301" points="60.39 20.02 60.46 20 60.47 20.06 60.41 20.09 60.39 20.02"/>
  <path class="uuid-790c608d-283c-49be-855d-77fcbe473f35" d="m62.27,57.29c-.06.05-.12.1-.18.15-.02-.15.05-.19.18-.15Z"/>
  <path class="uuid-65123ba6-1710-43af-a854-bc7aa8af61d1" d="m61.66,23.11c-.06-.03-.13-.05-.19-.08.13-.13.18-.08.19.08Z"/>
  <path class="uuid-790c608d-283c-49be-855d-77fcbe473f35" d="m65.96,57.45c-.06-.05-.11-.1-.17-.15.13-.03.19.01.17.15Z"/>
  <path class="uuid-e1b0a646-431b-414c-9f40-04e8b66315d4" d="m62.09,60.39c.06.04.11.09.17.13-.12.04-.18,0-.17-.13Z"/>
  <path class="uuid-65123ba6-1710-43af-a854-bc7aa8af61d1" d="m33.2,23.03c-.08,0-.15,0-.23,0,.07-.12.15-.14.23,0Z"/>
  <path class="uuid-65123ba6-1710-43af-a854-bc7aa8af61d1" d="m46.49,20.08c.06-.09.11-.07.16,0,0,0-.08.03-.08.03l-.08-.04Z"/>
  <path class="uuid-65123ba6-1710-43af-a854-bc7aa8af61d1" d="m48.63,23.03c-.08,0-.15,0-.23.01.07-.11.14-.15.23-.01Z"/>
  <path class="uuid-65123ba6-1710-43af-a854-bc7aa8af61d1" d="m45.27,23.11c-.06-.02-.13-.05-.19-.07.12-.12.18-.1.19.07Z"/>
  <path class="uuid-65123ba6-1710-43af-a854-bc7aa8af61d1" d="m29.85,23.11c-.06-.03-.13-.05-.19-.08.12-.13.18-.09.19.08Z"/>
  <path class="uuid-65123ba6-1710-43af-a854-bc7aa8af61d1" d="m16.81,23.03c-.06.02-.13.05-.19.07.01-.16.07-.2.19-.07Z"/>
  <path class="uuid-e1b0a646-431b-414c-9f40-04e8b66315d4" d="m65.8,60.52c.05-.04.11-.09.16-.13.02.13-.03.18-.16.13Z"/>
  <path class="uuid-65123ba6-1710-43af-a854-bc7aa8af61d1" d="m13.45,23.1c-.07-.02-.13-.05-.2-.07.12-.12.18-.1.2.07Z"/>
  <path class="uuid-5087c482-7af3-4a90-b8dc-f0f449c5f0fc" d="m13.33,2.39c0-.07-.01-.13-.02-.2.03.05.06.09.08.14,0,0-.04.04-.07.06Z"/>
  <path class="uuid-65123ba6-1710-43af-a854-bc7aa8af61d1" d="m85.68,6.47c.05-.1.1-.18.23-.1-.08.03-.15.06-.23.1Z"/>
  <path class="uuid-5087c482-7af3-4a90-b8dc-f0f449c5f0fc" d="m13.25,8.04c.02-.06.05-.13.07-.19.12.12.07.17-.07.19Z"/>
  <path class="uuid-2502c112-c37f-485a-a2ee-b8c2708a0e5c" d="m86.51,9.35c-.08,0-.16.02-.25.02.07-.12.15-.14.25-.02Z"/>
  <path class="uuid-65123ba6-1710-43af-a854-bc7aa8af61d1" d="m10.17,23.03c-.08,0-.15,0-.23,0,.08-.13.15-.13.23,0Z"/>
  <path class="uuid-0101dc50-b4e8-4f4c-bc67-42cce9b89301" d="m8.55,20.05c.07-.03.13-.07.2-.1,0,.18-.05.23-.2.1Z"/>
  <path class="uuid-2502c112-c37f-485a-a2ee-b8c2708a0e5c" d="m9.74,65.88c.08,0,.16.01.25.02-.09.11-.17.09-.25-.02Z"/>
  <path class="uuid-ea2e5df6-c74e-433d-9c3b-4a1c566ea18a" d="m18.14,13.11c.72.25,1.06.74,1,1.52-.06.75-.48,1.12-1.17,1.26-1.17,0-2.33,0-3.5,0-.72-.16-1.14-.72-1.16-1.35-.02-.68.41-1.25,1.16-1.44,1.22,0,2.45.01,3.67.02Z"/>
  <path class="uuid-65123ba6-1710-43af-a854-bc7aa8af61d1" d="m18.14,13.11c-1.23,0-2.45-.01-3.67-.02,1.23-.3,2.45-.21,3.67.02Z"/>
  <path class="uuid-65123ba6-1710-43af-a854-bc7aa8af61d1" d="m14.46,15.89c1.17,0,2.33,0,3.5,0-1.17.23-2.33.31-3.5,0Z"/>
  <path class="uuid-ea2e5df6-c74e-433d-9c3b-4a1c566ea18a" d="m64.61,12.6c.02.81-.61,1.46-1.46,1.5-.8.03-1.46-.61-1.47-1.43-.01-.79.58-1.47,1.3-1.49.91-.03,1.6.58,1.62,1.42Z"/>
  <path class="uuid-ea2e5df6-c74e-433d-9c3b-4a1c566ea18a" d="m63.02,15.47c.9-.02,1.59.61,1.59,1.45,0,.8-.63,1.43-1.48,1.47-.78.03-1.44-.63-1.44-1.46,0-.79.6-1.45,1.33-1.46Z"/>
</svg>