<?xml version="1.0" encoding="UTF-8"?>
<svg id="uuid-ed7f288f-dd6c-42d8-bb10-85305bf3a1ec" data-name="Capa 1" xmlns="http://www.w3.org/2000/svg" viewBox="0 0 99.96 99.96">
  <defs>
    <style>
      .uuid-fde79434-681c-4461-b603-88f2668f8b46 {
        fill: #0466a4;
      }

      .uuid-167a87f9-6ddc-4e24-af67-7a3a8ea7aa35 {
        fill: #2b85c7;
      }

      .uuid-e7d3c3a0-8256-4edf-bfaa-23be471ba4da {
        fill: #c5e0e5;
      }

      .uuid-526975cb-309f-4d51-93b4-b2c38d17c904 {
        fill: #e6f0ef;
      }
    </style>
  </defs>
  <path class="uuid-167a87f9-6ddc-4e24-af67-7a3a8ea7aa35" d="m0,53.89v-7.61c.48-.86.22-1.83.35-2.74.57-3.92,1.48-7.73,2.92-11.43,2.83-7.28,7.1-13.57,12.84-18.87,3.62-3.34,7.63-6.11,12.07-8.25,4.65-2.24,9.5-3.77,14.64-4.45,1.02-.13,2.14.14,3.07-.54h4.1c0,13.11,0,26.22,0,39.33,0,.48-.08.98.18,1.43-.06.02-.13.05-.19.07-4.96-.15-9.19,4.31-9.22,9.17-.03,4.97,4.79,9.55,9.22,9.13l.19.07c-.26.45-.18.95-.18,1.43,0,13.11,0,26.22,0,39.33h-4.1c-.13-.26-.39-.2-.6-.2-2.33-.02-4.59-.58-6.83-1.1-4.6-1.05-8.94-2.81-13.05-5.14-5.59-3.17-10.42-7.25-14.43-12.25-3.61-4.5-6.38-9.49-8.27-14.96-1.1-3.19-1.82-6.46-2.34-9.79-.14-.88.11-1.81-.35-2.63Zm24.78,5.28c4.49.2,8.96-3.59,9.21-8.52.3-5.92-4.09-9.79-9.06-9.83-5.41-.04-9.09,4.17-9.28,8.92-.2,5.16,4.28,9.54,9.13,9.43Z"/>
  <path class="uuid-fde79434-681c-4461-b603-88f2668f8b46" d="m50.16,40.76c-.26-.45-.18-.95-.18-1.43,0-13.11,0-26.22,0-39.33h3.71c.16.23.41.15.62.18,1.93.27,3.88.42,5.79.83,5.87,1.26,11.41,3.36,16.48,6.62,4.77,3.07,8.96,6.77,12.5,11.23,3.14,3.95,5.68,8.24,7.5,12.94,1.38,3.56,2.3,7.24,2.84,11.04.14,1.01-.06,2.11.54,3.04v8.2c-.19.08-.17.24-.2.4-.27,1.9-.43,3.82-.84,5.68-1.09,4.87-2.7,9.53-5.15,13.92-2.9,5.2-6.56,9.76-11.04,13.65-4.14,3.6-8.74,6.49-13.87,8.53-3.64,1.45-7.38,2.49-11.24,3.13-1.18.2-2.4.14-3.55.56h-4.1c0-13.11,0-26.22,0-39.33,0-.48-.08-.98.18-1.43,6.42-.15,10.73-6.45,8.39-12.58-1.44-3.75-4.41-5.6-8.39-5.86Zm33.99,9.35c.23-5.22-3.95-9.23-9.04-9.32-5.16-.08-9.28,4.27-9.3,9.21-.02,4.73,4.22,9.25,9.31,9.2,4.68-.05,9.3-4.14,9.03-9.09Z"/>
  <path class="uuid-526975cb-309f-4d51-93b4-b2c38d17c904" d="m24.78,59.16c-4.85.11-9.33-4.27-9.13-9.43.18-4.74,3.87-8.96,9.28-8.92,4.97.04,9.36,3.91,9.06,9.83-.25,4.93-4.72,8.72-9.21,8.52Z"/>
  <path class="uuid-e7d3c3a0-8256-4edf-bfaa-23be471ba4da" d="m50.16,40.76c3.98.26,6.95,2.11,8.39,5.86,2.34,6.12-1.96,12.43-8.39,12.58-.06-.02-.13-.05-.19-.07,0-6.1,0-12.2,0-18.3.06-.02.13-.05.19-.07Z"/>
  <path class="uuid-526975cb-309f-4d51-93b4-b2c38d17c904" d="m49.97,40.83c0,6.1,0,12.2,0,18.3-4.43.42-9.26-4.16-9.22-9.13.03-4.86,4.26-9.31,9.22-9.17Z"/>
  <path class="uuid-e7d3c3a0-8256-4edf-bfaa-23be471ba4da" d="m84.15,50.11c.27,4.95-4.35,9.04-9.03,9.09-5.09.06-9.34-4.46-9.31-9.2.02-4.94,4.14-9.29,9.3-9.21,5.09.08,9.27,4.09,9.04,9.32Z"/>
</svg>