<?xml version="1.0" encoding="UTF-8" standalone="no"?>
<!DOCTYPE svg PUBLIC "-//W3C//DTD SVG 1.1//EN" "http://www.w3.org/Graphics/SVG/1.1/DTD/svg11.dtd">
<svg xmlns="http://www.w3.org/2000/svg" version="1.1" viewBox="0.00 0.00 512.00 512.00">
<g stroke-width="2.00" fill="none" stroke-linecap="butt">
<path stroke="#e590b7" vector-effect="non-scaling-stroke" d="
  M 250.59 57.20
  Q 244.54 60.08 244.54 65.50
  Q 244.53 103.63 244.53 141.74
  Q 244.53 148.39 249.19 150.64
  Q 251.43 151.72 257.97 151.72
  Q 294.36 151.68 330.76 151.71
  Q 336.59 151.71 339.02 145.21"
/>
<path stroke="#eca3a2" vector-effect="non-scaling-stroke" d="
  M 339.06 224.11
  Q 306.13 257.03 273.14 290.14
  Q 257.05 306.27 245.46 325.65"
/>
<path stroke="#f1debe" vector-effect="non-scaling-stroke" d="
  M 245.46 325.65
  Q 230.96 350.13 224.86 377.70
  Q 223.85 382.25 224.51 384.87
  C 226.28 392.00 232.89 391.48 239.18 390.09
  Q 266.00 384.15 289.64 369.91"
/>
<path stroke="#eca3a2" vector-effect="non-scaling-stroke" d="
  M 289.64 369.91
  Q 306.38 359.90 320.68 346.68
  Q 324.68 342.98 338.99 328.58"
/>
<path stroke="#f69978" vector-effect="non-scaling-stroke" d="
  M 289.64 369.91
  Q 289.28 358.43 283.94 349.26
  Q 271.18 327.35 245.46 325.65"
/>
<path stroke="#c08b94" vector-effect="non-scaling-stroke" d="
  M 432.75 234.81
  L 380.52 182.61"
/>
<path stroke="#dddfe0" vector-effect="non-scaling-stroke" d="
  M 205.8302 129.4713
  A 8.37 8.37 0.0 0 0 197.4748 121.0867
  L 98.0949 120.9133
  A 8.37 8.37 0.0 0 0 89.7103 129.2687
  L 89.7098 129.5487
  A 8.37 8.37 0.0 0 0 98.0652 137.9333
  L 197.4451 138.1067
  A 8.37 8.37 0.0 0 0 205.8297 129.7513
  L 205.8302 129.4713"
/>
<path stroke="#dddfe0" vector-effect="non-scaling-stroke" d="
  M 292.03 213.68
  A 8.40 8.40 0.0 0 0 283.63 205.28
  L 98.07 205.28
  A 8.40 8.40 0.0 0 0 89.67 213.68
  L 89.67 213.92
  A 8.40 8.40 0.0 0 0 98.07 222.32
  L 283.63 222.32
  A 8.40 8.40 0.0 0 0 292.03 213.92
  L 292.03 213.68"
/>
<path stroke="#dddfe0" vector-effect="non-scaling-stroke" d="
  M 241.36 298.10
  A 8.45 8.45 0.0 0 0 232.91 289.65
  L 98.11 289.65
  A 8.45 8.45 0.0 0 0 89.66 298.10
  L 89.66 298.32
  A 8.45 8.45 0.0 0 0 98.11 306.77
  L 232.91 306.77
  A 8.45 8.45 0.0 0 0 241.36 298.32
  L 241.36 298.10"
/>
<path stroke="#dddfe0" vector-effect="non-scaling-stroke" d="
  M 206.2502 382.4317
  A 8.35 8.35 0.0 0 0 197.9148 374.0671
  L 98.0749 373.8929
  A 8.35 8.35 0.0 0 0 89.7104 382.2283
  L 89.7098 382.5483
  A 8.35 8.35 0.0 0 0 98.0452 390.9129
  L 197.8851 391.0871
  A 8.35 8.35 0.0 0 0 206.2496 382.7517
  L 206.2502 382.4317"
/>
</g>
<path fill="#e7e8e8" d="
  M 250.59 57.20
  Q 244.54 60.08 244.54 65.50
  Q 244.53 103.63 244.53 141.74
  Q 244.53 148.39 249.19 150.64
  Q 251.43 151.72 257.97 151.72
  Q 294.36 151.68 330.76 151.71
  Q 336.59 151.71 339.02 145.21
  L 339.06 224.11
  Q 306.13 257.03 273.14 290.14
  Q 257.05 306.27 245.46 325.65
  Q 230.96 350.13 224.86 377.70
  Q 223.85 382.25 224.51 384.87
  C 226.28 392.00 232.89 391.48 239.18 390.09
  Q 266.00 384.15 289.64 369.91
  Q 306.38 359.90 320.68 346.68
  Q 324.68 342.98 338.99 328.58
  Q 339.09 387.65 339.04 445.75
  Q 339.04 451.81 334.52 453.85
  Q 332.39 454.81 326.35 454.80
  Q 190.11 454.80 53.87 454.80
  Q 48.65 454.80 46.42 453.38
  Q 42.72 451.03 42.72 445.75
  Q 42.72 256.82 42.73 67.88
  C 42.73 62.21 44.85 57.17 51.00 57.17
  Q 150.64 57.23 250.59 57.20
  Z
  M 205.8302 129.4713
  A 8.37 8.37 0.0 0 0 197.4748 121.0867
  L 98.0949 120.9133
  A 8.37 8.37 0.0 0 0 89.7103 129.2687
  L 89.7098 129.5487
  A 8.37 8.37 0.0 0 0 98.0652 137.9333
  L 197.4451 138.1067
  A 8.37 8.37 0.0 0 0 205.8297 129.7513
  L 205.8302 129.4713
  Z
  M 292.03 213.68
  A 8.40 8.40 0.0 0 0 283.63 205.28
  L 98.07 205.28
  A 8.40 8.40 0.0 0 0 89.67 213.68
  L 89.67 213.92
  A 8.40 8.40 0.0 0 0 98.07 222.32
  L 283.63 222.32
  A 8.40 8.40 0.0 0 0 292.03 213.92
  L 292.03 213.68
  Z
  M 241.36 298.10
  A 8.45 8.45 0.0 0 0 232.91 289.65
  L 98.11 289.65
  A 8.45 8.45 0.0 0 0 89.66 298.10
  L 89.66 298.32
  A 8.45 8.45 0.0 0 0 98.11 306.77
  L 232.91 306.77
  A 8.45 8.45 0.0 0 0 241.36 298.32
  L 241.36 298.10
  Z
  M 206.2502 382.4317
  A 8.35 8.35 0.0 0 0 197.9148 374.0671
  L 98.0749 373.8929
  A 8.35 8.35 0.0 0 0 89.7104 382.2283
  L 89.7098 382.5483
  A 8.35 8.35 0.0 0 0 98.0452 390.9129
  L 197.8851 391.0871
  A 8.35 8.35 0.0 0 0 206.2496 382.7517
  L 206.2502 382.4317
  Z"
/>
<path fill="#e23885" d="
  M 250.59 57.20
  Q 255.87 56.09 259.76 59.98
  Q 298.14 98.36 336.51 136.75
  Q 339.89 140.13 339.02 145.21
  Q 336.59 151.71 330.76 151.71
  Q 294.36 151.68 257.97 151.72
  Q 251.43 151.72 249.19 150.64
  Q 244.53 148.39 244.53 141.74
  Q 244.53 103.63 244.54 65.50
  Q 244.54 60.08 250.59 57.20
  Z"
/>
<rect fill="#d2d5d8" x="-58.06" y="-8.51" transform="translate(147.77,129.51) rotate(0.1)" width="116.12" height="17.02" rx="8.37"/>
<path fill="#8eb8cd" d="
  M 432.75 234.81
  L 380.52 182.61
  Q 399.05 163.70 406.64 156.38
  C 422.56 141.02 448.38 142.81 461.83 160.51
  C 473.15 175.40 471.74 196.01 458.37 209.38
  Q 445.87 221.86 432.75 234.81
  Z"
/>
<path fill="#f15e5b" d="
  M 380.52 182.61
  L 432.75 234.81
  L 338.99 328.58
  Q 324.68 342.98 320.68 346.68
  Q 306.38 359.90 289.64 369.91
  Q 289.28 358.43 283.94 349.26
  Q 271.18 327.35 245.46 325.65
  Q 257.05 306.27 273.14 290.14
  Q 306.13 257.03 339.06 224.11
  L 380.52 182.61
  Z"
/>
<rect fill="#d2d5d8" x="89.67" y="205.28" width="202.36" height="17.04" rx="8.40"/>
<rect fill="#d2d5d8" x="89.66" y="289.65" width="151.70" height="17.12" rx="8.45"/>
<path fill="#fbd494" d="
  M 245.46 325.65
  Q 271.18 327.35 283.94 349.26
  Q 289.28 358.43 289.64 369.91
  Q 266.00 384.15 239.18 390.09
  C 232.89 391.48 226.28 392.00 224.51 384.87
  Q 223.85 382.25 224.86 377.70
  Q 230.96 350.13 245.46 325.65
  Z"
/>
<rect fill="#d2d5d8" x="-58.27" y="-8.51" transform="translate(147.98,382.49) rotate(0.1)" width="116.54" height="17.02" rx="8.35"/>
</svg>
