<?xml version="1.0" encoding="UTF-8" standalone="no"?>
<!DOCTYPE svg PUBLIC "-//W3C//DTD SVG 1.1//EN" "http://www.w3.org/Graphics/SVG/1.1/DTD/svg11.dtd">
<svg xmlns="http://www.w3.org/2000/svg" version="1.1" viewBox="0.00 0.00 512.00 512.00">
<g stroke-width="2.00" fill="none" stroke-linecap="butt">
<path stroke="#f2215a" vector-effect="non-scaling-stroke" d="
  M 100.79 0.00
  L 100.87 29.92"
/>
<path stroke="#ff5f52" vector-effect="non-scaling-stroke" d="
  M 100.87 29.92
  Q 69.71 30.60 49.80 51.81
  C 19.78 83.78 24.43 134.84 61.22 159.55
  Q 77.78 170.66 99.61 172.03
  Q 100.95 172.11 100.95 170.76
  L 100.95 141.85"
/>
<path stroke="#f096a6" vector-effect="non-scaling-stroke" d="
  M 100.95 141.85
  Q 119.31 141.22 130.79 128.75
  C 155.34 102.10 136.50 60.77 100.96 60.00"
/>
<path stroke="#ff9ba8" vector-effect="non-scaling-stroke" d="
  M 100.96 60.00
  Q 100.90 59.99 100.84 59.98"
/>
<path stroke="#ff5f52" vector-effect="non-scaling-stroke" d="
  M 100.84 59.98
  L 100.96 30.08"
/>
<path stroke="#f2215a" vector-effect="non-scaling-stroke" d="
  M 100.96 30.08
  C 153.66 29.77 187.63 85.76 164.39 132.48
  C 152.51 156.34 128.46 171.40 101.51 171.78
  Q 100.97 171.79 100.97 172.33
  Q 100.96 207.33 100.91 242.25
  Q 100.91 242.52 100.78 242.69
  Q 100.64 242.87 100.44 243.03"
/>
<path stroke="#f23e50" vector-effect="non-scaling-stroke" d="
  M 100.96 30.08
  Q 100.75 30.00 100.87 29.92"
/>
<path stroke="#ffb99f" vector-effect="non-scaling-stroke" d="
  M 100.84 59.98
  C 72.19 60.65 52.56 88.30 62.78 115.41
  C 68.77 131.31 83.39 141.30 100.95 141.85"
/>
<path stroke="#f0f0f3" vector-effect="non-scaling-stroke" d="
  M 100.96 60.00
  L 100.95 141.85"
/>
<path stroke="#f2215a" vector-effect="non-scaling-stroke" d="
  M 431.95 318.85
  Q 432.06 414.53 431.93 510.15
  Q 431.93 510.56 432.10 510.81
  Q 432.26 511.05 432.54 511.34"
/>
</g>
<path fill="#ff415b" d="
  M 96.63 0.00
  L 100.79 0.00
  L 100.87 29.92
  Q 69.71 30.60 49.80 51.81
  C 19.78 83.78 24.43 134.84 61.22 159.55
  Q 77.78 170.66 99.61 172.03
  Q 100.95 172.11 100.95 170.76
  L 100.95 141.85
  Q 119.31 141.22 130.79 128.75
  C 155.34 102.10 136.50 60.77 100.96 60.00
  Q 100.90 59.99 100.84 59.98
  L 100.96 30.08
  C 153.66 29.77 187.63 85.76 164.39 132.48
  C 152.51 156.34 128.46 171.40 101.51 171.78
  Q 100.97 171.79 100.97 172.33
  Q 100.96 207.33 100.91 242.25
  Q 100.91 242.52 100.78 242.69
  Q 100.64 242.87 100.44 243.03
  Q 66.84 209.59 33.43 175.97
  Q 24.12 166.62 20.04 161.13
  Q 1.68 136.46 0.00 104.62
  L 0.00 97.03
  C 2.79 43.64 43.43 3.40 96.63 0.00
  Z"
/>
<path fill="#e50058" d="
  M 100.79 0.00
  L 105.49 0.00
  Q 147.80 2.72 175.43 32.82
  C 212.05 72.71 210.06 134.49 172.03 172.53
  Q 136.67 207.90 101.28 243.27
  Q 100.97 243.58 100.67 243.26
  L 100.44 243.03
  Q 100.64 242.87 100.78 242.69
  Q 100.91 242.52 100.91 242.25
  Q 100.96 207.33 100.97 172.33
  Q 100.97 171.79 101.51 171.78
  C 128.46 171.40 152.51 156.34 164.39 132.48
  C 187.63 85.76 153.66 29.77 100.96 30.08
  Q 100.75 30.00 100.87 29.92
  L 100.79 0.00
  Z"
/>
<path fill="#ff7c48" d="
  M 100.87 29.92
  Q 100.75 30.00 100.96 30.08
  L 100.84 59.98
  C 72.19 60.65 52.56 88.30 62.78 115.41
  C 68.77 131.31 83.39 141.30 100.95 141.85
  L 100.95 170.76
  Q 100.95 172.11 99.61 172.03
  Q 77.78 170.66 61.22 159.55
  C 24.43 134.84 19.78 83.78 49.80 51.81
  Q 69.71 30.60 100.87 29.92
  Z"
/>
<path fill="#fff5f5" d="
  M 100.84 59.98
  Q 100.90 59.99 100.96 60.00
  L 100.95 141.85
  C 83.39 141.30 68.77 131.31 62.78 115.41
  C 52.56 88.30 72.19 60.65 100.84 59.98
  Z"
/>
<path fill="#e1ebf0" d="
  M 100.96 60.00
  C 136.50 60.77 155.34 102.10 130.79 128.75
  Q 119.31 141.22 100.95 141.85
  L 100.96 60.00
  Z"
/>
<path fill="#0b799d" d="
  M 343.94 512.00
  L 174.50 512.00
  C 112.38 509.79 67.64 452.09 83.01 391.50
  C 93.83 348.82 132.95 318.78 177.00 318.86
  Q 202.56 318.91 228.13 318.85
  C 238.28 318.82 246.12 317.33 252.84 310.61
  C 269.03 294.43 262.69 266.61 240.20 260.49
  Q 235.66 259.25 224.20 259.28
  Q 199.36 259.34 174.54 259.27
  Q 174.01 259.27 174.01 258.74
  L 174.01 229.81
  Q 174.01 229.35 174.47 229.35
  Q 203.28 229.30 231.99 229.37
  C 262.15 229.45 287.09 251.26 291.37 281.00
  C 295.80 311.73 274.97 341.07 244.72 347.49
  Q 238.30 348.85 225.68 348.82
  Q 204.46 348.79 183.24 348.85
  Q 169.71 348.89 163.34 350.17
  C 139.93 354.85 120.44 372.34 113.19 395.04
  C 100.89 433.54 125.51 473.94 164.82 480.88
  Q 171.10 481.98 184.76 481.98
  Q 264.10 481.95 343.44 481.98
  Q 343.96 481.98 343.96 482.50
  L 343.94 512.00
  Z"
/>
<path fill="#ff415b" d="
  M 431.95 318.85
  Q 432.06 414.53 431.93 510.15
  Q 431.93 510.56 432.10 510.81
  Q 432.26 511.05 432.54 511.34
  L 431.96 512.00
  Q 431.94 511.99 431.93 512.00
  Q 403.81 483.74 375.72 455.78
  C 345.39 425.57 344.01 377.07 372.59 345.34
  Q 395.71 319.67 431.95 318.85
  Z"
/>
<path fill="#e50058" d="
  M 431.95 318.85
  Q 458.37 319.05 478.88 334.12
  Q 509.22 356.43 512.00 395.38
  L 512.00 402.46
  Q 510.56 426.03 497.59 444.56
  Q 493.80 449.97 484.35 459.50
  Q 458.54 485.52 432.54 511.34
  Q 432.26 511.05 432.10 510.81
  Q 431.93 510.56 431.93 510.15
  Q 432.06 414.53 431.95 318.85
  Z"
/>
</svg>
